<?xml version="1.0" encoding="UTF-8"?>
<!DOCTYPE svg PUBLIC "-//W3C//DTD SVG 1.1//EN" "http://www.w3.org/Graphics/SVG/1.1/DTD/svg11.dtd">
<svg xmlns="http://www.w3.org/2000/svg" xmlns:xlink="http://www.w3.org/1999/xlink" version="1.1" width="161px" height="46px" viewBox="-0.5 -0.5 161 46"><defs><style type="text/css">@import url("https://fonts.googleapis.com/css?family=Titillium+Web");</style><style type="text/css"/></defs><g><g/><g><rect x="0" y="0" width="160" height="45" fill="#bfbfbf" stroke="#aaaaaa" stroke-width="0.5" pointer-events="all"/></g><g><rect x="4" y="0" width="152" height="45" fill="#222222" stroke="#aaaaaa" stroke-width="0.5" pointer-events="all"/></g><g/><g><rect x="5.6" y="6.6" width="36" height="8" fill="#333333" stroke="none" pointer-events="all"/></g><g><rect x="6.6" y="7.6" width="32.5" height="6" fill="#222222" stroke="#222222" stroke-width="0.5" pointer-events="all"/></g><g><rect x="39.7" y="12.6" width="1.5" height="1" rx="0.15" ry="0.15" fill="#60a917" stroke="none" transform="rotate(-90,40.45,13.1)" pointer-events="all"/></g><g><rect x="39.7" y="10.2" width="1.5" height="1" rx="0.15" ry="0.15" fill="#0050ef" stroke="none" transform="rotate(-90,40.45,10.7)" pointer-events="all"/></g><g><rect x="6.6" y="7.6" width="25.5" height="6" fill="#333333" stroke="none" pointer-events="all"/></g><g><rect x="34.1" y="8.6" width="3" height="4" rx="0.45" ry="0.45" fill="#0050ef" stroke="none" pointer-events="all"/></g><g><rect x="32.1" y="7.6" width="3.5" height="6" fill="#333333" stroke="none" pointer-events="all"/></g><g><rect x="10.1" y="8.3" width="22" height="1" fill="#222222" stroke="#333333" stroke-width="0.2" pointer-events="all"/></g><g><rect x="10.1" y="9.45" width="22" height="1" fill="#222222" stroke="#333333" stroke-width="0.2" pointer-events="all"/></g><g><rect x="10.1" y="10.7" width="22" height="1" fill="#222222" stroke="#333333" stroke-width="0.2" pointer-events="all"/></g><g><rect x="10.1" y="11.9" width="22" height="1" fill="#222222" stroke="#333333" stroke-width="0.2" pointer-events="all"/></g><g><rect x="24.6" y="7.6" width="1" height="6" fill="#333333" stroke="none" pointer-events="all"/></g><g><rect x="16.6" y="7.6" width="1" height="6" fill="#333333" stroke="none" pointer-events="all"/></g><g><path d="M 36.6 8.6 Q 37.6 8.6 37.6 10.6 Q 37.6 12.6 36.6 12.6 Z" fill="#0050ef" stroke="none" pointer-events="all"/></g><g/><g><rect x="43.2" y="6.6" width="36" height="8" fill="#333333" stroke="none" pointer-events="all"/></g><g><rect x="44.2" y="7.6" width="32.5" height="6" fill="#222222" stroke="#222222" stroke-width="0.5" pointer-events="all"/></g><g><rect x="77.3" y="12.6" width="1.5" height="1" rx="0.15" ry="0.15" fill="#60a917" stroke="none" transform="rotate(-90,78.05,13.1)" pointer-events="all"/></g><g><rect x="77.3" y="10.2" width="1.5" height="1" rx="0.15" ry="0.15" fill="#0050ef" stroke="none" transform="rotate(-90,78.05,10.7)" pointer-events="all"/></g><g><rect x="44.2" y="7.6" width="25.5" height="6" fill="#333333" stroke="none" pointer-events="all"/></g><g><rect x="71.7" y="8.6" width="3" height="4" rx="0.45" ry="0.45" fill="#0050ef" stroke="none" pointer-events="all"/></g><g><rect x="69.7" y="7.6" width="3.5" height="6" fill="#333333" stroke="none" pointer-events="all"/></g><g><rect x="47.7" y="8.3" width="22" height="1" fill="#222222" stroke="#333333" stroke-width="0.2" pointer-events="all"/></g><g><rect x="47.7" y="9.45" width="22" height="1" fill="#222222" stroke="#333333" stroke-width="0.2" pointer-events="all"/></g><g><rect x="47.7" y="10.7" width="22" height="1" fill="#222222" stroke="#333333" stroke-width="0.2" pointer-events="all"/></g><g><rect x="47.7" y="11.9" width="22" height="1" fill="#222222" stroke="#333333" stroke-width="0.2" pointer-events="all"/></g><g><rect x="62.2" y="7.6" width="1" height="6" fill="#333333" stroke="none" pointer-events="all"/></g><g><rect x="54.2" y="7.6" width="1" height="6" fill="#333333" stroke="none" pointer-events="all"/></g><g><path d="M 74.2 8.6 Q 75.2 8.6 75.2 10.6 Q 75.2 12.6 74.2 12.6 Z" fill="#0050ef" stroke="none" pointer-events="all"/></g><g/><g><rect x="80.8" y="6.6" width="36" height="8" fill="#333333" stroke="none" pointer-events="all"/></g><g><rect x="81.8" y="7.6" width="32.5" height="6" fill="#222222" stroke="#222222" stroke-width="0.5" pointer-events="all"/></g><g><rect x="114.9" y="12.6" width="1.5" height="1" rx="0.15" ry="0.15" fill="#60a917" stroke="none" transform="rotate(-90,115.65,13.1)" pointer-events="all"/></g><g><rect x="114.9" y="10.2" width="1.5" height="1" rx="0.15" ry="0.15" fill="#0050ef" stroke="none" transform="rotate(-90,115.65,10.7)" pointer-events="all"/></g><g><rect x="81.8" y="7.6" width="25.5" height="6" fill="#333333" stroke="none" pointer-events="all"/></g><g><rect x="109.3" y="8.6" width="3" height="4" rx="0.45" ry="0.45" fill="#0050ef" stroke="none" pointer-events="all"/></g><g><rect x="107.3" y="7.6" width="3.5" height="6" fill="#333333" stroke="none" pointer-events="all"/></g><g><rect x="85.3" y="8.3" width="22" height="1" fill="#222222" stroke="#333333" stroke-width="0.2" pointer-events="all"/></g><g><rect x="85.3" y="9.45" width="22" height="1" fill="#222222" stroke="#333333" stroke-width="0.2" pointer-events="all"/></g><g><rect x="85.3" y="10.7" width="22" height="1" fill="#222222" stroke="#333333" stroke-width="0.2" pointer-events="all"/></g><g><rect x="85.3" y="11.9" width="22" height="1" fill="#222222" stroke="#333333" stroke-width="0.2" pointer-events="all"/></g><g><rect x="99.8" y="7.6" width="1" height="6" fill="#333333" stroke="none" pointer-events="all"/></g><g><rect x="91.8" y="7.6" width="1" height="6" fill="#333333" stroke="none" pointer-events="all"/></g><g><path d="M 111.8 8.6 Q 112.8 8.6 112.8 10.6 Q 112.8 12.6 111.8 12.6 Z" fill="#0050ef" stroke="none" pointer-events="all"/></g><g/><g><rect x="118.4" y="6.6" width="36" height="8" fill="#333333" stroke="none" pointer-events="all"/></g><g><rect x="119.4" y="7.6" width="32.5" height="6" fill="#222222" stroke="#222222" stroke-width="0.5" pointer-events="all"/></g><g><rect x="152.5" y="12.6" width="1.5" height="1" rx="0.15" ry="0.15" fill="#60a917" stroke="none" transform="rotate(-90,153.25,13.1)" pointer-events="all"/></g><g><rect x="152.5" y="10.2" width="1.5" height="1" rx="0.15" ry="0.15" fill="#0050ef" stroke="none" transform="rotate(-90,153.25,10.7)" pointer-events="all"/></g><g><rect x="119.4" y="7.6" width="25.5" height="6" fill="#333333" stroke="none" pointer-events="all"/></g><g><rect x="146.9" y="8.6" width="3" height="4" rx="0.45" ry="0.45" fill="#0050ef" stroke="none" pointer-events="all"/></g><g><rect x="144.9" y="7.6" width="3.5" height="6" fill="#333333" stroke="none" pointer-events="all"/></g><g><rect x="122.9" y="8.3" width="22" height="1" fill="#222222" stroke="#333333" stroke-width="0.2" pointer-events="all"/></g><g><rect x="122.9" y="9.45" width="22" height="1" fill="#222222" stroke="#333333" stroke-width="0.2" pointer-events="all"/></g><g><rect x="122.9" y="10.7" width="22" height="1" fill="#222222" stroke="#333333" stroke-width="0.2" pointer-events="all"/></g><g><rect x="122.9" y="11.9" width="22" height="1" fill="#222222" stroke="#333333" stroke-width="0.2" pointer-events="all"/></g><g><rect x="137.4" y="7.6" width="1" height="6" fill="#333333" stroke="none" pointer-events="all"/></g><g><rect x="129.4" y="7.6" width="1" height="6" fill="#333333" stroke="none" pointer-events="all"/></g><g><path d="M 149.4 8.6 Q 150.4 8.6 150.4 10.6 Q 150.4 12.6 149.4 12.6 Z" fill="#0050ef" stroke="none" pointer-events="all"/></g><g/><g><rect x="5.6" y="16.2" width="36" height="8" fill="#333333" stroke="none" pointer-events="all"/></g><g><rect x="6.6" y="17.2" width="32.5" height="6" fill="#222222" stroke="#222222" stroke-width="0.5" pointer-events="all"/></g><g><rect x="39.7" y="22.2" width="1.5" height="1" rx="0.15" ry="0.15" fill="#60a917" stroke="none" transform="rotate(-90,40.45,22.7)" pointer-events="all"/></g><g><rect x="39.7" y="19.8" width="1.5" height="1" rx="0.15" ry="0.15" fill="#0050ef" stroke="none" transform="rotate(-90,40.45,20.3)" pointer-events="all"/></g><g><rect x="6.6" y="17.2" width="25.5" height="6" fill="#333333" stroke="none" pointer-events="all"/></g><g><rect x="34.1" y="18.2" width="3" height="4" rx="0.45" ry="0.45" fill="#0050ef" stroke="none" pointer-events="all"/></g><g><rect x="32.1" y="17.2" width="3.5" height="6" fill="#333333" stroke="none" pointer-events="all"/></g><g><rect x="10.1" y="17.9" width="22" height="1" fill="#222222" stroke="#333333" stroke-width="0.2" pointer-events="all"/></g><g><rect x="10.1" y="19.05" width="22" height="1" fill="#222222" stroke="#333333" stroke-width="0.2" pointer-events="all"/></g><g><rect x="10.1" y="20.3" width="22" height="1" fill="#222222" stroke="#333333" stroke-width="0.2" pointer-events="all"/></g><g><rect x="10.1" y="21.5" width="22" height="1" fill="#222222" stroke="#333333" stroke-width="0.2" pointer-events="all"/></g><g><rect x="24.6" y="17.2" width="1" height="6" fill="#333333" stroke="none" pointer-events="all"/></g><g><rect x="16.6" y="17.2" width="1" height="6" fill="#333333" stroke="none" pointer-events="all"/></g><g><path d="M 36.6 18.2 Q 37.6 18.2 37.6 20.2 Q 37.6 22.2 36.6 22.2 Z" fill="#0050ef" stroke="none" pointer-events="all"/></g><g/><g><rect x="43.2" y="16.2" width="36" height="8" fill="#333333" stroke="none" pointer-events="all"/></g><g><rect x="44.2" y="17.2" width="32.5" height="6" fill="#222222" stroke="#222222" stroke-width="0.5" pointer-events="all"/></g><g><rect x="77.3" y="22.2" width="1.5" height="1" rx="0.15" ry="0.15" fill="#60a917" stroke="none" transform="rotate(-90,78.05,22.7)" pointer-events="all"/></g><g><rect x="77.3" y="19.8" width="1.5" height="1" rx="0.15" ry="0.15" fill="#0050ef" stroke="none" transform="rotate(-90,78.05,20.3)" pointer-events="all"/></g><g><rect x="44.2" y="17.2" width="25.5" height="6" fill="#333333" stroke="none" pointer-events="all"/></g><g><rect x="71.7" y="18.2" width="3" height="4" rx="0.45" ry="0.45" fill="#0050ef" stroke="none" pointer-events="all"/></g><g><rect x="69.7" y="17.2" width="3.5" height="6" fill="#333333" stroke="none" pointer-events="all"/></g><g><rect x="47.7" y="17.9" width="22" height="1" fill="#222222" stroke="#333333" stroke-width="0.2" pointer-events="all"/></g><g><rect x="47.7" y="19.05" width="22" height="1" fill="#222222" stroke="#333333" stroke-width="0.2" pointer-events="all"/></g><g><rect x="47.7" y="20.3" width="22" height="1" fill="#222222" stroke="#333333" stroke-width="0.2" pointer-events="all"/></g><g><rect x="47.7" y="21.5" width="22" height="1" fill="#222222" stroke="#333333" stroke-width="0.2" pointer-events="all"/></g><g><rect x="62.2" y="17.2" width="1" height="6" fill="#333333" stroke="none" pointer-events="all"/></g><g><rect x="54.2" y="17.2" width="1" height="6" fill="#333333" stroke="none" pointer-events="all"/></g><g><path d="M 74.2 18.2 Q 75.2 18.2 75.2 20.2 Q 75.2 22.2 74.2 22.2 Z" fill="#0050ef" stroke="none" pointer-events="all"/></g><g/><g><rect x="80.8" y="16.2" width="36" height="8" fill="#333333" stroke="none" pointer-events="all"/></g><g><rect x="81.8" y="17.2" width="32.5" height="6" fill="#222222" stroke="#222222" stroke-width="0.5" pointer-events="all"/></g><g><rect x="114.9" y="22.2" width="1.5" height="1" rx="0.15" ry="0.15" fill="#60a917" stroke="none" transform="rotate(-90,115.65,22.7)" pointer-events="all"/></g><g><rect x="114.9" y="19.8" width="1.5" height="1" rx="0.15" ry="0.15" fill="#0050ef" stroke="none" transform="rotate(-90,115.65,20.3)" pointer-events="all"/></g><g><rect x="81.8" y="17.2" width="25.5" height="6" fill="#333333" stroke="none" pointer-events="all"/></g><g><rect x="109.3" y="18.2" width="3" height="4" rx="0.45" ry="0.45" fill="#0050ef" stroke="none" pointer-events="all"/></g><g><rect x="107.3" y="17.2" width="3.5" height="6" fill="#333333" stroke="none" pointer-events="all"/></g><g><rect x="85.3" y="17.9" width="22" height="1" fill="#222222" stroke="#333333" stroke-width="0.2" pointer-events="all"/></g><g><rect x="85.3" y="19.05" width="22" height="1" fill="#222222" stroke="#333333" stroke-width="0.2" pointer-events="all"/></g><g><rect x="85.3" y="20.3" width="22" height="1" fill="#222222" stroke="#333333" stroke-width="0.2" pointer-events="all"/></g><g><rect x="85.3" y="21.5" width="22" height="1" fill="#222222" stroke="#333333" stroke-width="0.2" pointer-events="all"/></g><g><rect x="99.8" y="17.2" width="1" height="6" fill="#333333" stroke="none" pointer-events="all"/></g><g><rect x="91.8" y="17.2" width="1" height="6" fill="#333333" stroke="none" pointer-events="all"/></g><g><path d="M 111.8 18.2 Q 112.8 18.2 112.8 20.2 Q 112.8 22.2 111.8 22.2 Z" fill="#0050ef" stroke="none" pointer-events="all"/></g><g/><g><rect x="118.4" y="16.2" width="36" height="8" fill="#333333" stroke="none" pointer-events="all"/></g><g><rect x="119.4" y="17.2" width="32.5" height="6" fill="#222222" stroke="#222222" stroke-width="0.5" pointer-events="all"/></g><g><rect x="152.5" y="22.2" width="1.5" height="1" rx="0.15" ry="0.15" fill="#60a917" stroke="none" transform="rotate(-90,153.25,22.7)" pointer-events="all"/></g><g><rect x="152.5" y="19.8" width="1.5" height="1" rx="0.15" ry="0.15" fill="#0050ef" stroke="none" transform="rotate(-90,153.25,20.3)" pointer-events="all"/></g><g><rect x="119.4" y="17.2" width="25.5" height="6" fill="#333333" stroke="none" pointer-events="all"/></g><g><rect x="146.9" y="18.2" width="3" height="4" rx="0.45" ry="0.45" fill="#0050ef" stroke="none" pointer-events="all"/></g><g><rect x="144.9" y="17.2" width="3.5" height="6" fill="#333333" stroke="none" pointer-events="all"/></g><g><rect x="122.9" y="17.9" width="22" height="1" fill="#222222" stroke="#333333" stroke-width="0.2" pointer-events="all"/></g><g><rect x="122.9" y="19.05" width="22" height="1" fill="#222222" stroke="#333333" stroke-width="0.2" pointer-events="all"/></g><g><rect x="122.9" y="20.3" width="22" height="1" fill="#222222" stroke="#333333" stroke-width="0.2" pointer-events="all"/></g><g><rect x="122.9" y="21.5" width="22" height="1" fill="#222222" stroke="#333333" stroke-width="0.2" pointer-events="all"/></g><g><rect x="137.4" y="17.2" width="1" height="6" fill="#333333" stroke="none" pointer-events="all"/></g><g><rect x="129.4" y="17.2" width="1" height="6" fill="#333333" stroke="none" pointer-events="all"/></g><g><path d="M 149.4 18.2 Q 150.4 18.2 150.4 20.2 Q 150.4 22.2 149.4 22.2 Z" fill="#0050ef" stroke="none" pointer-events="all"/></g><g/><g><rect x="5.6" y="25.8" width="36" height="8" fill="#333333" stroke="none" pointer-events="all"/></g><g><rect x="6.6" y="26.8" width="32.5" height="6" fill="#222222" stroke="#222222" stroke-width="0.5" pointer-events="all"/></g><g><rect x="39.7" y="31.8" width="1.5" height="1" rx="0.15" ry="0.15" fill="#60a917" stroke="none" transform="rotate(-90,40.45,32.3)" pointer-events="all"/></g><g><rect x="39.7" y="29.4" width="1.5" height="1" rx="0.15" ry="0.15" fill="#0050ef" stroke="none" transform="rotate(-90,40.45,29.9)" pointer-events="all"/></g><g><rect x="6.6" y="26.8" width="25.5" height="6" fill="#333333" stroke="none" pointer-events="all"/></g><g><rect x="34.1" y="27.8" width="3" height="4" rx="0.45" ry="0.45" fill="#0050ef" stroke="none" pointer-events="all"/></g><g><rect x="32.1" y="26.8" width="3.5" height="6" fill="#333333" stroke="none" pointer-events="all"/></g><g><rect x="10.1" y="27.5" width="22" height="1" fill="#222222" stroke="#333333" stroke-width="0.2" pointer-events="all"/></g><g><rect x="10.1" y="28.65" width="22" height="1" fill="#222222" stroke="#333333" stroke-width="0.2" pointer-events="all"/></g><g><rect x="10.1" y="29.9" width="22" height="1" fill="#222222" stroke="#333333" stroke-width="0.2" pointer-events="all"/></g><g><rect x="10.1" y="31.1" width="22" height="1" fill="#222222" stroke="#333333" stroke-width="0.2" pointer-events="all"/></g><g><rect x="24.6" y="26.8" width="1" height="6" fill="#333333" stroke="none" pointer-events="all"/></g><g><rect x="16.6" y="26.8" width="1" height="6" fill="#333333" stroke="none" pointer-events="all"/></g><g><path d="M 36.6 27.8 Q 37.6 27.8 37.6 29.8 Q 37.6 31.8 36.6 31.8 Z" fill="#0050ef" stroke="none" pointer-events="all"/></g><g/><g><rect x="43.2" y="25.8" width="36" height="8" fill="#333333" stroke="none" pointer-events="all"/></g><g><rect x="44.2" y="26.8" width="32.5" height="6" fill="#222222" stroke="#222222" stroke-width="0.5" pointer-events="all"/></g><g><rect x="77.3" y="31.8" width="1.5" height="1" rx="0.15" ry="0.15" fill="#60a917" stroke="none" transform="rotate(-90,78.05,32.3)" pointer-events="all"/></g><g><rect x="77.3" y="29.4" width="1.5" height="1" rx="0.15" ry="0.15" fill="#0050ef" stroke="none" transform="rotate(-90,78.05,29.9)" pointer-events="all"/></g><g><rect x="44.2" y="26.8" width="25.5" height="6" fill="#333333" stroke="none" pointer-events="all"/></g><g><rect x="71.7" y="27.8" width="3" height="4" rx="0.45" ry="0.45" fill="#0050ef" stroke="none" pointer-events="all"/></g><g><rect x="69.7" y="26.8" width="3.5" height="6" fill="#333333" stroke="none" pointer-events="all"/></g><g><rect x="47.7" y="27.5" width="22" height="1" fill="#222222" stroke="#333333" stroke-width="0.2" pointer-events="all"/></g><g><rect x="47.7" y="28.65" width="22" height="1" fill="#222222" stroke="#333333" stroke-width="0.2" pointer-events="all"/></g><g><rect x="47.7" y="29.9" width="22" height="1" fill="#222222" stroke="#333333" stroke-width="0.2" pointer-events="all"/></g><g><rect x="47.7" y="31.1" width="22" height="1" fill="#222222" stroke="#333333" stroke-width="0.2" pointer-events="all"/></g><g><rect x="62.2" y="26.8" width="1" height="6" fill="#333333" stroke="none" pointer-events="all"/></g><g><rect x="54.2" y="26.8" width="1" height="6" fill="#333333" stroke="none" pointer-events="all"/></g><g><path d="M 74.2 27.8 Q 75.2 27.8 75.2 29.8 Q 75.2 31.8 74.2 31.8 Z" fill="#0050ef" stroke="none" pointer-events="all"/></g><g/><g><rect x="80.8" y="25.8" width="36" height="8" fill="#333333" stroke="none" pointer-events="all"/></g><g><rect x="81.8" y="26.8" width="32.5" height="6" fill="#222222" stroke="#222222" stroke-width="0.5" pointer-events="all"/></g><g><rect x="114.9" y="31.8" width="1.5" height="1" rx="0.15" ry="0.15" fill="#60a917" stroke="none" transform="rotate(-90,115.65,32.3)" pointer-events="all"/></g><g><rect x="114.9" y="29.4" width="1.5" height="1" rx="0.15" ry="0.15" fill="#0050ef" stroke="none" transform="rotate(-90,115.65,29.9)" pointer-events="all"/></g><g><rect x="81.8" y="26.8" width="25.5" height="6" fill="#333333" stroke="none" pointer-events="all"/></g><g><rect x="109.3" y="27.8" width="3" height="4" rx="0.45" ry="0.45" fill="#0050ef" stroke="none" pointer-events="all"/></g><g><rect x="107.3" y="26.8" width="3.5" height="6" fill="#333333" stroke="none" pointer-events="all"/></g><g><rect x="85.3" y="27.5" width="22" height="1" fill="#222222" stroke="#333333" stroke-width="0.2" pointer-events="all"/></g><g><rect x="85.3" y="28.65" width="22" height="1" fill="#222222" stroke="#333333" stroke-width="0.2" pointer-events="all"/></g><g><rect x="85.3" y="29.9" width="22" height="1" fill="#222222" stroke="#333333" stroke-width="0.2" pointer-events="all"/></g><g><rect x="85.3" y="31.1" width="22" height="1" fill="#222222" stroke="#333333" stroke-width="0.2" pointer-events="all"/></g><g><rect x="99.8" y="26.8" width="1" height="6" fill="#333333" stroke="none" pointer-events="all"/></g><g><rect x="91.8" y="26.8" width="1" height="6" fill="#333333" stroke="none" pointer-events="all"/></g><g><path d="M 111.8 27.8 Q 112.8 27.8 112.8 29.8 Q 112.8 31.8 111.8 31.8 Z" fill="#0050ef" stroke="none" pointer-events="all"/></g><g/><g><rect x="118.4" y="25.8" width="36" height="8" fill="#333333" stroke="none" pointer-events="all"/></g><g><rect x="119.4" y="26.8" width="32.5" height="6" fill="#222222" stroke="#222222" stroke-width="0.5" pointer-events="all"/></g><g><rect x="152.5" y="31.8" width="1.5" height="1" rx="0.15" ry="0.15" fill="#60a917" stroke="none" transform="rotate(-90,153.25,32.3)" pointer-events="all"/></g><g><rect x="152.5" y="29.4" width="1.5" height="1" rx="0.15" ry="0.15" fill="#0050ef" stroke="none" transform="rotate(-90,153.25,29.9)" pointer-events="all"/></g><g><rect x="119.4" y="26.8" width="25.5" height="6" fill="#333333" stroke="none" pointer-events="all"/></g><g><rect x="146.9" y="27.8" width="3" height="4" rx="0.45" ry="0.45" fill="#0050ef" stroke="none" pointer-events="all"/></g><g><rect x="144.9" y="26.8" width="3.5" height="6" fill="#333333" stroke="none" pointer-events="all"/></g><g><rect x="122.9" y="27.5" width="22" height="1" fill="#222222" stroke="#333333" stroke-width="0.2" pointer-events="all"/></g><g><rect x="122.9" y="28.65" width="22" height="1" fill="#222222" stroke="#333333" stroke-width="0.2" pointer-events="all"/></g><g><rect x="122.9" y="29.9" width="22" height="1" fill="#222222" stroke="#333333" stroke-width="0.2" pointer-events="all"/></g><g><rect x="122.9" y="31.1" width="22" height="1" fill="#222222" stroke="#333333" stroke-width="0.2" pointer-events="all"/></g><g><rect x="137.4" y="26.8" width="1" height="6" fill="#333333" stroke="none" pointer-events="all"/></g><g><rect x="129.4" y="26.8" width="1" height="6" fill="#333333" stroke="none" pointer-events="all"/></g><g><path d="M 149.4 27.8 Q 150.4 27.8 150.4 29.8 Q 150.4 31.8 149.4 31.8 Z" fill="#0050ef" stroke="none" pointer-events="all"/></g><g/><g><rect x="5.6" y="35.4" width="36" height="8" fill="#333333" stroke="none" pointer-events="all"/></g><g><rect x="6.6" y="36.4" width="32.5" height="6" fill="#222222" stroke="#222222" stroke-width="0.5" pointer-events="all"/></g><g><rect x="39.7" y="41.4" width="1.5" height="1" rx="0.15" ry="0.15" fill="#60a917" stroke="none" transform="rotate(-90,40.45,41.9)" pointer-events="all"/></g><g><rect x="39.7" y="39" width="1.5" height="1" rx="0.15" ry="0.15" fill="#0050ef" stroke="none" transform="rotate(-90,40.45,39.5)" pointer-events="all"/></g><g><rect x="6.6" y="36.4" width="25.5" height="6" fill="#333333" stroke="none" pointer-events="all"/></g><g><rect x="34.1" y="37.4" width="3" height="4" rx="0.45" ry="0.45" fill="#0050ef" stroke="none" pointer-events="all"/></g><g><rect x="32.1" y="36.4" width="3.5" height="6" fill="#333333" stroke="none" pointer-events="all"/></g><g><rect x="10.1" y="37.1" width="22" height="1" fill="#222222" stroke="#333333" stroke-width="0.2" pointer-events="all"/></g><g><rect x="10.1" y="38.25" width="22" height="1" fill="#222222" stroke="#333333" stroke-width="0.2" pointer-events="all"/></g><g><rect x="10.1" y="39.5" width="22" height="1" fill="#222222" stroke="#333333" stroke-width="0.2" pointer-events="all"/></g><g><rect x="10.1" y="40.7" width="22" height="1" fill="#222222" stroke="#333333" stroke-width="0.2" pointer-events="all"/></g><g><rect x="24.6" y="36.4" width="1" height="6" fill="#333333" stroke="none" pointer-events="all"/></g><g><rect x="16.6" y="36.4" width="1" height="6" fill="#333333" stroke="none" pointer-events="all"/></g><g><path d="M 36.6 37.4 Q 37.6 37.4 37.6 39.4 Q 37.6 41.4 36.6 41.4 Z" fill="#0050ef" stroke="none" pointer-events="all"/></g><g/><g><rect x="43.2" y="35.4" width="36" height="8" fill="#333333" stroke="none" pointer-events="all"/></g><g><rect x="44.2" y="36.4" width="32.5" height="6" fill="#222222" stroke="#222222" stroke-width="0.5" pointer-events="all"/></g><g><rect x="77.3" y="41.4" width="1.5" height="1" rx="0.15" ry="0.15" fill="#60a917" stroke="none" transform="rotate(-90,78.05,41.9)" pointer-events="all"/></g><g><rect x="77.3" y="39" width="1.5" height="1" rx="0.15" ry="0.15" fill="#0050ef" stroke="none" transform="rotate(-90,78.05,39.5)" pointer-events="all"/></g><g><rect x="44.2" y="36.4" width="25.5" height="6" fill="#333333" stroke="none" pointer-events="all"/></g><g><rect x="71.7" y="37.4" width="3" height="4" rx="0.45" ry="0.45" fill="#0050ef" stroke="none" pointer-events="all"/></g><g><rect x="69.7" y="36.4" width="3.5" height="6" fill="#333333" stroke="none" pointer-events="all"/></g><g><rect x="47.7" y="37.1" width="22" height="1" fill="#222222" stroke="#333333" stroke-width="0.2" pointer-events="all"/></g><g><rect x="47.7" y="38.25" width="22" height="1" fill="#222222" stroke="#333333" stroke-width="0.2" pointer-events="all"/></g><g><rect x="47.7" y="39.5" width="22" height="1" fill="#222222" stroke="#333333" stroke-width="0.2" pointer-events="all"/></g><g><rect x="47.7" y="40.7" width="22" height="1" fill="#222222" stroke="#333333" stroke-width="0.2" pointer-events="all"/></g><g><rect x="62.2" y="36.4" width="1" height="6" fill="#333333" stroke="none" pointer-events="all"/></g><g><rect x="54.2" y="36.4" width="1" height="6" fill="#333333" stroke="none" pointer-events="all"/></g><g><path d="M 74.2 37.4 Q 75.2 37.4 75.2 39.4 Q 75.2 41.4 74.2 41.4 Z" fill="#0050ef" stroke="none" pointer-events="all"/></g><g/><g><rect x="80.8" y="35.4" width="36" height="8" fill="#333333" stroke="none" pointer-events="all"/></g><g><rect x="81.8" y="36.4" width="32.5" height="6" fill="#222222" stroke="#222222" stroke-width="0.5" pointer-events="all"/></g><g><rect x="114.9" y="41.4" width="1.5" height="1" rx="0.15" ry="0.15" fill="#60a917" stroke="none" transform="rotate(-90,115.65,41.9)" pointer-events="all"/></g><g><rect x="114.9" y="39" width="1.5" height="1" rx="0.15" ry="0.15" fill="#0050ef" stroke="none" transform="rotate(-90,115.65,39.5)" pointer-events="all"/></g><g><rect x="81.8" y="36.4" width="25.5" height="6" fill="#333333" stroke="none" pointer-events="all"/></g><g><rect x="109.3" y="37.4" width="3" height="4" rx="0.45" ry="0.45" fill="#0050ef" stroke="none" pointer-events="all"/></g><g><rect x="107.3" y="36.4" width="3.5" height="6" fill="#333333" stroke="none" pointer-events="all"/></g><g><rect x="85.3" y="37.1" width="22" height="1" fill="#222222" stroke="#333333" stroke-width="0.2" pointer-events="all"/></g><g><rect x="85.3" y="38.25" width="22" height="1" fill="#222222" stroke="#333333" stroke-width="0.2" pointer-events="all"/></g><g><rect x="85.3" y="39.5" width="22" height="1" fill="#222222" stroke="#333333" stroke-width="0.2" pointer-events="all"/></g><g><rect x="85.3" y="40.7" width="22" height="1" fill="#222222" stroke="#333333" stroke-width="0.2" pointer-events="all"/></g><g><rect x="99.8" y="36.4" width="1" height="6" fill="#333333" stroke="none" pointer-events="all"/></g><g><rect x="91.8" y="36.4" width="1" height="6" fill="#333333" stroke="none" pointer-events="all"/></g><g><path d="M 111.8 37.4 Q 112.8 37.4 112.8 39.4 Q 112.8 41.4 111.8 41.4 Z" fill="#0050ef" stroke="none" pointer-events="all"/></g><g/><g><rect x="118.4" y="35.4" width="36" height="8" fill="#333333" stroke="none" pointer-events="all"/></g><g><rect x="119.4" y="36.4" width="32.5" height="6" fill="#222222" stroke="#222222" stroke-width="0.5" pointer-events="all"/></g><g><rect x="152.5" y="41.4" width="1.5" height="1" rx="0.15" ry="0.15" fill="#60a917" stroke="none" transform="rotate(-90,153.25,41.9)" pointer-events="all"/></g><g><rect x="152.5" y="39" width="1.5" height="1" rx="0.15" ry="0.15" fill="#0050ef" stroke="none" transform="rotate(-90,153.25,39.5)" pointer-events="all"/></g><g><rect x="119.4" y="36.4" width="25.5" height="6" fill="#333333" stroke="none" pointer-events="all"/></g><g><rect x="146.9" y="37.4" width="3" height="4" rx="0.45" ry="0.45" fill="#0050ef" stroke="none" pointer-events="all"/></g><g><rect x="144.9" y="36.4" width="3.5" height="6" fill="#333333" stroke="none" pointer-events="all"/></g><g><rect x="122.9" y="37.1" width="22" height="1" fill="#222222" stroke="#333333" stroke-width="0.2" pointer-events="all"/></g><g><rect x="122.9" y="38.25" width="22" height="1" fill="#222222" stroke="#333333" stroke-width="0.2" pointer-events="all"/></g><g><rect x="122.9" y="39.5" width="22" height="1" fill="#222222" stroke="#333333" stroke-width="0.2" pointer-events="all"/></g><g><rect x="122.9" y="40.7" width="22" height="1" fill="#222222" stroke="#333333" stroke-width="0.2" pointer-events="all"/></g><g><rect x="137.4" y="36.4" width="1" height="6" fill="#333333" stroke="none" pointer-events="all"/></g><g><rect x="129.4" y="36.4" width="1" height="6" fill="#333333" stroke="none" pointer-events="all"/></g><g><path d="M 149.4 37.4 Q 150.4 37.4 150.4 39.4 Q 150.4 41.4 149.4 41.4 Z" fill="#0050ef" stroke="none" pointer-events="all"/></g><g><rect x="1" y="12" width="3" height="20" fill="#bfbfbf" stroke="#aaaaaa" stroke-width="0.5" pointer-events="all"/></g><g><rect x="156" y="13" width="3" height="20" fill="#bfbfbf" stroke="#aaaaaa" stroke-width="0.5" pointer-events="all"/></g><g/><g><ellipse cx="1.25" cy="6.75" rx="0.75" ry="0.75" fill="#222222" stroke="none" pointer-events="all"/></g><g><ellipse cx="2.75" cy="6.75" rx="0.75" ry="0.75" fill="#222222" stroke="none" pointer-events="all"/></g><g><rect x="1.25" y="6" width="1.42" height="1.5" fill="#222222" stroke="none" pointer-events="all"/></g><g/><g><ellipse cx="157.25" cy="6.75" rx="0.75" ry="0.75" fill="#222222" stroke="none" pointer-events="all"/></g><g><ellipse cx="158.75" cy="6.75" rx="0.75" ry="0.75" fill="#222222" stroke="none" pointer-events="all"/></g><g><rect x="157.25" y="6" width="1.42" height="1.5" fill="#222222" stroke="none" pointer-events="all"/></g><g/><g><ellipse cx="1.25" cy="37.75" rx="0.75" ry="0.75" fill="#222222" stroke="none" pointer-events="all"/></g><g><ellipse cx="2.75" cy="37.75" rx="0.75" ry="0.75" fill="#222222" stroke="none" pointer-events="all"/></g><g><rect x="1.25" y="37" width="1.42" height="1.5" fill="#222222" stroke="none" pointer-events="all"/></g><g/><g><ellipse cx="157.25" cy="37.75" rx="0.75" ry="0.75" fill="#222222" stroke="none" pointer-events="all"/></g><g><ellipse cx="158.75" cy="37.75" rx="0.75" ry="0.75" fill="#222222" stroke="none" pointer-events="all"/></g><g><rect x="157.25" y="37" width="1.42" height="1.5" fill="#222222" stroke="none" pointer-events="all"/></g><g><rect x="118" y="0.25" width="37.75" height="5.75" fill="#333333" stroke="none" pointer-events="all"/></g><g><rect x="79.92" y="0.25" width="37.75" height="5.75" fill="#333333" stroke="none" pointer-events="all"/></g><g><rect x="119.12" y="0.5" width="2.5" height="2.5" fill="#222222" stroke="#333333" stroke-width="0.5" pointer-events="all"/></g><g><rect x="119.12" y="3.25" width="2.5" height="2.5" fill="#222222" stroke="#333333" stroke-width="0.5" pointer-events="all"/></g><g><rect x="121.87" y="0.5" width="2.5" height="2.5" fill="#222222" stroke="#333333" stroke-width="0.5" pointer-events="all"/></g><g><rect x="121.87" y="3.25" width="2.5" height="2.5" fill="#222222" stroke="#333333" stroke-width="0.5" pointer-events="all"/></g><g><rect x="124.62" y="0.5" width="2.5" height="2.5" fill="#222222" stroke="#333333" stroke-width="0.5" pointer-events="all"/></g><g><rect x="124.62" y="3.25" width="2.5" height="2.5" fill="#222222" stroke="#333333" stroke-width="0.5" pointer-events="all"/></g><g><rect x="127.37" y="0.5" width="2.5" height="2.5" fill="#222222" stroke="#333333" stroke-width="0.5" pointer-events="all"/></g><g><rect x="127.37" y="3.25" width="2.5" height="2.5" fill="#222222" stroke="#333333" stroke-width="0.5" pointer-events="all"/></g><g><rect x="130.12" y="0.5" width="2.5" height="2.5" fill="#222222" stroke="#333333" stroke-width="0.5" pointer-events="all"/></g><g><rect x="130.12" y="3.25" width="2.5" height="2.5" fill="#222222" stroke="#333333" stroke-width="0.5" pointer-events="all"/></g><g><rect x="132.87" y="0.5" width="2.5" height="2.5" fill="#222222" stroke="#333333" stroke-width="0.5" pointer-events="all"/></g><g><rect x="132.87" y="3.25" width="2.5" height="2.5" fill="#222222" stroke="#333333" stroke-width="0.5" pointer-events="all"/></g><g><rect x="135.62" y="0.5" width="2.5" height="2.5" fill="#222222" stroke="#333333" stroke-width="0.5" pointer-events="all"/></g><g><rect x="135.62" y="3.25" width="2.5" height="2.5" fill="#222222" stroke="#333333" stroke-width="0.5" pointer-events="all"/></g><g><rect x="138.37" y="0.5" width="2.5" height="2.5" fill="#222222" stroke="#333333" stroke-width="0.5" pointer-events="all"/></g><g><rect x="138.37" y="3.25" width="2.5" height="2.5" fill="#222222" stroke="#333333" stroke-width="0.5" pointer-events="all"/></g><g><rect x="141.12" y="0.5" width="2.5" height="2.5" fill="#222222" stroke="#333333" stroke-width="0.5" pointer-events="all"/></g><g><rect x="141.12" y="3.25" width="2.5" height="2.5" fill="#222222" stroke="#333333" stroke-width="0.5" pointer-events="all"/></g><g><rect x="143.87" y="0.5" width="2.5" height="2.5" fill="#222222" stroke="#333333" stroke-width="0.5" pointer-events="all"/></g><g><rect x="143.87" y="3.25" width="2.5" height="2.5" fill="#222222" stroke="#333333" stroke-width="0.5" pointer-events="all"/></g><g><rect x="146.62" y="0.5" width="2.5" height="2.5" fill="#222222" stroke="#333333" stroke-width="0.5" pointer-events="all"/></g><g><rect x="146.62" y="3.25" width="2.5" height="2.5" fill="#222222" stroke="#333333" stroke-width="0.5" pointer-events="all"/></g><g><rect x="149.37" y="0.5" width="2.5" height="2.5" fill="#222222" stroke="#333333" stroke-width="0.5" pointer-events="all"/></g><g><rect x="149.37" y="3.25" width="2.5" height="2.5" fill="#222222" stroke="#333333" stroke-width="0.5" pointer-events="all"/></g><g><rect x="152.12" y="0.5" width="2.5" height="2.5" fill="#222222" stroke="#333333" stroke-width="0.5" pointer-events="all"/></g><g><rect x="152.12" y="3.25" width="2.5" height="2.5" fill="#222222" stroke="#333333" stroke-width="0.5" pointer-events="all"/></g><g><rect x="81.05" y="0.5" width="2.5" height="2.5" fill="#222222" stroke="#333333" stroke-width="0.5" pointer-events="all"/></g><g><rect x="81.05" y="3.25" width="2.5" height="2.5" fill="#222222" stroke="#333333" stroke-width="0.5" pointer-events="all"/></g><g><rect x="83.8" y="0.5" width="2.5" height="2.5" fill="#222222" stroke="#333333" stroke-width="0.5" pointer-events="all"/></g><g><rect x="83.8" y="3.25" width="2.5" height="2.5" fill="#222222" stroke="#333333" stroke-width="0.5" pointer-events="all"/></g><g><rect x="86.55" y="0.5" width="2.5" height="2.5" fill="#222222" stroke="#333333" stroke-width="0.5" pointer-events="all"/></g><g><rect x="86.55" y="3.25" width="2.5" height="2.5" fill="#222222" stroke="#333333" stroke-width="0.5" pointer-events="all"/></g><g><rect x="89.3" y="0.5" width="2.5" height="2.5" fill="#222222" stroke="#333333" stroke-width="0.5" pointer-events="all"/></g><g><rect x="89.3" y="3.25" width="2.5" height="2.5" fill="#222222" stroke="#333333" stroke-width="0.5" pointer-events="all"/></g><g><rect x="92.05" y="0.5" width="2.5" height="2.5" fill="#222222" stroke="#333333" stroke-width="0.5" pointer-events="all"/></g><g><rect x="92.05" y="3.25" width="2.5" height="2.5" fill="#222222" stroke="#333333" stroke-width="0.5" pointer-events="all"/></g><g><rect x="94.8" y="0.5" width="2.5" height="2.5" fill="#222222" stroke="#333333" stroke-width="0.5" pointer-events="all"/></g><g><rect x="94.8" y="3.25" width="2.5" height="2.5" fill="#222222" stroke="#333333" stroke-width="0.5" pointer-events="all"/></g><g><rect x="97.55" y="0.5" width="2.5" height="2.5" fill="#222222" stroke="#333333" stroke-width="0.5" pointer-events="all"/></g><g><rect x="97.55" y="3.25" width="2.5" height="2.5" fill="#222222" stroke="#333333" stroke-width="0.5" pointer-events="all"/></g><g><rect x="100.3" y="0.5" width="2.5" height="2.5" fill="#222222" stroke="#333333" stroke-width="0.5" pointer-events="all"/></g><g><rect x="100.3" y="3.25" width="2.5" height="2.5" fill="#222222" stroke="#333333" stroke-width="0.5" pointer-events="all"/></g><g><rect x="103.05" y="0.5" width="2.5" height="2.5" fill="#222222" stroke="#333333" stroke-width="0.5" pointer-events="all"/></g><g><rect x="103.05" y="3.25" width="2.5" height="2.5" fill="#222222" stroke="#333333" stroke-width="0.5" pointer-events="all"/></g><g><rect x="105.8" y="0.5" width="2.5" height="2.5" fill="#222222" stroke="#333333" stroke-width="0.5" pointer-events="all"/></g><g><rect x="105.8" y="3.25" width="2.5" height="2.5" fill="#222222" stroke="#333333" stroke-width="0.5" pointer-events="all"/></g><g><rect x="108.55" y="0.5" width="2.5" height="2.5" fill="#222222" stroke="#333333" stroke-width="0.5" pointer-events="all"/></g><g><rect x="108.55" y="3.25" width="2.5" height="2.5" fill="#222222" stroke="#333333" stroke-width="0.5" pointer-events="all"/></g><g><rect x="111.3" y="0.5" width="2.5" height="2.5" fill="#222222" stroke="#333333" stroke-width="0.5" pointer-events="all"/></g><g><rect x="111.3" y="3.25" width="2.5" height="2.5" fill="#222222" stroke="#333333" stroke-width="0.5" pointer-events="all"/></g><g><rect x="114.05" y="0.5" width="2.5" height="2.5" fill="#222222" stroke="#333333" stroke-width="0.5" pointer-events="all"/></g><g><rect x="114.05" y="3.25" width="2.5" height="2.5" fill="#222222" stroke="#333333" stroke-width="0.5" pointer-events="all"/></g><g><rect x="4.25" y="0.25" width="46.75" height="5.75" fill="#333333" stroke="none" pointer-events="all"/></g><g><rect x="5.75" y="0.5" width="2.5" height="2.5" fill="#222222" stroke="#333333" stroke-width="0.5" pointer-events="all"/></g><g><rect x="5.75" y="3.25" width="2.5" height="2.5" fill="#222222" stroke="#333333" stroke-width="0.5" pointer-events="all"/></g><g><rect x="8.5" y="0.5" width="2.5" height="2.5" fill="#222222" stroke="#333333" stroke-width="0.5" pointer-events="all"/></g><g><rect x="8.5" y="3.25" width="2.5" height="2.5" fill="#222222" stroke="#333333" stroke-width="0.5" pointer-events="all"/></g><g><rect x="11.25" y="0.5" width="2.5" height="2.5" fill="#222222" stroke="#333333" stroke-width="0.5" pointer-events="all"/></g><g><rect x="11.25" y="3.25" width="2.5" height="2.5" fill="#222222" stroke="#333333" stroke-width="0.5" pointer-events="all"/></g><g><rect x="14" y="0.5" width="2.5" height="2.5" fill="#222222" stroke="#333333" stroke-width="0.5" pointer-events="all"/></g><g><rect x="14" y="3.25" width="2.5" height="2.5" fill="#222222" stroke="#333333" stroke-width="0.5" pointer-events="all"/></g><g><rect x="16.75" y="0.5" width="2.5" height="2.5" fill="#222222" stroke="#333333" stroke-width="0.5" pointer-events="all"/></g><g><rect x="16.75" y="3.25" width="2.5" height="2.5" fill="#222222" stroke="#333333" stroke-width="0.5" pointer-events="all"/></g><g><rect x="19.5" y="0.5" width="2.5" height="2.5" fill="#222222" stroke="#333333" stroke-width="0.5" pointer-events="all"/></g><g><rect x="19.5" y="3.25" width="2.5" height="2.5" fill="#222222" stroke="#333333" stroke-width="0.5" pointer-events="all"/></g><g><rect x="22.25" y="0.5" width="2.5" height="2.5" fill="#222222" stroke="#333333" stroke-width="0.5" pointer-events="all"/></g><g><rect x="22.25" y="3.25" width="2.5" height="2.5" fill="#222222" stroke="#333333" stroke-width="0.5" pointer-events="all"/></g><g><rect x="25" y="0.5" width="2.5" height="2.5" fill="#222222" stroke="#333333" stroke-width="0.5" pointer-events="all"/></g><g><rect x="25" y="3.25" width="2.5" height="2.5" fill="#222222" stroke="#333333" stroke-width="0.5" pointer-events="all"/></g><g><rect x="27.75" y="0.5" width="2.5" height="2.5" fill="#222222" stroke="#333333" stroke-width="0.5" pointer-events="all"/></g><g><rect x="27.75" y="3.25" width="2.5" height="2.5" fill="#222222" stroke="#333333" stroke-width="0.5" pointer-events="all"/></g><g><rect x="30.5" y="0.5" width="2.5" height="2.5" fill="#222222" stroke="#333333" stroke-width="0.5" pointer-events="all"/></g><g><rect x="30.5" y="3.25" width="2.5" height="2.5" fill="#222222" stroke="#333333" stroke-width="0.5" pointer-events="all"/></g><g><rect x="33.25" y="0.5" width="2.5" height="2.5" fill="#222222" stroke="#333333" stroke-width="0.5" pointer-events="all"/></g><g><rect x="33.25" y="3.25" width="2.5" height="2.5" fill="#222222" stroke="#333333" stroke-width="0.5" pointer-events="all"/></g><g><rect x="36" y="0.5" width="2.5" height="2.5" fill="#222222" stroke="#333333" stroke-width="0.5" pointer-events="all"/></g><g><rect x="36" y="3.25" width="2.5" height="2.5" fill="#222222" stroke="#333333" stroke-width="0.5" pointer-events="all"/></g><g><rect x="38.75" y="0.5" width="2.5" height="2.5" fill="#222222" stroke="#333333" stroke-width="0.5" pointer-events="all"/></g><g><rect x="38.75" y="3.25" width="2.5" height="2.5" fill="#222222" stroke="#333333" stroke-width="0.5" pointer-events="all"/></g><g><rect x="41.5" y="0.5" width="2.5" height="2.5" fill="#222222" stroke="#333333" stroke-width="0.5" pointer-events="all"/></g><g><rect x="41.45" y="3.25" width="2.5" height="2.5" fill="#222222" stroke="#333333" stroke-width="0.5" pointer-events="all"/></g><g><rect x="44.25" y="0.5" width="2.5" height="2.5" fill="#222222" stroke="#333333" stroke-width="0.5" pointer-events="all"/></g><g><rect x="44.25" y="3.25" width="2.5" height="2.5" fill="#222222" stroke="#333333" stroke-width="0.5" pointer-events="all"/></g><g><rect x="47" y="0.5" width="2.5" height="2.5" fill="#222222" stroke="#333333" stroke-width="0.5" pointer-events="all"/></g><g><rect x="47" y="3.25" width="2.5" height="2.5" fill="#222222" stroke="#333333" stroke-width="0.5" pointer-events="all"/></g><g><rect x="51.5" y="0.25" width="28" height="5.75" fill="#333333" stroke="none" pointer-events="all"/></g><g><rect x="52" y="1" width="27" height="4.5" fill="#333333" stroke="#001dbc" stroke-width="0.2" pointer-events="all"/></g><g><ellipse cx="58.25" cy="4.25" rx="0.75" ry="0.75" fill="#60a917" stroke="none" pointer-events="all"/></g><g><ellipse cx="60" cy="4.25" rx="0.75" ry="0.75" fill="#0050ef" stroke="none" pointer-events="all"/></g><g><ellipse cx="61.75" cy="4.25" rx="0.75" ry="0.75" fill="#0050ef" stroke="none" pointer-events="all"/></g><g><ellipse cx="63.5" cy="4.25" rx="0.75" ry="0.75" fill="#0050ef" stroke="none" pointer-events="all"/></g><g><ellipse cx="67" cy="4.25" rx="0.75" ry="0.75" fill="#a20025" stroke="none" pointer-events="all"/></g><g><ellipse cx="65.25" cy="4.25" rx="0.75" ry="0.75" fill="#0050ef" stroke="none" pointer-events="all"/></g><g><ellipse cx="56" cy="4" rx="1" ry="1" fill="#0050ef" stroke="none" pointer-events="all"/></g><g><ellipse cx="53.5" cy="4" rx="1" ry="1" fill="#0050ef" stroke="none" pointer-events="all"/></g><g/><g><rect x="73.5" y="3" width="5" height="2" fill="#222222" stroke="#aaaaaa" stroke-width="0.1" pointer-events="all"/></g><g><rect x="74" y="3.5" width="4" height="0.5" fill="#0050ef" stroke="none" pointer-events="all"/></g><g><rect x="69.6" y="1.5" width="2.17" height="1" fill="none" stroke="none" pointer-events="all"/><path d="M 69.98 2.05 C 69.95 2.14 69.86 2.2 69.77 2.18 C 69.67 2.17 69.6 2.09 69.6 2 C 69.6 1.9 69.67 1.82 69.77 1.81 C 69.86 1.79 69.95 1.85 69.98 1.94 L 70.2 1.94 C 70.23 1.93 70.25 1.91 70.26 1.89 L 70.33 1.76 C 70.37 1.7 70.44 1.66 70.51 1.65 C 70.57 1.64 70.63 1.63 70.69 1.63 C 70.72 1.55 70.8 1.5 70.88 1.51 C 70.97 1.53 71.03 1.6 71.03 1.68 C 71.03 1.77 70.97 1.84 70.88 1.85 C 70.8 1.87 70.72 1.82 70.69 1.73 C 70.63 1.73 70.56 1.74 70.5 1.75 C 70.47 1.76 70.44 1.78 70.42 1.81 L 70.38 1.89 L 70.35 1.95 L 71.39 1.95 L 71.39 1.77 L 71.77 2.01 L 71.39 2.22 L 71.39 2.05 L 70.59 2.05 C 70.61 2.07 70.62 2.1 70.63 2.13 L 70.68 2.24 C 70.69 2.26 70.7 2.27 70.72 2.28 C 70.75 2.29 70.78 2.29 70.8 2.29 L 70.9 2.29 L 70.9 2.19 L 71.21 2.19 L 71.21 2.5 L 70.9 2.5 L 70.9 2.4 C 70.83 2.4 70.77 2.4 70.71 2.39 C 70.66 2.37 70.63 2.34 70.6 2.31 L 70.56 2.23 L 70.52 2.12 C 70.5 2.08 70.46 2.05 70.42 2.05 Z" fill="#ffffff" stroke="none" pointer-events="all"/></g><g><rect x="74.92" y="1.5" width="2.17" height="1" fill="none" stroke="none" pointer-events="all"/><path d="M 75.3 2.05 C 75.27 2.14 75.18 2.2 75.09 2.18 C 74.99 2.17 74.92 2.09 74.92 2 C 74.92 1.9 74.99 1.82 75.09 1.81 C 75.18 1.79 75.27 1.85 75.3 1.94 L 75.52 1.94 C 75.55 1.93 75.57 1.91 75.58 1.89 L 75.65 1.76 C 75.69 1.7 75.76 1.66 75.83 1.65 C 75.89 1.64 75.95 1.63 76.01 1.63 C 76.04 1.55 76.12 1.5 76.2 1.51 C 76.29 1.53 76.35 1.6 76.35 1.68 C 76.35 1.77 76.29 1.84 76.2 1.85 C 76.12 1.87 76.04 1.82 76.01 1.73 C 75.95 1.73 75.88 1.74 75.82 1.75 C 75.79 1.76 75.76 1.78 75.74 1.81 L 75.7 1.89 L 75.67 1.95 L 76.71 1.95 L 76.71 1.77 L 77.09 2.01 L 76.71 2.22 L 76.71 2.05 L 75.91 2.05 C 75.93 2.07 75.94 2.1 75.95 2.13 L 76 2.24 C 76.01 2.26 76.02 2.27 76.04 2.28 C 76.07 2.29 76.1 2.29 76.12 2.29 L 76.22 2.29 L 76.22 2.19 L 76.53 2.19 L 76.53 2.5 L 76.22 2.5 L 76.22 2.4 C 76.15 2.4 76.09 2.4 76.03 2.39 C 75.98 2.37 75.95 2.34 75.92 2.31 L 75.88 2.23 L 75.84 2.12 C 75.82 2.08 75.78 2.05 75.74 2.05 Z" fill="#ffffff" stroke="none" pointer-events="all"/></g><g><path d="M 53.5 1.99 C 53.53 1.99 53.55 1.97 53.55 1.94 L 53.55 1.74 C 53.55 1.71 53.53 1.69 53.5 1.69 C 53.47 1.69 53.45 1.71 53.45 1.74 L 53.45 1.94 C 53.45 1.97 53.47 1.99 53.5 1.99 Z M 53.5 2.31 C 53.66 2.31 53.79 2.18 53.79 2.03 C 53.79 1.95 53.76 1.86 53.67 1.79 C 53.66 1.78 53.62 1.79 53.61 1.81 C 53.6 1.83 53.59 1.85 53.62 1.87 C 53.66 1.91 53.69 1.96 53.69 2.02 C 53.69 2.13 53.6 2.21 53.5 2.21 C 53.41 2.21 53.32 2.14 53.31 2.02 C 53.31 1.97 53.34 1.91 53.39 1.87 C 53.4 1.86 53.41 1.83 53.39 1.8 C 53.37 1.78 53.34 1.78 53.32 1.79 C 53.25 1.85 53.21 1.92 53.21 2.02 C 53.21 2.19 53.35 2.31 53.5 2.31 Z M 53.5 2.5 C 53.21 2.5 53 2.27 53 2 C 53 1.73 53.22 1.5 53.5 1.5 C 53.76 1.5 54 1.71 54 2 C 54 2.3 53.76 2.5 53.5 2.5 Z" fill="#ffffff" stroke="none" pointer-events="all"/></g><g><path d="M 55.84 2.5 L 55.84 2.34 C 55.63 2.27 55.5 2.06 55.54 1.86 C 55.58 1.65 55.77 1.5 56 1.5 C 56.23 1.5 56.42 1.65 56.46 1.86 C 56.5 2.06 56.37 2.27 56.16 2.34 L 56.16 2.5" fill="none" stroke="rgb(240, 240, 240)" stroke-width="0.1" stroke-miterlimit="10" transform="rotate(-180,56,2)" pointer-events="all"/></g><g><path d="M 59.5 2.33 L 59.5 1.67 C 59.5 1.57 59.72 1.5 60 1.5 C 60.28 1.5 60.5 1.57 60.5 1.67 L 60.5 2.33 C 60.5 2.43 60.28 2.5 60 2.5 C 59.72 2.5 59.5 2.43 59.5 2.33 Z" fill="none" stroke="rgb(240, 240, 240)" stroke-width="0.1" stroke-miterlimit="10" pointer-events="all"/><path d="M 59.5 1.67 C 59.5 1.76 59.72 1.83 60 1.83 C 60.28 1.83 60.5 1.76 60.5 1.67" fill="none" stroke="rgb(240, 240, 240)" stroke-width="0.1" stroke-miterlimit="10" pointer-events="all"/></g><g><rect x="61.25" y="1.5" width="1" height="1" fill="none" stroke="none" pointer-events="all"/><path d="M 61.65 1.5 L 61.65 1.71 L 61.73 1.71 L 61.73 1.91 L 61.35 1.91 C 61.34 1.91 61.34 1.91 61.33 1.91 C 61.33 1.92 61.33 1.92 61.33 1.93 L 61.33 2.29 L 61.25 2.29 L 61.25 2.5 L 61.46 2.5 L 61.46 2.29 L 61.37 2.29 L 61.37 1.95 L 61.73 1.95 L 61.73 2.2 L 61.65 2.2 L 61.65 2.41 L 61.85 2.41 L 61.85 2.2 L 61.77 2.2 L 61.77 1.95 L 62.13 1.95 L 62.13 2.29 L 62.04 2.29 L 62.04 2.5 L 62.25 2.5 L 62.25 2.29 L 62.17 2.29 L 62.17 1.93 C 62.17 1.92 62.17 1.92 62.16 1.91 C 62.16 1.91 62.15 1.91 62.15 1.91 L 61.77 1.91 L 61.77 1.71 L 61.85 1.71 L 61.85 1.5 Z" fill="#ffffff" stroke="none" pointer-events="all"/></g><g><rect x="63" y="1.5" width="1" height="1" fill="none" stroke="none" pointer-events="all"/><path d="M 63.4 1.5 L 63.4 1.71 L 63.48 1.71 L 63.48 1.91 L 63.1 1.91 C 63.09 1.91 63.09 1.91 63.08 1.91 C 63.08 1.92 63.08 1.92 63.08 1.93 L 63.08 2.29 L 63 2.29 L 63 2.5 L 63.21 2.5 L 63.21 2.29 L 63.12 2.29 L 63.12 1.95 L 63.48 1.95 L 63.48 2.2 L 63.4 2.2 L 63.4 2.41 L 63.6 2.41 L 63.6 2.2 L 63.52 2.2 L 63.52 1.95 L 63.88 1.95 L 63.88 2.29 L 63.79 2.29 L 63.79 2.5 L 64 2.5 L 64 2.29 L 63.92 2.29 L 63.92 1.93 C 63.92 1.92 63.92 1.92 63.91 1.91 C 63.91 1.91 63.9 1.91 63.9 1.91 L 63.52 1.91 L 63.52 1.71 L 63.6 1.71 L 63.6 1.5 Z" fill="#ffffff" stroke="none" pointer-events="all"/></g><g><rect x="64.75" y="1.5" width="1" height="1" fill="none" stroke="none" pointer-events="all"/><path d="M 65.15 1.5 L 65.15 1.71 L 65.23 1.71 L 65.23 1.91 L 64.85 1.91 C 64.84 1.91 64.84 1.91 64.83 1.91 C 64.83 1.92 64.83 1.92 64.83 1.93 L 64.83 2.29 L 64.75 2.29 L 64.75 2.5 L 64.96 2.5 L 64.96 2.29 L 64.87 2.29 L 64.87 1.95 L 65.23 1.95 L 65.23 2.2 L 65.15 2.2 L 65.15 2.41 L 65.35 2.41 L 65.35 2.2 L 65.27 2.2 L 65.27 1.95 L 65.63 1.95 L 65.63 2.29 L 65.54 2.29 L 65.54 2.5 L 65.75 2.5 L 65.75 2.29 L 65.67 2.29 L 65.67 1.93 C 65.67 1.92 65.67 1.92 65.66 1.91 C 65.66 1.91 65.65 1.91 65.65 1.91 L 65.27 1.91 L 65.27 1.71 L 65.35 1.71 L 65.35 1.5 Z" fill="#ffffff" stroke="none" pointer-events="all"/></g><g><path d="M 66.5 1.5 L 67.5 2 L 66.5 2.5 Z" fill="none" stroke="rgb(240, 240, 240)" stroke-width="0.1" stroke-miterlimit="10" transform="rotate(-90,67,2)" pointer-events="all"/></g><g><path d="M 58.25 1.99 C 58.28 1.99 58.3 1.97 58.3 1.94 L 58.3 1.74 C 58.3 1.71 58.28 1.69 58.25 1.69 C 58.22 1.69 58.2 1.71 58.2 1.74 L 58.2 1.94 C 58.2 1.97 58.22 1.99 58.25 1.99 Z M 58.25 2.31 C 58.41 2.31 58.54 2.18 58.54 2.03 C 58.54 1.95 58.51 1.86 58.42 1.79 C 58.41 1.78 58.37 1.79 58.36 1.81 C 58.35 1.83 58.34 1.85 58.37 1.87 C 58.41 1.91 58.44 1.96 58.44 2.02 C 58.44 2.13 58.35 2.21 58.25 2.21 C 58.16 2.21 58.07 2.14 58.06 2.02 C 58.06 1.97 58.09 1.91 58.14 1.87 C 58.15 1.86 58.16 1.83 58.14 1.8 C 58.12 1.78 58.09 1.78 58.07 1.79 C 58 1.85 57.96 1.92 57.96 2.02 C 57.96 2.19 58.1 2.31 58.25 2.31 Z M 58.25 2.5 C 57.96 2.5 57.75 2.27 57.75 2 C 57.75 1.73 57.97 1.5 58.25 1.5 C 58.51 1.5 58.75 1.71 58.75 2 C 58.75 2.3 58.51 2.5 58.25 2.5 Z" fill="none" stroke="rgb(240, 240, 240)" stroke-width="0.1" stroke-miterlimit="10" pointer-events="all"/></g><g/><g><rect x="68.18" y="3" width="5" height="2" fill="#222222" stroke="#aaaaaa" stroke-width="0.1" pointer-events="all"/></g><g><rect x="68.68" y="3.5" width="4" height="0.5" fill="#0050ef" stroke="none" pointer-events="all"/></g></g></svg>