<?xml version="1.0" encoding="UTF-8"?>
<!DOCTYPE svg PUBLIC "-//W3C//DTD SVG 1.1//EN" "http://www.w3.org/Graphics/SVG/1.1/DTD/svg11.dtd">
<svg xmlns="http://www.w3.org/2000/svg" xmlns:xlink="http://www.w3.org/1999/xlink" version="1.1" width="484px" height="46px" viewBox="-0.5 -0.5 484 46"><defs><style type="text/css">@import url("https://fonts.googleapis.com/css?family=Titillium+Web");</style><style type="text/css"/></defs><g><g/><g><rect x="0" y="0" width="482.6" height="44.45" fill="#bfbfbf" stroke="#aaaaaa" pointer-events="all"/></g><g><rect x="18" y="0" width="446.6" height="44.45" fill="#222222" stroke="#aaaaaa" pointer-events="all"/></g><g/><g><rect x="7" y="19.23" width="4" height="6" fill="#000000" stroke="none" pointer-events="all"/></g><g><ellipse cx="11" cy="22.23" rx="3" ry="3" fill="#000000" stroke="none" pointer-events="all"/></g><g><ellipse cx="7" cy="22.23" rx="3" ry="3" fill="#000000" stroke="none" pointer-events="all"/></g><g><rect x="8" y="0" width="10" height="44.45" fill="#bfbfbf" stroke="#aaaaaa" pointer-events="all"/></g><g/><g><rect x="471.6" y="19.23" width="4" height="6" fill="#000000" stroke="none" pointer-events="all"/></g><g><ellipse cx="475.6" cy="22.23" rx="3" ry="3" fill="#000000" stroke="none" pointer-events="all"/></g><g><ellipse cx="471.6" cy="22.23" rx="3" ry="3" fill="#000000" stroke="none" pointer-events="all"/></g><g><rect x="464.6" y="0" width="10" height="44.45" fill="#bfbfbf" stroke="#aaaaaa" pointer-events="all"/></g><g/><g><rect x="19.83" y="17.5" width="109.95" height="26.18" fill="#333333" stroke="none" pointer-events="all"/></g><g><rect x="22.97" y="20.64" width="101.57" height="19.9" fill="#222222" stroke="#222222" stroke-width="0.5" pointer-events="all"/></g><g><rect x="125.07" y="38.97" width="4.19" height="3.14" rx="0.47" ry="0.47" fill="#60a917" stroke="#222222" stroke-width="0.1" transform="rotate(90,127.16,40.54)" pointer-events="all"/></g><g><rect x="125.07" y="29.54" width="4.19" height="3.14" rx="0.47" ry="0.47" fill="#0050ef" stroke="#222222" stroke-width="0.1" transform="rotate(90,127.16,31.11)" pointer-events="all"/></g><g><rect x="98.37" y="23.78" width="8.38" height="13.61" rx="1.26" ry="1.26" fill="#0050ef" stroke="none" pointer-events="all"/></g><g><path d="M 105.7 23.78 Q 108.84 23.78 108.84 30.59 Q 108.84 37.4 105.7 37.4 Z" fill="#0050ef" stroke="none" pointer-events="all"/></g><g><path d="M 127.16 26.37 C 127.25 26.37 127.32 26.3 127.32 26.21 L 127.32 25.58 C 127.32 25.5 127.26 25.43 127.17 25.43 C 127.08 25.43 127.01 25.5 127.01 25.57 L 127.01 26.21 C 127.01 26.3 127.08 26.37 127.16 26.37 Z M 127.16 27.38 C 127.66 27.38 128.07 26.98 128.07 26.48 C 128.07 26.23 127.98 25.95 127.71 25.75 C 127.66 25.71 127.55 25.73 127.51 25.79 C 127.46 25.85 127.46 25.94 127.53 26.01 C 127.67 26.12 127.76 26.29 127.76 26.46 C 127.76 26.81 127.47 27.06 127.17 27.06 C 126.88 27.06 126.59 26.85 126.57 26.47 C 126.57 26.32 126.65 26.11 126.81 26 C 126.86 25.96 126.88 25.86 126.82 25.78 C 126.75 25.71 126.66 25.72 126.61 25.75 C 126.38 25.94 126.27 26.16 126.26 26.45 C 126.26 27 126.68 27.38 127.16 27.38 Z M 127.16 27.97 C 126.27 27.97 125.59 27.25 125.59 26.39 C 125.59 25.54 126.3 24.83 127.18 24.83 C 127.99 24.83 128.73 25.49 128.73 26.39 C 128.73 27.34 127.98 27.97 127.16 27.97 Z" fill="none" stroke="#222222" stroke-width="0.1" stroke-miterlimit="10" pointer-events="all"/></g><g><path d="M 125.59 36.87 L 125.59 34.78 C 125.59 34.49 126.3 34.25 127.16 34.25 C 128.03 34.25 128.73 34.49 128.73 34.78 L 128.73 36.87 C 128.73 37.16 128.03 37.4 127.16 37.4 C 126.3 37.4 125.59 37.16 125.59 36.87 Z" fill="none" stroke="#222222" stroke-width="0.1" stroke-miterlimit="10" pointer-events="all"/><path d="M 125.59 34.78 C 125.59 35.07 126.3 35.3 127.16 35.3 C 128.03 35.3 128.73 35.07 128.73 34.78" fill="none" stroke="#222222" stroke-width="0.1" stroke-miterlimit="10" pointer-events="all"/></g><g><rect x="22.97" y="20.64" width="80.63" height="19.9" fill="#333333" stroke="none" pointer-events="all"/></g><g><rect x="88.94" y="23.26" width="4.19" height="14.66" fill="#2d2d2d" stroke="none" pointer-events="all"/></g><g><rect x="29.25" y="23.26" width="4.19" height="14.66" fill="#2d2d2d" stroke="none" pointer-events="all"/></g><g><rect x="33.44" y="23.26" width="55.5" height="2.09" fill="#222222" stroke="none" pointer-events="all"/></g><g><rect x="33.44" y="27.45" width="55.5" height="2.09" fill="#222222" stroke="none" pointer-events="all"/></g><g><rect x="33.44" y="31.64" width="55.5" height="2.09" fill="#222222" stroke="none" pointer-events="all"/></g><g><rect x="33.44" y="35.83" width="55.5" height="2.09" fill="#222222" stroke="none" pointer-events="all"/></g><g><rect x="50.2" y="23.26" width="2.09" height="14.66" fill="#2d2d2d" stroke="none" pointer-events="all"/></g><g><rect x="70.09" y="23.26" width="2.09" height="14.66" fill="#2d2d2d" stroke="none" pointer-events="all"/></g><g><rect x="33.44" y="33.73" width="55.5" height="2.09" fill="#333333" stroke="none" pointer-events="all"/></g><g><rect x="33.44" y="29.54" width="55.5" height="2.09" fill="#333333" stroke="none" pointer-events="all"/></g><g><rect x="33.44" y="25.35" width="55.5" height="2.09" fill="#333333" stroke="none" pointer-events="all"/></g><g><rect x="130.83" y="17.5" width="109.95" height="26.18" fill="#333333" stroke="none" pointer-events="all"/></g><g><rect x="133.97" y="20.64" width="101.57" height="19.9" fill="#222222" stroke="#222222" stroke-width="0.5" pointer-events="all"/></g><g><rect x="236.07" y="38.97" width="4.19" height="3.14" rx="0.47" ry="0.47" fill="#60a917" stroke="#222222" stroke-width="0.1" transform="rotate(90,238.16,40.54)" pointer-events="all"/></g><g><rect x="236.07" y="29.54" width="4.19" height="3.14" rx="0.47" ry="0.47" fill="#0050ef" stroke="#222222" stroke-width="0.1" transform="rotate(90,238.16,31.11)" pointer-events="all"/></g><g><rect x="209.37" y="23.78" width="8.38" height="13.61" rx="1.26" ry="1.26" fill="#0050ef" stroke="none" pointer-events="all"/></g><g><path d="M 216.7 23.78 Q 219.84 23.78 219.84 30.59 Q 219.84 37.4 216.7 37.4 Z" fill="#0050ef" stroke="none" pointer-events="all"/></g><g><path d="M 238.16 26.37 C 238.25 26.37 238.32 26.3 238.32 26.21 L 238.32 25.58 C 238.32 25.5 238.26 25.43 238.17 25.43 C 238.07 25.43 238.01 25.5 238.01 25.57 L 238.01 26.21 C 238.01 26.3 238.08 26.37 238.16 26.37 Z M 238.16 27.38 C 238.66 27.38 239.07 26.98 239.07 26.48 C 239.07 26.23 238.98 25.95 238.71 25.75 C 238.66 25.71 238.55 25.73 238.51 25.79 C 238.46 25.85 238.46 25.94 238.53 26.01 C 238.67 26.12 238.76 26.29 238.76 26.46 C 238.76 26.81 238.46 27.06 238.17 27.06 C 237.88 27.06 237.59 26.85 237.57 26.47 C 237.57 26.32 237.65 26.11 237.81 26 C 237.86 25.96 237.88 25.86 237.81 25.78 C 237.75 25.71 237.65 25.72 237.61 25.75 C 237.38 25.94 237.27 26.16 237.26 26.45 C 237.26 27 237.68 27.38 238.16 27.38 Z M 238.16 27.97 C 237.27 27.97 236.59 27.25 236.59 26.39 C 236.59 25.54 237.3 24.83 238.18 24.83 C 238.99 24.83 239.73 25.49 239.73 26.39 C 239.73 27.34 238.98 27.97 238.16 27.97 Z" fill="none" stroke="#222222" stroke-width="0.1" stroke-miterlimit="10" pointer-events="all"/></g><g><path d="M 236.59 36.87 L 236.59 34.78 C 236.59 34.49 237.3 34.25 238.16 34.25 C 239.03 34.25 239.73 34.49 239.73 34.78 L 239.73 36.87 C 239.73 37.16 239.03 37.4 238.16 37.4 C 237.3 37.4 236.59 37.16 236.59 36.87 Z" fill="none" stroke="#222222" stroke-width="0.1" stroke-miterlimit="10" pointer-events="all"/><path d="M 236.59 34.78 C 236.59 35.07 237.3 35.3 238.16 35.3 C 239.03 35.3 239.73 35.07 239.73 34.78" fill="none" stroke="#222222" stroke-width="0.1" stroke-miterlimit="10" pointer-events="all"/></g><g><rect x="133.97" y="20.64" width="80.63" height="19.9" fill="#333333" stroke="none" pointer-events="all"/></g><g><rect x="199.94" y="23.26" width="4.19" height="14.66" fill="#2d2d2d" stroke="none" pointer-events="all"/></g><g><rect x="140.25" y="23.26" width="4.19" height="14.66" fill="#2d2d2d" stroke="none" pointer-events="all"/></g><g><rect x="144.44" y="23.26" width="55.5" height="2.09" fill="#222222" stroke="none" pointer-events="all"/></g><g><rect x="144.44" y="27.45" width="55.5" height="2.09" fill="#222222" stroke="none" pointer-events="all"/></g><g><rect x="144.44" y="31.64" width="55.5" height="2.09" fill="#222222" stroke="none" pointer-events="all"/></g><g><rect x="144.44" y="35.83" width="55.5" height="2.09" fill="#222222" stroke="none" pointer-events="all"/></g><g><rect x="161.2" y="23.26" width="2.09" height="14.66" fill="#2d2d2d" stroke="none" pointer-events="all"/></g><g><rect x="181.09" y="23.26" width="2.09" height="14.66" fill="#2d2d2d" stroke="none" pointer-events="all"/></g><g><rect x="144.44" y="33.73" width="55.5" height="2.09" fill="#333333" stroke="none" pointer-events="all"/></g><g><rect x="144.44" y="29.54" width="55.5" height="2.09" fill="#333333" stroke="none" pointer-events="all"/></g><g><rect x="144.44" y="25.35" width="55.5" height="2.09" fill="#333333" stroke="none" pointer-events="all"/></g><g><rect x="241.83" y="17.5" width="109.95" height="26.18" fill="#333333" stroke="none" pointer-events="all"/></g><g><rect x="244.97" y="20.64" width="101.57" height="19.9" fill="#222222" stroke="#222222" stroke-width="0.5" pointer-events="all"/></g><g><rect x="347.07" y="38.97" width="4.19" height="3.14" rx="0.47" ry="0.47" fill="#60a917" stroke="#222222" stroke-width="0.1" transform="rotate(90,349.16,40.54)" pointer-events="all"/></g><g><rect x="347.07" y="29.54" width="4.19" height="3.14" rx="0.47" ry="0.47" fill="#0050ef" stroke="#222222" stroke-width="0.1" transform="rotate(90,349.16,31.11)" pointer-events="all"/></g><g><rect x="320.37" y="23.78" width="8.38" height="13.61" rx="1.26" ry="1.26" fill="#0050ef" stroke="none" pointer-events="all"/></g><g><path d="M 327.7 23.78 Q 330.84 23.78 330.84 30.59 Q 330.84 37.4 327.7 37.4 Z" fill="#0050ef" stroke="none" pointer-events="all"/></g><g><path d="M 349.16 26.37 C 349.25 26.37 349.32 26.3 349.32 26.21 L 349.32 25.58 C 349.32 25.5 349.26 25.43 349.17 25.43 C 349.07 25.43 349.01 25.5 349.01 25.57 L 349.01 26.21 C 349.01 26.3 349.08 26.37 349.16 26.37 Z M 349.16 27.38 C 349.66 27.38 350.07 26.98 350.07 26.48 C 350.07 26.23 349.98 25.95 349.71 25.75 C 349.66 25.71 349.55 25.73 349.51 25.79 C 349.46 25.85 349.46 25.94 349.53 26.01 C 349.67 26.12 349.76 26.29 349.76 26.46 C 349.76 26.81 349.46 27.06 349.17 27.06 C 348.88 27.06 348.59 26.85 348.57 26.47 C 348.57 26.32 348.65 26.11 348.8 26 C 348.86 25.96 348.88 25.86 348.81 25.78 C 348.75 25.71 348.65 25.72 348.61 25.75 C 348.38 25.94 348.27 26.16 348.26 26.45 C 348.26 27 348.68 27.38 349.16 27.38 Z M 349.16 27.97 C 348.27 27.97 347.59 27.25 347.59 26.39 C 347.59 25.54 348.29 24.83 349.18 24.83 C 349.99 24.83 350.73 25.49 350.73 26.39 C 350.73 27.34 349.98 27.97 349.16 27.97 Z" fill="none" stroke="#222222" stroke-width="0.1" stroke-miterlimit="10" pointer-events="all"/></g><g><path d="M 347.59 36.87 L 347.59 34.78 C 347.59 34.49 348.3 34.25 349.16 34.25 C 350.03 34.25 350.73 34.49 350.73 34.78 L 350.73 36.87 C 350.73 37.16 350.03 37.4 349.16 37.4 C 348.3 37.4 347.59 37.16 347.59 36.87 Z" fill="none" stroke="#222222" stroke-width="0.1" stroke-miterlimit="10" pointer-events="all"/><path d="M 347.59 34.78 C 347.59 35.07 348.3 35.3 349.16 35.3 C 350.03 35.3 350.73 35.07 350.73 34.78" fill="none" stroke="#222222" stroke-width="0.1" stroke-miterlimit="10" pointer-events="all"/></g><g><rect x="244.97" y="20.64" width="80.63" height="19.9" fill="#333333" stroke="none" pointer-events="all"/></g><g><rect x="310.94" y="23.26" width="4.19" height="14.66" fill="#2d2d2d" stroke="none" pointer-events="all"/></g><g><rect x="251.25" y="23.26" width="4.19" height="14.66" fill="#2d2d2d" stroke="none" pointer-events="all"/></g><g><rect x="255.44" y="23.26" width="55.5" height="2.09" fill="#222222" stroke="none" pointer-events="all"/></g><g><rect x="255.44" y="27.45" width="55.5" height="2.09" fill="#222222" stroke="none" pointer-events="all"/></g><g><rect x="255.44" y="31.64" width="55.5" height="2.09" fill="#222222" stroke="none" pointer-events="all"/></g><g><rect x="255.44" y="35.83" width="55.5" height="2.09" fill="#222222" stroke="none" pointer-events="all"/></g><g><rect x="272.2" y="23.26" width="2.09" height="14.66" fill="#2d2d2d" stroke="none" pointer-events="all"/></g><g><rect x="292.09" y="23.26" width="2.09" height="14.66" fill="#2d2d2d" stroke="none" pointer-events="all"/></g><g><rect x="255.44" y="33.73" width="55.5" height="2.09" fill="#333333" stroke="none" pointer-events="all"/></g><g><rect x="255.44" y="29.54" width="55.5" height="2.09" fill="#333333" stroke="none" pointer-events="all"/></g><g><rect x="255.44" y="25.35" width="55.5" height="2.09" fill="#333333" stroke="none" pointer-events="all"/></g><g><rect x="352.83" y="17.5" width="109.95" height="26.18" fill="#333333" stroke="none" pointer-events="all"/></g><g><rect x="355.97" y="20.64" width="101.57" height="19.9" fill="#222222" stroke="#222222" stroke-width="0.5" pointer-events="all"/></g><g><rect x="458.07" y="38.97" width="4.19" height="3.14" rx="0.47" ry="0.47" fill="#60a917" stroke="#222222" stroke-width="0.1" transform="rotate(90,460.16,40.54)" pointer-events="all"/></g><g><rect x="458.07" y="29.54" width="4.19" height="3.14" rx="0.47" ry="0.47" fill="#0050ef" stroke="#222222" stroke-width="0.1" transform="rotate(90,460.16,31.11)" pointer-events="all"/></g><g><rect x="431.37" y="23.78" width="8.38" height="13.61" rx="1.26" ry="1.26" fill="#0050ef" stroke="none" pointer-events="all"/></g><g><path d="M 438.7 23.78 Q 441.84 23.78 441.84 30.59 Q 441.84 37.4 438.7 37.4 Z" fill="#0050ef" stroke="none" pointer-events="all"/></g><g><path d="M 460.16 26.37 C 460.25 26.37 460.32 26.3 460.32 26.21 L 460.32 25.58 C 460.32 25.5 460.26 25.43 460.17 25.43 C 460.07 25.43 460.01 25.5 460.01 25.57 L 460.01 26.21 C 460.01 26.3 460.08 26.37 460.16 26.37 Z M 460.16 27.38 C 460.66 27.38 461.07 26.98 461.07 26.48 C 461.07 26.23 460.98 25.95 460.7 25.75 C 460.65 25.71 460.55 25.73 460.51 25.79 C 460.46 25.85 460.46 25.94 460.53 26.01 C 460.67 26.12 460.76 26.29 460.76 26.46 C 460.76 26.81 460.46 27.06 460.17 27.06 C 459.88 27.06 459.59 26.85 459.57 26.47 C 459.57 26.32 459.65 26.11 459.8 26 C 459.86 25.96 459.88 25.86 459.81 25.78 C 459.75 25.71 459.65 25.72 459.61 25.75 C 459.38 25.94 459.27 26.16 459.26 26.45 C 459.26 27 459.68 27.38 460.16 27.38 Z M 460.16 27.97 C 459.27 27.97 458.59 27.25 458.59 26.39 C 458.59 25.54 459.29 24.83 460.18 24.83 C 460.99 24.83 461.73 25.49 461.73 26.39 C 461.73 27.34 460.98 27.97 460.16 27.97 Z" fill="none" stroke="#222222" stroke-width="0.1" stroke-miterlimit="10" pointer-events="all"/></g><g><path d="M 458.59 36.87 L 458.59 34.78 C 458.59 34.49 459.29 34.25 460.16 34.25 C 461.03 34.25 461.73 34.49 461.73 34.78 L 461.73 36.87 C 461.73 37.16 461.03 37.4 460.16 37.4 C 459.29 37.4 458.59 37.16 458.59 36.87 Z" fill="none" stroke="#222222" stroke-width="0.1" stroke-miterlimit="10" pointer-events="all"/><path d="M 458.59 34.78 C 458.59 35.07 459.29 35.3 460.16 35.3 C 461.03 35.3 461.73 35.07 461.73 34.78" fill="none" stroke="#222222" stroke-width="0.1" stroke-miterlimit="10" pointer-events="all"/></g><g><rect x="355.97" y="20.64" width="80.63" height="19.9" fill="#333333" stroke="none" pointer-events="all"/></g><g><rect x="421.94" y="23.26" width="4.19" height="14.66" fill="#2d2d2d" stroke="none" pointer-events="all"/></g><g><rect x="362.25" y="23.26" width="4.19" height="14.66" fill="#2d2d2d" stroke="none" pointer-events="all"/></g><g><rect x="366.44" y="23.26" width="55.5" height="2.09" fill="#222222" stroke="none" pointer-events="all"/></g><g><rect x="366.44" y="27.45" width="55.5" height="2.09" fill="#222222" stroke="none" pointer-events="all"/></g><g><rect x="366.44" y="31.64" width="55.5" height="2.09" fill="#222222" stroke="none" pointer-events="all"/></g><g><rect x="366.44" y="35.83" width="55.5" height="2.09" fill="#222222" stroke="none" pointer-events="all"/></g><g><rect x="383.2" y="23.26" width="2.09" height="14.66" fill="#2d2d2d" stroke="none" pointer-events="all"/></g><g><rect x="403.09" y="23.26" width="2.09" height="14.66" fill="#2d2d2d" stroke="none" pointer-events="all"/></g><g><rect x="366.44" y="33.73" width="55.5" height="2.09" fill="#333333" stroke="none" pointer-events="all"/></g><g><rect x="366.44" y="29.54" width="55.5" height="2.09" fill="#333333" stroke="none" pointer-events="all"/></g><g><rect x="366.44" y="25.35" width="55.5" height="2.09" fill="#333333" stroke="none" pointer-events="all"/></g><g><rect x="352.83" y="1" width="109.95" height="16.04" fill="#333333" stroke="none" pointer-events="all"/></g><g><rect x="356.1" y="5.32" width="7.28" height="7.41" fill="#222222" stroke="#333333" stroke-width="0.5" pointer-events="all"/></g><g><rect x="364.11" y="5.32" width="7.28" height="7.41" fill="#222222" stroke="#333333" stroke-width="0.5" pointer-events="all"/></g><g><rect x="372.12" y="5.32" width="7.28" height="7.41" fill="#222222" stroke="#333333" stroke-width="0.5" pointer-events="all"/></g><g><rect x="380.13" y="5.32" width="7.28" height="7.41" fill="#222222" stroke="#333333" stroke-width="0.5" pointer-events="all"/></g><g><rect x="388.14" y="5.32" width="7.28" height="7.41" fill="#222222" stroke="#333333" stroke-width="0.5" pointer-events="all"/></g><g><rect x="396.15" y="5.32" width="7.28" height="7.41" fill="#222222" stroke="#333333" stroke-width="0.5" pointer-events="all"/></g><g><rect x="404.16" y="5.32" width="7.28" height="7.41" fill="#222222" stroke="#333333" stroke-width="0.5" pointer-events="all"/></g><g><rect x="412.17" y="5.32" width="7.28" height="7.41" fill="#222222" stroke="#333333" stroke-width="0.5" pointer-events="all"/></g><g><rect x="420.18" y="5.32" width="7.28" height="7.41" fill="#222222" stroke="#333333" stroke-width="0.5" pointer-events="all"/></g><g><rect x="428.19" y="5.32" width="7.28" height="7.41" fill="#222222" stroke="#333333" stroke-width="0.5" pointer-events="all"/></g><g><rect x="436.2" y="5.32" width="7.28" height="7.41" fill="#222222" stroke="#333333" stroke-width="0.5" pointer-events="all"/></g><g><rect x="444.21" y="5.32" width="7.28" height="7.41" fill="#222222" stroke="#333333" stroke-width="0.5" pointer-events="all"/></g><g><rect x="452.22" y="5.32" width="7.28" height="7.41" fill="#222222" stroke="#333333" stroke-width="0.5" pointer-events="all"/></g><g><rect x="241.83" y="1" width="109.95" height="16.04" fill="#333333" stroke="none" pointer-events="all"/></g><g><rect x="245.1" y="5.32" width="7.28" height="7.41" fill="#222222" stroke="#333333" stroke-width="0.5" pointer-events="all"/></g><g><rect x="253.11" y="5.32" width="7.28" height="7.41" fill="#222222" stroke="#333333" stroke-width="0.5" pointer-events="all"/></g><g><rect x="261.12" y="5.32" width="7.28" height="7.41" fill="#222222" stroke="#333333" stroke-width="0.5" pointer-events="all"/></g><g><rect x="269.13" y="5.32" width="7.28" height="7.41" fill="#222222" stroke="#333333" stroke-width="0.5" pointer-events="all"/></g><g><rect x="277.14" y="5.32" width="7.28" height="7.41" fill="#222222" stroke="#333333" stroke-width="0.5" pointer-events="all"/></g><g><rect x="285.15" y="5.32" width="7.28" height="7.41" fill="#222222" stroke="#333333" stroke-width="0.5" pointer-events="all"/></g><g><rect x="293.16" y="5.32" width="7.28" height="7.41" fill="#222222" stroke="#333333" stroke-width="0.5" pointer-events="all"/></g><g><rect x="301.17" y="5.32" width="7.28" height="7.41" fill="#222222" stroke="#333333" stroke-width="0.5" pointer-events="all"/></g><g><rect x="309.18" y="5.32" width="7.28" height="7.41" fill="#222222" stroke="#333333" stroke-width="0.5" pointer-events="all"/></g><g><rect x="317.19" y="5.32" width="7.28" height="7.41" fill="#222222" stroke="#333333" stroke-width="0.5" pointer-events="all"/></g><g><rect x="325.2" y="5.32" width="7.28" height="7.41" fill="#222222" stroke="#333333" stroke-width="0.5" pointer-events="all"/></g><g><rect x="333.21" y="5.32" width="7.28" height="7.41" fill="#222222" stroke="#333333" stroke-width="0.5" pointer-events="all"/></g><g><rect x="341.22" y="5.32" width="7.28" height="7.41" fill="#222222" stroke="#333333" stroke-width="0.5" pointer-events="all"/></g><g/><g><rect x="19.83" y="0" width="136" height="17.04" fill="#333333" stroke="none" pointer-events="all"/></g><g><rect x="24.19" y="0.74" width="7.27" height="7.41" fill="#222222" stroke="#333333" stroke-width="0.5" pointer-events="all"/></g><g><rect x="24.19" y="8.89" width="7.27" height="7.41" fill="#222222" stroke="#333333" stroke-width="0.5" pointer-events="all"/></g><g><rect x="32.19" y="0.74" width="7.27" height="7.41" fill="#222222" stroke="#333333" stroke-width="0.5" pointer-events="all"/></g><g><rect x="32.19" y="8.89" width="7.27" height="7.41" fill="#222222" stroke="#333333" stroke-width="0.5" pointer-events="all"/></g><g><rect x="40.19" y="0.74" width="7.27" height="7.41" fill="#222222" stroke="#333333" stroke-width="0.5" pointer-events="all"/></g><g><rect x="40.19" y="8.89" width="7.27" height="7.41" fill="#222222" stroke="#333333" stroke-width="0.5" pointer-events="all"/></g><g><rect x="48.19" y="0.74" width="7.27" height="7.41" fill="#222222" stroke="#333333" stroke-width="0.5" pointer-events="all"/></g><g><rect x="48.19" y="8.89" width="7.27" height="7.41" fill="#222222" stroke="#333333" stroke-width="0.5" pointer-events="all"/></g><g><rect x="56.19" y="0.74" width="7.27" height="7.41" fill="#222222" stroke="#333333" stroke-width="0.5" pointer-events="all"/></g><g><rect x="56.19" y="8.89" width="7.27" height="7.41" fill="#222222" stroke="#333333" stroke-width="0.5" pointer-events="all"/></g><g><rect x="64.19" y="0.74" width="7.27" height="7.41" fill="#222222" stroke="#333333" stroke-width="0.5" pointer-events="all"/></g><g><rect x="64.19" y="8.89" width="7.27" height="7.41" fill="#222222" stroke="#333333" stroke-width="0.5" pointer-events="all"/></g><g><rect x="72.19" y="0.74" width="7.27" height="7.41" fill="#222222" stroke="#333333" stroke-width="0.5" pointer-events="all"/></g><g><rect x="72.19" y="8.89" width="7.27" height="7.41" fill="#222222" stroke="#333333" stroke-width="0.5" pointer-events="all"/></g><g><rect x="80.19" y="0.74" width="7.27" height="7.41" fill="#222222" stroke="#333333" stroke-width="0.5" pointer-events="all"/></g><g><rect x="80.19" y="8.89" width="7.27" height="7.41" fill="#222222" stroke="#333333" stroke-width="0.5" pointer-events="all"/></g><g><rect x="88.19" y="0.74" width="7.27" height="7.41" fill="#222222" stroke="#333333" stroke-width="0.5" pointer-events="all"/></g><g><rect x="88.19" y="8.89" width="7.27" height="7.41" fill="#222222" stroke="#333333" stroke-width="0.5" pointer-events="all"/></g><g><rect x="96.19" y="0.74" width="7.27" height="7.41" fill="#222222" stroke="#333333" stroke-width="0.5" pointer-events="all"/></g><g><rect x="96.19" y="8.89" width="7.27" height="7.41" fill="#222222" stroke="#333333" stroke-width="0.5" pointer-events="all"/></g><g><rect x="104.19" y="0.74" width="7.27" height="7.41" fill="#222222" stroke="#333333" stroke-width="0.5" pointer-events="all"/></g><g><rect x="104.19" y="8.89" width="7.27" height="7.41" fill="#222222" stroke="#333333" stroke-width="0.5" pointer-events="all"/></g><g><rect x="112.19" y="0.74" width="7.27" height="7.41" fill="#222222" stroke="#333333" stroke-width="0.5" pointer-events="all"/></g><g><rect x="112.19" y="8.89" width="7.27" height="7.41" fill="#222222" stroke="#333333" stroke-width="0.5" pointer-events="all"/></g><g><rect x="120.19" y="0.74" width="7.27" height="7.41" fill="#222222" stroke="#333333" stroke-width="0.5" pointer-events="all"/></g><g><rect x="120.19" y="8.89" width="7.27" height="7.41" fill="#222222" stroke="#333333" stroke-width="0.5" pointer-events="all"/></g><g><rect x="128.19" y="0.74" width="7.27" height="7.41" fill="#222222" stroke="#333333" stroke-width="0.5" pointer-events="all"/></g><g><rect x="128.05" y="8.89" width="7.27" height="7.41" fill="#222222" stroke="#333333" stroke-width="0.5" pointer-events="all"/></g><g><rect x="136.19" y="0.74" width="7.27" height="7.41" fill="#222222" stroke="#333333" stroke-width="0.5" pointer-events="all"/></g><g><rect x="136.19" y="8.89" width="7.27" height="7.41" fill="#222222" stroke="#333333" stroke-width="0.5" pointer-events="all"/></g><g><rect x="144.19" y="0.74" width="7.27" height="7.41" fill="#222222" stroke="#333333" stroke-width="0.5" pointer-events="all"/></g><g><rect x="144.19" y="8.89" width="7.27" height="7.41" fill="#222222" stroke="#333333" stroke-width="0.5" pointer-events="all"/></g><g><rect x="156.78" y="1" width="84" height="16" fill="#333333" stroke="none" pointer-events="all"/></g><g><rect x="158.28" y="2.22" width="81" height="13.3" fill="#333333" stroke="#001dbc" stroke-width="0.2" pointer-events="all"/></g><g><ellipse cx="177.03" cy="11.83" rx="2.25" ry="2.217391304347826" fill="#60a917" stroke="none" pointer-events="all"/></g><g><ellipse cx="182.28" cy="11.83" rx="2.25" ry="2.217391304347826" fill="#0050ef" stroke="none" pointer-events="all"/></g><g><ellipse cx="187.53" cy="11.83" rx="2.25" ry="2.217391304347826" fill="#0050ef" stroke="none" pointer-events="all"/></g><g><ellipse cx="192.78" cy="11.83" rx="2.25" ry="2.217391304347826" fill="#0050ef" stroke="none" pointer-events="all"/></g><g><ellipse cx="203.28" cy="11.83" rx="2.25" ry="2.217391304347826" fill="#a20025" stroke="none" pointer-events="all"/></g><g><ellipse cx="198.03" cy="11.83" rx="2.25" ry="2.217391304347826" fill="#0050ef" stroke="none" pointer-events="all"/></g><g><ellipse cx="170.28" cy="11.09" rx="3" ry="2.9565217391304346" fill="#0050ef" stroke="none" pointer-events="all"/></g><g><ellipse cx="162.78" cy="11.09" rx="3" ry="2.9565217391304346" fill="#0050ef" stroke="none" pointer-events="all"/></g><g><rect x="211.08" y="3.7" width="6.51" height="2.96" fill="none" stroke="none" pointer-events="all"/><path d="M 212.21 5.32 C 212.13 5.59 211.86 5.76 211.58 5.72 C 211.29 5.68 211.08 5.44 211.08 5.16 C 211.08 4.88 211.29 4.64 211.58 4.61 C 211.86 4.57 212.13 4.74 212.21 5.01 L 212.89 5.01 C 212.97 4.98 213.04 4.92 213.07 4.84 L 213.28 4.46 C 213.4 4.28 213.59 4.16 213.81 4.13 C 213.99 4.1 214.17 4.09 214.35 4.09 C 214.43 3.85 214.68 3.7 214.93 3.73 C 215.19 3.77 215.38 3.99 215.38 4.24 C 215.38 4.49 215.19 4.71 214.93 4.74 C 214.68 4.78 214.43 4.63 214.35 4.39 C 214.16 4.38 213.96 4.4 213.77 4.45 C 213.69 4.48 213.61 4.53 213.55 4.6 L 213.42 4.86 L 213.34 5.02 L 216.44 5.02 L 216.44 4.5 L 217.59 5.21 L 216.44 5.83 L 216.44 5.31 L 214.06 5.31 C 214.11 5.38 214.15 5.46 214.18 5.55 L 214.31 5.88 C 214.35 5.94 214.39 5.98 214.45 6.01 C 214.53 6.03 214.61 6.04 214.69 6.04 L 214.97 6.04 L 214.97 5.73 L 215.9 5.73 L 215.9 6.65 L 214.97 6.65 L 214.97 6.35 C 214.78 6.37 214.59 6.36 214.41 6.31 C 214.27 6.27 214.16 6.19 214.07 6.08 L 213.97 5.85 L 213.83 5.52 C 213.79 5.4 213.67 5.32 213.54 5.31 Z" fill="#ffffff" stroke="none" pointer-events="all"/></g><g><rect x="227.04" y="3.7" width="6.51" height="2.96" fill="none" stroke="none" pointer-events="all"/><path d="M 228.17 5.32 C 228.09 5.59 227.82 5.76 227.54 5.72 C 227.25 5.68 227.04 5.44 227.04 5.16 C 227.04 4.88 227.25 4.64 227.54 4.61 C 227.82 4.57 228.09 4.74 228.17 5.01 L 228.85 5.01 C 228.93 4.98 229 4.92 229.03 4.84 L 229.24 4.46 C 229.36 4.28 229.55 4.16 229.77 4.13 C 229.95 4.1 230.13 4.09 230.31 4.09 C 230.39 3.85 230.64 3.7 230.89 3.73 C 231.15 3.77 231.34 3.99 231.34 4.24 C 231.34 4.49 231.15 4.71 230.89 4.74 C 230.64 4.78 230.39 4.63 230.31 4.39 C 230.12 4.38 229.92 4.4 229.73 4.45 C 229.65 4.48 229.57 4.53 229.51 4.6 L 229.38 4.86 L 229.3 5.02 L 232.4 5.02 L 232.4 4.5 L 233.55 5.21 L 232.4 5.83 L 232.4 5.31 L 230.02 5.31 C 230.07 5.38 230.11 5.46 230.14 5.55 L 230.27 5.88 C 230.31 5.94 230.35 5.98 230.41 6.01 C 230.49 6.03 230.57 6.04 230.65 6.04 L 230.93 6.04 L 230.93 5.73 L 231.86 5.73 L 231.86 6.65 L 230.93 6.65 L 230.93 6.35 C 230.74 6.37 230.55 6.36 230.37 6.31 C 230.23 6.27 230.12 6.19 230.03 6.08 L 229.93 5.85 L 229.79 5.52 C 229.75 5.4 229.63 5.32 229.5 5.31 Z" fill="#ffffff" stroke="none" pointer-events="all"/></g><g><path d="M 162.77 5.14 C 162.86 5.14 162.93 5.08 162.93 5 L 162.93 4.41 C 162.93 4.33 162.87 4.26 162.78 4.26 C 162.69 4.26 162.63 4.33 162.63 4.39 L 162.63 5 C 162.63 5.08 162.7 5.14 162.77 5.14 Z M 162.78 6.09 C 163.25 6.09 163.65 5.71 163.65 5.25 C 163.65 5.01 163.56 4.75 163.3 4.56 C 163.25 4.52 163.15 4.54 163.11 4.6 C 163.07 4.66 163.06 4.74 163.13 4.8 C 163.26 4.91 163.35 5.07 163.35 5.23 C 163.35 5.56 163.07 5.79 162.79 5.79 C 162.51 5.79 162.23 5.6 162.22 5.24 C 162.21 5.1 162.29 4.9 162.44 4.8 C 162.49 4.76 162.51 4.66 162.45 4.59 C 162.39 4.52 162.29 4.53 162.25 4.56 C 162.03 4.74 161.92 4.95 161.92 5.22 C 161.92 5.74 162.32 6.09 162.78 6.09 Z M 162.78 6.65 C 161.92 6.65 161.28 5.97 161.28 5.17 C 161.28 4.36 161.95 3.7 162.79 3.7 C 163.57 3.7 164.28 4.31 164.28 5.17 C 164.28 6.06 163.56 6.65 162.78 6.65 Z" fill="#ffffff" stroke="none" pointer-events="all"/></g><g><path d="M 169.81 6.65 L 169.81 6.16 C 169.17 5.96 168.78 5.36 168.9 4.75 C 169.01 4.14 169.6 3.7 170.28 3.7 C 170.96 3.7 171.55 4.14 171.66 4.75 C 171.78 5.36 171.39 5.96 170.75 6.16 L 170.75 6.65" fill="none" stroke="rgb(240, 240, 240)" stroke-width="0.1" stroke-miterlimit="10" transform="rotate(-180,170.28,5.17)" pointer-events="all"/></g><g><path d="M 180.78 6.16 L 180.78 4.19 C 180.78 3.92 181.45 3.7 182.28 3.7 C 183.11 3.7 183.78 3.92 183.78 4.19 L 183.78 6.16 C 183.78 6.43 183.11 6.65 182.28 6.65 C 181.45 6.65 180.78 6.43 180.78 6.16 Z" fill="none" stroke="rgb(240, 240, 240)" stroke-width="0.1" stroke-miterlimit="10" pointer-events="all"/><path d="M 180.78 4.19 C 180.78 4.46 181.45 4.68 182.28 4.68 C 183.11 4.68 183.78 4.46 183.78 4.19" fill="none" stroke="rgb(240, 240, 240)" stroke-width="0.1" stroke-miterlimit="10" pointer-events="all"/></g><g><rect x="186.03" y="3.7" width="3" height="2.96" fill="none" stroke="none" pointer-events="all"/><path d="M 187.22 3.7 L 187.22 4.32 L 187.47 4.32 L 187.47 4.9 L 186.32 4.9 C 186.31 4.9 186.3 4.91 186.28 4.92 C 186.27 4.93 186.27 4.94 186.27 4.96 L 186.27 6.03 L 186.03 6.03 L 186.03 6.65 L 186.65 6.65 L 186.65 6.03 L 186.38 6.03 L 186.38 5.01 L 187.47 5.01 L 187.47 5.78 L 187.22 5.78 L 187.22 6.4 L 187.83 6.4 L 187.83 5.78 L 187.58 5.78 L 187.58 5.02 L 188.67 5.02 L 188.67 6.03 L 188.41 6.03 L 188.41 6.65 L 189.03 6.65 L 189.03 6.03 L 188.78 6.03 L 188.78 4.96 C 188.78 4.95 188.78 4.93 188.77 4.92 C 188.76 4.91 188.74 4.9 188.73 4.9 L 187.58 4.9 L 187.58 4.32 L 187.83 4.32 L 187.83 3.7 Z" fill="#ffffff" stroke="none" pointer-events="all"/></g><g><rect x="191.28" y="3.7" width="3" height="2.96" fill="none" stroke="none" pointer-events="all"/><path d="M 192.47 3.7 L 192.47 4.32 L 192.72 4.32 L 192.72 4.9 L 191.57 4.9 C 191.56 4.9 191.55 4.91 191.53 4.92 C 191.52 4.93 191.52 4.94 191.52 4.96 L 191.52 6.03 L 191.28 6.03 L 191.28 6.65 L 191.9 6.65 L 191.9 6.03 L 191.63 6.03 L 191.63 5.01 L 192.72 5.01 L 192.72 5.78 L 192.47 5.78 L 192.47 6.4 L 193.08 6.4 L 193.08 5.78 L 192.83 5.78 L 192.83 5.02 L 193.92 5.02 L 193.92 6.03 L 193.66 6.03 L 193.66 6.65 L 194.28 6.65 L 194.28 6.03 L 194.03 6.03 L 194.03 4.96 C 194.03 4.95 194.03 4.93 194.02 4.92 C 194.01 4.91 193.99 4.9 193.98 4.9 L 192.83 4.9 L 192.83 4.32 L 193.08 4.32 L 193.08 3.7 Z" fill="#ffffff" stroke="none" pointer-events="all"/></g><g><rect x="196.53" y="3.7" width="3" height="2.96" fill="none" stroke="none" pointer-events="all"/><path d="M 197.72 3.7 L 197.72 4.32 L 197.97 4.32 L 197.97 4.9 L 196.82 4.9 C 196.81 4.9 196.8 4.91 196.78 4.92 C 196.77 4.93 196.77 4.94 196.77 4.96 L 196.77 6.03 L 196.53 6.03 L 196.53 6.65 L 197.15 6.65 L 197.15 6.03 L 196.88 6.03 L 196.88 5.01 L 197.97 5.01 L 197.97 5.78 L 197.72 5.78 L 197.72 6.4 L 198.33 6.4 L 198.33 5.78 L 198.08 5.78 L 198.08 5.02 L 199.17 5.02 L 199.17 6.03 L 198.91 6.03 L 198.91 6.65 L 199.53 6.65 L 199.53 6.03 L 199.28 6.03 L 199.28 4.96 C 199.28 4.95 199.28 4.93 199.27 4.92 C 199.26 4.91 199.24 4.9 199.23 4.9 L 198.08 4.9 L 198.08 4.32 L 198.33 4.32 L 198.33 3.7 Z" fill="#ffffff" stroke="none" pointer-events="all"/></g><g><path d="M 201.78 3.7 L 204.78 5.17 L 201.78 6.65 Z" fill="none" stroke="rgb(240, 240, 240)" stroke-width="0.1" stroke-miterlimit="10" transform="rotate(-90,203.28,5.17)" pointer-events="all"/></g><g><path d="M 177.02 5.14 C 177.11 5.14 177.18 5.08 177.18 5 L 177.18 4.41 C 177.18 4.33 177.12 4.26 177.03 4.26 C 176.94 4.26 176.88 4.33 176.88 4.39 L 176.88 5 C 176.88 5.08 176.95 5.14 177.02 5.14 Z M 177.03 6.09 C 177.5 6.09 177.9 5.71 177.9 5.25 C 177.9 5.01 177.81 4.75 177.55 4.56 C 177.5 4.52 177.4 4.54 177.36 4.6 C 177.32 4.66 177.31 4.74 177.38 4.8 C 177.51 4.91 177.6 5.07 177.6 5.23 C 177.6 5.56 177.32 5.79 177.04 5.79 C 176.76 5.79 176.48 5.6 176.47 5.24 C 176.46 5.1 176.54 4.9 176.69 4.8 C 176.74 4.76 176.76 4.66 176.7 4.59 C 176.64 4.52 176.54 4.53 176.5 4.56 C 176.28 4.74 176.17 4.95 176.17 5.22 C 176.17 5.74 176.57 6.09 177.03 6.09 Z M 177.03 6.65 C 176.17 6.65 175.53 5.97 175.53 5.17 C 175.53 4.36 176.2 3.7 177.04 3.7 C 177.82 3.7 178.53 4.31 178.53 5.17 C 178.53 6.06 177.81 6.65 177.03 6.65 Z" fill="none" stroke="rgb(240, 240, 240)" stroke-width="0.1" stroke-miterlimit="10" pointer-events="all"/></g><g><rect x="222.78" y="8.13" width="15" height="5.91" fill="#222222" stroke="#aaaaaa" stroke-width="0.1" pointer-events="all"/></g><g><rect x="224.28" y="9.61" width="12" height="1.48" fill="#0050ef" stroke="none" pointer-events="all"/></g><g><rect x="206.82" y="8.13" width="15" height="5.91" fill="#222222" stroke="#aaaaaa" stroke-width="0.1" pointer-events="all"/></g><g><rect x="208.32" y="9.61" width="12" height="1.48" fill="#0050ef" stroke="none" pointer-events="all"/></g></g></svg>