<?xml version="1.0" encoding="UTF-8"?>
<!DOCTYPE svg PUBLIC "-//W3C//DTD SVG 1.1//EN" "http://www.w3.org/Graphics/SVG/1.1/DTD/svg11.dtd">
<svg xmlns="http://www.w3.org/2000/svg" xmlns:xlink="http://www.w3.org/1999/xlink" version="1.1" width="4836px" height="455px" viewBox="-0.5 -0.5 4836 455" style="background-color: rgb(24, 20, 29);"><defs/><rect fill="#18141D" width="100%" height="100%" x="0" y="0"/><g><g data-cell-id="0"><g data-cell-id="1"><g data-cell-id="uL8Qz0bJ-7GE2LKgMjc8-90"><g/><g data-cell-id="9eh16xiQdjSHdPkHuFP6-378"><g><rect x="0" y="0" width="4826" height="444.5" fill="#bfbfbf" stroke="#aaaaaa" stroke-width="10" pointer-events="all"/></g></g><g data-cell-id="9eh16xiQdjSHdPkHuFP6-379"><g><rect x="180" y="0" width="4466" height="444.5" fill="#000000" stroke="#aaaaaa" stroke-width="10" pointer-events="all"/></g></g><g data-cell-id="uL8Qz0bJ-7GE2LKgMjc8-89"><g><rect x="180" y="170" width="4466" height="274.5" fill="#000000" stroke="#aaaaaa" stroke-width="10" pointer-events="all"/></g></g><g data-cell-id="jP2WbbBxQBNUkDRbYnSl-230"><g/><g data-cell-id="jP2WbbBxQBNUkDRbYnSl-231"><g><rect x="70" y="192.25" width="40" height="60" fill="#000000" stroke="none" pointer-events="all"/></g></g><g data-cell-id="jP2WbbBxQBNUkDRbYnSl-232"><g><ellipse cx="110" cy="222.25" rx="30" ry="30" fill="#000000" stroke="none" pointer-events="all"/></g></g><g data-cell-id="jP2WbbBxQBNUkDRbYnSl-233"><g><ellipse cx="70" cy="222.25" rx="30" ry="30" fill="#000000" stroke="none" pointer-events="all"/></g></g></g><g data-cell-id="jP2WbbBxQBNUkDRbYnSl-206"><g><rect x="79.96" y="0" width="100" height="444.5" fill="#bfbfbf" stroke="#aaaaaa" stroke-width="10" pointer-events="all"/></g></g><g data-cell-id="wEfOMtyTKLQo5fzBktWI-1"><g/><g data-cell-id="wEfOMtyTKLQo5fzBktWI-2"><g><rect x="4715.96" y="192.25" width="40" height="60" fill="#000000" stroke="none" pointer-events="all"/></g></g><g data-cell-id="wEfOMtyTKLQo5fzBktWI-3"><g><ellipse cx="4755.96" cy="222.25" rx="30" ry="30" fill="#000000" stroke="none" pointer-events="all"/></g></g><g data-cell-id="wEfOMtyTKLQo5fzBktWI-4"><g><ellipse cx="4715.96" cy="222.25" rx="30" ry="30" fill="#000000" stroke="none" pointer-events="all"/></g></g></g><g data-cell-id="wEfOMtyTKLQo5fzBktWI-5"><g><rect x="4646" y="0" width="100" height="444.5" fill="#bfbfbf" stroke="#aaaaaa" stroke-width="10" pointer-events="all"/></g></g><g data-cell-id="jP2WbbBxQBNUkDRbYnSl-678"><g><rect x="3528.28" y="10" width="1099.52" height="160.39" fill="#222222" stroke="none" pointer-events="all"/></g></g><g data-cell-id="jP2WbbBxQBNUkDRbYnSl-680"><g><rect x="3561" y="53.2" width="72.82" height="74.08" fill="#000000" stroke="#222222" stroke-width="5" pointer-events="all"/></g></g><g data-cell-id="jP2WbbBxQBNUkDRbYnSl-682"><g><rect x="3641.09" y="53.2" width="72.82" height="74.08" fill="#000000" stroke="#222222" stroke-width="5" pointer-events="all"/></g></g><g data-cell-id="jP2WbbBxQBNUkDRbYnSl-684"><g><rect x="3721.19" y="53.2" width="72.82" height="74.08" fill="#000000" stroke="#222222" stroke-width="5" pointer-events="all"/></g></g><g data-cell-id="jP2WbbBxQBNUkDRbYnSl-686"><g><rect x="3801.29" y="53.2" width="72.82" height="74.08" fill="#000000" stroke="#222222" stroke-width="5" pointer-events="all"/></g></g><g data-cell-id="jP2WbbBxQBNUkDRbYnSl-688"><g><rect x="3881.39" y="53.2" width="72.82" height="74.08" fill="#000000" stroke="#222222" stroke-width="5" pointer-events="all"/></g></g><g data-cell-id="jP2WbbBxQBNUkDRbYnSl-690"><g><rect x="3961.48" y="53.2" width="72.82" height="74.08" fill="#000000" stroke="#222222" stroke-width="5" pointer-events="all"/></g></g><g data-cell-id="jP2WbbBxQBNUkDRbYnSl-692"><g><rect x="4041.58" y="53.2" width="72.82" height="74.08" fill="#000000" stroke="#222222" stroke-width="5" pointer-events="all"/></g></g><g data-cell-id="jP2WbbBxQBNUkDRbYnSl-694"><g><rect x="4121.68" y="53.2" width="72.82" height="74.08" fill="#000000" stroke="#222222" stroke-width="5" pointer-events="all"/></g></g><g data-cell-id="jP2WbbBxQBNUkDRbYnSl-696"><g><rect x="4201.78" y="53.2" width="72.82" height="74.08" fill="#000000" stroke="#222222" stroke-width="5" pointer-events="all"/></g></g><g data-cell-id="jP2WbbBxQBNUkDRbYnSl-698"><g><rect x="4281.87" y="53.2" width="72.82" height="74.08" fill="#000000" stroke="#222222" stroke-width="5" pointer-events="all"/></g></g><g data-cell-id="jP2WbbBxQBNUkDRbYnSl-700"><g><rect x="4361.97" y="53.2" width="72.82" height="74.08" fill="#000000" stroke="#222222" stroke-width="5" pointer-events="all"/></g></g><g data-cell-id="jP2WbbBxQBNUkDRbYnSl-702"><g><rect x="4442.07" y="53.2" width="72.82" height="74.08" fill="#000000" stroke="#222222" stroke-width="5" pointer-events="all"/></g></g><g data-cell-id="jP2WbbBxQBNUkDRbYnSl-704"><g><rect x="4522.17" y="53.2" width="72.82" height="74.08" fill="#000000" stroke="#222222" stroke-width="5" pointer-events="all"/></g></g><g data-cell-id="jP2WbbBxQBNUkDRbYnSl-707"><g><rect x="2418.28" y="10" width="1099.52" height="160.39" fill="#222222" stroke="none" pointer-events="all"/></g></g><g data-cell-id="jP2WbbBxQBNUkDRbYnSl-709"><g><rect x="2451" y="53.2" width="72.82" height="74.08" fill="#000000" stroke="#222222" stroke-width="5" pointer-events="all"/></g></g><g data-cell-id="jP2WbbBxQBNUkDRbYnSl-711"><g><rect x="2531.09" y="53.2" width="72.82" height="74.08" fill="#000000" stroke="#222222" stroke-width="5" pointer-events="all"/></g></g><g data-cell-id="jP2WbbBxQBNUkDRbYnSl-713"><g><rect x="2611.19" y="53.2" width="72.82" height="74.08" fill="#000000" stroke="#222222" stroke-width="5" pointer-events="all"/></g></g><g data-cell-id="jP2WbbBxQBNUkDRbYnSl-715"><g><rect x="2691.29" y="53.2" width="72.82" height="74.08" fill="#000000" stroke="#222222" stroke-width="5" pointer-events="all"/></g></g><g data-cell-id="jP2WbbBxQBNUkDRbYnSl-717"><g><rect x="2771.39" y="53.2" width="72.82" height="74.08" fill="#000000" stroke="#222222" stroke-width="5" pointer-events="all"/></g></g><g data-cell-id="jP2WbbBxQBNUkDRbYnSl-719"><g><rect x="2851.48" y="53.2" width="72.82" height="74.08" fill="#000000" stroke="#222222" stroke-width="5" pointer-events="all"/></g></g><g data-cell-id="jP2WbbBxQBNUkDRbYnSl-721"><g><rect x="2931.58" y="53.2" width="72.82" height="74.08" fill="#000000" stroke="#222222" stroke-width="5" pointer-events="all"/></g></g><g data-cell-id="jP2WbbBxQBNUkDRbYnSl-723"><g><rect x="3011.68" y="53.2" width="72.82" height="74.08" fill="#000000" stroke="#222222" stroke-width="5" pointer-events="all"/></g></g><g data-cell-id="jP2WbbBxQBNUkDRbYnSl-725"><g><rect x="3091.78" y="53.2" width="72.82" height="74.08" fill="#000000" stroke="#222222" stroke-width="5" pointer-events="all"/></g></g><g data-cell-id="jP2WbbBxQBNUkDRbYnSl-727"><g><rect x="3171.87" y="53.2" width="72.82" height="74.08" fill="#000000" stroke="#222222" stroke-width="5" pointer-events="all"/></g></g><g data-cell-id="jP2WbbBxQBNUkDRbYnSl-729"><g><rect x="3251.97" y="53.2" width="72.82" height="74.08" fill="#000000" stroke="#222222" stroke-width="5" pointer-events="all"/></g></g><g data-cell-id="jP2WbbBxQBNUkDRbYnSl-731"><g><rect x="3332.07" y="53.2" width="72.82" height="74.08" fill="#000000" stroke="#222222" stroke-width="5" pointer-events="all"/></g></g><g data-cell-id="jP2WbbBxQBNUkDRbYnSl-733"><g><rect x="3412.17" y="53.2" width="72.82" height="74.08" fill="#000000" stroke="#222222" stroke-width="5" pointer-events="all"/></g></g><g data-cell-id="wEfOMtyTKLQo5fzBktWI-13"><g><rect x="198.3" y="0" width="1360" height="170.4" fill="#222222" stroke="none" pointer-events="all"/></g><g data-cell-id="jP2WbbBxQBNUkDRbYnSl-735"><g><rect x="198.3" y="0" width="1360" height="170.4" fill="#222222" stroke="none" pointer-events="all"/></g></g><g data-cell-id="jP2WbbBxQBNUkDRbYnSl-736"><g><rect x="241.94" y="7.41" width="72.73" height="74.09" fill="#000000" stroke="#222222" stroke-width="5" pointer-events="all"/></g></g><g data-cell-id="jP2WbbBxQBNUkDRbYnSl-737"><g><rect x="241.94" y="88.9" width="72.73" height="74.09" fill="#000000" stroke="#222222" stroke-width="5" pointer-events="all"/></g></g><g data-cell-id="jP2WbbBxQBNUkDRbYnSl-738"><g><rect x="321.94" y="7.41" width="72.73" height="74.09" fill="#000000" stroke="#222222" stroke-width="5" pointer-events="all"/></g></g><g data-cell-id="jP2WbbBxQBNUkDRbYnSl-739"><g><rect x="321.94" y="88.9" width="72.73" height="74.09" fill="#000000" stroke="#222222" stroke-width="5" pointer-events="all"/></g></g><g data-cell-id="jP2WbbBxQBNUkDRbYnSl-740"><g><rect x="401.94" y="7.41" width="72.73" height="74.09" fill="#000000" stroke="#222222" stroke-width="5" pointer-events="all"/></g></g><g data-cell-id="jP2WbbBxQBNUkDRbYnSl-741"><g><rect x="401.94" y="88.9" width="72.73" height="74.09" fill="#000000" stroke="#222222" stroke-width="5" pointer-events="all"/></g></g><g data-cell-id="jP2WbbBxQBNUkDRbYnSl-742"><g><rect x="481.94" y="7.41" width="72.73" height="74.09" fill="#000000" stroke="#222222" stroke-width="5" pointer-events="all"/></g></g><g data-cell-id="jP2WbbBxQBNUkDRbYnSl-743"><g><rect x="481.94" y="88.9" width="72.73" height="74.09" fill="#000000" stroke="#222222" stroke-width="5" pointer-events="all"/></g></g><g data-cell-id="jP2WbbBxQBNUkDRbYnSl-744"><g><rect x="561.94" y="7.41" width="72.73" height="74.09" fill="#000000" stroke="#222222" stroke-width="5" pointer-events="all"/></g></g><g data-cell-id="jP2WbbBxQBNUkDRbYnSl-745"><g><rect x="561.94" y="88.9" width="72.73" height="74.09" fill="#000000" stroke="#222222" stroke-width="5" pointer-events="all"/></g></g><g data-cell-id="jP2WbbBxQBNUkDRbYnSl-746"><g><rect x="641.94" y="7.41" width="72.73" height="74.09" fill="#000000" stroke="#222222" stroke-width="5" pointer-events="all"/></g></g><g data-cell-id="jP2WbbBxQBNUkDRbYnSl-747"><g><rect x="641.94" y="88.9" width="72.73" height="74.09" fill="#000000" stroke="#222222" stroke-width="5" pointer-events="all"/></g></g><g data-cell-id="jP2WbbBxQBNUkDRbYnSl-748"><g><rect x="721.94" y="7.41" width="72.73" height="74.09" fill="#000000" stroke="#222222" stroke-width="5" pointer-events="all"/></g></g><g data-cell-id="jP2WbbBxQBNUkDRbYnSl-749"><g><rect x="721.94" y="88.9" width="72.73" height="74.09" fill="#000000" stroke="#222222" stroke-width="5" pointer-events="all"/></g></g><g data-cell-id="jP2WbbBxQBNUkDRbYnSl-750"><g><rect x="801.94" y="7.41" width="72.73" height="74.09" fill="#000000" stroke="#222222" stroke-width="5" pointer-events="all"/></g></g><g data-cell-id="jP2WbbBxQBNUkDRbYnSl-751"><g><rect x="801.94" y="88.9" width="72.73" height="74.09" fill="#000000" stroke="#222222" stroke-width="5" pointer-events="all"/></g></g><g data-cell-id="jP2WbbBxQBNUkDRbYnSl-752"><g><rect x="881.94" y="7.41" width="72.73" height="74.09" fill="#000000" stroke="#222222" stroke-width="5" pointer-events="all"/></g></g><g data-cell-id="jP2WbbBxQBNUkDRbYnSl-753"><g><rect x="881.94" y="88.9" width="72.73" height="74.09" fill="#000000" stroke="#222222" stroke-width="5" pointer-events="all"/></g></g><g data-cell-id="jP2WbbBxQBNUkDRbYnSl-754"><g><rect x="961.94" y="7.41" width="72.73" height="74.09" fill="#000000" stroke="#222222" stroke-width="5" pointer-events="all"/></g></g><g data-cell-id="jP2WbbBxQBNUkDRbYnSl-755"><g><rect x="961.94" y="88.9" width="72.73" height="74.09" fill="#000000" stroke="#222222" stroke-width="5" pointer-events="all"/></g></g><g data-cell-id="jP2WbbBxQBNUkDRbYnSl-756"><g><rect x="1041.94" y="7.41" width="72.73" height="74.09" fill="#000000" stroke="#222222" stroke-width="5" pointer-events="all"/></g></g><g data-cell-id="jP2WbbBxQBNUkDRbYnSl-757"><g><rect x="1041.94" y="88.9" width="72.73" height="74.09" fill="#000000" stroke="#222222" stroke-width="5" pointer-events="all"/></g></g><g data-cell-id="jP2WbbBxQBNUkDRbYnSl-758"><g><rect x="1121.94" y="7.41" width="72.73" height="74.09" fill="#000000" stroke="#222222" stroke-width="5" pointer-events="all"/></g></g><g data-cell-id="jP2WbbBxQBNUkDRbYnSl-759"><g><rect x="1121.94" y="88.9" width="72.73" height="74.09" fill="#000000" stroke="#222222" stroke-width="5" pointer-events="all"/></g></g><g data-cell-id="jP2WbbBxQBNUkDRbYnSl-760"><g><rect x="1201.94" y="7.41" width="72.73" height="74.09" fill="#000000" stroke="#222222" stroke-width="5" pointer-events="all"/></g></g><g data-cell-id="jP2WbbBxQBNUkDRbYnSl-761"><g><rect x="1201.94" y="88.9" width="72.73" height="74.09" fill="#000000" stroke="#222222" stroke-width="5" pointer-events="all"/></g></g><g data-cell-id="jP2WbbBxQBNUkDRbYnSl-762"><g><rect x="1281.94" y="7.41" width="72.73" height="74.09" fill="#000000" stroke="#222222" stroke-width="5" pointer-events="all"/></g></g><g data-cell-id="jP2WbbBxQBNUkDRbYnSl-763"><g><rect x="1280.48" y="88.9" width="72.73" height="74.09" fill="#000000" stroke="#222222" stroke-width="5" pointer-events="all"/></g></g><g data-cell-id="jP2WbbBxQBNUkDRbYnSl-764"><g><rect x="1361.94" y="7.41" width="72.73" height="74.09" fill="#000000" stroke="#222222" stroke-width="5" pointer-events="all"/></g></g><g data-cell-id="jP2WbbBxQBNUkDRbYnSl-765"><g><rect x="1361.94" y="88.9" width="72.73" height="74.09" fill="#000000" stroke="#222222" stroke-width="5" pointer-events="all"/></g></g><g data-cell-id="jP2WbbBxQBNUkDRbYnSl-766"><g><rect x="1441.94" y="7.41" width="72.73" height="74.09" fill="#000000" stroke="#222222" stroke-width="5" pointer-events="all"/></g></g><g data-cell-id="jP2WbbBxQBNUkDRbYnSl-767"><g><rect x="1441.94" y="88.9" width="72.73" height="74.09" fill="#000000" stroke="#222222" stroke-width="5" pointer-events="all"/></g></g></g><g data-cell-id="jP2WbbBxQBNUkDRbYnSl-595"><g><rect x="1567.8" y="10" width="840" height="160" fill="#222222" stroke="none" pointer-events="all"/></g></g><g data-cell-id="jP2WbbBxQBNUkDRbYnSl-596"><g><rect x="1582.8" y="22.17" width="810" height="133.04" fill="#222222" stroke="#001dbc" stroke-width="2" pointer-events="all"/></g></g><g data-cell-id="jP2WbbBxQBNUkDRbYnSl-597"><g><ellipse cx="1770.3" cy="118.26" rx="22.5" ry="22.17391304347826" fill="#60a917" stroke="none" pointer-events="all"/></g></g><g data-cell-id="jP2WbbBxQBNUkDRbYnSl-598"><g><ellipse cx="1822.8" cy="118.26" rx="22.5" ry="22.17391304347826" fill="#0050ef" stroke="none" pointer-events="all"/></g></g><g data-cell-id="jP2WbbBxQBNUkDRbYnSl-599"><g><ellipse cx="1875.3" cy="118.26" rx="22.5" ry="22.17391304347826" fill="#0050ef" stroke="none" pointer-events="all"/></g></g><g data-cell-id="jP2WbbBxQBNUkDRbYnSl-600"><g><ellipse cx="1927.8" cy="118.26" rx="22.5" ry="22.17391304347826" fill="#0050ef" stroke="none" pointer-events="all"/></g></g><g data-cell-id="jP2WbbBxQBNUkDRbYnSl-601"><g><ellipse cx="2032.8" cy="118.26" rx="22.5" ry="22.17391304347826" fill="#a20025" stroke="none" pointer-events="all"/></g></g><g data-cell-id="jP2WbbBxQBNUkDRbYnSl-602"><g><ellipse cx="1980.3" cy="118.26" rx="22.5" ry="22.17391304347826" fill="#0050ef" stroke="none" pointer-events="all"/></g></g><g data-cell-id="jP2WbbBxQBNUkDRbYnSl-603"><g><ellipse cx="1702.8" cy="110.87" rx="30" ry="29.565217391304344" fill="#0050ef" stroke="none" pointer-events="all"/></g></g><g data-cell-id="jP2WbbBxQBNUkDRbYnSl-604"><g><ellipse cx="1627.8" cy="110.87" rx="30" ry="29.565217391304344" fill="#0050ef" stroke="none" pointer-events="all"/></g></g><g data-cell-id="jP2WbbBxQBNUkDRbYnSl-605"><g><rect x="2110.8" y="36.96" width="65.1" height="29.57" fill="none" stroke="none" pointer-events="all"/><path d="M 2122.09 53.16 C 2121.31 55.86 2118.61 57.59 2115.76 57.2 C 2112.92 56.81 2110.8 54.43 2110.8 51.63 C 2110.8 48.82 2112.92 46.44 2115.76 46.06 C 2118.61 45.67 2121.31 47.39 2122.09 50.09 L 2128.89 50.09 C 2129.71 49.78 2130.37 49.16 2130.72 48.37 L 2132.81 44.6 C 2134.03 42.81 2135.95 41.61 2138.11 41.27 C 2139.9 41 2141.72 40.87 2143.54 40.89 C 2144.3 38.47 2146.75 36.96 2149.31 37.33 C 2151.87 37.71 2153.77 39.86 2153.77 42.39 C 2153.77 44.92 2151.87 47.07 2149.31 47.45 C 2146.75 47.82 2144.3 46.31 2143.54 43.89 C 2141.58 43.8 2139.62 43.99 2137.72 44.47 C 2136.85 44.78 2136.08 45.31 2135.49 46 L 2134.19 48.56 L 2133.4 50.16 L 2164.39 50.16 L 2164.39 45.04 L 2175.9 52.07 L 2164.39 58.34 L 2164.39 53.1 L 2140.59 53.1 C 2141.09 53.84 2141.51 54.63 2141.84 55.46 L 2143.14 58.79 C 2143.45 59.36 2143.93 59.83 2144.52 60.13 C 2145.29 60.31 2146.08 60.41 2146.87 60.45 L 2149.68 60.45 L 2149.68 57.25 L 2159.03 57.25 L 2159.03 66.52 L 2149.68 66.52 L 2149.68 63.52 C 2147.8 63.71 2145.9 63.58 2144.06 63.13 C 2142.73 62.73 2141.56 61.93 2140.72 60.83 L 2139.68 58.47 L 2138.31 55.21 C 2137.85 53.98 2136.69 53.15 2135.36 53.1 Z" fill="#ffffff" stroke="none" pointer-events="all"/></g></g><g data-cell-id="jP2WbbBxQBNUkDRbYnSl-606"><g><rect x="2270.4" y="36.96" width="65.1" height="29.57" fill="none" stroke="none" pointer-events="all"/><path d="M 2281.69 53.16 C 2280.91 55.86 2278.21 57.59 2275.36 57.2 C 2272.52 56.81 2270.4 54.43 2270.4 51.63 C 2270.4 48.82 2272.52 46.44 2275.36 46.06 C 2278.21 45.67 2280.91 47.39 2281.69 50.09 L 2288.49 50.09 C 2289.31 49.78 2289.97 49.16 2290.32 48.37 L 2292.41 44.6 C 2293.63 42.81 2295.55 41.61 2297.71 41.27 C 2299.5 41 2301.32 40.87 2303.14 40.89 C 2303.9 38.47 2306.35 36.96 2308.91 37.33 C 2311.47 37.71 2313.37 39.86 2313.37 42.39 C 2313.37 44.92 2311.47 47.07 2308.91 47.45 C 2306.35 47.82 2303.9 46.31 2303.14 43.89 C 2301.18 43.8 2299.22 43.99 2297.32 44.47 C 2296.45 44.78 2295.68 45.31 2295.09 46 L 2293.79 48.56 L 2293 50.16 L 2323.99 50.16 L 2323.99 45.04 L 2335.5 52.07 L 2323.99 58.34 L 2323.99 53.1 L 2300.19 53.1 C 2300.69 53.84 2301.11 54.63 2301.44 55.46 L 2302.74 58.79 C 2303.05 59.36 2303.53 59.83 2304.12 60.13 C 2304.89 60.31 2305.68 60.41 2306.47 60.45 L 2309.28 60.45 L 2309.28 57.25 L 2318.63 57.25 L 2318.63 66.52 L 2309.28 66.52 L 2309.28 63.52 C 2307.4 63.71 2305.5 63.58 2303.66 63.13 C 2302.33 62.73 2301.16 61.93 2300.32 60.83 L 2299.28 58.47 L 2297.91 55.21 C 2297.45 53.98 2296.29 53.15 2294.96 53.1 Z" fill="#ffffff" stroke="none" pointer-events="all"/></g></g><g data-cell-id="jP2WbbBxQBNUkDRbYnSl-607"><g><path d="M 1627.74 51.41 C 1628.63 51.41 1629.26 50.79 1629.26 49.97 L 1629.26 44.06 C 1629.26 43.28 1628.73 42.56 1627.84 42.56 C 1626.95 42.56 1626.33 43.27 1626.33 43.92 L 1626.33 49.98 C 1626.33 50.79 1627.02 51.41 1627.74 51.41 Z M 1627.75 60.92 C 1632.52 60.92 1636.47 57.14 1636.47 52.48 C 1636.47 50.13 1635.61 47.49 1632.98 45.58 C 1632.5 45.21 1631.52 45.4 1631.08 45.98 C 1630.67 46.57 1630.64 47.42 1631.3 48.03 C 1632.61 49.06 1633.47 50.67 1633.47 52.33 C 1633.47 55.55 1630.67 57.95 1627.87 57.95 C 1625.11 57.95 1622.35 55.97 1622.15 52.42 C 1622.11 50.99 1622.93 48.96 1624.38 47.96 C 1624.88 47.56 1625.08 46.65 1624.47 45.94 C 1623.89 45.21 1622.94 45.34 1622.54 45.65 C 1620.31 47.44 1619.23 49.45 1619.18 52.23 C 1619.18 57.39 1623.17 60.92 1627.75 60.92 Z M 1627.79 66.52 C 1619.25 66.52 1612.8 59.7 1612.8 51.68 C 1612.8 43.63 1619.51 36.96 1627.94 36.96 C 1635.68 36.96 1642.8 43.13 1642.8 51.65 C 1642.8 60.55 1635.58 66.52 1627.79 66.52 Z" fill="#ffffff" stroke="none" pointer-events="all"/></g></g><g data-cell-id="jP2WbbBxQBNUkDRbYnSl-608"><g><path d="M 1698.12 66.52 L 1698.12 61.65 C 1691.67 59.59 1687.8 53.62 1688.96 47.52 C 1690.11 41.41 1695.96 36.95 1702.8 36.95 C 1709.64 36.95 1715.49 41.41 1716.64 47.52 C 1717.8 53.62 1713.93 59.59 1707.48 61.65 L 1707.48 66.52" fill="none" stroke="rgb(240, 240, 240)" stroke-miterlimit="10" transform="rotate(-180,1702.8,51.74)" pointer-events="all"/></g></g><g data-cell-id="jP2WbbBxQBNUkDRbYnSl-609"><g><path d="M 1807.8 61.59 L 1807.8 41.88 C 1807.8 39.16 1814.52 36.96 1822.8 36.96 C 1831.08 36.96 1837.8 39.16 1837.8 41.88 L 1837.8 61.59 C 1837.8 64.32 1831.08 66.52 1822.8 66.52 C 1814.52 66.52 1807.8 64.32 1807.8 61.59 Z" fill="none" stroke="rgb(240, 240, 240)" stroke-miterlimit="10" pointer-events="all"/><path d="M 1807.8 41.88 C 1807.8 44.61 1814.52 46.81 1822.8 46.81 C 1831.08 46.81 1837.8 44.61 1837.8 41.88" fill="none" stroke="rgb(240, 240, 240)" stroke-miterlimit="10" pointer-events="all"/></g></g><g data-cell-id="jP2WbbBxQBNUkDRbYnSl-610"><g><rect x="1860.3" y="36.96" width="30" height="29.57" fill="none" stroke="none" pointer-events="all"/><path d="M 1872.16 36.96 L 1872.16 43.19 L 1874.73 43.19 L 1874.72 49.02 L 1863.24 49.01 C 1863.09 49.01 1862.95 49.07 1862.85 49.18 C 1862.74 49.28 1862.68 49.43 1862.68 49.58 L 1862.69 60.28 L 1860.3 60.28 L 1860.3 66.51 L 1866.46 66.51 L 1866.46 60.28 L 1863.8 60.28 L 1863.79 50.14 L 1874.72 50.15 L 1874.71 57.76 L 1872.15 57.76 L 1872.15 63.99 L 1878.31 63.99 L 1878.31 57.76 L 1875.82 57.76 L 1875.83 50.15 L 1886.73 50.16 L 1886.68 60.29 L 1884.14 60.29 L 1884.14 66.52 L 1890.3 66.52 L 1890.3 60.29 L 1887.79 60.29 L 1887.84 49.6 C 1887.84 49.45 1887.79 49.31 1887.68 49.2 C 1887.58 49.1 1887.44 49.04 1887.29 49.04 L 1875.83 49.02 L 1875.84 43.19 L 1878.32 43.19 L 1878.32 36.96 Z" fill="#ffffff" stroke="none" pointer-events="all"/></g></g><g data-cell-id="jP2WbbBxQBNUkDRbYnSl-611"><g><rect x="1912.8" y="36.96" width="30" height="29.57" fill="none" stroke="none" pointer-events="all"/><path d="M 1924.66 36.96 L 1924.66 43.19 L 1927.23 43.19 L 1927.22 49.02 L 1915.74 49.01 C 1915.59 49.01 1915.45 49.07 1915.35 49.18 C 1915.24 49.28 1915.18 49.43 1915.18 49.58 L 1915.19 60.28 L 1912.8 60.28 L 1912.8 66.51 L 1918.96 66.51 L 1918.96 60.28 L 1916.3 60.28 L 1916.29 50.14 L 1927.22 50.15 L 1927.21 57.76 L 1924.65 57.76 L 1924.65 63.99 L 1930.81 63.99 L 1930.81 57.76 L 1928.32 57.76 L 1928.33 50.15 L 1939.23 50.16 L 1939.18 60.29 L 1936.64 60.29 L 1936.64 66.52 L 1942.8 66.52 L 1942.8 60.29 L 1940.29 60.29 L 1940.34 49.6 C 1940.34 49.45 1940.29 49.31 1940.18 49.2 C 1940.08 49.1 1939.94 49.04 1939.79 49.04 L 1928.33 49.02 L 1928.34 43.19 L 1930.82 43.19 L 1930.82 36.96 Z" fill="#ffffff" stroke="none" pointer-events="all"/></g></g><g data-cell-id="jP2WbbBxQBNUkDRbYnSl-612"><g><rect x="1965.3" y="36.96" width="30" height="29.57" fill="none" stroke="none" pointer-events="all"/><path d="M 1977.16 36.96 L 1977.16 43.19 L 1979.73 43.19 L 1979.72 49.02 L 1968.24 49.01 C 1968.09 49.01 1967.95 49.07 1967.85 49.18 C 1967.74 49.28 1967.68 49.43 1967.68 49.58 L 1967.69 60.28 L 1965.3 60.28 L 1965.3 66.51 L 1971.46 66.51 L 1971.46 60.28 L 1968.8 60.28 L 1968.79 50.14 L 1979.72 50.15 L 1979.71 57.76 L 1977.15 57.76 L 1977.15 63.99 L 1983.31 63.99 L 1983.31 57.76 L 1980.82 57.76 L 1980.83 50.15 L 1991.73 50.16 L 1991.68 60.29 L 1989.14 60.29 L 1989.14 66.52 L 1995.3 66.52 L 1995.3 60.29 L 1992.79 60.29 L 1992.84 49.6 C 1992.84 49.45 1992.79 49.31 1992.68 49.2 C 1992.58 49.1 1992.44 49.04 1992.29 49.04 L 1980.83 49.02 L 1980.84 43.19 L 1983.32 43.19 L 1983.32 36.96 Z" fill="#ffffff" stroke="none" pointer-events="all"/></g></g><g data-cell-id="jP2WbbBxQBNUkDRbYnSl-613"><g><path d="M 2017.8 36.96 L 2047.8 51.74 L 2017.8 66.52 Z" fill="none" stroke="rgb(240, 240, 240)" stroke-miterlimit="10" transform="rotate(-90,2032.8,51.74)" pointer-events="all"/></g></g><g data-cell-id="jP2WbbBxQBNUkDRbYnSl-614"><g><path d="M 1770.24 51.41 C 1771.13 51.41 1771.76 50.79 1771.76 49.97 L 1771.76 44.06 C 1771.76 43.28 1771.23 42.56 1770.34 42.56 C 1769.45 42.56 1768.83 43.27 1768.83 43.92 L 1768.83 49.98 C 1768.83 50.79 1769.52 51.41 1770.24 51.41 Z M 1770.25 60.92 C 1775.02 60.92 1778.97 57.14 1778.97 52.48 C 1778.97 50.13 1778.11 47.49 1775.48 45.58 C 1775 45.21 1774.02 45.4 1773.58 45.98 C 1773.17 46.57 1773.14 47.42 1773.8 48.03 C 1775.11 49.06 1775.97 50.67 1775.97 52.33 C 1775.97 55.55 1773.17 57.95 1770.37 57.95 C 1767.61 57.95 1764.85 55.97 1764.65 52.42 C 1764.61 50.99 1765.43 48.96 1766.88 47.96 C 1767.38 47.56 1767.58 46.65 1766.97 45.94 C 1766.39 45.21 1765.44 45.34 1765.04 45.65 C 1762.81 47.44 1761.73 49.45 1761.68 52.23 C 1761.68 57.39 1765.67 60.92 1770.25 60.92 Z M 1770.29 66.52 C 1761.75 66.52 1755.3 59.7 1755.3 51.68 C 1755.3 43.63 1762.01 36.96 1770.44 36.96 C 1778.18 36.96 1785.3 43.13 1785.3 51.65 C 1785.3 60.55 1778.08 66.52 1770.29 66.52 Z" fill="none" stroke="rgb(240, 240, 240)" stroke-miterlimit="10" pointer-events="all"/></g></g><g data-cell-id="jP2WbbBxQBNUkDRbYnSl-615"><g><rect x="2227.8" y="81.3" width="150" height="59.13" fill="#000000" stroke="#aaaaaa" pointer-events="all"/></g></g><g data-cell-id="jP2WbbBxQBNUkDRbYnSl-616"><g><rect x="2242.8" y="96.09" width="120" height="14.78" fill="#0050ef" stroke="none" pointer-events="all"/></g></g><g data-cell-id="jP2WbbBxQBNUkDRbYnSl-617"><g><rect x="2068.2" y="81.3" width="150" height="59.13" fill="#000000" stroke="#aaaaaa" pointer-events="all"/></g></g><g data-cell-id="jP2WbbBxQBNUkDRbYnSl-618"><g><rect x="2083.2" y="96.09" width="120" height="14.78" fill="#0050ef" stroke="none" pointer-events="all"/></g></g><g data-cell-id="U1g_yLPCEkIgIiCrVf0g-71"><g/><g data-cell-id="U1g_yLPCEkIgIiCrVf0g-7"><g/><g data-cell-id="jP2WbbBxQBNUkDRbYnSl-572"><g><rect x="3528.28" y="175" width="1099.52" height="261.79" fill="#222222" stroke="none" pointer-events="all"/></g></g><g data-cell-id="jP2WbbBxQBNUkDRbYnSl-573"><g><rect x="3559.69" y="206.42" width="1015.75" height="198.96" fill="#000000" stroke="#111111" stroke-width="5" pointer-events="all"/></g></g><g data-cell-id="jP2WbbBxQBNUkDRbYnSl-574"><g><rect x="4580.68" y="389.67" width="41.89" height="31.41" rx="4.71" ry="4.71" fill="#60a917" stroke="#222222" transform="rotate(90,4601.62,405.38)" pointer-events="all"/></g></g><g data-cell-id="jP2WbbBxQBNUkDRbYnSl-575"><g><rect x="4580.68" y="295.42" width="41.89" height="31.41" rx="4.71" ry="4.71" fill="#0050ef" stroke="#222222" transform="rotate(90,4601.62,311.13)" pointer-events="all"/></g></g><g data-cell-id="jP2WbbBxQBNUkDRbYnSl-576"><g><rect x="4313.65" y="237.83" width="83.77" height="136.13" rx="12.57" ry="12.57" fill="#0050ef" stroke="none" pointer-events="all"/></g></g><g data-cell-id="jP2WbbBxQBNUkDRbYnSl-577"><g><path d="M 4386.95 237.83 Q 4418.37 237.83 4418.37 305.9 Q 4418.37 373.96 4386.95 373.96 Z" fill="#0050ef" stroke="none" pointer-events="all"/></g></g><g data-cell-id="jP2WbbBxQBNUkDRbYnSl-578"><g><path d="M 4601.56 263.66 C 4602.49 263.66 4603.15 263 4603.15 262.13 L 4603.15 255.84 C 4603.15 255.02 4602.59 254.26 4601.66 254.26 C 4600.73 254.26 4600.08 255.01 4600.08 255.7 L 4600.08 262.14 C 4600.08 263 4600.81 263.66 4601.56 263.66 Z M 4601.57 273.77 C 4606.57 273.77 4610.7 269.75 4610.7 264.8 C 4610.7 262.3 4609.8 259.5 4607.05 257.46 C 4606.54 257.07 4605.52 257.28 4605.05 257.89 C 4604.63 258.52 4604.6 259.42 4605.29 260.07 C 4606.66 261.16 4607.55 262.88 4607.55 264.64 C 4607.55 268.06 4604.63 270.61 4601.69 270.61 C 4598.8 270.61 4595.91 268.5 4595.71 264.73 C 4595.66 263.21 4596.52 261.06 4598.04 260 C 4598.56 259.57 4598.77 258.6 4598.13 257.85 C 4597.52 257.07 4596.53 257.21 4596.11 257.54 C 4593.77 259.45 4592.65 261.58 4592.59 264.53 C 4592.59 270.01 4596.77 273.77 4601.57 273.77 Z M 4601.61 279.72 C 4592.67 279.72 4585.91 272.46 4585.91 263.95 C 4585.91 255.39 4592.94 248.3 4601.77 248.3 C 4609.87 248.3 4617.33 254.86 4617.33 263.92 C 4617.33 273.37 4609.77 279.72 4601.61 279.72 Z" fill="none" stroke="#111111" stroke-width="2" stroke-miterlimit="10" pointer-events="all"/></g></g><g data-cell-id="jP2WbbBxQBNUkDRbYnSl-579"><g><path d="M 4585.91 368.73 L 4585.91 347.78 C 4585.91 344.89 4592.95 342.55 4601.62 342.55 C 4610.3 342.55 4617.33 344.89 4617.33 347.78 L 4617.33 368.73 C 4617.33 371.62 4610.3 373.96 4601.62 373.96 C 4592.95 373.96 4585.91 371.62 4585.91 368.73 Z" fill="none" stroke="#111111" stroke-width="2" stroke-miterlimit="10" pointer-events="all"/><path d="M 4585.91 347.78 C 4585.91 350.67 4592.95 353.02 4601.62 353.02 C 4610.3 353.02 4617.33 350.67 4617.33 347.78" fill="none" stroke="#111111" stroke-width="2" stroke-miterlimit="10" pointer-events="all"/></g></g><g data-cell-id="jP2WbbBxQBNUkDRbYnSl-580"><g><rect x="3559.69" y="206.42" width="806.32" height="198.96" fill="#222222" stroke="none" pointer-events="all"/></g></g><g data-cell-id="jP2WbbBxQBNUkDRbYnSl-583"><g><rect x="3664.41" y="232.59" width="555" height="20.94" fill="#000000" stroke="none" pointer-events="all"/></g></g><g data-cell-id="jP2WbbBxQBNUkDRbYnSl-584"><g><rect x="3664.41" y="274.48" width="555" height="20.94" fill="#000000" stroke="none" pointer-events="all"/></g></g><g data-cell-id="jP2WbbBxQBNUkDRbYnSl-585"><g><rect x="3664.41" y="316.37" width="555" height="20.94" fill="#000000" stroke="none" pointer-events="all"/></g></g><g data-cell-id="jP2WbbBxQBNUkDRbYnSl-586"><g><rect x="3664.41" y="358.25" width="555" height="20.94" fill="#000000" stroke="none" pointer-events="all"/></g></g><g data-cell-id="jP2WbbBxQBNUkDRbYnSl-587"><g><rect x="3831.96" y="232.59" width="20.94" height="146.6" fill="#111111" stroke="none" pointer-events="all"/></g></g><g data-cell-id="jP2WbbBxQBNUkDRbYnSl-588"><g><rect x="4030.92" y="232.59" width="20.94" height="146.6" fill="#111111" stroke="none" pointer-events="all"/></g></g><g data-cell-id="jP2WbbBxQBNUkDRbYnSl-589"><g><rect x="3664.41" y="337.31" width="555" height="20.94" fill="#222222" stroke="none" pointer-events="all"/></g></g><g data-cell-id="jP2WbbBxQBNUkDRbYnSl-590"><g><rect x="3664.41" y="295.42" width="555" height="20.94" fill="#222222" stroke="none" pointer-events="all"/></g></g><g data-cell-id="jP2WbbBxQBNUkDRbYnSl-591"><g><rect x="3664.41" y="253.54" width="555" height="20.94" fill="#222222" stroke="none" pointer-events="all"/></g></g><g data-cell-id="jP2WbbBxQBNUkDRbYnSl-582"><g><rect x="3622.52" y="232.59" width="41.89" height="146.6" fill="#111111" stroke="none" pointer-events="all"/></g></g><g data-cell-id="jP2WbbBxQBNUkDRbYnSl-581"><g><rect x="4219.41" y="232.59" width="41.89" height="146.6" fill="#111111" stroke="none" pointer-events="all"/></g></g></g><g data-cell-id="U1g_yLPCEkIgIiCrVf0g-8"><g/><g data-cell-id="U1g_yLPCEkIgIiCrVf0g-9"><g><rect x="2418.28" y="175" width="1099.52" height="261.79" fill="#222222" stroke="none" pointer-events="all"/></g></g><g data-cell-id="U1g_yLPCEkIgIiCrVf0g-10"><g><rect x="2449.69" y="206.42" width="1015.75" height="198.96" fill="#000000" stroke="#111111" stroke-width="5" pointer-events="all"/></g></g><g data-cell-id="U1g_yLPCEkIgIiCrVf0g-11"><g><rect x="3470.68" y="389.67" width="41.89" height="31.41" rx="4.71" ry="4.71" fill="#60a917" stroke="#222222" transform="rotate(90,3491.62,405.38)" pointer-events="all"/></g></g><g data-cell-id="U1g_yLPCEkIgIiCrVf0g-12"><g><rect x="3470.68" y="295.42" width="41.89" height="31.41" rx="4.71" ry="4.71" fill="#0050ef" stroke="#222222" transform="rotate(90,3491.62,311.13)" pointer-events="all"/></g></g><g data-cell-id="U1g_yLPCEkIgIiCrVf0g-13"><g><rect x="3203.65" y="237.83" width="83.77" height="136.13" rx="12.57" ry="12.57" fill="#0050ef" stroke="none" pointer-events="all"/></g></g><g data-cell-id="U1g_yLPCEkIgIiCrVf0g-14"><g><path d="M 3276.95 237.83 Q 3308.37 237.83 3308.37 305.9 Q 3308.37 373.96 3276.95 373.96 Z" fill="#0050ef" stroke="none" pointer-events="all"/></g></g><g data-cell-id="U1g_yLPCEkIgIiCrVf0g-15"><g><path d="M 3491.56 263.66 C 3492.49 263.66 3493.15 263 3493.15 262.13 L 3493.15 255.84 C 3493.15 255.02 3492.59 254.26 3491.66 254.26 C 3490.73 254.26 3490.08 255.01 3490.08 255.7 L 3490.08 262.14 C 3490.08 263 3490.81 263.66 3491.56 263.66 Z M 3491.57 273.77 C 3496.57 273.77 3500.7 269.75 3500.7 264.8 C 3500.7 262.3 3499.8 259.5 3497.05 257.46 C 3496.54 257.07 3495.52 257.28 3495.05 257.89 C 3494.63 258.52 3494.6 259.42 3495.29 260.07 C 3496.66 261.16 3497.55 262.88 3497.55 264.64 C 3497.55 268.06 3494.63 270.61 3491.69 270.61 C 3488.8 270.61 3485.91 268.5 3485.71 264.73 C 3485.66 263.21 3486.52 261.06 3488.04 260 C 3488.56 259.57 3488.77 258.6 3488.13 257.85 C 3487.52 257.07 3486.53 257.21 3486.11 257.54 C 3483.77 259.45 3482.65 261.58 3482.59 264.53 C 3482.59 270.01 3486.77 273.77 3491.57 273.77 Z M 3491.61 279.72 C 3482.67 279.72 3475.91 272.46 3475.91 263.95 C 3475.91 255.39 3482.94 248.3 3491.77 248.3 C 3499.87 248.3 3507.33 254.86 3507.33 263.92 C 3507.33 273.37 3499.77 279.72 3491.61 279.72 Z" fill="none" stroke="#111111" stroke-width="2" stroke-miterlimit="10" pointer-events="all"/></g></g><g data-cell-id="U1g_yLPCEkIgIiCrVf0g-16"><g><path d="M 3475.91 368.73 L 3475.91 347.78 C 3475.91 344.89 3482.95 342.55 3491.62 342.55 C 3500.3 342.55 3507.33 344.89 3507.33 347.78 L 3507.33 368.73 C 3507.33 371.62 3500.3 373.96 3491.62 373.96 C 3482.95 373.96 3475.91 371.62 3475.91 368.73 Z" fill="none" stroke="#111111" stroke-width="2" stroke-miterlimit="10" pointer-events="all"/><path d="M 3475.91 347.78 C 3475.91 350.67 3482.95 353.02 3491.62 353.02 C 3500.3 353.02 3507.33 350.67 3507.33 347.78" fill="none" stroke="#111111" stroke-width="2" stroke-miterlimit="10" pointer-events="all"/></g></g><g data-cell-id="U1g_yLPCEkIgIiCrVf0g-17"><g><rect x="2449.69" y="206.42" width="806.32" height="198.96" fill="#222222" stroke="none" pointer-events="all"/></g></g><g data-cell-id="U1g_yLPCEkIgIiCrVf0g-18"><g><rect x="2554.41" y="232.59" width="555" height="20.94" fill="#000000" stroke="none" pointer-events="all"/></g></g><g data-cell-id="U1g_yLPCEkIgIiCrVf0g-19"><g><rect x="2554.41" y="274.48" width="555" height="20.94" fill="#000000" stroke="none" pointer-events="all"/></g></g><g data-cell-id="U1g_yLPCEkIgIiCrVf0g-20"><g><rect x="2554.41" y="316.37" width="555" height="20.94" fill="#000000" stroke="none" pointer-events="all"/></g></g><g data-cell-id="U1g_yLPCEkIgIiCrVf0g-21"><g><rect x="2554.41" y="358.25" width="555" height="20.94" fill="#000000" stroke="none" pointer-events="all"/></g></g><g data-cell-id="U1g_yLPCEkIgIiCrVf0g-22"><g><rect x="2721.96" y="232.59" width="20.94" height="146.6" fill="#111111" stroke="none" pointer-events="all"/></g></g><g data-cell-id="U1g_yLPCEkIgIiCrVf0g-23"><g><rect x="2920.92" y="232.59" width="20.94" height="146.6" fill="#111111" stroke="none" pointer-events="all"/></g></g><g data-cell-id="U1g_yLPCEkIgIiCrVf0g-24"><g><rect x="2554.41" y="337.31" width="555" height="20.94" fill="#222222" stroke="none" pointer-events="all"/></g></g><g data-cell-id="U1g_yLPCEkIgIiCrVf0g-25"><g><rect x="2554.41" y="295.42" width="555" height="20.94" fill="#222222" stroke="none" pointer-events="all"/></g></g><g data-cell-id="U1g_yLPCEkIgIiCrVf0g-26"><g><rect x="2554.41" y="253.54" width="555" height="20.94" fill="#222222" stroke="none" pointer-events="all"/></g></g><g data-cell-id="U1g_yLPCEkIgIiCrVf0g-27"><g><rect x="2512.52" y="232.59" width="41.89" height="146.6" fill="#111111" stroke="none" pointer-events="all"/></g></g><g data-cell-id="U1g_yLPCEkIgIiCrVf0g-28"><g><rect x="3109.41" y="232.59" width="41.89" height="146.6" fill="#111111" stroke="none" pointer-events="all"/></g></g></g><g data-cell-id="U1g_yLPCEkIgIiCrVf0g-29"><g/><g data-cell-id="U1g_yLPCEkIgIiCrVf0g-30"><g><rect x="1308.28" y="175" width="1099.52" height="261.79" fill="#222222" stroke="none" pointer-events="all"/></g></g><g data-cell-id="U1g_yLPCEkIgIiCrVf0g-31"><g><rect x="1339.69" y="206.42" width="1015.75" height="198.96" fill="#000000" stroke="#111111" stroke-width="5" pointer-events="all"/></g></g><g data-cell-id="U1g_yLPCEkIgIiCrVf0g-32"><g><rect x="2360.68" y="389.67" width="41.89" height="31.41" rx="4.71" ry="4.71" fill="#60a917" stroke="#222222" transform="rotate(90,2381.62,405.38)" pointer-events="all"/></g></g><g data-cell-id="U1g_yLPCEkIgIiCrVf0g-33"><g><rect x="2360.68" y="295.42" width="41.89" height="31.41" rx="4.71" ry="4.71" fill="#0050ef" stroke="#222222" transform="rotate(90,2381.62,311.13)" pointer-events="all"/></g></g><g data-cell-id="U1g_yLPCEkIgIiCrVf0g-34"><g><rect x="2093.65" y="237.83" width="83.77" height="136.13" rx="12.57" ry="12.57" fill="#0050ef" stroke="none" pointer-events="all"/></g></g><g data-cell-id="U1g_yLPCEkIgIiCrVf0g-35"><g><path d="M 2166.95 237.83 Q 2198.37 237.83 2198.37 305.9 Q 2198.37 373.96 2166.95 373.96 Z" fill="#0050ef" stroke="none" pointer-events="all"/></g></g><g data-cell-id="U1g_yLPCEkIgIiCrVf0g-36"><g><path d="M 2381.56 263.66 C 2382.49 263.66 2383.15 263 2383.15 262.13 L 2383.15 255.84 C 2383.15 255.02 2382.59 254.26 2381.66 254.26 C 2380.73 254.26 2380.08 255.01 2380.08 255.7 L 2380.08 262.14 C 2380.08 263 2380.81 263.66 2381.56 263.66 Z M 2381.57 273.77 C 2386.57 273.77 2390.7 269.75 2390.7 264.8 C 2390.7 262.3 2389.8 259.5 2387.05 257.46 C 2386.54 257.07 2385.52 257.28 2385.05 257.89 C 2384.63 258.52 2384.6 259.42 2385.29 260.07 C 2386.66 261.16 2387.55 262.88 2387.55 264.64 C 2387.55 268.06 2384.63 270.61 2381.69 270.61 C 2378.8 270.61 2375.91 268.5 2375.71 264.73 C 2375.66 263.21 2376.52 261.06 2378.04 260 C 2378.56 259.57 2378.77 258.6 2378.13 257.85 C 2377.52 257.07 2376.53 257.21 2376.11 257.54 C 2373.77 259.45 2372.65 261.58 2372.59 264.53 C 2372.59 270.01 2376.77 273.77 2381.57 273.77 Z M 2381.61 279.72 C 2372.67 279.72 2365.91 272.46 2365.91 263.95 C 2365.91 255.39 2372.94 248.3 2381.77 248.3 C 2389.87 248.3 2397.33 254.86 2397.33 263.92 C 2397.33 273.37 2389.77 279.72 2381.61 279.72 Z" fill="none" stroke="#111111" stroke-width="2" stroke-miterlimit="10" pointer-events="all"/></g></g><g data-cell-id="U1g_yLPCEkIgIiCrVf0g-37"><g><path d="M 2365.91 368.73 L 2365.91 347.78 C 2365.91 344.89 2372.95 342.55 2381.62 342.55 C 2390.3 342.55 2397.33 344.89 2397.33 347.78 L 2397.33 368.73 C 2397.33 371.62 2390.3 373.96 2381.62 373.96 C 2372.95 373.96 2365.91 371.62 2365.91 368.73 Z" fill="none" stroke="#111111" stroke-width="2" stroke-miterlimit="10" pointer-events="all"/><path d="M 2365.91 347.78 C 2365.91 350.67 2372.95 353.02 2381.62 353.02 C 2390.3 353.02 2397.33 350.67 2397.33 347.78" fill="none" stroke="#111111" stroke-width="2" stroke-miterlimit="10" pointer-events="all"/></g></g><g data-cell-id="U1g_yLPCEkIgIiCrVf0g-38"><g><rect x="1339.69" y="206.42" width="806.32" height="198.96" fill="#222222" stroke="none" pointer-events="all"/></g></g><g data-cell-id="U1g_yLPCEkIgIiCrVf0g-39"><g><rect x="1444.41" y="232.59" width="555" height="20.94" fill="#000000" stroke="none" pointer-events="all"/></g></g><g data-cell-id="U1g_yLPCEkIgIiCrVf0g-40"><g><rect x="1444.41" y="274.48" width="555" height="20.94" fill="#000000" stroke="none" pointer-events="all"/></g></g><g data-cell-id="U1g_yLPCEkIgIiCrVf0g-41"><g><rect x="1444.41" y="316.37" width="555" height="20.94" fill="#000000" stroke="none" pointer-events="all"/></g></g><g data-cell-id="U1g_yLPCEkIgIiCrVf0g-42"><g><rect x="1444.41" y="358.25" width="555" height="20.94" fill="#000000" stroke="none" pointer-events="all"/></g></g><g data-cell-id="U1g_yLPCEkIgIiCrVf0g-43"><g><rect x="1611.96" y="232.59" width="20.94" height="146.6" fill="#111111" stroke="none" pointer-events="all"/></g></g><g data-cell-id="U1g_yLPCEkIgIiCrVf0g-44"><g><rect x="1810.92" y="232.59" width="20.94" height="146.6" fill="#111111" stroke="none" pointer-events="all"/></g></g><g data-cell-id="U1g_yLPCEkIgIiCrVf0g-45"><g><rect x="1444.41" y="337.31" width="555" height="20.94" fill="#222222" stroke="none" pointer-events="all"/></g></g><g data-cell-id="U1g_yLPCEkIgIiCrVf0g-46"><g><rect x="1444.41" y="295.42" width="555" height="20.94" fill="#222222" stroke="none" pointer-events="all"/></g></g><g data-cell-id="U1g_yLPCEkIgIiCrVf0g-47"><g><rect x="1444.41" y="253.54" width="555" height="20.94" fill="#222222" stroke="none" pointer-events="all"/></g></g><g data-cell-id="U1g_yLPCEkIgIiCrVf0g-48"><g><rect x="1402.52" y="232.59" width="41.89" height="146.6" fill="#111111" stroke="none" pointer-events="all"/></g></g><g data-cell-id="U1g_yLPCEkIgIiCrVf0g-49"><g><rect x="1999.41" y="232.59" width="41.89" height="146.6" fill="#111111" stroke="none" pointer-events="all"/></g></g></g><g data-cell-id="U1g_yLPCEkIgIiCrVf0g-50"><g/><g data-cell-id="U1g_yLPCEkIgIiCrVf0g-51"><g><rect x="198.28" y="175" width="1099.52" height="261.79" fill="#222222" stroke="none" pointer-events="all"/></g></g><g data-cell-id="U1g_yLPCEkIgIiCrVf0g-52"><g><rect x="229.69" y="206.42" width="1015.75" height="198.96" fill="#000000" stroke="#111111" stroke-width="5" pointer-events="all"/></g></g><g data-cell-id="U1g_yLPCEkIgIiCrVf0g-53"><g><rect x="1250.68" y="389.67" width="41.89" height="31.41" rx="4.71" ry="4.71" fill="#60a917" stroke="#222222" transform="rotate(90,1271.62,405.38)" pointer-events="all"/></g></g><g data-cell-id="U1g_yLPCEkIgIiCrVf0g-54"><g><rect x="1250.68" y="295.42" width="41.89" height="31.41" rx="4.71" ry="4.71" fill="#0050ef" stroke="#222222" transform="rotate(90,1271.62,311.13)" pointer-events="all"/></g></g><g data-cell-id="U1g_yLPCEkIgIiCrVf0g-55"><g><rect x="983.65" y="237.83" width="83.77" height="136.13" rx="12.57" ry="12.57" fill="#0050ef" stroke="none" pointer-events="all"/></g></g><g data-cell-id="U1g_yLPCEkIgIiCrVf0g-56"><g><path d="M 1056.95 237.83 Q 1088.37 237.83 1088.37 305.9 Q 1088.37 373.96 1056.95 373.96 Z" fill="#0050ef" stroke="none" pointer-events="all"/></g></g><g data-cell-id="U1g_yLPCEkIgIiCrVf0g-57"><g><path d="M 1271.56 263.66 C 1272.49 263.66 1273.15 263 1273.15 262.13 L 1273.15 255.84 C 1273.15 255.02 1272.59 254.26 1271.66 254.26 C 1270.73 254.26 1270.08 255.01 1270.08 255.7 L 1270.08 262.14 C 1270.08 263 1270.81 263.66 1271.56 263.66 Z M 1271.57 273.77 C 1276.57 273.77 1280.7 269.75 1280.7 264.8 C 1280.7 262.3 1279.8 259.5 1277.05 257.46 C 1276.54 257.07 1275.52 257.28 1275.05 257.89 C 1274.63 258.52 1274.6 259.42 1275.29 260.07 C 1276.66 261.16 1277.55 262.88 1277.55 264.64 C 1277.55 268.06 1274.63 270.61 1271.69 270.61 C 1268.8 270.61 1265.91 268.5 1265.71 264.73 C 1265.66 263.21 1266.52 261.06 1268.04 260 C 1268.56 259.57 1268.77 258.6 1268.13 257.85 C 1267.52 257.07 1266.53 257.21 1266.11 257.54 C 1263.77 259.45 1262.65 261.58 1262.59 264.53 C 1262.59 270.01 1266.77 273.77 1271.57 273.77 Z M 1271.61 279.72 C 1262.67 279.72 1255.91 272.46 1255.91 263.95 C 1255.91 255.39 1262.94 248.3 1271.77 248.3 C 1279.87 248.3 1287.33 254.86 1287.33 263.92 C 1287.33 273.37 1279.77 279.72 1271.61 279.72 Z" fill="none" stroke="#111111" stroke-width="2" stroke-miterlimit="10" pointer-events="all"/></g></g><g data-cell-id="U1g_yLPCEkIgIiCrVf0g-58"><g><path d="M 1255.91 368.73 L 1255.91 347.78 C 1255.91 344.89 1262.95 342.55 1271.62 342.55 C 1280.3 342.55 1287.33 344.89 1287.33 347.78 L 1287.33 368.73 C 1287.33 371.62 1280.3 373.96 1271.62 373.96 C 1262.95 373.96 1255.91 371.62 1255.91 368.73 Z" fill="none" stroke="#111111" stroke-width="2" stroke-miterlimit="10" pointer-events="all"/><path d="M 1255.91 347.78 C 1255.91 350.67 1262.95 353.02 1271.62 353.02 C 1280.3 353.02 1287.33 350.67 1287.33 347.78" fill="none" stroke="#111111" stroke-width="2" stroke-miterlimit="10" pointer-events="all"/></g></g><g data-cell-id="U1g_yLPCEkIgIiCrVf0g-59"><g><rect x="229.69" y="206.42" width="806.32" height="198.96" fill="#222222" stroke="none" pointer-events="all"/></g></g><g data-cell-id="U1g_yLPCEkIgIiCrVf0g-60"><g><rect x="334.41" y="232.59" width="555" height="20.94" fill="#000000" stroke="none" pointer-events="all"/></g></g><g data-cell-id="U1g_yLPCEkIgIiCrVf0g-61"><g><rect x="334.41" y="274.48" width="555" height="20.94" fill="#000000" stroke="none" pointer-events="all"/></g></g><g data-cell-id="U1g_yLPCEkIgIiCrVf0g-62"><g><rect x="334.41" y="316.37" width="555" height="20.94" fill="#000000" stroke="none" pointer-events="all"/></g></g><g data-cell-id="U1g_yLPCEkIgIiCrVf0g-63"><g><rect x="334.41" y="358.25" width="555" height="20.94" fill="#000000" stroke="none" pointer-events="all"/></g></g><g data-cell-id="U1g_yLPCEkIgIiCrVf0g-64"><g><rect x="501.96" y="232.59" width="20.94" height="146.6" fill="#111111" stroke="none" pointer-events="all"/></g></g><g data-cell-id="U1g_yLPCEkIgIiCrVf0g-65"><g><rect x="700.92" y="232.59" width="20.94" height="146.6" fill="#111111" stroke="none" pointer-events="all"/></g></g><g data-cell-id="U1g_yLPCEkIgIiCrVf0g-66"><g><rect x="334.41" y="337.31" width="555" height="20.94" fill="#222222" stroke="none" pointer-events="all"/></g></g><g data-cell-id="U1g_yLPCEkIgIiCrVf0g-67"><g><rect x="334.41" y="295.42" width="555" height="20.94" fill="#222222" stroke="none" pointer-events="all"/></g></g><g data-cell-id="U1g_yLPCEkIgIiCrVf0g-68"><g><rect x="334.41" y="253.54" width="555" height="20.94" fill="#222222" stroke="none" pointer-events="all"/></g></g><g data-cell-id="U1g_yLPCEkIgIiCrVf0g-69"><g><rect x="292.52" y="232.59" width="41.89" height="146.6" fill="#111111" stroke="none" pointer-events="all"/></g></g><g data-cell-id="U1g_yLPCEkIgIiCrVf0g-70"><g><rect x="889.41" y="232.59" width="41.89" height="146.6" fill="#111111" stroke="none" pointer-events="all"/></g></g></g></g></g></g></g></g></svg>