<?xml version="1.0" encoding="UTF-8"?>
<!DOCTYPE svg PUBLIC "-//W3C//DTD SVG 1.1//EN" "http://www.w3.org/Graphics/SVG/1.1/DTD/svg11.dtd">
<svg xmlns="http://www.w3.org/2000/svg" xmlns:xlink="http://www.w3.org/1999/xlink" version="1.1" width="484px" height="90px" viewBox="-0.5 -0.5 484 90"><defs><style type="text/css">@import url("https://fonts.googleapis.com/css?family=Titillium+Web");</style><style type="text/css"/></defs><g><g/><g><rect x="0" y="0" width="482.6" height="88.9" fill="#bfbfbf" stroke="#aaaaaa" pointer-events="all"/></g><g><rect x="18" y="0" width="446.6" height="88.9" fill="#222222" stroke="#aaaaaa" pointer-events="all"/></g><g/><g><rect x="7" y="63.68" width="4" height="6" fill="#000000" stroke="none" pointer-events="all"/></g><g><ellipse cx="11" cy="66.68" rx="3" ry="3" fill="#000000" stroke="none" pointer-events="all"/></g><g><ellipse cx="7" cy="66.68" rx="3" ry="3" fill="#000000" stroke="none" pointer-events="all"/></g><g/><g><rect x="19.83" y="61.01" width="109.95" height="26.18" fill="#333333" stroke="none" pointer-events="all"/></g><g><rect x="22.97" y="64.15" width="101.57" height="19.9" fill="#222222" stroke="#222222" stroke-width="0.5" pointer-events="all"/></g><g><rect x="125.07" y="82.48" width="4.19" height="3.14" rx="0.47" ry="0.47" fill="#60a917" stroke="#222222" stroke-width="0.1" transform="rotate(90,127.16,84.05)" pointer-events="all"/></g><g><rect x="125.07" y="73.05" width="4.19" height="3.14" rx="0.47" ry="0.47" fill="#0050ef" stroke="#222222" stroke-width="0.1" transform="rotate(90,127.16,74.62)" pointer-events="all"/></g><g><rect x="98.37" y="67.29" width="8.38" height="13.61" rx="1.26" ry="1.26" fill="#0050ef" stroke="none" pointer-events="all"/></g><g><path d="M 105.7 67.29 Q 108.84 67.29 108.84 74.1 Q 108.84 80.91 105.7 80.91 Z" fill="#0050ef" stroke="none" pointer-events="all"/></g><g><path d="M 127.16 69.88 C 127.25 69.88 127.32 69.81 127.32 69.72 L 127.32 69.1 C 127.32 69.01 127.26 68.94 127.17 68.94 C 127.08 68.94 127.01 69.01 127.01 69.08 L 127.01 69.73 C 127.01 69.81 127.08 69.88 127.16 69.88 Z M 127.16 70.89 C 127.66 70.89 128.07 70.49 128.07 69.99 C 128.07 69.74 127.98 69.46 127.71 69.26 C 127.66 69.22 127.55 69.24 127.51 69.3 C 127.46 69.36 127.46 69.45 127.53 69.52 C 127.67 69.63 127.76 69.8 127.76 69.97 C 127.76 70.32 127.47 70.57 127.17 70.57 C 126.88 70.57 126.59 70.36 126.57 69.98 C 126.57 69.83 126.65 69.62 126.81 69.51 C 126.86 69.47 126.88 69.37 126.82 69.3 C 126.75 69.22 126.66 69.23 126.61 69.26 C 126.38 69.46 126.27 69.67 126.26 69.96 C 126.26 70.51 126.68 70.89 127.16 70.89 Z M 127.16 71.48 C 126.27 71.48 125.59 70.76 125.59 69.91 C 125.59 69.05 126.3 68.34 127.18 68.34 C 127.99 68.34 128.73 69 128.73 69.9 C 128.73 70.85 127.98 71.48 127.16 71.48 Z" fill="none" stroke="#222222" stroke-width="0.1" stroke-miterlimit="10" pointer-events="all"/></g><g><path d="M 125.59 80.38 L 125.59 78.29 C 125.59 78 126.3 77.77 127.16 77.77 C 128.03 77.77 128.73 78 128.73 78.29 L 128.73 80.38 C 128.73 80.67 128.03 80.91 127.16 80.91 C 126.3 80.91 125.59 80.67 125.59 80.38 Z" fill="none" stroke="#222222" stroke-width="0.1" stroke-miterlimit="10" pointer-events="all"/><path d="M 125.59 78.29 C 125.59 78.58 126.3 78.81 127.16 78.81 C 128.03 78.81 128.73 78.58 128.73 78.29" fill="none" stroke="#222222" stroke-width="0.1" stroke-miterlimit="10" pointer-events="all"/></g><g><rect x="22.97" y="64.15" width="80.63" height="19.9" fill="#333333" stroke="none" pointer-events="all"/></g><g><rect x="88.94" y="66.77" width="4.19" height="14.66" fill="#2d2d2d" stroke="none" pointer-events="all"/></g><g><rect x="29.25" y="66.77" width="4.19" height="14.66" fill="#2d2d2d" stroke="none" pointer-events="all"/></g><g><rect x="33.44" y="66.77" width="55.5" height="2.09" fill="#222222" stroke="none" pointer-events="all"/></g><g><rect x="33.44" y="70.96" width="55.5" height="2.09" fill="#222222" stroke="none" pointer-events="all"/></g><g><rect x="33.44" y="75.15" width="55.5" height="2.09" fill="#222222" stroke="none" pointer-events="all"/></g><g><rect x="33.44" y="79.34" width="55.5" height="2.09" fill="#222222" stroke="none" pointer-events="all"/></g><g><rect x="50.2" y="66.77" width="2.09" height="14.66" fill="#2d2d2d" stroke="none" pointer-events="all"/></g><g><rect x="70.09" y="66.77" width="2.09" height="14.66" fill="#2d2d2d" stroke="none" pointer-events="all"/></g><g><rect x="33.44" y="77.24" width="55.5" height="2.09" fill="#333333" stroke="none" pointer-events="all"/></g><g><rect x="33.44" y="73.05" width="55.5" height="2.09" fill="#333333" stroke="none" pointer-events="all"/></g><g><rect x="33.44" y="68.86" width="55.5" height="2.09" fill="#333333" stroke="none" pointer-events="all"/></g><g><rect x="130.83" y="61.01" width="109.95" height="26.18" fill="#333333" stroke="none" pointer-events="all"/></g><g><rect x="133.97" y="64.15" width="101.57" height="19.9" fill="#222222" stroke="#222222" stroke-width="0.5" pointer-events="all"/></g><g><rect x="236.07" y="82.48" width="4.19" height="3.14" rx="0.47" ry="0.47" fill="#60a917" stroke="#222222" stroke-width="0.1" transform="rotate(90,238.16,84.05)" pointer-events="all"/></g><g><rect x="236.07" y="73.05" width="4.19" height="3.14" rx="0.47" ry="0.47" fill="#0050ef" stroke="#222222" stroke-width="0.1" transform="rotate(90,238.16,74.62)" pointer-events="all"/></g><g><rect x="209.37" y="67.29" width="8.38" height="13.61" rx="1.26" ry="1.26" fill="#0050ef" stroke="none" pointer-events="all"/></g><g><path d="M 216.7 67.29 Q 219.84 67.29 219.84 74.1 Q 219.84 80.91 216.7 80.91 Z" fill="#0050ef" stroke="none" pointer-events="all"/></g><g><path d="M 238.16 69.88 C 238.25 69.88 238.32 69.81 238.32 69.72 L 238.32 69.1 C 238.32 69.01 238.26 68.94 238.17 68.94 C 238.07 68.94 238.01 69.01 238.01 69.08 L 238.01 69.73 C 238.01 69.81 238.08 69.88 238.16 69.88 Z M 238.16 70.89 C 238.66 70.89 239.07 70.49 239.07 69.99 C 239.07 69.74 238.98 69.46 238.71 69.26 C 238.66 69.22 238.55 69.24 238.51 69.3 C 238.46 69.36 238.46 69.45 238.53 69.52 C 238.67 69.63 238.76 69.8 238.76 69.97 C 238.76 70.32 238.46 70.57 238.17 70.57 C 237.88 70.57 237.59 70.36 237.57 69.98 C 237.57 69.83 237.65 69.62 237.81 69.51 C 237.86 69.47 237.88 69.37 237.81 69.3 C 237.75 69.22 237.65 69.23 237.61 69.26 C 237.38 69.46 237.27 69.67 237.26 69.96 C 237.26 70.51 237.68 70.89 238.16 70.89 Z M 238.16 71.48 C 237.27 71.48 236.59 70.76 236.59 69.91 C 236.59 69.05 237.3 68.34 238.18 68.34 C 238.99 68.34 239.73 69 239.73 69.9 C 239.73 70.85 238.98 71.48 238.16 71.48 Z" fill="none" stroke="#222222" stroke-width="0.1" stroke-miterlimit="10" pointer-events="all"/></g><g><path d="M 236.59 80.38 L 236.59 78.29 C 236.59 78 237.3 77.77 238.16 77.77 C 239.03 77.77 239.73 78 239.73 78.29 L 239.73 80.38 C 239.73 80.67 239.03 80.91 238.16 80.91 C 237.3 80.91 236.59 80.67 236.59 80.38 Z" fill="none" stroke="#222222" stroke-width="0.1" stroke-miterlimit="10" pointer-events="all"/><path d="M 236.59 78.29 C 236.59 78.58 237.3 78.81 238.16 78.81 C 239.03 78.81 239.73 78.58 239.73 78.29" fill="none" stroke="#222222" stroke-width="0.1" stroke-miterlimit="10" pointer-events="all"/></g><g><rect x="133.97" y="64.15" width="80.63" height="19.9" fill="#333333" stroke="none" pointer-events="all"/></g><g><rect x="199.94" y="66.77" width="4.19" height="14.66" fill="#2d2d2d" stroke="none" pointer-events="all"/></g><g><rect x="140.25" y="66.77" width="4.19" height="14.66" fill="#2d2d2d" stroke="none" pointer-events="all"/></g><g><rect x="144.44" y="66.77" width="55.5" height="2.09" fill="#222222" stroke="none" pointer-events="all"/></g><g><rect x="144.44" y="70.96" width="55.5" height="2.09" fill="#222222" stroke="none" pointer-events="all"/></g><g><rect x="144.44" y="75.15" width="55.5" height="2.09" fill="#222222" stroke="none" pointer-events="all"/></g><g><rect x="144.44" y="79.34" width="55.5" height="2.09" fill="#222222" stroke="none" pointer-events="all"/></g><g><rect x="161.2" y="66.77" width="2.09" height="14.66" fill="#2d2d2d" stroke="none" pointer-events="all"/></g><g><rect x="181.09" y="66.77" width="2.09" height="14.66" fill="#2d2d2d" stroke="none" pointer-events="all"/></g><g><rect x="144.44" y="77.24" width="55.5" height="2.09" fill="#333333" stroke="none" pointer-events="all"/></g><g><rect x="144.44" y="73.05" width="55.5" height="2.09" fill="#333333" stroke="none" pointer-events="all"/></g><g><rect x="144.44" y="68.86" width="55.5" height="2.09" fill="#333333" stroke="none" pointer-events="all"/></g><g><rect x="241.83" y="61.01" width="109.95" height="26.18" fill="#333333" stroke="none" pointer-events="all"/></g><g><rect x="244.97" y="64.15" width="101.57" height="19.9" fill="#222222" stroke="#222222" stroke-width="0.5" pointer-events="all"/></g><g><rect x="347.07" y="82.48" width="4.19" height="3.14" rx="0.47" ry="0.47" fill="#60a917" stroke="#222222" stroke-width="0.1" transform="rotate(90,349.16,84.05)" pointer-events="all"/></g><g><rect x="347.07" y="73.05" width="4.19" height="3.14" rx="0.47" ry="0.47" fill="#0050ef" stroke="#222222" stroke-width="0.1" transform="rotate(90,349.16,74.62)" pointer-events="all"/></g><g><rect x="320.37" y="67.29" width="8.38" height="13.61" rx="1.26" ry="1.26" fill="#0050ef" stroke="none" pointer-events="all"/></g><g><path d="M 327.7 67.29 Q 330.84 67.29 330.84 74.1 Q 330.84 80.91 327.7 80.91 Z" fill="#0050ef" stroke="none" pointer-events="all"/></g><g><path d="M 349.16 69.88 C 349.25 69.88 349.32 69.81 349.32 69.72 L 349.32 69.1 C 349.32 69.01 349.26 68.94 349.17 68.94 C 349.07 68.94 349.01 69.01 349.01 69.08 L 349.01 69.73 C 349.01 69.81 349.08 69.88 349.16 69.88 Z M 349.16 70.89 C 349.66 70.89 350.07 70.49 350.07 69.99 C 350.07 69.74 349.98 69.46 349.71 69.26 C 349.66 69.22 349.55 69.24 349.51 69.3 C 349.46 69.36 349.46 69.45 349.53 69.52 C 349.67 69.63 349.76 69.8 349.76 69.97 C 349.76 70.32 349.46 70.57 349.17 70.57 C 348.88 70.57 348.59 70.36 348.57 69.98 C 348.57 69.83 348.65 69.62 348.8 69.51 C 348.86 69.47 348.88 69.37 348.81 69.3 C 348.75 69.22 348.65 69.23 348.61 69.26 C 348.38 69.46 348.27 69.67 348.26 69.96 C 348.26 70.51 348.68 70.89 349.16 70.89 Z M 349.16 71.48 C 348.27 71.48 347.59 70.76 347.59 69.91 C 347.59 69.05 348.29 68.34 349.18 68.34 C 349.99 68.34 350.73 69 350.73 69.9 C 350.73 70.85 349.98 71.48 349.16 71.48 Z" fill="none" stroke="#222222" stroke-width="0.1" stroke-miterlimit="10" pointer-events="all"/></g><g><path d="M 347.59 80.38 L 347.59 78.29 C 347.59 78 348.3 77.77 349.16 77.77 C 350.03 77.77 350.73 78 350.73 78.29 L 350.73 80.38 C 350.73 80.67 350.03 80.91 349.16 80.91 C 348.3 80.91 347.59 80.67 347.59 80.38 Z" fill="none" stroke="#222222" stroke-width="0.1" stroke-miterlimit="10" pointer-events="all"/><path d="M 347.59 78.29 C 347.59 78.58 348.3 78.81 349.16 78.81 C 350.03 78.81 350.73 78.58 350.73 78.29" fill="none" stroke="#222222" stroke-width="0.1" stroke-miterlimit="10" pointer-events="all"/></g><g><rect x="244.97" y="64.15" width="80.63" height="19.9" fill="#333333" stroke="none" pointer-events="all"/></g><g><rect x="310.94" y="66.77" width="4.19" height="14.66" fill="#2d2d2d" stroke="none" pointer-events="all"/></g><g><rect x="251.25" y="66.77" width="4.19" height="14.66" fill="#2d2d2d" stroke="none" pointer-events="all"/></g><g><rect x="255.44" y="66.77" width="55.5" height="2.09" fill="#222222" stroke="none" pointer-events="all"/></g><g><rect x="255.44" y="70.96" width="55.5" height="2.09" fill="#222222" stroke="none" pointer-events="all"/></g><g><rect x="255.44" y="75.15" width="55.5" height="2.09" fill="#222222" stroke="none" pointer-events="all"/></g><g><rect x="255.44" y="79.34" width="55.5" height="2.09" fill="#222222" stroke="none" pointer-events="all"/></g><g><rect x="272.2" y="66.77" width="2.09" height="14.66" fill="#2d2d2d" stroke="none" pointer-events="all"/></g><g><rect x="292.09" y="66.77" width="2.09" height="14.66" fill="#2d2d2d" stroke="none" pointer-events="all"/></g><g><rect x="255.44" y="77.24" width="55.5" height="2.09" fill="#333333" stroke="none" pointer-events="all"/></g><g><rect x="255.44" y="73.05" width="55.5" height="2.09" fill="#333333" stroke="none" pointer-events="all"/></g><g><rect x="255.44" y="68.86" width="55.5" height="2.09" fill="#333333" stroke="none" pointer-events="all"/></g><g><rect x="352.83" y="61.01" width="109.95" height="26.18" fill="#333333" stroke="none" pointer-events="all"/></g><g><rect x="355.97" y="64.15" width="101.57" height="19.9" fill="#222222" stroke="#222222" stroke-width="0.5" pointer-events="all"/></g><g><rect x="458.07" y="82.48" width="4.19" height="3.14" rx="0.47" ry="0.47" fill="#60a917" stroke="#222222" stroke-width="0.1" transform="rotate(90,460.16,84.05)" pointer-events="all"/></g><g><rect x="458.07" y="73.05" width="4.19" height="3.14" rx="0.47" ry="0.47" fill="#0050ef" stroke="#222222" stroke-width="0.1" transform="rotate(90,460.16,74.62)" pointer-events="all"/></g><g><rect x="431.37" y="67.29" width="8.38" height="13.61" rx="1.26" ry="1.26" fill="#0050ef" stroke="none" pointer-events="all"/></g><g><path d="M 438.7 67.29 Q 441.84 67.29 441.84 74.1 Q 441.84 80.91 438.7 80.91 Z" fill="#0050ef" stroke="none" pointer-events="all"/></g><g><path d="M 460.16 69.88 C 460.25 69.88 460.32 69.81 460.32 69.72 L 460.32 69.1 C 460.32 69.01 460.26 68.94 460.17 68.94 C 460.07 68.94 460.01 69.01 460.01 69.08 L 460.01 69.73 C 460.01 69.81 460.08 69.88 460.16 69.88 Z M 460.16 70.89 C 460.66 70.89 461.07 70.49 461.07 69.99 C 461.07 69.74 460.98 69.46 460.7 69.26 C 460.65 69.22 460.55 69.24 460.51 69.3 C 460.46 69.36 460.46 69.45 460.53 69.52 C 460.67 69.63 460.76 69.8 460.76 69.97 C 460.76 70.32 460.46 70.57 460.17 70.57 C 459.88 70.57 459.59 70.36 459.57 69.98 C 459.57 69.83 459.65 69.62 459.8 69.51 C 459.86 69.47 459.88 69.37 459.81 69.3 C 459.75 69.22 459.65 69.23 459.61 69.26 C 459.38 69.46 459.27 69.67 459.26 69.96 C 459.26 70.51 459.68 70.89 460.16 70.89 Z M 460.16 71.48 C 459.27 71.48 458.59 70.76 458.59 69.91 C 458.59 69.05 459.29 68.34 460.18 68.34 C 460.99 68.34 461.73 69 461.73 69.9 C 461.73 70.85 460.98 71.48 460.16 71.48 Z" fill="none" stroke="#222222" stroke-width="0.1" stroke-miterlimit="10" pointer-events="all"/></g><g><path d="M 458.59 80.38 L 458.59 78.29 C 458.59 78 459.29 77.77 460.16 77.77 C 461.03 77.77 461.73 78 461.73 78.29 L 461.73 80.38 C 461.73 80.67 461.03 80.91 460.16 80.91 C 459.29 80.91 458.59 80.67 458.59 80.38 Z" fill="none" stroke="#222222" stroke-width="0.1" stroke-miterlimit="10" pointer-events="all"/><path d="M 458.59 78.29 C 458.59 78.58 459.29 78.81 460.16 78.81 C 461.03 78.81 461.73 78.58 461.73 78.29" fill="none" stroke="#222222" stroke-width="0.1" stroke-miterlimit="10" pointer-events="all"/></g><g><rect x="355.97" y="64.15" width="80.63" height="19.9" fill="#333333" stroke="none" pointer-events="all"/></g><g><rect x="421.94" y="66.77" width="4.19" height="14.66" fill="#2d2d2d" stroke="none" pointer-events="all"/></g><g><rect x="362.25" y="66.77" width="4.19" height="14.66" fill="#2d2d2d" stroke="none" pointer-events="all"/></g><g><rect x="366.44" y="66.77" width="55.5" height="2.09" fill="#222222" stroke="none" pointer-events="all"/></g><g><rect x="366.44" y="70.96" width="55.5" height="2.09" fill="#222222" stroke="none" pointer-events="all"/></g><g><rect x="366.44" y="75.15" width="55.5" height="2.09" fill="#222222" stroke="none" pointer-events="all"/></g><g><rect x="366.44" y="79.34" width="55.5" height="2.09" fill="#222222" stroke="none" pointer-events="all"/></g><g><rect x="383.2" y="66.77" width="2.09" height="14.66" fill="#2d2d2d" stroke="none" pointer-events="all"/></g><g><rect x="403.09" y="66.77" width="2.09" height="14.66" fill="#2d2d2d" stroke="none" pointer-events="all"/></g><g><rect x="366.44" y="77.24" width="55.5" height="2.09" fill="#333333" stroke="none" pointer-events="all"/></g><g><rect x="366.44" y="73.05" width="55.5" height="2.09" fill="#333333" stroke="none" pointer-events="all"/></g><g><rect x="366.44" y="68.86" width="55.5" height="2.09" fill="#333333" stroke="none" pointer-events="all"/></g><g/><g><rect x="19.83" y="31.83" width="109.95" height="26.18" fill="#333333" stroke="none" pointer-events="all"/></g><g><rect x="22.97" y="34.97" width="101.57" height="19.9" fill="#222222" stroke="#222222" stroke-width="0.5" pointer-events="all"/></g><g><rect x="125.07" y="53.3" width="4.19" height="3.14" rx="0.47" ry="0.47" fill="#60a917" stroke="#222222" stroke-width="0.1" transform="rotate(90,127.16,54.87)" pointer-events="all"/></g><g><rect x="125.07" y="43.87" width="4.19" height="3.14" rx="0.47" ry="0.47" fill="#0050ef" stroke="#222222" stroke-width="0.1" transform="rotate(90,127.16,45.44)" pointer-events="all"/></g><g><rect x="98.37" y="38.11" width="8.38" height="13.61" rx="1.26" ry="1.26" fill="#0050ef" stroke="none" pointer-events="all"/></g><g><path d="M 105.7 38.11 Q 108.84 38.11 108.84 44.92 Q 108.84 51.73 105.7 51.73 Z" fill="#0050ef" stroke="none" pointer-events="all"/></g><g><path d="M 127.16 40.7 C 127.25 40.7 127.32 40.63 127.32 40.54 L 127.32 39.92 C 127.32 39.83 127.26 39.76 127.17 39.76 C 127.08 39.76 127.01 39.83 127.01 39.9 L 127.01 40.55 C 127.01 40.63 127.08 40.7 127.16 40.7 Z M 127.16 41.71 C 127.66 41.71 128.07 41.31 128.07 40.81 C 128.07 40.56 127.98 40.28 127.71 40.08 C 127.66 40.04 127.55 40.06 127.51 40.12 C 127.46 40.18 127.46 40.27 127.53 40.34 C 127.67 40.45 127.76 40.62 127.76 40.79 C 127.76 41.14 127.47 41.39 127.17 41.39 C 126.88 41.39 126.59 41.18 126.57 40.8 C 126.57 40.65 126.65 40.44 126.81 40.33 C 126.86 40.29 126.88 40.19 126.82 40.12 C 126.75 40.04 126.66 40.05 126.61 40.08 C 126.38 40.28 126.27 40.49 126.26 40.78 C 126.26 41.33 126.68 41.71 127.16 41.71 Z M 127.16 42.3 C 126.27 42.3 125.59 41.58 125.59 40.73 C 125.59 39.87 126.3 39.16 127.18 39.16 C 127.99 39.16 128.73 39.82 128.73 40.72 C 128.73 41.67 127.98 42.3 127.16 42.3 Z" fill="none" stroke="#222222" stroke-width="0.1" stroke-miterlimit="10" pointer-events="all"/></g><g><path d="M 125.59 51.2 L 125.59 49.11 C 125.59 48.82 126.3 48.59 127.16 48.59 C 128.03 48.59 128.73 48.82 128.73 49.11 L 128.73 51.2 C 128.73 51.49 128.03 51.73 127.16 51.73 C 126.3 51.73 125.59 51.49 125.59 51.2 Z" fill="none" stroke="#222222" stroke-width="0.1" stroke-miterlimit="10" pointer-events="all"/><path d="M 125.59 49.11 C 125.59 49.4 126.3 49.63 127.16 49.63 C 128.03 49.63 128.73 49.4 128.73 49.11" fill="none" stroke="#222222" stroke-width="0.1" stroke-miterlimit="10" pointer-events="all"/></g><g><rect x="22.97" y="34.97" width="80.63" height="19.9" fill="#333333" stroke="none" pointer-events="all"/></g><g><rect x="88.94" y="37.59" width="4.19" height="14.66" fill="#2d2d2d" stroke="none" pointer-events="all"/></g><g><rect x="29.25" y="37.59" width="4.19" height="14.66" fill="#2d2d2d" stroke="none" pointer-events="all"/></g><g><rect x="33.44" y="37.59" width="55.5" height="2.09" fill="#222222" stroke="none" pointer-events="all"/></g><g><rect x="33.44" y="41.78" width="55.5" height="2.09" fill="#222222" stroke="none" pointer-events="all"/></g><g><rect x="33.44" y="45.97" width="55.5" height="2.09" fill="#222222" stroke="none" pointer-events="all"/></g><g><rect x="33.44" y="50.16" width="55.5" height="2.09" fill="#222222" stroke="none" pointer-events="all"/></g><g><rect x="50.2" y="37.59" width="2.09" height="14.66" fill="#2d2d2d" stroke="none" pointer-events="all"/></g><g><rect x="70.09" y="37.59" width="2.09" height="14.66" fill="#2d2d2d" stroke="none" pointer-events="all"/></g><g><rect x="33.44" y="48.06" width="55.5" height="2.09" fill="#333333" stroke="none" pointer-events="all"/></g><g><rect x="33.44" y="43.87" width="55.5" height="2.09" fill="#333333" stroke="none" pointer-events="all"/></g><g><rect x="33.44" y="39.68" width="55.5" height="2.09" fill="#333333" stroke="none" pointer-events="all"/></g><g><rect x="130.83" y="31.83" width="109.95" height="26.18" fill="#333333" stroke="none" pointer-events="all"/></g><g><rect x="133.97" y="34.97" width="101.57" height="19.9" fill="#222222" stroke="#222222" stroke-width="0.5" pointer-events="all"/></g><g><rect x="236.07" y="53.3" width="4.19" height="3.14" rx="0.47" ry="0.47" fill="#60a917" stroke="#222222" stroke-width="0.1" transform="rotate(90,238.16,54.87)" pointer-events="all"/></g><g><rect x="236.07" y="43.87" width="4.19" height="3.14" rx="0.47" ry="0.47" fill="#0050ef" stroke="#222222" stroke-width="0.1" transform="rotate(90,238.16,45.44)" pointer-events="all"/></g><g><rect x="209.37" y="38.11" width="8.38" height="13.61" rx="1.26" ry="1.26" fill="#0050ef" stroke="none" pointer-events="all"/></g><g><path d="M 216.7 38.11 Q 219.84 38.11 219.84 44.92 Q 219.84 51.73 216.7 51.73 Z" fill="#0050ef" stroke="none" pointer-events="all"/></g><g><path d="M 238.16 40.7 C 238.25 40.7 238.32 40.63 238.32 40.54 L 238.32 39.92 C 238.32 39.83 238.26 39.76 238.17 39.76 C 238.07 39.76 238.01 39.83 238.01 39.9 L 238.01 40.55 C 238.01 40.63 238.08 40.7 238.16 40.7 Z M 238.16 41.71 C 238.66 41.71 239.07 41.31 239.07 40.81 C 239.07 40.56 238.98 40.28 238.71 40.08 C 238.66 40.04 238.55 40.06 238.51 40.12 C 238.46 40.18 238.46 40.27 238.53 40.34 C 238.67 40.45 238.76 40.62 238.76 40.79 C 238.76 41.14 238.46 41.39 238.17 41.39 C 237.88 41.39 237.59 41.18 237.57 40.8 C 237.57 40.65 237.65 40.44 237.81 40.33 C 237.86 40.29 237.88 40.19 237.81 40.12 C 237.75 40.04 237.65 40.05 237.61 40.08 C 237.38 40.28 237.27 40.49 237.26 40.78 C 237.26 41.33 237.68 41.71 238.16 41.71 Z M 238.16 42.3 C 237.27 42.3 236.59 41.58 236.59 40.73 C 236.59 39.87 237.3 39.16 238.18 39.16 C 238.99 39.16 239.73 39.82 239.73 40.72 C 239.73 41.67 238.98 42.3 238.16 42.3 Z" fill="none" stroke="#222222" stroke-width="0.1" stroke-miterlimit="10" pointer-events="all"/></g><g><path d="M 236.59 51.2 L 236.59 49.11 C 236.59 48.82 237.3 48.59 238.16 48.59 C 239.03 48.59 239.73 48.82 239.73 49.11 L 239.73 51.2 C 239.73 51.49 239.03 51.73 238.16 51.73 C 237.3 51.73 236.59 51.49 236.59 51.2 Z" fill="none" stroke="#222222" stroke-width="0.1" stroke-miterlimit="10" pointer-events="all"/><path d="M 236.59 49.11 C 236.59 49.4 237.3 49.63 238.16 49.63 C 239.03 49.63 239.73 49.4 239.73 49.11" fill="none" stroke="#222222" stroke-width="0.1" stroke-miterlimit="10" pointer-events="all"/></g><g><rect x="133.97" y="34.97" width="80.63" height="19.9" fill="#333333" stroke="none" pointer-events="all"/></g><g><rect x="199.94" y="37.59" width="4.19" height="14.66" fill="#2d2d2d" stroke="none" pointer-events="all"/></g><g><rect x="140.25" y="37.59" width="4.19" height="14.66" fill="#2d2d2d" stroke="none" pointer-events="all"/></g><g><rect x="144.44" y="37.59" width="55.5" height="2.09" fill="#222222" stroke="none" pointer-events="all"/></g><g><rect x="144.44" y="41.78" width="55.5" height="2.09" fill="#222222" stroke="none" pointer-events="all"/></g><g><rect x="144.44" y="45.97" width="55.5" height="2.09" fill="#222222" stroke="none" pointer-events="all"/></g><g><rect x="144.44" y="50.16" width="55.5" height="2.09" fill="#222222" stroke="none" pointer-events="all"/></g><g><rect x="161.2" y="37.59" width="2.09" height="14.66" fill="#2d2d2d" stroke="none" pointer-events="all"/></g><g><rect x="181.09" y="37.59" width="2.09" height="14.66" fill="#2d2d2d" stroke="none" pointer-events="all"/></g><g><rect x="144.44" y="48.06" width="55.5" height="2.09" fill="#333333" stroke="none" pointer-events="all"/></g><g><rect x="144.44" y="43.87" width="55.5" height="2.09" fill="#333333" stroke="none" pointer-events="all"/></g><g><rect x="144.44" y="39.68" width="55.5" height="2.09" fill="#333333" stroke="none" pointer-events="all"/></g><g><rect x="241.83" y="31.83" width="109.95" height="26.18" fill="#333333" stroke="none" pointer-events="all"/></g><g><rect x="244.97" y="34.97" width="101.57" height="19.9" fill="#222222" stroke="#222222" stroke-width="0.5" pointer-events="all"/></g><g><rect x="347.07" y="53.3" width="4.19" height="3.14" rx="0.47" ry="0.47" fill="#60a917" stroke="#222222" stroke-width="0.1" transform="rotate(90,349.16,54.87)" pointer-events="all"/></g><g><rect x="347.07" y="43.87" width="4.19" height="3.14" rx="0.47" ry="0.47" fill="#0050ef" stroke="#222222" stroke-width="0.1" transform="rotate(90,349.16,45.44)" pointer-events="all"/></g><g><rect x="320.37" y="38.11" width="8.38" height="13.61" rx="1.26" ry="1.26" fill="#0050ef" stroke="none" pointer-events="all"/></g><g><path d="M 327.7 38.11 Q 330.84 38.11 330.84 44.92 Q 330.84 51.73 327.7 51.73 Z" fill="#0050ef" stroke="none" pointer-events="all"/></g><g><path d="M 349.16 40.7 C 349.25 40.7 349.32 40.63 349.32 40.54 L 349.32 39.92 C 349.32 39.83 349.26 39.76 349.17 39.76 C 349.07 39.76 349.01 39.83 349.01 39.9 L 349.01 40.55 C 349.01 40.63 349.08 40.7 349.16 40.7 Z M 349.16 41.71 C 349.66 41.71 350.07 41.31 350.07 40.81 C 350.07 40.56 349.98 40.28 349.71 40.08 C 349.66 40.04 349.55 40.06 349.51 40.12 C 349.46 40.18 349.46 40.27 349.53 40.34 C 349.67 40.45 349.76 40.62 349.76 40.79 C 349.76 41.14 349.46 41.39 349.17 41.39 C 348.88 41.39 348.59 41.18 348.57 40.8 C 348.57 40.65 348.65 40.44 348.8 40.33 C 348.86 40.29 348.88 40.19 348.81 40.12 C 348.75 40.04 348.65 40.05 348.61 40.08 C 348.38 40.28 348.27 40.49 348.26 40.78 C 348.26 41.33 348.68 41.71 349.16 41.71 Z M 349.16 42.3 C 348.27 42.3 347.59 41.58 347.59 40.73 C 347.59 39.87 348.29 39.16 349.18 39.16 C 349.99 39.16 350.73 39.82 350.73 40.72 C 350.73 41.67 349.98 42.3 349.16 42.3 Z" fill="none" stroke="#222222" stroke-width="0.1" stroke-miterlimit="10" pointer-events="all"/></g><g><path d="M 347.59 51.2 L 347.59 49.11 C 347.59 48.82 348.3 48.59 349.16 48.59 C 350.03 48.59 350.73 48.82 350.73 49.11 L 350.73 51.2 C 350.73 51.49 350.03 51.73 349.16 51.73 C 348.3 51.73 347.59 51.49 347.59 51.2 Z" fill="none" stroke="#222222" stroke-width="0.1" stroke-miterlimit="10" pointer-events="all"/><path d="M 347.59 49.11 C 347.59 49.4 348.3 49.63 349.16 49.63 C 350.03 49.63 350.73 49.4 350.73 49.11" fill="none" stroke="#222222" stroke-width="0.1" stroke-miterlimit="10" pointer-events="all"/></g><g><rect x="244.97" y="34.97" width="80.63" height="19.9" fill="#333333" stroke="none" pointer-events="all"/></g><g><rect x="310.94" y="37.59" width="4.19" height="14.66" fill="#2d2d2d" stroke="none" pointer-events="all"/></g><g><rect x="251.25" y="37.59" width="4.19" height="14.66" fill="#2d2d2d" stroke="none" pointer-events="all"/></g><g><rect x="255.44" y="37.59" width="55.5" height="2.09" fill="#222222" stroke="none" pointer-events="all"/></g><g><rect x="255.44" y="41.78" width="55.5" height="2.09" fill="#222222" stroke="none" pointer-events="all"/></g><g><rect x="255.44" y="45.97" width="55.5" height="2.09" fill="#222222" stroke="none" pointer-events="all"/></g><g><rect x="255.44" y="50.16" width="55.5" height="2.09" fill="#222222" stroke="none" pointer-events="all"/></g><g><rect x="272.2" y="37.59" width="2.09" height="14.66" fill="#2d2d2d" stroke="none" pointer-events="all"/></g><g><rect x="292.09" y="37.59" width="2.09" height="14.66" fill="#2d2d2d" stroke="none" pointer-events="all"/></g><g><rect x="255.44" y="48.06" width="55.5" height="2.09" fill="#333333" stroke="none" pointer-events="all"/></g><g><rect x="255.44" y="43.87" width="55.5" height="2.09" fill="#333333" stroke="none" pointer-events="all"/></g><g><rect x="255.44" y="39.68" width="55.5" height="2.09" fill="#333333" stroke="none" pointer-events="all"/></g><g><rect x="352.83" y="31.83" width="109.95" height="26.18" fill="#333333" stroke="none" pointer-events="all"/></g><g><rect x="355.97" y="34.97" width="101.57" height="19.9" fill="#222222" stroke="#222222" stroke-width="0.5" pointer-events="all"/></g><g><rect x="458.07" y="53.3" width="4.19" height="3.14" rx="0.47" ry="0.47" fill="#60a917" stroke="#222222" stroke-width="0.1" transform="rotate(90,460.16,54.87)" pointer-events="all"/></g><g><rect x="458.07" y="43.87" width="4.19" height="3.14" rx="0.47" ry="0.47" fill="#0050ef" stroke="#222222" stroke-width="0.1" transform="rotate(90,460.16,45.44)" pointer-events="all"/></g><g><rect x="431.37" y="38.11" width="8.38" height="13.61" rx="1.26" ry="1.26" fill="#0050ef" stroke="none" pointer-events="all"/></g><g><path d="M 438.7 38.11 Q 441.84 38.11 441.84 44.92 Q 441.84 51.73 438.7 51.73 Z" fill="#0050ef" stroke="none" pointer-events="all"/></g><g><path d="M 460.16 40.7 C 460.25 40.7 460.32 40.63 460.32 40.54 L 460.32 39.92 C 460.32 39.83 460.26 39.76 460.17 39.76 C 460.07 39.76 460.01 39.83 460.01 39.9 L 460.01 40.55 C 460.01 40.63 460.08 40.7 460.16 40.7 Z M 460.16 41.71 C 460.66 41.71 461.07 41.31 461.07 40.81 C 461.07 40.56 460.98 40.28 460.7 40.08 C 460.65 40.04 460.55 40.06 460.51 40.12 C 460.46 40.18 460.46 40.27 460.53 40.34 C 460.67 40.45 460.76 40.62 460.76 40.79 C 460.76 41.14 460.46 41.39 460.17 41.39 C 459.88 41.39 459.59 41.18 459.57 40.8 C 459.57 40.65 459.65 40.44 459.8 40.33 C 459.86 40.29 459.88 40.19 459.81 40.12 C 459.75 40.04 459.65 40.05 459.61 40.08 C 459.38 40.28 459.27 40.49 459.26 40.78 C 459.26 41.33 459.68 41.71 460.16 41.71 Z M 460.16 42.3 C 459.27 42.3 458.59 41.58 458.59 40.73 C 458.59 39.87 459.29 39.16 460.18 39.16 C 460.99 39.16 461.73 39.82 461.73 40.72 C 461.73 41.67 460.98 42.3 460.16 42.3 Z" fill="none" stroke="#222222" stroke-width="0.1" stroke-miterlimit="10" pointer-events="all"/></g><g><path d="M 458.59 51.2 L 458.59 49.11 C 458.59 48.82 459.29 48.59 460.16 48.59 C 461.03 48.59 461.73 48.82 461.73 49.11 L 461.73 51.2 C 461.73 51.49 461.03 51.73 460.16 51.73 C 459.29 51.73 458.59 51.49 458.59 51.2 Z" fill="none" stroke="#222222" stroke-width="0.1" stroke-miterlimit="10" pointer-events="all"/><path d="M 458.59 49.11 C 458.59 49.4 459.29 49.63 460.16 49.63 C 461.03 49.63 461.73 49.4 461.73 49.11" fill="none" stroke="#222222" stroke-width="0.1" stroke-miterlimit="10" pointer-events="all"/></g><g><rect x="355.97" y="34.97" width="80.63" height="19.9" fill="#333333" stroke="none" pointer-events="all"/></g><g><rect x="421.94" y="37.59" width="4.19" height="14.66" fill="#2d2d2d" stroke="none" pointer-events="all"/></g><g><rect x="362.25" y="37.59" width="4.19" height="14.66" fill="#2d2d2d" stroke="none" pointer-events="all"/></g><g><rect x="366.44" y="37.59" width="55.5" height="2.09" fill="#222222" stroke="none" pointer-events="all"/></g><g><rect x="366.44" y="41.78" width="55.5" height="2.09" fill="#222222" stroke="none" pointer-events="all"/></g><g><rect x="366.44" y="45.97" width="55.5" height="2.09" fill="#222222" stroke="none" pointer-events="all"/></g><g><rect x="366.44" y="50.16" width="55.5" height="2.09" fill="#222222" stroke="none" pointer-events="all"/></g><g><rect x="383.2" y="37.59" width="2.09" height="14.66" fill="#2d2d2d" stroke="none" pointer-events="all"/></g><g><rect x="403.09" y="37.59" width="2.09" height="14.66" fill="#2d2d2d" stroke="none" pointer-events="all"/></g><g><rect x="366.44" y="48.06" width="55.5" height="2.09" fill="#333333" stroke="none" pointer-events="all"/></g><g><rect x="366.44" y="43.87" width="55.5" height="2.09" fill="#333333" stroke="none" pointer-events="all"/></g><g><rect x="366.44" y="39.68" width="55.5" height="2.09" fill="#333333" stroke="none" pointer-events="all"/></g><g/><g><rect x="19.83" y="2.65" width="109.95" height="26.18" fill="#333333" stroke="none" pointer-events="all"/></g><g><rect x="22.97" y="5.79" width="101.57" height="19.9" fill="#222222" stroke="#222222" stroke-width="0.5" pointer-events="all"/></g><g><rect x="125.07" y="24.12" width="4.19" height="3.14" rx="0.47" ry="0.47" fill="#60a917" stroke="#222222" stroke-width="0.1" transform="rotate(90,127.16,25.69)" pointer-events="all"/></g><g><rect x="125.07" y="14.69" width="4.19" height="3.14" rx="0.47" ry="0.47" fill="#0050ef" stroke="#222222" stroke-width="0.1" transform="rotate(90,127.16,16.26)" pointer-events="all"/></g><g><rect x="98.37" y="8.93" width="8.38" height="13.61" rx="1.26" ry="1.26" fill="#0050ef" stroke="none" pointer-events="all"/></g><g><path d="M 105.7 8.93 Q 108.84 8.93 108.84 15.74 Q 108.84 22.55 105.7 22.55 Z" fill="#0050ef" stroke="none" pointer-events="all"/></g><g><path d="M 127.16 11.52 C 127.25 11.52 127.32 11.45 127.32 11.36 L 127.32 10.74 C 127.32 10.65 127.26 10.58 127.17 10.58 C 127.08 10.58 127.01 10.65 127.01 10.72 L 127.01 11.37 C 127.01 11.45 127.08 11.52 127.16 11.52 Z M 127.16 12.53 C 127.66 12.53 128.07 12.13 128.07 11.63 C 128.07 11.38 127.98 11.1 127.71 10.9 C 127.66 10.86 127.55 10.88 127.51 10.94 C 127.46 11 127.46 11.09 127.53 11.16 C 127.67 11.27 127.76 11.44 127.76 11.61 C 127.76 11.96 127.47 12.21 127.17 12.21 C 126.88 12.21 126.59 12 126.57 11.62 C 126.57 11.47 126.65 11.26 126.81 11.15 C 126.86 11.11 126.88 11.01 126.82 10.94 C 126.75 10.86 126.66 10.87 126.61 10.9 C 126.38 11.1 126.27 11.31 126.26 11.6 C 126.26 12.15 126.68 12.53 127.16 12.53 Z M 127.16 13.12 C 126.27 13.12 125.59 12.4 125.59 11.55 C 125.59 10.69 126.3 9.98 127.18 9.98 C 127.99 9.98 128.73 10.64 128.73 11.54 C 128.73 12.49 127.98 13.12 127.16 13.12 Z" fill="none" stroke="#222222" stroke-width="0.1" stroke-miterlimit="10" pointer-events="all"/></g><g><path d="M 125.59 22.02 L 125.59 19.93 C 125.59 19.64 126.3 19.41 127.16 19.41 C 128.03 19.41 128.73 19.64 128.73 19.93 L 128.73 22.02 C 128.73 22.31 128.03 22.55 127.16 22.55 C 126.3 22.55 125.59 22.31 125.59 22.02 Z" fill="none" stroke="#222222" stroke-width="0.1" stroke-miterlimit="10" pointer-events="all"/><path d="M 125.59 19.93 C 125.59 20.22 126.3 20.45 127.16 20.45 C 128.03 20.45 128.73 20.22 128.73 19.93" fill="none" stroke="#222222" stroke-width="0.1" stroke-miterlimit="10" pointer-events="all"/></g><g><rect x="22.97" y="5.79" width="80.63" height="19.9" fill="#333333" stroke="none" pointer-events="all"/></g><g><rect x="88.94" y="8.41" width="4.19" height="14.66" fill="#2d2d2d" stroke="none" pointer-events="all"/></g><g><rect x="29.25" y="8.41" width="4.19" height="14.66" fill="#2d2d2d" stroke="none" pointer-events="all"/></g><g><rect x="33.44" y="8.41" width="55.5" height="2.09" fill="#222222" stroke="none" pointer-events="all"/></g><g><rect x="33.44" y="12.6" width="55.5" height="2.09" fill="#222222" stroke="none" pointer-events="all"/></g><g><rect x="33.44" y="16.79" width="55.5" height="2.09" fill="#222222" stroke="none" pointer-events="all"/></g><g><rect x="33.44" y="20.98" width="55.5" height="2.09" fill="#222222" stroke="none" pointer-events="all"/></g><g><rect x="50.2" y="8.41" width="2.09" height="14.66" fill="#2d2d2d" stroke="none" pointer-events="all"/></g><g><rect x="70.09" y="8.41" width="2.09" height="14.66" fill="#2d2d2d" stroke="none" pointer-events="all"/></g><g><rect x="33.44" y="18.88" width="55.5" height="2.09" fill="#333333" stroke="none" pointer-events="all"/></g><g><rect x="33.44" y="14.69" width="55.5" height="2.09" fill="#333333" stroke="none" pointer-events="all"/></g><g><rect x="33.44" y="10.5" width="55.5" height="2.09" fill="#333333" stroke="none" pointer-events="all"/></g><g><rect x="130.83" y="2.65" width="109.95" height="26.18" fill="#333333" stroke="none" pointer-events="all"/></g><g><rect x="133.97" y="5.79" width="101.57" height="19.9" fill="#222222" stroke="#222222" stroke-width="0.5" pointer-events="all"/></g><g><rect x="236.07" y="24.12" width="4.19" height="3.14" rx="0.47" ry="0.47" fill="#60a917" stroke="#222222" stroke-width="0.1" transform="rotate(90,238.16,25.69)" pointer-events="all"/></g><g><rect x="236.07" y="14.69" width="4.19" height="3.14" rx="0.47" ry="0.47" fill="#0050ef" stroke="#222222" stroke-width="0.1" transform="rotate(90,238.16,16.26)" pointer-events="all"/></g><g><rect x="209.37" y="8.93" width="8.38" height="13.61" rx="1.26" ry="1.26" fill="#0050ef" stroke="none" pointer-events="all"/></g><g><path d="M 216.7 8.93 Q 219.84 8.93 219.84 15.74 Q 219.84 22.55 216.7 22.55 Z" fill="#0050ef" stroke="none" pointer-events="all"/></g><g><path d="M 238.16 11.52 C 238.25 11.52 238.32 11.45 238.32 11.36 L 238.32 10.74 C 238.32 10.65 238.26 10.58 238.17 10.58 C 238.07 10.58 238.01 10.65 238.01 10.72 L 238.01 11.37 C 238.01 11.45 238.08 11.52 238.16 11.52 Z M 238.16 12.53 C 238.66 12.53 239.07 12.13 239.07 11.63 C 239.07 11.38 238.98 11.1 238.71 10.9 C 238.66 10.86 238.55 10.88 238.51 10.94 C 238.46 11 238.46 11.09 238.53 11.16 C 238.67 11.27 238.76 11.44 238.76 11.61 C 238.76 11.96 238.46 12.21 238.17 12.21 C 237.88 12.21 237.59 12 237.57 11.62 C 237.57 11.47 237.65 11.26 237.81 11.15 C 237.86 11.11 237.88 11.01 237.81 10.94 C 237.75 10.86 237.65 10.87 237.61 10.9 C 237.38 11.1 237.27 11.31 237.26 11.6 C 237.26 12.15 237.68 12.53 238.16 12.53 Z M 238.16 13.12 C 237.27 13.12 236.59 12.4 236.59 11.55 C 236.59 10.69 237.3 9.98 238.18 9.98 C 238.99 9.98 239.73 10.64 239.73 11.54 C 239.73 12.49 238.98 13.12 238.16 13.12 Z" fill="none" stroke="#222222" stroke-width="0.1" stroke-miterlimit="10" pointer-events="all"/></g><g><path d="M 236.59 22.02 L 236.59 19.93 C 236.59 19.64 237.3 19.41 238.16 19.41 C 239.03 19.41 239.73 19.64 239.73 19.93 L 239.73 22.02 C 239.73 22.31 239.03 22.55 238.16 22.55 C 237.3 22.55 236.59 22.31 236.59 22.02 Z" fill="none" stroke="#222222" stroke-width="0.1" stroke-miterlimit="10" pointer-events="all"/><path d="M 236.59 19.93 C 236.59 20.22 237.3 20.45 238.16 20.45 C 239.03 20.45 239.73 20.22 239.73 19.93" fill="none" stroke="#222222" stroke-width="0.1" stroke-miterlimit="10" pointer-events="all"/></g><g><rect x="133.97" y="5.79" width="80.63" height="19.9" fill="#333333" stroke="none" pointer-events="all"/></g><g><rect x="199.94" y="8.41" width="4.19" height="14.66" fill="#2d2d2d" stroke="none" pointer-events="all"/></g><g><rect x="140.25" y="8.41" width="4.19" height="14.66" fill="#2d2d2d" stroke="none" pointer-events="all"/></g><g><rect x="144.44" y="8.41" width="55.5" height="2.09" fill="#222222" stroke="none" pointer-events="all"/></g><g><rect x="144.44" y="12.6" width="55.5" height="2.09" fill="#222222" stroke="none" pointer-events="all"/></g><g><rect x="144.44" y="16.79" width="55.5" height="2.09" fill="#222222" stroke="none" pointer-events="all"/></g><g><rect x="144.44" y="20.98" width="55.5" height="2.09" fill="#222222" stroke="none" pointer-events="all"/></g><g><rect x="161.2" y="8.41" width="2.09" height="14.66" fill="#2d2d2d" stroke="none" pointer-events="all"/></g><g><rect x="181.09" y="8.41" width="2.09" height="14.66" fill="#2d2d2d" stroke="none" pointer-events="all"/></g><g><rect x="144.44" y="18.88" width="55.5" height="2.09" fill="#333333" stroke="none" pointer-events="all"/></g><g><rect x="144.44" y="14.69" width="55.5" height="2.09" fill="#333333" stroke="none" pointer-events="all"/></g><g><rect x="144.44" y="10.5" width="55.5" height="2.09" fill="#333333" stroke="none" pointer-events="all"/></g><g><rect x="241.83" y="2.65" width="109.95" height="26.18" fill="#333333" stroke="none" pointer-events="all"/></g><g><rect x="244.97" y="5.79" width="101.57" height="19.9" fill="#222222" stroke="#222222" stroke-width="0.5" pointer-events="all"/></g><g><rect x="347.07" y="24.12" width="4.19" height="3.14" rx="0.47" ry="0.47" fill="#60a917" stroke="#222222" stroke-width="0.1" transform="rotate(90,349.16,25.69)" pointer-events="all"/></g><g><rect x="347.07" y="14.69" width="4.19" height="3.14" rx="0.47" ry="0.47" fill="#0050ef" stroke="#222222" stroke-width="0.1" transform="rotate(90,349.16,16.26)" pointer-events="all"/></g><g><rect x="320.37" y="8.93" width="8.38" height="13.61" rx="1.26" ry="1.26" fill="#0050ef" stroke="none" pointer-events="all"/></g><g><path d="M 327.7 8.93 Q 330.84 8.93 330.84 15.74 Q 330.84 22.55 327.7 22.55 Z" fill="#0050ef" stroke="none" pointer-events="all"/></g><g><path d="M 349.16 11.52 C 349.25 11.52 349.32 11.45 349.32 11.36 L 349.32 10.74 C 349.32 10.65 349.26 10.58 349.17 10.58 C 349.07 10.58 349.01 10.65 349.01 10.72 L 349.01 11.37 C 349.01 11.45 349.08 11.52 349.16 11.52 Z M 349.16 12.53 C 349.66 12.53 350.07 12.13 350.07 11.63 C 350.07 11.38 349.98 11.1 349.71 10.9 C 349.66 10.86 349.55 10.88 349.51 10.94 C 349.46 11 349.46 11.09 349.53 11.16 C 349.67 11.27 349.76 11.44 349.76 11.61 C 349.76 11.96 349.46 12.21 349.17 12.21 C 348.88 12.21 348.59 12 348.57 11.62 C 348.57 11.47 348.65 11.26 348.8 11.15 C 348.86 11.11 348.88 11.01 348.81 10.94 C 348.75 10.86 348.65 10.87 348.61 10.9 C 348.38 11.1 348.27 11.31 348.26 11.6 C 348.26 12.15 348.68 12.53 349.16 12.53 Z M 349.16 13.12 C 348.27 13.12 347.59 12.4 347.59 11.55 C 347.59 10.69 348.29 9.98 349.18 9.98 C 349.99 9.98 350.73 10.64 350.73 11.54 C 350.73 12.49 349.98 13.12 349.16 13.12 Z" fill="none" stroke="#222222" stroke-width="0.1" stroke-miterlimit="10" pointer-events="all"/></g><g><path d="M 347.59 22.02 L 347.59 19.93 C 347.59 19.64 348.3 19.41 349.16 19.41 C 350.03 19.41 350.73 19.64 350.73 19.93 L 350.73 22.02 C 350.73 22.31 350.03 22.55 349.16 22.55 C 348.3 22.55 347.59 22.31 347.59 22.02 Z" fill="none" stroke="#222222" stroke-width="0.1" stroke-miterlimit="10" pointer-events="all"/><path d="M 347.59 19.93 C 347.59 20.22 348.3 20.45 349.16 20.45 C 350.03 20.45 350.73 20.22 350.73 19.93" fill="none" stroke="#222222" stroke-width="0.1" stroke-miterlimit="10" pointer-events="all"/></g><g><rect x="244.97" y="5.79" width="80.63" height="19.9" fill="#333333" stroke="none" pointer-events="all"/></g><g><rect x="310.94" y="8.41" width="4.19" height="14.66" fill="#2d2d2d" stroke="none" pointer-events="all"/></g><g><rect x="251.25" y="8.41" width="4.19" height="14.66" fill="#2d2d2d" stroke="none" pointer-events="all"/></g><g><rect x="255.44" y="8.41" width="55.5" height="2.09" fill="#222222" stroke="none" pointer-events="all"/></g><g><rect x="255.44" y="12.6" width="55.5" height="2.09" fill="#222222" stroke="none" pointer-events="all"/></g><g><rect x="255.44" y="16.79" width="55.5" height="2.09" fill="#222222" stroke="none" pointer-events="all"/></g><g><rect x="255.44" y="20.98" width="55.5" height="2.09" fill="#222222" stroke="none" pointer-events="all"/></g><g><rect x="272.2" y="8.41" width="2.09" height="14.66" fill="#2d2d2d" stroke="none" pointer-events="all"/></g><g><rect x="292.09" y="8.41" width="2.09" height="14.66" fill="#2d2d2d" stroke="none" pointer-events="all"/></g><g><rect x="255.44" y="18.88" width="55.5" height="2.09" fill="#333333" stroke="none" pointer-events="all"/></g><g><rect x="255.44" y="14.69" width="55.5" height="2.09" fill="#333333" stroke="none" pointer-events="all"/></g><g><rect x="255.44" y="10.5" width="55.5" height="2.09" fill="#333333" stroke="none" pointer-events="all"/></g><g><rect x="352.83" y="2.65" width="109.95" height="26.18" fill="#333333" stroke="none" pointer-events="all"/></g><g><rect x="355.97" y="5.79" width="101.57" height="19.9" fill="#222222" stroke="#222222" stroke-width="0.5" pointer-events="all"/></g><g><rect x="458.07" y="24.12" width="4.19" height="3.14" rx="0.47" ry="0.47" fill="#60a917" stroke="#222222" stroke-width="0.1" transform="rotate(90,460.16,25.69)" pointer-events="all"/></g><g><rect x="458.07" y="14.69" width="4.19" height="3.14" rx="0.47" ry="0.47" fill="#0050ef" stroke="#222222" stroke-width="0.1" transform="rotate(90,460.16,16.26)" pointer-events="all"/></g><g><rect x="431.37" y="8.93" width="8.38" height="13.61" rx="1.26" ry="1.26" fill="#0050ef" stroke="none" pointer-events="all"/></g><g><path d="M 438.7 8.93 Q 441.84 8.93 441.84 15.74 Q 441.84 22.55 438.7 22.55 Z" fill="#0050ef" stroke="none" pointer-events="all"/></g><g><path d="M 460.16 11.52 C 460.25 11.52 460.32 11.45 460.32 11.36 L 460.32 10.74 C 460.32 10.65 460.26 10.58 460.17 10.58 C 460.07 10.58 460.01 10.65 460.01 10.72 L 460.01 11.37 C 460.01 11.45 460.08 11.52 460.16 11.52 Z M 460.16 12.53 C 460.66 12.53 461.07 12.13 461.07 11.63 C 461.07 11.38 460.98 11.1 460.7 10.9 C 460.65 10.86 460.55 10.88 460.51 10.94 C 460.46 11 460.46 11.09 460.53 11.16 C 460.67 11.27 460.76 11.44 460.76 11.61 C 460.76 11.96 460.46 12.21 460.17 12.21 C 459.88 12.21 459.59 12 459.57 11.62 C 459.57 11.47 459.65 11.26 459.8 11.15 C 459.86 11.11 459.88 11.01 459.81 10.94 C 459.75 10.86 459.65 10.87 459.61 10.9 C 459.38 11.1 459.27 11.31 459.26 11.6 C 459.26 12.15 459.68 12.53 460.16 12.53 Z M 460.16 13.12 C 459.27 13.12 458.59 12.4 458.59 11.55 C 458.59 10.69 459.29 9.98 460.18 9.98 C 460.99 9.98 461.73 10.64 461.73 11.54 C 461.73 12.49 460.98 13.12 460.16 13.12 Z" fill="none" stroke="#222222" stroke-width="0.1" stroke-miterlimit="10" pointer-events="all"/></g><g><path d="M 458.59 22.02 L 458.59 19.93 C 458.59 19.64 459.29 19.41 460.16 19.41 C 461.03 19.41 461.73 19.64 461.73 19.93 L 461.73 22.02 C 461.73 22.31 461.03 22.55 460.16 22.55 C 459.29 22.55 458.59 22.31 458.59 22.02 Z" fill="none" stroke="#222222" stroke-width="0.1" stroke-miterlimit="10" pointer-events="all"/><path d="M 458.59 19.93 C 458.59 20.22 459.29 20.45 460.16 20.45 C 461.03 20.45 461.73 20.22 461.73 19.93" fill="none" stroke="#222222" stroke-width="0.1" stroke-miterlimit="10" pointer-events="all"/></g><g><rect x="355.97" y="5.79" width="80.63" height="19.9" fill="#333333" stroke="none" pointer-events="all"/></g><g><rect x="421.94" y="8.41" width="4.19" height="14.66" fill="#2d2d2d" stroke="none" pointer-events="all"/></g><g><rect x="362.25" y="8.41" width="4.19" height="14.66" fill="#2d2d2d" stroke="none" pointer-events="all"/></g><g><rect x="366.44" y="8.41" width="55.5" height="2.09" fill="#222222" stroke="none" pointer-events="all"/></g><g><rect x="366.44" y="12.6" width="55.5" height="2.09" fill="#222222" stroke="none" pointer-events="all"/></g><g><rect x="366.44" y="16.79" width="55.5" height="2.09" fill="#222222" stroke="none" pointer-events="all"/></g><g><rect x="366.44" y="20.98" width="55.5" height="2.09" fill="#222222" stroke="none" pointer-events="all"/></g><g><rect x="383.2" y="8.41" width="2.09" height="14.66" fill="#2d2d2d" stroke="none" pointer-events="all"/></g><g><rect x="403.09" y="8.41" width="2.09" height="14.66" fill="#2d2d2d" stroke="none" pointer-events="all"/></g><g><rect x="366.44" y="18.88" width="55.5" height="2.09" fill="#333333" stroke="none" pointer-events="all"/></g><g><rect x="366.44" y="14.69" width="55.5" height="2.09" fill="#333333" stroke="none" pointer-events="all"/></g><g><rect x="366.44" y="10.5" width="55.5" height="2.09" fill="#333333" stroke="none" pointer-events="all"/></g><g><rect x="8" y="44.45" width="10" height="44.45" fill="#bfbfbf" stroke="#aaaaaa" pointer-events="all"/></g><g/><g><rect x="471.6" y="63.68" width="4" height="6" fill="#000000" stroke="none" pointer-events="all"/></g><g><ellipse cx="475.6" cy="66.68" rx="3" ry="3" fill="#000000" stroke="none" pointer-events="all"/></g><g><ellipse cx="471.6" cy="66.68" rx="3" ry="3" fill="#000000" stroke="none" pointer-events="all"/></g><g><rect x="464.6" y="44.45" width="10" height="44.45" fill="#bfbfbf" stroke="#aaaaaa" pointer-events="all"/></g><g><rect x="0" y="0" width="18" height="44.45" fill="#bfbfbf" stroke="#aaaaaa" pointer-events="all"/></g><g><rect x="464.6" y="0" width="18" height="44.45" fill="#bfbfbf" stroke="#aaaaaa" pointer-events="all"/></g><g><rect x="2" y="7.52" width="6" height="2.76" fill="none" stroke="none" transform="rotate(-90,5,8.9)" pointer-events="all"/><path d="M 3.04 9.03 C 2.97 9.28 2.72 9.45 2.46 9.41 C 2.2 9.37 2 9.15 2 8.89 C 2 8.63 2.2 8.41 2.46 8.37 C 2.72 8.33 2.97 8.49 3.04 8.75 L 3.67 8.75 C 3.74 8.72 3.8 8.66 3.84 8.59 L 4.03 8.23 C 4.14 8.07 4.32 7.95 4.52 7.92 C 4.68 7.9 4.85 7.89 5.02 7.89 C 5.09 7.66 5.31 7.52 5.55 7.56 C 5.79 7.59 5.96 7.79 5.96 8.03 C 5.96 8.26 5.79 8.46 5.55 8.5 C 5.31 8.53 5.09 8.39 5.02 8.17 C 4.84 8.16 4.66 8.18 4.48 8.22 C 4.4 8.25 4.33 8.3 4.28 8.36 L 4.16 8.6 L 4.08 8.75 L 6.94 8.75 L 6.94 8.27 L 8 8.93 L 6.94 9.52 L 6.94 9.03 L 4.75 9.03 C 4.79 9.1 4.83 9.17 4.86 9.25 L 4.98 9.56 C 5.01 9.61 5.05 9.66 5.11 9.68 C 5.18 9.7 5.25 9.71 5.32 9.71 L 5.58 9.71 L 5.58 9.41 L 6.45 9.41 L 6.45 10.28 L 5.58 10.28 L 5.58 10 C 5.41 10.02 5.23 10.01 5.07 9.96 C 4.94 9.93 4.83 9.85 4.76 9.75 L 4.66 9.53 L 4.54 9.22 C 4.49 9.11 4.39 9.03 4.26 9.03 Z" fill="#000000" stroke="none" transform="rotate(-90,5,8.9)" pointer-events="all"/></g><g><rect x="2" y="34.18" width="6" height="2.76" fill="none" stroke="none" transform="rotate(-90,5,35.56)" pointer-events="all"/><path d="M 3.04 35.69 C 2.97 35.94 2.72 36.11 2.46 36.07 C 2.2 36.03 2 35.81 2 35.55 C 2 35.29 2.2 35.07 2.46 35.03 C 2.72 34.99 2.97 35.15 3.04 35.41 L 3.67 35.41 C 3.74 35.38 3.8 35.32 3.84 35.25 L 4.03 34.89 C 4.14 34.73 4.32 34.61 4.52 34.58 C 4.68 34.56 4.85 34.55 5.02 34.55 C 5.09 34.32 5.31 34.18 5.55 34.22 C 5.79 34.25 5.96 34.45 5.96 34.69 C 5.96 34.92 5.79 35.12 5.55 35.16 C 5.31 35.19 5.09 35.05 5.02 34.83 C 4.84 34.82 4.66 34.84 4.48 34.88 C 4.4 34.91 4.33 34.96 4.28 35.02 L 4.16 35.26 L 4.08 35.41 L 6.94 35.41 L 6.94 34.93 L 8 35.59 L 6.94 36.18 L 6.94 35.69 L 4.75 35.69 C 4.79 35.76 4.83 35.83 4.86 35.91 L 4.98 36.22 C 5.01 36.27 5.05 36.32 5.11 36.34 C 5.18 36.36 5.25 36.37 5.32 36.37 L 5.58 36.37 L 5.58 36.07 L 6.45 36.07 L 6.45 36.94 L 5.58 36.94 L 5.58 36.66 C 5.41 36.68 5.23 36.67 5.07 36.62 C 4.94 36.59 4.83 36.51 4.76 36.41 L 4.66 36.19 L 4.54 35.88 C 4.49 35.77 4.39 35.69 4.26 35.69 Z" fill="#000000" stroke="none" transform="rotate(-90,5,35.56)" pointer-events="all"/></g><g/><g><ellipse cx="479.6" cy="24.46" rx="1.5" ry="1.5" fill="#60a917" stroke="none" pointer-events="all"/></g><g><ellipse cx="477.6" cy="30.79" rx="2.5" ry="2.5" fill="#bfbfbf" stroke="#000000" stroke-width="0.2" pointer-events="all"/></g><g><path d="M 472.09 30.78 C 472.18 30.78 472.25 30.72 472.25 30.64 L 472.25 30.04 C 472.25 29.96 472.19 29.88 472.1 29.88 C 472.01 29.88 471.95 29.96 471.95 30.02 L 471.95 30.64 C 471.95 30.72 472.02 30.78 472.09 30.78 Z M 472.1 31.75 C 472.57 31.75 472.97 31.36 472.97 30.89 C 472.97 30.65 472.88 30.38 472.62 30.19 C 472.57 30.15 472.47 30.17 472.43 30.23 C 472.39 30.29 472.38 30.38 472.45 30.44 C 472.58 30.54 472.67 30.71 472.67 30.88 C 472.67 31.2 472.39 31.45 472.11 31.45 C 471.83 31.45 471.55 31.24 471.54 30.88 C 471.53 30.74 471.61 30.53 471.76 30.43 C 471.81 30.39 471.83 30.3 471.77 30.23 C 471.71 30.15 471.61 30.17 471.57 30.2 C 471.35 30.38 471.24 30.58 471.24 30.87 C 471.24 31.39 471.64 31.75 472.1 31.75 Z M 472.1 32.32 C 471.24 32.32 470.6 31.62 470.6 30.81 C 470.6 29.99 471.27 29.32 472.11 29.32 C 472.89 29.32 473.6 29.94 473.6 30.81 C 473.6 31.71 472.88 32.32 472.1 32.32 Z" fill="none" stroke="#000000" stroke-width="0.1" stroke-miterlimit="10" pointer-events="all"/></g><g><path d="M 471.63 38.49 L 471.63 37.99 C 470.99 37.78 470.6 37.18 470.72 36.56 C 470.83 35.94 471.42 35.49 472.1 35.49 C 472.78 35.49 473.37 35.94 473.48 36.56 C 473.6 37.18 473.21 37.78 472.57 37.99 L 472.57 38.49" fill="none" stroke="#000000" stroke-width="0.1" stroke-miterlimit="10" transform="rotate(-180,472.1,36.99)" pointer-events="all"/></g><g><path d="M 466.1 10.46 L 466.1 8.46 C 466.1 8.18 466.77 7.96 467.6 7.96 C 468.43 7.96 469.1 8.18 469.1 8.46 L 469.1 10.46 C 469.1 10.73 468.43 10.96 467.6 10.96 C 466.77 10.96 466.1 10.73 466.1 10.46 Z" fill="none" stroke="#000000" stroke-width="0.1" stroke-miterlimit="10" pointer-events="all"/><path d="M 466.1 8.46 C 466.1 8.73 466.77 8.96 467.6 8.96 C 468.43 8.96 469.1 8.73 469.1 8.46" fill="none" stroke="#000000" stroke-width="0.1" stroke-miterlimit="10" pointer-events="all"/></g><g><rect x="470.1" y="10.96" width="3" height="3" fill="none" stroke="none" pointer-events="all"/><path d="M 471.29 10.96 L 471.29 11.59 L 471.54 11.59 L 471.54 12.18 L 470.39 12.18 C 470.38 12.18 470.37 12.18 470.35 12.2 C 470.34 12.21 470.34 12.22 470.34 12.24 L 470.34 13.32 L 470.1 13.32 L 470.1 13.95 L 470.72 13.95 L 470.72 13.32 L 470.45 13.32 L 470.45 12.29 L 471.54 12.29 L 471.54 13.07 L 471.29 13.07 L 471.29 13.7 L 471.9 13.7 L 471.9 13.07 L 471.65 13.07 L 471.65 12.29 L 472.74 12.3 L 472.74 13.32 L 472.48 13.32 L 472.48 13.96 L 473.1 13.96 L 473.1 13.32 L 472.85 13.32 L 472.85 12.24 C 472.85 12.22 472.85 12.21 472.84 12.2 C 472.83 12.19 472.81 12.18 472.8 12.18 L 471.65 12.18 L 471.65 11.59 L 471.9 11.59 L 471.9 10.96 Z" fill="#000000" stroke="none" pointer-events="all"/></g><g><path d="M 466.1 19.96 L 469.1 21.46 L 466.1 22.96 Z" fill="none" stroke="#000000" stroke-width="0.1" stroke-miterlimit="10" transform="rotate(-90,467.6,21.46)" pointer-events="all"/></g><g><ellipse cx="477.6" cy="37.49" rx="2" ry="2" fill="#bfbfbf" stroke="#000000" stroke-width="0.2" pointer-events="all"/></g><g><ellipse cx="479.6" cy="18.46" rx="1.5" ry="1.5" fill="#60a917" stroke="none" pointer-events="all"/></g><g><ellipse cx="475.6" cy="21.46" rx="1.5" ry="1.5" fill="#a20025" stroke="none" pointer-events="all"/></g><g><ellipse cx="475.6" cy="15.46" rx="1.5" ry="1.5" fill="#a20025" stroke="none" pointer-events="all"/></g><g><ellipse cx="479.6" cy="12.46" rx="1.5" ry="1.5" fill="#60a917" stroke="none" pointer-events="all"/></g><g><ellipse cx="475.6" cy="9.46" rx="1.5" ry="1.5" fill="#0050ef" stroke="none" pointer-events="all"/></g><g><ellipse cx="479.6" cy="6.46" rx="1.5" ry="1.5" fill="#60a917" stroke="none" pointer-events="all"/></g><g><path d="M 471.59 6.42 C 471.68 6.42 471.75 6.36 471.75 6.28 L 471.75 5.68 C 471.75 5.6 471.69 5.52 471.6 5.52 C 471.51 5.52 471.45 5.6 471.45 5.66 L 471.45 6.28 C 471.45 6.36 471.52 6.42 471.59 6.42 Z M 471.6 7.39 C 472.07 7.39 472.47 7 472.47 6.53 C 472.47 6.29 472.38 6.02 472.12 5.83 C 472.07 5.79 471.97 5.81 471.93 5.87 C 471.89 5.93 471.88 6.02 471.95 6.08 C 472.08 6.18 472.17 6.35 472.17 6.52 C 472.17 6.84 471.89 7.09 471.61 7.09 C 471.33 7.09 471.05 6.88 471.04 6.52 C 471.03 6.38 471.11 6.17 471.26 6.07 C 471.31 6.03 471.33 5.94 471.27 5.87 C 471.21 5.79 471.11 5.81 471.07 5.84 C 470.85 6.02 470.74 6.22 470.74 6.51 C 470.74 7.03 471.14 7.39 471.6 7.39 Z M 471.6 7.96 C 470.74 7.96 470.1 7.26 470.1 6.45 C 470.1 5.63 470.77 4.96 471.61 4.96 C 472.39 4.96 473.1 5.58 473.1 6.45 C 473.1 7.35 472.38 7.96 471.6 7.96 Z" fill="none" stroke="#000000" stroke-width="0.1" stroke-miterlimit="10" pointer-events="all"/></g><g><rect x="470.1" y="16.96" width="3" height="3" fill="none" stroke="none" pointer-events="all"/><path d="M 471.29 16.96 L 471.29 17.59 L 471.54 17.59 L 471.54 18.18 L 470.39 18.18 C 470.38 18.18 470.37 18.18 470.35 18.2 C 470.34 18.21 470.34 18.22 470.34 18.24 L 470.34 19.32 L 470.1 19.32 L 470.1 19.95 L 470.72 19.95 L 470.72 19.32 L 470.45 19.32 L 470.45 18.29 L 471.54 18.29 L 471.54 19.07 L 471.29 19.07 L 471.29 19.7 L 471.9 19.7 L 471.9 19.07 L 471.65 19.07 L 471.65 18.29 L 472.74 18.3 L 472.74 19.32 L 472.48 19.32 L 472.48 19.96 L 473.1 19.96 L 473.1 19.32 L 472.85 19.32 L 472.85 18.24 C 472.85 18.22 472.85 18.21 472.84 18.2 C 472.83 18.19 472.81 18.18 472.8 18.18 L 471.65 18.18 L 471.65 17.59 L 471.9 17.59 L 471.9 16.96 Z" fill="#000000" stroke="none" pointer-events="all"/></g><g><rect x="470.1" y="22.96" width="3" height="3" fill="none" stroke="none" pointer-events="all"/><path d="M 471.29 22.96 L 471.29 23.59 L 471.54 23.59 L 471.54 24.18 L 470.39 24.18 C 470.38 24.18 470.37 24.18 470.35 24.2 C 470.34 24.21 470.34 24.22 470.34 24.24 L 470.34 25.32 L 470.1 25.32 L 470.1 25.95 L 470.72 25.95 L 470.72 25.32 L 470.45 25.32 L 470.45 24.29 L 471.54 24.29 L 471.54 25.07 L 471.29 25.07 L 471.29 25.7 L 471.9 25.7 L 471.9 25.07 L 471.65 25.07 L 471.65 24.29 L 472.74 24.3 L 472.74 25.32 L 472.48 25.32 L 472.48 25.96 L 473.1 25.96 L 473.1 25.32 L 472.85 25.32 L 472.85 24.24 C 472.85 24.22 472.85 24.21 472.84 24.2 C 472.83 24.19 472.81 24.18 472.8 24.18 L 471.65 24.18 L 471.65 23.59 L 471.9 23.59 L 471.9 22.96 Z" fill="#000000" stroke="none" pointer-events="all"/></g><g><rect x="466.1" y="13.96" width="3" height="3" fill="none" stroke="none" pointer-events="all"/><path d="M 466.25 16.96 C 466.17 16.96 466.1 16.85 466.1 16.72 L 466.1 14.2 C 466.1 14.14 466.12 14.08 466.14 14.03 C 466.17 13.99 466.21 13.96 466.25 13.96 L 468.95 13.96 C 468.99 13.96 469.03 13.99 469.06 14.03 C 469.08 14.08 469.1 14.14 469.1 14.2 L 469.1 16.72 C 469.1 16.78 469.08 16.84 469.06 16.89 C 469.03 16.93 468.99 16.96 468.95 16.96 Z M 466.9 15.7 L 467.21 14.56 C 467.23 14.52 467.26 14.5 467.29 14.5 C 467.32 14.5 467.35 14.52 467.37 14.56 L 467.76 15.95 L 468.03 15.15 C 468.06 15.1 468.1 15.07 468.14 15.07 L 468.76 15.07 L 468.76 15.37 L 468.17 15.37 L 467.83 16.36 C 467.81 16.4 467.78 16.42 467.76 16.42 C 467.73 16.42 467.7 16.4 467.68 16.36 L 467.29 14.99 L 467.04 15.9 C 467.02 15.95 466.98 15.98 466.94 15.99 L 466.45 15.99 L 466.45 15.7 Z M 466.3 16.63 L 468.9 16.63 L 468.9 14.27 L 466.3 14.27 Z M 467.51 16.7 L 467.51 16.83 L 467.69 16.83 L 467.69 16.7 Z" fill="#000000" stroke="none" pointer-events="all"/></g></g></svg>