<?xml version="1.0" encoding="UTF-8"?>
<!DOCTYPE svg PUBLIC "-//W3C//DTD SVG 1.1//EN" "http://www.w3.org/Graphics/SVG/1.1/DTD/svg11.dtd">
<svg xmlns="http://www.w3.org/2000/svg" xmlns:xlink="http://www.w3.org/1999/xlink" version="1.1" width="4836px" height="900px" viewBox="-0.5 -0.5 4836 900"><defs/><g><g/><g><rect x="0" y="0" width="4826" height="889" fill="#bfbfbf" stroke="#aaaaaa" stroke-width="10" pointer-events="all"/></g><g><rect x="180" y="0" width="4466" height="889" fill="#222222" stroke="#aaaaaa" stroke-width="10" pointer-events="all"/></g><g/><g/><g><rect x="70.04" y="669.5" width="40" height="60" fill="#000000" stroke="none" pointer-events="all"/></g><g><ellipse cx="110.04" cy="699.5" rx="30" ry="30" fill="#000000" stroke="none" pointer-events="all"/></g><g><ellipse cx="70.04" cy="699.5" rx="30" ry="30" fill="#000000" stroke="none" pointer-events="all"/></g><g/><g><rect x="70" y="160.5" width="40" height="60" fill="#000000" stroke="none" pointer-events="all"/></g><g><ellipse cx="110" cy="190.5" rx="30" ry="30" fill="#000000" stroke="none" pointer-events="all"/></g><g><ellipse cx="70" cy="190.5" rx="30" ry="30" fill="#000000" stroke="none" pointer-events="all"/></g><g><rect x="80" y="60" width="100" height="770" fill="#bfbfbf" stroke="#aaaaaa" stroke-width="10" pointer-events="all"/></g><g/><g/><g><rect x="4715.96" y="669.5" width="40" height="60" fill="#000000" stroke="none" pointer-events="all"/></g><g><ellipse cx="4755.96" cy="699.5" rx="30" ry="30" fill="#000000" stroke="none" pointer-events="all"/></g><g><ellipse cx="4715.96" cy="699.5" rx="30" ry="30" fill="#000000" stroke="none" pointer-events="all"/></g><g/><g><rect x="4716" y="160.5" width="40" height="60" fill="#000000" stroke="none" pointer-events="all"/></g><g><ellipse cx="4756" cy="190.5" rx="30" ry="30" fill="#000000" stroke="none" pointer-events="all"/></g><g><ellipse cx="4716" cy="190.5" rx="30" ry="30" fill="#000000" stroke="none" pointer-events="all"/></g><g><rect x="4646" y="60" width="100" height="770" fill="#bfbfbf" stroke="#aaaaaa" stroke-width="10" pointer-events="all"/></g><g><rect x="198.3" y="602.74" width="1099.52" height="261.79" fill="#333333" stroke="none" pointer-events="all"/></g><g><rect x="229.71" y="634.15" width="1015.75" height="198.96" fill="#222222" stroke="#222222" stroke-width="5" pointer-events="all"/></g><g><rect x="1250.7" y="817.41" width="41.89" height="31.41" rx="4.71" ry="4.71" fill="#60a917" stroke="#222222" transform="rotate(90,1271.64,833.11)" pointer-events="all"/></g><g><rect x="1250.7" y="723.16" width="41.89" height="31.41" rx="4.71" ry="4.71" fill="#0050ef" stroke="#222222" transform="rotate(90,1271.64,738.87)" pointer-events="all"/></g><g><rect x="983.67" y="665.57" width="83.77" height="136.13" rx="12.57" ry="12.57" fill="#0050ef" stroke="none" pointer-events="all"/></g><g><path d="M 1056.97 665.57 Q 1088.39 665.57 1088.39 733.63 Q 1088.39 801.7 1056.97 801.7 Z" fill="#0050ef" stroke="none" pointer-events="all"/></g><g><path d="M 1271.58 691.4 C 1272.51 691.4 1273.18 690.74 1273.18 689.87 L 1273.18 683.58 C 1273.18 682.76 1272.62 682 1271.69 682 C 1270.75 682 1270.1 682.75 1270.1 683.43 L 1270.1 689.88 C 1270.1 690.73 1270.83 691.4 1271.58 691.4 Z M 1271.59 701.5 C 1276.59 701.5 1280.72 697.49 1280.72 692.53 C 1280.72 690.03 1279.82 687.23 1277.07 685.2 C 1276.56 684.81 1275.54 685.01 1275.07 685.63 C 1274.65 686.25 1274.62 687.15 1275.31 687.81 C 1276.68 688.9 1277.58 690.61 1277.58 692.37 C 1277.58 695.8 1274.65 698.34 1271.71 698.34 C 1268.82 698.34 1265.93 696.24 1265.73 692.47 C 1265.69 690.95 1266.54 688.79 1268.06 687.73 C 1268.58 687.3 1268.79 686.33 1268.15 685.59 C 1267.54 684.81 1266.56 684.94 1266.13 685.27 C 1263.8 687.18 1262.67 689.31 1262.61 692.26 C 1262.61 697.75 1266.79 701.5 1271.59 701.5 Z M 1271.64 707.45 C 1262.69 707.45 1255.93 700.2 1255.93 691.68 C 1255.93 683.13 1262.96 676.04 1271.79 676.04 C 1279.89 676.04 1287.35 682.6 1287.35 691.65 C 1287.35 701.11 1279.79 707.45 1271.64 707.45 Z" fill="none" stroke="#222222" stroke-miterlimit="10" pointer-events="all"/></g><g><path d="M 1255.93 796.46 L 1255.93 775.52 C 1255.93 772.63 1262.97 770.28 1271.64 770.28 C 1280.32 770.28 1287.35 772.63 1287.35 775.52 L 1287.35 796.46 C 1287.35 799.35 1280.32 801.7 1271.64 801.7 C 1262.97 801.7 1255.93 799.35 1255.93 796.46 Z" fill="none" stroke="#222222" stroke-miterlimit="10" pointer-events="all"/><path d="M 1255.93 775.52 C 1255.93 778.41 1262.97 780.75 1271.64 780.75 C 1280.32 780.75 1287.35 778.41 1287.35 775.52" fill="none" stroke="#222222" stroke-miterlimit="10" pointer-events="all"/></g><g><rect x="229.71" y="634.15" width="806.32" height="198.96" fill="#333333" stroke="none" pointer-events="all"/></g><g><rect x="889.43" y="660.33" width="41.89" height="146.6" fill="#2d2d2d" stroke="none" pointer-events="all"/></g><g><rect x="292.54" y="660.33" width="41.89" height="146.6" fill="#2d2d2d" stroke="none" pointer-events="all"/></g><g><rect x="334.43" y="660.33" width="555" height="20.94" fill="#222222" stroke="none" pointer-events="all"/></g><g><rect x="334.43" y="702.22" width="555" height="20.94" fill="#222222" stroke="none" pointer-events="all"/></g><g><rect x="334.43" y="744.1" width="555" height="20.94" fill="#222222" stroke="none" pointer-events="all"/></g><g><rect x="334.43" y="785.99" width="555" height="20.94" fill="#222222" stroke="none" pointer-events="all"/></g><g><rect x="501.98" y="660.33" width="20.94" height="146.6" fill="#2d2d2d" stroke="none" pointer-events="all"/></g><g><rect x="700.94" y="660.33" width="20.94" height="146.6" fill="#2d2d2d" stroke="none" pointer-events="all"/></g><g><rect x="334.43" y="765.05" width="555" height="20.94" fill="#333333" stroke="none" pointer-events="all"/></g><g><rect x="334.43" y="723.16" width="555" height="20.94" fill="#333333" stroke="none" pointer-events="all"/></g><g><rect x="334.43" y="681.27" width="555" height="20.94" fill="#333333" stroke="none" pointer-events="all"/></g><g><rect x="1308.29" y="602.74" width="1099.52" height="261.79" fill="#333333" stroke="none" pointer-events="all"/></g><g><rect x="1339.71" y="634.15" width="1015.75" height="198.96" fill="#222222" stroke="#222222" stroke-width="5" pointer-events="all"/></g><g><rect x="2360.69" y="817.41" width="41.89" height="31.41" rx="4.71" ry="4.71" fill="#60a917" stroke="#222222" transform="rotate(90,2381.64,833.11)" pointer-events="all"/></g><g><rect x="2360.69" y="723.16" width="41.89" height="31.41" rx="4.71" ry="4.71" fill="#0050ef" stroke="#222222" transform="rotate(90,2381.64,738.87)" pointer-events="all"/></g><g><rect x="2093.67" y="665.57" width="83.77" height="136.13" rx="12.57" ry="12.57" fill="#0050ef" stroke="none" pointer-events="all"/></g><g><path d="M 2166.97 665.57 Q 2198.38 665.57 2198.38 733.63 Q 2198.38 801.7 2166.97 801.7 Z" fill="#0050ef" stroke="none" pointer-events="all"/></g><g><path d="M 2381.57 691.4 C 2382.51 691.4 2383.17 690.74 2383.17 689.87 L 2383.17 683.58 C 2383.17 682.76 2382.61 682 2381.68 682 C 2380.74 682 2380.09 682.75 2380.09 683.43 L 2380.09 689.88 C 2380.09 690.73 2380.82 691.4 2381.57 691.4 Z M 2381.58 701.5 C 2386.58 701.5 2390.71 697.49 2390.71 692.53 C 2390.71 690.03 2389.81 687.23 2387.06 685.2 C 2386.56 684.81 2385.53 685.01 2385.07 685.63 C 2384.64 686.25 2384.61 687.15 2385.3 687.81 C 2386.67 688.9 2387.57 690.61 2387.57 692.37 C 2387.57 695.8 2384.64 698.34 2381.71 698.34 C 2378.81 698.34 2375.93 696.24 2375.72 692.47 C 2375.68 690.95 2376.54 688.79 2378.05 687.73 C 2378.57 687.3 2378.79 686.33 2378.14 685.59 C 2377.54 684.81 2376.55 684.94 2376.12 685.27 C 2373.79 687.18 2372.67 689.31 2372.6 692.26 C 2372.6 697.75 2376.78 701.5 2381.58 701.5 Z M 2381.63 707.45 C 2372.68 707.45 2365.93 700.2 2365.93 691.68 C 2365.93 683.13 2372.95 676.04 2381.78 676.04 C 2389.89 676.04 2397.34 682.6 2397.34 691.65 C 2397.34 701.11 2389.78 707.45 2381.63 707.45 Z" fill="none" stroke="#222222" stroke-miterlimit="10" pointer-events="all"/></g><g><path d="M 2365.93 796.46 L 2365.93 775.52 C 2365.93 772.63 2372.96 770.28 2381.64 770.28 C 2390.31 770.28 2397.34 772.63 2397.34 775.52 L 2397.34 796.46 C 2397.34 799.35 2390.31 801.7 2381.64 801.7 C 2372.96 801.7 2365.93 799.35 2365.93 796.46 Z" fill="none" stroke="#222222" stroke-miterlimit="10" pointer-events="all"/><path d="M 2365.93 775.52 C 2365.93 778.41 2372.96 780.75 2381.64 780.75 C 2390.31 780.75 2397.34 778.41 2397.34 775.52" fill="none" stroke="#222222" stroke-miterlimit="10" pointer-events="all"/></g><g><rect x="1339.71" y="634.15" width="806.32" height="198.96" fill="#333333" stroke="none" pointer-events="all"/></g><g><rect x="1999.42" y="660.33" width="41.89" height="146.6" fill="#2d2d2d" stroke="none" pointer-events="all"/></g><g><rect x="1402.54" y="660.33" width="41.89" height="146.6" fill="#2d2d2d" stroke="none" pointer-events="all"/></g><g><rect x="1444.42" y="660.33" width="555" height="20.94" fill="#222222" stroke="none" pointer-events="all"/></g><g><rect x="1444.42" y="702.22" width="555" height="20.94" fill="#222222" stroke="none" pointer-events="all"/></g><g><rect x="1444.42" y="744.1" width="555" height="20.94" fill="#222222" stroke="none" pointer-events="all"/></g><g><rect x="1444.42" y="785.99" width="555" height="20.94" fill="#222222" stroke="none" pointer-events="all"/></g><g><rect x="1611.97" y="660.33" width="20.94" height="146.6" fill="#2d2d2d" stroke="none" pointer-events="all"/></g><g><rect x="1810.93" y="660.33" width="20.94" height="146.6" fill="#2d2d2d" stroke="none" pointer-events="all"/></g><g><rect x="1444.42" y="765.05" width="555" height="20.94" fill="#333333" stroke="none" pointer-events="all"/></g><g><rect x="1444.42" y="723.16" width="555" height="20.94" fill="#333333" stroke="none" pointer-events="all"/></g><g><rect x="1444.42" y="681.27" width="555" height="20.94" fill="#333333" stroke="none" pointer-events="all"/></g><g><rect x="2418.29" y="602.74" width="1099.52" height="261.79" fill="#333333" stroke="none" pointer-events="all"/></g><g><rect x="2449.7" y="634.15" width="1015.75" height="198.96" fill="#222222" stroke="#222222" stroke-width="5" pointer-events="all"/></g><g><rect x="3470.68" y="817.41" width="41.89" height="31.41" rx="4.71" ry="4.71" fill="#60a917" stroke="#222222" transform="rotate(90,3491.63,833.11)" pointer-events="all"/></g><g><rect x="3470.68" y="723.16" width="41.89" height="31.41" rx="4.71" ry="4.71" fill="#0050ef" stroke="#222222" transform="rotate(90,3491.63,738.87)" pointer-events="all"/></g><g><rect x="3203.66" y="665.57" width="83.77" height="136.13" rx="12.57" ry="12.57" fill="#0050ef" stroke="none" pointer-events="all"/></g><g><path d="M 3276.96 665.57 Q 3308.37 665.57 3308.37 733.63 Q 3308.37 801.7 3276.96 801.7 Z" fill="#0050ef" stroke="none" pointer-events="all"/></g><g><path d="M 3491.56 691.4 C 3492.5 691.4 3493.16 690.74 3493.16 689.87 L 3493.16 683.58 C 3493.16 682.76 3492.6 682 3491.67 682 C 3490.74 682 3490.09 682.75 3490.09 683.43 L 3490.09 689.88 C 3490.09 690.73 3490.81 691.4 3491.56 691.4 Z M 3491.58 701.5 C 3496.57 701.5 3500.71 697.49 3500.71 692.53 C 3500.71 690.03 3499.81 687.23 3497.06 685.2 C 3496.55 684.81 3495.52 685.01 3495.06 685.63 C 3494.63 686.25 3494.6 687.15 3495.3 687.81 C 3496.66 688.9 3497.56 690.61 3497.56 692.37 C 3497.56 695.8 3494.64 698.34 3491.7 698.34 C 3488.81 698.34 3485.92 696.24 3485.71 692.47 C 3485.67 690.95 3486.53 688.79 3488.05 687.73 C 3488.57 687.3 3488.78 686.33 3488.14 685.59 C 3487.53 684.81 3486.54 684.94 3486.12 685.27 C 3483.78 687.18 3482.66 689.31 3482.6 692.26 C 3482.6 697.75 3486.78 701.5 3491.58 701.5 Z M 3491.62 707.45 C 3482.67 707.45 3475.92 700.2 3475.92 691.68 C 3475.92 683.13 3482.94 676.04 3491.77 676.04 C 3499.88 676.04 3507.34 682.6 3507.34 691.65 C 3507.34 701.11 3499.78 707.45 3491.62 707.45 Z" fill="none" stroke="#222222" stroke-miterlimit="10" pointer-events="all"/></g><g><path d="M 3475.92 796.46 L 3475.92 775.52 C 3475.92 772.63 3482.95 770.28 3491.63 770.28 C 3500.3 770.28 3507.34 772.63 3507.34 775.52 L 3507.34 796.46 C 3507.34 799.35 3500.3 801.7 3491.63 801.7 C 3482.95 801.7 3475.92 799.35 3475.92 796.46 Z" fill="none" stroke="#222222" stroke-miterlimit="10" pointer-events="all"/><path d="M 3475.92 775.52 C 3475.92 778.41 3482.95 780.75 3491.63 780.75 C 3500.3 780.75 3507.34 778.41 3507.34 775.52" fill="none" stroke="#222222" stroke-miterlimit="10" pointer-events="all"/></g><g><rect x="2449.7" y="634.15" width="806.32" height="198.96" fill="#333333" stroke="none" pointer-events="all"/></g><g><rect x="3109.41" y="660.33" width="41.89" height="146.6" fill="#2d2d2d" stroke="none" pointer-events="all"/></g><g><rect x="2512.53" y="660.33" width="41.89" height="146.6" fill="#2d2d2d" stroke="none" pointer-events="all"/></g><g><rect x="2554.42" y="660.33" width="555" height="20.94" fill="#222222" stroke="none" pointer-events="all"/></g><g><rect x="2554.42" y="702.22" width="555" height="20.94" fill="#222222" stroke="none" pointer-events="all"/></g><g><rect x="2554.42" y="744.1" width="555" height="20.94" fill="#222222" stroke="none" pointer-events="all"/></g><g><rect x="2554.42" y="785.99" width="555" height="20.94" fill="#222222" stroke="none" pointer-events="all"/></g><g><rect x="2721.96" y="660.33" width="20.94" height="146.6" fill="#2d2d2d" stroke="none" pointer-events="all"/></g><g><rect x="2920.92" y="660.33" width="20.94" height="146.6" fill="#2d2d2d" stroke="none" pointer-events="all"/></g><g><rect x="2554.42" y="765.05" width="555" height="20.94" fill="#333333" stroke="none" pointer-events="all"/></g><g><rect x="2554.42" y="723.16" width="555" height="20.94" fill="#333333" stroke="none" pointer-events="all"/></g><g><rect x="2554.42" y="681.27" width="555" height="20.94" fill="#333333" stroke="none" pointer-events="all"/></g><g><rect x="3528.28" y="602.74" width="1099.52" height="261.79" fill="#333333" stroke="none" pointer-events="all"/></g><g><rect x="3559.69" y="634.15" width="1015.75" height="198.96" fill="#222222" stroke="#222222" stroke-width="5" pointer-events="all"/></g><g><rect x="4580.68" y="817.41" width="41.89" height="31.41" rx="4.71" ry="4.71" fill="#60a917" stroke="#222222" transform="rotate(90,4601.62,833.11)" pointer-events="all"/></g><g><rect x="4580.68" y="723.16" width="41.89" height="31.41" rx="4.71" ry="4.71" fill="#0050ef" stroke="#222222" transform="rotate(90,4601.62,738.87)" pointer-events="all"/></g><g><rect x="4313.65" y="665.57" width="83.77" height="136.13" rx="12.57" ry="12.57" fill="#0050ef" stroke="none" pointer-events="all"/></g><g><path d="M 4386.95 665.57 Q 4418.37 665.57 4418.37 733.63 Q 4418.37 801.7 4386.95 801.7 Z" fill="#0050ef" stroke="none" pointer-events="all"/></g><g><path d="M 4601.56 691.4 C 4602.49 691.4 4603.15 690.74 4603.15 689.87 L 4603.15 683.58 C 4603.15 682.76 4602.59 682 4601.66 682 C 4600.73 682 4600.08 682.75 4600.08 683.43 L 4600.08 689.88 C 4600.08 690.73 4600.81 691.4 4601.56 691.4 Z M 4601.57 701.5 C 4606.57 701.5 4610.7 697.49 4610.7 692.53 C 4610.7 690.03 4609.8 687.23 4607.05 685.2 C 4606.54 684.81 4605.52 685.01 4605.05 685.63 C 4604.63 686.25 4604.6 687.15 4605.29 687.81 C 4606.66 688.9 4607.55 690.61 4607.55 692.37 C 4607.55 695.8 4604.63 698.34 4601.69 698.34 C 4598.8 698.34 4595.91 696.24 4595.71 692.47 C 4595.66 690.95 4596.52 688.79 4598.04 687.73 C 4598.56 687.3 4598.77 686.33 4598.13 685.59 C 4597.52 684.81 4596.53 684.94 4596.11 685.27 C 4593.77 687.18 4592.65 689.31 4592.59 692.26 C 4592.59 697.75 4596.77 701.5 4601.57 701.5 Z M 4601.61 707.45 C 4592.67 707.45 4585.91 700.2 4585.91 691.68 C 4585.91 683.13 4592.94 676.04 4601.77 676.04 C 4609.87 676.04 4617.33 682.6 4617.33 691.65 C 4617.33 701.11 4609.77 707.45 4601.61 707.45 Z" fill="none" stroke="#222222" stroke-miterlimit="10" pointer-events="all"/></g><g><path d="M 4585.91 796.46 L 4585.91 775.52 C 4585.91 772.63 4592.95 770.28 4601.62 770.28 C 4610.3 770.28 4617.33 772.63 4617.33 775.52 L 4617.33 796.46 C 4617.33 799.35 4610.3 801.7 4601.62 801.7 C 4592.95 801.7 4585.91 799.35 4585.91 796.46 Z" fill="none" stroke="#222222" stroke-miterlimit="10" pointer-events="all"/><path d="M 4585.91 775.52 C 4585.91 778.41 4592.95 780.75 4601.62 780.75 C 4610.3 780.75 4617.33 778.41 4617.33 775.52" fill="none" stroke="#222222" stroke-miterlimit="10" pointer-events="all"/></g><g><rect x="3559.69" y="634.15" width="806.32" height="198.96" fill="#333333" stroke="none" pointer-events="all"/></g><g><rect x="4219.41" y="660.33" width="41.89" height="146.6" fill="#2d2d2d" stroke="none" pointer-events="all"/></g><g><rect x="3622.52" y="660.33" width="41.89" height="146.6" fill="#2d2d2d" stroke="none" pointer-events="all"/></g><g><rect x="3664.41" y="660.33" width="555" height="20.94" fill="#222222" stroke="none" pointer-events="all"/></g><g><rect x="3664.41" y="702.22" width="555" height="20.94" fill="#222222" stroke="none" pointer-events="all"/></g><g><rect x="3664.41" y="744.1" width="555" height="20.94" fill="#222222" stroke="none" pointer-events="all"/></g><g><rect x="3664.41" y="785.99" width="555" height="20.94" fill="#222222" stroke="none" pointer-events="all"/></g><g><rect x="3831.96" y="660.33" width="20.94" height="146.6" fill="#2d2d2d" stroke="none" pointer-events="all"/></g><g><rect x="4030.92" y="660.33" width="20.94" height="146.6" fill="#2d2d2d" stroke="none" pointer-events="all"/></g><g><rect x="3664.41" y="765.05" width="555" height="20.94" fill="#333333" stroke="none" pointer-events="all"/></g><g><rect x="3664.41" y="723.16" width="555" height="20.94" fill="#333333" stroke="none" pointer-events="all"/></g><g><rect x="3664.41" y="681.27" width="555" height="20.94" fill="#333333" stroke="none" pointer-events="all"/></g><g><rect x="198.3" y="320" width="1099.52" height="261.79" fill="#333333" stroke="none" pointer-events="all"/></g><g><rect x="229.71" y="351.42" width="1015.75" height="198.96" fill="#222222" stroke="#222222" stroke-width="5" pointer-events="all"/></g><g><rect x="1250.7" y="534.67" width="41.89" height="31.41" rx="4.71" ry="4.71" fill="#60a917" stroke="#222222" transform="rotate(90,1271.64,550.38)" pointer-events="all"/></g><g><rect x="1250.7" y="440.42" width="41.89" height="31.41" rx="4.71" ry="4.71" fill="#0050ef" stroke="#222222" transform="rotate(90,1271.64,456.13)" pointer-events="all"/></g><g><rect x="983.67" y="382.83" width="83.77" height="136.13" rx="12.57" ry="12.57" fill="#0050ef" stroke="none" pointer-events="all"/></g><g><path d="M 1056.97 382.83 Q 1088.39 382.83 1088.39 450.9 Q 1088.39 518.96 1056.97 518.96 Z" fill="#0050ef" stroke="none" pointer-events="all"/></g><g><path d="M 1271.58 408.66 C 1272.51 408.66 1273.18 408 1273.18 407.13 L 1273.18 400.84 C 1273.18 400.02 1272.62 399.26 1271.69 399.26 C 1270.75 399.26 1270.1 400.01 1270.1 400.7 L 1270.1 407.14 C 1270.1 408 1270.83 408.66 1271.58 408.66 Z M 1271.59 418.77 C 1276.59 418.77 1280.72 414.75 1280.72 409.8 C 1280.72 407.3 1279.82 404.5 1277.07 402.46 C 1276.56 402.07 1275.54 402.28 1275.07 402.89 C 1274.65 403.52 1274.62 404.42 1275.31 405.07 C 1276.68 406.16 1277.58 407.88 1277.58 409.64 C 1277.58 413.06 1274.65 415.61 1271.71 415.61 C 1268.82 415.61 1265.93 413.5 1265.73 409.73 C 1265.69 408.21 1266.54 406.06 1268.06 405 C 1268.58 404.57 1268.79 403.6 1268.15 402.85 C 1267.54 402.07 1266.56 402.21 1266.13 402.54 C 1263.8 404.45 1262.67 406.58 1262.61 409.53 C 1262.61 415.01 1266.79 418.77 1271.59 418.77 Z M 1271.64 424.72 C 1262.69 424.72 1255.93 417.46 1255.93 408.95 C 1255.93 400.39 1262.96 393.3 1271.79 393.3 C 1279.89 393.3 1287.35 399.86 1287.35 408.92 C 1287.35 418.37 1279.79 424.72 1271.64 424.72 Z" fill="none" stroke="#222222" stroke-miterlimit="10" pointer-events="all"/></g><g><path d="M 1255.93 513.73 L 1255.93 492.78 C 1255.93 489.89 1262.97 487.55 1271.64 487.55 C 1280.32 487.55 1287.35 489.89 1287.35 492.78 L 1287.35 513.73 C 1287.35 516.62 1280.32 518.96 1271.64 518.96 C 1262.97 518.96 1255.93 516.62 1255.93 513.73 Z" fill="none" stroke="#222222" stroke-miterlimit="10" pointer-events="all"/><path d="M 1255.93 492.78 C 1255.93 495.67 1262.97 498.02 1271.64 498.02 C 1280.32 498.02 1287.35 495.67 1287.35 492.78" fill="none" stroke="#222222" stroke-miterlimit="10" pointer-events="all"/></g><g><rect x="229.71" y="351.42" width="806.32" height="198.96" fill="#333333" stroke="none" pointer-events="all"/></g><g><rect x="889.43" y="377.59" width="41.89" height="146.6" fill="#2d2d2d" stroke="none" pointer-events="all"/></g><g><rect x="292.54" y="377.59" width="41.89" height="146.6" fill="#2d2d2d" stroke="none" pointer-events="all"/></g><g><rect x="334.43" y="377.59" width="555" height="20.94" fill="#222222" stroke="none" pointer-events="all"/></g><g><rect x="334.43" y="419.48" width="555" height="20.94" fill="#222222" stroke="none" pointer-events="all"/></g><g><rect x="334.43" y="461.37" width="555" height="20.94" fill="#222222" stroke="none" pointer-events="all"/></g><g><rect x="334.43" y="503.25" width="555" height="20.94" fill="#222222" stroke="none" pointer-events="all"/></g><g><rect x="501.98" y="377.59" width="20.94" height="146.6" fill="#2d2d2d" stroke="none" pointer-events="all"/></g><g><rect x="700.94" y="377.59" width="20.94" height="146.6" fill="#2d2d2d" stroke="none" pointer-events="all"/></g><g><rect x="334.43" y="482.31" width="555" height="20.94" fill="#333333" stroke="none" pointer-events="all"/></g><g><rect x="334.43" y="440.42" width="555" height="20.94" fill="#333333" stroke="none" pointer-events="all"/></g><g><rect x="334.43" y="398.54" width="555" height="20.94" fill="#333333" stroke="none" pointer-events="all"/></g><g><rect x="1308.29" y="320" width="1099.52" height="261.79" fill="#333333" stroke="none" pointer-events="all"/></g><g><rect x="1339.71" y="351.42" width="1015.75" height="198.96" fill="#222222" stroke="#222222" stroke-width="5" pointer-events="all"/></g><g><rect x="2360.69" y="534.67" width="41.89" height="31.41" rx="4.71" ry="4.71" fill="#60a917" stroke="#222222" transform="rotate(90,2381.64,550.38)" pointer-events="all"/></g><g><rect x="2360.69" y="440.42" width="41.89" height="31.41" rx="4.71" ry="4.71" fill="#0050ef" stroke="#222222" transform="rotate(90,2381.64,456.13)" pointer-events="all"/></g><g><rect x="2093.67" y="382.83" width="83.77" height="136.13" rx="12.57" ry="12.57" fill="#0050ef" stroke="none" pointer-events="all"/></g><g><path d="M 2166.97 382.83 Q 2198.38 382.83 2198.38 450.9 Q 2198.38 518.96 2166.97 518.96 Z" fill="#0050ef" stroke="none" pointer-events="all"/></g><g><path d="M 2381.57 408.66 C 2382.51 408.66 2383.17 408 2383.17 407.13 L 2383.17 400.84 C 2383.17 400.02 2382.61 399.26 2381.68 399.26 C 2380.74 399.26 2380.09 400.01 2380.09 400.7 L 2380.09 407.14 C 2380.09 408 2380.82 408.66 2381.57 408.66 Z M 2381.58 418.77 C 2386.58 418.77 2390.71 414.75 2390.71 409.8 C 2390.71 407.3 2389.81 404.5 2387.06 402.46 C 2386.56 402.07 2385.53 402.28 2385.07 402.89 C 2384.64 403.52 2384.61 404.42 2385.3 405.07 C 2386.67 406.16 2387.57 407.88 2387.57 409.64 C 2387.57 413.06 2384.64 415.61 2381.71 415.61 C 2378.81 415.61 2375.93 413.5 2375.72 409.73 C 2375.68 408.21 2376.54 406.06 2378.05 405 C 2378.57 404.57 2378.79 403.6 2378.14 402.85 C 2377.54 402.07 2376.55 402.21 2376.12 402.54 C 2373.79 404.45 2372.67 406.58 2372.6 409.53 C 2372.6 415.01 2376.78 418.77 2381.58 418.77 Z M 2381.63 424.72 C 2372.68 424.72 2365.93 417.46 2365.93 408.95 C 2365.93 400.39 2372.95 393.3 2381.78 393.3 C 2389.89 393.3 2397.34 399.86 2397.34 408.92 C 2397.34 418.37 2389.78 424.72 2381.63 424.72 Z" fill="none" stroke="#222222" stroke-miterlimit="10" pointer-events="all"/></g><g><path d="M 2365.93 513.73 L 2365.93 492.78 C 2365.93 489.89 2372.96 487.55 2381.64 487.55 C 2390.31 487.55 2397.34 489.89 2397.34 492.78 L 2397.34 513.73 C 2397.34 516.62 2390.31 518.96 2381.64 518.96 C 2372.96 518.96 2365.93 516.62 2365.93 513.73 Z" fill="none" stroke="#222222" stroke-miterlimit="10" pointer-events="all"/><path d="M 2365.93 492.78 C 2365.93 495.67 2372.96 498.02 2381.64 498.02 C 2390.31 498.02 2397.34 495.67 2397.34 492.78" fill="none" stroke="#222222" stroke-miterlimit="10" pointer-events="all"/></g><g><rect x="1339.71" y="351.42" width="806.32" height="198.96" fill="#333333" stroke="none" pointer-events="all"/></g><g><rect x="1999.42" y="377.59" width="41.89" height="146.6" fill="#2d2d2d" stroke="none" pointer-events="all"/></g><g><rect x="1402.54" y="377.59" width="41.89" height="146.6" fill="#2d2d2d" stroke="none" pointer-events="all"/></g><g><rect x="1444.42" y="377.59" width="555" height="20.94" fill="#222222" stroke="none" pointer-events="all"/></g><g><rect x="1444.42" y="419.48" width="555" height="20.94" fill="#222222" stroke="none" pointer-events="all"/></g><g><rect x="1444.42" y="461.37" width="555" height="20.94" fill="#222222" stroke="none" pointer-events="all"/></g><g><rect x="1444.42" y="503.25" width="555" height="20.94" fill="#222222" stroke="none" pointer-events="all"/></g><g><rect x="1611.97" y="377.59" width="20.94" height="146.6" fill="#2d2d2d" stroke="none" pointer-events="all"/></g><g><rect x="1810.93" y="377.59" width="20.94" height="146.6" fill="#2d2d2d" stroke="none" pointer-events="all"/></g><g><rect x="1444.42" y="482.31" width="555" height="20.94" fill="#333333" stroke="none" pointer-events="all"/></g><g><rect x="1444.42" y="440.42" width="555" height="20.94" fill="#333333" stroke="none" pointer-events="all"/></g><g><rect x="1444.42" y="398.54" width="555" height="20.94" fill="#333333" stroke="none" pointer-events="all"/></g><g><rect x="2418.29" y="320" width="1099.52" height="261.79" fill="#333333" stroke="none" pointer-events="all"/></g><g><rect x="2449.7" y="351.42" width="1015.75" height="198.96" fill="#222222" stroke="#222222" stroke-width="5" pointer-events="all"/></g><g><rect x="3470.68" y="534.67" width="41.89" height="31.41" rx="4.71" ry="4.71" fill="#60a917" stroke="#222222" transform="rotate(90,3491.63,550.38)" pointer-events="all"/></g><g><rect x="3470.68" y="440.42" width="41.89" height="31.41" rx="4.71" ry="4.71" fill="#0050ef" stroke="#222222" transform="rotate(90,3491.63,456.13)" pointer-events="all"/></g><g><rect x="3203.66" y="382.83" width="83.77" height="136.13" rx="12.57" ry="12.57" fill="#0050ef" stroke="none" pointer-events="all"/></g><g><path d="M 3276.96 382.83 Q 3308.37 382.83 3308.37 450.9 Q 3308.37 518.96 3276.96 518.96 Z" fill="#0050ef" stroke="none" pointer-events="all"/></g><g><path d="M 3491.56 408.66 C 3492.5 408.66 3493.16 408 3493.16 407.13 L 3493.16 400.84 C 3493.16 400.02 3492.6 399.26 3491.67 399.26 C 3490.74 399.26 3490.09 400.01 3490.09 400.7 L 3490.09 407.14 C 3490.09 408 3490.81 408.66 3491.56 408.66 Z M 3491.58 418.77 C 3496.57 418.77 3500.71 414.75 3500.71 409.8 C 3500.71 407.3 3499.81 404.5 3497.06 402.46 C 3496.55 402.07 3495.52 402.28 3495.06 402.89 C 3494.63 403.52 3494.6 404.42 3495.3 405.07 C 3496.66 406.16 3497.56 407.88 3497.56 409.64 C 3497.56 413.06 3494.64 415.61 3491.7 415.61 C 3488.81 415.61 3485.92 413.5 3485.71 409.73 C 3485.67 408.21 3486.53 406.06 3488.05 405 C 3488.57 404.57 3488.78 403.6 3488.14 402.85 C 3487.53 402.07 3486.54 402.21 3486.12 402.54 C 3483.78 404.45 3482.66 406.58 3482.6 409.53 C 3482.6 415.01 3486.78 418.77 3491.58 418.77 Z M 3491.62 424.72 C 3482.67 424.72 3475.92 417.46 3475.92 408.95 C 3475.92 400.39 3482.94 393.3 3491.77 393.3 C 3499.88 393.3 3507.34 399.86 3507.34 408.92 C 3507.34 418.37 3499.78 424.72 3491.62 424.72 Z" fill="none" stroke="#222222" stroke-miterlimit="10" pointer-events="all"/></g><g><path d="M 3475.92 513.73 L 3475.92 492.78 C 3475.92 489.89 3482.95 487.55 3491.63 487.55 C 3500.3 487.55 3507.34 489.89 3507.34 492.78 L 3507.34 513.73 C 3507.34 516.62 3500.3 518.96 3491.63 518.96 C 3482.95 518.96 3475.92 516.62 3475.92 513.73 Z" fill="none" stroke="#222222" stroke-miterlimit="10" pointer-events="all"/><path d="M 3475.92 492.78 C 3475.92 495.67 3482.95 498.02 3491.63 498.02 C 3500.3 498.02 3507.34 495.67 3507.34 492.78" fill="none" stroke="#222222" stroke-miterlimit="10" pointer-events="all"/></g><g><rect x="2449.7" y="351.42" width="806.32" height="198.96" fill="#333333" stroke="none" pointer-events="all"/></g><g><rect x="3109.41" y="377.59" width="41.89" height="146.6" fill="#2d2d2d" stroke="none" pointer-events="all"/></g><g><rect x="2512.53" y="377.59" width="41.89" height="146.6" fill="#2d2d2d" stroke="none" pointer-events="all"/></g><g><rect x="2554.42" y="377.59" width="555" height="20.94" fill="#222222" stroke="none" pointer-events="all"/></g><g><rect x="2554.42" y="419.48" width="555" height="20.94" fill="#222222" stroke="none" pointer-events="all"/></g><g><rect x="2554.42" y="461.37" width="555" height="20.94" fill="#222222" stroke="none" pointer-events="all"/></g><g><rect x="2554.42" y="503.25" width="555" height="20.94" fill="#222222" stroke="none" pointer-events="all"/></g><g><rect x="2721.96" y="377.59" width="20.94" height="146.6" fill="#2d2d2d" stroke="none" pointer-events="all"/></g><g><rect x="2920.92" y="377.59" width="20.94" height="146.6" fill="#2d2d2d" stroke="none" pointer-events="all"/></g><g><rect x="2554.42" y="482.31" width="555" height="20.94" fill="#333333" stroke="none" pointer-events="all"/></g><g><rect x="2554.42" y="440.42" width="555" height="20.94" fill="#333333" stroke="none" pointer-events="all"/></g><g><rect x="2554.42" y="398.54" width="555" height="20.94" fill="#333333" stroke="none" pointer-events="all"/></g><g><rect x="3528.28" y="320" width="1099.52" height="261.79" fill="#333333" stroke="none" pointer-events="all"/></g><g><rect x="3559.69" y="351.42" width="1015.75" height="198.96" fill="#222222" stroke="#222222" stroke-width="5" pointer-events="all"/></g><g><rect x="4580.68" y="534.67" width="41.89" height="31.41" rx="4.71" ry="4.71" fill="#60a917" stroke="#222222" transform="rotate(90,4601.62,550.38)" pointer-events="all"/></g><g><rect x="4580.68" y="440.42" width="41.89" height="31.41" rx="4.71" ry="4.71" fill="#0050ef" stroke="#222222" transform="rotate(90,4601.62,456.13)" pointer-events="all"/></g><g><rect x="4313.65" y="382.83" width="83.77" height="136.13" rx="12.57" ry="12.57" fill="#0050ef" stroke="none" pointer-events="all"/></g><g><path d="M 4386.95 382.83 Q 4418.37 382.83 4418.37 450.9 Q 4418.37 518.96 4386.95 518.96 Z" fill="#0050ef" stroke="none" pointer-events="all"/></g><g><path d="M 4601.56 408.66 C 4602.49 408.66 4603.15 408 4603.15 407.13 L 4603.15 400.84 C 4603.15 400.02 4602.59 399.26 4601.66 399.26 C 4600.73 399.26 4600.08 400.01 4600.08 400.7 L 4600.08 407.14 C 4600.08 408 4600.81 408.66 4601.56 408.66 Z M 4601.57 418.77 C 4606.57 418.77 4610.7 414.75 4610.7 409.8 C 4610.7 407.3 4609.8 404.5 4607.05 402.46 C 4606.54 402.07 4605.52 402.28 4605.05 402.89 C 4604.63 403.52 4604.6 404.42 4605.29 405.07 C 4606.66 406.16 4607.55 407.88 4607.55 409.64 C 4607.55 413.06 4604.63 415.61 4601.69 415.61 C 4598.8 415.61 4595.91 413.5 4595.71 409.73 C 4595.66 408.21 4596.52 406.06 4598.04 405 C 4598.56 404.57 4598.77 403.6 4598.13 402.85 C 4597.52 402.07 4596.53 402.21 4596.11 402.54 C 4593.77 404.45 4592.65 406.58 4592.59 409.53 C 4592.59 415.01 4596.77 418.77 4601.57 418.77 Z M 4601.61 424.72 C 4592.67 424.72 4585.91 417.46 4585.91 408.95 C 4585.91 400.39 4592.94 393.3 4601.77 393.3 C 4609.87 393.3 4617.33 399.86 4617.33 408.92 C 4617.33 418.37 4609.77 424.72 4601.61 424.72 Z" fill="none" stroke="#222222" stroke-miterlimit="10" pointer-events="all"/></g><g><path d="M 4585.91 513.73 L 4585.91 492.78 C 4585.91 489.89 4592.95 487.55 4601.62 487.55 C 4610.3 487.55 4617.33 489.89 4617.33 492.78 L 4617.33 513.73 C 4617.33 516.62 4610.3 518.96 4601.62 518.96 C 4592.95 518.96 4585.91 516.62 4585.91 513.73 Z" fill="none" stroke="#222222" stroke-miterlimit="10" pointer-events="all"/><path d="M 4585.91 492.78 C 4585.91 495.67 4592.95 498.02 4601.62 498.02 C 4610.3 498.02 4617.33 495.67 4617.33 492.78" fill="none" stroke="#222222" stroke-miterlimit="10" pointer-events="all"/></g><g><rect x="3559.69" y="351.42" width="806.32" height="198.96" fill="#333333" stroke="none" pointer-events="all"/></g><g><rect x="4219.41" y="377.59" width="41.89" height="146.6" fill="#2d2d2d" stroke="none" pointer-events="all"/></g><g><rect x="3622.52" y="377.59" width="41.89" height="146.6" fill="#2d2d2d" stroke="none" pointer-events="all"/></g><g><rect x="3664.41" y="377.59" width="555" height="20.94" fill="#222222" stroke="none" pointer-events="all"/></g><g><rect x="3664.41" y="419.48" width="555" height="20.94" fill="#222222" stroke="none" pointer-events="all"/></g><g><rect x="3664.41" y="461.37" width="555" height="20.94" fill="#222222" stroke="none" pointer-events="all"/></g><g><rect x="3664.41" y="503.25" width="555" height="20.94" fill="#222222" stroke="none" pointer-events="all"/></g><g><rect x="3831.96" y="377.59" width="20.94" height="146.6" fill="#2d2d2d" stroke="none" pointer-events="all"/></g><g><rect x="4030.92" y="377.59" width="20.94" height="146.6" fill="#2d2d2d" stroke="none" pointer-events="all"/></g><g><rect x="3664.41" y="482.31" width="555" height="20.94" fill="#333333" stroke="none" pointer-events="all"/></g><g><rect x="3664.41" y="440.42" width="555" height="20.94" fill="#333333" stroke="none" pointer-events="all"/></g><g><rect x="3664.41" y="398.54" width="555" height="20.94" fill="#333333" stroke="none" pointer-events="all"/></g><g><rect x="1567.8" y="13.9" width="840" height="300" fill="#333333" stroke="none" pointer-events="all"/></g><g><rect x="3528.28" y="13.51" width="1099.52" height="300.39" fill="#333333" stroke="none" pointer-events="all"/></g><g><rect x="3561" y="44.02" width="72.82" height="74.08" fill="#222222" stroke="#333333" stroke-width="5" pointer-events="all"/></g><g><rect x="3561" y="125.51" width="72.82" height="74.08" fill="#222222" stroke="#333333" stroke-width="5" pointer-events="all"/></g><g><rect x="3641.09" y="44.02" width="72.82" height="74.08" fill="#222222" stroke="#333333" stroke-width="5" pointer-events="all"/></g><g><rect x="3641.09" y="125.51" width="72.82" height="74.08" fill="#222222" stroke="#333333" stroke-width="5" pointer-events="all"/></g><g><rect x="3721.19" y="44.02" width="72.82" height="74.08" fill="#222222" stroke="#333333" stroke-width="5" pointer-events="all"/></g><g><rect x="3721.19" y="125.51" width="72.82" height="74.08" fill="#222222" stroke="#333333" stroke-width="5" pointer-events="all"/></g><g><rect x="3801.29" y="44.02" width="72.82" height="74.08" fill="#222222" stroke="#333333" stroke-width="5" pointer-events="all"/></g><g><rect x="3801.29" y="125.51" width="72.82" height="74.08" fill="#222222" stroke="#333333" stroke-width="5" pointer-events="all"/></g><g><rect x="3881.39" y="44.02" width="72.82" height="74.08" fill="#222222" stroke="#333333" stroke-width="5" pointer-events="all"/></g><g><rect x="3881.39" y="125.51" width="72.82" height="74.08" fill="#222222" stroke="#333333" stroke-width="5" pointer-events="all"/></g><g><rect x="3961.48" y="44.02" width="72.82" height="74.08" fill="#222222" stroke="#333333" stroke-width="5" pointer-events="all"/></g><g><rect x="3961.48" y="125.51" width="72.82" height="74.08" fill="#222222" stroke="#333333" stroke-width="5" pointer-events="all"/></g><g><rect x="4041.58" y="44.02" width="72.82" height="74.08" fill="#222222" stroke="#333333" stroke-width="5" pointer-events="all"/></g><g><rect x="4041.58" y="125.51" width="72.82" height="74.08" fill="#222222" stroke="#333333" stroke-width="5" pointer-events="all"/></g><g><rect x="4121.68" y="44.02" width="72.82" height="74.08" fill="#222222" stroke="#333333" stroke-width="5" pointer-events="all"/></g><g><rect x="4121.68" y="125.51" width="72.82" height="74.08" fill="#222222" stroke="#333333" stroke-width="5" pointer-events="all"/></g><g><rect x="4201.78" y="44.02" width="72.82" height="74.08" fill="#222222" stroke="#333333" stroke-width="5" pointer-events="all"/></g><g><rect x="4201.78" y="125.51" width="72.82" height="74.08" fill="#222222" stroke="#333333" stroke-width="5" pointer-events="all"/></g><g><rect x="4281.87" y="44.02" width="72.82" height="74.08" fill="#222222" stroke="#333333" stroke-width="5" pointer-events="all"/></g><g><rect x="4281.87" y="125.51" width="72.82" height="74.08" fill="#222222" stroke="#333333" stroke-width="5" pointer-events="all"/></g><g><rect x="4361.97" y="44.02" width="72.82" height="74.08" fill="#222222" stroke="#333333" stroke-width="5" pointer-events="all"/></g><g><rect x="4361.97" y="125.51" width="72.82" height="74.08" fill="#222222" stroke="#333333" stroke-width="5" pointer-events="all"/></g><g><rect x="4442.07" y="44.02" width="72.82" height="74.08" fill="#222222" stroke="#333333" stroke-width="5" pointer-events="all"/></g><g><rect x="4442.07" y="125.51" width="72.82" height="74.08" fill="#222222" stroke="#333333" stroke-width="5" pointer-events="all"/></g><g><rect x="4522.17" y="44.02" width="72.82" height="74.08" fill="#222222" stroke="#333333" stroke-width="5" pointer-events="all"/></g><g><rect x="4522.17" y="125.51" width="72.82" height="74.08" fill="#222222" stroke="#333333" stroke-width="5" pointer-events="all"/></g><g><rect x="198.3" y="0" width="1360" height="150" fill="none" stroke="#333333" stroke-width="10" pointer-events="none"/></g><g><rect x="198.3" y="0.2" width="1360" height="150" fill="#333333" stroke="none" pointer-events="all"/></g><g/><g><rect x="246.94" y="0" width="62.73" height="66.03" fill="#222222" stroke="none" pointer-events="all"/></g><g><rect x="246.94" y="83.97" width="62.73" height="66.03" fill="#222222" stroke="none" pointer-events="all"/></g><g><rect x="326.94" y="0" width="62.73" height="66.03" fill="#222222" stroke="none" pointer-events="all"/></g><g><rect x="326.94" y="83.97" width="62.73" height="66.03" fill="#222222" stroke="none" pointer-events="all"/></g><g><rect x="406.94" y="0" width="62.73" height="66.03" fill="#222222" stroke="none" pointer-events="all"/></g><g><rect x="406.94" y="83.97" width="62.73" height="66.03" fill="#222222" stroke="none" pointer-events="all"/></g><g><rect x="486.94" y="0" width="62.73" height="66.03" fill="#222222" stroke="none" pointer-events="all"/></g><g><rect x="486.94" y="83.97" width="62.73" height="66.03" fill="#222222" stroke="none" pointer-events="all"/></g><g><rect x="566.94" y="0" width="62.73" height="66.03" fill="#222222" stroke="none" pointer-events="all"/></g><g><rect x="566.94" y="83.97" width="62.73" height="66.03" fill="#222222" stroke="none" pointer-events="all"/></g><g><rect x="646.94" y="0" width="62.73" height="66.03" fill="#222222" stroke="none" pointer-events="all"/></g><g><rect x="646.94" y="83.97" width="62.73" height="66.03" fill="#222222" stroke="none" pointer-events="all"/></g><g><rect x="726.94" y="0" width="62.73" height="66.03" fill="#222222" stroke="none" pointer-events="all"/></g><g><rect x="726.94" y="83.97" width="62.73" height="66.03" fill="#222222" stroke="none" pointer-events="all"/></g><g><rect x="806.94" y="0" width="62.73" height="66.03" fill="#222222" stroke="none" pointer-events="all"/></g><g><rect x="806.94" y="83.97" width="62.73" height="66.03" fill="#222222" stroke="none" pointer-events="all"/></g><g><rect x="886.94" y="0" width="62.73" height="66.03" fill="#222222" stroke="none" pointer-events="all"/></g><g><rect x="886.94" y="83.97" width="62.73" height="66.03" fill="#222222" stroke="none" pointer-events="all"/></g><g><rect x="966.94" y="0" width="62.73" height="66.03" fill="#222222" stroke="none" pointer-events="all"/></g><g><rect x="966.94" y="83.97" width="62.73" height="66.03" fill="#222222" stroke="none" pointer-events="all"/></g><g><rect x="1046.94" y="0" width="62.73" height="66.03" fill="#222222" stroke="none" pointer-events="all"/></g><g><rect x="1046.94" y="83.97" width="62.73" height="66.03" fill="#222222" stroke="none" pointer-events="all"/></g><g><rect x="1126.94" y="0" width="62.73" height="66.03" fill="#222222" stroke="none" pointer-events="all"/></g><g><rect x="1126.94" y="83.97" width="62.73" height="66.03" fill="#222222" stroke="none" pointer-events="all"/></g><g><rect x="1206.94" y="0" width="62.73" height="66.03" fill="#222222" stroke="none" pointer-events="all"/></g><g><rect x="1206.94" y="83.97" width="62.73" height="66.03" fill="#222222" stroke="none" pointer-events="all"/></g><g><rect x="1286.94" y="0" width="62.73" height="66.03" fill="#222222" stroke="none" pointer-events="all"/></g><g><rect x="1285.48" y="83.97" width="62.73" height="66.03" fill="#222222" stroke="none" pointer-events="all"/></g><g><rect x="1366.94" y="0" width="62.73" height="66.03" fill="#222222" stroke="none" pointer-events="all"/></g><g><rect x="1366.94" y="83.97" width="62.73" height="66.03" fill="#222222" stroke="none" pointer-events="all"/></g><g><rect x="1446.94" y="0" width="62.73" height="66.03" fill="#222222" stroke="none" pointer-events="all"/></g><g><rect x="1446.94" y="83.97" width="62.73" height="66.03" fill="#222222" stroke="none" pointer-events="all"/></g><g><rect x="198.3" y="160" width="1360" height="150" fill="none" stroke="#333333" stroke-width="10" pointer-events="none"/></g><g><rect x="198.3" y="160.2" width="1360" height="150" fill="#333333" stroke="none" pointer-events="all"/></g><g/><g><rect x="246.94" y="160" width="62.73" height="66.03" fill="#222222" stroke="none" pointer-events="all"/></g><g><rect x="246.94" y="243.97" width="62.73" height="66.03" fill="#222222" stroke="none" pointer-events="all"/></g><g><rect x="326.94" y="160" width="62.73" height="66.03" fill="#222222" stroke="none" pointer-events="all"/></g><g><rect x="326.94" y="243.97" width="62.73" height="66.03" fill="#222222" stroke="none" pointer-events="all"/></g><g><rect x="406.94" y="160" width="62.73" height="66.03" fill="#222222" stroke="none" pointer-events="all"/></g><g><rect x="406.94" y="243.97" width="62.73" height="66.03" fill="#222222" stroke="none" pointer-events="all"/></g><g><rect x="486.94" y="160" width="62.73" height="66.03" fill="#222222" stroke="none" pointer-events="all"/></g><g><rect x="486.94" y="243.97" width="62.73" height="66.03" fill="#222222" stroke="none" pointer-events="all"/></g><g><rect x="566.94" y="160" width="62.73" height="66.03" fill="#222222" stroke="none" pointer-events="all"/></g><g><rect x="566.94" y="243.97" width="62.73" height="66.03" fill="#222222" stroke="none" pointer-events="all"/></g><g><rect x="646.94" y="160" width="62.73" height="66.03" fill="#222222" stroke="none" pointer-events="all"/></g><g><rect x="646.94" y="243.97" width="62.73" height="66.03" fill="#222222" stroke="none" pointer-events="all"/></g><g><rect x="726.94" y="160" width="62.73" height="66.03" fill="#222222" stroke="none" pointer-events="all"/></g><g><rect x="726.94" y="243.97" width="62.73" height="66.03" fill="#222222" stroke="none" pointer-events="all"/></g><g><rect x="806.94" y="160" width="62.73" height="66.03" fill="#222222" stroke="none" pointer-events="all"/></g><g><rect x="806.94" y="243.97" width="62.73" height="66.03" fill="#222222" stroke="none" pointer-events="all"/></g><g><rect x="886.94" y="160" width="62.73" height="66.03" fill="#222222" stroke="none" pointer-events="all"/></g><g><rect x="886.94" y="243.97" width="62.73" height="66.03" fill="#222222" stroke="none" pointer-events="all"/></g><g><rect x="966.94" y="160" width="62.73" height="66.03" fill="#222222" stroke="none" pointer-events="all"/></g><g><rect x="966.94" y="243.97" width="62.73" height="66.03" fill="#222222" stroke="none" pointer-events="all"/></g><g><rect x="1046.94" y="160" width="62.73" height="66.03" fill="#222222" stroke="none" pointer-events="all"/></g><g><rect x="1046.94" y="243.97" width="62.73" height="66.03" fill="#222222" stroke="none" pointer-events="all"/></g><g><rect x="1126.94" y="160" width="62.73" height="66.03" fill="#222222" stroke="none" pointer-events="all"/></g><g><rect x="1126.94" y="243.97" width="62.73" height="66.03" fill="#222222" stroke="none" pointer-events="all"/></g><g><rect x="1206.94" y="160" width="62.73" height="66.03" fill="#222222" stroke="none" pointer-events="all"/></g><g><rect x="1206.94" y="243.97" width="62.73" height="66.03" fill="#222222" stroke="none" pointer-events="all"/></g><g><rect x="1286.94" y="160" width="62.73" height="66.03" fill="#222222" stroke="none" pointer-events="all"/></g><g><rect x="1285.48" y="243.97" width="62.73" height="66.03" fill="#222222" stroke="none" pointer-events="all"/></g><g><rect x="1366.94" y="160" width="62.73" height="66.03" fill="#222222" stroke="none" pointer-events="all"/></g><g><rect x="1366.94" y="243.97" width="62.73" height="66.03" fill="#222222" stroke="none" pointer-events="all"/></g><g><rect x="1446.94" y="160" width="62.73" height="66.03" fill="#222222" stroke="none" pointer-events="all"/></g><g><rect x="1446.94" y="243.97" width="62.73" height="66.03" fill="#222222" stroke="none" pointer-events="all"/></g><g/><g><rect x="1582.8" y="97.37" width="810" height="133.04" fill="#333333" stroke="#001dbc" stroke-width="2" pointer-events="all"/></g><g><ellipse cx="1770.3" cy="193.46" rx="22.5" ry="22.17391304347826" fill="#60a917" stroke="none" pointer-events="all"/></g><g><ellipse cx="1822.8" cy="193.46" rx="22.5" ry="22.17391304347826" fill="#0050ef" stroke="none" pointer-events="all"/></g><g><ellipse cx="1875.3" cy="193.46" rx="22.5" ry="22.17391304347826" fill="#0050ef" stroke="none" pointer-events="all"/></g><g><ellipse cx="1927.8" cy="193.46" rx="22.5" ry="22.17391304347826" fill="#0050ef" stroke="none" pointer-events="all"/></g><g><ellipse cx="2032.8" cy="193.46" rx="22.5" ry="22.17391304347826" fill="#a20025" stroke="none" pointer-events="all"/></g><g><ellipse cx="1980.3" cy="193.46" rx="22.5" ry="22.17391304347826" fill="#0050ef" stroke="none" pointer-events="all"/></g><g><ellipse cx="1702.8" cy="186.07" rx="30" ry="29.565217391304344" fill="#0050ef" stroke="none" pointer-events="all"/></g><g><ellipse cx="1627.8" cy="186.07" rx="30" ry="29.565217391304344" fill="#0050ef" stroke="none" pointer-events="all"/></g><g><rect x="2110.8" y="112.16" width="65.1" height="29.57" fill="none" stroke="none" pointer-events="all"/><path d="M 2122.09 128.36 C 2121.31 131.06 2118.61 132.79 2115.76 132.4 C 2112.92 132.01 2110.8 129.63 2110.8 126.83 C 2110.8 124.02 2112.92 121.64 2115.76 121.26 C 2118.61 120.87 2121.31 122.59 2122.09 125.29 L 2128.89 125.29 C 2129.71 124.98 2130.37 124.36 2130.72 123.57 L 2132.81 119.8 C 2134.03 118.01 2135.95 116.81 2138.11 116.47 C 2139.9 116.2 2141.72 116.07 2143.54 116.09 C 2144.3 113.67 2146.75 112.16 2149.31 112.53 C 2151.87 112.91 2153.77 115.06 2153.77 117.59 C 2153.77 120.12 2151.87 122.27 2149.31 122.65 C 2146.75 123.02 2144.3 121.51 2143.54 119.09 C 2141.58 119 2139.62 119.19 2137.72 119.67 C 2136.85 119.98 2136.08 120.51 2135.49 121.2 L 2134.19 123.76 L 2133.4 125.36 L 2164.39 125.36 L 2164.39 120.24 L 2175.9 127.27 L 2164.39 133.54 L 2164.39 128.3 L 2140.59 128.3 C 2141.09 129.04 2141.51 129.83 2141.84 130.66 L 2143.14 133.99 C 2143.45 134.56 2143.93 135.03 2144.52 135.33 C 2145.29 135.51 2146.08 135.61 2146.87 135.65 L 2149.68 135.65 L 2149.68 132.45 L 2159.03 132.45 L 2159.03 141.72 L 2149.68 141.72 L 2149.68 138.72 C 2147.8 138.91 2145.9 138.78 2144.06 138.33 C 2142.73 137.93 2141.56 137.13 2140.72 136.03 L 2139.68 133.67 L 2138.31 130.41 C 2137.85 129.18 2136.69 128.35 2135.36 128.3 Z" fill="#ffffff" stroke="none" pointer-events="all"/></g><g><rect x="2270.4" y="112.16" width="65.1" height="29.57" fill="none" stroke="none" pointer-events="all"/><path d="M 2281.69 128.36 C 2280.91 131.06 2278.21 132.79 2275.36 132.4 C 2272.52 132.01 2270.4 129.63 2270.4 126.83 C 2270.4 124.02 2272.52 121.64 2275.36 121.26 C 2278.21 120.87 2280.91 122.59 2281.69 125.29 L 2288.49 125.29 C 2289.31 124.98 2289.97 124.36 2290.32 123.57 L 2292.41 119.8 C 2293.63 118.01 2295.55 116.81 2297.71 116.47 C 2299.5 116.2 2301.32 116.07 2303.14 116.09 C 2303.9 113.67 2306.35 112.16 2308.91 112.53 C 2311.47 112.91 2313.37 115.06 2313.37 117.59 C 2313.37 120.12 2311.47 122.27 2308.91 122.65 C 2306.35 123.02 2303.9 121.51 2303.14 119.09 C 2301.18 119 2299.22 119.19 2297.32 119.67 C 2296.45 119.98 2295.68 120.51 2295.09 121.2 L 2293.79 123.76 L 2293 125.36 L 2323.99 125.36 L 2323.99 120.24 L 2335.5 127.27 L 2323.99 133.54 L 2323.99 128.3 L 2300.19 128.3 C 2300.69 129.04 2301.11 129.83 2301.44 130.66 L 2302.74 133.99 C 2303.05 134.56 2303.53 135.03 2304.12 135.33 C 2304.89 135.51 2305.68 135.61 2306.47 135.65 L 2309.28 135.65 L 2309.28 132.45 L 2318.63 132.45 L 2318.63 141.72 L 2309.28 141.72 L 2309.28 138.72 C 2307.4 138.91 2305.5 138.78 2303.66 138.33 C 2302.33 137.93 2301.16 137.13 2300.32 136.03 L 2299.28 133.67 L 2297.91 130.41 C 2297.45 129.18 2296.29 128.35 2294.96 128.3 Z" fill="#ffffff" stroke="none" pointer-events="all"/></g><g><path d="M 1627.74 126.61 C 1628.63 126.61 1629.26 125.99 1629.26 125.17 L 1629.26 119.26 C 1629.26 118.48 1628.73 117.76 1627.84 117.76 C 1626.95 117.76 1626.33 118.47 1626.33 119.12 L 1626.33 125.18 C 1626.33 125.99 1627.02 126.61 1627.74 126.61 Z M 1627.75 136.12 C 1632.52 136.12 1636.47 132.34 1636.47 127.68 C 1636.47 125.33 1635.61 122.69 1632.98 120.78 C 1632.5 120.41 1631.52 120.6 1631.08 121.18 C 1630.67 121.77 1630.64 122.62 1631.3 123.23 C 1632.61 124.26 1633.47 125.87 1633.47 127.53 C 1633.47 130.75 1630.67 133.15 1627.87 133.15 C 1625.11 133.15 1622.35 131.17 1622.15 127.62 C 1622.11 126.19 1622.93 124.16 1624.38 123.16 C 1624.88 122.76 1625.08 121.85 1624.47 121.14 C 1623.89 120.41 1622.94 120.54 1622.54 120.85 C 1620.31 122.64 1619.23 124.65 1619.18 127.43 C 1619.18 132.59 1623.17 136.12 1627.75 136.12 Z M 1627.79 141.72 C 1619.25 141.72 1612.8 134.9 1612.8 126.88 C 1612.8 118.83 1619.51 112.16 1627.94 112.16 C 1635.68 112.16 1642.8 118.33 1642.8 126.85 C 1642.8 135.75 1635.58 141.72 1627.79 141.72 Z" fill="#ffffff" stroke="none" pointer-events="all"/></g><g><path d="M 1698.12 141.72 L 1698.12 136.85 C 1691.67 134.79 1687.8 128.82 1688.96 122.72 C 1690.11 116.61 1695.96 112.15 1702.8 112.15 C 1709.64 112.15 1715.49 116.61 1716.64 122.72 C 1717.8 128.82 1713.93 134.79 1707.48 136.85 L 1707.48 141.72" fill="none" stroke="rgb(240, 240, 240)" stroke-miterlimit="10" transform="rotate(-180,1702.8,126.94)" pointer-events="all"/></g><g><path d="M 1807.8 136.79 L 1807.8 117.08 C 1807.8 114.36 1814.52 112.16 1822.8 112.16 C 1831.08 112.16 1837.8 114.36 1837.8 117.08 L 1837.8 136.79 C 1837.8 139.52 1831.08 141.72 1822.8 141.72 C 1814.52 141.72 1807.8 139.52 1807.8 136.79 Z" fill="none" stroke="rgb(240, 240, 240)" stroke-miterlimit="10" pointer-events="all"/><path d="M 1807.8 117.08 C 1807.8 119.81 1814.52 122.01 1822.8 122.01 C 1831.08 122.01 1837.8 119.81 1837.8 117.08" fill="none" stroke="rgb(240, 240, 240)" stroke-miterlimit="10" pointer-events="all"/></g><g><rect x="1860.3" y="112.16" width="30" height="29.57" fill="none" stroke="none" pointer-events="all"/><path d="M 1872.16 112.16 L 1872.16 118.39 L 1874.73 118.39 L 1874.72 124.22 L 1863.24 124.21 C 1863.09 124.21 1862.95 124.27 1862.85 124.38 C 1862.74 124.48 1862.68 124.63 1862.68 124.78 L 1862.69 135.48 L 1860.3 135.48 L 1860.3 141.71 L 1866.46 141.71 L 1866.46 135.48 L 1863.8 135.48 L 1863.79 125.34 L 1874.72 125.35 L 1874.71 132.96 L 1872.15 132.96 L 1872.15 139.19 L 1878.31 139.19 L 1878.31 132.96 L 1875.82 132.96 L 1875.83 125.35 L 1886.73 125.36 L 1886.68 135.49 L 1884.14 135.49 L 1884.14 141.72 L 1890.3 141.72 L 1890.3 135.49 L 1887.79 135.49 L 1887.84 124.8 C 1887.84 124.65 1887.79 124.51 1887.68 124.4 C 1887.58 124.3 1887.44 124.24 1887.29 124.24 L 1875.83 124.22 L 1875.84 118.39 L 1878.32 118.39 L 1878.32 112.16 Z" fill="#ffffff" stroke="none" pointer-events="all"/></g><g><rect x="1912.8" y="112.16" width="30" height="29.57" fill="none" stroke="none" pointer-events="all"/><path d="M 1924.66 112.16 L 1924.66 118.39 L 1927.23 118.39 L 1927.22 124.22 L 1915.74 124.21 C 1915.59 124.21 1915.45 124.27 1915.35 124.38 C 1915.24 124.48 1915.18 124.63 1915.18 124.78 L 1915.19 135.48 L 1912.8 135.48 L 1912.8 141.71 L 1918.96 141.71 L 1918.96 135.48 L 1916.3 135.48 L 1916.29 125.34 L 1927.22 125.35 L 1927.21 132.96 L 1924.65 132.96 L 1924.65 139.19 L 1930.81 139.19 L 1930.81 132.96 L 1928.32 132.96 L 1928.33 125.35 L 1939.23 125.36 L 1939.18 135.49 L 1936.64 135.49 L 1936.64 141.72 L 1942.8 141.72 L 1942.8 135.49 L 1940.29 135.49 L 1940.34 124.8 C 1940.34 124.65 1940.29 124.51 1940.18 124.4 C 1940.08 124.3 1939.94 124.24 1939.79 124.24 L 1928.33 124.22 L 1928.34 118.39 L 1930.82 118.39 L 1930.82 112.16 Z" fill="#ffffff" stroke="none" pointer-events="all"/></g><g><rect x="1965.3" y="112.16" width="30" height="29.57" fill="none" stroke="none" pointer-events="all"/><path d="M 1977.16 112.16 L 1977.16 118.39 L 1979.73 118.39 L 1979.72 124.22 L 1968.24 124.21 C 1968.09 124.21 1967.95 124.27 1967.85 124.38 C 1967.74 124.48 1967.68 124.63 1967.68 124.78 L 1967.69 135.48 L 1965.3 135.48 L 1965.3 141.71 L 1971.46 141.71 L 1971.46 135.48 L 1968.8 135.48 L 1968.79 125.34 L 1979.72 125.35 L 1979.71 132.96 L 1977.15 132.96 L 1977.15 139.19 L 1983.31 139.19 L 1983.31 132.96 L 1980.82 132.96 L 1980.83 125.35 L 1991.73 125.36 L 1991.68 135.49 L 1989.14 135.49 L 1989.14 141.72 L 1995.3 141.72 L 1995.3 135.49 L 1992.79 135.49 L 1992.84 124.8 C 1992.84 124.65 1992.79 124.51 1992.68 124.4 C 1992.58 124.3 1992.44 124.24 1992.29 124.24 L 1980.83 124.22 L 1980.84 118.39 L 1983.32 118.39 L 1983.32 112.16 Z" fill="#ffffff" stroke="none" pointer-events="all"/></g><g><path d="M 2017.8 112.16 L 2047.8 126.94 L 2017.8 141.72 Z" fill="none" stroke="rgb(240, 240, 240)" stroke-miterlimit="10" transform="rotate(-90,2032.8,126.94)" pointer-events="all"/></g><g><path d="M 1770.24 126.61 C 1771.13 126.61 1771.76 125.99 1771.76 125.17 L 1771.76 119.26 C 1771.76 118.48 1771.23 117.76 1770.34 117.76 C 1769.45 117.76 1768.83 118.47 1768.83 119.12 L 1768.83 125.18 C 1768.83 125.99 1769.52 126.61 1770.24 126.61 Z M 1770.25 136.12 C 1775.02 136.12 1778.97 132.34 1778.97 127.68 C 1778.97 125.33 1778.11 122.69 1775.48 120.78 C 1775 120.41 1774.02 120.6 1773.58 121.18 C 1773.17 121.77 1773.14 122.62 1773.8 123.23 C 1775.11 124.26 1775.97 125.87 1775.97 127.53 C 1775.97 130.75 1773.17 133.15 1770.37 133.15 C 1767.61 133.15 1764.85 131.17 1764.65 127.62 C 1764.61 126.19 1765.43 124.16 1766.88 123.16 C 1767.38 122.76 1767.58 121.85 1766.97 121.14 C 1766.39 120.41 1765.44 120.54 1765.04 120.85 C 1762.81 122.64 1761.73 124.65 1761.68 127.43 C 1761.68 132.59 1765.67 136.12 1770.25 136.12 Z M 1770.29 141.72 C 1761.75 141.72 1755.3 134.9 1755.3 126.88 C 1755.3 118.83 1762.01 112.16 1770.44 112.16 C 1778.18 112.16 1785.3 118.33 1785.3 126.85 C 1785.3 135.75 1778.08 141.72 1770.29 141.72 Z" fill="none" stroke="rgb(240, 240, 240)" stroke-miterlimit="10" pointer-events="all"/></g><g><rect x="2227.8" y="156.5" width="150" height="59.13" fill="#222222" stroke="#aaaaaa" pointer-events="all"/></g><g><rect x="2242.8" y="171.29" width="120" height="14.78" fill="#0050ef" stroke="none" pointer-events="all"/></g><g><rect x="2068.2" y="156.5" width="150" height="59.13" fill="#222222" stroke="#aaaaaa" pointer-events="all"/></g><g><rect x="2083.2" y="171.29" width="120" height="14.78" fill="#0050ef" stroke="none" pointer-events="all"/></g><g><rect x="2418.28" y="13.51" width="1099.52" height="300.39" fill="#333333" stroke="none" pointer-events="all"/></g><g><rect x="2451" y="43.82" width="72.82" height="74.08" fill="#222222" stroke="#333333" stroke-width="5" pointer-events="all"/></g><g><rect x="2451" y="125.31" width="72.82" height="74.08" fill="#222222" stroke="#333333" stroke-width="5" pointer-events="all"/></g><g><rect x="2531.09" y="43.82" width="72.82" height="74.08" fill="#222222" stroke="#333333" stroke-width="5" pointer-events="all"/></g><g><rect x="2531.09" y="125.31" width="72.82" height="74.08" fill="#222222" stroke="#333333" stroke-width="5" pointer-events="all"/></g><g><rect x="2611.19" y="43.82" width="72.82" height="74.08" fill="#222222" stroke="#333333" stroke-width="5" pointer-events="all"/></g><g><rect x="2611.19" y="125.31" width="72.82" height="74.08" fill="#222222" stroke="#333333" stroke-width="5" pointer-events="all"/></g><g><rect x="2691.29" y="43.82" width="72.82" height="74.08" fill="#222222" stroke="#333333" stroke-width="5" pointer-events="all"/></g><g><rect x="2691.29" y="125.31" width="72.82" height="74.08" fill="#222222" stroke="#333333" stroke-width="5" pointer-events="all"/></g><g><rect x="2771.39" y="43.82" width="72.82" height="74.08" fill="#222222" stroke="#333333" stroke-width="5" pointer-events="all"/></g><g><rect x="2771.39" y="125.31" width="72.82" height="74.08" fill="#222222" stroke="#333333" stroke-width="5" pointer-events="all"/></g><g><rect x="2851.48" y="43.82" width="72.82" height="74.08" fill="#222222" stroke="#333333" stroke-width="5" pointer-events="all"/></g><g><rect x="2851.48" y="125.31" width="72.82" height="74.08" fill="#222222" stroke="#333333" stroke-width="5" pointer-events="all"/></g><g><rect x="2931.58" y="43.82" width="72.82" height="74.08" fill="#222222" stroke="#333333" stroke-width="5" pointer-events="all"/></g><g><rect x="2931.58" y="125.31" width="72.82" height="74.08" fill="#222222" stroke="#333333" stroke-width="5" pointer-events="all"/></g><g><rect x="3011.68" y="43.82" width="72.82" height="74.08" fill="#222222" stroke="#333333" stroke-width="5" pointer-events="all"/></g><g><rect x="3011.68" y="125.31" width="72.82" height="74.08" fill="#222222" stroke="#333333" stroke-width="5" pointer-events="all"/></g><g><rect x="3091.78" y="43.82" width="72.82" height="74.08" fill="#222222" stroke="#333333" stroke-width="5" pointer-events="all"/></g><g><rect x="3091.78" y="125.31" width="72.82" height="74.08" fill="#222222" stroke="#333333" stroke-width="5" pointer-events="all"/></g><g><rect x="3171.87" y="43.82" width="72.82" height="74.08" fill="#222222" stroke="#333333" stroke-width="5" pointer-events="all"/></g><g><rect x="3171.87" y="125.31" width="72.82" height="74.08" fill="#222222" stroke="#333333" stroke-width="5" pointer-events="all"/></g><g><rect x="3251.97" y="43.82" width="72.82" height="74.08" fill="#222222" stroke="#333333" stroke-width="5" pointer-events="all"/></g><g><rect x="3251.97" y="125.31" width="72.82" height="74.08" fill="#222222" stroke="#333333" stroke-width="5" pointer-events="all"/></g><g><rect x="3332.07" y="43.82" width="72.82" height="74.08" fill="#222222" stroke="#333333" stroke-width="5" pointer-events="all"/></g><g><rect x="3332.07" y="125.31" width="72.82" height="74.08" fill="#222222" stroke="#333333" stroke-width="5" pointer-events="all"/></g><g><rect x="3412.17" y="43.82" width="72.82" height="74.08" fill="#222222" stroke="#333333" stroke-width="5" pointer-events="all"/></g><g><rect x="3412.17" y="125.31" width="72.82" height="74.08" fill="#222222" stroke="#333333" stroke-width="5" pointer-events="all"/></g><g><rect x="2451" y="209.42" width="72.82" height="74.08" fill="#222222" stroke="#333333" stroke-width="5" pointer-events="all"/></g><g><rect x="2531.09" y="209.42" width="72.82" height="74.08" fill="#222222" stroke="#333333" stroke-width="5" pointer-events="all"/></g><g><rect x="2611.19" y="209.42" width="72.82" height="74.08" fill="#222222" stroke="#333333" stroke-width="5" pointer-events="all"/></g><g><rect x="2691.29" y="209.42" width="72.82" height="74.08" fill="#222222" stroke="#333333" stroke-width="5" pointer-events="all"/></g><g><rect x="2771.39" y="209.42" width="72.82" height="74.08" fill="#222222" stroke="#333333" stroke-width="5" pointer-events="all"/></g><g><rect x="2851.48" y="209.42" width="72.82" height="74.08" fill="#222222" stroke="#333333" stroke-width="5" pointer-events="all"/></g><g><rect x="2931.58" y="209.42" width="72.82" height="74.08" fill="#222222" stroke="#333333" stroke-width="5" pointer-events="all"/></g><g><rect x="3011.68" y="209.42" width="72.82" height="74.08" fill="#222222" stroke="#333333" stroke-width="5" pointer-events="all"/></g><g><rect x="3091.78" y="209.42" width="72.82" height="74.08" fill="#222222" stroke="#333333" stroke-width="5" pointer-events="all"/></g><g><rect x="3171.87" y="209.42" width="72.82" height="74.08" fill="#222222" stroke="#333333" stroke-width="5" pointer-events="all"/></g><g><rect x="3251.97" y="209.42" width="72.82" height="74.08" fill="#222222" stroke="#333333" stroke-width="5" pointer-events="all"/></g><g><rect x="3332.07" y="209.42" width="72.82" height="74.08" fill="#222222" stroke="#333333" stroke-width="5" pointer-events="all"/></g><g><rect x="3412.17" y="209.42" width="72.82" height="74.08" fill="#222222" stroke="#333333" stroke-width="5" pointer-events="all"/></g><g><rect x="3561.1" y="209.62" width="72.82" height="74.08" fill="#222222" stroke="#333333" stroke-width="5" pointer-events="all"/></g><g><rect x="3641.19" y="209.62" width="72.82" height="74.08" fill="#222222" stroke="#333333" stroke-width="5" pointer-events="all"/></g><g><rect x="3721.29" y="209.62" width="72.82" height="74.08" fill="#222222" stroke="#333333" stroke-width="5" pointer-events="all"/></g><g><rect x="3801.39" y="209.62" width="72.82" height="74.08" fill="#222222" stroke="#333333" stroke-width="5" pointer-events="all"/></g><g><rect x="3881.49" y="209.62" width="72.82" height="74.08" fill="#222222" stroke="#333333" stroke-width="5" pointer-events="all"/></g><g><rect x="3961.58" y="209.62" width="72.82" height="74.08" fill="#222222" stroke="#333333" stroke-width="5" pointer-events="all"/></g><g><rect x="4041.68" y="209.62" width="72.82" height="74.08" fill="#222222" stroke="#333333" stroke-width="5" pointer-events="all"/></g><g><rect x="4121.78" y="209.62" width="72.82" height="74.08" fill="#222222" stroke="#333333" stroke-width="5" pointer-events="all"/></g><g><rect x="4201.88" y="209.62" width="72.82" height="74.08" fill="#222222" stroke="#333333" stroke-width="5" pointer-events="all"/></g><g><rect x="4281.97" y="209.62" width="72.82" height="74.08" fill="#222222" stroke="#333333" stroke-width="5" pointer-events="all"/></g><g><rect x="4362.07" y="209.62" width="72.82" height="74.08" fill="#222222" stroke="#333333" stroke-width="5" pointer-events="all"/></g><g><rect x="4442.17" y="209.62" width="72.82" height="74.08" fill="#222222" stroke="#333333" stroke-width="5" pointer-events="all"/></g><g><rect x="4522.27" y="209.62" width="72.82" height="74.08" fill="#222222" stroke="#333333" stroke-width="5" pointer-events="all"/></g></g></svg>