<?xml version="1.0" encoding="UTF-8"?>
<!DOCTYPE svg PUBLIC "-//W3C//DTD SVG 1.1//EN" "http://www.w3.org/Graphics/SVG/1.1/DTD/svg11.dtd">
<svg xmlns="http://www.w3.org/2000/svg" xmlns:xlink="http://www.w3.org/1999/xlink" version="1.1" width="4836px" height="900px" viewBox="-0.5 -0.5 4836 900"><defs/><g><g/><g><rect x="0" y="0" width="4826" height="889" fill="#bfbfbf" stroke="#aaaaaa" stroke-width="10" pointer-events="all"/></g><g><rect x="180" y="0" width="4466" height="889" fill="#222222" stroke="#aaaaaa" stroke-width="10" pointer-events="all"/></g><g/><g><rect x="69.96" y="636.8" width="40" height="60" fill="#000000" stroke="none" pointer-events="all"/></g><g><ellipse cx="109.96" cy="666.8" rx="30" ry="30" fill="#000000" stroke="none" pointer-events="all"/></g><g><ellipse cx="69.96" cy="666.8" rx="30" ry="30" fill="#000000" stroke="none" pointer-events="all"/></g><g/><g><rect x="198.3" y="610.11" width="1099.52" height="261.79" fill="#333333" stroke="none" pointer-events="all"/></g><g><rect x="229.71" y="641.52" width="1015.75" height="198.96" fill="#222222" stroke="#222222" stroke-width="5" pointer-events="all"/></g><g><rect x="1250.7" y="824.78" width="41.89" height="31.41" rx="4.71" ry="4.71" fill="#60a917" stroke="#222222" transform="rotate(90,1271.64,840.48)" pointer-events="all"/></g><g><rect x="1250.7" y="730.53" width="41.89" height="31.41" rx="4.71" ry="4.71" fill="#0050ef" stroke="#222222" transform="rotate(90,1271.64,746.24)" pointer-events="all"/></g><g><rect x="983.67" y="672.94" width="83.77" height="136.13" rx="12.57" ry="12.57" fill="#0050ef" stroke="none" pointer-events="all"/></g><g><path d="M 1056.97 672.94 Q 1088.39 672.94 1088.39 741 Q 1088.39 809.07 1056.97 809.07 Z" fill="#0050ef" stroke="none" pointer-events="all"/></g><g><path d="M 1271.58 698.77 C 1272.51 698.77 1273.18 698.11 1273.18 697.24 L 1273.18 690.95 C 1273.18 690.13 1272.62 689.37 1271.69 689.37 C 1270.75 689.37 1270.1 690.12 1270.1 690.8 L 1270.1 697.25 C 1270.1 698.1 1270.83 698.77 1271.58 698.77 Z M 1271.59 708.87 C 1276.59 708.87 1280.72 704.86 1280.72 699.91 C 1280.72 697.41 1279.82 694.61 1277.07 692.57 C 1276.56 692.18 1275.54 692.38 1275.07 693 C 1274.65 693.62 1274.62 694.52 1275.31 695.18 C 1276.68 696.27 1277.58 697.98 1277.58 699.74 C 1277.58 703.17 1274.65 705.72 1271.71 705.72 C 1268.82 705.72 1265.93 703.61 1265.73 699.84 C 1265.69 698.32 1266.54 696.16 1268.06 695.1 C 1268.58 694.67 1268.79 693.71 1268.15 692.96 C 1267.54 692.18 1266.56 692.31 1266.13 692.65 C 1263.8 694.55 1262.67 696.69 1262.61 699.63 C 1262.61 705.12 1266.79 708.87 1271.59 708.87 Z M 1271.64 714.82 C 1262.69 714.82 1255.93 707.57 1255.93 699.05 C 1255.93 690.5 1262.96 683.41 1271.79 683.41 C 1279.89 683.41 1287.35 689.97 1287.35 699.02 C 1287.35 708.48 1279.79 714.82 1271.64 714.82 Z" fill="none" stroke="#222222" stroke-miterlimit="10" pointer-events="all"/></g><g><path d="M 1255.93 803.83 L 1255.93 782.89 C 1255.93 780 1262.97 777.65 1271.64 777.65 C 1280.32 777.65 1287.35 780 1287.35 782.89 L 1287.35 803.83 C 1287.35 806.73 1280.32 809.07 1271.64 809.07 C 1262.97 809.07 1255.93 806.73 1255.93 803.83 Z" fill="none" stroke="#222222" stroke-miterlimit="10" pointer-events="all"/><path d="M 1255.93 782.89 C 1255.93 785.78 1262.97 788.13 1271.64 788.13 C 1280.32 788.13 1287.35 785.78 1287.35 782.89" fill="none" stroke="#222222" stroke-miterlimit="10" pointer-events="all"/></g><g><rect x="229.71" y="641.52" width="806.32" height="198.96" fill="#333333" stroke="none" pointer-events="all"/></g><g><rect x="889.43" y="667.7" width="41.89" height="146.6" fill="#2d2d2d" stroke="none" pointer-events="all"/></g><g><rect x="292.54" y="667.7" width="41.89" height="146.6" fill="#2d2d2d" stroke="none" pointer-events="all"/></g><g><rect x="334.43" y="667.7" width="555" height="20.94" fill="#222222" stroke="none" pointer-events="all"/></g><g><rect x="334.43" y="709.59" width="555" height="20.94" fill="#222222" stroke="none" pointer-events="all"/></g><g><rect x="334.43" y="751.48" width="555" height="20.94" fill="#222222" stroke="none" pointer-events="all"/></g><g><rect x="334.43" y="793.36" width="555" height="20.94" fill="#222222" stroke="none" pointer-events="all"/></g><g><rect x="501.98" y="667.7" width="20.94" height="146.6" fill="#2d2d2d" stroke="none" pointer-events="all"/></g><g><rect x="700.94" y="667.7" width="20.94" height="146.6" fill="#2d2d2d" stroke="none" pointer-events="all"/></g><g><rect x="334.43" y="772.42" width="555" height="20.94" fill="#333333" stroke="none" pointer-events="all"/></g><g><rect x="334.43" y="730.53" width="555" height="20.94" fill="#333333" stroke="none" pointer-events="all"/></g><g><rect x="334.43" y="688.65" width="555" height="20.94" fill="#333333" stroke="none" pointer-events="all"/></g><g><rect x="1308.29" y="610.11" width="1099.52" height="261.79" fill="#333333" stroke="none" pointer-events="all"/></g><g><rect x="1339.71" y="641.52" width="1015.75" height="198.96" fill="#222222" stroke="#222222" stroke-width="5" pointer-events="all"/></g><g><rect x="2360.69" y="824.78" width="41.89" height="31.41" rx="4.71" ry="4.71" fill="#60a917" stroke="#222222" transform="rotate(90,2381.64,840.48)" pointer-events="all"/></g><g><rect x="2360.69" y="730.53" width="41.89" height="31.41" rx="4.71" ry="4.71" fill="#0050ef" stroke="#222222" transform="rotate(90,2381.64,746.24)" pointer-events="all"/></g><g><rect x="2093.67" y="672.94" width="83.77" height="136.13" rx="12.57" ry="12.57" fill="#0050ef" stroke="none" pointer-events="all"/></g><g><path d="M 2166.97 672.94 Q 2198.38 672.94 2198.38 741 Q 2198.38 809.07 2166.97 809.07 Z" fill="#0050ef" stroke="none" pointer-events="all"/></g><g><path d="M 2381.57 698.77 C 2382.51 698.77 2383.17 698.11 2383.17 697.24 L 2383.17 690.95 C 2383.17 690.13 2382.61 689.37 2381.68 689.37 C 2380.74 689.37 2380.09 690.12 2380.09 690.8 L 2380.09 697.25 C 2380.09 698.1 2380.82 698.77 2381.57 698.77 Z M 2381.58 708.87 C 2386.58 708.87 2390.71 704.86 2390.71 699.91 C 2390.71 697.41 2389.81 694.61 2387.06 692.57 C 2386.56 692.18 2385.53 692.38 2385.07 693 C 2384.64 693.62 2384.61 694.52 2385.3 695.18 C 2386.67 696.27 2387.57 697.98 2387.57 699.74 C 2387.57 703.17 2384.64 705.72 2381.71 705.72 C 2378.81 705.72 2375.93 703.61 2375.72 699.84 C 2375.68 698.32 2376.54 696.16 2378.05 695.1 C 2378.57 694.67 2378.79 693.71 2378.14 692.96 C 2377.54 692.18 2376.55 692.31 2376.12 692.65 C 2373.79 694.55 2372.67 696.69 2372.6 699.63 C 2372.6 705.12 2376.78 708.87 2381.58 708.87 Z M 2381.63 714.82 C 2372.68 714.82 2365.93 707.57 2365.93 699.05 C 2365.93 690.5 2372.95 683.41 2381.78 683.41 C 2389.89 683.41 2397.34 689.97 2397.34 699.02 C 2397.34 708.48 2389.78 714.82 2381.63 714.82 Z" fill="none" stroke="#222222" stroke-miterlimit="10" pointer-events="all"/></g><g><path d="M 2365.93 803.83 L 2365.93 782.89 C 2365.93 780 2372.96 777.65 2381.64 777.65 C 2390.31 777.65 2397.34 780 2397.34 782.89 L 2397.34 803.83 C 2397.34 806.73 2390.31 809.07 2381.64 809.07 C 2372.96 809.07 2365.93 806.73 2365.93 803.83 Z" fill="none" stroke="#222222" stroke-miterlimit="10" pointer-events="all"/><path d="M 2365.93 782.89 C 2365.93 785.78 2372.96 788.13 2381.64 788.13 C 2390.31 788.13 2397.34 785.78 2397.34 782.89" fill="none" stroke="#222222" stroke-miterlimit="10" pointer-events="all"/></g><g><rect x="1339.71" y="641.52" width="806.32" height="198.96" fill="#333333" stroke="none" pointer-events="all"/></g><g><rect x="1999.42" y="667.7" width="41.89" height="146.6" fill="#2d2d2d" stroke="none" pointer-events="all"/></g><g><rect x="1402.54" y="667.7" width="41.89" height="146.6" fill="#2d2d2d" stroke="none" pointer-events="all"/></g><g><rect x="1444.42" y="667.7" width="555" height="20.94" fill="#222222" stroke="none" pointer-events="all"/></g><g><rect x="1444.42" y="709.59" width="555" height="20.94" fill="#222222" stroke="none" pointer-events="all"/></g><g><rect x="1444.42" y="751.48" width="555" height="20.94" fill="#222222" stroke="none" pointer-events="all"/></g><g><rect x="1444.42" y="793.36" width="555" height="20.94" fill="#222222" stroke="none" pointer-events="all"/></g><g><rect x="1611.97" y="667.7" width="20.94" height="146.6" fill="#2d2d2d" stroke="none" pointer-events="all"/></g><g><rect x="1810.93" y="667.7" width="20.94" height="146.6" fill="#2d2d2d" stroke="none" pointer-events="all"/></g><g><rect x="1444.42" y="772.42" width="555" height="20.94" fill="#333333" stroke="none" pointer-events="all"/></g><g><rect x="1444.42" y="730.53" width="555" height="20.94" fill="#333333" stroke="none" pointer-events="all"/></g><g><rect x="1444.42" y="688.65" width="555" height="20.94" fill="#333333" stroke="none" pointer-events="all"/></g><g><rect x="2418.29" y="610.11" width="1099.52" height="261.79" fill="#333333" stroke="none" pointer-events="all"/></g><g><rect x="2449.7" y="641.52" width="1015.75" height="198.96" fill="#222222" stroke="#222222" stroke-width="5" pointer-events="all"/></g><g><rect x="3470.68" y="824.78" width="41.89" height="31.41" rx="4.71" ry="4.71" fill="#60a917" stroke="#222222" transform="rotate(90,3491.63,840.48)" pointer-events="all"/></g><g><rect x="3470.68" y="730.53" width="41.89" height="31.41" rx="4.71" ry="4.71" fill="#0050ef" stroke="#222222" transform="rotate(90,3491.63,746.24)" pointer-events="all"/></g><g><rect x="3203.66" y="672.94" width="83.77" height="136.13" rx="12.57" ry="12.57" fill="#0050ef" stroke="none" pointer-events="all"/></g><g><path d="M 3276.96 672.94 Q 3308.37 672.94 3308.37 741 Q 3308.37 809.07 3276.96 809.07 Z" fill="#0050ef" stroke="none" pointer-events="all"/></g><g><path d="M 3491.56 698.77 C 3492.5 698.77 3493.16 698.11 3493.16 697.24 L 3493.16 690.95 C 3493.16 690.13 3492.6 689.37 3491.67 689.37 C 3490.74 689.37 3490.09 690.12 3490.09 690.8 L 3490.09 697.25 C 3490.09 698.1 3490.81 698.77 3491.56 698.77 Z M 3491.58 708.87 C 3496.57 708.87 3500.71 704.86 3500.71 699.91 C 3500.71 697.41 3499.81 694.61 3497.06 692.57 C 3496.55 692.18 3495.52 692.38 3495.06 693 C 3494.63 693.62 3494.6 694.52 3495.3 695.18 C 3496.66 696.27 3497.56 697.98 3497.56 699.74 C 3497.56 703.17 3494.64 705.72 3491.7 705.72 C 3488.81 705.72 3485.92 703.61 3485.71 699.84 C 3485.67 698.32 3486.53 696.16 3488.05 695.1 C 3488.57 694.67 3488.78 693.71 3488.14 692.96 C 3487.53 692.18 3486.54 692.31 3486.12 692.65 C 3483.78 694.55 3482.66 696.69 3482.6 699.63 C 3482.6 705.12 3486.78 708.87 3491.58 708.87 Z M 3491.62 714.82 C 3482.67 714.82 3475.92 707.57 3475.92 699.05 C 3475.92 690.5 3482.94 683.41 3491.77 683.41 C 3499.88 683.41 3507.34 689.97 3507.34 699.02 C 3507.34 708.48 3499.78 714.82 3491.62 714.82 Z" fill="none" stroke="#222222" stroke-miterlimit="10" pointer-events="all"/></g><g><path d="M 3475.92 803.83 L 3475.92 782.89 C 3475.92 780 3482.95 777.65 3491.63 777.65 C 3500.3 777.65 3507.34 780 3507.34 782.89 L 3507.34 803.83 C 3507.34 806.73 3500.3 809.07 3491.63 809.07 C 3482.95 809.07 3475.92 806.73 3475.92 803.83 Z" fill="none" stroke="#222222" stroke-miterlimit="10" pointer-events="all"/><path d="M 3475.92 782.89 C 3475.92 785.78 3482.95 788.13 3491.63 788.13 C 3500.3 788.13 3507.34 785.78 3507.34 782.89" fill="none" stroke="#222222" stroke-miterlimit="10" pointer-events="all"/></g><g><rect x="2449.7" y="641.52" width="806.32" height="198.96" fill="#333333" stroke="none" pointer-events="all"/></g><g><rect x="3109.41" y="667.7" width="41.89" height="146.6" fill="#2d2d2d" stroke="none" pointer-events="all"/></g><g><rect x="2512.53" y="667.7" width="41.89" height="146.6" fill="#2d2d2d" stroke="none" pointer-events="all"/></g><g><rect x="2554.42" y="667.7" width="555" height="20.94" fill="#222222" stroke="none" pointer-events="all"/></g><g><rect x="2554.42" y="709.59" width="555" height="20.94" fill="#222222" stroke="none" pointer-events="all"/></g><g><rect x="2554.42" y="751.48" width="555" height="20.94" fill="#222222" stroke="none" pointer-events="all"/></g><g><rect x="2554.42" y="793.36" width="555" height="20.94" fill="#222222" stroke="none" pointer-events="all"/></g><g><rect x="2721.96" y="667.7" width="20.94" height="146.6" fill="#2d2d2d" stroke="none" pointer-events="all"/></g><g><rect x="2920.92" y="667.7" width="20.94" height="146.6" fill="#2d2d2d" stroke="none" pointer-events="all"/></g><g><rect x="2554.42" y="772.42" width="555" height="20.94" fill="#333333" stroke="none" pointer-events="all"/></g><g><rect x="2554.42" y="730.53" width="555" height="20.94" fill="#333333" stroke="none" pointer-events="all"/></g><g><rect x="2554.42" y="688.65" width="555" height="20.94" fill="#333333" stroke="none" pointer-events="all"/></g><g><rect x="3528.28" y="610.11" width="1099.52" height="261.79" fill="#333333" stroke="none" pointer-events="all"/></g><g><rect x="3559.69" y="641.52" width="1015.75" height="198.96" fill="#222222" stroke="#222222" stroke-width="5" pointer-events="all"/></g><g><rect x="4580.68" y="824.78" width="41.89" height="31.41" rx="4.71" ry="4.71" fill="#60a917" stroke="#222222" transform="rotate(90,4601.62,840.48)" pointer-events="all"/></g><g><rect x="4580.68" y="730.53" width="41.89" height="31.41" rx="4.71" ry="4.71" fill="#0050ef" stroke="#222222" transform="rotate(90,4601.62,746.24)" pointer-events="all"/></g><g><rect x="4313.65" y="672.94" width="83.77" height="136.13" rx="12.57" ry="12.57" fill="#0050ef" stroke="none" pointer-events="all"/></g><g><path d="M 4386.95 672.94 Q 4418.37 672.94 4418.37 741 Q 4418.37 809.07 4386.95 809.07 Z" fill="#0050ef" stroke="none" pointer-events="all"/></g><g><path d="M 4601.56 698.77 C 4602.49 698.77 4603.15 698.11 4603.15 697.24 L 4603.15 690.95 C 4603.15 690.13 4602.59 689.37 4601.66 689.37 C 4600.73 689.37 4600.08 690.12 4600.08 690.8 L 4600.08 697.25 C 4600.08 698.1 4600.81 698.77 4601.56 698.77 Z M 4601.57 708.87 C 4606.57 708.87 4610.7 704.86 4610.7 699.91 C 4610.7 697.41 4609.8 694.61 4607.05 692.57 C 4606.54 692.18 4605.52 692.38 4605.05 693 C 4604.63 693.62 4604.6 694.52 4605.29 695.18 C 4606.66 696.27 4607.55 697.98 4607.55 699.74 C 4607.55 703.17 4604.63 705.72 4601.69 705.72 C 4598.8 705.72 4595.91 703.61 4595.71 699.84 C 4595.66 698.32 4596.52 696.16 4598.04 695.1 C 4598.56 694.67 4598.77 693.71 4598.13 692.96 C 4597.52 692.18 4596.53 692.31 4596.11 692.65 C 4593.77 694.55 4592.65 696.69 4592.59 699.63 C 4592.59 705.12 4596.77 708.87 4601.57 708.87 Z M 4601.61 714.82 C 4592.67 714.82 4585.91 707.57 4585.91 699.05 C 4585.91 690.5 4592.94 683.41 4601.77 683.41 C 4609.87 683.41 4617.33 689.97 4617.33 699.02 C 4617.33 708.48 4609.77 714.82 4601.61 714.82 Z" fill="none" stroke="#222222" stroke-miterlimit="10" pointer-events="all"/></g><g><path d="M 4585.91 803.83 L 4585.91 782.89 C 4585.91 780 4592.95 777.65 4601.62 777.65 C 4610.3 777.65 4617.33 780 4617.33 782.89 L 4617.33 803.83 C 4617.33 806.73 4610.3 809.07 4601.62 809.07 C 4592.95 809.07 4585.91 806.73 4585.91 803.83 Z" fill="none" stroke="#222222" stroke-miterlimit="10" pointer-events="all"/><path d="M 4585.91 782.89 C 4585.91 785.78 4592.95 788.13 4601.62 788.13 C 4610.3 788.13 4617.33 785.78 4617.33 782.89" fill="none" stroke="#222222" stroke-miterlimit="10" pointer-events="all"/></g><g><rect x="3559.69" y="641.52" width="806.32" height="198.96" fill="#333333" stroke="none" pointer-events="all"/></g><g><rect x="4219.41" y="667.7" width="41.89" height="146.6" fill="#2d2d2d" stroke="none" pointer-events="all"/></g><g><rect x="3622.52" y="667.7" width="41.89" height="146.6" fill="#2d2d2d" stroke="none" pointer-events="all"/></g><g><rect x="3664.41" y="667.7" width="555" height="20.94" fill="#222222" stroke="none" pointer-events="all"/></g><g><rect x="3664.41" y="709.59" width="555" height="20.94" fill="#222222" stroke="none" pointer-events="all"/></g><g><rect x="3664.41" y="751.48" width="555" height="20.94" fill="#222222" stroke="none" pointer-events="all"/></g><g><rect x="3664.41" y="793.36" width="555" height="20.94" fill="#222222" stroke="none" pointer-events="all"/></g><g><rect x="3831.96" y="667.7" width="20.94" height="146.6" fill="#2d2d2d" stroke="none" pointer-events="all"/></g><g><rect x="4030.92" y="667.7" width="20.94" height="146.6" fill="#2d2d2d" stroke="none" pointer-events="all"/></g><g><rect x="3664.41" y="772.42" width="555" height="20.94" fill="#333333" stroke="none" pointer-events="all"/></g><g><rect x="3664.41" y="730.53" width="555" height="20.94" fill="#333333" stroke="none" pointer-events="all"/></g><g><rect x="3664.41" y="688.65" width="555" height="20.94" fill="#333333" stroke="none" pointer-events="all"/></g><g/><g><rect x="198.3" y="318.31" width="1099.52" height="261.79" fill="#333333" stroke="none" pointer-events="all"/></g><g><rect x="229.71" y="349.72" width="1015.75" height="198.96" fill="#222222" stroke="#222222" stroke-width="5" pointer-events="all"/></g><g><rect x="1250.7" y="532.98" width="41.89" height="31.41" rx="4.71" ry="4.71" fill="#60a917" stroke="#222222" transform="rotate(90,1271.64,548.68)" pointer-events="all"/></g><g><rect x="1250.7" y="438.73" width="41.89" height="31.41" rx="4.71" ry="4.71" fill="#0050ef" stroke="#222222" transform="rotate(90,1271.64,454.44)" pointer-events="all"/></g><g><rect x="983.67" y="381.14" width="83.77" height="136.13" rx="12.57" ry="12.57" fill="#0050ef" stroke="none" pointer-events="all"/></g><g><path d="M 1056.97 381.14 Q 1088.39 381.14 1088.39 449.2 Q 1088.39 517.27 1056.97 517.27 Z" fill="#0050ef" stroke="none" pointer-events="all"/></g><g><path d="M 1271.58 406.97 C 1272.51 406.97 1273.18 406.31 1273.18 405.44 L 1273.18 399.15 C 1273.18 398.33 1272.62 397.57 1271.69 397.57 C 1270.75 397.57 1270.1 398.32 1270.1 399 L 1270.1 405.45 C 1270.1 406.3 1270.83 406.97 1271.58 406.97 Z M 1271.59 417.07 C 1276.59 417.07 1280.72 413.06 1280.72 408.11 C 1280.72 405.61 1279.82 402.81 1277.07 400.77 C 1276.56 400.38 1275.54 400.58 1275.07 401.2 C 1274.65 401.82 1274.62 402.72 1275.31 403.38 C 1276.68 404.47 1277.58 406.18 1277.58 407.94 C 1277.58 411.37 1274.65 413.92 1271.71 413.92 C 1268.82 413.92 1265.93 411.81 1265.73 408.04 C 1265.69 406.52 1266.54 404.36 1268.06 403.3 C 1268.58 402.87 1268.79 401.91 1268.15 401.16 C 1267.54 400.38 1266.56 400.51 1266.13 400.85 C 1263.8 402.75 1262.67 404.89 1262.61 407.83 C 1262.61 413.32 1266.79 417.07 1271.59 417.07 Z M 1271.64 423.02 C 1262.69 423.02 1255.93 415.77 1255.93 407.25 C 1255.93 398.7 1262.96 391.61 1271.79 391.61 C 1279.89 391.61 1287.35 398.17 1287.35 407.22 C 1287.35 416.68 1279.79 423.02 1271.64 423.02 Z" fill="none" stroke="#222222" stroke-miterlimit="10" pointer-events="all"/></g><g><path d="M 1255.93 512.03 L 1255.93 491.09 C 1255.93 488.2 1262.97 485.85 1271.64 485.85 C 1280.32 485.85 1287.35 488.2 1287.35 491.09 L 1287.35 512.03 C 1287.35 514.93 1280.32 517.27 1271.64 517.27 C 1262.97 517.27 1255.93 514.93 1255.93 512.03 Z" fill="none" stroke="#222222" stroke-miterlimit="10" pointer-events="all"/><path d="M 1255.93 491.09 C 1255.93 493.98 1262.97 496.33 1271.64 496.33 C 1280.32 496.33 1287.35 493.98 1287.35 491.09" fill="none" stroke="#222222" stroke-miterlimit="10" pointer-events="all"/></g><g><rect x="229.71" y="349.72" width="806.32" height="198.96" fill="#333333" stroke="none" pointer-events="all"/></g><g><rect x="889.43" y="375.9" width="41.89" height="146.6" fill="#2d2d2d" stroke="none" pointer-events="all"/></g><g><rect x="292.54" y="375.9" width="41.89" height="146.6" fill="#2d2d2d" stroke="none" pointer-events="all"/></g><g><rect x="334.43" y="375.9" width="555" height="20.94" fill="#222222" stroke="none" pointer-events="all"/></g><g><rect x="334.43" y="417.79" width="555" height="20.94" fill="#222222" stroke="none" pointer-events="all"/></g><g><rect x="334.43" y="459.68" width="555" height="20.94" fill="#222222" stroke="none" pointer-events="all"/></g><g><rect x="334.43" y="501.56" width="555" height="20.94" fill="#222222" stroke="none" pointer-events="all"/></g><g><rect x="501.98" y="375.9" width="20.94" height="146.6" fill="#2d2d2d" stroke="none" pointer-events="all"/></g><g><rect x="700.94" y="375.9" width="20.94" height="146.6" fill="#2d2d2d" stroke="none" pointer-events="all"/></g><g><rect x="334.43" y="480.62" width="555" height="20.94" fill="#333333" stroke="none" pointer-events="all"/></g><g><rect x="334.43" y="438.73" width="555" height="20.94" fill="#333333" stroke="none" pointer-events="all"/></g><g><rect x="334.43" y="396.85" width="555" height="20.94" fill="#333333" stroke="none" pointer-events="all"/></g><g><rect x="1308.29" y="318.31" width="1099.52" height="261.79" fill="#333333" stroke="none" pointer-events="all"/></g><g><rect x="1339.71" y="349.72" width="1015.75" height="198.96" fill="#222222" stroke="#222222" stroke-width="5" pointer-events="all"/></g><g><rect x="2360.69" y="532.98" width="41.89" height="31.41" rx="4.71" ry="4.71" fill="#60a917" stroke="#222222" transform="rotate(90,2381.64,548.68)" pointer-events="all"/></g><g><rect x="2360.69" y="438.73" width="41.89" height="31.41" rx="4.71" ry="4.71" fill="#0050ef" stroke="#222222" transform="rotate(90,2381.64,454.44)" pointer-events="all"/></g><g><rect x="2093.67" y="381.14" width="83.77" height="136.13" rx="12.57" ry="12.57" fill="#0050ef" stroke="none" pointer-events="all"/></g><g><path d="M 2166.97 381.14 Q 2198.38 381.14 2198.38 449.2 Q 2198.38 517.27 2166.97 517.27 Z" fill="#0050ef" stroke="none" pointer-events="all"/></g><g><path d="M 2381.57 406.97 C 2382.51 406.97 2383.17 406.31 2383.17 405.44 L 2383.17 399.15 C 2383.17 398.33 2382.61 397.57 2381.68 397.57 C 2380.74 397.57 2380.09 398.32 2380.09 399 L 2380.09 405.45 C 2380.09 406.3 2380.82 406.97 2381.57 406.97 Z M 2381.58 417.07 C 2386.58 417.07 2390.71 413.06 2390.71 408.11 C 2390.71 405.61 2389.81 402.81 2387.06 400.77 C 2386.56 400.38 2385.53 400.58 2385.07 401.2 C 2384.64 401.82 2384.61 402.72 2385.3 403.38 C 2386.67 404.47 2387.57 406.18 2387.57 407.94 C 2387.57 411.37 2384.64 413.92 2381.71 413.92 C 2378.81 413.92 2375.93 411.81 2375.72 408.04 C 2375.68 406.52 2376.54 404.36 2378.05 403.3 C 2378.57 402.87 2378.79 401.91 2378.14 401.16 C 2377.54 400.38 2376.55 400.51 2376.12 400.85 C 2373.79 402.75 2372.67 404.89 2372.6 407.83 C 2372.6 413.32 2376.78 417.07 2381.58 417.07 Z M 2381.63 423.02 C 2372.68 423.02 2365.93 415.77 2365.93 407.25 C 2365.93 398.7 2372.95 391.61 2381.78 391.61 C 2389.89 391.61 2397.34 398.17 2397.34 407.22 C 2397.34 416.68 2389.78 423.02 2381.63 423.02 Z" fill="none" stroke="#222222" stroke-miterlimit="10" pointer-events="all"/></g><g><path d="M 2365.93 512.03 L 2365.93 491.09 C 2365.93 488.2 2372.96 485.85 2381.64 485.85 C 2390.31 485.85 2397.34 488.2 2397.34 491.09 L 2397.34 512.03 C 2397.34 514.93 2390.31 517.27 2381.64 517.27 C 2372.96 517.27 2365.93 514.93 2365.93 512.03 Z" fill="none" stroke="#222222" stroke-miterlimit="10" pointer-events="all"/><path d="M 2365.93 491.09 C 2365.93 493.98 2372.96 496.33 2381.64 496.33 C 2390.31 496.33 2397.34 493.98 2397.34 491.09" fill="none" stroke="#222222" stroke-miterlimit="10" pointer-events="all"/></g><g><rect x="1339.71" y="349.72" width="806.32" height="198.96" fill="#333333" stroke="none" pointer-events="all"/></g><g><rect x="1999.42" y="375.9" width="41.89" height="146.6" fill="#2d2d2d" stroke="none" pointer-events="all"/></g><g><rect x="1402.54" y="375.9" width="41.89" height="146.6" fill="#2d2d2d" stroke="none" pointer-events="all"/></g><g><rect x="1444.42" y="375.9" width="555" height="20.94" fill="#222222" stroke="none" pointer-events="all"/></g><g><rect x="1444.42" y="417.79" width="555" height="20.94" fill="#222222" stroke="none" pointer-events="all"/></g><g><rect x="1444.42" y="459.68" width="555" height="20.94" fill="#222222" stroke="none" pointer-events="all"/></g><g><rect x="1444.42" y="501.56" width="555" height="20.94" fill="#222222" stroke="none" pointer-events="all"/></g><g><rect x="1611.97" y="375.9" width="20.94" height="146.6" fill="#2d2d2d" stroke="none" pointer-events="all"/></g><g><rect x="1810.93" y="375.9" width="20.94" height="146.6" fill="#2d2d2d" stroke="none" pointer-events="all"/></g><g><rect x="1444.42" y="480.62" width="555" height="20.94" fill="#333333" stroke="none" pointer-events="all"/></g><g><rect x="1444.42" y="438.73" width="555" height="20.94" fill="#333333" stroke="none" pointer-events="all"/></g><g><rect x="1444.42" y="396.85" width="555" height="20.94" fill="#333333" stroke="none" pointer-events="all"/></g><g><rect x="2418.29" y="318.31" width="1099.52" height="261.79" fill="#333333" stroke="none" pointer-events="all"/></g><g><rect x="2449.7" y="349.72" width="1015.75" height="198.96" fill="#222222" stroke="#222222" stroke-width="5" pointer-events="all"/></g><g><rect x="3470.68" y="532.98" width="41.89" height="31.41" rx="4.71" ry="4.71" fill="#60a917" stroke="#222222" transform="rotate(90,3491.63,548.68)" pointer-events="all"/></g><g><rect x="3470.68" y="438.73" width="41.89" height="31.41" rx="4.71" ry="4.71" fill="#0050ef" stroke="#222222" transform="rotate(90,3491.63,454.44)" pointer-events="all"/></g><g><rect x="3203.66" y="381.14" width="83.77" height="136.13" rx="12.57" ry="12.57" fill="#0050ef" stroke="none" pointer-events="all"/></g><g><path d="M 3276.96 381.14 Q 3308.37 381.14 3308.37 449.2 Q 3308.37 517.27 3276.96 517.27 Z" fill="#0050ef" stroke="none" pointer-events="all"/></g><g><path d="M 3491.56 406.97 C 3492.5 406.97 3493.16 406.31 3493.16 405.44 L 3493.16 399.15 C 3493.16 398.33 3492.6 397.57 3491.67 397.57 C 3490.74 397.57 3490.09 398.32 3490.09 399 L 3490.09 405.45 C 3490.09 406.3 3490.81 406.97 3491.56 406.97 Z M 3491.58 417.07 C 3496.57 417.07 3500.71 413.06 3500.71 408.11 C 3500.71 405.61 3499.81 402.81 3497.06 400.77 C 3496.55 400.38 3495.52 400.58 3495.06 401.2 C 3494.63 401.82 3494.6 402.72 3495.3 403.38 C 3496.66 404.47 3497.56 406.18 3497.56 407.94 C 3497.56 411.37 3494.64 413.92 3491.7 413.92 C 3488.81 413.92 3485.92 411.81 3485.71 408.04 C 3485.67 406.52 3486.53 404.36 3488.05 403.3 C 3488.57 402.87 3488.78 401.91 3488.14 401.16 C 3487.53 400.38 3486.54 400.51 3486.12 400.85 C 3483.78 402.75 3482.66 404.89 3482.6 407.83 C 3482.6 413.32 3486.78 417.07 3491.58 417.07 Z M 3491.62 423.02 C 3482.67 423.02 3475.92 415.77 3475.92 407.25 C 3475.92 398.7 3482.94 391.61 3491.77 391.61 C 3499.88 391.61 3507.34 398.17 3507.34 407.22 C 3507.34 416.68 3499.78 423.02 3491.62 423.02 Z" fill="none" stroke="#222222" stroke-miterlimit="10" pointer-events="all"/></g><g><path d="M 3475.92 512.03 L 3475.92 491.09 C 3475.92 488.2 3482.95 485.85 3491.63 485.85 C 3500.3 485.85 3507.34 488.2 3507.34 491.09 L 3507.34 512.03 C 3507.34 514.93 3500.3 517.27 3491.63 517.27 C 3482.95 517.27 3475.92 514.93 3475.92 512.03 Z" fill="none" stroke="#222222" stroke-miterlimit="10" pointer-events="all"/><path d="M 3475.92 491.09 C 3475.92 493.98 3482.95 496.33 3491.63 496.33 C 3500.3 496.33 3507.34 493.98 3507.34 491.09" fill="none" stroke="#222222" stroke-miterlimit="10" pointer-events="all"/></g><g><rect x="2449.7" y="349.72" width="806.32" height="198.96" fill="#333333" stroke="none" pointer-events="all"/></g><g><rect x="3109.41" y="375.9" width="41.89" height="146.6" fill="#2d2d2d" stroke="none" pointer-events="all"/></g><g><rect x="2512.53" y="375.9" width="41.89" height="146.6" fill="#2d2d2d" stroke="none" pointer-events="all"/></g><g><rect x="2554.42" y="375.9" width="555" height="20.94" fill="#222222" stroke="none" pointer-events="all"/></g><g><rect x="2554.42" y="417.79" width="555" height="20.94" fill="#222222" stroke="none" pointer-events="all"/></g><g><rect x="2554.42" y="459.68" width="555" height="20.94" fill="#222222" stroke="none" pointer-events="all"/></g><g><rect x="2554.42" y="501.56" width="555" height="20.94" fill="#222222" stroke="none" pointer-events="all"/></g><g><rect x="2721.96" y="375.9" width="20.94" height="146.6" fill="#2d2d2d" stroke="none" pointer-events="all"/></g><g><rect x="2920.92" y="375.9" width="20.94" height="146.6" fill="#2d2d2d" stroke="none" pointer-events="all"/></g><g><rect x="2554.42" y="480.62" width="555" height="20.94" fill="#333333" stroke="none" pointer-events="all"/></g><g><rect x="2554.42" y="438.73" width="555" height="20.94" fill="#333333" stroke="none" pointer-events="all"/></g><g><rect x="2554.42" y="396.85" width="555" height="20.94" fill="#333333" stroke="none" pointer-events="all"/></g><g><rect x="3528.28" y="318.31" width="1099.52" height="261.79" fill="#333333" stroke="none" pointer-events="all"/></g><g><rect x="3559.69" y="349.72" width="1015.75" height="198.96" fill="#222222" stroke="#222222" stroke-width="5" pointer-events="all"/></g><g><rect x="4580.68" y="532.98" width="41.89" height="31.41" rx="4.71" ry="4.71" fill="#60a917" stroke="#222222" transform="rotate(90,4601.62,548.68)" pointer-events="all"/></g><g><rect x="4580.68" y="438.73" width="41.89" height="31.41" rx="4.71" ry="4.71" fill="#0050ef" stroke="#222222" transform="rotate(90,4601.62,454.44)" pointer-events="all"/></g><g><rect x="4313.65" y="381.14" width="83.77" height="136.13" rx="12.57" ry="12.57" fill="#0050ef" stroke="none" pointer-events="all"/></g><g><path d="M 4386.95 381.14 Q 4418.37 381.14 4418.37 449.2 Q 4418.37 517.27 4386.95 517.27 Z" fill="#0050ef" stroke="none" pointer-events="all"/></g><g><path d="M 4601.56 406.97 C 4602.49 406.97 4603.15 406.31 4603.15 405.44 L 4603.15 399.15 C 4603.15 398.33 4602.59 397.57 4601.66 397.57 C 4600.73 397.57 4600.08 398.32 4600.08 399 L 4600.08 405.45 C 4600.08 406.3 4600.81 406.97 4601.56 406.97 Z M 4601.57 417.07 C 4606.57 417.07 4610.7 413.06 4610.7 408.11 C 4610.7 405.61 4609.8 402.81 4607.05 400.77 C 4606.54 400.38 4605.52 400.58 4605.05 401.2 C 4604.63 401.82 4604.6 402.72 4605.29 403.38 C 4606.66 404.47 4607.55 406.18 4607.55 407.94 C 4607.55 411.37 4604.63 413.92 4601.69 413.92 C 4598.8 413.92 4595.91 411.81 4595.71 408.04 C 4595.66 406.52 4596.52 404.36 4598.04 403.3 C 4598.56 402.87 4598.77 401.91 4598.13 401.16 C 4597.52 400.38 4596.53 400.51 4596.11 400.85 C 4593.77 402.75 4592.65 404.89 4592.59 407.83 C 4592.59 413.32 4596.77 417.07 4601.57 417.07 Z M 4601.61 423.02 C 4592.67 423.02 4585.91 415.77 4585.91 407.25 C 4585.91 398.7 4592.94 391.61 4601.77 391.61 C 4609.87 391.61 4617.33 398.17 4617.33 407.22 C 4617.33 416.68 4609.77 423.02 4601.61 423.02 Z" fill="none" stroke="#222222" stroke-miterlimit="10" pointer-events="all"/></g><g><path d="M 4585.91 512.03 L 4585.91 491.09 C 4585.91 488.2 4592.95 485.85 4601.62 485.85 C 4610.3 485.85 4617.33 488.2 4617.33 491.09 L 4617.33 512.03 C 4617.33 514.93 4610.3 517.27 4601.62 517.27 C 4592.95 517.27 4585.91 514.93 4585.91 512.03 Z" fill="none" stroke="#222222" stroke-miterlimit="10" pointer-events="all"/><path d="M 4585.91 491.09 C 4585.91 493.98 4592.95 496.33 4601.62 496.33 C 4610.3 496.33 4617.33 493.98 4617.33 491.09" fill="none" stroke="#222222" stroke-miterlimit="10" pointer-events="all"/></g><g><rect x="3559.69" y="349.72" width="806.32" height="198.96" fill="#333333" stroke="none" pointer-events="all"/></g><g><rect x="4219.41" y="375.9" width="41.89" height="146.6" fill="#2d2d2d" stroke="none" pointer-events="all"/></g><g><rect x="3622.52" y="375.9" width="41.89" height="146.6" fill="#2d2d2d" stroke="none" pointer-events="all"/></g><g><rect x="3664.41" y="375.9" width="555" height="20.94" fill="#222222" stroke="none" pointer-events="all"/></g><g><rect x="3664.41" y="417.79" width="555" height="20.94" fill="#222222" stroke="none" pointer-events="all"/></g><g><rect x="3664.41" y="459.68" width="555" height="20.94" fill="#222222" stroke="none" pointer-events="all"/></g><g><rect x="3664.41" y="501.56" width="555" height="20.94" fill="#222222" stroke="none" pointer-events="all"/></g><g><rect x="3831.96" y="375.9" width="20.94" height="146.6" fill="#2d2d2d" stroke="none" pointer-events="all"/></g><g><rect x="4030.92" y="375.9" width="20.94" height="146.6" fill="#2d2d2d" stroke="none" pointer-events="all"/></g><g><rect x="3664.41" y="480.62" width="555" height="20.94" fill="#333333" stroke="none" pointer-events="all"/></g><g><rect x="3664.41" y="438.73" width="555" height="20.94" fill="#333333" stroke="none" pointer-events="all"/></g><g><rect x="3664.41" y="396.85" width="555" height="20.94" fill="#333333" stroke="none" pointer-events="all"/></g><g/><g><rect x="198.3" y="26.51" width="1099.52" height="261.79" fill="#333333" stroke="none" pointer-events="all"/></g><g><rect x="229.71" y="57.92" width="1015.75" height="198.96" fill="#222222" stroke="#222222" stroke-width="5" pointer-events="all"/></g><g><rect x="1250.7" y="241.18" width="41.89" height="31.41" rx="4.71" ry="4.71" fill="#60a917" stroke="#222222" transform="rotate(90,1271.64,256.88)" pointer-events="all"/></g><g><rect x="1250.7" y="146.93" width="41.89" height="31.41" rx="4.71" ry="4.71" fill="#0050ef" stroke="#222222" transform="rotate(90,1271.64,162.64)" pointer-events="all"/></g><g><rect x="983.67" y="89.34" width="83.77" height="136.13" rx="12.57" ry="12.57" fill="#0050ef" stroke="none" pointer-events="all"/></g><g><path d="M 1056.97 89.34 Q 1088.39 89.34 1088.39 157.4 Q 1088.39 225.47 1056.97 225.47 Z" fill="#0050ef" stroke="none" pointer-events="all"/></g><g><path d="M 1271.58 115.17 C 1272.51 115.17 1273.18 114.51 1273.18 113.64 L 1273.18 107.35 C 1273.18 106.53 1272.62 105.77 1271.69 105.77 C 1270.75 105.77 1270.1 106.52 1270.1 107.2 L 1270.1 113.65 C 1270.1 114.5 1270.83 115.17 1271.58 115.17 Z M 1271.59 125.27 C 1276.59 125.27 1280.72 121.26 1280.72 116.31 C 1280.72 113.81 1279.82 111.01 1277.07 108.97 C 1276.56 108.58 1275.54 108.78 1275.07 109.4 C 1274.65 110.02 1274.62 110.92 1275.31 111.58 C 1276.68 112.67 1277.58 114.38 1277.58 116.14 C 1277.58 119.57 1274.65 122.12 1271.71 122.12 C 1268.82 122.12 1265.93 120.01 1265.73 116.24 C 1265.69 114.72 1266.54 112.56 1268.06 111.5 C 1268.58 111.07 1268.79 110.11 1268.15 109.36 C 1267.54 108.58 1266.56 108.71 1266.13 109.05 C 1263.8 110.95 1262.67 113.09 1262.61 116.03 C 1262.61 121.52 1266.79 125.27 1271.59 125.27 Z M 1271.64 131.22 C 1262.69 131.22 1255.93 123.97 1255.93 115.45 C 1255.93 106.9 1262.96 99.81 1271.79 99.81 C 1279.89 99.81 1287.35 106.37 1287.35 115.42 C 1287.35 124.88 1279.79 131.22 1271.64 131.22 Z" fill="none" stroke="#222222" stroke-miterlimit="10" pointer-events="all"/></g><g><path d="M 1255.93 220.23 L 1255.93 199.29 C 1255.93 196.4 1262.97 194.05 1271.64 194.05 C 1280.32 194.05 1287.35 196.4 1287.35 199.29 L 1287.35 220.23 C 1287.35 223.13 1280.32 225.47 1271.64 225.47 C 1262.97 225.47 1255.93 223.13 1255.93 220.23 Z" fill="none" stroke="#222222" stroke-miterlimit="10" pointer-events="all"/><path d="M 1255.93 199.29 C 1255.93 202.18 1262.97 204.53 1271.64 204.53 C 1280.32 204.53 1287.35 202.18 1287.35 199.29" fill="none" stroke="#222222" stroke-miterlimit="10" pointer-events="all"/></g><g><rect x="229.71" y="57.92" width="806.32" height="198.96" fill="#333333" stroke="none" pointer-events="all"/></g><g><rect x="889.43" y="84.1" width="41.89" height="146.6" fill="#2d2d2d" stroke="none" pointer-events="all"/></g><g><rect x="292.54" y="84.1" width="41.89" height="146.6" fill="#2d2d2d" stroke="none" pointer-events="all"/></g><g><rect x="334.43" y="84.1" width="555" height="20.94" fill="#222222" stroke="none" pointer-events="all"/></g><g><rect x="334.43" y="125.99" width="555" height="20.94" fill="#222222" stroke="none" pointer-events="all"/></g><g><rect x="334.43" y="167.88" width="555" height="20.94" fill="#222222" stroke="none" pointer-events="all"/></g><g><rect x="334.43" y="209.76" width="555" height="20.94" fill="#222222" stroke="none" pointer-events="all"/></g><g><rect x="501.98" y="84.1" width="20.94" height="146.6" fill="#2d2d2d" stroke="none" pointer-events="all"/></g><g><rect x="700.94" y="84.1" width="20.94" height="146.6" fill="#2d2d2d" stroke="none" pointer-events="all"/></g><g><rect x="334.43" y="188.82" width="555" height="20.94" fill="#333333" stroke="none" pointer-events="all"/></g><g><rect x="334.43" y="146.93" width="555" height="20.94" fill="#333333" stroke="none" pointer-events="all"/></g><g><rect x="334.43" y="105.05" width="555" height="20.94" fill="#333333" stroke="none" pointer-events="all"/></g><g><rect x="1308.29" y="26.51" width="1099.52" height="261.79" fill="#333333" stroke="none" pointer-events="all"/></g><g><rect x="1339.71" y="57.92" width="1015.75" height="198.96" fill="#222222" stroke="#222222" stroke-width="5" pointer-events="all"/></g><g><rect x="2360.69" y="241.18" width="41.89" height="31.41" rx="4.71" ry="4.71" fill="#60a917" stroke="#222222" transform="rotate(90,2381.64,256.88)" pointer-events="all"/></g><g><rect x="2360.69" y="146.93" width="41.89" height="31.41" rx="4.71" ry="4.71" fill="#0050ef" stroke="#222222" transform="rotate(90,2381.64,162.64)" pointer-events="all"/></g><g><rect x="2093.67" y="89.34" width="83.77" height="136.13" rx="12.57" ry="12.57" fill="#0050ef" stroke="none" pointer-events="all"/></g><g><path d="M 2166.97 89.34 Q 2198.38 89.34 2198.38 157.4 Q 2198.38 225.47 2166.97 225.47 Z" fill="#0050ef" stroke="none" pointer-events="all"/></g><g><path d="M 2381.57 115.17 C 2382.51 115.17 2383.17 114.51 2383.17 113.64 L 2383.17 107.35 C 2383.17 106.53 2382.61 105.77 2381.68 105.77 C 2380.74 105.77 2380.09 106.52 2380.09 107.2 L 2380.09 113.65 C 2380.09 114.5 2380.82 115.17 2381.57 115.17 Z M 2381.58 125.27 C 2386.58 125.27 2390.71 121.26 2390.71 116.31 C 2390.71 113.81 2389.81 111.01 2387.06 108.97 C 2386.56 108.58 2385.53 108.78 2385.07 109.4 C 2384.64 110.02 2384.61 110.92 2385.3 111.58 C 2386.67 112.67 2387.57 114.38 2387.57 116.14 C 2387.57 119.57 2384.64 122.12 2381.71 122.12 C 2378.81 122.12 2375.93 120.01 2375.72 116.24 C 2375.68 114.72 2376.54 112.56 2378.05 111.5 C 2378.57 111.07 2378.79 110.11 2378.14 109.36 C 2377.54 108.58 2376.55 108.71 2376.12 109.05 C 2373.79 110.95 2372.67 113.09 2372.6 116.03 C 2372.6 121.52 2376.78 125.27 2381.58 125.27 Z M 2381.63 131.22 C 2372.68 131.22 2365.93 123.97 2365.93 115.45 C 2365.93 106.9 2372.95 99.81 2381.78 99.81 C 2389.89 99.81 2397.34 106.37 2397.34 115.42 C 2397.34 124.88 2389.78 131.22 2381.63 131.22 Z" fill="none" stroke="#222222" stroke-miterlimit="10" pointer-events="all"/></g><g><path d="M 2365.93 220.23 L 2365.93 199.29 C 2365.93 196.4 2372.96 194.05 2381.64 194.05 C 2390.31 194.05 2397.34 196.4 2397.34 199.29 L 2397.34 220.23 C 2397.34 223.13 2390.31 225.47 2381.64 225.47 C 2372.96 225.47 2365.93 223.13 2365.93 220.23 Z" fill="none" stroke="#222222" stroke-miterlimit="10" pointer-events="all"/><path d="M 2365.93 199.29 C 2365.93 202.18 2372.96 204.53 2381.64 204.53 C 2390.31 204.53 2397.34 202.18 2397.34 199.29" fill="none" stroke="#222222" stroke-miterlimit="10" pointer-events="all"/></g><g><rect x="1339.71" y="57.92" width="806.32" height="198.96" fill="#333333" stroke="none" pointer-events="all"/></g><g><rect x="1999.42" y="84.1" width="41.89" height="146.6" fill="#2d2d2d" stroke="none" pointer-events="all"/></g><g><rect x="1402.54" y="84.1" width="41.89" height="146.6" fill="#2d2d2d" stroke="none" pointer-events="all"/></g><g><rect x="1444.42" y="84.1" width="555" height="20.94" fill="#222222" stroke="none" pointer-events="all"/></g><g><rect x="1444.42" y="125.99" width="555" height="20.94" fill="#222222" stroke="none" pointer-events="all"/></g><g><rect x="1444.42" y="167.88" width="555" height="20.94" fill="#222222" stroke="none" pointer-events="all"/></g><g><rect x="1444.42" y="209.76" width="555" height="20.94" fill="#222222" stroke="none" pointer-events="all"/></g><g><rect x="1611.97" y="84.1" width="20.94" height="146.6" fill="#2d2d2d" stroke="none" pointer-events="all"/></g><g><rect x="1810.93" y="84.1" width="20.94" height="146.6" fill="#2d2d2d" stroke="none" pointer-events="all"/></g><g><rect x="1444.42" y="188.82" width="555" height="20.94" fill="#333333" stroke="none" pointer-events="all"/></g><g><rect x="1444.42" y="146.93" width="555" height="20.94" fill="#333333" stroke="none" pointer-events="all"/></g><g><rect x="1444.42" y="105.05" width="555" height="20.94" fill="#333333" stroke="none" pointer-events="all"/></g><g><rect x="2418.29" y="26.51" width="1099.52" height="261.79" fill="#333333" stroke="none" pointer-events="all"/></g><g><rect x="2449.7" y="57.92" width="1015.75" height="198.96" fill="#222222" stroke="#222222" stroke-width="5" pointer-events="all"/></g><g><rect x="3470.68" y="241.18" width="41.89" height="31.41" rx="4.71" ry="4.71" fill="#60a917" stroke="#222222" transform="rotate(90,3491.63,256.88)" pointer-events="all"/></g><g><rect x="3470.68" y="146.93" width="41.89" height="31.41" rx="4.71" ry="4.71" fill="#0050ef" stroke="#222222" transform="rotate(90,3491.63,162.64)" pointer-events="all"/></g><g><rect x="3203.66" y="89.34" width="83.77" height="136.13" rx="12.57" ry="12.57" fill="#0050ef" stroke="none" pointer-events="all"/></g><g><path d="M 3276.96 89.34 Q 3308.37 89.34 3308.37 157.4 Q 3308.37 225.47 3276.96 225.47 Z" fill="#0050ef" stroke="none" pointer-events="all"/></g><g><path d="M 3491.56 115.17 C 3492.5 115.17 3493.16 114.51 3493.16 113.64 L 3493.16 107.35 C 3493.16 106.53 3492.6 105.77 3491.67 105.77 C 3490.74 105.77 3490.09 106.52 3490.09 107.2 L 3490.09 113.65 C 3490.09 114.5 3490.81 115.17 3491.56 115.17 Z M 3491.58 125.27 C 3496.57 125.27 3500.71 121.26 3500.71 116.31 C 3500.71 113.81 3499.81 111.01 3497.06 108.97 C 3496.55 108.58 3495.52 108.78 3495.06 109.4 C 3494.63 110.02 3494.6 110.92 3495.3 111.58 C 3496.66 112.67 3497.56 114.38 3497.56 116.14 C 3497.56 119.57 3494.64 122.12 3491.7 122.12 C 3488.81 122.12 3485.92 120.01 3485.71 116.24 C 3485.67 114.72 3486.53 112.56 3488.05 111.5 C 3488.57 111.07 3488.78 110.11 3488.14 109.36 C 3487.53 108.58 3486.54 108.71 3486.12 109.05 C 3483.78 110.95 3482.66 113.09 3482.6 116.03 C 3482.6 121.52 3486.78 125.27 3491.58 125.27 Z M 3491.62 131.22 C 3482.67 131.22 3475.92 123.97 3475.92 115.45 C 3475.92 106.9 3482.94 99.81 3491.77 99.81 C 3499.88 99.81 3507.34 106.37 3507.34 115.42 C 3507.34 124.88 3499.78 131.22 3491.62 131.22 Z" fill="none" stroke="#222222" stroke-miterlimit="10" pointer-events="all"/></g><g><path d="M 3475.92 220.23 L 3475.92 199.29 C 3475.92 196.4 3482.95 194.05 3491.63 194.05 C 3500.3 194.05 3507.34 196.4 3507.34 199.29 L 3507.34 220.23 C 3507.34 223.13 3500.3 225.47 3491.63 225.47 C 3482.95 225.47 3475.92 223.13 3475.92 220.23 Z" fill="none" stroke="#222222" stroke-miterlimit="10" pointer-events="all"/><path d="M 3475.92 199.29 C 3475.92 202.18 3482.95 204.53 3491.63 204.53 C 3500.3 204.53 3507.34 202.18 3507.34 199.29" fill="none" stroke="#222222" stroke-miterlimit="10" pointer-events="all"/></g><g><rect x="2449.7" y="57.92" width="806.32" height="198.96" fill="#333333" stroke="none" pointer-events="all"/></g><g><rect x="3109.41" y="84.1" width="41.89" height="146.6" fill="#2d2d2d" stroke="none" pointer-events="all"/></g><g><rect x="2512.53" y="84.1" width="41.89" height="146.6" fill="#2d2d2d" stroke="none" pointer-events="all"/></g><g><rect x="2554.42" y="84.1" width="555" height="20.94" fill="#222222" stroke="none" pointer-events="all"/></g><g><rect x="2554.42" y="125.99" width="555" height="20.94" fill="#222222" stroke="none" pointer-events="all"/></g><g><rect x="2554.42" y="167.88" width="555" height="20.94" fill="#222222" stroke="none" pointer-events="all"/></g><g><rect x="2554.42" y="209.76" width="555" height="20.94" fill="#222222" stroke="none" pointer-events="all"/></g><g><rect x="2721.96" y="84.1" width="20.94" height="146.6" fill="#2d2d2d" stroke="none" pointer-events="all"/></g><g><rect x="2920.92" y="84.1" width="20.94" height="146.6" fill="#2d2d2d" stroke="none" pointer-events="all"/></g><g><rect x="2554.42" y="188.82" width="555" height="20.94" fill="#333333" stroke="none" pointer-events="all"/></g><g><rect x="2554.42" y="146.93" width="555" height="20.94" fill="#333333" stroke="none" pointer-events="all"/></g><g><rect x="2554.42" y="105.05" width="555" height="20.94" fill="#333333" stroke="none" pointer-events="all"/></g><g><rect x="3528.28" y="26.51" width="1099.52" height="261.79" fill="#333333" stroke="none" pointer-events="all"/></g><g><rect x="3559.69" y="57.92" width="1015.75" height="198.96" fill="#222222" stroke="#222222" stroke-width="5" pointer-events="all"/></g><g><rect x="4580.68" y="241.18" width="41.89" height="31.41" rx="4.71" ry="4.71" fill="#60a917" stroke="#222222" transform="rotate(90,4601.62,256.88)" pointer-events="all"/></g><g><rect x="4580.68" y="146.93" width="41.89" height="31.41" rx="4.71" ry="4.71" fill="#0050ef" stroke="#222222" transform="rotate(90,4601.62,162.64)" pointer-events="all"/></g><g><rect x="4313.65" y="89.34" width="83.77" height="136.13" rx="12.57" ry="12.57" fill="#0050ef" stroke="none" pointer-events="all"/></g><g><path d="M 4386.95 89.34 Q 4418.37 89.34 4418.37 157.4 Q 4418.37 225.47 4386.95 225.47 Z" fill="#0050ef" stroke="none" pointer-events="all"/></g><g><path d="M 4601.56 115.17 C 4602.49 115.17 4603.15 114.51 4603.15 113.64 L 4603.15 107.35 C 4603.15 106.53 4602.59 105.77 4601.66 105.77 C 4600.73 105.77 4600.08 106.52 4600.08 107.2 L 4600.08 113.65 C 4600.08 114.5 4600.81 115.17 4601.56 115.17 Z M 4601.57 125.27 C 4606.57 125.27 4610.7 121.26 4610.7 116.31 C 4610.7 113.81 4609.8 111.01 4607.05 108.97 C 4606.54 108.58 4605.52 108.78 4605.05 109.4 C 4604.63 110.02 4604.6 110.92 4605.29 111.58 C 4606.66 112.67 4607.55 114.38 4607.55 116.14 C 4607.55 119.57 4604.63 122.12 4601.69 122.12 C 4598.8 122.12 4595.91 120.01 4595.71 116.24 C 4595.66 114.72 4596.52 112.56 4598.04 111.5 C 4598.56 111.07 4598.77 110.11 4598.13 109.36 C 4597.52 108.58 4596.53 108.71 4596.11 109.05 C 4593.77 110.95 4592.65 113.09 4592.59 116.03 C 4592.59 121.52 4596.77 125.27 4601.57 125.27 Z M 4601.61 131.22 C 4592.67 131.22 4585.91 123.97 4585.91 115.45 C 4585.91 106.9 4592.94 99.81 4601.77 99.81 C 4609.87 99.81 4617.33 106.37 4617.33 115.42 C 4617.33 124.88 4609.77 131.22 4601.61 131.22 Z" fill="none" stroke="#222222" stroke-miterlimit="10" pointer-events="all"/></g><g><path d="M 4585.91 220.23 L 4585.91 199.29 C 4585.91 196.4 4592.95 194.05 4601.62 194.05 C 4610.3 194.05 4617.33 196.4 4617.33 199.29 L 4617.33 220.23 C 4617.33 223.13 4610.3 225.47 4601.62 225.47 C 4592.95 225.47 4585.91 223.13 4585.91 220.23 Z" fill="none" stroke="#222222" stroke-miterlimit="10" pointer-events="all"/><path d="M 4585.91 199.29 C 4585.91 202.18 4592.95 204.53 4601.62 204.53 C 4610.3 204.53 4617.33 202.18 4617.33 199.29" fill="none" stroke="#222222" stroke-miterlimit="10" pointer-events="all"/></g><g><rect x="3559.69" y="57.92" width="806.32" height="198.96" fill="#333333" stroke="none" pointer-events="all"/></g><g><rect x="4219.41" y="84.1" width="41.89" height="146.6" fill="#2d2d2d" stroke="none" pointer-events="all"/></g><g><rect x="3622.52" y="84.1" width="41.89" height="146.6" fill="#2d2d2d" stroke="none" pointer-events="all"/></g><g><rect x="3664.41" y="84.1" width="555" height="20.94" fill="#222222" stroke="none" pointer-events="all"/></g><g><rect x="3664.41" y="125.99" width="555" height="20.94" fill="#222222" stroke="none" pointer-events="all"/></g><g><rect x="3664.41" y="167.88" width="555" height="20.94" fill="#222222" stroke="none" pointer-events="all"/></g><g><rect x="3664.41" y="209.76" width="555" height="20.94" fill="#222222" stroke="none" pointer-events="all"/></g><g><rect x="3831.96" y="84.1" width="20.94" height="146.6" fill="#2d2d2d" stroke="none" pointer-events="all"/></g><g><rect x="4030.92" y="84.1" width="20.94" height="146.6" fill="#2d2d2d" stroke="none" pointer-events="all"/></g><g><rect x="3664.41" y="188.82" width="555" height="20.94" fill="#333333" stroke="none" pointer-events="all"/></g><g><rect x="3664.41" y="146.93" width="555" height="20.94" fill="#333333" stroke="none" pointer-events="all"/></g><g><rect x="3664.41" y="105.05" width="555" height="20.94" fill="#333333" stroke="none" pointer-events="all"/></g><g><rect x="79.96" y="444.5" width="100" height="444.5" fill="#bfbfbf" stroke="#aaaaaa" stroke-width="10" pointer-events="all"/></g><g/><g><rect x="4715.96" y="636.8" width="40" height="60" fill="#000000" stroke="none" pointer-events="all"/></g><g><ellipse cx="4755.96" cy="666.8" rx="30" ry="30" fill="#000000" stroke="none" pointer-events="all"/></g><g><ellipse cx="4715.96" cy="666.8" rx="30" ry="30" fill="#000000" stroke="none" pointer-events="all"/></g><g><rect x="4645.96" y="444.5" width="100" height="444.5" fill="#bfbfbf" stroke="#aaaaaa" stroke-width="10" pointer-events="all"/></g><g><rect x="0" y="0" width="180" height="444.5" fill="#bfbfbf" stroke="#aaaaaa" stroke-width="10" pointer-events="all"/></g><g><rect x="4646" y="0" width="180" height="444.5" fill="#bfbfbf" stroke="#aaaaaa" stroke-width="10" pointer-events="all"/></g><g><rect x="20" y="75.2" width="60" height="27.6" fill="none" stroke="none" transform="rotate(-90,50,89)" pointer-events="all"/><path d="M 30.41 90.33 C 29.68 92.85 27.2 94.46 24.57 94.1 C 21.95 93.74 20 91.52 20 88.9 C 20 86.27 21.95 84.05 24.57 83.69 C 27.2 83.33 29.68 84.94 30.41 87.46 L 36.67 87.46 C 37.43 87.17 38.04 86.59 38.36 85.85 L 40.29 82.33 C 41.41 80.67 43.18 79.54 45.17 79.23 C 46.82 78.97 48.5 78.85 50.17 78.87 C 50.87 76.61 53.14 75.2 55.5 75.55 C 57.86 75.9 59.6 77.91 59.6 80.27 C 59.6 82.64 57.86 84.64 55.5 84.99 C 53.14 85.34 50.87 83.93 50.17 81.67 C 48.37 81.59 46.56 81.77 44.81 82.21 C 44.01 82.5 43.3 83 42.76 83.64 L 41.55 86.03 L 40.83 87.52 L 69.39 87.52 L 69.39 82.75 L 80 89.31 L 69.39 95.16 L 69.39 90.27 L 47.46 90.27 C 47.92 90.96 48.3 91.7 48.61 92.48 L 49.81 95.58 C 50.09 96.11 50.54 96.55 51.08 96.83 C 51.79 97 52.51 97.1 53.24 97.13 L 55.84 97.13 L 55.84 94.15 L 64.45 94.15 L 64.45 102.8 L 55.84 102.8 L 55.84 100 C 54.1 100.17 52.35 100.05 50.65 99.64 C 49.42 99.26 48.35 98.51 47.58 97.49 L 46.62 95.28 L 45.35 92.24 C 44.94 91.1 43.86 90.32 42.64 90.27 Z" fill="#000000" stroke="none" transform="rotate(-90,50,89)" pointer-events="all"/></g><g><rect x="20" y="341.8" width="60" height="27.6" fill="none" stroke="none" transform="rotate(-90,50,355.6)" pointer-events="all"/><path d="M 30.41 356.93 C 29.68 359.45 27.2 361.06 24.57 360.7 C 21.95 360.34 20 358.12 20 355.5 C 20 352.87 21.95 350.65 24.57 350.29 C 27.2 349.93 29.68 351.54 30.41 354.06 L 36.67 354.06 C 37.43 353.77 38.04 353.19 38.36 352.45 L 40.29 348.93 C 41.41 347.27 43.18 346.14 45.17 345.83 C 46.82 345.57 48.5 345.45 50.17 345.47 C 50.87 343.21 53.14 341.8 55.5 342.15 C 57.86 342.5 59.6 344.51 59.6 346.87 C 59.6 349.24 57.86 351.24 55.5 351.59 C 53.14 351.94 50.87 350.53 50.17 348.27 C 48.37 348.19 46.56 348.37 44.81 348.81 C 44.01 349.1 43.3 349.6 42.76 350.24 L 41.55 352.63 L 40.83 354.12 L 69.39 354.12 L 69.39 349.35 L 80 355.91 L 69.39 361.76 L 69.39 356.87 L 47.46 356.87 C 47.92 357.56 48.3 358.3 48.61 359.08 L 49.81 362.18 C 50.09 362.71 50.54 363.15 51.08 363.43 C 51.79 363.6 52.51 363.7 53.24 363.73 L 55.84 363.73 L 55.84 360.75 L 64.45 360.75 L 64.45 369.4 L 55.84 369.4 L 55.84 366.6 C 54.1 366.77 52.35 366.65 50.65 366.24 C 49.42 365.86 48.35 365.11 47.58 364.09 L 46.62 361.88 L 45.35 358.84 C 44.94 357.7 43.86 356.92 42.64 356.87 Z" fill="#000000" stroke="none" transform="rotate(-90,50,355.6)" pointer-events="all"/></g><g/><g><ellipse cx="4796" cy="244.59" rx="15" ry="15" fill="#60a917" stroke="none" pointer-events="all"/></g><g><ellipse cx="4776" cy="307.9" rx="25" ry="25" fill="#bfbfbf" stroke="#000000" stroke-width="2" pointer-events="all"/></g><g><path d="M 4720.94 307.82 C 4721.83 307.82 4722.46 307.19 4722.46 306.36 L 4722.46 300.36 C 4722.46 299.57 4721.93 298.85 4721.04 298.85 C 4720.15 298.85 4719.53 299.56 4719.53 300.22 L 4719.53 306.37 C 4719.53 307.19 4720.22 307.82 4720.94 307.82 Z M 4720.95 317.47 C 4725.72 317.47 4729.67 313.64 4729.67 308.91 C 4729.67 306.52 4728.81 303.85 4726.18 301.91 C 4725.7 301.53 4724.72 301.73 4724.28 302.32 C 4723.87 302.91 4723.84 303.77 4724.5 304.4 C 4725.81 305.44 4726.67 307.07 4726.67 308.76 C 4726.67 312.03 4723.87 314.46 4721.07 314.46 C 4718.31 314.46 4715.55 312.45 4715.35 308.84 C 4715.31 307.39 4716.13 305.34 4717.58 304.32 C 4718.08 303.91 4718.28 302.99 4717.67 302.27 C 4717.09 301.53 4716.14 301.66 4715.74 301.98 C 4713.51 303.8 4712.43 305.83 4712.38 308.65 C 4712.38 313.89 4716.37 317.47 4720.95 317.47 Z M 4720.99 323.16 C 4712.45 323.16 4706 316.23 4706 308.1 C 4706 299.93 4712.71 293.16 4721.14 293.16 C 4728.88 293.16 4736 299.42 4736 308.07 C 4736 317.1 4728.78 323.16 4720.99 323.16 Z" fill="none" stroke="#000000" stroke-miterlimit="10" pointer-events="all"/></g><g><path d="M 4716.32 384.86 L 4716.32 379.91 C 4709.87 377.82 4706 371.76 4707.16 365.57 C 4708.31 359.38 4714.16 354.85 4721 354.85 C 4727.84 354.85 4733.69 359.38 4734.84 365.57 C 4736 371.76 4732.13 377.82 4725.68 379.91 L 4725.68 384.86" fill="none" stroke="#000000" stroke-miterlimit="10" transform="rotate(-180,4721,369.86)" pointer-events="all"/></g><g><path d="M 4661 104.56 L 4661 84.56 C 4661 81.8 4667.72 79.56 4676 79.56 C 4684.28 79.56 4691 81.8 4691 84.56 L 4691 104.56 C 4691 107.32 4684.28 109.56 4676 109.56 C 4667.72 109.56 4661 107.32 4661 104.56 Z" fill="none" stroke="#000000" stroke-miterlimit="10" pointer-events="all"/><path d="M 4661 84.56 C 4661 87.32 4667.72 89.56 4676 89.56 C 4684.28 89.56 4691 87.32 4691 84.56" fill="none" stroke="#000000" stroke-miterlimit="10" pointer-events="all"/></g><g><rect x="4701" y="109.56" width="30" height="30" fill="none" stroke="none" pointer-events="all"/><path d="M 4712.86 109.56 L 4712.86 115.88 L 4715.43 115.88 L 4715.42 121.8 L 4703.94 121.79 C 4703.79 121.79 4703.65 121.85 4703.55 121.96 C 4703.44 122.06 4703.38 122.21 4703.38 122.36 L 4703.39 133.22 L 4701 133.22 L 4701 139.54 L 4707.16 139.54 L 4707.16 133.22 L 4704.5 133.22 L 4704.49 122.93 L 4715.42 122.94 L 4715.41 130.66 L 4712.85 130.66 L 4712.85 136.98 L 4719.01 136.98 L 4719.01 130.66 L 4716.52 130.66 L 4716.53 122.94 L 4727.43 122.96 L 4727.38 133.23 L 4724.84 133.23 L 4724.84 139.56 L 4731 139.56 L 4731 133.23 L 4728.49 133.23 L 4728.54 122.39 C 4728.54 122.24 4728.49 122.09 4728.38 121.98 C 4728.28 121.87 4728.14 121.81 4727.99 121.81 L 4716.53 121.8 L 4716.54 115.88 L 4719.02 115.88 L 4719.02 109.56 Z" fill="#000000" stroke="none" pointer-events="all"/></g><g><path d="M 4661 199.56 L 4691 214.56 L 4661 229.56 Z" fill="none" stroke="#000000" stroke-miterlimit="10" transform="rotate(-90,4676,214.56)" pointer-events="all"/></g><g><ellipse cx="4776" cy="374.9" rx="20" ry="20" fill="#bfbfbf" stroke="#000000" stroke-width="2" pointer-events="all"/></g><g><ellipse cx="4796" cy="184.59" rx="15" ry="15" fill="#60a917" stroke="none" pointer-events="all"/></g><g><ellipse cx="4756" cy="214.59" rx="15" ry="15" fill="#a20025" stroke="none" pointer-events="all"/></g><g><ellipse cx="4756" cy="154.59" rx="15" ry="15" fill="#a20025" stroke="none" pointer-events="all"/></g><g><ellipse cx="4796" cy="124.59" rx="15" ry="15" fill="#60a917" stroke="none" pointer-events="all"/></g><g><ellipse cx="4756" cy="94.59" rx="15" ry="15" fill="#0050ef" stroke="none" pointer-events="all"/></g><g><ellipse cx="4796" cy="64.59" rx="15" ry="15" fill="#60a917" stroke="none" pointer-events="all"/></g><g><path d="M 4715.94 64.22 C 4716.83 64.22 4717.46 63.59 4717.46 62.76 L 4717.46 56.76 C 4717.46 55.97 4716.93 55.25 4716.04 55.25 C 4715.15 55.25 4714.53 55.96 4714.53 56.62 L 4714.53 62.77 C 4714.53 63.59 4715.22 64.22 4715.94 64.22 Z M 4715.95 73.87 C 4720.72 73.87 4724.67 70.04 4724.67 65.31 C 4724.67 62.92 4723.81 60.25 4721.18 58.31 C 4720.7 57.93 4719.72 58.13 4719.28 58.72 C 4718.87 59.31 4718.84 60.17 4719.5 60.8 C 4720.81 61.84 4721.67 63.47 4721.67 65.16 C 4721.67 68.43 4718.87 70.86 4716.07 70.86 C 4713.31 70.86 4710.55 68.85 4710.35 65.24 C 4710.31 63.79 4711.13 61.74 4712.58 60.72 C 4713.08 60.31 4713.28 59.39 4712.67 58.67 C 4712.09 57.93 4711.14 58.06 4710.74 58.38 C 4708.51 60.2 4707.43 62.23 4707.38 65.05 C 4707.38 70.29 4711.37 73.87 4715.95 73.87 Z M 4715.99 79.56 C 4707.45 79.56 4701 72.63 4701 64.5 C 4701 56.33 4707.71 49.56 4716.14 49.56 C 4723.88 49.56 4731 55.82 4731 64.47 C 4731 73.5 4723.78 79.56 4715.99 79.56 Z" fill="none" stroke="#000000" stroke-miterlimit="10" pointer-events="all"/></g><g><rect x="4701" y="169.56" width="30" height="30" fill="none" stroke="none" pointer-events="all"/><path d="M 4712.86 169.56 L 4712.86 175.88 L 4715.43 175.88 L 4715.42 181.8 L 4703.94 181.79 C 4703.79 181.79 4703.65 181.85 4703.55 181.96 C 4703.44 182.06 4703.38 182.21 4703.38 182.36 L 4703.39 193.22 L 4701 193.22 L 4701 199.54 L 4707.16 199.54 L 4707.16 193.22 L 4704.5 193.22 L 4704.49 182.93 L 4715.42 182.94 L 4715.41 190.66 L 4712.85 190.66 L 4712.85 196.98 L 4719.01 196.98 L 4719.01 190.66 L 4716.52 190.66 L 4716.53 182.94 L 4727.43 182.96 L 4727.38 193.23 L 4724.84 193.23 L 4724.84 199.56 L 4731 199.56 L 4731 193.23 L 4728.49 193.23 L 4728.54 182.39 C 4728.54 182.24 4728.49 182.09 4728.38 181.98 C 4728.28 181.87 4728.14 181.81 4727.99 181.81 L 4716.53 181.8 L 4716.54 175.88 L 4719.02 175.88 L 4719.02 169.56 Z" fill="#000000" stroke="none" pointer-events="all"/></g><g><rect x="4701" y="229.56" width="30" height="30" fill="none" stroke="none" pointer-events="all"/><path d="M 4712.86 229.56 L 4712.86 235.88 L 4715.43 235.88 L 4715.42 241.8 L 4703.94 241.79 C 4703.79 241.79 4703.65 241.85 4703.55 241.96 C 4703.44 242.06 4703.38 242.21 4703.38 242.36 L 4703.39 253.22 L 4701 253.22 L 4701 259.54 L 4707.16 259.54 L 4707.16 253.22 L 4704.5 253.22 L 4704.49 242.93 L 4715.42 242.94 L 4715.41 250.66 L 4712.85 250.66 L 4712.85 256.98 L 4719.01 256.98 L 4719.01 250.66 L 4716.52 250.66 L 4716.53 242.94 L 4727.43 242.96 L 4727.38 253.23 L 4724.84 253.23 L 4724.84 259.56 L 4731 259.56 L 4731 253.23 L 4728.49 253.23 L 4728.54 242.39 C 4728.54 242.24 4728.49 242.09 4728.38 241.98 C 4728.28 241.87 4728.14 241.81 4727.99 241.81 L 4716.53 241.8 L 4716.54 235.88 L 4719.02 235.88 L 4719.02 229.56 Z" fill="#000000" stroke="none" pointer-events="all"/></g><g><rect x="4661" y="139.6" width="30" height="30" fill="none" stroke="none" pointer-events="all"/><path d="M 4662.51 169.6 C 4661.68 169.59 4661.01 168.52 4661.01 167.2 L 4661 142 C 4661 141.36 4661.16 140.75 4661.44 140.3 C 4661.72 139.85 4662.11 139.6 4662.51 139.6 L 4689.49 139.6 C 4689.89 139.6 4690.28 139.85 4690.56 140.3 C 4690.84 140.75 4691 141.36 4691 142 L 4691 167.2 C 4691 167.84 4690.84 168.45 4690.56 168.9 C 4690.28 169.35 4689.89 169.6 4689.49 169.6 Z M 4668.98 156.98 L 4672.14 145.6 C 4672.31 145.2 4672.59 144.96 4672.9 144.96 C 4673.2 144.96 4673.48 145.2 4673.65 145.6 L 4677.6 159.52 L 4680.34 151.46 C 4680.58 150.96 4680.97 150.69 4681.36 150.74 L 4687.6 150.74 L 4687.6 153.66 L 4681.69 153.66 L 4678.29 163.6 C 4678.12 163.98 4677.84 164.21 4677.55 164.21 C 4677.26 164.21 4676.98 163.98 4676.81 163.6 L 4672.9 149.87 L 4670.4 158.99 C 4670.18 159.53 4669.8 159.85 4669.4 159.86 L 4664.52 159.86 L 4664.52 156.98 Z M 4662.96 166.34 L 4689.01 166.29 L 4689.01 142.72 L 4662.96 142.72 Z M 4675.13 167.01 L 4675.13 168.3 L 4676.87 168.3 L 4676.87 167.01 Z" fill="#000000" stroke="none" pointer-events="all"/></g></g></svg>