<?xml version="1.0" encoding="UTF-8"?>
<!DOCTYPE svg PUBLIC "-//W3C//DTD SVG 1.1//EN" "http://www.w3.org/Graphics/SVG/1.1/DTD/svg11.dtd">
<svg xmlns="http://www.w3.org/2000/svg" xmlns:xlink="http://www.w3.org/1999/xlink" version="1.1" width="4837px" height="900px" viewBox="-0.5 -0.5 4837 900" style="background-color: rgb(24, 20, 29);"><defs/><rect fill="#18141D" width="100%" height="100%" x="0" y="0"/><g><g data-cell-id="0"><g data-cell-id="1"><g data-cell-id="ADVaAESZDNi0vssxZZNh-429"><g/><g data-cell-id="9eh16xiQdjSHdPkHuFP6-378"><g><rect x="0" y="0" width="4826" height="889" fill="#bfbfbf" stroke="#aaaaaa" stroke-width="10" pointer-events="all"/></g></g><g data-cell-id="9eh16xiQdjSHdPkHuFP6-379"><g><rect x="180" y="0" width="4466" height="889" fill="#000000" stroke="#aaaaaa" stroke-width="10" pointer-events="all"/></g></g><g data-cell-id="jP2WbbBxQBNUkDRbYnSl-230"><g/><g data-cell-id="jP2WbbBxQBNUkDRbYnSl-231"><g><rect x="69.96" y="636.8" width="40" height="60" fill="#000000" stroke="none" pointer-events="all"/></g></g><g data-cell-id="jP2WbbBxQBNUkDRbYnSl-232"><g><ellipse cx="109.96" cy="666.8" rx="30" ry="30" fill="#000000" stroke="none" pointer-events="all"/></g></g><g data-cell-id="jP2WbbBxQBNUkDRbYnSl-233"><g><ellipse cx="69.96" cy="666.8" rx="30" ry="30" fill="#000000" stroke="none" pointer-events="all"/></g></g></g><g data-cell-id="jP2WbbBxQBNUkDRbYnSl-206"><g><rect x="79.96" y="444.5" width="100" height="444.5" fill="#bfbfbf" stroke="#aaaaaa" stroke-width="10" pointer-events="all"/></g></g><g data-cell-id="5G7c4jUEA5Og9TPHIXhp-649"><g/><g data-cell-id="5G7c4jUEA5Og9TPHIXhp-650"><g><rect x="4715.96" y="636.8" width="40" height="60" fill="#000000" stroke="none" pointer-events="all"/></g></g><g data-cell-id="5G7c4jUEA5Og9TPHIXhp-651"><g><ellipse cx="4755.96" cy="666.8" rx="30" ry="30" fill="#000000" stroke="none" pointer-events="all"/></g></g><g data-cell-id="5G7c4jUEA5Og9TPHIXhp-652"><g><ellipse cx="4715.96" cy="666.8" rx="30" ry="30" fill="#000000" stroke="none" pointer-events="all"/></g></g></g><g data-cell-id="5G7c4jUEA5Og9TPHIXhp-653"><g><rect x="4645.96" y="444.5" width="100" height="444.5" fill="#bfbfbf" stroke="#aaaaaa" stroke-width="10" pointer-events="all"/></g></g><g data-cell-id="5G7c4jUEA5Og9TPHIXhp-655"><g><rect x="0" y="0" width="180" height="444.5" fill="#bfbfbf" stroke="#aaaaaa" stroke-width="10" pointer-events="all"/></g></g><g data-cell-id="5G7c4jUEA5Og9TPHIXhp-656"><g><rect x="4646" y="0" width="180" height="444.5" fill="#bfbfbf" stroke="#aaaaaa" stroke-width="10" pointer-events="all"/></g></g><g data-cell-id="5G7c4jUEA5Og9TPHIXhp-657"><g><rect x="20" y="75.2" width="60" height="27.6" fill="none" stroke="none" transform="rotate(-90,50,89)" pointer-events="all"/><path d="M 30.41 90.33 C 29.68 92.85 27.2 94.46 24.57 94.1 C 21.95 93.74 20 91.52 20 88.9 C 20 86.27 21.95 84.05 24.57 83.69 C 27.2 83.33 29.68 84.94 30.41 87.46 L 36.67 87.46 C 37.43 87.17 38.04 86.59 38.36 85.85 L 40.29 82.33 C 41.41 80.67 43.18 79.54 45.17 79.23 C 46.82 78.97 48.5 78.85 50.17 78.87 C 50.87 76.61 53.14 75.2 55.5 75.55 C 57.86 75.9 59.6 77.91 59.6 80.27 C 59.6 82.64 57.86 84.64 55.5 84.99 C 53.14 85.34 50.87 83.93 50.17 81.67 C 48.37 81.59 46.56 81.77 44.81 82.21 C 44.01 82.5 43.3 83 42.76 83.64 L 41.55 86.03 L 40.83 87.52 L 69.39 87.52 L 69.39 82.75 L 80 89.31 L 69.39 95.16 L 69.39 90.27 L 47.46 90.27 C 47.92 90.96 48.3 91.7 48.61 92.48 L 49.81 95.58 C 50.09 96.11 50.54 96.55 51.08 96.83 C 51.79 97 52.51 97.1 53.24 97.13 L 55.84 97.13 L 55.84 94.15 L 64.45 94.15 L 64.45 102.8 L 55.84 102.8 L 55.84 100 C 54.1 100.17 52.35 100.05 50.65 99.64 C 49.42 99.26 48.35 98.51 47.58 97.49 L 46.62 95.28 L 45.35 92.24 C 44.94 91.1 43.86 90.32 42.64 90.27 Z" fill="#000000" stroke="none" transform="rotate(-90,50,89)" pointer-events="all"/></g></g><g data-cell-id="5G7c4jUEA5Og9TPHIXhp-658"><g><rect x="20" y="341.8" width="60" height="27.6" fill="none" stroke="none" transform="rotate(-90,50,355.6)" pointer-events="all"/><path d="M 30.41 356.93 C 29.68 359.45 27.2 361.06 24.57 360.7 C 21.95 360.34 20 358.12 20 355.5 C 20 352.87 21.95 350.65 24.57 350.29 C 27.2 349.93 29.68 351.54 30.41 354.06 L 36.67 354.06 C 37.43 353.77 38.04 353.19 38.36 352.45 L 40.29 348.93 C 41.41 347.27 43.18 346.14 45.17 345.83 C 46.82 345.57 48.5 345.45 50.17 345.47 C 50.87 343.21 53.14 341.8 55.5 342.15 C 57.86 342.5 59.6 344.51 59.6 346.87 C 59.6 349.24 57.86 351.24 55.5 351.59 C 53.14 351.94 50.87 350.53 50.17 348.27 C 48.37 348.19 46.56 348.37 44.81 348.81 C 44.01 349.1 43.3 349.6 42.76 350.24 L 41.55 352.63 L 40.83 354.12 L 69.39 354.12 L 69.39 349.35 L 80 355.91 L 69.39 361.76 L 69.39 356.87 L 47.46 356.87 C 47.92 357.56 48.3 358.3 48.61 359.08 L 49.81 362.18 C 50.09 362.71 50.54 363.15 51.08 363.43 C 51.79 363.6 52.51 363.7 53.24 363.73 L 55.84 363.73 L 55.84 360.75 L 64.45 360.75 L 64.45 369.4 L 55.84 369.4 L 55.84 366.6 C 54.1 366.77 52.35 366.65 50.65 366.24 C 49.42 365.86 48.35 365.11 47.58 364.09 L 46.62 361.88 L 45.35 358.84 C 44.94 357.7 43.86 356.92 42.64 356.87 Z" fill="#000000" stroke="none" transform="rotate(-90,50,355.6)" pointer-events="all"/></g></g><g data-cell-id="BZf6F3fDbPlMnJJBv7aN-1"><g/><g data-cell-id="5G7c4jUEA5Og9TPHIXhp-661"><g><ellipse cx="4796" cy="244.59" rx="15" ry="15" fill="#60a917" stroke="none" pointer-events="all"/></g></g><g data-cell-id="5G7c4jUEA5Og9TPHIXhp-668"><g><ellipse cx="4776" cy="307.9" rx="25" ry="25" fill="#bfbfbf" stroke="#000000" stroke-width="2" pointer-events="all"/></g></g><g data-cell-id="5G7c4jUEA5Og9TPHIXhp-671"><g><path d="M 4720.94 307.82 C 4721.83 307.82 4722.46 307.19 4722.46 306.36 L 4722.46 300.36 C 4722.46 299.57 4721.93 298.85 4721.04 298.85 C 4720.15 298.85 4719.53 299.56 4719.53 300.22 L 4719.53 306.37 C 4719.53 307.19 4720.22 307.82 4720.94 307.82 Z M 4720.95 317.47 C 4725.72 317.47 4729.67 313.64 4729.67 308.91 C 4729.67 306.52 4728.81 303.85 4726.18 301.91 C 4725.7 301.53 4724.72 301.73 4724.28 302.32 C 4723.87 302.91 4723.84 303.77 4724.5 304.4 C 4725.81 305.44 4726.67 307.07 4726.67 308.76 C 4726.67 312.03 4723.87 314.46 4721.07 314.46 C 4718.31 314.46 4715.55 312.45 4715.35 308.84 C 4715.31 307.39 4716.13 305.34 4717.58 304.32 C 4718.08 303.91 4718.28 302.99 4717.67 302.27 C 4717.09 301.53 4716.14 301.66 4715.74 301.98 C 4713.51 303.8 4712.43 305.83 4712.38 308.65 C 4712.38 313.89 4716.37 317.47 4720.95 317.47 Z M 4720.99 323.16 C 4712.45 323.16 4706 316.23 4706 308.1 C 4706 299.93 4712.71 293.16 4721.14 293.16 C 4728.88 293.16 4736 299.42 4736 308.07 C 4736 317.1 4728.78 323.16 4720.99 323.16 Z" fill="none" stroke="#000000" stroke-miterlimit="10" pointer-events="all"/></g></g><g data-cell-id="5G7c4jUEA5Og9TPHIXhp-672"><g><path d="M 4716.32 384.86 L 4716.32 379.91 C 4709.87 377.82 4706 371.76 4707.16 365.57 C 4708.31 359.38 4714.16 354.85 4721 354.85 C 4727.84 354.85 4733.69 359.38 4734.84 365.57 C 4736 371.76 4732.13 377.82 4725.68 379.91 L 4725.68 384.86" fill="none" stroke="#000000" stroke-miterlimit="10" transform="rotate(-180,4721,369.86)" pointer-events="all"/></g></g><g data-cell-id="5G7c4jUEA5Og9TPHIXhp-673"><g><path d="M 4661 104.56 L 4661 84.56 C 4661 81.8 4667.72 79.56 4676 79.56 C 4684.28 79.56 4691 81.8 4691 84.56 L 4691 104.56 C 4691 107.32 4684.28 109.56 4676 109.56 C 4667.72 109.56 4661 107.32 4661 104.56 Z" fill="none" stroke="#000000" stroke-miterlimit="10" pointer-events="all"/><path d="M 4661 84.56 C 4661 87.32 4667.72 89.56 4676 89.56 C 4684.28 89.56 4691 87.32 4691 84.56" fill="none" stroke="#000000" stroke-miterlimit="10" pointer-events="all"/></g></g><g data-cell-id="5G7c4jUEA5Og9TPHIXhp-676"><g><rect x="4701" y="109.56" width="30" height="30" fill="none" stroke="none" pointer-events="all"/><path d="M 4712.86 109.56 L 4712.86 115.88 L 4715.43 115.88 L 4715.42 121.8 L 4703.94 121.79 C 4703.79 121.79 4703.65 121.85 4703.55 121.96 C 4703.44 122.06 4703.38 122.21 4703.38 122.36 L 4703.39 133.22 L 4701 133.22 L 4701 139.54 L 4707.16 139.54 L 4707.16 133.22 L 4704.5 133.22 L 4704.49 122.93 L 4715.42 122.94 L 4715.41 130.66 L 4712.85 130.66 L 4712.85 136.98 L 4719.01 136.98 L 4719.01 130.66 L 4716.52 130.66 L 4716.53 122.94 L 4727.43 122.96 L 4727.38 133.23 L 4724.84 133.23 L 4724.84 139.56 L 4731 139.56 L 4731 133.23 L 4728.49 133.23 L 4728.54 122.39 C 4728.54 122.24 4728.49 122.09 4728.38 121.98 C 4728.28 121.87 4728.14 121.81 4727.99 121.81 L 4716.53 121.8 L 4716.54 115.88 L 4719.02 115.88 L 4719.02 109.56 Z" fill="#000000" stroke="none" pointer-events="all"/></g></g><g data-cell-id="5G7c4jUEA5Og9TPHIXhp-677"><g><path d="M 4661 199.56 L 4691 214.56 L 4661 229.56 Z" fill="none" stroke="#000000" stroke-miterlimit="10" transform="rotate(-90,4676,214.56)" pointer-events="all"/></g></g><g data-cell-id="5G7c4jUEA5Og9TPHIXhp-683"><g><ellipse cx="4776" cy="374.9" rx="20" ry="20" fill="#bfbfbf" stroke="#000000" stroke-width="2" pointer-events="all"/></g></g><g data-cell-id="5G7c4jUEA5Og9TPHIXhp-684"><g><ellipse cx="4796" cy="184.59" rx="15" ry="15" fill="#60a917" stroke="none" pointer-events="all"/></g></g><g data-cell-id="5G7c4jUEA5Og9TPHIXhp-685"><g><ellipse cx="4756" cy="214.59" rx="15" ry="15" fill="#a20025" stroke="none" pointer-events="all"/></g></g><g data-cell-id="5G7c4jUEA5Og9TPHIXhp-686"><g><ellipse cx="4756" cy="154.59" rx="15" ry="15" fill="#a20025" stroke="none" pointer-events="all"/></g></g><g data-cell-id="5G7c4jUEA5Og9TPHIXhp-687"><g><ellipse cx="4796" cy="124.59" rx="15" ry="15" fill="#60a917" stroke="none" pointer-events="all"/></g></g><g data-cell-id="5G7c4jUEA5Og9TPHIXhp-688"><g><ellipse cx="4756" cy="94.59" rx="15" ry="15" fill="#0050ef" stroke="none" pointer-events="all"/></g></g><g data-cell-id="5G7c4jUEA5Og9TPHIXhp-689"><g><ellipse cx="4796" cy="64.59" rx="15" ry="15" fill="#60a917" stroke="none" pointer-events="all"/></g></g><g data-cell-id="5G7c4jUEA5Og9TPHIXhp-697"><g><path d="M 4715.94 64.22 C 4716.83 64.22 4717.46 63.59 4717.46 62.76 L 4717.46 56.76 C 4717.46 55.97 4716.93 55.25 4716.04 55.25 C 4715.15 55.25 4714.53 55.96 4714.53 56.62 L 4714.53 62.77 C 4714.53 63.59 4715.22 64.22 4715.94 64.22 Z M 4715.95 73.87 C 4720.72 73.87 4724.67 70.04 4724.67 65.31 C 4724.67 62.92 4723.81 60.25 4721.18 58.31 C 4720.7 57.93 4719.72 58.13 4719.28 58.72 C 4718.87 59.31 4718.84 60.17 4719.5 60.8 C 4720.81 61.84 4721.67 63.47 4721.67 65.16 C 4721.67 68.43 4718.87 70.86 4716.07 70.86 C 4713.31 70.86 4710.55 68.85 4710.35 65.24 C 4710.31 63.79 4711.13 61.74 4712.58 60.72 C 4713.08 60.31 4713.28 59.39 4712.67 58.67 C 4712.09 57.93 4711.14 58.06 4710.74 58.38 C 4708.51 60.2 4707.43 62.23 4707.38 65.05 C 4707.38 70.29 4711.37 73.87 4715.95 73.87 Z M 4715.99 79.56 C 4707.45 79.56 4701 72.63 4701 64.5 C 4701 56.33 4707.71 49.56 4716.14 49.56 C 4723.88 49.56 4731 55.82 4731 64.47 C 4731 73.5 4723.78 79.56 4715.99 79.56 Z" fill="none" stroke="#000000" stroke-miterlimit="10" pointer-events="all"/></g></g><g data-cell-id="5G7c4jUEA5Og9TPHIXhp-698"><g><rect x="4701" y="169.56" width="30" height="30" fill="none" stroke="none" pointer-events="all"/><path d="M 4712.86 169.56 L 4712.86 175.88 L 4715.43 175.88 L 4715.42 181.8 L 4703.94 181.79 C 4703.79 181.79 4703.65 181.85 4703.55 181.96 C 4703.44 182.06 4703.38 182.21 4703.38 182.36 L 4703.39 193.22 L 4701 193.22 L 4701 199.54 L 4707.16 199.54 L 4707.16 193.22 L 4704.5 193.22 L 4704.49 182.93 L 4715.42 182.94 L 4715.41 190.66 L 4712.85 190.66 L 4712.85 196.98 L 4719.01 196.98 L 4719.01 190.66 L 4716.52 190.66 L 4716.53 182.94 L 4727.43 182.96 L 4727.38 193.23 L 4724.84 193.23 L 4724.84 199.56 L 4731 199.56 L 4731 193.23 L 4728.49 193.23 L 4728.54 182.39 C 4728.54 182.24 4728.49 182.09 4728.38 181.98 C 4728.28 181.87 4728.14 181.81 4727.99 181.81 L 4716.53 181.8 L 4716.54 175.88 L 4719.02 175.88 L 4719.02 169.56 Z" fill="#000000" stroke="none" pointer-events="all"/></g></g><g data-cell-id="5G7c4jUEA5Og9TPHIXhp-699"><g><rect x="4701" y="229.56" width="30" height="30" fill="none" stroke="none" pointer-events="all"/><path d="M 4712.86 229.56 L 4712.86 235.88 L 4715.43 235.88 L 4715.42 241.8 L 4703.94 241.79 C 4703.79 241.79 4703.65 241.85 4703.55 241.96 C 4703.44 242.06 4703.38 242.21 4703.38 242.36 L 4703.39 253.22 L 4701 253.22 L 4701 259.54 L 4707.16 259.54 L 4707.16 253.22 L 4704.5 253.22 L 4704.49 242.93 L 4715.42 242.94 L 4715.41 250.66 L 4712.85 250.66 L 4712.85 256.98 L 4719.01 256.98 L 4719.01 250.66 L 4716.52 250.66 L 4716.53 242.94 L 4727.43 242.96 L 4727.38 253.23 L 4724.84 253.23 L 4724.84 259.56 L 4731 259.56 L 4731 253.23 L 4728.49 253.23 L 4728.54 242.39 C 4728.54 242.24 4728.49 242.09 4728.38 241.98 C 4728.28 241.87 4728.14 241.81 4727.99 241.81 L 4716.53 241.8 L 4716.54 235.88 L 4719.02 235.88 L 4719.02 229.56 Z" fill="#000000" stroke="none" pointer-events="all"/></g></g><g data-cell-id="5G7c4jUEA5Og9TPHIXhp-700"><g><rect x="4661" y="139.6" width="30" height="30" fill="none" stroke="none" pointer-events="all"/><path d="M 4662.51 169.6 C 4661.68 169.59 4661.01 168.52 4661.01 167.2 L 4661 142 C 4661 141.36 4661.16 140.75 4661.44 140.3 C 4661.72 139.85 4662.11 139.6 4662.51 139.6 L 4689.49 139.6 C 4689.89 139.6 4690.28 139.85 4690.56 140.3 C 4690.84 140.75 4691 141.36 4691 142 L 4691 167.2 C 4691 167.84 4690.84 168.45 4690.56 168.9 C 4690.28 169.35 4689.89 169.6 4689.49 169.6 Z M 4668.98 156.98 L 4672.14 145.6 C 4672.31 145.2 4672.59 144.96 4672.9 144.96 C 4673.2 144.96 4673.48 145.2 4673.65 145.6 L 4677.6 159.52 L 4680.34 151.46 C 4680.58 150.96 4680.97 150.69 4681.36 150.74 L 4687.6 150.74 L 4687.6 153.66 L 4681.69 153.66 L 4678.29 163.6 C 4678.12 163.98 4677.84 164.21 4677.55 164.21 C 4677.26 164.21 4676.98 163.98 4676.81 163.6 L 4672.9 149.87 L 4670.4 158.99 C 4670.18 159.53 4669.8 159.85 4669.4 159.86 L 4664.52 159.86 L 4664.52 156.98 Z M 4662.96 166.34 L 4689.01 166.29 L 4689.01 142.72 L 4662.96 142.72 Z M 4675.13 167.01 L 4675.13 168.3 L 4676.87 168.3 L 4676.87 167.01 Z" fill="#000000" stroke="none" pointer-events="all"/></g></g></g><g data-cell-id="ADVaAESZDNi0vssxZZNh-2"><g><rect x="180.1" y="299.2" width="4466" height="300" fill="#000000" stroke="#aaaaaa" stroke-width="10" pointer-events="all"/></g></g><g data-cell-id="ADVaAESZDNi0vssxZZNh-3"><g/><g data-cell-id="ADVaAESZDNi0vssxZZNh-4"><g/><g data-cell-id="ADVaAESZDNi0vssxZZNh-5"><g><rect x="3528.38" y="318.3" width="1099.52" height="261.79" fill="#222222" stroke="none" pointer-events="all"/></g></g><g data-cell-id="ADVaAESZDNi0vssxZZNh-6"><g><rect x="3559.79" y="349.72" width="1015.75" height="198.96" fill="#000000" stroke="#111111" stroke-width="5" pointer-events="all"/></g></g><g data-cell-id="ADVaAESZDNi0vssxZZNh-7"><g><rect x="4580.78" y="532.97" width="41.89" height="31.41" rx="4.71" ry="4.71" fill="#60a917" stroke="#222222" transform="rotate(90,4601.72,548.68)" pointer-events="all"/></g></g><g data-cell-id="ADVaAESZDNi0vssxZZNh-8"><g><rect x="4580.78" y="438.72" width="41.89" height="31.41" rx="4.71" ry="4.71" fill="#0050ef" stroke="#222222" transform="rotate(90,4601.72,454.43)" pointer-events="all"/></g></g><g data-cell-id="ADVaAESZDNi0vssxZZNh-9"><g><rect x="4313.75" y="381.13" width="83.77" height="136.13" rx="12.57" ry="12.57" fill="#0050ef" stroke="none" pointer-events="all"/></g></g><g data-cell-id="ADVaAESZDNi0vssxZZNh-10"><g><path d="M 4387.05 381.13 Q 4418.47 381.13 4418.47 449.2 Q 4418.47 517.26 4387.05 517.26 Z" fill="#0050ef" stroke="none" pointer-events="all"/></g></g><g data-cell-id="ADVaAESZDNi0vssxZZNh-11"><g><path d="M 4601.66 406.96 C 4602.59 406.96 4603.25 406.3 4603.25 405.43 L 4603.25 399.14 C 4603.25 398.32 4602.69 397.56 4601.76 397.56 C 4600.83 397.56 4600.18 398.31 4600.18 399 L 4600.18 405.44 C 4600.18 406.3 4600.91 406.96 4601.66 406.96 Z M 4601.67 417.07 C 4606.67 417.07 4610.8 413.05 4610.8 408.1 C 4610.8 405.6 4609.9 402.8 4607.15 400.76 C 4606.64 400.37 4605.62 400.58 4605.15 401.19 C 4604.73 401.82 4604.7 402.72 4605.39 403.37 C 4606.76 404.46 4607.65 406.18 4607.65 407.94 C 4607.65 411.36 4604.73 413.91 4601.79 413.91 C 4598.9 413.91 4596.01 411.8 4595.81 408.03 C 4595.76 406.51 4596.62 404.36 4598.14 403.3 C 4598.66 402.87 4598.87 401.9 4598.23 401.15 C 4597.62 400.37 4596.63 400.51 4596.21 400.84 C 4593.87 402.75 4592.75 404.88 4592.69 407.83 C 4592.69 413.31 4596.87 417.07 4601.67 417.07 Z M 4601.71 423.02 C 4592.77 423.02 4586.01 415.76 4586.01 407.25 C 4586.01 398.69 4593.04 391.6 4601.87 391.6 C 4609.97 391.6 4617.43 398.16 4617.43 407.22 C 4617.43 416.67 4609.87 423.02 4601.71 423.02 Z" fill="none" stroke="#111111" stroke-width="2" stroke-miterlimit="10" pointer-events="all"/></g></g><g data-cell-id="ADVaAESZDNi0vssxZZNh-12"><g><path d="M 4586.01 512.03 L 4586.01 491.08 C 4586.01 488.19 4593.05 485.85 4601.72 485.85 C 4610.4 485.85 4617.43 488.19 4617.43 491.08 L 4617.43 512.03 C 4617.43 514.92 4610.4 517.26 4601.72 517.26 C 4593.05 517.26 4586.01 514.92 4586.01 512.03 Z" fill="none" stroke="#111111" stroke-width="2" stroke-miterlimit="10" pointer-events="all"/><path d="M 4586.01 491.08 C 4586.01 493.97 4593.05 496.32 4601.72 496.32 C 4610.4 496.32 4617.43 493.97 4617.43 491.08" fill="none" stroke="#111111" stroke-width="2" stroke-miterlimit="10" pointer-events="all"/></g></g><g data-cell-id="ADVaAESZDNi0vssxZZNh-13"><g><rect x="3559.79" y="349.72" width="806.32" height="198.96" fill="#222222" stroke="none" pointer-events="all"/></g></g><g data-cell-id="ADVaAESZDNi0vssxZZNh-14"><g><rect x="3664.51" y="375.89" width="555" height="20.94" fill="#000000" stroke="none" pointer-events="all"/></g></g><g data-cell-id="ADVaAESZDNi0vssxZZNh-15"><g><rect x="3664.51" y="417.78" width="555" height="20.94" fill="#000000" stroke="none" pointer-events="all"/></g></g><g data-cell-id="ADVaAESZDNi0vssxZZNh-16"><g><rect x="3664.51" y="459.67" width="555" height="20.94" fill="#000000" stroke="none" pointer-events="all"/></g></g><g data-cell-id="ADVaAESZDNi0vssxZZNh-17"><g><rect x="3664.51" y="501.55" width="555" height="20.94" fill="#000000" stroke="none" pointer-events="all"/></g></g><g data-cell-id="ADVaAESZDNi0vssxZZNh-18"><g><rect x="3832.06" y="375.89" width="20.94" height="146.6" fill="#111111" stroke="none" pointer-events="all"/></g></g><g data-cell-id="ADVaAESZDNi0vssxZZNh-19"><g><rect x="4031.02" y="375.89" width="20.94" height="146.6" fill="#111111" stroke="none" pointer-events="all"/></g></g><g data-cell-id="ADVaAESZDNi0vssxZZNh-20"><g><rect x="3664.51" y="480.61" width="555" height="20.94" fill="#222222" stroke="none" pointer-events="all"/></g></g><g data-cell-id="ADVaAESZDNi0vssxZZNh-21"><g><rect x="3664.51" y="438.72" width="555" height="20.94" fill="#222222" stroke="none" pointer-events="all"/></g></g><g data-cell-id="ADVaAESZDNi0vssxZZNh-22"><g><rect x="3664.51" y="396.84" width="555" height="20.94" fill="#222222" stroke="none" pointer-events="all"/></g></g><g data-cell-id="ADVaAESZDNi0vssxZZNh-23"><g><rect x="3622.62" y="375.89" width="41.89" height="146.6" fill="#111111" stroke="none" pointer-events="all"/></g></g><g data-cell-id="ADVaAESZDNi0vssxZZNh-24"><g><rect x="4219.51" y="375.89" width="41.89" height="146.6" fill="#111111" stroke="none" pointer-events="all"/></g></g></g><g data-cell-id="ADVaAESZDNi0vssxZZNh-25"><g/><g data-cell-id="ADVaAESZDNi0vssxZZNh-26"><g><rect x="2418.38" y="318.3" width="1099.52" height="261.79" fill="#222222" stroke="none" pointer-events="all"/></g></g><g data-cell-id="ADVaAESZDNi0vssxZZNh-27"><g><rect x="2449.79" y="349.72" width="1015.75" height="198.96" fill="#000000" stroke="#111111" stroke-width="5" pointer-events="all"/></g></g><g data-cell-id="ADVaAESZDNi0vssxZZNh-28"><g><rect x="3470.78" y="532.97" width="41.89" height="31.41" rx="4.71" ry="4.71" fill="#60a917" stroke="#222222" transform="rotate(90,3491.72,548.68)" pointer-events="all"/></g></g><g data-cell-id="ADVaAESZDNi0vssxZZNh-29"><g><rect x="3470.78" y="438.72" width="41.89" height="31.41" rx="4.71" ry="4.71" fill="#0050ef" stroke="#222222" transform="rotate(90,3491.72,454.43)" pointer-events="all"/></g></g><g data-cell-id="ADVaAESZDNi0vssxZZNh-30"><g><rect x="3203.75" y="381.13" width="83.77" height="136.13" rx="12.57" ry="12.57" fill="#0050ef" stroke="none" pointer-events="all"/></g></g><g data-cell-id="ADVaAESZDNi0vssxZZNh-31"><g><path d="M 3277.05 381.13 Q 3308.47 381.13 3308.47 449.2 Q 3308.47 517.26 3277.05 517.26 Z" fill="#0050ef" stroke="none" pointer-events="all"/></g></g><g data-cell-id="ADVaAESZDNi0vssxZZNh-32"><g><path d="M 3491.66 406.96 C 3492.59 406.96 3493.25 406.3 3493.25 405.43 L 3493.25 399.14 C 3493.25 398.32 3492.69 397.56 3491.76 397.56 C 3490.83 397.56 3490.18 398.31 3490.18 399 L 3490.18 405.44 C 3490.18 406.3 3490.91 406.96 3491.66 406.96 Z M 3491.67 417.07 C 3496.67 417.07 3500.8 413.05 3500.8 408.1 C 3500.8 405.6 3499.9 402.8 3497.15 400.76 C 3496.64 400.37 3495.62 400.58 3495.15 401.19 C 3494.73 401.82 3494.7 402.72 3495.39 403.37 C 3496.76 404.46 3497.65 406.18 3497.65 407.94 C 3497.65 411.36 3494.73 413.91 3491.79 413.91 C 3488.9 413.91 3486.01 411.8 3485.81 408.03 C 3485.76 406.51 3486.62 404.36 3488.14 403.3 C 3488.66 402.87 3488.87 401.9 3488.23 401.15 C 3487.62 400.37 3486.63 400.51 3486.21 400.84 C 3483.87 402.75 3482.75 404.88 3482.69 407.83 C 3482.69 413.31 3486.87 417.07 3491.67 417.07 Z M 3491.71 423.02 C 3482.77 423.02 3476.01 415.76 3476.01 407.25 C 3476.01 398.69 3483.04 391.6 3491.87 391.6 C 3499.97 391.6 3507.43 398.16 3507.43 407.22 C 3507.43 416.67 3499.87 423.02 3491.71 423.02 Z" fill="none" stroke="#111111" stroke-width="2" stroke-miterlimit="10" pointer-events="all"/></g></g><g data-cell-id="ADVaAESZDNi0vssxZZNh-33"><g><path d="M 3476.01 512.03 L 3476.01 491.08 C 3476.01 488.19 3483.05 485.85 3491.72 485.85 C 3500.4 485.85 3507.43 488.19 3507.43 491.08 L 3507.43 512.03 C 3507.43 514.92 3500.4 517.26 3491.72 517.26 C 3483.05 517.26 3476.01 514.92 3476.01 512.03 Z" fill="none" stroke="#111111" stroke-width="2" stroke-miterlimit="10" pointer-events="all"/><path d="M 3476.01 491.08 C 3476.01 493.97 3483.05 496.32 3491.72 496.32 C 3500.4 496.32 3507.43 493.97 3507.43 491.08" fill="none" stroke="#111111" stroke-width="2" stroke-miterlimit="10" pointer-events="all"/></g></g><g data-cell-id="ADVaAESZDNi0vssxZZNh-34"><g><rect x="2449.79" y="349.72" width="806.32" height="198.96" fill="#222222" stroke="none" pointer-events="all"/></g></g><g data-cell-id="ADVaAESZDNi0vssxZZNh-35"><g><rect x="2554.51" y="375.89" width="555" height="20.94" fill="#000000" stroke="none" pointer-events="all"/></g></g><g data-cell-id="ADVaAESZDNi0vssxZZNh-36"><g><rect x="2554.51" y="417.78" width="555" height="20.94" fill="#000000" stroke="none" pointer-events="all"/></g></g><g data-cell-id="ADVaAESZDNi0vssxZZNh-37"><g><rect x="2554.51" y="459.67" width="555" height="20.94" fill="#000000" stroke="none" pointer-events="all"/></g></g><g data-cell-id="ADVaAESZDNi0vssxZZNh-38"><g><rect x="2554.51" y="501.55" width="555" height="20.94" fill="#000000" stroke="none" pointer-events="all"/></g></g><g data-cell-id="ADVaAESZDNi0vssxZZNh-39"><g><rect x="2722.06" y="375.89" width="20.94" height="146.6" fill="#111111" stroke="none" pointer-events="all"/></g></g><g data-cell-id="ADVaAESZDNi0vssxZZNh-40"><g><rect x="2921.02" y="375.89" width="20.94" height="146.6" fill="#111111" stroke="none" pointer-events="all"/></g></g><g data-cell-id="ADVaAESZDNi0vssxZZNh-41"><g><rect x="2554.51" y="480.61" width="555" height="20.94" fill="#222222" stroke="none" pointer-events="all"/></g></g><g data-cell-id="ADVaAESZDNi0vssxZZNh-42"><g><rect x="2554.51" y="438.72" width="555" height="20.94" fill="#222222" stroke="none" pointer-events="all"/></g></g><g data-cell-id="ADVaAESZDNi0vssxZZNh-43"><g><rect x="2554.51" y="396.84" width="555" height="20.94" fill="#222222" stroke="none" pointer-events="all"/></g></g><g data-cell-id="ADVaAESZDNi0vssxZZNh-44"><g><rect x="2512.62" y="375.89" width="41.89" height="146.6" fill="#111111" stroke="none" pointer-events="all"/></g></g><g data-cell-id="ADVaAESZDNi0vssxZZNh-45"><g><rect x="3109.51" y="375.89" width="41.89" height="146.6" fill="#111111" stroke="none" pointer-events="all"/></g></g></g><g data-cell-id="ADVaAESZDNi0vssxZZNh-46"><g/><g data-cell-id="ADVaAESZDNi0vssxZZNh-47"><g><rect x="1308.38" y="318.3" width="1099.52" height="261.79" fill="#222222" stroke="none" pointer-events="all"/></g></g><g data-cell-id="ADVaAESZDNi0vssxZZNh-48"><g><rect x="1339.79" y="349.72" width="1015.75" height="198.96" fill="#000000" stroke="#111111" stroke-width="5" pointer-events="all"/></g></g><g data-cell-id="ADVaAESZDNi0vssxZZNh-49"><g><rect x="2360.78" y="532.97" width="41.89" height="31.41" rx="4.71" ry="4.71" fill="#60a917" stroke="#222222" transform="rotate(90,2381.72,548.68)" pointer-events="all"/></g></g><g data-cell-id="ADVaAESZDNi0vssxZZNh-50"><g><rect x="2360.78" y="438.72" width="41.89" height="31.41" rx="4.71" ry="4.71" fill="#0050ef" stroke="#222222" transform="rotate(90,2381.72,454.43)" pointer-events="all"/></g></g><g data-cell-id="ADVaAESZDNi0vssxZZNh-51"><g><rect x="2093.75" y="381.13" width="83.77" height="136.13" rx="12.57" ry="12.57" fill="#0050ef" stroke="none" pointer-events="all"/></g></g><g data-cell-id="ADVaAESZDNi0vssxZZNh-52"><g><path d="M 2167.05 381.13 Q 2198.47 381.13 2198.47 449.2 Q 2198.47 517.26 2167.05 517.26 Z" fill="#0050ef" stroke="none" pointer-events="all"/></g></g><g data-cell-id="ADVaAESZDNi0vssxZZNh-53"><g><path d="M 2381.66 406.96 C 2382.59 406.96 2383.25 406.3 2383.25 405.43 L 2383.25 399.14 C 2383.25 398.32 2382.69 397.56 2381.76 397.56 C 2380.83 397.56 2380.18 398.31 2380.18 399 L 2380.18 405.44 C 2380.18 406.3 2380.91 406.96 2381.66 406.96 Z M 2381.67 417.07 C 2386.67 417.07 2390.8 413.05 2390.8 408.1 C 2390.8 405.6 2389.9 402.8 2387.15 400.76 C 2386.64 400.37 2385.62 400.58 2385.15 401.19 C 2384.73 401.82 2384.7 402.72 2385.39 403.37 C 2386.76 404.46 2387.65 406.18 2387.65 407.94 C 2387.65 411.36 2384.73 413.91 2381.79 413.91 C 2378.9 413.91 2376.01 411.8 2375.81 408.03 C 2375.76 406.51 2376.62 404.36 2378.14 403.3 C 2378.66 402.87 2378.87 401.9 2378.23 401.15 C 2377.62 400.37 2376.63 400.51 2376.21 400.84 C 2373.87 402.75 2372.75 404.88 2372.69 407.83 C 2372.69 413.31 2376.87 417.07 2381.67 417.07 Z M 2381.71 423.02 C 2372.77 423.02 2366.01 415.76 2366.01 407.25 C 2366.01 398.69 2373.04 391.6 2381.87 391.6 C 2389.97 391.6 2397.43 398.16 2397.43 407.22 C 2397.43 416.67 2389.87 423.02 2381.71 423.02 Z" fill="none" stroke="#111111" stroke-width="2" stroke-miterlimit="10" pointer-events="all"/></g></g><g data-cell-id="ADVaAESZDNi0vssxZZNh-54"><g><path d="M 2366.01 512.03 L 2366.01 491.08 C 2366.01 488.19 2373.05 485.85 2381.72 485.85 C 2390.4 485.85 2397.43 488.19 2397.43 491.08 L 2397.43 512.03 C 2397.43 514.92 2390.4 517.26 2381.72 517.26 C 2373.05 517.26 2366.01 514.92 2366.01 512.03 Z" fill="none" stroke="#111111" stroke-width="2" stroke-miterlimit="10" pointer-events="all"/><path d="M 2366.01 491.08 C 2366.01 493.97 2373.05 496.32 2381.72 496.32 C 2390.4 496.32 2397.43 493.97 2397.43 491.08" fill="none" stroke="#111111" stroke-width="2" stroke-miterlimit="10" pointer-events="all"/></g></g><g data-cell-id="ADVaAESZDNi0vssxZZNh-55"><g><rect x="1339.79" y="349.72" width="806.32" height="198.96" fill="#222222" stroke="none" pointer-events="all"/></g></g><g data-cell-id="ADVaAESZDNi0vssxZZNh-56"><g><rect x="1444.51" y="375.89" width="555" height="20.94" fill="#000000" stroke="none" pointer-events="all"/></g></g><g data-cell-id="ADVaAESZDNi0vssxZZNh-57"><g><rect x="1444.51" y="417.78" width="555" height="20.94" fill="#000000" stroke="none" pointer-events="all"/></g></g><g data-cell-id="ADVaAESZDNi0vssxZZNh-58"><g><rect x="1444.51" y="459.67" width="555" height="20.94" fill="#000000" stroke="none" pointer-events="all"/></g></g><g data-cell-id="ADVaAESZDNi0vssxZZNh-59"><g><rect x="1444.51" y="501.55" width="555" height="20.94" fill="#000000" stroke="none" pointer-events="all"/></g></g><g data-cell-id="ADVaAESZDNi0vssxZZNh-60"><g><rect x="1612.06" y="375.89" width="20.94" height="146.6" fill="#111111" stroke="none" pointer-events="all"/></g></g><g data-cell-id="ADVaAESZDNi0vssxZZNh-61"><g><rect x="1811.02" y="375.89" width="20.94" height="146.6" fill="#111111" stroke="none" pointer-events="all"/></g></g><g data-cell-id="ADVaAESZDNi0vssxZZNh-62"><g><rect x="1444.51" y="480.61" width="555" height="20.94" fill="#222222" stroke="none" pointer-events="all"/></g></g><g data-cell-id="ADVaAESZDNi0vssxZZNh-63"><g><rect x="1444.51" y="438.72" width="555" height="20.94" fill="#222222" stroke="none" pointer-events="all"/></g></g><g data-cell-id="ADVaAESZDNi0vssxZZNh-64"><g><rect x="1444.51" y="396.84" width="555" height="20.94" fill="#222222" stroke="none" pointer-events="all"/></g></g><g data-cell-id="ADVaAESZDNi0vssxZZNh-65"><g><rect x="1402.62" y="375.89" width="41.89" height="146.6" fill="#111111" stroke="none" pointer-events="all"/></g></g><g data-cell-id="ADVaAESZDNi0vssxZZNh-66"><g><rect x="1999.51" y="375.89" width="41.89" height="146.6" fill="#111111" stroke="none" pointer-events="all"/></g></g></g><g data-cell-id="ADVaAESZDNi0vssxZZNh-67"><g/><g data-cell-id="ADVaAESZDNi0vssxZZNh-68"><g><rect x="198.38" y="318.3" width="1099.52" height="261.79" fill="#222222" stroke="none" pointer-events="all"/></g></g><g data-cell-id="ADVaAESZDNi0vssxZZNh-69"><g><rect x="229.79" y="349.72" width="1015.75" height="198.96" fill="#000000" stroke="#111111" stroke-width="5" pointer-events="all"/></g></g><g data-cell-id="ADVaAESZDNi0vssxZZNh-70"><g><rect x="1250.78" y="532.97" width="41.89" height="31.41" rx="4.71" ry="4.71" fill="#60a917" stroke="#222222" transform="rotate(90,1271.72,548.68)" pointer-events="all"/></g></g><g data-cell-id="ADVaAESZDNi0vssxZZNh-71"><g><rect x="1250.78" y="438.72" width="41.89" height="31.41" rx="4.71" ry="4.71" fill="#0050ef" stroke="#222222" transform="rotate(90,1271.72,454.43)" pointer-events="all"/></g></g><g data-cell-id="ADVaAESZDNi0vssxZZNh-72"><g><rect x="983.75" y="381.13" width="83.77" height="136.13" rx="12.57" ry="12.57" fill="#0050ef" stroke="none" pointer-events="all"/></g></g><g data-cell-id="ADVaAESZDNi0vssxZZNh-73"><g><path d="M 1057.05 381.13 Q 1088.47 381.13 1088.47 449.2 Q 1088.47 517.26 1057.05 517.26 Z" fill="#0050ef" stroke="none" pointer-events="all"/></g></g><g data-cell-id="ADVaAESZDNi0vssxZZNh-74"><g><path d="M 1271.66 406.96 C 1272.59 406.96 1273.25 406.3 1273.25 405.43 L 1273.25 399.14 C 1273.25 398.32 1272.69 397.56 1271.76 397.56 C 1270.83 397.56 1270.18 398.31 1270.18 399 L 1270.18 405.44 C 1270.18 406.3 1270.91 406.96 1271.66 406.96 Z M 1271.67 417.07 C 1276.67 417.07 1280.8 413.05 1280.8 408.1 C 1280.8 405.6 1279.9 402.8 1277.15 400.76 C 1276.64 400.37 1275.62 400.58 1275.15 401.19 C 1274.73 401.82 1274.7 402.72 1275.39 403.37 C 1276.76 404.46 1277.65 406.18 1277.65 407.94 C 1277.65 411.36 1274.73 413.91 1271.79 413.91 C 1268.9 413.91 1266.01 411.8 1265.81 408.03 C 1265.76 406.51 1266.62 404.36 1268.14 403.3 C 1268.66 402.87 1268.87 401.9 1268.23 401.15 C 1267.62 400.37 1266.63 400.51 1266.21 400.84 C 1263.87 402.75 1262.75 404.88 1262.69 407.83 C 1262.69 413.31 1266.87 417.07 1271.67 417.07 Z M 1271.71 423.02 C 1262.77 423.02 1256.01 415.76 1256.01 407.25 C 1256.01 398.69 1263.04 391.6 1271.87 391.6 C 1279.97 391.6 1287.43 398.16 1287.43 407.22 C 1287.43 416.67 1279.87 423.02 1271.71 423.02 Z" fill="none" stroke="#111111" stroke-width="2" stroke-miterlimit="10" pointer-events="all"/></g></g><g data-cell-id="ADVaAESZDNi0vssxZZNh-75"><g><path d="M 1256.01 512.03 L 1256.01 491.08 C 1256.01 488.19 1263.05 485.85 1271.72 485.85 C 1280.4 485.85 1287.43 488.19 1287.43 491.08 L 1287.43 512.03 C 1287.43 514.92 1280.4 517.26 1271.72 517.26 C 1263.05 517.26 1256.01 514.92 1256.01 512.03 Z" fill="none" stroke="#111111" stroke-width="2" stroke-miterlimit="10" pointer-events="all"/><path d="M 1256.01 491.08 C 1256.01 493.97 1263.05 496.32 1271.72 496.32 C 1280.4 496.32 1287.43 493.97 1287.43 491.08" fill="none" stroke="#111111" stroke-width="2" stroke-miterlimit="10" pointer-events="all"/></g></g><g data-cell-id="ADVaAESZDNi0vssxZZNh-76"><g><rect x="229.79" y="349.72" width="806.32" height="198.96" fill="#222222" stroke="none" pointer-events="all"/></g></g><g data-cell-id="ADVaAESZDNi0vssxZZNh-77"><g><rect x="334.51" y="375.89" width="555" height="20.94" fill="#000000" stroke="none" pointer-events="all"/></g></g><g data-cell-id="ADVaAESZDNi0vssxZZNh-78"><g><rect x="334.51" y="417.78" width="555" height="20.94" fill="#000000" stroke="none" pointer-events="all"/></g></g><g data-cell-id="ADVaAESZDNi0vssxZZNh-79"><g><rect x="334.51" y="459.67" width="555" height="20.94" fill="#000000" stroke="none" pointer-events="all"/></g></g><g data-cell-id="ADVaAESZDNi0vssxZZNh-80"><g><rect x="334.51" y="501.55" width="555" height="20.94" fill="#000000" stroke="none" pointer-events="all"/></g></g><g data-cell-id="ADVaAESZDNi0vssxZZNh-81"><g><rect x="502.06" y="375.89" width="20.94" height="146.6" fill="#111111" stroke="none" pointer-events="all"/></g></g><g data-cell-id="ADVaAESZDNi0vssxZZNh-82"><g><rect x="701.02" y="375.89" width="20.94" height="146.6" fill="#111111" stroke="none" pointer-events="all"/></g></g><g data-cell-id="ADVaAESZDNi0vssxZZNh-83"><g><rect x="334.51" y="480.61" width="555" height="20.94" fill="#222222" stroke="none" pointer-events="all"/></g></g><g data-cell-id="ADVaAESZDNi0vssxZZNh-84"><g><rect x="334.51" y="438.72" width="555" height="20.94" fill="#222222" stroke="none" pointer-events="all"/></g></g><g data-cell-id="ADVaAESZDNi0vssxZZNh-85"><g><rect x="334.51" y="396.84" width="555" height="20.94" fill="#222222" stroke="none" pointer-events="all"/></g></g><g data-cell-id="ADVaAESZDNi0vssxZZNh-86"><g><rect x="292.62" y="375.89" width="41.89" height="146.6" fill="#111111" stroke="none" pointer-events="all"/></g></g><g data-cell-id="ADVaAESZDNi0vssxZZNh-87"><g><rect x="889.51" y="375.89" width="41.89" height="146.6" fill="#111111" stroke="none" pointer-events="all"/></g></g></g></g><g data-cell-id="ADVaAESZDNi0vssxZZNh-258"><g/><g data-cell-id="ADVaAESZDNi0vssxZZNh-259"><g/><g data-cell-id="ADVaAESZDNi0vssxZZNh-260"><g><rect x="3528.38" y="610.1" width="1099.52" height="261.79" fill="#222222" stroke="none" pointer-events="all"/></g></g><g data-cell-id="ADVaAESZDNi0vssxZZNh-261"><g><rect x="3559.79" y="641.52" width="1015.75" height="198.96" fill="#000000" stroke="#111111" stroke-width="5" pointer-events="all"/></g></g><g data-cell-id="ADVaAESZDNi0vssxZZNh-262"><g><rect x="4580.78" y="824.77" width="41.89" height="31.41" rx="4.71" ry="4.71" fill="#60a917" stroke="#222222" transform="rotate(90,4601.72,840.48)" pointer-events="all"/></g></g><g data-cell-id="ADVaAESZDNi0vssxZZNh-263"><g><rect x="4580.78" y="730.52" width="41.89" height="31.41" rx="4.71" ry="4.71" fill="#0050ef" stroke="#222222" transform="rotate(90,4601.72,746.23)" pointer-events="all"/></g></g><g data-cell-id="ADVaAESZDNi0vssxZZNh-264"><g><rect x="4313.75" y="672.93" width="83.77" height="136.13" rx="12.57" ry="12.57" fill="#0050ef" stroke="none" pointer-events="all"/></g></g><g data-cell-id="ADVaAESZDNi0vssxZZNh-265"><g><path d="M 4387.05 672.93 Q 4418.47 672.93 4418.47 741 Q 4418.47 809.06 4387.05 809.06 Z" fill="#0050ef" stroke="none" pointer-events="all"/></g></g><g data-cell-id="ADVaAESZDNi0vssxZZNh-266"><g><path d="M 4601.66 698.76 C 4602.59 698.76 4603.25 698.1 4603.25 697.23 L 4603.25 690.94 C 4603.25 690.12 4602.69 689.36 4601.76 689.36 C 4600.83 689.36 4600.18 690.11 4600.18 690.8 L 4600.18 697.24 C 4600.18 698.1 4600.91 698.76 4601.66 698.76 Z M 4601.67 708.87 C 4606.67 708.87 4610.8 704.85 4610.8 699.9 C 4610.8 697.4 4609.9 694.6 4607.15 692.56 C 4606.64 692.17 4605.62 692.38 4605.15 692.99 C 4604.73 693.62 4604.7 694.52 4605.39 695.17 C 4606.76 696.26 4607.65 697.98 4607.65 699.74 C 4607.65 703.16 4604.73 705.71 4601.79 705.71 C 4598.9 705.71 4596.01 703.6 4595.81 699.83 C 4595.76 698.31 4596.62 696.16 4598.14 695.1 C 4598.66 694.67 4598.87 693.7 4598.23 692.95 C 4597.62 692.17 4596.63 692.31 4596.21 692.64 C 4593.87 694.55 4592.75 696.68 4592.69 699.63 C 4592.69 705.11 4596.87 708.87 4601.67 708.87 Z M 4601.71 714.82 C 4592.77 714.82 4586.01 707.56 4586.01 699.05 C 4586.01 690.49 4593.04 683.4 4601.87 683.4 C 4609.97 683.4 4617.43 689.96 4617.43 699.02 C 4617.43 708.47 4609.87 714.82 4601.71 714.82 Z" fill="none" stroke="#111111" stroke-width="2" stroke-miterlimit="10" pointer-events="all"/></g></g><g data-cell-id="ADVaAESZDNi0vssxZZNh-267"><g><path d="M 4586.01 803.83 L 4586.01 782.88 C 4586.01 779.99 4593.05 777.65 4601.72 777.65 C 4610.4 777.65 4617.43 779.99 4617.43 782.88 L 4617.43 803.83 C 4617.43 806.72 4610.4 809.06 4601.72 809.06 C 4593.05 809.06 4586.01 806.72 4586.01 803.83 Z" fill="none" stroke="#111111" stroke-width="2" stroke-miterlimit="10" pointer-events="all"/><path d="M 4586.01 782.88 C 4586.01 785.77 4593.05 788.12 4601.72 788.12 C 4610.4 788.12 4617.43 785.77 4617.43 782.88" fill="none" stroke="#111111" stroke-width="2" stroke-miterlimit="10" pointer-events="all"/></g></g><g data-cell-id="ADVaAESZDNi0vssxZZNh-268"><g><rect x="3559.79" y="641.52" width="806.32" height="198.96" fill="#222222" stroke="none" pointer-events="all"/></g></g><g data-cell-id="ADVaAESZDNi0vssxZZNh-269"><g><rect x="3664.51" y="667.69" width="555" height="20.94" fill="#000000" stroke="none" pointer-events="all"/></g></g><g data-cell-id="ADVaAESZDNi0vssxZZNh-270"><g><rect x="3664.51" y="709.58" width="555" height="20.94" fill="#000000" stroke="none" pointer-events="all"/></g></g><g data-cell-id="ADVaAESZDNi0vssxZZNh-271"><g><rect x="3664.51" y="751.47" width="555" height="20.94" fill="#000000" stroke="none" pointer-events="all"/></g></g><g data-cell-id="ADVaAESZDNi0vssxZZNh-272"><g><rect x="3664.51" y="793.35" width="555" height="20.94" fill="#000000" stroke="none" pointer-events="all"/></g></g><g data-cell-id="ADVaAESZDNi0vssxZZNh-273"><g><rect x="3832.06" y="667.69" width="20.94" height="146.6" fill="#111111" stroke="none" pointer-events="all"/></g></g><g data-cell-id="ADVaAESZDNi0vssxZZNh-274"><g><rect x="4031.02" y="667.69" width="20.94" height="146.6" fill="#111111" stroke="none" pointer-events="all"/></g></g><g data-cell-id="ADVaAESZDNi0vssxZZNh-275"><g><rect x="3664.51" y="772.41" width="555" height="20.94" fill="#222222" stroke="none" pointer-events="all"/></g></g><g data-cell-id="ADVaAESZDNi0vssxZZNh-276"><g><rect x="3664.51" y="730.52" width="555" height="20.94" fill="#222222" stroke="none" pointer-events="all"/></g></g><g data-cell-id="ADVaAESZDNi0vssxZZNh-277"><g><rect x="3664.51" y="688.64" width="555" height="20.94" fill="#222222" stroke="none" pointer-events="all"/></g></g><g data-cell-id="ADVaAESZDNi0vssxZZNh-278"><g><rect x="3622.62" y="667.69" width="41.89" height="146.6" fill="#111111" stroke="none" pointer-events="all"/></g></g><g data-cell-id="ADVaAESZDNi0vssxZZNh-279"><g><rect x="4219.51" y="667.69" width="41.89" height="146.6" fill="#111111" stroke="none" pointer-events="all"/></g></g></g><g data-cell-id="ADVaAESZDNi0vssxZZNh-280"><g/><g data-cell-id="ADVaAESZDNi0vssxZZNh-281"><g><rect x="2418.38" y="610.1" width="1099.52" height="261.79" fill="#222222" stroke="none" pointer-events="all"/></g></g><g data-cell-id="ADVaAESZDNi0vssxZZNh-282"><g><rect x="2449.79" y="641.52" width="1015.75" height="198.96" fill="#000000" stroke="#111111" stroke-width="5" pointer-events="all"/></g></g><g data-cell-id="ADVaAESZDNi0vssxZZNh-283"><g><rect x="3470.78" y="824.77" width="41.89" height="31.41" rx="4.71" ry="4.71" fill="#60a917" stroke="#222222" transform="rotate(90,3491.72,840.48)" pointer-events="all"/></g></g><g data-cell-id="ADVaAESZDNi0vssxZZNh-284"><g><rect x="3470.78" y="730.52" width="41.89" height="31.41" rx="4.71" ry="4.71" fill="#0050ef" stroke="#222222" transform="rotate(90,3491.72,746.23)" pointer-events="all"/></g></g><g data-cell-id="ADVaAESZDNi0vssxZZNh-285"><g><rect x="3203.75" y="672.93" width="83.77" height="136.13" rx="12.57" ry="12.57" fill="#0050ef" stroke="none" pointer-events="all"/></g></g><g data-cell-id="ADVaAESZDNi0vssxZZNh-286"><g><path d="M 3277.05 672.93 Q 3308.47 672.93 3308.47 741 Q 3308.47 809.06 3277.05 809.06 Z" fill="#0050ef" stroke="none" pointer-events="all"/></g></g><g data-cell-id="ADVaAESZDNi0vssxZZNh-287"><g><path d="M 3491.66 698.76 C 3492.59 698.76 3493.25 698.1 3493.25 697.23 L 3493.25 690.94 C 3493.25 690.12 3492.69 689.36 3491.76 689.36 C 3490.83 689.36 3490.18 690.11 3490.18 690.8 L 3490.18 697.24 C 3490.18 698.1 3490.91 698.76 3491.66 698.76 Z M 3491.67 708.87 C 3496.67 708.87 3500.8 704.85 3500.8 699.9 C 3500.8 697.4 3499.9 694.6 3497.15 692.56 C 3496.64 692.17 3495.62 692.38 3495.15 692.99 C 3494.73 693.62 3494.7 694.52 3495.39 695.17 C 3496.76 696.26 3497.65 697.98 3497.65 699.74 C 3497.65 703.16 3494.73 705.71 3491.79 705.71 C 3488.9 705.71 3486.01 703.6 3485.81 699.83 C 3485.76 698.31 3486.62 696.16 3488.14 695.1 C 3488.66 694.67 3488.87 693.7 3488.23 692.95 C 3487.62 692.17 3486.63 692.31 3486.21 692.64 C 3483.87 694.55 3482.75 696.68 3482.69 699.63 C 3482.69 705.11 3486.87 708.87 3491.67 708.87 Z M 3491.71 714.82 C 3482.77 714.82 3476.01 707.56 3476.01 699.05 C 3476.01 690.49 3483.04 683.4 3491.87 683.4 C 3499.97 683.4 3507.43 689.96 3507.43 699.02 C 3507.43 708.47 3499.87 714.82 3491.71 714.82 Z" fill="none" stroke="#111111" stroke-width="2" stroke-miterlimit="10" pointer-events="all"/></g></g><g data-cell-id="ADVaAESZDNi0vssxZZNh-288"><g><path d="M 3476.01 803.83 L 3476.01 782.88 C 3476.01 779.99 3483.05 777.65 3491.72 777.65 C 3500.4 777.65 3507.43 779.99 3507.43 782.88 L 3507.43 803.83 C 3507.43 806.72 3500.4 809.06 3491.72 809.06 C 3483.05 809.06 3476.01 806.72 3476.01 803.83 Z" fill="none" stroke="#111111" stroke-width="2" stroke-miterlimit="10" pointer-events="all"/><path d="M 3476.01 782.88 C 3476.01 785.77 3483.05 788.12 3491.72 788.12 C 3500.4 788.12 3507.43 785.77 3507.43 782.88" fill="none" stroke="#111111" stroke-width="2" stroke-miterlimit="10" pointer-events="all"/></g></g><g data-cell-id="ADVaAESZDNi0vssxZZNh-289"><g><rect x="2449.79" y="641.52" width="806.32" height="198.96" fill="#222222" stroke="none" pointer-events="all"/></g></g><g data-cell-id="ADVaAESZDNi0vssxZZNh-290"><g><rect x="2554.51" y="667.69" width="555" height="20.94" fill="#000000" stroke="none" pointer-events="all"/></g></g><g data-cell-id="ADVaAESZDNi0vssxZZNh-291"><g><rect x="2554.51" y="709.58" width="555" height="20.94" fill="#000000" stroke="none" pointer-events="all"/></g></g><g data-cell-id="ADVaAESZDNi0vssxZZNh-292"><g><rect x="2554.51" y="751.47" width="555" height="20.94" fill="#000000" stroke="none" pointer-events="all"/></g></g><g data-cell-id="ADVaAESZDNi0vssxZZNh-293"><g><rect x="2554.51" y="793.35" width="555" height="20.94" fill="#000000" stroke="none" pointer-events="all"/></g></g><g data-cell-id="ADVaAESZDNi0vssxZZNh-294"><g><rect x="2722.06" y="667.69" width="20.94" height="146.6" fill="#111111" stroke="none" pointer-events="all"/></g></g><g data-cell-id="ADVaAESZDNi0vssxZZNh-295"><g><rect x="2921.02" y="667.69" width="20.94" height="146.6" fill="#111111" stroke="none" pointer-events="all"/></g></g><g data-cell-id="ADVaAESZDNi0vssxZZNh-296"><g><rect x="2554.51" y="772.41" width="555" height="20.94" fill="#222222" stroke="none" pointer-events="all"/></g></g><g data-cell-id="ADVaAESZDNi0vssxZZNh-297"><g><rect x="2554.51" y="730.52" width="555" height="20.94" fill="#222222" stroke="none" pointer-events="all"/></g></g><g data-cell-id="ADVaAESZDNi0vssxZZNh-298"><g><rect x="2554.51" y="688.64" width="555" height="20.94" fill="#222222" stroke="none" pointer-events="all"/></g></g><g data-cell-id="ADVaAESZDNi0vssxZZNh-299"><g><rect x="2512.62" y="667.69" width="41.89" height="146.6" fill="#111111" stroke="none" pointer-events="all"/></g></g><g data-cell-id="ADVaAESZDNi0vssxZZNh-300"><g><rect x="3109.51" y="667.69" width="41.89" height="146.6" fill="#111111" stroke="none" pointer-events="all"/></g></g></g><g data-cell-id="ADVaAESZDNi0vssxZZNh-301"><g/><g data-cell-id="ADVaAESZDNi0vssxZZNh-302"><g><rect x="1308.38" y="610.1" width="1099.52" height="261.79" fill="#222222" stroke="none" pointer-events="all"/></g></g><g data-cell-id="ADVaAESZDNi0vssxZZNh-303"><g><rect x="1339.79" y="641.52" width="1015.75" height="198.96" fill="#000000" stroke="#111111" stroke-width="5" pointer-events="all"/></g></g><g data-cell-id="ADVaAESZDNi0vssxZZNh-304"><g><rect x="2360.78" y="824.77" width="41.89" height="31.41" rx="4.71" ry="4.71" fill="#60a917" stroke="#222222" transform="rotate(90,2381.72,840.48)" pointer-events="all"/></g></g><g data-cell-id="ADVaAESZDNi0vssxZZNh-305"><g><rect x="2360.78" y="730.52" width="41.89" height="31.41" rx="4.71" ry="4.71" fill="#0050ef" stroke="#222222" transform="rotate(90,2381.72,746.23)" pointer-events="all"/></g></g><g data-cell-id="ADVaAESZDNi0vssxZZNh-306"><g><rect x="2093.75" y="672.93" width="83.77" height="136.13" rx="12.57" ry="12.57" fill="#0050ef" stroke="none" pointer-events="all"/></g></g><g data-cell-id="ADVaAESZDNi0vssxZZNh-307"><g><path d="M 2167.05 672.93 Q 2198.47 672.93 2198.47 741 Q 2198.47 809.06 2167.05 809.06 Z" fill="#0050ef" stroke="none" pointer-events="all"/></g></g><g data-cell-id="ADVaAESZDNi0vssxZZNh-308"><g><path d="M 2381.66 698.76 C 2382.59 698.76 2383.25 698.1 2383.25 697.23 L 2383.25 690.94 C 2383.25 690.12 2382.69 689.36 2381.76 689.36 C 2380.83 689.36 2380.18 690.11 2380.18 690.8 L 2380.18 697.24 C 2380.18 698.1 2380.91 698.76 2381.66 698.76 Z M 2381.67 708.87 C 2386.67 708.87 2390.8 704.85 2390.8 699.9 C 2390.8 697.4 2389.9 694.6 2387.15 692.56 C 2386.64 692.17 2385.62 692.38 2385.15 692.99 C 2384.73 693.62 2384.7 694.52 2385.39 695.17 C 2386.76 696.26 2387.65 697.98 2387.65 699.74 C 2387.65 703.16 2384.73 705.71 2381.79 705.71 C 2378.9 705.71 2376.01 703.6 2375.81 699.83 C 2375.76 698.31 2376.62 696.16 2378.14 695.1 C 2378.66 694.67 2378.87 693.7 2378.23 692.95 C 2377.62 692.17 2376.63 692.31 2376.21 692.64 C 2373.87 694.55 2372.75 696.68 2372.69 699.63 C 2372.69 705.11 2376.87 708.87 2381.67 708.87 Z M 2381.71 714.82 C 2372.77 714.82 2366.01 707.56 2366.01 699.05 C 2366.01 690.49 2373.04 683.4 2381.87 683.4 C 2389.97 683.4 2397.43 689.96 2397.43 699.02 C 2397.43 708.47 2389.87 714.82 2381.71 714.82 Z" fill="none" stroke="#111111" stroke-width="2" stroke-miterlimit="10" pointer-events="all"/></g></g><g data-cell-id="ADVaAESZDNi0vssxZZNh-309"><g><path d="M 2366.01 803.83 L 2366.01 782.88 C 2366.01 779.99 2373.05 777.65 2381.72 777.65 C 2390.4 777.65 2397.43 779.99 2397.43 782.88 L 2397.43 803.83 C 2397.43 806.72 2390.4 809.06 2381.72 809.06 C 2373.05 809.06 2366.01 806.72 2366.01 803.83 Z" fill="none" stroke="#111111" stroke-width="2" stroke-miterlimit="10" pointer-events="all"/><path d="M 2366.01 782.88 C 2366.01 785.77 2373.05 788.12 2381.72 788.12 C 2390.4 788.12 2397.43 785.77 2397.43 782.88" fill="none" stroke="#111111" stroke-width="2" stroke-miterlimit="10" pointer-events="all"/></g></g><g data-cell-id="ADVaAESZDNi0vssxZZNh-310"><g><rect x="1339.79" y="641.52" width="806.32" height="198.96" fill="#222222" stroke="none" pointer-events="all"/></g></g><g data-cell-id="ADVaAESZDNi0vssxZZNh-311"><g><rect x="1444.51" y="667.69" width="555" height="20.94" fill="#000000" stroke="none" pointer-events="all"/></g></g><g data-cell-id="ADVaAESZDNi0vssxZZNh-312"><g><rect x="1444.51" y="709.58" width="555" height="20.94" fill="#000000" stroke="none" pointer-events="all"/></g></g><g data-cell-id="ADVaAESZDNi0vssxZZNh-313"><g><rect x="1444.51" y="751.47" width="555" height="20.94" fill="#000000" stroke="none" pointer-events="all"/></g></g><g data-cell-id="ADVaAESZDNi0vssxZZNh-314"><g><rect x="1444.51" y="793.35" width="555" height="20.94" fill="#000000" stroke="none" pointer-events="all"/></g></g><g data-cell-id="ADVaAESZDNi0vssxZZNh-315"><g><rect x="1612.06" y="667.69" width="20.94" height="146.6" fill="#111111" stroke="none" pointer-events="all"/></g></g><g data-cell-id="ADVaAESZDNi0vssxZZNh-316"><g><rect x="1811.02" y="667.69" width="20.94" height="146.6" fill="#111111" stroke="none" pointer-events="all"/></g></g><g data-cell-id="ADVaAESZDNi0vssxZZNh-317"><g><rect x="1444.51" y="772.41" width="555" height="20.94" fill="#222222" stroke="none" pointer-events="all"/></g></g><g data-cell-id="ADVaAESZDNi0vssxZZNh-318"><g><rect x="1444.51" y="730.52" width="555" height="20.94" fill="#222222" stroke="none" pointer-events="all"/></g></g><g data-cell-id="ADVaAESZDNi0vssxZZNh-319"><g><rect x="1444.51" y="688.64" width="555" height="20.94" fill="#222222" stroke="none" pointer-events="all"/></g></g><g data-cell-id="ADVaAESZDNi0vssxZZNh-320"><g><rect x="1402.62" y="667.69" width="41.89" height="146.6" fill="#111111" stroke="none" pointer-events="all"/></g></g><g data-cell-id="ADVaAESZDNi0vssxZZNh-321"><g><rect x="1999.51" y="667.69" width="41.89" height="146.6" fill="#111111" stroke="none" pointer-events="all"/></g></g></g><g data-cell-id="ADVaAESZDNi0vssxZZNh-322"><g/><g data-cell-id="ADVaAESZDNi0vssxZZNh-323"><g><rect x="198.38" y="610.1" width="1099.52" height="261.79" fill="#222222" stroke="none" pointer-events="all"/></g></g><g data-cell-id="ADVaAESZDNi0vssxZZNh-324"><g><rect x="229.79" y="641.52" width="1015.75" height="198.96" fill="#000000" stroke="#111111" stroke-width="5" pointer-events="all"/></g></g><g data-cell-id="ADVaAESZDNi0vssxZZNh-325"><g><rect x="1250.78" y="824.77" width="41.89" height="31.41" rx="4.71" ry="4.71" fill="#60a917" stroke="#222222" transform="rotate(90,1271.72,840.48)" pointer-events="all"/></g></g><g data-cell-id="ADVaAESZDNi0vssxZZNh-326"><g><rect x="1250.78" y="730.52" width="41.89" height="31.41" rx="4.71" ry="4.71" fill="#0050ef" stroke="#222222" transform="rotate(90,1271.72,746.23)" pointer-events="all"/></g></g><g data-cell-id="ADVaAESZDNi0vssxZZNh-327"><g><rect x="983.75" y="672.93" width="83.77" height="136.13" rx="12.57" ry="12.57" fill="#0050ef" stroke="none" pointer-events="all"/></g></g><g data-cell-id="ADVaAESZDNi0vssxZZNh-328"><g><path d="M 1057.05 672.93 Q 1088.47 672.93 1088.47 741 Q 1088.47 809.06 1057.05 809.06 Z" fill="#0050ef" stroke="none" pointer-events="all"/></g></g><g data-cell-id="ADVaAESZDNi0vssxZZNh-329"><g><path d="M 1271.66 698.76 C 1272.59 698.76 1273.25 698.1 1273.25 697.23 L 1273.25 690.94 C 1273.25 690.12 1272.69 689.36 1271.76 689.36 C 1270.83 689.36 1270.18 690.11 1270.18 690.8 L 1270.18 697.24 C 1270.18 698.1 1270.91 698.76 1271.66 698.76 Z M 1271.67 708.87 C 1276.67 708.87 1280.8 704.85 1280.8 699.9 C 1280.8 697.4 1279.9 694.6 1277.15 692.56 C 1276.64 692.17 1275.62 692.38 1275.15 692.99 C 1274.73 693.62 1274.7 694.52 1275.39 695.17 C 1276.76 696.26 1277.65 697.98 1277.65 699.74 C 1277.65 703.16 1274.73 705.71 1271.79 705.71 C 1268.9 705.71 1266.01 703.6 1265.81 699.83 C 1265.76 698.31 1266.62 696.16 1268.14 695.1 C 1268.66 694.67 1268.87 693.7 1268.23 692.95 C 1267.62 692.17 1266.63 692.31 1266.21 692.64 C 1263.87 694.55 1262.75 696.68 1262.69 699.63 C 1262.69 705.11 1266.87 708.87 1271.67 708.87 Z M 1271.71 714.82 C 1262.77 714.82 1256.01 707.56 1256.01 699.05 C 1256.01 690.49 1263.04 683.4 1271.87 683.4 C 1279.97 683.4 1287.43 689.96 1287.43 699.02 C 1287.43 708.47 1279.87 714.82 1271.71 714.82 Z" fill="none" stroke="#111111" stroke-width="2" stroke-miterlimit="10" pointer-events="all"/></g></g><g data-cell-id="ADVaAESZDNi0vssxZZNh-330"><g><path d="M 1256.01 803.83 L 1256.01 782.88 C 1256.01 779.99 1263.05 777.65 1271.72 777.65 C 1280.4 777.65 1287.43 779.99 1287.43 782.88 L 1287.43 803.83 C 1287.43 806.72 1280.4 809.06 1271.72 809.06 C 1263.05 809.06 1256.01 806.72 1256.01 803.83 Z" fill="none" stroke="#111111" stroke-width="2" stroke-miterlimit="10" pointer-events="all"/><path d="M 1256.01 782.88 C 1256.01 785.77 1263.05 788.12 1271.72 788.12 C 1280.4 788.12 1287.43 785.77 1287.43 782.88" fill="none" stroke="#111111" stroke-width="2" stroke-miterlimit="10" pointer-events="all"/></g></g><g data-cell-id="ADVaAESZDNi0vssxZZNh-331"><g><rect x="229.79" y="641.52" width="806.32" height="198.96" fill="#222222" stroke="none" pointer-events="all"/></g></g><g data-cell-id="ADVaAESZDNi0vssxZZNh-332"><g><rect x="334.51" y="667.69" width="555" height="20.94" fill="#000000" stroke="none" pointer-events="all"/></g></g><g data-cell-id="ADVaAESZDNi0vssxZZNh-333"><g><rect x="334.51" y="709.58" width="555" height="20.94" fill="#000000" stroke="none" pointer-events="all"/></g></g><g data-cell-id="ADVaAESZDNi0vssxZZNh-334"><g><rect x="334.51" y="751.47" width="555" height="20.94" fill="#000000" stroke="none" pointer-events="all"/></g></g><g data-cell-id="ADVaAESZDNi0vssxZZNh-335"><g><rect x="334.51" y="793.35" width="555" height="20.94" fill="#000000" stroke="none" pointer-events="all"/></g></g><g data-cell-id="ADVaAESZDNi0vssxZZNh-336"><g><rect x="502.06" y="667.69" width="20.94" height="146.6" fill="#111111" stroke="none" pointer-events="all"/></g></g><g data-cell-id="ADVaAESZDNi0vssxZZNh-337"><g><rect x="701.02" y="667.69" width="20.94" height="146.6" fill="#111111" stroke="none" pointer-events="all"/></g></g><g data-cell-id="ADVaAESZDNi0vssxZZNh-338"><g><rect x="334.51" y="772.41" width="555" height="20.94" fill="#222222" stroke="none" pointer-events="all"/></g></g><g data-cell-id="ADVaAESZDNi0vssxZZNh-339"><g><rect x="334.51" y="730.52" width="555" height="20.94" fill="#222222" stroke="none" pointer-events="all"/></g></g><g data-cell-id="ADVaAESZDNi0vssxZZNh-340"><g><rect x="334.51" y="688.64" width="555" height="20.94" fill="#222222" stroke="none" pointer-events="all"/></g></g><g data-cell-id="ADVaAESZDNi0vssxZZNh-341"><g><rect x="292.62" y="667.69" width="41.89" height="146.6" fill="#111111" stroke="none" pointer-events="all"/></g></g><g data-cell-id="ADVaAESZDNi0vssxZZNh-342"><g><rect x="889.51" y="667.69" width="41.89" height="146.6" fill="#111111" stroke="none" pointer-events="all"/></g></g></g></g><g data-cell-id="ADVaAESZDNi0vssxZZNh-344"><g/><g data-cell-id="ADVaAESZDNi0vssxZZNh-345"><g/><g data-cell-id="ADVaAESZDNi0vssxZZNh-346"><g><rect x="3528.38" y="16.5" width="1099.52" height="261.79" fill="#222222" stroke="none" pointer-events="all"/></g></g><g data-cell-id="ADVaAESZDNi0vssxZZNh-347"><g><rect x="3559.79" y="47.92" width="1015.75" height="198.96" fill="#000000" stroke="#111111" stroke-width="5" pointer-events="all"/></g></g><g data-cell-id="ADVaAESZDNi0vssxZZNh-348"><g><rect x="4580.78" y="231.17" width="41.89" height="31.41" rx="4.71" ry="4.71" fill="#60a917" stroke="#222222" transform="rotate(90,4601.72,246.88)" pointer-events="all"/></g></g><g data-cell-id="ADVaAESZDNi0vssxZZNh-349"><g><rect x="4580.78" y="136.92" width="41.89" height="31.41" rx="4.71" ry="4.71" fill="#0050ef" stroke="#222222" transform="rotate(90,4601.72,152.63)" pointer-events="all"/></g></g><g data-cell-id="ADVaAESZDNi0vssxZZNh-350"><g><rect x="4313.75" y="79.33" width="83.77" height="136.13" rx="12.57" ry="12.57" fill="#0050ef" stroke="none" pointer-events="all"/></g></g><g data-cell-id="ADVaAESZDNi0vssxZZNh-351"><g><path d="M 4387.05 79.33 Q 4418.47 79.33 4418.47 147.4 Q 4418.47 215.46 4387.05 215.46 Z" fill="#0050ef" stroke="none" pointer-events="all"/></g></g><g data-cell-id="ADVaAESZDNi0vssxZZNh-352"><g><path d="M 4601.66 105.16 C 4602.59 105.16 4603.25 104.5 4603.25 103.63 L 4603.25 97.34 C 4603.25 96.52 4602.69 95.76 4601.76 95.76 C 4600.83 95.76 4600.18 96.51 4600.18 97.2 L 4600.18 103.64 C 4600.18 104.5 4600.91 105.16 4601.66 105.16 Z M 4601.67 115.27 C 4606.67 115.27 4610.8 111.25 4610.8 106.3 C 4610.8 103.8 4609.9 101 4607.15 98.96 C 4606.64 98.57 4605.62 98.78 4605.15 99.39 C 4604.73 100.02 4604.7 100.92 4605.39 101.57 C 4606.76 102.66 4607.65 104.38 4607.65 106.14 C 4607.65 109.56 4604.73 112.11 4601.79 112.11 C 4598.9 112.11 4596.01 110 4595.81 106.23 C 4595.76 104.71 4596.62 102.56 4598.14 101.5 C 4598.66 101.07 4598.87 100.1 4598.23 99.35 C 4597.62 98.57 4596.63 98.71 4596.21 99.04 C 4593.87 100.95 4592.75 103.08 4592.69 106.03 C 4592.69 111.51 4596.87 115.27 4601.67 115.27 Z M 4601.71 121.22 C 4592.77 121.22 4586.01 113.96 4586.01 105.45 C 4586.01 96.89 4593.04 89.8 4601.87 89.8 C 4609.97 89.8 4617.43 96.36 4617.43 105.42 C 4617.43 114.87 4609.87 121.22 4601.71 121.22 Z" fill="none" stroke="#111111" stroke-width="2" stroke-miterlimit="10" pointer-events="all"/></g></g><g data-cell-id="ADVaAESZDNi0vssxZZNh-353"><g><path d="M 4586.01 210.23 L 4586.01 189.28 C 4586.01 186.39 4593.05 184.05 4601.72 184.05 C 4610.4 184.05 4617.43 186.39 4617.43 189.28 L 4617.43 210.23 C 4617.43 213.12 4610.4 215.46 4601.72 215.46 C 4593.05 215.46 4586.01 213.12 4586.01 210.23 Z" fill="none" stroke="#111111" stroke-width="2" stroke-miterlimit="10" pointer-events="all"/><path d="M 4586.01 189.28 C 4586.01 192.17 4593.05 194.52 4601.72 194.52 C 4610.4 194.52 4617.43 192.17 4617.43 189.28" fill="none" stroke="#111111" stroke-width="2" stroke-miterlimit="10" pointer-events="all"/></g></g><g data-cell-id="ADVaAESZDNi0vssxZZNh-354"><g><rect x="3559.79" y="47.92" width="806.32" height="198.96" fill="#222222" stroke="none" pointer-events="all"/></g></g><g data-cell-id="ADVaAESZDNi0vssxZZNh-355"><g><rect x="3664.51" y="74.09" width="555" height="20.94" fill="#000000" stroke="none" pointer-events="all"/></g></g><g data-cell-id="ADVaAESZDNi0vssxZZNh-356"><g><rect x="3664.51" y="115.98" width="555" height="20.94" fill="#000000" stroke="none" pointer-events="all"/></g></g><g data-cell-id="ADVaAESZDNi0vssxZZNh-357"><g><rect x="3664.51" y="157.87" width="555" height="20.94" fill="#000000" stroke="none" pointer-events="all"/></g></g><g data-cell-id="ADVaAESZDNi0vssxZZNh-358"><g><rect x="3664.51" y="199.75" width="555" height="20.94" fill="#000000" stroke="none" pointer-events="all"/></g></g><g data-cell-id="ADVaAESZDNi0vssxZZNh-359"><g><rect x="3832.06" y="74.09" width="20.94" height="146.6" fill="#111111" stroke="none" pointer-events="all"/></g></g><g data-cell-id="ADVaAESZDNi0vssxZZNh-360"><g><rect x="4031.02" y="74.09" width="20.94" height="146.6" fill="#111111" stroke="none" pointer-events="all"/></g></g><g data-cell-id="ADVaAESZDNi0vssxZZNh-361"><g><rect x="3664.51" y="178.81" width="555" height="20.94" fill="#222222" stroke="none" pointer-events="all"/></g></g><g data-cell-id="ADVaAESZDNi0vssxZZNh-362"><g><rect x="3664.51" y="136.92" width="555" height="20.94" fill="#222222" stroke="none" pointer-events="all"/></g></g><g data-cell-id="ADVaAESZDNi0vssxZZNh-363"><g><rect x="3664.51" y="95.04" width="555" height="20.94" fill="#222222" stroke="none" pointer-events="all"/></g></g><g data-cell-id="ADVaAESZDNi0vssxZZNh-364"><g><rect x="3622.62" y="74.09" width="41.89" height="146.6" fill="#111111" stroke="none" pointer-events="all"/></g></g><g data-cell-id="ADVaAESZDNi0vssxZZNh-365"><g><rect x="4219.51" y="74.09" width="41.89" height="146.6" fill="#111111" stroke="none" pointer-events="all"/></g></g></g><g data-cell-id="ADVaAESZDNi0vssxZZNh-366"><g/><g data-cell-id="ADVaAESZDNi0vssxZZNh-367"><g><rect x="2418.38" y="16.5" width="1099.52" height="261.79" fill="#222222" stroke="none" pointer-events="all"/></g></g><g data-cell-id="ADVaAESZDNi0vssxZZNh-368"><g><rect x="2449.79" y="47.92" width="1015.75" height="198.96" fill="#000000" stroke="#111111" stroke-width="5" pointer-events="all"/></g></g><g data-cell-id="ADVaAESZDNi0vssxZZNh-369"><g><rect x="3470.78" y="231.17" width="41.89" height="31.41" rx="4.71" ry="4.71" fill="#60a917" stroke="#222222" transform="rotate(90,3491.72,246.88)" pointer-events="all"/></g></g><g data-cell-id="ADVaAESZDNi0vssxZZNh-370"><g><rect x="3470.78" y="136.92" width="41.89" height="31.41" rx="4.71" ry="4.71" fill="#0050ef" stroke="#222222" transform="rotate(90,3491.72,152.63)" pointer-events="all"/></g></g><g data-cell-id="ADVaAESZDNi0vssxZZNh-371"><g><rect x="3203.75" y="79.33" width="83.77" height="136.13" rx="12.57" ry="12.57" fill="#0050ef" stroke="none" pointer-events="all"/></g></g><g data-cell-id="ADVaAESZDNi0vssxZZNh-372"><g><path d="M 3277.05 79.33 Q 3308.47 79.33 3308.47 147.4 Q 3308.47 215.46 3277.05 215.46 Z" fill="#0050ef" stroke="none" pointer-events="all"/></g></g><g data-cell-id="ADVaAESZDNi0vssxZZNh-373"><g><path d="M 3491.66 105.16 C 3492.59 105.16 3493.25 104.5 3493.25 103.63 L 3493.25 97.34 C 3493.25 96.52 3492.69 95.76 3491.76 95.76 C 3490.83 95.76 3490.18 96.51 3490.18 97.2 L 3490.18 103.64 C 3490.18 104.5 3490.91 105.16 3491.66 105.16 Z M 3491.67 115.27 C 3496.67 115.27 3500.8 111.25 3500.8 106.3 C 3500.8 103.8 3499.9 101 3497.15 98.96 C 3496.64 98.57 3495.62 98.78 3495.15 99.39 C 3494.73 100.02 3494.7 100.92 3495.39 101.57 C 3496.76 102.66 3497.65 104.38 3497.65 106.14 C 3497.65 109.56 3494.73 112.11 3491.79 112.11 C 3488.9 112.11 3486.01 110 3485.81 106.23 C 3485.76 104.71 3486.62 102.56 3488.14 101.5 C 3488.66 101.07 3488.87 100.1 3488.23 99.35 C 3487.62 98.57 3486.63 98.71 3486.21 99.04 C 3483.87 100.95 3482.75 103.08 3482.69 106.03 C 3482.69 111.51 3486.87 115.27 3491.67 115.27 Z M 3491.71 121.22 C 3482.77 121.22 3476.01 113.96 3476.01 105.45 C 3476.01 96.89 3483.04 89.8 3491.87 89.8 C 3499.97 89.8 3507.43 96.36 3507.43 105.42 C 3507.43 114.87 3499.87 121.22 3491.71 121.22 Z" fill="none" stroke="#111111" stroke-width="2" stroke-miterlimit="10" pointer-events="all"/></g></g><g data-cell-id="ADVaAESZDNi0vssxZZNh-374"><g><path d="M 3476.01 210.23 L 3476.01 189.28 C 3476.01 186.39 3483.05 184.05 3491.72 184.05 C 3500.4 184.05 3507.43 186.39 3507.43 189.28 L 3507.43 210.23 C 3507.43 213.12 3500.4 215.46 3491.72 215.46 C 3483.05 215.46 3476.01 213.12 3476.01 210.23 Z" fill="none" stroke="#111111" stroke-width="2" stroke-miterlimit="10" pointer-events="all"/><path d="M 3476.01 189.28 C 3476.01 192.17 3483.05 194.52 3491.72 194.52 C 3500.4 194.52 3507.43 192.17 3507.43 189.28" fill="none" stroke="#111111" stroke-width="2" stroke-miterlimit="10" pointer-events="all"/></g></g><g data-cell-id="ADVaAESZDNi0vssxZZNh-375"><g><rect x="2449.79" y="47.92" width="806.32" height="198.96" fill="#222222" stroke="none" pointer-events="all"/></g></g><g data-cell-id="ADVaAESZDNi0vssxZZNh-376"><g><rect x="2554.51" y="74.09" width="555" height="20.94" fill="#000000" stroke="none" pointer-events="all"/></g></g><g data-cell-id="ADVaAESZDNi0vssxZZNh-377"><g><rect x="2554.51" y="115.98" width="555" height="20.94" fill="#000000" stroke="none" pointer-events="all"/></g></g><g data-cell-id="ADVaAESZDNi0vssxZZNh-378"><g><rect x="2554.51" y="157.87" width="555" height="20.94" fill="#000000" stroke="none" pointer-events="all"/></g></g><g data-cell-id="ADVaAESZDNi0vssxZZNh-379"><g><rect x="2554.51" y="199.75" width="555" height="20.94" fill="#000000" stroke="none" pointer-events="all"/></g></g><g data-cell-id="ADVaAESZDNi0vssxZZNh-380"><g><rect x="2722.06" y="74.09" width="20.94" height="146.6" fill="#111111" stroke="none" pointer-events="all"/></g></g><g data-cell-id="ADVaAESZDNi0vssxZZNh-381"><g><rect x="2921.02" y="74.09" width="20.94" height="146.6" fill="#111111" stroke="none" pointer-events="all"/></g></g><g data-cell-id="ADVaAESZDNi0vssxZZNh-382"><g><rect x="2554.51" y="178.81" width="555" height="20.94" fill="#222222" stroke="none" pointer-events="all"/></g></g><g data-cell-id="ADVaAESZDNi0vssxZZNh-383"><g><rect x="2554.51" y="136.92" width="555" height="20.94" fill="#222222" stroke="none" pointer-events="all"/></g></g><g data-cell-id="ADVaAESZDNi0vssxZZNh-384"><g><rect x="2554.51" y="95.04" width="555" height="20.94" fill="#222222" stroke="none" pointer-events="all"/></g></g><g data-cell-id="ADVaAESZDNi0vssxZZNh-385"><g><rect x="2512.62" y="74.09" width="41.89" height="146.6" fill="#111111" stroke="none" pointer-events="all"/></g></g><g data-cell-id="ADVaAESZDNi0vssxZZNh-386"><g><rect x="3109.51" y="74.09" width="41.89" height="146.6" fill="#111111" stroke="none" pointer-events="all"/></g></g></g><g data-cell-id="ADVaAESZDNi0vssxZZNh-387"><g/><g data-cell-id="ADVaAESZDNi0vssxZZNh-388"><g><rect x="1308.38" y="16.5" width="1099.52" height="261.79" fill="#222222" stroke="none" pointer-events="all"/></g></g><g data-cell-id="ADVaAESZDNi0vssxZZNh-389"><g><rect x="1339.79" y="47.92" width="1015.75" height="198.96" fill="#000000" stroke="#111111" stroke-width="5" pointer-events="all"/></g></g><g data-cell-id="ADVaAESZDNi0vssxZZNh-390"><g><rect x="2360.78" y="231.17" width="41.89" height="31.41" rx="4.71" ry="4.71" fill="#60a917" stroke="#222222" transform="rotate(90,2381.72,246.88)" pointer-events="all"/></g></g><g data-cell-id="ADVaAESZDNi0vssxZZNh-391"><g><rect x="2360.78" y="136.92" width="41.89" height="31.41" rx="4.71" ry="4.71" fill="#0050ef" stroke="#222222" transform="rotate(90,2381.72,152.63)" pointer-events="all"/></g></g><g data-cell-id="ADVaAESZDNi0vssxZZNh-392"><g><rect x="2093.75" y="79.33" width="83.77" height="136.13" rx="12.57" ry="12.57" fill="#0050ef" stroke="none" pointer-events="all"/></g></g><g data-cell-id="ADVaAESZDNi0vssxZZNh-393"><g><path d="M 2167.05 79.33 Q 2198.47 79.33 2198.47 147.4 Q 2198.47 215.46 2167.05 215.46 Z" fill="#0050ef" stroke="none" pointer-events="all"/></g></g><g data-cell-id="ADVaAESZDNi0vssxZZNh-394"><g><path d="M 2381.66 105.16 C 2382.59 105.16 2383.25 104.5 2383.25 103.63 L 2383.25 97.34 C 2383.25 96.52 2382.69 95.76 2381.76 95.76 C 2380.83 95.76 2380.18 96.51 2380.18 97.2 L 2380.18 103.64 C 2380.18 104.5 2380.91 105.16 2381.66 105.16 Z M 2381.67 115.27 C 2386.67 115.27 2390.8 111.25 2390.8 106.3 C 2390.8 103.8 2389.9 101 2387.15 98.96 C 2386.64 98.57 2385.62 98.78 2385.15 99.39 C 2384.73 100.02 2384.7 100.92 2385.39 101.57 C 2386.76 102.66 2387.65 104.38 2387.65 106.14 C 2387.65 109.56 2384.73 112.11 2381.79 112.11 C 2378.9 112.11 2376.01 110 2375.81 106.23 C 2375.76 104.71 2376.62 102.56 2378.14 101.5 C 2378.66 101.07 2378.87 100.1 2378.23 99.35 C 2377.62 98.57 2376.63 98.71 2376.21 99.04 C 2373.87 100.95 2372.75 103.08 2372.69 106.03 C 2372.69 111.51 2376.87 115.27 2381.67 115.27 Z M 2381.71 121.22 C 2372.77 121.22 2366.01 113.96 2366.01 105.45 C 2366.01 96.89 2373.04 89.8 2381.87 89.8 C 2389.97 89.8 2397.43 96.36 2397.43 105.42 C 2397.43 114.87 2389.87 121.22 2381.71 121.22 Z" fill="none" stroke="#111111" stroke-width="2" stroke-miterlimit="10" pointer-events="all"/></g></g><g data-cell-id="ADVaAESZDNi0vssxZZNh-395"><g><path d="M 2366.01 210.23 L 2366.01 189.28 C 2366.01 186.39 2373.05 184.05 2381.72 184.05 C 2390.4 184.05 2397.43 186.39 2397.43 189.28 L 2397.43 210.23 C 2397.43 213.12 2390.4 215.46 2381.72 215.46 C 2373.05 215.46 2366.01 213.12 2366.01 210.23 Z" fill="none" stroke="#111111" stroke-width="2" stroke-miterlimit="10" pointer-events="all"/><path d="M 2366.01 189.28 C 2366.01 192.17 2373.05 194.52 2381.72 194.52 C 2390.4 194.52 2397.43 192.17 2397.43 189.28" fill="none" stroke="#111111" stroke-width="2" stroke-miterlimit="10" pointer-events="all"/></g></g><g data-cell-id="ADVaAESZDNi0vssxZZNh-396"><g><rect x="1339.79" y="47.92" width="806.32" height="198.96" fill="#222222" stroke="none" pointer-events="all"/></g></g><g data-cell-id="ADVaAESZDNi0vssxZZNh-397"><g><rect x="1444.51" y="74.09" width="555" height="20.94" fill="#000000" stroke="none" pointer-events="all"/></g></g><g data-cell-id="ADVaAESZDNi0vssxZZNh-398"><g><rect x="1444.51" y="115.98" width="555" height="20.94" fill="#000000" stroke="none" pointer-events="all"/></g></g><g data-cell-id="ADVaAESZDNi0vssxZZNh-399"><g><rect x="1444.51" y="157.87" width="555" height="20.94" fill="#000000" stroke="none" pointer-events="all"/></g></g><g data-cell-id="ADVaAESZDNi0vssxZZNh-400"><g><rect x="1444.51" y="199.75" width="555" height="20.94" fill="#000000" stroke="none" pointer-events="all"/></g></g><g data-cell-id="ADVaAESZDNi0vssxZZNh-401"><g><rect x="1612.06" y="74.09" width="20.94" height="146.6" fill="#111111" stroke="none" pointer-events="all"/></g></g><g data-cell-id="ADVaAESZDNi0vssxZZNh-402"><g><rect x="1811.02" y="74.09" width="20.94" height="146.6" fill="#111111" stroke="none" pointer-events="all"/></g></g><g data-cell-id="ADVaAESZDNi0vssxZZNh-403"><g><rect x="1444.51" y="178.81" width="555" height="20.94" fill="#222222" stroke="none" pointer-events="all"/></g></g><g data-cell-id="ADVaAESZDNi0vssxZZNh-404"><g><rect x="1444.51" y="136.92" width="555" height="20.94" fill="#222222" stroke="none" pointer-events="all"/></g></g><g data-cell-id="ADVaAESZDNi0vssxZZNh-405"><g><rect x="1444.51" y="95.04" width="555" height="20.94" fill="#222222" stroke="none" pointer-events="all"/></g></g><g data-cell-id="ADVaAESZDNi0vssxZZNh-406"><g><rect x="1402.62" y="74.09" width="41.89" height="146.6" fill="#111111" stroke="none" pointer-events="all"/></g></g><g data-cell-id="ADVaAESZDNi0vssxZZNh-407"><g><rect x="1999.51" y="74.09" width="41.89" height="146.6" fill="#111111" stroke="none" pointer-events="all"/></g></g></g><g data-cell-id="ADVaAESZDNi0vssxZZNh-408"><g/><g data-cell-id="ADVaAESZDNi0vssxZZNh-409"><g><rect x="198.38" y="16.5" width="1099.52" height="261.79" fill="#222222" stroke="none" pointer-events="all"/></g></g><g data-cell-id="ADVaAESZDNi0vssxZZNh-410"><g><rect x="229.79" y="47.92" width="1015.75" height="198.96" fill="#000000" stroke="#111111" stroke-width="5" pointer-events="all"/></g></g><g data-cell-id="ADVaAESZDNi0vssxZZNh-411"><g><rect x="1250.78" y="231.17" width="41.89" height="31.41" rx="4.71" ry="4.71" fill="#60a917" stroke="#222222" transform="rotate(90,1271.72,246.88)" pointer-events="all"/></g></g><g data-cell-id="ADVaAESZDNi0vssxZZNh-412"><g><rect x="1250.78" y="136.92" width="41.89" height="31.41" rx="4.71" ry="4.71" fill="#0050ef" stroke="#222222" transform="rotate(90,1271.72,152.63)" pointer-events="all"/></g></g><g data-cell-id="ADVaAESZDNi0vssxZZNh-413"><g><rect x="983.75" y="79.33" width="83.77" height="136.13" rx="12.57" ry="12.57" fill="#0050ef" stroke="none" pointer-events="all"/></g></g><g data-cell-id="ADVaAESZDNi0vssxZZNh-414"><g><path d="M 1057.05 79.33 Q 1088.47 79.33 1088.47 147.4 Q 1088.47 215.46 1057.05 215.46 Z" fill="#0050ef" stroke="none" pointer-events="all"/></g></g><g data-cell-id="ADVaAESZDNi0vssxZZNh-415"><g><path d="M 1271.66 105.16 C 1272.59 105.16 1273.25 104.5 1273.25 103.63 L 1273.25 97.34 C 1273.25 96.52 1272.69 95.76 1271.76 95.76 C 1270.83 95.76 1270.18 96.51 1270.18 97.2 L 1270.18 103.64 C 1270.18 104.5 1270.91 105.16 1271.66 105.16 Z M 1271.67 115.27 C 1276.67 115.27 1280.8 111.25 1280.8 106.3 C 1280.8 103.8 1279.9 101 1277.15 98.96 C 1276.64 98.57 1275.62 98.78 1275.15 99.39 C 1274.73 100.02 1274.7 100.92 1275.39 101.57 C 1276.76 102.66 1277.65 104.38 1277.65 106.14 C 1277.65 109.56 1274.73 112.11 1271.79 112.11 C 1268.9 112.11 1266.01 110 1265.81 106.23 C 1265.76 104.71 1266.62 102.56 1268.14 101.5 C 1268.66 101.07 1268.87 100.1 1268.23 99.35 C 1267.62 98.57 1266.63 98.71 1266.21 99.04 C 1263.87 100.95 1262.75 103.08 1262.69 106.03 C 1262.69 111.51 1266.87 115.27 1271.67 115.27 Z M 1271.71 121.22 C 1262.77 121.22 1256.01 113.96 1256.01 105.45 C 1256.01 96.89 1263.04 89.8 1271.87 89.8 C 1279.97 89.8 1287.43 96.36 1287.43 105.42 C 1287.43 114.87 1279.87 121.22 1271.71 121.22 Z" fill="none" stroke="#111111" stroke-width="2" stroke-miterlimit="10" pointer-events="all"/></g></g><g data-cell-id="ADVaAESZDNi0vssxZZNh-416"><g><path d="M 1256.01 210.23 L 1256.01 189.28 C 1256.01 186.39 1263.05 184.05 1271.72 184.05 C 1280.4 184.05 1287.43 186.39 1287.43 189.28 L 1287.43 210.23 C 1287.43 213.12 1280.4 215.46 1271.72 215.46 C 1263.05 215.46 1256.01 213.12 1256.01 210.23 Z" fill="none" stroke="#111111" stroke-width="2" stroke-miterlimit="10" pointer-events="all"/><path d="M 1256.01 189.28 C 1256.01 192.17 1263.05 194.52 1271.72 194.52 C 1280.4 194.52 1287.43 192.17 1287.43 189.28" fill="none" stroke="#111111" stroke-width="2" stroke-miterlimit="10" pointer-events="all"/></g></g><g data-cell-id="ADVaAESZDNi0vssxZZNh-417"><g><rect x="229.79" y="47.92" width="806.32" height="198.96" fill="#222222" stroke="none" pointer-events="all"/></g></g><g data-cell-id="ADVaAESZDNi0vssxZZNh-418"><g><rect x="334.51" y="74.09" width="555" height="20.94" fill="#000000" stroke="none" pointer-events="all"/></g></g><g data-cell-id="ADVaAESZDNi0vssxZZNh-419"><g><rect x="334.51" y="115.98" width="555" height="20.94" fill="#000000" stroke="none" pointer-events="all"/></g></g><g data-cell-id="ADVaAESZDNi0vssxZZNh-420"><g><rect x="334.51" y="157.87" width="555" height="20.94" fill="#000000" stroke="none" pointer-events="all"/></g></g><g data-cell-id="ADVaAESZDNi0vssxZZNh-421"><g><rect x="334.51" y="199.75" width="555" height="20.94" fill="#000000" stroke="none" pointer-events="all"/></g></g><g data-cell-id="ADVaAESZDNi0vssxZZNh-422"><g><rect x="502.06" y="74.09" width="20.94" height="146.6" fill="#111111" stroke="none" pointer-events="all"/></g></g><g data-cell-id="ADVaAESZDNi0vssxZZNh-423"><g><rect x="701.02" y="74.09" width="20.94" height="146.6" fill="#111111" stroke="none" pointer-events="all"/></g></g><g data-cell-id="ADVaAESZDNi0vssxZZNh-424"><g><rect x="334.51" y="178.81" width="555" height="20.94" fill="#222222" stroke="none" pointer-events="all"/></g></g><g data-cell-id="ADVaAESZDNi0vssxZZNh-425"><g><rect x="334.51" y="136.92" width="555" height="20.94" fill="#222222" stroke="none" pointer-events="all"/></g></g><g data-cell-id="ADVaAESZDNi0vssxZZNh-426"><g><rect x="334.51" y="95.04" width="555" height="20.94" fill="#222222" stroke="none" pointer-events="all"/></g></g><g data-cell-id="ADVaAESZDNi0vssxZZNh-427"><g><rect x="292.62" y="74.09" width="41.89" height="146.6" fill="#111111" stroke="none" pointer-events="all"/></g></g><g data-cell-id="ADVaAESZDNi0vssxZZNh-428"><g><rect x="889.51" y="74.09" width="41.89" height="146.6" fill="#111111" stroke="none" pointer-events="all"/></g></g></g></g></g></g></g></g></svg>