<?xml version="1.0" encoding="UTF-8"?>
<!DOCTYPE svg PUBLIC "-//W3C//DTD SVG 1.1//EN" "http://www.w3.org/Graphics/SVG/1.1/DTD/svg11.dtd">
<svg xmlns="http://www.w3.org/2000/svg" xmlns:xlink="http://www.w3.org/1999/xlink" version="1.1" width="484px" height="90px" viewBox="-0.5 -0.5 484 90"><defs><style type="text/css">@import url("https://fonts.googleapis.com/css?family=Titillium+Web");</style><style type="text/css"/></defs><g><g/><g><rect x="0" y="0" width="482.6" height="88.9" fill="#bfbfbf" stroke="#aaaaaa" pointer-events="all"/></g><g><rect x="18" y="0" width="446.6" height="88.9" fill="#222222" stroke="#aaaaaa" pointer-events="all"/></g><g/><g/><g><rect x="7" y="66.95" width="4" height="6" fill="#000000" stroke="none" pointer-events="all"/></g><g><ellipse cx="11" cy="69.95" rx="3" ry="3" fill="#000000" stroke="none" pointer-events="all"/></g><g><ellipse cx="7" cy="69.95" rx="3" ry="3" fill="#000000" stroke="none" pointer-events="all"/></g><g/><g><rect x="7" y="16.05" width="4" height="6" fill="#000000" stroke="none" pointer-events="all"/></g><g><ellipse cx="11" cy="19.05" rx="3" ry="3" fill="#000000" stroke="none" pointer-events="all"/></g><g><ellipse cx="7" cy="19.05" rx="3" ry="3" fill="#000000" stroke="none" pointer-events="all"/></g><g><rect x="8" y="6" width="10" height="77" fill="#bfbfbf" stroke="#aaaaaa" pointer-events="all"/></g><g/><g/><g><rect x="471.6" y="66.95" width="4" height="6" fill="#000000" stroke="none" pointer-events="all"/></g><g><ellipse cx="475.6" cy="69.95" rx="3" ry="3" fill="#000000" stroke="none" pointer-events="all"/></g><g><ellipse cx="471.6" cy="69.95" rx="3" ry="3" fill="#000000" stroke="none" pointer-events="all"/></g><g/><g><rect x="471.6" y="16.05" width="4" height="6" fill="#000000" stroke="none" pointer-events="all"/></g><g><ellipse cx="475.6" cy="19.05" rx="3" ry="3" fill="#000000" stroke="none" pointer-events="all"/></g><g><ellipse cx="471.6" cy="19.05" rx="3" ry="3" fill="#000000" stroke="none" pointer-events="all"/></g><g><rect x="464.6" y="6" width="10" height="77" fill="#bfbfbf" stroke="#aaaaaa" pointer-events="all"/></g><g><rect x="19.83" y="61.01" width="109.95" height="26.18" fill="#333333" stroke="none" pointer-events="all"/></g><g><rect x="22.97" y="64.15" width="101.57" height="19.9" fill="#222222" stroke="#222222" stroke-width="0.5" pointer-events="all"/></g><g><rect x="125.07" y="82.48" width="4.19" height="3.14" rx="0.47" ry="0.47" fill="#60a917" stroke="#222222" stroke-width="0.1" transform="rotate(90,127.16,84.05)" pointer-events="all"/></g><g><rect x="125.07" y="73.05" width="4.19" height="3.14" rx="0.47" ry="0.47" fill="#0050ef" stroke="#222222" stroke-width="0.1" transform="rotate(90,127.16,74.62)" pointer-events="all"/></g><g><rect x="98.37" y="67.29" width="8.38" height="13.61" rx="1.26" ry="1.26" fill="#0050ef" stroke="none" pointer-events="all"/></g><g><path d="M 105.7 67.29 Q 108.84 67.29 108.84 74.1 Q 108.84 80.91 105.7 80.91 Z" fill="#0050ef" stroke="none" pointer-events="all"/></g><g><path d="M 127.16 69.88 C 127.25 69.88 127.32 69.81 127.32 69.72 L 127.32 69.1 C 127.32 69.01 127.26 68.94 127.17 68.94 C 127.08 68.94 127.01 69.01 127.01 69.08 L 127.01 69.73 C 127.01 69.81 127.08 69.88 127.16 69.88 Z M 127.16 70.89 C 127.66 70.89 128.07 70.49 128.07 69.99 C 128.07 69.74 127.98 69.46 127.71 69.26 C 127.66 69.22 127.55 69.24 127.51 69.3 C 127.46 69.36 127.46 69.45 127.53 69.52 C 127.67 69.63 127.76 69.8 127.76 69.97 C 127.76 70.32 127.47 70.57 127.17 70.57 C 126.88 70.57 126.59 70.36 126.57 69.98 C 126.57 69.83 126.65 69.62 126.81 69.51 C 126.86 69.47 126.88 69.37 126.82 69.3 C 126.75 69.22 126.66 69.23 126.61 69.26 C 126.38 69.46 126.27 69.67 126.26 69.96 C 126.26 70.51 126.68 70.89 127.16 70.89 Z M 127.16 71.48 C 126.27 71.48 125.59 70.76 125.59 69.91 C 125.59 69.05 126.3 68.34 127.18 68.34 C 127.99 68.34 128.73 69 128.73 69.9 C 128.73 70.85 127.98 71.48 127.16 71.48 Z" fill="none" stroke="#222222" stroke-width="0.1" stroke-miterlimit="10" pointer-events="all"/></g><g><path d="M 125.59 80.38 L 125.59 78.29 C 125.59 78 126.3 77.77 127.16 77.77 C 128.03 77.77 128.73 78 128.73 78.29 L 128.73 80.38 C 128.73 80.67 128.03 80.91 127.16 80.91 C 126.3 80.91 125.59 80.67 125.59 80.38 Z" fill="none" stroke="#222222" stroke-width="0.1" stroke-miterlimit="10" pointer-events="all"/><path d="M 125.59 78.29 C 125.59 78.58 126.3 78.81 127.16 78.81 C 128.03 78.81 128.73 78.58 128.73 78.29" fill="none" stroke="#222222" stroke-width="0.1" stroke-miterlimit="10" pointer-events="all"/></g><g><rect x="22.97" y="64.15" width="80.63" height="19.9" fill="#333333" stroke="none" pointer-events="all"/></g><g><rect x="88.94" y="66.77" width="4.19" height="14.66" fill="#2d2d2d" stroke="none" pointer-events="all"/></g><g><rect x="29.25" y="66.77" width="4.19" height="14.66" fill="#2d2d2d" stroke="none" pointer-events="all"/></g><g><rect x="33.44" y="66.77" width="55.5" height="2.09" fill="#222222" stroke="none" pointer-events="all"/></g><g><rect x="33.44" y="70.96" width="55.5" height="2.09" fill="#222222" stroke="none" pointer-events="all"/></g><g><rect x="33.44" y="75.15" width="55.5" height="2.09" fill="#222222" stroke="none" pointer-events="all"/></g><g><rect x="33.44" y="79.34" width="55.5" height="2.09" fill="#222222" stroke="none" pointer-events="all"/></g><g><rect x="50.2" y="66.77" width="2.09" height="14.66" fill="#2d2d2d" stroke="none" pointer-events="all"/></g><g><rect x="70.09" y="66.77" width="2.09" height="14.66" fill="#2d2d2d" stroke="none" pointer-events="all"/></g><g><rect x="33.44" y="77.24" width="55.5" height="2.09" fill="#333333" stroke="none" pointer-events="all"/></g><g><rect x="33.44" y="73.05" width="55.5" height="2.09" fill="#333333" stroke="none" pointer-events="all"/></g><g><rect x="33.44" y="68.86" width="55.5" height="2.09" fill="#333333" stroke="none" pointer-events="all"/></g><g><rect x="130.83" y="61.01" width="109.95" height="26.18" fill="#333333" stroke="none" pointer-events="all"/></g><g><rect x="133.97" y="64.15" width="101.57" height="19.9" fill="#222222" stroke="#222222" stroke-width="0.5" pointer-events="all"/></g><g><rect x="236.07" y="82.48" width="4.19" height="3.14" rx="0.47" ry="0.47" fill="#60a917" stroke="#222222" stroke-width="0.1" transform="rotate(90,238.16,84.05)" pointer-events="all"/></g><g><rect x="236.07" y="73.05" width="4.19" height="3.14" rx="0.47" ry="0.47" fill="#0050ef" stroke="#222222" stroke-width="0.1" transform="rotate(90,238.16,74.62)" pointer-events="all"/></g><g><rect x="209.37" y="67.29" width="8.38" height="13.61" rx="1.26" ry="1.26" fill="#0050ef" stroke="none" pointer-events="all"/></g><g><path d="M 216.7 67.29 Q 219.84 67.29 219.84 74.1 Q 219.84 80.91 216.7 80.91 Z" fill="#0050ef" stroke="none" pointer-events="all"/></g><g><path d="M 238.16 69.88 C 238.25 69.88 238.32 69.81 238.32 69.72 L 238.32 69.1 C 238.32 69.01 238.26 68.94 238.17 68.94 C 238.07 68.94 238.01 69.01 238.01 69.08 L 238.01 69.73 C 238.01 69.81 238.08 69.88 238.16 69.88 Z M 238.16 70.89 C 238.66 70.89 239.07 70.49 239.07 69.99 C 239.07 69.74 238.98 69.46 238.71 69.26 C 238.66 69.22 238.55 69.24 238.51 69.3 C 238.46 69.36 238.46 69.45 238.53 69.52 C 238.67 69.63 238.76 69.8 238.76 69.97 C 238.76 70.32 238.46 70.57 238.17 70.57 C 237.88 70.57 237.59 70.36 237.57 69.98 C 237.57 69.83 237.65 69.62 237.81 69.51 C 237.86 69.47 237.88 69.37 237.81 69.3 C 237.75 69.22 237.65 69.23 237.61 69.26 C 237.38 69.46 237.27 69.67 237.26 69.96 C 237.26 70.51 237.68 70.89 238.16 70.89 Z M 238.16 71.48 C 237.27 71.48 236.59 70.76 236.59 69.91 C 236.59 69.05 237.3 68.34 238.18 68.34 C 238.99 68.34 239.73 69 239.73 69.9 C 239.73 70.85 238.98 71.48 238.16 71.48 Z" fill="none" stroke="#222222" stroke-width="0.1" stroke-miterlimit="10" pointer-events="all"/></g><g><path d="M 236.59 80.38 L 236.59 78.29 C 236.59 78 237.3 77.77 238.16 77.77 C 239.03 77.77 239.73 78 239.73 78.29 L 239.73 80.38 C 239.73 80.67 239.03 80.91 238.16 80.91 C 237.3 80.91 236.59 80.67 236.59 80.38 Z" fill="none" stroke="#222222" stroke-width="0.1" stroke-miterlimit="10" pointer-events="all"/><path d="M 236.59 78.29 C 236.59 78.58 237.3 78.81 238.16 78.81 C 239.03 78.81 239.73 78.58 239.73 78.29" fill="none" stroke="#222222" stroke-width="0.1" stroke-miterlimit="10" pointer-events="all"/></g><g><rect x="133.97" y="64.15" width="80.63" height="19.9" fill="#333333" stroke="none" pointer-events="all"/></g><g><rect x="199.94" y="66.77" width="4.19" height="14.66" fill="#2d2d2d" stroke="none" pointer-events="all"/></g><g><rect x="140.25" y="66.77" width="4.19" height="14.66" fill="#2d2d2d" stroke="none" pointer-events="all"/></g><g><rect x="144.44" y="66.77" width="55.5" height="2.09" fill="#222222" stroke="none" pointer-events="all"/></g><g><rect x="144.44" y="70.96" width="55.5" height="2.09" fill="#222222" stroke="none" pointer-events="all"/></g><g><rect x="144.44" y="75.15" width="55.5" height="2.09" fill="#222222" stroke="none" pointer-events="all"/></g><g><rect x="144.44" y="79.34" width="55.5" height="2.09" fill="#222222" stroke="none" pointer-events="all"/></g><g><rect x="161.2" y="66.77" width="2.09" height="14.66" fill="#2d2d2d" stroke="none" pointer-events="all"/></g><g><rect x="181.09" y="66.77" width="2.09" height="14.66" fill="#2d2d2d" stroke="none" pointer-events="all"/></g><g><rect x="144.44" y="77.24" width="55.5" height="2.09" fill="#333333" stroke="none" pointer-events="all"/></g><g><rect x="144.44" y="73.05" width="55.5" height="2.09" fill="#333333" stroke="none" pointer-events="all"/></g><g><rect x="144.44" y="68.86" width="55.5" height="2.09" fill="#333333" stroke="none" pointer-events="all"/></g><g><rect x="19.83" y="31.83" width="109.95" height="26.18" fill="#333333" stroke="none" pointer-events="all"/></g><g><rect x="22.97" y="34.97" width="101.57" height="19.9" fill="#222222" stroke="#222222" stroke-width="0.5" pointer-events="all"/></g><g><rect x="125.07" y="53.3" width="4.19" height="3.14" rx="0.47" ry="0.47" fill="#60a917" stroke="#222222" stroke-width="0.1" transform="rotate(90,127.16,54.87)" pointer-events="all"/></g><g><rect x="125.07" y="43.87" width="4.19" height="3.14" rx="0.47" ry="0.47" fill="#0050ef" stroke="#222222" stroke-width="0.1" transform="rotate(90,127.16,45.44)" pointer-events="all"/></g><g><rect x="98.37" y="38.11" width="8.38" height="13.61" rx="1.26" ry="1.26" fill="#0050ef" stroke="none" pointer-events="all"/></g><g><path d="M 105.7 38.11 Q 108.84 38.11 108.84 44.92 Q 108.84 51.73 105.7 51.73 Z" fill="#0050ef" stroke="none" pointer-events="all"/></g><g><path d="M 127.16 40.7 C 127.25 40.7 127.32 40.63 127.32 40.54 L 127.32 39.92 C 127.32 39.83 127.26 39.76 127.17 39.76 C 127.08 39.76 127.01 39.83 127.01 39.9 L 127.01 40.55 C 127.01 40.63 127.08 40.7 127.16 40.7 Z M 127.16 41.71 C 127.66 41.71 128.07 41.31 128.07 40.81 C 128.07 40.56 127.98 40.28 127.71 40.08 C 127.66 40.04 127.55 40.06 127.51 40.12 C 127.46 40.18 127.46 40.27 127.53 40.34 C 127.67 40.45 127.76 40.62 127.76 40.79 C 127.76 41.14 127.47 41.39 127.17 41.39 C 126.88 41.39 126.59 41.18 126.57 40.8 C 126.57 40.65 126.65 40.44 126.81 40.33 C 126.86 40.29 126.88 40.19 126.82 40.12 C 126.75 40.04 126.66 40.05 126.61 40.08 C 126.38 40.28 126.27 40.49 126.26 40.78 C 126.26 41.33 126.68 41.71 127.16 41.71 Z M 127.16 42.3 C 126.27 42.3 125.59 41.58 125.59 40.73 C 125.59 39.87 126.3 39.16 127.18 39.16 C 127.99 39.16 128.73 39.82 128.73 40.72 C 128.73 41.67 127.98 42.3 127.16 42.3 Z" fill="none" stroke="#222222" stroke-width="0.1" stroke-miterlimit="10" pointer-events="all"/></g><g><path d="M 125.59 51.2 L 125.59 49.11 C 125.59 48.82 126.3 48.59 127.16 48.59 C 128.03 48.59 128.73 48.82 128.73 49.11 L 128.73 51.2 C 128.73 51.49 128.03 51.73 127.16 51.73 C 126.3 51.73 125.59 51.49 125.59 51.2 Z" fill="none" stroke="#222222" stroke-width="0.1" stroke-miterlimit="10" pointer-events="all"/><path d="M 125.59 49.11 C 125.59 49.4 126.3 49.63 127.16 49.63 C 128.03 49.63 128.73 49.4 128.73 49.11" fill="none" stroke="#222222" stroke-width="0.1" stroke-miterlimit="10" pointer-events="all"/></g><g><rect x="22.97" y="34.97" width="80.63" height="19.9" fill="#333333" stroke="none" pointer-events="all"/></g><g><rect x="88.94" y="37.59" width="4.19" height="14.66" fill="#2d2d2d" stroke="none" pointer-events="all"/></g><g><rect x="29.25" y="37.59" width="4.19" height="14.66" fill="#2d2d2d" stroke="none" pointer-events="all"/></g><g><rect x="33.44" y="37.59" width="55.5" height="2.09" fill="#222222" stroke="none" pointer-events="all"/></g><g><rect x="33.44" y="41.78" width="55.5" height="2.09" fill="#222222" stroke="none" pointer-events="all"/></g><g><rect x="33.44" y="45.97" width="55.5" height="2.09" fill="#222222" stroke="none" pointer-events="all"/></g><g><rect x="33.44" y="50.16" width="55.5" height="2.09" fill="#222222" stroke="none" pointer-events="all"/></g><g><rect x="50.2" y="37.59" width="2.09" height="14.66" fill="#2d2d2d" stroke="none" pointer-events="all"/></g><g><rect x="70.09" y="37.59" width="2.09" height="14.66" fill="#2d2d2d" stroke="none" pointer-events="all"/></g><g><rect x="33.44" y="48.06" width="55.5" height="2.09" fill="#333333" stroke="none" pointer-events="all"/></g><g><rect x="33.44" y="43.87" width="55.5" height="2.09" fill="#333333" stroke="none" pointer-events="all"/></g><g><rect x="33.44" y="39.68" width="55.5" height="2.09" fill="#333333" stroke="none" pointer-events="all"/></g><g><rect x="130.83" y="31.83" width="109.95" height="26.18" fill="#333333" stroke="none" pointer-events="all"/></g><g><rect x="133.97" y="34.97" width="101.57" height="19.9" fill="#222222" stroke="#222222" stroke-width="0.5" pointer-events="all"/></g><g><rect x="236.07" y="53.3" width="4.19" height="3.14" rx="0.47" ry="0.47" fill="#60a917" stroke="#222222" stroke-width="0.1" transform="rotate(90,238.16,54.87)" pointer-events="all"/></g><g><rect x="236.07" y="43.87" width="4.19" height="3.14" rx="0.47" ry="0.47" fill="#0050ef" stroke="#222222" stroke-width="0.1" transform="rotate(90,238.16,45.44)" pointer-events="all"/></g><g><rect x="209.37" y="38.11" width="8.38" height="13.61" rx="1.26" ry="1.26" fill="#0050ef" stroke="none" pointer-events="all"/></g><g><path d="M 216.7 38.11 Q 219.84 38.11 219.84 44.92 Q 219.84 51.73 216.7 51.73 Z" fill="#0050ef" stroke="none" pointer-events="all"/></g><g><path d="M 238.16 40.7 C 238.25 40.7 238.32 40.63 238.32 40.54 L 238.32 39.92 C 238.32 39.83 238.26 39.76 238.17 39.76 C 238.07 39.76 238.01 39.83 238.01 39.9 L 238.01 40.55 C 238.01 40.63 238.08 40.7 238.16 40.7 Z M 238.16 41.71 C 238.66 41.71 239.07 41.31 239.07 40.81 C 239.07 40.56 238.98 40.28 238.71 40.08 C 238.66 40.04 238.55 40.06 238.51 40.12 C 238.46 40.18 238.46 40.27 238.53 40.34 C 238.67 40.45 238.76 40.62 238.76 40.79 C 238.76 41.14 238.46 41.39 238.17 41.39 C 237.88 41.39 237.59 41.18 237.57 40.8 C 237.57 40.65 237.65 40.44 237.81 40.33 C 237.86 40.29 237.88 40.19 237.81 40.12 C 237.75 40.04 237.65 40.05 237.61 40.08 C 237.38 40.28 237.27 40.49 237.26 40.78 C 237.26 41.33 237.68 41.71 238.16 41.71 Z M 238.16 42.3 C 237.27 42.3 236.59 41.58 236.59 40.73 C 236.59 39.87 237.3 39.16 238.18 39.16 C 238.99 39.16 239.73 39.82 239.73 40.72 C 239.73 41.67 238.98 42.3 238.16 42.3 Z" fill="none" stroke="#222222" stroke-width="0.1" stroke-miterlimit="10" pointer-events="all"/></g><g><path d="M 236.59 51.2 L 236.59 49.11 C 236.59 48.82 237.3 48.59 238.16 48.59 C 239.03 48.59 239.73 48.82 239.73 49.11 L 239.73 51.2 C 239.73 51.49 239.03 51.73 238.16 51.73 C 237.3 51.73 236.59 51.49 236.59 51.2 Z" fill="none" stroke="#222222" stroke-width="0.1" stroke-miterlimit="10" pointer-events="all"/><path d="M 236.59 49.11 C 236.59 49.4 237.3 49.63 238.16 49.63 C 239.03 49.63 239.73 49.4 239.73 49.11" fill="none" stroke="#222222" stroke-width="0.1" stroke-miterlimit="10" pointer-events="all"/></g><g><rect x="133.97" y="34.97" width="80.63" height="19.9" fill="#333333" stroke="none" pointer-events="all"/></g><g><rect x="199.94" y="37.59" width="4.19" height="14.66" fill="#2d2d2d" stroke="none" pointer-events="all"/></g><g><rect x="140.25" y="37.59" width="4.19" height="14.66" fill="#2d2d2d" stroke="none" pointer-events="all"/></g><g><rect x="144.44" y="37.59" width="55.5" height="2.09" fill="#222222" stroke="none" pointer-events="all"/></g><g><rect x="144.44" y="41.78" width="55.5" height="2.09" fill="#222222" stroke="none" pointer-events="all"/></g><g><rect x="144.44" y="45.97" width="55.5" height="2.09" fill="#222222" stroke="none" pointer-events="all"/></g><g><rect x="144.44" y="50.16" width="55.5" height="2.09" fill="#222222" stroke="none" pointer-events="all"/></g><g><rect x="161.2" y="37.59" width="2.09" height="14.66" fill="#2d2d2d" stroke="none" pointer-events="all"/></g><g><rect x="181.09" y="37.59" width="2.09" height="14.66" fill="#2d2d2d" stroke="none" pointer-events="all"/></g><g><rect x="144.44" y="48.06" width="55.5" height="2.09" fill="#333333" stroke="none" pointer-events="all"/></g><g><rect x="144.44" y="43.87" width="55.5" height="2.09" fill="#333333" stroke="none" pointer-events="all"/></g><g><rect x="144.44" y="39.68" width="55.5" height="2.09" fill="#333333" stroke="none" pointer-events="all"/></g><g><rect x="19.83" y="2.65" width="109.95" height="26.18" fill="#333333" stroke="none" pointer-events="all"/></g><g><rect x="22.97" y="5.79" width="101.57" height="19.9" fill="#222222" stroke="#222222" stroke-width="0.5" pointer-events="all"/></g><g><rect x="125.07" y="24.12" width="4.19" height="3.14" rx="0.47" ry="0.47" fill="#60a917" stroke="#222222" stroke-width="0.1" transform="rotate(90,127.16,25.69)" pointer-events="all"/></g><g><rect x="125.07" y="14.69" width="4.19" height="3.14" rx="0.47" ry="0.47" fill="#0050ef" stroke="#222222" stroke-width="0.1" transform="rotate(90,127.16,16.26)" pointer-events="all"/></g><g><rect x="98.37" y="8.93" width="8.38" height="13.61" rx="1.26" ry="1.26" fill="#0050ef" stroke="none" pointer-events="all"/></g><g><path d="M 105.7 8.93 Q 108.84 8.93 108.84 15.74 Q 108.84 22.55 105.7 22.55 Z" fill="#0050ef" stroke="none" pointer-events="all"/></g><g><path d="M 127.16 11.52 C 127.25 11.52 127.32 11.45 127.32 11.36 L 127.32 10.74 C 127.32 10.65 127.26 10.58 127.17 10.58 C 127.08 10.58 127.01 10.65 127.01 10.72 L 127.01 11.37 C 127.01 11.45 127.08 11.52 127.16 11.52 Z M 127.16 12.53 C 127.66 12.53 128.07 12.13 128.07 11.63 C 128.07 11.38 127.98 11.1 127.71 10.9 C 127.66 10.86 127.55 10.88 127.51 10.94 C 127.46 11 127.46 11.09 127.53 11.16 C 127.67 11.27 127.76 11.44 127.76 11.61 C 127.76 11.96 127.47 12.21 127.17 12.21 C 126.88 12.21 126.59 12 126.57 11.62 C 126.57 11.47 126.65 11.26 126.81 11.15 C 126.86 11.11 126.88 11.01 126.82 10.94 C 126.75 10.86 126.66 10.87 126.61 10.9 C 126.38 11.1 126.27 11.31 126.26 11.6 C 126.26 12.15 126.68 12.53 127.16 12.53 Z M 127.16 13.12 C 126.27 13.12 125.59 12.4 125.59 11.55 C 125.59 10.69 126.3 9.98 127.18 9.98 C 127.99 9.98 128.73 10.64 128.73 11.54 C 128.73 12.49 127.98 13.12 127.16 13.12 Z" fill="none" stroke="#222222" stroke-width="0.1" stroke-miterlimit="10" pointer-events="all"/></g><g><path d="M 125.59 22.02 L 125.59 19.93 C 125.59 19.64 126.3 19.41 127.16 19.41 C 128.03 19.41 128.73 19.64 128.73 19.93 L 128.73 22.02 C 128.73 22.31 128.03 22.55 127.16 22.55 C 126.3 22.55 125.59 22.31 125.59 22.02 Z" fill="none" stroke="#222222" stroke-width="0.1" stroke-miterlimit="10" pointer-events="all"/><path d="M 125.59 19.93 C 125.59 20.22 126.3 20.45 127.16 20.45 C 128.03 20.45 128.73 20.22 128.73 19.93" fill="none" stroke="#222222" stroke-width="0.1" stroke-miterlimit="10" pointer-events="all"/></g><g><rect x="22.97" y="5.79" width="80.63" height="19.9" fill="#333333" stroke="none" pointer-events="all"/></g><g><rect x="88.94" y="8.41" width="4.19" height="14.66" fill="#2d2d2d" stroke="none" pointer-events="all"/></g><g><rect x="29.25" y="8.41" width="4.19" height="14.66" fill="#2d2d2d" stroke="none" pointer-events="all"/></g><g><rect x="33.44" y="8.41" width="55.5" height="2.09" fill="#222222" stroke="none" pointer-events="all"/></g><g><rect x="33.44" y="12.6" width="55.5" height="2.09" fill="#222222" stroke="none" pointer-events="all"/></g><g><rect x="33.44" y="16.79" width="55.5" height="2.09" fill="#222222" stroke="none" pointer-events="all"/></g><g><rect x="33.44" y="20.98" width="55.5" height="2.09" fill="#222222" stroke="none" pointer-events="all"/></g><g><rect x="50.2" y="8.41" width="2.09" height="14.66" fill="#2d2d2d" stroke="none" pointer-events="all"/></g><g><rect x="70.09" y="8.41" width="2.09" height="14.66" fill="#2d2d2d" stroke="none" pointer-events="all"/></g><g><rect x="33.44" y="18.88" width="55.5" height="2.09" fill="#333333" stroke="none" pointer-events="all"/></g><g><rect x="33.44" y="14.69" width="55.5" height="2.09" fill="#333333" stroke="none" pointer-events="all"/></g><g><rect x="33.44" y="10.5" width="55.5" height="2.09" fill="#333333" stroke="none" pointer-events="all"/></g><g><rect x="130.83" y="2.65" width="109.95" height="26.18" fill="#333333" stroke="none" pointer-events="all"/></g><g><rect x="133.97" y="5.79" width="101.57" height="19.9" fill="#222222" stroke="#222222" stroke-width="0.5" pointer-events="all"/></g><g><rect x="236.07" y="24.12" width="4.19" height="3.14" rx="0.47" ry="0.47" fill="#60a917" stroke="#222222" stroke-width="0.1" transform="rotate(90,238.16,25.69)" pointer-events="all"/></g><g><rect x="236.07" y="14.69" width="4.19" height="3.14" rx="0.47" ry="0.47" fill="#0050ef" stroke="#222222" stroke-width="0.1" transform="rotate(90,238.16,16.26)" pointer-events="all"/></g><g><rect x="209.37" y="8.93" width="8.38" height="13.61" rx="1.26" ry="1.26" fill="#0050ef" stroke="none" pointer-events="all"/></g><g><path d="M 216.7 8.93 Q 219.84 8.93 219.84 15.74 Q 219.84 22.55 216.7 22.55 Z" fill="#0050ef" stroke="none" pointer-events="all"/></g><g><path d="M 238.16 11.52 C 238.25 11.52 238.32 11.45 238.32 11.36 L 238.32 10.74 C 238.32 10.65 238.26 10.58 238.17 10.58 C 238.07 10.58 238.01 10.65 238.01 10.72 L 238.01 11.37 C 238.01 11.45 238.08 11.52 238.16 11.52 Z M 238.16 12.53 C 238.66 12.53 239.07 12.13 239.07 11.63 C 239.07 11.38 238.98 11.1 238.71 10.9 C 238.66 10.86 238.55 10.88 238.51 10.94 C 238.46 11 238.46 11.09 238.53 11.16 C 238.67 11.27 238.76 11.44 238.76 11.61 C 238.76 11.96 238.46 12.21 238.17 12.21 C 237.88 12.21 237.59 12 237.57 11.62 C 237.57 11.47 237.65 11.26 237.81 11.15 C 237.86 11.11 237.88 11.01 237.81 10.94 C 237.75 10.86 237.65 10.87 237.61 10.9 C 237.38 11.1 237.27 11.31 237.26 11.6 C 237.26 12.15 237.68 12.53 238.16 12.53 Z M 238.16 13.12 C 237.27 13.12 236.59 12.4 236.59 11.55 C 236.59 10.69 237.3 9.98 238.18 9.98 C 238.99 9.98 239.73 10.64 239.73 11.54 C 239.73 12.49 238.98 13.12 238.16 13.12 Z" fill="none" stroke="#222222" stroke-width="0.1" stroke-miterlimit="10" pointer-events="all"/></g><g><path d="M 236.59 22.02 L 236.59 19.93 C 236.59 19.64 237.3 19.41 238.16 19.41 C 239.03 19.41 239.73 19.64 239.73 19.93 L 239.73 22.02 C 239.73 22.31 239.03 22.55 238.16 22.55 C 237.3 22.55 236.59 22.31 236.59 22.02 Z" fill="none" stroke="#222222" stroke-width="0.1" stroke-miterlimit="10" pointer-events="all"/><path d="M 236.59 19.93 C 236.59 20.22 237.3 20.45 238.16 20.45 C 239.03 20.45 239.73 20.22 239.73 19.93" fill="none" stroke="#222222" stroke-width="0.1" stroke-miterlimit="10" pointer-events="all"/></g><g><rect x="133.97" y="5.79" width="80.63" height="19.9" fill="#333333" stroke="none" pointer-events="all"/></g><g><rect x="199.94" y="8.41" width="4.19" height="14.66" fill="#2d2d2d" stroke="none" pointer-events="all"/></g><g><rect x="140.25" y="8.41" width="4.19" height="14.66" fill="#2d2d2d" stroke="none" pointer-events="all"/></g><g><rect x="144.44" y="8.41" width="55.5" height="2.09" fill="#222222" stroke="none" pointer-events="all"/></g><g><rect x="144.44" y="12.6" width="55.5" height="2.09" fill="#222222" stroke="none" pointer-events="all"/></g><g><rect x="144.44" y="16.79" width="55.5" height="2.09" fill="#222222" stroke="none" pointer-events="all"/></g><g><rect x="144.44" y="20.98" width="55.5" height="2.09" fill="#222222" stroke="none" pointer-events="all"/></g><g><rect x="161.2" y="8.41" width="2.09" height="14.66" fill="#2d2d2d" stroke="none" pointer-events="all"/></g><g><rect x="181.09" y="8.41" width="2.09" height="14.66" fill="#2d2d2d" stroke="none" pointer-events="all"/></g><g><rect x="144.44" y="18.88" width="55.5" height="2.09" fill="#333333" stroke="none" pointer-events="all"/></g><g><rect x="144.44" y="14.69" width="55.5" height="2.09" fill="#333333" stroke="none" pointer-events="all"/></g><g><rect x="144.44" y="10.5" width="55.5" height="2.09" fill="#333333" stroke="none" pointer-events="all"/></g><g><rect x="243" y="0" width="221.6" height="88.9" fill="#222222" stroke="#aaaaaa" pointer-events="all"/></g><g><rect x="311.8" y="8.26" width="84" height="16" fill="none" stroke="#000000" pointer-events="none"/></g><g><rect x="311.8" y="8.26" width="84" height="16" fill="#333333" stroke="#000000" stroke-width="0.2" pointer-events="all"/></g><g><rect x="313.3" y="9.61" width="81" height="13.3" fill="#333333" stroke="#001dbc" stroke-width="0.2" pointer-events="all"/></g><g><ellipse cx="332.05" cy="19.22" rx="2.25" ry="2.217391304347826" fill="#60a917" stroke="none" pointer-events="all"/></g><g><ellipse cx="337.3" cy="19.22" rx="2.25" ry="2.217391304347826" fill="#0050ef" stroke="none" pointer-events="all"/></g><g><ellipse cx="342.55" cy="19.22" rx="2.25" ry="2.217391304347826" fill="#0050ef" stroke="none" pointer-events="all"/></g><g><ellipse cx="347.8" cy="19.22" rx="2.25" ry="2.217391304347826" fill="#0050ef" stroke="none" pointer-events="all"/></g><g><ellipse cx="358.3" cy="19.22" rx="2.25" ry="2.217391304347826" fill="#a20025" stroke="none" pointer-events="all"/></g><g><ellipse cx="353.05" cy="19.22" rx="2.25" ry="2.217391304347826" fill="#0050ef" stroke="none" pointer-events="all"/></g><g><ellipse cx="325.3" cy="18.48" rx="3" ry="2.956521739130435" fill="#0050ef" stroke="none" pointer-events="all"/></g><g><ellipse cx="317.8" cy="18.48" rx="3" ry="2.956521739130435" fill="#0050ef" stroke="none" pointer-events="all"/></g><g><rect x="366.1" y="11.09" width="6.51" height="2.96" fill="none" stroke="none" pointer-events="all"/><path d="M 367.23 12.71 C 367.15 12.98 366.88 13.15 366.6 13.11 C 366.31 13.07 366.1 12.83 366.1 12.55 C 366.1 12.27 366.31 12.03 366.6 12 C 366.88 11.96 367.15 12.13 367.23 12.4 L 367.91 12.4 C 367.99 12.37 368.06 12.31 368.09 12.23 L 368.3 11.85 C 368.42 11.67 368.61 11.55 368.83 11.52 C 369.01 11.49 369.19 11.48 369.37 11.48 C 369.45 11.24 369.7 11.09 369.95 11.12 C 370.21 11.16 370.4 11.38 370.4 11.63 C 370.4 11.88 370.21 12.1 369.95 12.13 C 369.7 12.17 369.45 12.02 369.37 11.78 C 369.18 11.77 368.98 11.79 368.79 11.84 C 368.71 11.87 368.63 11.92 368.57 11.99 L 368.44 12.25 L 368.36 12.41 L 371.46 12.41 L 371.46 11.89 L 372.61 12.6 L 371.46 13.22 L 371.46 12.7 L 369.08 12.7 C 369.13 12.77 369.17 12.85 369.2 12.94 L 369.33 13.27 C 369.37 13.33 369.41 13.37 369.47 13.4 C 369.55 13.42 369.63 13.43 369.71 13.43 L 369.99 13.43 L 369.99 13.12 L 370.92 13.12 L 370.92 14.04 L 369.99 14.04 L 369.99 13.74 C 369.8 13.76 369.61 13.75 369.43 13.7 C 369.29 13.66 369.18 13.58 369.09 13.47 L 368.99 13.24 L 368.85 12.91 C 368.81 12.79 368.69 12.71 368.56 12.7 Z" fill="#ffffff" stroke="none" pointer-events="all"/></g><g><rect x="382.06" y="11.09" width="6.51" height="2.96" fill="none" stroke="none" pointer-events="all"/><path d="M 383.19 12.71 C 383.11 12.98 382.84 13.15 382.56 13.11 C 382.27 13.07 382.06 12.83 382.06 12.55 C 382.06 12.27 382.27 12.03 382.56 12 C 382.84 11.96 383.11 12.13 383.19 12.4 L 383.87 12.4 C 383.95 12.37 384.02 12.31 384.05 12.23 L 384.26 11.85 C 384.38 11.67 384.57 11.55 384.79 11.52 C 384.97 11.49 385.15 11.48 385.33 11.48 C 385.41 11.24 385.66 11.09 385.91 11.12 C 386.17 11.16 386.36 11.38 386.36 11.63 C 386.36 11.88 386.17 12.1 385.91 12.13 C 385.66 12.17 385.41 12.02 385.33 11.78 C 385.14 11.77 384.94 11.79 384.75 11.84 C 384.67 11.87 384.59 11.92 384.53 11.99 L 384.4 12.25 L 384.32 12.41 L 387.42 12.41 L 387.42 11.89 L 388.57 12.6 L 387.42 13.22 L 387.42 12.7 L 385.04 12.7 C 385.09 12.77 385.13 12.85 385.16 12.94 L 385.29 13.27 C 385.33 13.33 385.37 13.37 385.43 13.4 C 385.51 13.42 385.59 13.43 385.67 13.43 L 385.95 13.43 L 385.95 13.12 L 386.88 13.12 L 386.88 14.04 L 385.95 14.04 L 385.95 13.74 C 385.76 13.76 385.57 13.75 385.39 13.7 C 385.25 13.66 385.14 13.58 385.05 13.47 L 384.95 13.24 L 384.81 12.91 C 384.77 12.79 384.65 12.71 384.52 12.7 Z" fill="#ffffff" stroke="none" pointer-events="all"/></g><g><path d="M 317.79 12.53 C 317.88 12.53 317.95 12.47 317.95 12.39 L 317.95 11.8 C 317.95 11.72 317.89 11.65 317.8 11.65 C 317.71 11.65 317.65 11.72 317.65 11.78 L 317.65 12.39 C 317.65 12.47 317.72 12.53 317.79 12.53 Z M 317.8 13.48 C 318.27 13.48 318.67 13.1 318.67 12.64 C 318.67 12.4 318.58 12.14 318.32 11.95 C 318.27 11.91 318.17 11.93 318.13 11.99 C 318.09 12.05 318.08 12.13 318.15 12.19 C 318.28 12.3 318.37 12.46 318.37 12.62 C 318.37 12.95 318.09 13.18 317.81 13.18 C 317.53 13.18 317.25 12.99 317.24 12.63 C 317.23 12.49 317.31 12.29 317.46 12.19 C 317.51 12.15 317.53 12.05 317.47 11.98 C 317.41 11.91 317.31 11.92 317.27 11.95 C 317.05 12.13 316.94 12.34 316.94 12.61 C 316.94 13.13 317.34 13.48 317.8 13.48 Z M 317.8 14.04 C 316.94 14.04 316.3 13.36 316.3 12.56 C 316.3 11.75 316.97 11.09 317.81 11.09 C 318.59 11.09 319.3 11.7 319.3 12.56 C 319.3 13.45 318.58 14.04 317.8 14.04 Z" fill="#ffffff" stroke="none" pointer-events="all"/></g><g><path d="M 324.83 14.04 L 324.83 13.55 C 324.19 13.35 323.8 12.75 323.92 12.14 C 324.03 11.53 324.62 11.09 325.3 11.09 C 325.98 11.09 326.57 11.53 326.68 12.14 C 326.8 12.75 326.41 13.35 325.77 13.55 L 325.77 14.04" fill="none" stroke="rgb(240, 240, 240)" stroke-width="0.1" stroke-miterlimit="10" transform="rotate(-180,325.3,12.56)" pointer-events="all"/></g><g><path d="M 335.8 13.55 L 335.8 11.58 C 335.8 11.31 336.47 11.09 337.3 11.09 C 338.13 11.09 338.8 11.31 338.8 11.58 L 338.8 13.55 C 338.8 13.82 338.13 14.04 337.3 14.04 C 336.47 14.04 335.8 13.82 335.8 13.55 Z" fill="none" stroke="rgb(240, 240, 240)" stroke-width="0.1" stroke-miterlimit="10" pointer-events="all"/><path d="M 335.8 11.58 C 335.8 11.85 336.47 12.07 337.3 12.07 C 338.13 12.07 338.8 11.85 338.8 11.58" fill="none" stroke="rgb(240, 240, 240)" stroke-width="0.1" stroke-miterlimit="10" pointer-events="all"/></g><g><rect x="341.05" y="11.09" width="3" height="2.96" fill="none" stroke="none" pointer-events="all"/><path d="M 342.24 11.09 L 342.24 11.71 L 342.49 11.71 L 342.49 12.29 L 341.34 12.29 C 341.33 12.29 341.32 12.3 341.3 12.31 C 341.29 12.32 341.29 12.33 341.29 12.35 L 341.29 13.42 L 341.05 13.42 L 341.05 14.04 L 341.67 14.04 L 341.67 13.42 L 341.4 13.42 L 341.4 12.4 L 342.49 12.4 L 342.49 13.17 L 342.24 13.17 L 342.24 13.79 L 342.85 13.79 L 342.85 13.17 L 342.6 13.17 L 342.6 12.41 L 343.69 12.41 L 343.69 13.42 L 343.43 13.42 L 343.43 14.04 L 344.05 14.04 L 344.05 13.42 L 343.8 13.42 L 343.8 12.35 C 343.8 12.34 343.8 12.32 343.79 12.31 C 343.78 12.3 343.76 12.29 343.75 12.29 L 342.6 12.29 L 342.6 11.71 L 342.85 11.71 L 342.85 11.09 Z" fill="#ffffff" stroke="none" pointer-events="all"/></g><g><rect x="346.3" y="11.09" width="3" height="2.96" fill="none" stroke="none" pointer-events="all"/><path d="M 347.49 11.09 L 347.49 11.71 L 347.74 11.71 L 347.74 12.29 L 346.59 12.29 C 346.58 12.29 346.57 12.3 346.55 12.31 C 346.54 12.32 346.54 12.33 346.54 12.35 L 346.54 13.42 L 346.3 13.42 L 346.3 14.04 L 346.92 14.04 L 346.92 13.42 L 346.65 13.42 L 346.65 12.4 L 347.74 12.4 L 347.74 13.17 L 347.49 13.17 L 347.49 13.79 L 348.1 13.79 L 348.1 13.17 L 347.85 13.17 L 347.85 12.41 L 348.94 12.41 L 348.94 13.42 L 348.68 13.42 L 348.68 14.04 L 349.3 14.04 L 349.3 13.42 L 349.05 13.42 L 349.05 12.35 C 349.05 12.34 349.05 12.32 349.04 12.31 C 349.03 12.3 349.01 12.29 349 12.29 L 347.85 12.29 L 347.85 11.71 L 348.1 11.71 L 348.1 11.09 Z" fill="#ffffff" stroke="none" pointer-events="all"/></g><g><rect x="351.55" y="11.09" width="3" height="2.96" fill="none" stroke="none" pointer-events="all"/><path d="M 352.74 11.09 L 352.74 11.71 L 352.99 11.71 L 352.99 12.29 L 351.84 12.29 C 351.83 12.29 351.82 12.3 351.8 12.31 C 351.79 12.32 351.79 12.33 351.79 12.35 L 351.79 13.42 L 351.55 13.42 L 351.55 14.04 L 352.17 14.04 L 352.17 13.42 L 351.9 13.42 L 351.9 12.4 L 352.99 12.4 L 352.99 13.17 L 352.74 13.17 L 352.74 13.79 L 353.35 13.79 L 353.35 13.17 L 353.1 13.17 L 353.1 12.41 L 354.19 12.41 L 354.19 13.42 L 353.93 13.42 L 353.93 14.04 L 354.55 14.04 L 354.55 13.42 L 354.3 13.42 L 354.3 12.35 C 354.3 12.34 354.3 12.32 354.29 12.31 C 354.28 12.3 354.26 12.29 354.25 12.29 L 353.1 12.29 L 353.1 11.71 L 353.35 11.71 L 353.35 11.09 Z" fill="#ffffff" stroke="none" pointer-events="all"/></g><g><path d="M 356.8 11.09 L 359.8 12.56 L 356.8 14.04 Z" fill="none" stroke="rgb(240, 240, 240)" stroke-width="0.1" stroke-miterlimit="10" transform="rotate(-90,358.3,12.56)" pointer-events="all"/></g><g><path d="M 332.04 12.53 C 332.13 12.53 332.2 12.47 332.2 12.39 L 332.2 11.8 C 332.2 11.72 332.14 11.65 332.05 11.65 C 331.96 11.65 331.9 11.72 331.9 11.78 L 331.9 12.39 C 331.9 12.47 331.97 12.53 332.04 12.53 Z M 332.05 13.48 C 332.52 13.48 332.92 13.1 332.92 12.64 C 332.92 12.4 332.83 12.14 332.57 11.95 C 332.52 11.91 332.42 11.93 332.38 11.99 C 332.34 12.05 332.33 12.13 332.4 12.19 C 332.53 12.3 332.62 12.46 332.62 12.62 C 332.62 12.95 332.34 13.18 332.06 13.18 C 331.78 13.18 331.5 12.99 331.49 12.63 C 331.48 12.49 331.56 12.29 331.71 12.19 C 331.76 12.15 331.78 12.05 331.72 11.98 C 331.66 11.91 331.56 11.92 331.52 11.95 C 331.3 12.13 331.19 12.34 331.19 12.61 C 331.19 13.13 331.59 13.48 332.05 13.48 Z M 332.05 14.04 C 331.19 14.04 330.55 13.36 330.55 12.56 C 330.55 11.75 331.22 11.09 332.06 11.09 C 332.84 11.09 333.55 11.7 333.55 12.56 C 333.55 13.45 332.83 14.04 332.05 14.04 Z" fill="none" stroke="rgb(240, 240, 240)" stroke-width="0.1" stroke-miterlimit="10" pointer-events="all"/></g><g><rect x="377.8" y="15.52" width="15" height="5.91" fill="#222222" stroke="#aaaaaa" stroke-width="0.1" pointer-events="all"/></g><g><rect x="379.3" y="17" width="12" height="1.48" fill="#0050ef" stroke="none" pointer-events="all"/></g><g><rect x="361.84" y="15.52" width="15" height="5.91" fill="#222222" stroke="#aaaaaa" stroke-width="0.1" pointer-events="all"/></g><g><rect x="363.34" y="17" width="12" height="1.48" fill="#0050ef" stroke="none" pointer-events="all"/></g><g><rect x="280.8" y="37.34" width="146" height="42" fill="none" stroke="#000000" pointer-events="none"/></g><g><rect x="280.8" y="37.34" width="146" height="42" fill="#333333" stroke="none" pointer-events="all"/></g><g><rect x="282.3" y="70.84" width="7" height="7" fill="#222222" stroke="#333333" stroke-width="0.5" pointer-events="all"/></g><g><rect x="290.3" y="70.84" width="7" height="7" fill="#222222" stroke="#333333" stroke-width="0.5" pointer-events="all"/></g><g><rect x="298.3" y="70.84" width="7" height="7" fill="#222222" stroke="#333333" stroke-width="0.5" pointer-events="all"/></g><g><rect x="306.3" y="70.84" width="7" height="7" fill="#222222" stroke="#333333" stroke-width="0.5" pointer-events="all"/></g><g><rect x="314.3" y="70.84" width="7" height="7" fill="#333333" stroke="#222222" stroke-width="0.1" pointer-events="all"/></g><g><rect x="322.3" y="70.84" width="7" height="7" fill="#222222" stroke="#333333" stroke-width="0.5" pointer-events="all"/></g><g><rect x="330.3" y="70.84" width="7" height="7" fill="#222222" stroke="#333333" stroke-width="0.5" pointer-events="all"/></g><g><rect x="338.3" y="70.84" width="7" height="7" fill="#222222" stroke="#333333" stroke-width="0.5" pointer-events="all"/></g><g><rect x="346.3" y="70.84" width="7" height="7" fill="#333333" stroke="#222222" stroke-width="0.1" pointer-events="all"/></g><g><rect x="354.3" y="70.84" width="7" height="7" fill="#333333" stroke="#222222" stroke-width="0.1" pointer-events="all"/></g><g><rect x="362.3" y="70.84" width="7" height="7" fill="#222222" stroke="#333333" stroke-width="0.5" pointer-events="all"/></g><g><rect x="370.3" y="70.84" width="7" height="7" fill="#222222" stroke="#333333" stroke-width="0.5" pointer-events="all"/></g><g><rect x="378.3" y="70.84" width="7" height="7" fill="#222222" stroke="#333333" stroke-width="0.5" pointer-events="all"/></g><g><rect x="386.3" y="70.84" width="7" height="7" fill="#333333" stroke="#222222" stroke-width="0.1" pointer-events="all"/></g><g><rect x="394.3" y="70.84" width="7" height="7" fill="#222222" stroke="#333333" stroke-width="0.5" pointer-events="all"/></g><g><rect x="402.3" y="70.84" width="7" height="7" fill="#222222" stroke="#333333" stroke-width="0.5" pointer-events="all"/></g><g><rect x="410.3" y="70.84" width="7" height="7" fill="#222222" stroke="#333333" stroke-width="0.5" pointer-events="all"/></g><g><rect x="418.3" y="70.84" width="7" height="7" fill="#222222" stroke="#333333" stroke-width="0.5" pointer-events="all"/></g><g><rect x="282.3" y="62.84" width="7" height="7" fill="#222222" stroke="#333333" stroke-width="0.5" pointer-events="all"/></g><g><rect x="290.3" y="62.84" width="7" height="7" fill="#222222" stroke="#333333" stroke-width="0.5" pointer-events="all"/></g><g><rect x="298.3" y="62.84" width="7" height="7" fill="#222222" stroke="#333333" stroke-width="0.5" pointer-events="all"/></g><g><rect x="306.3" y="62.84" width="7" height="7" fill="#222222" stroke="#333333" stroke-width="0.5" pointer-events="all"/></g><g><rect x="314.3" y="62.84" width="7" height="7" fill="#222222" stroke="#333333" stroke-width="0.5" pointer-events="all"/></g><g><rect x="322.3" y="62.84" width="7" height="7" fill="#222222" stroke="#333333" stroke-width="0.5" pointer-events="all"/></g><g><rect x="330.3" y="62.84" width="7" height="7" fill="#222222" stroke="#333333" stroke-width="0.5" pointer-events="all"/></g><g><rect x="338.3" y="62.84" width="7" height="7" fill="#222222" stroke="#333333" stroke-width="0.5" pointer-events="all"/></g><g><rect x="346.3" y="62.84" width="7" height="7" fill="#222222" stroke="#333333" stroke-width="0.5" pointer-events="all"/></g><g><rect x="354.3" y="62.84" width="7" height="7" fill="#222222" stroke="#333333" stroke-width="0.5" pointer-events="all"/></g><g><rect x="362.3" y="62.84" width="7" height="7" fill="#222222" stroke="#333333" stroke-width="0.5" pointer-events="all"/></g><g><rect x="370.3" y="62.84" width="7" height="7" fill="#222222" stroke="#333333" stroke-width="0.5" pointer-events="all"/></g><g><rect x="378.3" y="62.84" width="7" height="7" fill="#222222" stroke="#333333" stroke-width="0.5" pointer-events="all"/></g><g><rect x="386.3" y="62.84" width="7" height="7" fill="#222222" stroke="#333333" stroke-width="0.5" pointer-events="all"/></g><g><rect x="394.3" y="62.84" width="7" height="7" fill="#222222" stroke="#333333" stroke-width="0.5" pointer-events="all"/></g><g><rect x="402.3" y="62.84" width="7" height="7" fill="#222222" stroke="#333333" stroke-width="0.5" pointer-events="all"/></g><g><rect x="410.3" y="62.84" width="7" height="7" fill="#222222" stroke="#333333" stroke-width="0.5" pointer-events="all"/></g><g><rect x="418.3" y="62.84" width="7" height="7" fill="#222222" stroke="#333333" stroke-width="0.5" pointer-events="all"/></g><g><rect x="282.3" y="54.84" width="7" height="7" fill="#222222" stroke="#333333" stroke-width="0.5" pointer-events="all"/></g><g><rect x="290.3" y="54.84" width="7" height="7" fill="#222222" stroke="#333333" stroke-width="0.5" pointer-events="all"/></g><g><rect x="298.3" y="54.84" width="7" height="7" fill="#222222" stroke="#333333" stroke-width="0.5" pointer-events="all"/></g><g><rect x="306.3" y="54.84" width="7" height="7" fill="#222222" stroke="#333333" stroke-width="0.5" pointer-events="all"/></g><g><rect x="314.3" y="54.84" width="7" height="7" fill="#222222" stroke="#333333" stroke-width="0.5" pointer-events="all"/></g><g><rect x="322.3" y="54.84" width="7" height="7" fill="#222222" stroke="#333333" stroke-width="0.5" pointer-events="all"/></g><g><rect x="330.3" y="54.84" width="7" height="7" fill="#222222" stroke="#333333" stroke-width="0.5" pointer-events="all"/></g><g><rect x="338.3" y="54.84" width="7" height="7" fill="#222222" stroke="#333333" stroke-width="0.5" pointer-events="all"/></g><g><rect x="346.3" y="54.84" width="7" height="7" fill="#222222" stroke="#333333" stroke-width="0.5" pointer-events="all"/></g><g><rect x="354.3" y="54.84" width="7" height="7" fill="#222222" stroke="#333333" stroke-width="0.5" pointer-events="all"/></g><g><rect x="362.3" y="54.84" width="7" height="7" fill="#222222" stroke="#333333" stroke-width="0.5" pointer-events="all"/></g><g><rect x="370.3" y="54.84" width="7" height="7" fill="#222222" stroke="#333333" stroke-width="0.5" pointer-events="all"/></g><g><rect x="378.3" y="54.84" width="7" height="7" fill="#222222" stroke="#333333" stroke-width="0.5" pointer-events="all"/></g><g><rect x="386.3" y="54.84" width="7" height="7" fill="#222222" stroke="#333333" stroke-width="0.5" pointer-events="all"/></g><g><rect x="394.3" y="54.84" width="7" height="7" fill="#222222" stroke="#333333" stroke-width="0.5" pointer-events="all"/></g><g><rect x="402.3" y="54.84" width="7" height="7" fill="#222222" stroke="#333333" stroke-width="0.5" pointer-events="all"/></g><g><rect x="410.3" y="54.84" width="7" height="7" fill="#222222" stroke="#333333" stroke-width="0.5" pointer-events="all"/></g><g><rect x="418.3" y="54.84" width="7" height="7" fill="#222222" stroke="#333333" stroke-width="0.5" pointer-events="all"/></g><g><rect x="282.3" y="46.84" width="7" height="7" fill="#222222" stroke="#333333" stroke-width="0.5" pointer-events="all"/></g><g><rect x="290.3" y="46.84" width="7" height="7" fill="#222222" stroke="#333333" stroke-width="0.5" pointer-events="all"/></g><g><rect x="298.3" y="46.84" width="7" height="7" fill="#222222" stroke="#333333" stroke-width="0.5" pointer-events="all"/></g><g><rect x="306.3" y="46.84" width="7" height="7" fill="#222222" stroke="#333333" stroke-width="0.5" pointer-events="all"/></g><g><rect x="314.3" y="46.84" width="7" height="7" fill="#222222" stroke="#333333" stroke-width="0.5" pointer-events="all"/></g><g><rect x="322.3" y="46.84" width="7" height="7" fill="#222222" stroke="#333333" stroke-width="0.5" pointer-events="all"/></g><g><rect x="330.3" y="46.84" width="7" height="7" fill="#222222" stroke="#333333" stroke-width="0.5" pointer-events="all"/></g><g><rect x="338.3" y="46.84" width="7" height="7" fill="#222222" stroke="#333333" stroke-width="0.5" pointer-events="all"/></g><g><rect x="346.3" y="46.84" width="7" height="7" fill="#222222" stroke="#333333" stroke-width="0.5" pointer-events="all"/></g><g><rect x="354.3" y="46.84" width="7" height="7" fill="#222222" stroke="#333333" stroke-width="0.5" pointer-events="all"/></g><g><rect x="362.3" y="46.84" width="7" height="7" fill="#222222" stroke="#333333" stroke-width="0.5" pointer-events="all"/></g><g><rect x="370.3" y="46.84" width="7" height="7" fill="#222222" stroke="#333333" stroke-width="0.5" pointer-events="all"/></g><g><rect x="378.3" y="46.84" width="7" height="7" fill="#222222" stroke="#333333" stroke-width="0.5" pointer-events="all"/></g><g><rect x="386.3" y="46.84" width="7" height="7" fill="#222222" stroke="#333333" stroke-width="0.5" pointer-events="all"/></g><g><rect x="394.3" y="46.84" width="7" height="7" fill="#222222" stroke="#333333" stroke-width="0.5" pointer-events="all"/></g><g><rect x="402.3" y="46.84" width="7" height="7" fill="#222222" stroke="#333333" stroke-width="0.5" pointer-events="all"/></g><g><rect x="410.3" y="46.84" width="7" height="7" fill="#222222" stroke="#333333" stroke-width="0.5" pointer-events="all"/></g><g><rect x="418.3" y="46.84" width="7" height="7" fill="#222222" stroke="#333333" stroke-width="0.5" pointer-events="all"/></g><g><rect x="282.3" y="38.84" width="7" height="7" fill="#222222" stroke="#333333" stroke-width="0.5" pointer-events="all"/></g><g><rect x="290.3" y="38.84" width="7" height="7" fill="#222222" stroke="#333333" stroke-width="0.5" pointer-events="all"/></g><g><rect x="298.3" y="38.84" width="7" height="7" fill="#222222" stroke="#333333" stroke-width="0.5" pointer-events="all"/></g><g><rect x="306.3" y="38.84" width="7" height="7" fill="#222222" stroke="#333333" stroke-width="0.5" pointer-events="all"/></g><g><rect x="314.3" y="38.84" width="7" height="7" fill="#333333" stroke="#222222" stroke-width="0.1" pointer-events="all"/></g><g><rect x="322.3" y="38.84" width="7" height="7" fill="#222222" stroke="#333333" stroke-width="0.5" pointer-events="all"/></g><g><rect x="330.3" y="38.84" width="7" height="7" fill="#222222" stroke="#333333" stroke-width="0.5" pointer-events="all"/></g><g><rect x="338.3" y="38.84" width="7" height="7" fill="#222222" stroke="#333333" stroke-width="0.5" pointer-events="all"/></g><g><rect x="346.3" y="38.84" width="7" height="7" fill="#333333" stroke="#222222" stroke-width="0.1" pointer-events="all"/></g><g><rect x="354.3" y="38.84" width="7" height="7" fill="#333333" stroke="#222222" stroke-width="0.1" pointer-events="all"/></g><g><rect x="362.3" y="38.84" width="7" height="7" fill="#222222" stroke="#333333" stroke-width="0.5" pointer-events="all"/></g><g><rect x="370.3" y="38.84" width="7" height="7" fill="#222222" stroke="#333333" stroke-width="0.5" pointer-events="all"/></g><g><rect x="378.3" y="38.84" width="7" height="7" fill="#222222" stroke="#333333" stroke-width="0.5" pointer-events="all"/></g><g><rect x="386.3" y="38.84" width="7" height="7" fill="#333333" stroke="#222222" stroke-width="0.1" pointer-events="all"/></g><g><rect x="394.3" y="38.84" width="7" height="7" fill="#222222" stroke="#333333" stroke-width="0.5" pointer-events="all"/></g><g><rect x="402.3" y="38.84" width="7" height="7" fill="#222222" stroke="#333333" stroke-width="0.5" pointer-events="all"/></g><g><rect x="410.3" y="38.84" width="7" height="7" fill="#222222" stroke="#333333" stroke-width="0.5" pointer-events="all"/></g><g><rect x="418.3" y="38.84" width="7" height="7" fill="#222222" stroke="#333333" stroke-width="0.5" pointer-events="all"/></g></g></svg>