<?xml version="1.0" encoding="UTF-8"?>
<!DOCTYPE svg PUBLIC "-//W3C//DTD SVG 1.1//EN" "http://www.w3.org/Graphics/SVG/1.1/DTD/svg11.dtd">
<svg xmlns="http://www.w3.org/2000/svg" xmlns:xlink="http://www.w3.org/1999/xlink" version="1.1" width="484px" height="90px" viewBox="-0.5 -0.5 484 90"><defs><style type="text/css">@import url("https://fonts.googleapis.com/css?family=Titillium+Web");</style><style type="text/css"/></defs><g><g/><g><rect x="0" y="0" width="482.6" height="88.9" fill="#bfbfbf" stroke="#aaaaaa" pointer-events="all"/></g><g><rect x="18" y="0" width="446.6" height="88.9" fill="#222222" stroke="#aaaaaa" pointer-events="all"/></g><g/><g/><g><rect x="7" y="66.9" width="4" height="6" fill="#000000" stroke="none" pointer-events="all"/></g><g><ellipse cx="11" cy="69.9" rx="3" ry="3" fill="#000000" stroke="none" pointer-events="all"/></g><g><ellipse cx="7" cy="69.9" rx="3" ry="3" fill="#000000" stroke="none" pointer-events="all"/></g><g/><g><rect x="7" y="16" width="4" height="6" fill="#000000" stroke="none" pointer-events="all"/></g><g><ellipse cx="11" cy="19" rx="3" ry="3" fill="#000000" stroke="none" pointer-events="all"/></g><g><ellipse cx="7" cy="19" rx="3" ry="3" fill="#000000" stroke="none" pointer-events="all"/></g><g><rect x="8" y="5.95" width="10" height="77" fill="#bfbfbf" stroke="#aaaaaa" pointer-events="all"/></g><g/><g><rect x="471.6" y="16" width="4" height="6" fill="#000000" stroke="none" pointer-events="all"/></g><g><ellipse cx="475.6" cy="19" rx="3" ry="3" fill="#000000" stroke="none" pointer-events="all"/></g><g><ellipse cx="471.6" cy="19" rx="3" ry="3" fill="#000000" stroke="none" pointer-events="all"/></g><g/><g><rect x="471.6" y="66.9" width="4" height="6" fill="#000000" stroke="none" pointer-events="all"/></g><g><ellipse cx="475.6" cy="69.9" rx="3" ry="3" fill="#000000" stroke="none" pointer-events="all"/></g><g><ellipse cx="471.6" cy="69.9" rx="3" ry="3" fill="#000000" stroke="none" pointer-events="all"/></g><g><rect x="464.6" y="5.95" width="10" height="77" fill="#bfbfbf" stroke="#aaaaaa" pointer-events="all"/></g><g/><g><rect x="19.83" y="2" width="109.95" height="26.18" fill="#333333" stroke="none" pointer-events="all"/></g><g><rect x="22.97" y="5.14" width="101.57" height="19.9" fill="#222222" stroke="#222222" stroke-width="0.5" pointer-events="all"/></g><g><rect x="125.07" y="23.47" width="4.19" height="3.14" rx="0.47" ry="0.47" fill="#60a917" stroke="#222222" stroke-width="0.1" transform="rotate(90,127.16,25.04)" pointer-events="all"/></g><g><rect x="125.07" y="14.04" width="4.19" height="3.14" rx="0.47" ry="0.47" fill="#0050ef" stroke="#222222" stroke-width="0.1" transform="rotate(90,127.16,15.61)" pointer-events="all"/></g><g><rect x="98.37" y="8.28" width="8.38" height="13.61" rx="1.26" ry="1.26" fill="#0050ef" stroke="none" pointer-events="all"/></g><g><path d="M 105.7 8.28 Q 108.84 8.28 108.84 15.09 Q 108.84 21.9 105.7 21.9 Z" fill="#0050ef" stroke="none" pointer-events="all"/></g><g><path d="M 127.16 10.87 C 127.25 10.87 127.32 10.8 127.32 10.71 L 127.32 10.08 C 127.32 10 127.26 9.93 127.17 9.93 C 127.08 9.93 127.01 10 127.01 10.07 L 127.01 10.71 C 127.01 10.8 127.08 10.87 127.16 10.87 Z M 127.16 11.88 C 127.66 11.88 128.07 11.48 128.07 10.98 C 128.07 10.73 127.98 10.45 127.71 10.25 C 127.66 10.21 127.55 10.23 127.51 10.29 C 127.46 10.35 127.46 10.44 127.53 10.51 C 127.67 10.62 127.76 10.79 127.76 10.96 C 127.76 11.31 127.47 11.56 127.17 11.56 C 126.88 11.56 126.59 11.35 126.57 10.97 C 126.57 10.82 126.65 10.61 126.81 10.5 C 126.86 10.46 126.88 10.36 126.82 10.28 C 126.75 10.21 126.66 10.22 126.61 10.25 C 126.38 10.44 126.27 10.66 126.26 10.95 C 126.26 11.5 126.68 11.88 127.16 11.88 Z M 127.16 12.47 C 126.27 12.47 125.59 11.75 125.59 10.89 C 125.59 10.04 126.3 9.33 127.18 9.33 C 127.99 9.33 128.73 9.99 128.73 10.89 C 128.73 11.84 127.98 12.47 127.16 12.47 Z" fill="none" stroke="#222222" stroke-width="0.1" stroke-miterlimit="10" pointer-events="all"/></g><g><path d="M 125.59 21.37 L 125.59 19.28 C 125.59 18.99 126.3 18.75 127.16 18.75 C 128.03 18.75 128.73 18.99 128.73 19.28 L 128.73 21.37 C 128.73 21.66 128.03 21.9 127.16 21.9 C 126.3 21.9 125.59 21.66 125.59 21.37 Z" fill="none" stroke="#222222" stroke-width="0.1" stroke-miterlimit="10" pointer-events="all"/><path d="M 125.59 19.28 C 125.59 19.57 126.3 19.8 127.16 19.8 C 128.03 19.8 128.73 19.57 128.73 19.28" fill="none" stroke="#222222" stroke-width="0.1" stroke-miterlimit="10" pointer-events="all"/></g><g><rect x="22.97" y="5.14" width="80.63" height="19.9" fill="#333333" stroke="none" pointer-events="all"/></g><g><rect x="88.94" y="7.76" width="4.19" height="14.66" fill="#2d2d2d" stroke="none" pointer-events="all"/></g><g><rect x="29.25" y="7.76" width="4.19" height="14.66" fill="#2d2d2d" stroke="none" pointer-events="all"/></g><g><rect x="33.44" y="7.76" width="55.5" height="2.09" fill="#222222" stroke="none" pointer-events="all"/></g><g><rect x="33.44" y="11.95" width="55.5" height="2.09" fill="#222222" stroke="none" pointer-events="all"/></g><g><rect x="33.44" y="16.14" width="55.5" height="2.09" fill="#222222" stroke="none" pointer-events="all"/></g><g><rect x="33.44" y="20.33" width="55.5" height="2.09" fill="#222222" stroke="none" pointer-events="all"/></g><g><rect x="50.2" y="7.76" width="2.09" height="14.66" fill="#2d2d2d" stroke="none" pointer-events="all"/></g><g><rect x="70.09" y="7.76" width="2.09" height="14.66" fill="#2d2d2d" stroke="none" pointer-events="all"/></g><g><rect x="33.44" y="18.23" width="55.5" height="2.09" fill="#333333" stroke="none" pointer-events="all"/></g><g><rect x="33.44" y="14.04" width="55.5" height="2.09" fill="#333333" stroke="none" pointer-events="all"/></g><g><rect x="33.44" y="9.85" width="55.5" height="2.09" fill="#333333" stroke="none" pointer-events="all"/></g><g><rect x="130.83" y="2" width="109.95" height="26.18" fill="#333333" stroke="none" pointer-events="all"/></g><g><rect x="133.97" y="5.14" width="101.57" height="19.9" fill="#222222" stroke="#222222" stroke-width="0.5" pointer-events="all"/></g><g><rect x="236.07" y="23.47" width="4.19" height="3.14" rx="0.47" ry="0.47" fill="#60a917" stroke="#222222" stroke-width="0.1" transform="rotate(90,238.16,25.04)" pointer-events="all"/></g><g><rect x="236.07" y="14.04" width="4.19" height="3.14" rx="0.47" ry="0.47" fill="#0050ef" stroke="#222222" stroke-width="0.1" transform="rotate(90,238.16,15.61)" pointer-events="all"/></g><g><rect x="209.37" y="8.28" width="8.38" height="13.61" rx="1.26" ry="1.26" fill="#0050ef" stroke="none" pointer-events="all"/></g><g><path d="M 216.7 8.28 Q 219.84 8.28 219.84 15.09 Q 219.84 21.9 216.7 21.9 Z" fill="#0050ef" stroke="none" pointer-events="all"/></g><g><path d="M 238.16 10.87 C 238.25 10.87 238.32 10.8 238.32 10.71 L 238.32 10.08 C 238.32 10 238.26 9.93 238.17 9.93 C 238.07 9.93 238.01 10 238.01 10.07 L 238.01 10.71 C 238.01 10.8 238.08 10.87 238.16 10.87 Z M 238.16 11.88 C 238.66 11.88 239.07 11.48 239.07 10.98 C 239.07 10.73 238.98 10.45 238.71 10.25 C 238.66 10.21 238.55 10.23 238.51 10.29 C 238.46 10.35 238.46 10.44 238.53 10.51 C 238.67 10.62 238.76 10.79 238.76 10.96 C 238.76 11.31 238.46 11.56 238.17 11.56 C 237.88 11.56 237.59 11.35 237.57 10.97 C 237.57 10.82 237.65 10.61 237.81 10.5 C 237.86 10.46 237.88 10.36 237.81 10.28 C 237.75 10.21 237.65 10.22 237.61 10.25 C 237.38 10.44 237.27 10.66 237.26 10.95 C 237.26 11.5 237.68 11.88 238.16 11.88 Z M 238.16 12.47 C 237.27 12.47 236.59 11.75 236.59 10.89 C 236.59 10.04 237.3 9.33 238.18 9.33 C 238.99 9.33 239.73 9.99 239.73 10.89 C 239.73 11.84 238.98 12.47 238.16 12.47 Z" fill="none" stroke="#222222" stroke-width="0.1" stroke-miterlimit="10" pointer-events="all"/></g><g><path d="M 236.59 21.37 L 236.59 19.28 C 236.59 18.99 237.3 18.75 238.16 18.75 C 239.03 18.75 239.73 18.99 239.73 19.28 L 239.73 21.37 C 239.73 21.66 239.03 21.9 238.16 21.9 C 237.3 21.9 236.59 21.66 236.59 21.37 Z" fill="none" stroke="#222222" stroke-width="0.1" stroke-miterlimit="10" pointer-events="all"/><path d="M 236.59 19.28 C 236.59 19.57 237.3 19.8 238.16 19.8 C 239.03 19.8 239.73 19.57 239.73 19.28" fill="none" stroke="#222222" stroke-width="0.1" stroke-miterlimit="10" pointer-events="all"/></g><g><rect x="133.97" y="5.14" width="80.63" height="19.9" fill="#333333" stroke="none" pointer-events="all"/></g><g><rect x="199.94" y="7.76" width="4.19" height="14.66" fill="#2d2d2d" stroke="none" pointer-events="all"/></g><g><rect x="140.25" y="7.76" width="4.19" height="14.66" fill="#2d2d2d" stroke="none" pointer-events="all"/></g><g><rect x="144.44" y="7.76" width="55.5" height="2.09" fill="#222222" stroke="none" pointer-events="all"/></g><g><rect x="144.44" y="11.95" width="55.5" height="2.09" fill="#222222" stroke="none" pointer-events="all"/></g><g><rect x="144.44" y="16.14" width="55.5" height="2.09" fill="#222222" stroke="none" pointer-events="all"/></g><g><rect x="144.44" y="20.33" width="55.5" height="2.09" fill="#222222" stroke="none" pointer-events="all"/></g><g><rect x="161.2" y="7.76" width="2.09" height="14.66" fill="#2d2d2d" stroke="none" pointer-events="all"/></g><g><rect x="181.09" y="7.76" width="2.09" height="14.66" fill="#2d2d2d" stroke="none" pointer-events="all"/></g><g><rect x="144.44" y="18.23" width="55.5" height="2.09" fill="#333333" stroke="none" pointer-events="all"/></g><g><rect x="144.44" y="14.04" width="55.5" height="2.09" fill="#333333" stroke="none" pointer-events="all"/></g><g><rect x="144.44" y="9.85" width="55.5" height="2.09" fill="#333333" stroke="none" pointer-events="all"/></g><g><rect x="241.83" y="2" width="109.95" height="26.18" fill="#333333" stroke="none" pointer-events="all"/></g><g><rect x="244.97" y="5.14" width="101.57" height="19.9" fill="#222222" stroke="#222222" stroke-width="0.5" pointer-events="all"/></g><g><rect x="347.07" y="23.47" width="4.19" height="3.14" rx="0.47" ry="0.47" fill="#60a917" stroke="#222222" stroke-width="0.1" transform="rotate(90,349.16,25.04)" pointer-events="all"/></g><g><rect x="347.07" y="14.04" width="4.19" height="3.14" rx="0.47" ry="0.47" fill="#0050ef" stroke="#222222" stroke-width="0.1" transform="rotate(90,349.16,15.61)" pointer-events="all"/></g><g><rect x="320.37" y="8.28" width="8.38" height="13.61" rx="1.26" ry="1.26" fill="#0050ef" stroke="none" pointer-events="all"/></g><g><path d="M 327.7 8.28 Q 330.84 8.28 330.84 15.09 Q 330.84 21.9 327.7 21.9 Z" fill="#0050ef" stroke="none" pointer-events="all"/></g><g><path d="M 349.16 10.87 C 349.25 10.87 349.32 10.8 349.32 10.71 L 349.32 10.08 C 349.32 10 349.26 9.93 349.17 9.93 C 349.07 9.93 349.01 10 349.01 10.07 L 349.01 10.71 C 349.01 10.8 349.08 10.87 349.16 10.87 Z M 349.16 11.88 C 349.66 11.88 350.07 11.48 350.07 10.98 C 350.07 10.73 349.98 10.45 349.71 10.25 C 349.66 10.21 349.55 10.23 349.51 10.29 C 349.46 10.35 349.46 10.44 349.53 10.51 C 349.67 10.62 349.76 10.79 349.76 10.96 C 349.76 11.31 349.46 11.56 349.17 11.56 C 348.88 11.56 348.59 11.35 348.57 10.97 C 348.57 10.82 348.65 10.61 348.8 10.5 C 348.86 10.46 348.88 10.36 348.81 10.28 C 348.75 10.21 348.65 10.22 348.61 10.25 C 348.38 10.44 348.27 10.66 348.26 10.95 C 348.26 11.5 348.68 11.88 349.16 11.88 Z M 349.16 12.47 C 348.27 12.47 347.59 11.75 347.59 10.89 C 347.59 10.04 348.29 9.33 349.18 9.33 C 349.99 9.33 350.73 9.99 350.73 10.89 C 350.73 11.84 349.98 12.47 349.16 12.47 Z" fill="none" stroke="#222222" stroke-width="0.1" stroke-miterlimit="10" pointer-events="all"/></g><g><path d="M 347.59 21.37 L 347.59 19.28 C 347.59 18.99 348.3 18.75 349.16 18.75 C 350.03 18.75 350.73 18.99 350.73 19.28 L 350.73 21.37 C 350.73 21.66 350.03 21.9 349.16 21.9 C 348.3 21.9 347.59 21.66 347.59 21.37 Z" fill="none" stroke="#222222" stroke-width="0.1" stroke-miterlimit="10" pointer-events="all"/><path d="M 347.59 19.28 C 347.59 19.57 348.3 19.8 349.16 19.8 C 350.03 19.8 350.73 19.57 350.73 19.28" fill="none" stroke="#222222" stroke-width="0.1" stroke-miterlimit="10" pointer-events="all"/></g><g><rect x="244.97" y="5.14" width="80.63" height="19.9" fill="#333333" stroke="none" pointer-events="all"/></g><g><rect x="310.94" y="7.76" width="4.19" height="14.66" fill="#2d2d2d" stroke="none" pointer-events="all"/></g><g><rect x="251.25" y="7.76" width="4.19" height="14.66" fill="#2d2d2d" stroke="none" pointer-events="all"/></g><g><rect x="255.44" y="7.76" width="55.5" height="2.09" fill="#222222" stroke="none" pointer-events="all"/></g><g><rect x="255.44" y="11.95" width="55.5" height="2.09" fill="#222222" stroke="none" pointer-events="all"/></g><g><rect x="255.44" y="16.14" width="55.5" height="2.09" fill="#222222" stroke="none" pointer-events="all"/></g><g><rect x="255.44" y="20.33" width="55.5" height="2.09" fill="#222222" stroke="none" pointer-events="all"/></g><g><rect x="272.2" y="7.76" width="2.09" height="14.66" fill="#2d2d2d" stroke="none" pointer-events="all"/></g><g><rect x="292.09" y="7.76" width="2.09" height="14.66" fill="#2d2d2d" stroke="none" pointer-events="all"/></g><g><rect x="255.44" y="18.23" width="55.5" height="2.09" fill="#333333" stroke="none" pointer-events="all"/></g><g><rect x="255.44" y="14.04" width="55.5" height="2.09" fill="#333333" stroke="none" pointer-events="all"/></g><g><rect x="255.44" y="9.85" width="55.5" height="2.09" fill="#333333" stroke="none" pointer-events="all"/></g><g><rect x="352.83" y="2" width="109.95" height="26.18" fill="#333333" stroke="none" pointer-events="all"/></g><g><rect x="355.97" y="5.14" width="101.57" height="19.9" fill="#222222" stroke="#222222" stroke-width="0.5" pointer-events="all"/></g><g><rect x="458.07" y="23.47" width="4.19" height="3.14" rx="0.47" ry="0.47" fill="#60a917" stroke="#222222" stroke-width="0.1" transform="rotate(90,460.16,25.04)" pointer-events="all"/></g><g><rect x="458.07" y="14.04" width="4.19" height="3.14" rx="0.47" ry="0.47" fill="#0050ef" stroke="#222222" stroke-width="0.1" transform="rotate(90,460.16,15.61)" pointer-events="all"/></g><g><rect x="431.37" y="8.28" width="8.38" height="13.61" rx="1.26" ry="1.26" fill="#0050ef" stroke="none" pointer-events="all"/></g><g><path d="M 438.7 8.28 Q 441.84 8.28 441.84 15.09 Q 441.84 21.9 438.7 21.9 Z" fill="#0050ef" stroke="none" pointer-events="all"/></g><g><path d="M 460.16 10.87 C 460.25 10.87 460.32 10.8 460.32 10.71 L 460.32 10.08 C 460.32 10 460.26 9.93 460.17 9.93 C 460.07 9.93 460.01 10 460.01 10.07 L 460.01 10.71 C 460.01 10.8 460.08 10.87 460.16 10.87 Z M 460.16 11.88 C 460.66 11.88 461.07 11.48 461.07 10.98 C 461.07 10.73 460.98 10.45 460.7 10.25 C 460.65 10.21 460.55 10.23 460.51 10.29 C 460.46 10.35 460.46 10.44 460.53 10.51 C 460.67 10.62 460.76 10.79 460.76 10.96 C 460.76 11.31 460.46 11.56 460.17 11.56 C 459.88 11.56 459.59 11.35 459.57 10.97 C 459.57 10.82 459.65 10.61 459.8 10.5 C 459.86 10.46 459.88 10.36 459.81 10.28 C 459.75 10.21 459.65 10.22 459.61 10.25 C 459.38 10.44 459.27 10.66 459.26 10.95 C 459.26 11.5 459.68 11.88 460.16 11.88 Z M 460.16 12.47 C 459.27 12.47 458.59 11.75 458.59 10.89 C 458.59 10.04 459.29 9.33 460.18 9.33 C 460.99 9.33 461.73 9.99 461.73 10.89 C 461.73 11.84 460.98 12.47 460.16 12.47 Z" fill="none" stroke="#222222" stroke-width="0.1" stroke-miterlimit="10" pointer-events="all"/></g><g><path d="M 458.59 21.37 L 458.59 19.28 C 458.59 18.99 459.29 18.75 460.16 18.75 C 461.03 18.75 461.73 18.99 461.73 19.28 L 461.73 21.37 C 461.73 21.66 461.03 21.9 460.16 21.9 C 459.29 21.9 458.59 21.66 458.59 21.37 Z" fill="none" stroke="#222222" stroke-width="0.1" stroke-miterlimit="10" pointer-events="all"/><path d="M 458.59 19.28 C 458.59 19.57 459.29 19.8 460.16 19.8 C 461.03 19.8 461.73 19.57 461.73 19.28" fill="none" stroke="#222222" stroke-width="0.1" stroke-miterlimit="10" pointer-events="all"/></g><g><rect x="355.97" y="5.14" width="80.63" height="19.9" fill="#333333" stroke="none" pointer-events="all"/></g><g><rect x="421.94" y="7.76" width="4.19" height="14.66" fill="#2d2d2d" stroke="none" pointer-events="all"/></g><g><rect x="362.25" y="7.76" width="4.19" height="14.66" fill="#2d2d2d" stroke="none" pointer-events="all"/></g><g><rect x="366.44" y="7.76" width="55.5" height="2.09" fill="#222222" stroke="none" pointer-events="all"/></g><g><rect x="366.44" y="11.95" width="55.5" height="2.09" fill="#222222" stroke="none" pointer-events="all"/></g><g><rect x="366.44" y="16.14" width="55.5" height="2.09" fill="#222222" stroke="none" pointer-events="all"/></g><g><rect x="366.44" y="20.33" width="55.5" height="2.09" fill="#222222" stroke="none" pointer-events="all"/></g><g><rect x="383.2" y="7.76" width="2.09" height="14.66" fill="#2d2d2d" stroke="none" pointer-events="all"/></g><g><rect x="403.09" y="7.76" width="2.09" height="14.66" fill="#2d2d2d" stroke="none" pointer-events="all"/></g><g><rect x="366.44" y="18.23" width="55.5" height="2.09" fill="#333333" stroke="none" pointer-events="all"/></g><g><rect x="366.44" y="14.04" width="55.5" height="2.09" fill="#333333" stroke="none" pointer-events="all"/></g><g><rect x="366.44" y="9.85" width="55.5" height="2.09" fill="#333333" stroke="none" pointer-events="all"/></g><g><rect x="18" y="30" width="446.6" height="58.82" fill="#222222" stroke="#aaaaaa" pointer-events="all"/></g><g style="filter: drop-shadow(rgba(0, 0, 0, 0.25) 2px 3px 2px);"><rect x="38" y="43.41" width="406.6" height="27" rx="4.05" ry="4.05" fill="#222222" stroke="#1c1c1c" pointer-events="all"/></g><g/><g><rect x="199.3" y="71.77" width="84" height="16" fill="#333333" stroke="#000000" stroke-width="0.2" pointer-events="all"/></g><g><rect x="200.8" y="73.12" width="81" height="13.3" fill="#333333" stroke="#001dbc" stroke-width="0.2" pointer-events="all"/></g><g><ellipse cx="219.55" cy="82.73" rx="2.25" ry="2.217391304347826" fill="#60a917" stroke="none" pointer-events="all"/></g><g><ellipse cx="224.8" cy="82.73" rx="2.25" ry="2.217391304347826" fill="#0050ef" stroke="none" pointer-events="all"/></g><g><ellipse cx="230.05" cy="82.73" rx="2.25" ry="2.217391304347826" fill="#0050ef" stroke="none" pointer-events="all"/></g><g><ellipse cx="235.3" cy="82.73" rx="2.25" ry="2.217391304347826" fill="#0050ef" stroke="none" pointer-events="all"/></g><g><ellipse cx="245.8" cy="82.73" rx="2.25" ry="2.217391304347826" fill="#a20025" stroke="none" pointer-events="all"/></g><g><ellipse cx="240.55" cy="82.73" rx="2.25" ry="2.217391304347826" fill="#0050ef" stroke="none" pointer-events="all"/></g><g><ellipse cx="212.8" cy="81.99" rx="3" ry="2.9565217391304346" fill="#0050ef" stroke="none" pointer-events="all"/></g><g><ellipse cx="205.3" cy="81.99" rx="3" ry="2.9565217391304346" fill="#0050ef" stroke="none" pointer-events="all"/></g><g><rect x="253.6" y="74.6" width="6.51" height="2.96" fill="none" stroke="none" pointer-events="all"/><path d="M 254.73 76.22 C 254.65 76.49 254.38 76.66 254.1 76.62 C 253.81 76.58 253.6 76.34 253.6 76.06 C 253.6 75.78 253.81 75.54 254.1 75.51 C 254.38 75.47 254.65 75.64 254.73 75.91 L 255.41 75.91 C 255.49 75.88 255.56 75.82 255.59 75.74 L 255.8 75.36 C 255.92 75.18 256.11 75.06 256.33 75.03 C 256.51 75 256.69 74.99 256.87 74.99 C 256.95 74.75 257.2 74.6 257.45 74.63 C 257.71 74.67 257.9 74.89 257.9 75.14 C 257.9 75.39 257.71 75.61 257.45 75.64 C 257.2 75.68 256.95 75.53 256.87 75.29 C 256.68 75.28 256.48 75.3 256.29 75.35 C 256.21 75.38 256.13 75.43 256.07 75.5 L 255.94 75.76 L 255.86 75.92 L 258.96 75.92 L 258.96 75.4 L 260.11 76.11 L 258.96 76.73 L 258.96 76.21 L 256.58 76.21 C 256.63 76.28 256.67 76.36 256.7 76.45 L 256.83 76.78 C 256.87 76.84 256.91 76.88 256.97 76.91 C 257.05 76.93 257.13 76.94 257.21 76.94 L 257.49 76.94 L 257.49 76.63 L 258.42 76.63 L 258.42 77.55 L 257.49 77.55 L 257.49 77.25 C 257.3 77.27 257.11 77.26 256.93 77.21 C 256.79 77.17 256.68 77.09 256.59 76.98 L 256.49 76.75 L 256.35 76.42 C 256.31 76.3 256.19 76.22 256.06 76.21 Z" fill="#ffffff" stroke="none" pointer-events="all"/></g><g><rect x="269.56" y="74.6" width="6.51" height="2.96" fill="none" stroke="none" pointer-events="all"/><path d="M 270.69 76.22 C 270.61 76.49 270.34 76.66 270.06 76.62 C 269.77 76.58 269.56 76.34 269.56 76.06 C 269.56 75.78 269.77 75.54 270.06 75.51 C 270.34 75.47 270.61 75.64 270.69 75.91 L 271.37 75.91 C 271.45 75.88 271.52 75.82 271.55 75.74 L 271.76 75.36 C 271.88 75.18 272.07 75.06 272.29 75.03 C 272.47 75 272.65 74.99 272.83 74.99 C 272.91 74.75 273.16 74.6 273.41 74.63 C 273.67 74.67 273.86 74.89 273.86 75.14 C 273.86 75.39 273.67 75.61 273.41 75.64 C 273.16 75.68 272.91 75.53 272.83 75.29 C 272.64 75.28 272.44 75.3 272.25 75.35 C 272.17 75.38 272.09 75.43 272.03 75.5 L 271.9 75.76 L 271.82 75.92 L 274.92 75.92 L 274.92 75.4 L 276.07 76.11 L 274.92 76.73 L 274.92 76.21 L 272.54 76.21 C 272.59 76.28 272.63 76.36 272.66 76.45 L 272.79 76.78 C 272.83 76.84 272.87 76.88 272.93 76.91 C 273.01 76.93 273.09 76.94 273.17 76.94 L 273.45 76.94 L 273.45 76.63 L 274.38 76.63 L 274.38 77.55 L 273.45 77.55 L 273.45 77.25 C 273.26 77.27 273.07 77.26 272.89 77.21 C 272.75 77.17 272.64 77.09 272.55 76.98 L 272.45 76.75 L 272.31 76.42 C 272.27 76.3 272.15 76.22 272.02 76.21 Z" fill="#ffffff" stroke="none" pointer-events="all"/></g><g><path d="M 205.29 76.04 C 205.38 76.04 205.45 75.98 205.45 75.9 L 205.45 75.31 C 205.45 75.23 205.39 75.16 205.3 75.16 C 205.21 75.16 205.15 75.23 205.15 75.29 L 205.15 75.9 C 205.15 75.98 205.22 76.04 205.29 76.04 Z M 205.3 76.99 C 205.77 76.99 206.17 76.61 206.17 76.15 C 206.17 75.91 206.08 75.65 205.82 75.46 C 205.77 75.42 205.67 75.44 205.63 75.5 C 205.59 75.56 205.58 75.64 205.65 75.7 C 205.78 75.81 205.87 75.97 205.87 76.13 C 205.87 76.46 205.59 76.69 205.31 76.69 C 205.03 76.69 204.75 76.5 204.74 76.14 C 204.73 76 204.81 75.8 204.96 75.7 C 205.01 75.66 205.03 75.56 204.97 75.49 C 204.91 75.42 204.81 75.43 204.77 75.46 C 204.55 75.64 204.44 75.85 204.44 76.12 C 204.44 76.64 204.84 76.99 205.3 76.99 Z M 205.3 77.55 C 204.44 77.55 203.8 76.87 203.8 76.07 C 203.8 75.26 204.47 74.6 205.31 74.6 C 206.09 74.6 206.8 75.21 206.8 76.07 C 206.8 76.96 206.08 77.55 205.3 77.55 Z" fill="#ffffff" stroke="none" pointer-events="all"/></g><g><path d="M 212.33 77.55 L 212.33 77.06 C 211.69 76.86 211.3 76.26 211.42 75.65 C 211.53 75.04 212.12 74.6 212.8 74.6 C 213.48 74.6 214.07 75.04 214.18 75.65 C 214.3 76.26 213.91 76.86 213.27 77.06 L 213.27 77.55" fill="none" stroke="rgb(240, 240, 240)" stroke-width="0.1" stroke-miterlimit="10" transform="rotate(-180,212.8,76.07)" pointer-events="all"/></g><g><path d="M 223.3 77.06 L 223.3 75.09 C 223.3 74.82 223.97 74.6 224.8 74.6 C 225.63 74.6 226.3 74.82 226.3 75.09 L 226.3 77.06 C 226.3 77.33 225.63 77.55 224.8 77.55 C 223.97 77.55 223.3 77.33 223.3 77.06 Z" fill="none" stroke="rgb(240, 240, 240)" stroke-width="0.1" stroke-miterlimit="10" pointer-events="all"/><path d="M 223.3 75.09 C 223.3 75.36 223.97 75.58 224.8 75.58 C 225.63 75.58 226.3 75.36 226.3 75.09" fill="none" stroke="rgb(240, 240, 240)" stroke-width="0.1" stroke-miterlimit="10" pointer-events="all"/></g><g><rect x="228.55" y="74.6" width="3" height="2.96" fill="none" stroke="none" pointer-events="all"/><path d="M 229.74 74.6 L 229.74 75.22 L 229.99 75.22 L 229.99 75.8 L 228.84 75.8 C 228.83 75.8 228.82 75.81 228.8 75.82 C 228.79 75.83 228.79 75.84 228.79 75.86 L 228.79 76.93 L 228.55 76.93 L 228.55 77.55 L 229.17 77.55 L 229.17 76.93 L 228.9 76.93 L 228.9 75.91 L 229.99 75.91 L 229.99 76.68 L 229.74 76.68 L 229.74 77.3 L 230.35 77.3 L 230.35 76.68 L 230.1 76.68 L 230.1 75.92 L 231.19 75.92 L 231.19 76.93 L 230.93 76.93 L 230.93 77.55 L 231.55 77.55 L 231.55 76.93 L 231.3 76.93 L 231.3 75.86 C 231.3 75.85 231.3 75.83 231.29 75.82 C 231.28 75.81 231.26 75.8 231.25 75.8 L 230.1 75.8 L 230.1 75.22 L 230.35 75.22 L 230.35 74.6 Z" fill="#ffffff" stroke="none" pointer-events="all"/></g><g><rect x="233.8" y="74.6" width="3" height="2.96" fill="none" stroke="none" pointer-events="all"/><path d="M 234.99 74.6 L 234.99 75.22 L 235.24 75.22 L 235.24 75.8 L 234.09 75.8 C 234.08 75.8 234.07 75.81 234.05 75.82 C 234.04 75.83 234.04 75.84 234.04 75.86 L 234.04 76.93 L 233.8 76.93 L 233.8 77.55 L 234.42 77.55 L 234.42 76.93 L 234.15 76.93 L 234.15 75.91 L 235.24 75.91 L 235.24 76.68 L 234.99 76.68 L 234.99 77.3 L 235.6 77.3 L 235.6 76.68 L 235.35 76.68 L 235.35 75.92 L 236.44 75.92 L 236.44 76.93 L 236.18 76.93 L 236.18 77.55 L 236.8 77.55 L 236.8 76.93 L 236.55 76.93 L 236.55 75.86 C 236.55 75.85 236.55 75.83 236.54 75.82 C 236.53 75.81 236.51 75.8 236.5 75.8 L 235.35 75.8 L 235.35 75.22 L 235.6 75.22 L 235.6 74.6 Z" fill="#ffffff" stroke="none" pointer-events="all"/></g><g><rect x="239.05" y="74.6" width="3" height="2.96" fill="none" stroke="none" pointer-events="all"/><path d="M 240.24 74.6 L 240.24 75.22 L 240.49 75.22 L 240.49 75.8 L 239.34 75.8 C 239.33 75.8 239.32 75.81 239.3 75.82 C 239.29 75.83 239.29 75.84 239.29 75.86 L 239.29 76.93 L 239.05 76.93 L 239.05 77.55 L 239.67 77.55 L 239.67 76.93 L 239.4 76.93 L 239.4 75.91 L 240.49 75.91 L 240.49 76.68 L 240.24 76.68 L 240.24 77.3 L 240.85 77.3 L 240.85 76.68 L 240.6 76.68 L 240.6 75.92 L 241.69 75.92 L 241.69 76.93 L 241.43 76.93 L 241.43 77.55 L 242.05 77.55 L 242.05 76.93 L 241.8 76.93 L 241.8 75.86 C 241.8 75.85 241.8 75.83 241.79 75.82 C 241.78 75.81 241.76 75.8 241.75 75.8 L 240.6 75.8 L 240.6 75.22 L 240.85 75.22 L 240.85 74.6 Z" fill="#ffffff" stroke="none" pointer-events="all"/></g><g><path d="M 244.3 74.6 L 247.3 76.07 L 244.3 77.55 Z" fill="none" stroke="rgb(240, 240, 240)" stroke-width="0.1" stroke-miterlimit="10" transform="rotate(-90,245.8,76.07)" pointer-events="all"/></g><g><path d="M 219.54 76.04 C 219.63 76.04 219.7 75.98 219.7 75.9 L 219.7 75.31 C 219.7 75.23 219.64 75.16 219.55 75.16 C 219.46 75.16 219.4 75.23 219.4 75.29 L 219.4 75.9 C 219.4 75.98 219.47 76.04 219.54 76.04 Z M 219.55 76.99 C 220.02 76.99 220.42 76.61 220.42 76.15 C 220.42 75.91 220.33 75.65 220.07 75.46 C 220.02 75.42 219.92 75.44 219.88 75.5 C 219.84 75.56 219.83 75.64 219.9 75.7 C 220.03 75.81 220.12 75.97 220.12 76.13 C 220.12 76.46 219.84 76.69 219.56 76.69 C 219.28 76.69 219 76.5 218.99 76.14 C 218.98 76 219.06 75.8 219.21 75.7 C 219.26 75.66 219.28 75.56 219.22 75.49 C 219.16 75.42 219.06 75.43 219.02 75.46 C 218.8 75.64 218.69 75.85 218.69 76.12 C 218.69 76.64 219.09 76.99 219.55 76.99 Z M 219.55 77.55 C 218.69 77.55 218.05 76.87 218.05 76.07 C 218.05 75.26 218.72 74.6 219.56 74.6 C 220.34 74.6 221.05 75.21 221.05 76.07 C 221.05 76.96 220.33 77.55 219.55 77.55 Z" fill="none" stroke="rgb(240, 240, 240)" stroke-width="0.1" stroke-miterlimit="10" pointer-events="all"/></g><g><rect x="265.3" y="79.03" width="15" height="5.91" fill="#222222" stroke="#aaaaaa" stroke-width="0.1" pointer-events="all"/></g><g><rect x="266.8" y="80.51" width="12" height="1.48" fill="#0050ef" stroke="none" pointer-events="all"/></g><g><rect x="249.34" y="79.03" width="15" height="5.91" fill="#222222" stroke="#aaaaaa" stroke-width="0.1" pointer-events="all"/></g><g><rect x="250.84" y="80.51" width="12" height="1.48" fill="#0050ef" stroke="none" pointer-events="all"/></g></g></svg>