<?xml version="1.0" encoding="UTF-8"?>
<!DOCTYPE svg PUBLIC "-//W3C//DTD SVG 1.1//EN" "http://www.w3.org/Graphics/SVG/1.1/DTD/svg11.dtd">
<svg xmlns="http://www.w3.org/2000/svg" xmlns:xlink="http://www.w3.org/1999/xlink" version="1.1" width="4836px" height="900px" viewBox="-0.5 -0.5 4836 900"><defs/><g><g/><g><rect x="0" y="0" width="4826" height="889" fill="#bfbfbf" stroke="#aaaaaa" stroke-width="10" pointer-events="all"/></g><g><rect x="180" y="0" width="4466" height="889" fill="#222222" stroke="#aaaaaa" stroke-width="10" pointer-events="all"/></g><g/><g/><g><rect x="70.04" y="669.5" width="40" height="60" fill="#000000" stroke="none" pointer-events="all"/></g><g><ellipse cx="110.04" cy="699.5" rx="30" ry="30" fill="#000000" stroke="none" pointer-events="all"/></g><g><ellipse cx="70.04" cy="699.5" rx="30" ry="30" fill="#000000" stroke="none" pointer-events="all"/></g><g/><g><rect x="70" y="160.5" width="40" height="60" fill="#000000" stroke="none" pointer-events="all"/></g><g><ellipse cx="110" cy="190.5" rx="30" ry="30" fill="#000000" stroke="none" pointer-events="all"/></g><g><ellipse cx="70" cy="190.5" rx="30" ry="30" fill="#000000" stroke="none" pointer-events="all"/></g><g><rect x="80" y="60" width="100" height="770" fill="#bfbfbf" stroke="#aaaaaa" stroke-width="10" pointer-events="all"/></g><g/><g/><g><rect x="4715.96" y="669.5" width="40" height="60" fill="#000000" stroke="none" pointer-events="all"/></g><g><ellipse cx="4755.96" cy="699.5" rx="30" ry="30" fill="#000000" stroke="none" pointer-events="all"/></g><g><ellipse cx="4715.96" cy="699.5" rx="30" ry="30" fill="#000000" stroke="none" pointer-events="all"/></g><g/><g><rect x="4716" y="160.5" width="40" height="60" fill="#000000" stroke="none" pointer-events="all"/></g><g><ellipse cx="4756" cy="190.5" rx="30" ry="30" fill="#000000" stroke="none" pointer-events="all"/></g><g><ellipse cx="4716" cy="190.5" rx="30" ry="30" fill="#000000" stroke="none" pointer-events="all"/></g><g><rect x="4646" y="60" width="100" height="770" fill="#bfbfbf" stroke="#aaaaaa" stroke-width="10" pointer-events="all"/></g><g><rect x="198.3" y="610.11" width="1099.52" height="261.79" fill="#333333" stroke="none" pointer-events="all"/></g><g><rect x="229.71" y="641.52" width="1015.75" height="198.96" fill="#222222" stroke="#222222" stroke-width="5" pointer-events="all"/></g><g><rect x="1250.7" y="824.78" width="41.89" height="31.41" rx="4.71" ry="4.71" fill="#60a917" stroke="#222222" transform="rotate(90,1271.64,840.48)" pointer-events="all"/></g><g><rect x="1250.7" y="730.53" width="41.89" height="31.41" rx="4.71" ry="4.71" fill="#0050ef" stroke="#222222" transform="rotate(90,1271.64,746.24)" pointer-events="all"/></g><g><rect x="983.67" y="672.94" width="83.77" height="136.13" rx="12.57" ry="12.57" fill="#0050ef" stroke="none" pointer-events="all"/></g><g><path d="M 1056.97 672.94 Q 1088.39 672.94 1088.39 741 Q 1088.39 809.07 1056.97 809.07 Z" fill="#0050ef" stroke="none" pointer-events="all"/></g><g><path d="M 1271.58 698.77 C 1272.51 698.77 1273.18 698.11 1273.18 697.24 L 1273.18 690.95 C 1273.18 690.13 1272.62 689.37 1271.69 689.37 C 1270.75 689.37 1270.1 690.12 1270.1 690.8 L 1270.1 697.25 C 1270.1 698.1 1270.83 698.77 1271.58 698.77 Z M 1271.59 708.87 C 1276.59 708.87 1280.72 704.86 1280.72 699.91 C 1280.72 697.41 1279.82 694.61 1277.07 692.57 C 1276.56 692.18 1275.54 692.38 1275.07 693 C 1274.65 693.62 1274.62 694.52 1275.31 695.18 C 1276.68 696.27 1277.58 697.98 1277.58 699.74 C 1277.58 703.17 1274.65 705.72 1271.71 705.72 C 1268.82 705.72 1265.93 703.61 1265.73 699.84 C 1265.69 698.32 1266.54 696.16 1268.06 695.1 C 1268.58 694.67 1268.79 693.71 1268.15 692.96 C 1267.54 692.18 1266.56 692.31 1266.13 692.65 C 1263.8 694.55 1262.67 696.69 1262.61 699.63 C 1262.61 705.12 1266.79 708.87 1271.59 708.87 Z M 1271.64 714.82 C 1262.69 714.82 1255.93 707.57 1255.93 699.05 C 1255.93 690.5 1262.96 683.41 1271.79 683.41 C 1279.89 683.41 1287.35 689.97 1287.35 699.02 C 1287.35 708.48 1279.79 714.82 1271.64 714.82 Z" fill="none" stroke="#222222" stroke-miterlimit="10" pointer-events="all"/></g><g><path d="M 1255.93 803.83 L 1255.93 782.89 C 1255.93 780 1262.97 777.65 1271.64 777.65 C 1280.32 777.65 1287.35 780 1287.35 782.89 L 1287.35 803.83 C 1287.35 806.73 1280.32 809.07 1271.64 809.07 C 1262.97 809.07 1255.93 806.73 1255.93 803.83 Z" fill="none" stroke="#222222" stroke-miterlimit="10" pointer-events="all"/><path d="M 1255.93 782.89 C 1255.93 785.78 1262.97 788.13 1271.64 788.13 C 1280.32 788.13 1287.35 785.78 1287.35 782.89" fill="none" stroke="#222222" stroke-miterlimit="10" pointer-events="all"/></g><g><rect x="229.71" y="641.52" width="806.32" height="198.96" fill="#333333" stroke="none" pointer-events="all"/></g><g><rect x="889.43" y="667.7" width="41.89" height="146.6" fill="#2d2d2d" stroke="none" pointer-events="all"/></g><g><rect x="292.54" y="667.7" width="41.89" height="146.6" fill="#2d2d2d" stroke="none" pointer-events="all"/></g><g><rect x="334.43" y="667.7" width="555" height="20.94" fill="#222222" stroke="none" pointer-events="all"/></g><g><rect x="334.43" y="709.59" width="555" height="20.94" fill="#222222" stroke="none" pointer-events="all"/></g><g><rect x="334.43" y="751.48" width="555" height="20.94" fill="#222222" stroke="none" pointer-events="all"/></g><g><rect x="334.43" y="793.36" width="555" height="20.94" fill="#222222" stroke="none" pointer-events="all"/></g><g><rect x="501.98" y="667.7" width="20.94" height="146.6" fill="#2d2d2d" stroke="none" pointer-events="all"/></g><g><rect x="700.94" y="667.7" width="20.94" height="146.6" fill="#2d2d2d" stroke="none" pointer-events="all"/></g><g><rect x="334.43" y="772.42" width="555" height="20.94" fill="#333333" stroke="none" pointer-events="all"/></g><g><rect x="334.43" y="730.53" width="555" height="20.94" fill="#333333" stroke="none" pointer-events="all"/></g><g><rect x="334.43" y="688.65" width="555" height="20.94" fill="#333333" stroke="none" pointer-events="all"/></g><g><rect x="1308.29" y="610.11" width="1099.52" height="261.79" fill="#333333" stroke="none" pointer-events="all"/></g><g><rect x="1339.71" y="641.52" width="1015.75" height="198.96" fill="#222222" stroke="#222222" stroke-width="5" pointer-events="all"/></g><g><rect x="2360.69" y="824.78" width="41.89" height="31.41" rx="4.71" ry="4.71" fill="#60a917" stroke="#222222" transform="rotate(90,2381.64,840.48)" pointer-events="all"/></g><g><rect x="2360.69" y="730.53" width="41.89" height="31.41" rx="4.71" ry="4.71" fill="#0050ef" stroke="#222222" transform="rotate(90,2381.64,746.24)" pointer-events="all"/></g><g><rect x="2093.67" y="672.94" width="83.77" height="136.13" rx="12.57" ry="12.57" fill="#0050ef" stroke="none" pointer-events="all"/></g><g><path d="M 2166.97 672.94 Q 2198.38 672.94 2198.38 741 Q 2198.38 809.07 2166.97 809.07 Z" fill="#0050ef" stroke="none" pointer-events="all"/></g><g><path d="M 2381.57 698.77 C 2382.51 698.77 2383.17 698.11 2383.17 697.24 L 2383.17 690.95 C 2383.17 690.13 2382.61 689.37 2381.68 689.37 C 2380.74 689.37 2380.09 690.12 2380.09 690.8 L 2380.09 697.25 C 2380.09 698.1 2380.82 698.77 2381.57 698.77 Z M 2381.58 708.87 C 2386.58 708.87 2390.71 704.86 2390.71 699.91 C 2390.71 697.41 2389.81 694.61 2387.06 692.57 C 2386.56 692.18 2385.53 692.38 2385.07 693 C 2384.64 693.62 2384.61 694.52 2385.3 695.18 C 2386.67 696.27 2387.57 697.98 2387.57 699.74 C 2387.57 703.17 2384.64 705.72 2381.71 705.72 C 2378.81 705.72 2375.93 703.61 2375.72 699.84 C 2375.68 698.32 2376.54 696.16 2378.05 695.1 C 2378.57 694.67 2378.79 693.71 2378.14 692.96 C 2377.54 692.18 2376.55 692.31 2376.12 692.65 C 2373.79 694.55 2372.67 696.69 2372.6 699.63 C 2372.6 705.12 2376.78 708.87 2381.58 708.87 Z M 2381.63 714.82 C 2372.68 714.82 2365.93 707.57 2365.93 699.05 C 2365.93 690.5 2372.95 683.41 2381.78 683.41 C 2389.89 683.41 2397.34 689.97 2397.34 699.02 C 2397.34 708.48 2389.78 714.82 2381.63 714.82 Z" fill="none" stroke="#222222" stroke-miterlimit="10" pointer-events="all"/></g><g><path d="M 2365.93 803.83 L 2365.93 782.89 C 2365.93 780 2372.96 777.65 2381.64 777.65 C 2390.31 777.65 2397.34 780 2397.34 782.89 L 2397.34 803.83 C 2397.34 806.73 2390.31 809.07 2381.64 809.07 C 2372.96 809.07 2365.93 806.73 2365.93 803.83 Z" fill="none" stroke="#222222" stroke-miterlimit="10" pointer-events="all"/><path d="M 2365.93 782.89 C 2365.93 785.78 2372.96 788.13 2381.64 788.13 C 2390.31 788.13 2397.34 785.78 2397.34 782.89" fill="none" stroke="#222222" stroke-miterlimit="10" pointer-events="all"/></g><g><rect x="1339.71" y="641.52" width="806.32" height="198.96" fill="#333333" stroke="none" pointer-events="all"/></g><g><rect x="1999.42" y="667.7" width="41.89" height="146.6" fill="#2d2d2d" stroke="none" pointer-events="all"/></g><g><rect x="1402.54" y="667.7" width="41.89" height="146.6" fill="#2d2d2d" stroke="none" pointer-events="all"/></g><g><rect x="1444.42" y="667.7" width="555" height="20.94" fill="#222222" stroke="none" pointer-events="all"/></g><g><rect x="1444.42" y="709.59" width="555" height="20.94" fill="#222222" stroke="none" pointer-events="all"/></g><g><rect x="1444.42" y="751.48" width="555" height="20.94" fill="#222222" stroke="none" pointer-events="all"/></g><g><rect x="1444.42" y="793.36" width="555" height="20.94" fill="#222222" stroke="none" pointer-events="all"/></g><g><rect x="1611.97" y="667.7" width="20.94" height="146.6" fill="#2d2d2d" stroke="none" pointer-events="all"/></g><g><rect x="1810.93" y="667.7" width="20.94" height="146.6" fill="#2d2d2d" stroke="none" pointer-events="all"/></g><g><rect x="1444.42" y="772.42" width="555" height="20.94" fill="#333333" stroke="none" pointer-events="all"/></g><g><rect x="1444.42" y="730.53" width="555" height="20.94" fill="#333333" stroke="none" pointer-events="all"/></g><g><rect x="1444.42" y="688.65" width="555" height="20.94" fill="#333333" stroke="none" pointer-events="all"/></g><g><rect x="198.3" y="318.31" width="1099.52" height="261.79" fill="#333333" stroke="none" pointer-events="all"/></g><g><rect x="229.71" y="349.72" width="1015.75" height="198.96" fill="#222222" stroke="#222222" stroke-width="5" pointer-events="all"/></g><g><rect x="1250.7" y="532.98" width="41.89" height="31.41" rx="4.71" ry="4.71" fill="#60a917" stroke="#222222" transform="rotate(90,1271.64,548.68)" pointer-events="all"/></g><g><rect x="1250.7" y="438.73" width="41.89" height="31.41" rx="4.71" ry="4.71" fill="#0050ef" stroke="#222222" transform="rotate(90,1271.64,454.44)" pointer-events="all"/></g><g><rect x="983.67" y="381.14" width="83.77" height="136.13" rx="12.57" ry="12.57" fill="#0050ef" stroke="none" pointer-events="all"/></g><g><path d="M 1056.97 381.14 Q 1088.39 381.14 1088.39 449.2 Q 1088.39 517.27 1056.97 517.27 Z" fill="#0050ef" stroke="none" pointer-events="all"/></g><g><path d="M 1271.58 406.97 C 1272.51 406.97 1273.18 406.31 1273.18 405.44 L 1273.18 399.15 C 1273.18 398.33 1272.62 397.57 1271.69 397.57 C 1270.75 397.57 1270.1 398.32 1270.1 399 L 1270.1 405.45 C 1270.1 406.3 1270.83 406.97 1271.58 406.97 Z M 1271.59 417.07 C 1276.59 417.07 1280.72 413.06 1280.72 408.11 C 1280.72 405.61 1279.82 402.81 1277.07 400.77 C 1276.56 400.38 1275.54 400.58 1275.07 401.2 C 1274.65 401.82 1274.62 402.72 1275.31 403.38 C 1276.68 404.47 1277.58 406.18 1277.58 407.94 C 1277.58 411.37 1274.65 413.92 1271.71 413.92 C 1268.82 413.92 1265.93 411.81 1265.73 408.04 C 1265.69 406.52 1266.54 404.36 1268.06 403.3 C 1268.58 402.87 1268.79 401.91 1268.15 401.16 C 1267.54 400.38 1266.56 400.51 1266.13 400.85 C 1263.8 402.75 1262.67 404.89 1262.61 407.83 C 1262.61 413.32 1266.79 417.07 1271.59 417.07 Z M 1271.64 423.02 C 1262.69 423.02 1255.93 415.77 1255.93 407.25 C 1255.93 398.7 1262.96 391.61 1271.79 391.61 C 1279.89 391.61 1287.35 398.17 1287.35 407.22 C 1287.35 416.68 1279.79 423.02 1271.64 423.02 Z" fill="none" stroke="#222222" stroke-miterlimit="10" pointer-events="all"/></g><g><path d="M 1255.93 512.03 L 1255.93 491.09 C 1255.93 488.2 1262.97 485.85 1271.64 485.85 C 1280.32 485.85 1287.35 488.2 1287.35 491.09 L 1287.35 512.03 C 1287.35 514.93 1280.32 517.27 1271.64 517.27 C 1262.97 517.27 1255.93 514.93 1255.93 512.03 Z" fill="none" stroke="#222222" stroke-miterlimit="10" pointer-events="all"/><path d="M 1255.93 491.09 C 1255.93 493.98 1262.97 496.33 1271.64 496.33 C 1280.32 496.33 1287.35 493.98 1287.35 491.09" fill="none" stroke="#222222" stroke-miterlimit="10" pointer-events="all"/></g><g><rect x="229.71" y="349.72" width="806.32" height="198.96" fill="#333333" stroke="none" pointer-events="all"/></g><g><rect x="889.43" y="375.9" width="41.89" height="146.6" fill="#2d2d2d" stroke="none" pointer-events="all"/></g><g><rect x="292.54" y="375.9" width="41.89" height="146.6" fill="#2d2d2d" stroke="none" pointer-events="all"/></g><g><rect x="334.43" y="375.9" width="555" height="20.94" fill="#222222" stroke="none" pointer-events="all"/></g><g><rect x="334.43" y="417.79" width="555" height="20.94" fill="#222222" stroke="none" pointer-events="all"/></g><g><rect x="334.43" y="459.68" width="555" height="20.94" fill="#222222" stroke="none" pointer-events="all"/></g><g><rect x="334.43" y="501.56" width="555" height="20.94" fill="#222222" stroke="none" pointer-events="all"/></g><g><rect x="501.98" y="375.9" width="20.94" height="146.6" fill="#2d2d2d" stroke="none" pointer-events="all"/></g><g><rect x="700.94" y="375.9" width="20.94" height="146.6" fill="#2d2d2d" stroke="none" pointer-events="all"/></g><g><rect x="334.43" y="480.62" width="555" height="20.94" fill="#333333" stroke="none" pointer-events="all"/></g><g><rect x="334.43" y="438.73" width="555" height="20.94" fill="#333333" stroke="none" pointer-events="all"/></g><g><rect x="334.43" y="396.85" width="555" height="20.94" fill="#333333" stroke="none" pointer-events="all"/></g><g><rect x="1308.29" y="318.31" width="1099.52" height="261.79" fill="#333333" stroke="none" pointer-events="all"/></g><g><rect x="1339.71" y="349.72" width="1015.75" height="198.96" fill="#222222" stroke="#222222" stroke-width="5" pointer-events="all"/></g><g><rect x="2360.69" y="532.98" width="41.89" height="31.41" rx="4.71" ry="4.71" fill="#60a917" stroke="#222222" transform="rotate(90,2381.64,548.68)" pointer-events="all"/></g><g><rect x="2360.69" y="438.73" width="41.89" height="31.41" rx="4.71" ry="4.71" fill="#0050ef" stroke="#222222" transform="rotate(90,2381.64,454.44)" pointer-events="all"/></g><g><rect x="2093.67" y="381.14" width="83.77" height="136.13" rx="12.57" ry="12.57" fill="#0050ef" stroke="none" pointer-events="all"/></g><g><path d="M 2166.97 381.14 Q 2198.38 381.14 2198.38 449.2 Q 2198.38 517.27 2166.97 517.27 Z" fill="#0050ef" stroke="none" pointer-events="all"/></g><g><path d="M 2381.57 406.97 C 2382.51 406.97 2383.17 406.31 2383.17 405.44 L 2383.17 399.15 C 2383.17 398.33 2382.61 397.57 2381.68 397.57 C 2380.74 397.57 2380.09 398.32 2380.09 399 L 2380.09 405.45 C 2380.09 406.3 2380.82 406.97 2381.57 406.97 Z M 2381.58 417.07 C 2386.58 417.07 2390.71 413.06 2390.71 408.11 C 2390.71 405.61 2389.81 402.81 2387.06 400.77 C 2386.56 400.38 2385.53 400.58 2385.07 401.2 C 2384.64 401.82 2384.61 402.72 2385.3 403.38 C 2386.67 404.47 2387.57 406.18 2387.57 407.94 C 2387.57 411.37 2384.64 413.92 2381.71 413.92 C 2378.81 413.92 2375.93 411.81 2375.72 408.04 C 2375.68 406.52 2376.54 404.36 2378.05 403.3 C 2378.57 402.87 2378.79 401.91 2378.14 401.16 C 2377.54 400.38 2376.55 400.51 2376.12 400.85 C 2373.79 402.75 2372.67 404.89 2372.6 407.83 C 2372.6 413.32 2376.78 417.07 2381.58 417.07 Z M 2381.63 423.02 C 2372.68 423.02 2365.93 415.77 2365.93 407.25 C 2365.93 398.7 2372.95 391.61 2381.78 391.61 C 2389.89 391.61 2397.34 398.17 2397.34 407.22 C 2397.34 416.68 2389.78 423.02 2381.63 423.02 Z" fill="none" stroke="#222222" stroke-miterlimit="10" pointer-events="all"/></g><g><path d="M 2365.93 512.03 L 2365.93 491.09 C 2365.93 488.2 2372.96 485.85 2381.64 485.85 C 2390.31 485.85 2397.34 488.2 2397.34 491.09 L 2397.34 512.03 C 2397.34 514.93 2390.31 517.27 2381.64 517.27 C 2372.96 517.27 2365.93 514.93 2365.93 512.03 Z" fill="none" stroke="#222222" stroke-miterlimit="10" pointer-events="all"/><path d="M 2365.93 491.09 C 2365.93 493.98 2372.96 496.33 2381.64 496.33 C 2390.31 496.33 2397.34 493.98 2397.34 491.09" fill="none" stroke="#222222" stroke-miterlimit="10" pointer-events="all"/></g><g><rect x="1339.71" y="349.72" width="806.32" height="198.96" fill="#333333" stroke="none" pointer-events="all"/></g><g><rect x="1999.42" y="375.9" width="41.89" height="146.6" fill="#2d2d2d" stroke="none" pointer-events="all"/></g><g><rect x="1402.54" y="375.9" width="41.89" height="146.6" fill="#2d2d2d" stroke="none" pointer-events="all"/></g><g><rect x="1444.42" y="375.9" width="555" height="20.94" fill="#222222" stroke="none" pointer-events="all"/></g><g><rect x="1444.42" y="417.79" width="555" height="20.94" fill="#222222" stroke="none" pointer-events="all"/></g><g><rect x="1444.42" y="459.68" width="555" height="20.94" fill="#222222" stroke="none" pointer-events="all"/></g><g><rect x="1444.42" y="501.56" width="555" height="20.94" fill="#222222" stroke="none" pointer-events="all"/></g><g><rect x="1611.97" y="375.9" width="20.94" height="146.6" fill="#2d2d2d" stroke="none" pointer-events="all"/></g><g><rect x="1810.93" y="375.9" width="20.94" height="146.6" fill="#2d2d2d" stroke="none" pointer-events="all"/></g><g><rect x="1444.42" y="480.62" width="555" height="20.94" fill="#333333" stroke="none" pointer-events="all"/></g><g><rect x="1444.42" y="438.73" width="555" height="20.94" fill="#333333" stroke="none" pointer-events="all"/></g><g><rect x="1444.42" y="396.85" width="555" height="20.94" fill="#333333" stroke="none" pointer-events="all"/></g><g><rect x="198.3" y="26.51" width="1099.52" height="261.79" fill="#333333" stroke="none" pointer-events="all"/></g><g><rect x="229.71" y="57.92" width="1015.75" height="198.96" fill="#222222" stroke="#222222" stroke-width="5" pointer-events="all"/></g><g><rect x="1250.7" y="241.18" width="41.89" height="31.41" rx="4.71" ry="4.71" fill="#60a917" stroke="#222222" transform="rotate(90,1271.64,256.88)" pointer-events="all"/></g><g><rect x="1250.7" y="146.93" width="41.89" height="31.41" rx="4.71" ry="4.71" fill="#0050ef" stroke="#222222" transform="rotate(90,1271.64,162.64)" pointer-events="all"/></g><g><rect x="983.67" y="89.34" width="83.77" height="136.13" rx="12.57" ry="12.57" fill="#0050ef" stroke="none" pointer-events="all"/></g><g><path d="M 1056.97 89.34 Q 1088.39 89.34 1088.39 157.4 Q 1088.39 225.47 1056.97 225.47 Z" fill="#0050ef" stroke="none" pointer-events="all"/></g><g><path d="M 1271.58 115.17 C 1272.51 115.17 1273.18 114.51 1273.18 113.64 L 1273.18 107.35 C 1273.18 106.53 1272.62 105.77 1271.69 105.77 C 1270.75 105.77 1270.1 106.52 1270.1 107.2 L 1270.1 113.65 C 1270.1 114.5 1270.83 115.17 1271.58 115.17 Z M 1271.59 125.27 C 1276.59 125.27 1280.72 121.26 1280.72 116.31 C 1280.72 113.81 1279.82 111.01 1277.07 108.97 C 1276.56 108.58 1275.54 108.78 1275.07 109.4 C 1274.65 110.02 1274.62 110.92 1275.31 111.58 C 1276.68 112.67 1277.58 114.38 1277.58 116.14 C 1277.58 119.57 1274.65 122.12 1271.71 122.12 C 1268.82 122.12 1265.93 120.01 1265.73 116.24 C 1265.69 114.72 1266.54 112.56 1268.06 111.5 C 1268.58 111.07 1268.79 110.11 1268.15 109.36 C 1267.54 108.58 1266.56 108.71 1266.13 109.05 C 1263.8 110.95 1262.67 113.09 1262.61 116.03 C 1262.61 121.52 1266.79 125.27 1271.59 125.27 Z M 1271.64 131.22 C 1262.69 131.22 1255.93 123.97 1255.93 115.45 C 1255.93 106.9 1262.96 99.81 1271.79 99.81 C 1279.89 99.81 1287.35 106.37 1287.35 115.42 C 1287.35 124.88 1279.79 131.22 1271.64 131.22 Z" fill="none" stroke="#222222" stroke-miterlimit="10" pointer-events="all"/></g><g><path d="M 1255.93 220.23 L 1255.93 199.29 C 1255.93 196.4 1262.97 194.05 1271.64 194.05 C 1280.32 194.05 1287.35 196.4 1287.35 199.29 L 1287.35 220.23 C 1287.35 223.13 1280.32 225.47 1271.64 225.47 C 1262.97 225.47 1255.93 223.13 1255.93 220.23 Z" fill="none" stroke="#222222" stroke-miterlimit="10" pointer-events="all"/><path d="M 1255.93 199.29 C 1255.93 202.18 1262.97 204.53 1271.64 204.53 C 1280.32 204.53 1287.35 202.18 1287.35 199.29" fill="none" stroke="#222222" stroke-miterlimit="10" pointer-events="all"/></g><g><rect x="229.71" y="57.92" width="806.32" height="198.96" fill="#333333" stroke="none" pointer-events="all"/></g><g><rect x="889.43" y="84.1" width="41.89" height="146.6" fill="#2d2d2d" stroke="none" pointer-events="all"/></g><g><rect x="292.54" y="84.1" width="41.89" height="146.6" fill="#2d2d2d" stroke="none" pointer-events="all"/></g><g><rect x="334.43" y="84.1" width="555" height="20.94" fill="#222222" stroke="none" pointer-events="all"/></g><g><rect x="334.43" y="125.99" width="555" height="20.94" fill="#222222" stroke="none" pointer-events="all"/></g><g><rect x="334.43" y="167.88" width="555" height="20.94" fill="#222222" stroke="none" pointer-events="all"/></g><g><rect x="334.43" y="209.76" width="555" height="20.94" fill="#222222" stroke="none" pointer-events="all"/></g><g><rect x="501.98" y="84.1" width="20.94" height="146.6" fill="#2d2d2d" stroke="none" pointer-events="all"/></g><g><rect x="700.94" y="84.1" width="20.94" height="146.6" fill="#2d2d2d" stroke="none" pointer-events="all"/></g><g><rect x="334.43" y="188.82" width="555" height="20.94" fill="#333333" stroke="none" pointer-events="all"/></g><g><rect x="334.43" y="146.93" width="555" height="20.94" fill="#333333" stroke="none" pointer-events="all"/></g><g><rect x="334.43" y="105.05" width="555" height="20.94" fill="#333333" stroke="none" pointer-events="all"/></g><g><rect x="1308.29" y="26.51" width="1099.52" height="261.79" fill="#333333" stroke="none" pointer-events="all"/></g><g><rect x="1339.71" y="57.92" width="1015.75" height="198.96" fill="#222222" stroke="#222222" stroke-width="5" pointer-events="all"/></g><g><rect x="2360.69" y="241.18" width="41.89" height="31.41" rx="4.71" ry="4.71" fill="#60a917" stroke="#222222" transform="rotate(90,2381.64,256.88)" pointer-events="all"/></g><g><rect x="2360.69" y="146.93" width="41.89" height="31.41" rx="4.71" ry="4.71" fill="#0050ef" stroke="#222222" transform="rotate(90,2381.64,162.64)" pointer-events="all"/></g><g><rect x="2093.67" y="89.34" width="83.77" height="136.13" rx="12.57" ry="12.57" fill="#0050ef" stroke="none" pointer-events="all"/></g><g><path d="M 2166.97 89.34 Q 2198.38 89.34 2198.38 157.4 Q 2198.38 225.47 2166.97 225.47 Z" fill="#0050ef" stroke="none" pointer-events="all"/></g><g><path d="M 2381.57 115.17 C 2382.51 115.17 2383.17 114.51 2383.17 113.64 L 2383.17 107.35 C 2383.17 106.53 2382.61 105.77 2381.68 105.77 C 2380.74 105.77 2380.09 106.52 2380.09 107.2 L 2380.09 113.65 C 2380.09 114.5 2380.82 115.17 2381.57 115.17 Z M 2381.58 125.27 C 2386.58 125.27 2390.71 121.26 2390.71 116.31 C 2390.71 113.81 2389.81 111.01 2387.06 108.97 C 2386.56 108.58 2385.53 108.78 2385.07 109.4 C 2384.64 110.02 2384.61 110.92 2385.3 111.58 C 2386.67 112.67 2387.57 114.38 2387.57 116.14 C 2387.57 119.57 2384.64 122.12 2381.71 122.12 C 2378.81 122.12 2375.93 120.01 2375.72 116.24 C 2375.68 114.72 2376.54 112.56 2378.05 111.5 C 2378.57 111.07 2378.79 110.11 2378.14 109.36 C 2377.54 108.58 2376.55 108.71 2376.12 109.05 C 2373.79 110.95 2372.67 113.09 2372.6 116.03 C 2372.6 121.52 2376.78 125.27 2381.58 125.27 Z M 2381.63 131.22 C 2372.68 131.22 2365.93 123.97 2365.93 115.45 C 2365.93 106.9 2372.95 99.81 2381.78 99.81 C 2389.89 99.81 2397.34 106.37 2397.34 115.42 C 2397.34 124.88 2389.78 131.22 2381.63 131.22 Z" fill="none" stroke="#222222" stroke-miterlimit="10" pointer-events="all"/></g><g><path d="M 2365.93 220.23 L 2365.93 199.29 C 2365.93 196.4 2372.96 194.05 2381.64 194.05 C 2390.31 194.05 2397.34 196.4 2397.34 199.29 L 2397.34 220.23 C 2397.34 223.13 2390.31 225.47 2381.64 225.47 C 2372.96 225.47 2365.93 223.13 2365.93 220.23 Z" fill="none" stroke="#222222" stroke-miterlimit="10" pointer-events="all"/><path d="M 2365.93 199.29 C 2365.93 202.18 2372.96 204.53 2381.64 204.53 C 2390.31 204.53 2397.34 202.18 2397.34 199.29" fill="none" stroke="#222222" stroke-miterlimit="10" pointer-events="all"/></g><g><rect x="1339.71" y="57.92" width="806.32" height="198.96" fill="#333333" stroke="none" pointer-events="all"/></g><g><rect x="1999.42" y="84.1" width="41.89" height="146.6" fill="#2d2d2d" stroke="none" pointer-events="all"/></g><g><rect x="1402.54" y="84.1" width="41.89" height="146.6" fill="#2d2d2d" stroke="none" pointer-events="all"/></g><g><rect x="1444.42" y="84.1" width="555" height="20.94" fill="#222222" stroke="none" pointer-events="all"/></g><g><rect x="1444.42" y="125.99" width="555" height="20.94" fill="#222222" stroke="none" pointer-events="all"/></g><g><rect x="1444.42" y="167.88" width="555" height="20.94" fill="#222222" stroke="none" pointer-events="all"/></g><g><rect x="1444.42" y="209.76" width="555" height="20.94" fill="#222222" stroke="none" pointer-events="all"/></g><g><rect x="1611.97" y="84.1" width="20.94" height="146.6" fill="#2d2d2d" stroke="none" pointer-events="all"/></g><g><rect x="1810.93" y="84.1" width="20.94" height="146.6" fill="#2d2d2d" stroke="none" pointer-events="all"/></g><g><rect x="1444.42" y="188.82" width="555" height="20.94" fill="#333333" stroke="none" pointer-events="all"/></g><g><rect x="1444.42" y="146.93" width="555" height="20.94" fill="#333333" stroke="none" pointer-events="all"/></g><g><rect x="1444.42" y="105.05" width="555" height="20.94" fill="#333333" stroke="none" pointer-events="all"/></g><g><rect x="2430" y="0" width="2216" height="889" fill="#222222" stroke="#aaaaaa" stroke-width="10" pointer-events="all"/></g><g><rect x="3118" y="82.6" width="840" height="160" fill="none" stroke="#000000" stroke-width="10" pointer-events="none"/></g><g><rect x="3118" y="82.6" width="840" height="160" fill="#333333" stroke="#000000" stroke-width="2" pointer-events="all"/></g><g><rect x="3133" y="96.07" width="810" height="133.04" fill="#333333" stroke="#001dbc" stroke-width="2" pointer-events="all"/></g><g><ellipse cx="3320.5" cy="192.16" rx="22.5" ry="22.17391304347826" fill="#60a917" stroke="none" pointer-events="all"/></g><g><ellipse cx="3373" cy="192.16" rx="22.5" ry="22.17391304347826" fill="#0050ef" stroke="none" pointer-events="all"/></g><g><ellipse cx="3425.5" cy="192.16" rx="22.5" ry="22.17391304347826" fill="#0050ef" stroke="none" pointer-events="all"/></g><g><ellipse cx="3478" cy="192.16" rx="22.5" ry="22.17391304347826" fill="#0050ef" stroke="none" pointer-events="all"/></g><g><ellipse cx="3583" cy="192.16" rx="22.5" ry="22.17391304347826" fill="#a20025" stroke="none" pointer-events="all"/></g><g><ellipse cx="3530.5" cy="192.16" rx="22.5" ry="22.17391304347826" fill="#0050ef" stroke="none" pointer-events="all"/></g><g><ellipse cx="3253" cy="184.77" rx="30" ry="29.565217391304344" fill="#0050ef" stroke="none" pointer-events="all"/></g><g><ellipse cx="3178" cy="184.77" rx="30" ry="29.565217391304344" fill="#0050ef" stroke="none" pointer-events="all"/></g><g><rect x="3661" y="110.86" width="65.1" height="29.57" fill="none" stroke="none" pointer-events="all"/><path d="M 3672.29 127.06 C 3671.51 129.76 3668.81 131.49 3665.96 131.1 C 3663.12 130.71 3661 128.33 3661 125.53 C 3661 122.72 3663.12 120.34 3665.96 119.96 C 3668.81 119.57 3671.51 121.29 3672.29 123.99 L 3679.09 123.99 C 3679.91 123.68 3680.57 123.06 3680.92 122.27 L 3683.01 118.5 C 3684.23 116.71 3686.15 115.51 3688.31 115.17 C 3690.1 114.9 3691.92 114.77 3693.74 114.79 C 3694.5 112.37 3696.95 110.86 3699.51 111.23 C 3702.07 111.61 3703.97 113.76 3703.97 116.29 C 3703.97 118.82 3702.07 120.97 3699.51 121.35 C 3696.95 121.72 3694.5 120.21 3693.74 117.79 C 3691.78 117.7 3689.82 117.89 3687.92 118.37 C 3687.05 118.68 3686.28 119.21 3685.69 119.9 L 3684.39 122.46 L 3683.6 124.06 L 3714.59 124.06 L 3714.59 118.94 L 3726.1 125.97 L 3714.59 132.24 L 3714.59 127 L 3690.79 127 C 3691.29 127.74 3691.71 128.53 3692.04 129.36 L 3693.34 132.69 C 3693.65 133.26 3694.13 133.73 3694.72 134.03 C 3695.49 134.21 3696.28 134.31 3697.07 134.35 L 3699.88 134.35 L 3699.88 131.15 L 3709.23 131.15 L 3709.23 140.42 L 3699.88 140.42 L 3699.88 137.42 C 3698 137.61 3696.1 137.48 3694.26 137.03 C 3692.93 136.63 3691.76 135.83 3690.92 134.73 L 3689.88 132.37 L 3688.51 129.11 C 3688.05 127.88 3686.89 127.05 3685.56 127 Z" fill="#ffffff" stroke="none" pointer-events="all"/></g><g><rect x="3820.6" y="110.86" width="65.1" height="29.57" fill="none" stroke="none" pointer-events="all"/><path d="M 3831.89 127.06 C 3831.11 129.76 3828.41 131.49 3825.56 131.1 C 3822.72 130.71 3820.6 128.33 3820.6 125.53 C 3820.6 122.72 3822.72 120.34 3825.56 119.96 C 3828.41 119.57 3831.11 121.29 3831.89 123.99 L 3838.69 123.99 C 3839.51 123.68 3840.17 123.06 3840.52 122.27 L 3842.61 118.5 C 3843.83 116.71 3845.75 115.51 3847.91 115.17 C 3849.7 114.9 3851.52 114.77 3853.34 114.79 C 3854.1 112.37 3856.55 110.86 3859.11 111.23 C 3861.67 111.61 3863.57 113.76 3863.57 116.29 C 3863.57 118.82 3861.67 120.97 3859.11 121.35 C 3856.55 121.72 3854.1 120.21 3853.34 117.79 C 3851.38 117.7 3849.42 117.89 3847.52 118.37 C 3846.65 118.68 3845.88 119.21 3845.29 119.9 L 3843.99 122.46 L 3843.2 124.06 L 3874.19 124.06 L 3874.19 118.94 L 3885.7 125.97 L 3874.19 132.24 L 3874.19 127 L 3850.39 127 C 3850.89 127.74 3851.31 128.53 3851.64 129.36 L 3852.94 132.69 C 3853.25 133.26 3853.73 133.73 3854.32 134.03 C 3855.09 134.21 3855.88 134.31 3856.67 134.35 L 3859.48 134.35 L 3859.48 131.15 L 3868.83 131.15 L 3868.83 140.42 L 3859.48 140.42 L 3859.48 137.42 C 3857.6 137.61 3855.7 137.48 3853.86 137.03 C 3852.53 136.63 3851.36 135.83 3850.52 134.73 L 3849.48 132.37 L 3848.11 129.11 C 3847.65 127.88 3846.49 127.05 3845.16 127 Z" fill="#ffffff" stroke="none" pointer-events="all"/></g><g><path d="M 3177.94 125.31 C 3178.83 125.31 3179.46 124.69 3179.46 123.87 L 3179.46 117.96 C 3179.46 117.18 3178.93 116.46 3178.04 116.46 C 3177.15 116.46 3176.53 117.17 3176.53 117.82 L 3176.53 123.88 C 3176.53 124.69 3177.22 125.31 3177.94 125.31 Z M 3177.95 134.82 C 3182.72 134.82 3186.67 131.04 3186.67 126.38 C 3186.67 124.03 3185.81 121.39 3183.18 119.48 C 3182.7 119.11 3181.72 119.3 3181.28 119.88 C 3180.87 120.47 3180.84 121.32 3181.5 121.93 C 3182.81 122.96 3183.67 124.57 3183.67 126.23 C 3183.67 129.45 3180.87 131.85 3178.07 131.85 C 3175.31 131.85 3172.55 129.87 3172.35 126.32 C 3172.31 124.89 3173.13 122.86 3174.58 121.86 C 3175.08 121.46 3175.28 120.55 3174.67 119.84 C 3174.09 119.11 3173.14 119.24 3172.74 119.55 C 3170.51 121.34 3169.43 123.35 3169.38 126.13 C 3169.38 131.29 3173.37 134.82 3177.95 134.82 Z M 3177.99 140.42 C 3169.45 140.42 3163 133.6 3163 125.58 C 3163 117.53 3169.71 110.86 3178.14 110.86 C 3185.88 110.86 3193 117.03 3193 125.55 C 3193 134.45 3185.78 140.42 3177.99 140.42 Z" fill="#ffffff" stroke="none" pointer-events="all"/></g><g><path d="M 3248.32 140.42 L 3248.32 135.55 C 3241.87 133.49 3238 127.52 3239.16 121.42 C 3240.31 115.31 3246.16 110.85 3253 110.85 C 3259.84 110.85 3265.69 115.31 3266.84 121.42 C 3268 127.52 3264.13 133.49 3257.68 135.55 L 3257.68 140.42" fill="none" stroke="rgb(240, 240, 240)" stroke-miterlimit="10" transform="rotate(-180,3253,125.64)" pointer-events="all"/></g><g><path d="M 3358 135.49 L 3358 115.78 C 3358 113.06 3364.72 110.86 3373 110.86 C 3381.28 110.86 3388 113.06 3388 115.78 L 3388 135.49 C 3388 138.22 3381.28 140.42 3373 140.42 C 3364.72 140.42 3358 138.22 3358 135.49 Z" fill="none" stroke="rgb(240, 240, 240)" stroke-miterlimit="10" pointer-events="all"/><path d="M 3358 115.78 C 3358 118.51 3364.72 120.71 3373 120.71 C 3381.28 120.71 3388 118.51 3388 115.78" fill="none" stroke="rgb(240, 240, 240)" stroke-miterlimit="10" pointer-events="all"/></g><g><rect x="3410.5" y="110.86" width="30" height="29.57" fill="none" stroke="none" pointer-events="all"/><path d="M 3422.36 110.86 L 3422.36 117.09 L 3424.93 117.09 L 3424.92 122.92 L 3413.44 122.91 C 3413.29 122.91 3413.15 122.97 3413.05 123.08 C 3412.94 123.18 3412.88 123.33 3412.88 123.48 L 3412.89 134.18 L 3410.5 134.18 L 3410.5 140.41 L 3416.66 140.41 L 3416.66 134.18 L 3414 134.18 L 3413.99 124.04 L 3424.92 124.05 L 3424.91 131.66 L 3422.35 131.66 L 3422.35 137.89 L 3428.51 137.89 L 3428.51 131.66 L 3426.02 131.66 L 3426.03 124.05 L 3436.93 124.06 L 3436.88 134.19 L 3434.34 134.19 L 3434.34 140.42 L 3440.5 140.42 L 3440.5 134.19 L 3437.99 134.19 L 3438.04 123.5 C 3438.04 123.35 3437.99 123.21 3437.88 123.1 C 3437.78 123 3437.64 122.94 3437.49 122.94 L 3426.03 122.92 L 3426.04 117.09 L 3428.52 117.09 L 3428.52 110.86 Z" fill="#ffffff" stroke="none" pointer-events="all"/></g><g><rect x="3463" y="110.86" width="30" height="29.57" fill="none" stroke="none" pointer-events="all"/><path d="M 3474.86 110.86 L 3474.86 117.09 L 3477.43 117.09 L 3477.42 122.92 L 3465.94 122.91 C 3465.79 122.91 3465.65 122.97 3465.55 123.08 C 3465.44 123.18 3465.38 123.33 3465.38 123.48 L 3465.39 134.18 L 3463 134.18 L 3463 140.41 L 3469.16 140.41 L 3469.16 134.18 L 3466.5 134.18 L 3466.49 124.04 L 3477.42 124.05 L 3477.41 131.66 L 3474.85 131.66 L 3474.85 137.89 L 3481.01 137.89 L 3481.01 131.66 L 3478.52 131.66 L 3478.53 124.05 L 3489.43 124.06 L 3489.38 134.19 L 3486.84 134.19 L 3486.84 140.42 L 3493 140.42 L 3493 134.19 L 3490.49 134.19 L 3490.54 123.5 C 3490.54 123.35 3490.49 123.21 3490.38 123.1 C 3490.28 123 3490.14 122.94 3489.99 122.94 L 3478.53 122.92 L 3478.54 117.09 L 3481.02 117.09 L 3481.02 110.86 Z" fill="#ffffff" stroke="none" pointer-events="all"/></g><g><rect x="3515.5" y="110.86" width="30" height="29.57" fill="none" stroke="none" pointer-events="all"/><path d="M 3527.36 110.86 L 3527.36 117.09 L 3529.93 117.09 L 3529.92 122.92 L 3518.44 122.91 C 3518.29 122.91 3518.15 122.97 3518.05 123.08 C 3517.94 123.18 3517.88 123.33 3517.88 123.48 L 3517.89 134.18 L 3515.5 134.18 L 3515.5 140.41 L 3521.66 140.41 L 3521.66 134.18 L 3519 134.18 L 3518.99 124.04 L 3529.92 124.05 L 3529.91 131.66 L 3527.35 131.66 L 3527.35 137.89 L 3533.51 137.89 L 3533.51 131.66 L 3531.02 131.66 L 3531.03 124.05 L 3541.93 124.06 L 3541.88 134.19 L 3539.34 134.19 L 3539.34 140.42 L 3545.5 140.42 L 3545.5 134.19 L 3542.99 134.19 L 3543.04 123.5 C 3543.04 123.35 3542.99 123.21 3542.88 123.1 C 3542.78 123 3542.64 122.94 3542.49 122.94 L 3531.03 122.92 L 3531.04 117.09 L 3533.52 117.09 L 3533.52 110.86 Z" fill="#ffffff" stroke="none" pointer-events="all"/></g><g><path d="M 3568 110.86 L 3598 125.64 L 3568 140.42 Z" fill="none" stroke="rgb(240, 240, 240)" stroke-miterlimit="10" transform="rotate(-90,3583,125.64)" pointer-events="all"/></g><g><path d="M 3320.44 125.31 C 3321.33 125.31 3321.96 124.69 3321.96 123.87 L 3321.96 117.96 C 3321.96 117.18 3321.43 116.46 3320.54 116.46 C 3319.65 116.46 3319.03 117.17 3319.03 117.82 L 3319.03 123.88 C 3319.03 124.69 3319.72 125.31 3320.44 125.31 Z M 3320.45 134.82 C 3325.22 134.82 3329.17 131.04 3329.17 126.38 C 3329.17 124.03 3328.31 121.39 3325.68 119.48 C 3325.2 119.11 3324.22 119.3 3323.78 119.88 C 3323.37 120.47 3323.34 121.32 3324 121.93 C 3325.31 122.96 3326.17 124.57 3326.17 126.23 C 3326.17 129.45 3323.37 131.85 3320.57 131.85 C 3317.81 131.85 3315.05 129.87 3314.85 126.32 C 3314.81 124.89 3315.63 122.86 3317.08 121.86 C 3317.58 121.46 3317.78 120.55 3317.17 119.84 C 3316.59 119.11 3315.64 119.24 3315.24 119.55 C 3313.01 121.34 3311.93 123.35 3311.88 126.13 C 3311.88 131.29 3315.87 134.82 3320.45 134.82 Z M 3320.49 140.42 C 3311.95 140.42 3305.5 133.6 3305.5 125.58 C 3305.5 117.53 3312.21 110.86 3320.64 110.86 C 3328.38 110.86 3335.5 117.03 3335.5 125.55 C 3335.5 134.45 3328.28 140.42 3320.49 140.42 Z" fill="none" stroke="rgb(240, 240, 240)" stroke-miterlimit="10" pointer-events="all"/></g><g><rect x="3778" y="155.2" width="150" height="59.13" fill="#222222" stroke="#aaaaaa" pointer-events="all"/></g><g><rect x="3793" y="169.99" width="120" height="14.78" fill="#0050ef" stroke="none" pointer-events="all"/></g><g><rect x="3618.4" y="155.2" width="150" height="59.13" fill="#222222" stroke="#aaaaaa" pointer-events="all"/></g><g><rect x="3633.4" y="169.99" width="120" height="14.78" fill="#0050ef" stroke="none" pointer-events="all"/></g><g><rect x="2808" y="373.4" width="1460" height="420" fill="none" stroke="#000000" stroke-width="10" pointer-events="none"/></g><g><rect x="2808" y="373.4" width="1460" height="420" fill="#333333" stroke="none" pointer-events="all"/></g><g><rect x="2823.04" y="708.41" width="70" height="70" fill="#222222" stroke="#333333" stroke-width="5" pointer-events="all"/></g><g><rect x="2903.04" y="708.41" width="70" height="70" fill="#222222" stroke="#333333" stroke-width="5" pointer-events="all"/></g><g><rect x="2983.04" y="708.41" width="70" height="70" fill="#222222" stroke="#333333" stroke-width="5" pointer-events="all"/></g><g><rect x="3063.04" y="708.41" width="70" height="70" fill="#222222" stroke="#333333" stroke-width="5" pointer-events="all"/></g><g><rect x="3143.04" y="708.41" width="70" height="70" fill="#333333" stroke="#222222" pointer-events="all"/></g><g><rect x="3223.04" y="708.41" width="70" height="70" fill="#222222" stroke="#333333" stroke-width="5" pointer-events="all"/></g><g><rect x="3303.04" y="708.41" width="70" height="70" fill="#222222" stroke="#333333" stroke-width="5" pointer-events="all"/></g><g><rect x="3383.04" y="708.41" width="70" height="70" fill="#222222" stroke="#333333" stroke-width="5" pointer-events="all"/></g><g><rect x="3463.04" y="708.41" width="70" height="70" fill="#333333" stroke="#222222" pointer-events="all"/></g><g><rect x="3543.04" y="708.41" width="70" height="70" fill="#333333" stroke="#222222" pointer-events="all"/></g><g><rect x="3623.04" y="708.41" width="70" height="70" fill="#222222" stroke="#333333" stroke-width="5" pointer-events="all"/></g><g><rect x="3703.04" y="708.41" width="70" height="70" fill="#222222" stroke="#333333" stroke-width="5" pointer-events="all"/></g><g><rect x="3783.04" y="708.41" width="70" height="70" fill="#222222" stroke="#333333" stroke-width="5" pointer-events="all"/></g><g><rect x="3863.04" y="708.41" width="70" height="70" fill="#333333" stroke="#222222" pointer-events="all"/></g><g><rect x="3943.04" y="708.41" width="70" height="70" fill="#222222" stroke="#333333" stroke-width="5" pointer-events="all"/></g><g><rect x="4023.04" y="708.41" width="70" height="70" fill="#222222" stroke="#333333" stroke-width="5" pointer-events="all"/></g><g><rect x="4103.04" y="708.41" width="70" height="70" fill="#222222" stroke="#333333" stroke-width="5" pointer-events="all"/></g><g><rect x="4183.04" y="708.41" width="70" height="70" fill="#222222" stroke="#333333" stroke-width="5" pointer-events="all"/></g><g><rect x="2823.04" y="628.41" width="70" height="70" fill="#222222" stroke="#333333" stroke-width="5" pointer-events="all"/></g><g><rect x="2903.04" y="628.41" width="70" height="70" fill="#222222" stroke="#333333" stroke-width="5" pointer-events="all"/></g><g><rect x="2983.04" y="628.41" width="70" height="70" fill="#222222" stroke="#333333" stroke-width="5" pointer-events="all"/></g><g><rect x="3063.04" y="628.41" width="70" height="70" fill="#222222" stroke="#333333" stroke-width="5" pointer-events="all"/></g><g><rect x="3143.04" y="628.41" width="70" height="70" fill="#222222" stroke="#333333" stroke-width="5" pointer-events="all"/></g><g><rect x="3223.04" y="628.41" width="70" height="70" fill="#222222" stroke="#333333" stroke-width="5" pointer-events="all"/></g><g><rect x="3303.04" y="628.41" width="70" height="70" fill="#222222" stroke="#333333" stroke-width="5" pointer-events="all"/></g><g><rect x="3383.04" y="628.41" width="70" height="70" fill="#222222" stroke="#333333" stroke-width="5" pointer-events="all"/></g><g><rect x="3463.04" y="628.41" width="70" height="70" fill="#222222" stroke="#333333" stroke-width="5" pointer-events="all"/></g><g><rect x="3543.04" y="628.41" width="70" height="70" fill="#222222" stroke="#333333" stroke-width="5" pointer-events="all"/></g><g><rect x="3623.04" y="628.41" width="70" height="70" fill="#222222" stroke="#333333" stroke-width="5" pointer-events="all"/></g><g><rect x="3703.04" y="628.41" width="70" height="70" fill="#222222" stroke="#333333" stroke-width="5" pointer-events="all"/></g><g><rect x="3783.04" y="628.41" width="70" height="70" fill="#222222" stroke="#333333" stroke-width="5" pointer-events="all"/></g><g><rect x="3863.04" y="628.41" width="70" height="70" fill="#222222" stroke="#333333" stroke-width="5" pointer-events="all"/></g><g><rect x="3943.04" y="628.41" width="70" height="70" fill="#222222" stroke="#333333" stroke-width="5" pointer-events="all"/></g><g><rect x="4023.04" y="628.41" width="70" height="70" fill="#222222" stroke="#333333" stroke-width="5" pointer-events="all"/></g><g><rect x="4103.04" y="628.41" width="70" height="70" fill="#222222" stroke="#333333" stroke-width="5" pointer-events="all"/></g><g><rect x="4183.04" y="628.41" width="70" height="70" fill="#222222" stroke="#333333" stroke-width="5" pointer-events="all"/></g><g><rect x="2823.04" y="548.41" width="70" height="70" fill="#222222" stroke="#333333" stroke-width="5" pointer-events="all"/></g><g><rect x="2903.04" y="548.41" width="70" height="70" fill="#222222" stroke="#333333" stroke-width="5" pointer-events="all"/></g><g><rect x="2983.04" y="548.41" width="70" height="70" fill="#222222" stroke="#333333" stroke-width="5" pointer-events="all"/></g><g><rect x="3063.04" y="548.41" width="70" height="70" fill="#222222" stroke="#333333" stroke-width="5" pointer-events="all"/></g><g><rect x="3143.04" y="548.41" width="70" height="70" fill="#222222" stroke="#333333" stroke-width="5" pointer-events="all"/></g><g><rect x="3223.04" y="548.41" width="70" height="70" fill="#222222" stroke="#333333" stroke-width="5" pointer-events="all"/></g><g><rect x="3303.04" y="548.41" width="70" height="70" fill="#222222" stroke="#333333" stroke-width="5" pointer-events="all"/></g><g><rect x="3383.04" y="548.41" width="70" height="70" fill="#222222" stroke="#333333" stroke-width="5" pointer-events="all"/></g><g><rect x="3463.04" y="548.41" width="70" height="70" fill="#222222" stroke="#333333" stroke-width="5" pointer-events="all"/></g><g><rect x="3543.04" y="548.41" width="70" height="70" fill="#222222" stroke="#333333" stroke-width="5" pointer-events="all"/></g><g><rect x="3623.04" y="548.41" width="70" height="70" fill="#222222" stroke="#333333" stroke-width="5" pointer-events="all"/></g><g><rect x="3703.04" y="548.41" width="70" height="70" fill="#222222" stroke="#333333" stroke-width="5" pointer-events="all"/></g><g><rect x="3783.04" y="548.41" width="70" height="70" fill="#222222" stroke="#333333" stroke-width="5" pointer-events="all"/></g><g><rect x="3863.04" y="548.41" width="70" height="70" fill="#222222" stroke="#333333" stroke-width="5" pointer-events="all"/></g><g><rect x="3943.04" y="548.41" width="70" height="70" fill="#222222" stroke="#333333" stroke-width="5" pointer-events="all"/></g><g><rect x="4023.04" y="548.41" width="70" height="70" fill="#222222" stroke="#333333" stroke-width="5" pointer-events="all"/></g><g><rect x="4103.04" y="548.41" width="70" height="70" fill="#222222" stroke="#333333" stroke-width="5" pointer-events="all"/></g><g><rect x="4183.04" y="548.41" width="70" height="70" fill="#222222" stroke="#333333" stroke-width="5" pointer-events="all"/></g><g><rect x="2823.04" y="468.41" width="70" height="70" fill="#222222" stroke="#333333" stroke-width="5" pointer-events="all"/></g><g><rect x="2903.04" y="468.41" width="70" height="70" fill="#222222" stroke="#333333" stroke-width="5" pointer-events="all"/></g><g><rect x="2983.04" y="468.41" width="70" height="70" fill="#222222" stroke="#333333" stroke-width="5" pointer-events="all"/></g><g><rect x="3063.04" y="468.41" width="70" height="70" fill="#222222" stroke="#333333" stroke-width="5" pointer-events="all"/></g><g><rect x="3143.04" y="468.41" width="70" height="70" fill="#222222" stroke="#333333" stroke-width="5" pointer-events="all"/></g><g><rect x="3223.04" y="468.41" width="70" height="70" fill="#222222" stroke="#333333" stroke-width="5" pointer-events="all"/></g><g><rect x="3303.04" y="468.41" width="70" height="70" fill="#222222" stroke="#333333" stroke-width="5" pointer-events="all"/></g><g><rect x="3383.04" y="468.41" width="70" height="70" fill="#222222" stroke="#333333" stroke-width="5" pointer-events="all"/></g><g><rect x="3463.04" y="468.41" width="70" height="70" fill="#222222" stroke="#333333" stroke-width="5" pointer-events="all"/></g><g><rect x="3543.04" y="468.41" width="70" height="70" fill="#222222" stroke="#333333" stroke-width="5" pointer-events="all"/></g><g><rect x="3623.04" y="468.41" width="70" height="70" fill="#222222" stroke="#333333" stroke-width="5" pointer-events="all"/></g><g><rect x="3703.04" y="468.41" width="70" height="70" fill="#222222" stroke="#333333" stroke-width="5" pointer-events="all"/></g><g><rect x="3783.04" y="468.41" width="70" height="70" fill="#222222" stroke="#333333" stroke-width="5" pointer-events="all"/></g><g><rect x="3863.04" y="468.41" width="70" height="70" fill="#222222" stroke="#333333" stroke-width="5" pointer-events="all"/></g><g><rect x="3943.04" y="468.41" width="70" height="70" fill="#222222" stroke="#333333" stroke-width="5" pointer-events="all"/></g><g><rect x="4023.04" y="468.41" width="70" height="70" fill="#222222" stroke="#333333" stroke-width="5" pointer-events="all"/></g><g><rect x="4103.04" y="468.41" width="70" height="70" fill="#222222" stroke="#333333" stroke-width="5" pointer-events="all"/></g><g><rect x="4183.04" y="468.41" width="70" height="70" fill="#222222" stroke="#333333" stroke-width="5" pointer-events="all"/></g><g><rect x="2823.04" y="388.41" width="70" height="70" fill="#222222" stroke="#333333" stroke-width="5" pointer-events="all"/></g><g><rect x="2903.04" y="388.41" width="70" height="70" fill="#222222" stroke="#333333" stroke-width="5" pointer-events="all"/></g><g><rect x="2983.04" y="388.41" width="70" height="70" fill="#222222" stroke="#333333" stroke-width="5" pointer-events="all"/></g><g><rect x="3063.04" y="388.41" width="70" height="70" fill="#222222" stroke="#333333" stroke-width="5" pointer-events="all"/></g><g><rect x="3143.04" y="388.41" width="70" height="70" fill="#333333" stroke="#222222" pointer-events="all"/></g><g><rect x="3223.04" y="388.41" width="70" height="70" fill="#222222" stroke="#333333" stroke-width="5" pointer-events="all"/></g><g><rect x="3303.04" y="388.41" width="70" height="70" fill="#222222" stroke="#333333" stroke-width="5" pointer-events="all"/></g><g><rect x="3383.04" y="388.41" width="70" height="70" fill="#222222" stroke="#333333" stroke-width="5" pointer-events="all"/></g><g><rect x="3463.04" y="388.41" width="70" height="70" fill="#333333" stroke="#222222" pointer-events="all"/></g><g><rect x="3543.04" y="388.41" width="70" height="70" fill="#333333" stroke="#222222" pointer-events="all"/></g><g><rect x="3623.04" y="388.41" width="70" height="70" fill="#222222" stroke="#333333" stroke-width="5" pointer-events="all"/></g><g><rect x="3703.04" y="388.41" width="70" height="70" fill="#222222" stroke="#333333" stroke-width="5" pointer-events="all"/></g><g><rect x="3783.04" y="388.41" width="70" height="70" fill="#222222" stroke="#333333" stroke-width="5" pointer-events="all"/></g><g><rect x="3863.04" y="388.41" width="70" height="70" fill="#333333" stroke="#222222" pointer-events="all"/></g><g><rect x="3943.04" y="388.41" width="70" height="70" fill="#222222" stroke="#333333" stroke-width="5" pointer-events="all"/></g><g><rect x="4023.04" y="388.41" width="70" height="70" fill="#222222" stroke="#333333" stroke-width="5" pointer-events="all"/></g><g><rect x="4103.04" y="388.41" width="70" height="70" fill="#222222" stroke="#333333" stroke-width="5" pointer-events="all"/></g><g><rect x="4183.04" y="388.41" width="70" height="70" fill="#222222" stroke="#333333" stroke-width="5" pointer-events="all"/></g></g></svg>