<?xml version="1.0" encoding="UTF-8"?>
<!DOCTYPE svg PUBLIC "-//W3C//DTD SVG 1.1//EN" "http://www.w3.org/Graphics/SVG/1.1/DTD/svg11.dtd">
<svg xmlns="http://www.w3.org/2000/svg" xmlns:xlink="http://www.w3.org/1999/xlink" version="1.1" width="484px" height="90px" viewBox="-0.5 -0.5 484 90"><defs><style type="text/css">@import url("https://fonts.googleapis.com/css?family=Titillium+Web");</style><style type="text/css"/></defs><g><g/><g><rect x="0" y="0" width="482.6" height="88.9" fill="#bfbfbf" stroke="#aaaaaa" pointer-events="all"/></g><g><rect x="18" y="0" width="446.6" height="88.9" fill="#222222" stroke="#aaaaaa" pointer-events="all"/></g><g/><g/><g><rect x="7" y="66.95" width="4" height="6" fill="#000000" stroke="none" pointer-events="all"/></g><g><ellipse cx="11" cy="69.95" rx="3" ry="3" fill="#000000" stroke="none" pointer-events="all"/></g><g><ellipse cx="7" cy="69.95" rx="3" ry="3" fill="#000000" stroke="none" pointer-events="all"/></g><g/><g><rect x="7" y="16.05" width="4" height="6" fill="#000000" stroke="none" pointer-events="all"/></g><g><ellipse cx="11" cy="19.05" rx="3" ry="3" fill="#000000" stroke="none" pointer-events="all"/></g><g><ellipse cx="7" cy="19.05" rx="3" ry="3" fill="#000000" stroke="none" pointer-events="all"/></g><g><rect x="8" y="6" width="10" height="77" fill="#bfbfbf" stroke="#aaaaaa" pointer-events="all"/></g><g/><g/><g><rect x="471.6" y="66.95" width="4" height="6" fill="#000000" stroke="none" pointer-events="all"/></g><g><ellipse cx="475.6" cy="69.95" rx="3" ry="3" fill="#000000" stroke="none" pointer-events="all"/></g><g><ellipse cx="471.6" cy="69.95" rx="3" ry="3" fill="#000000" stroke="none" pointer-events="all"/></g><g/><g><rect x="471.6" y="16.05" width="4" height="6" fill="#000000" stroke="none" pointer-events="all"/></g><g><ellipse cx="475.6" cy="19.05" rx="3" ry="3" fill="#000000" stroke="none" pointer-events="all"/></g><g><ellipse cx="471.6" cy="19.05" rx="3" ry="3" fill="#000000" stroke="none" pointer-events="all"/></g><g><rect x="464.6" y="6" width="10" height="77" fill="#bfbfbf" stroke="#aaaaaa" pointer-events="all"/></g><g><rect x="19.83" y="60.27" width="109.95" height="26.18" fill="#333333" stroke="none" pointer-events="all"/></g><g><rect x="22.97" y="63.42" width="101.57" height="19.9" fill="#222222" stroke="#222222" stroke-width="0.5" pointer-events="all"/></g><g><rect x="125.07" y="81.74" width="4.19" height="3.14" rx="0.47" ry="0.47" fill="#60a917" stroke="#222222" stroke-width="0.1" transform="rotate(90,127.16,83.31)" pointer-events="all"/></g><g><rect x="125.07" y="72.32" width="4.19" height="3.14" rx="0.47" ry="0.47" fill="#0050ef" stroke="#222222" stroke-width="0.1" transform="rotate(90,127.16,73.89)" pointer-events="all"/></g><g><rect x="98.37" y="66.56" width="8.38" height="13.61" rx="1.26" ry="1.26" fill="#0050ef" stroke="none" pointer-events="all"/></g><g><path d="M 105.7 66.56 Q 108.84 66.56 108.84 73.36 Q 108.84 80.17 105.7 80.17 Z" fill="#0050ef" stroke="none" pointer-events="all"/></g><g><path d="M 127.16 69.14 C 127.25 69.14 127.32 69.07 127.32 68.99 L 127.32 68.36 C 127.32 68.28 127.26 68.2 127.17 68.2 C 127.08 68.2 127.01 68.27 127.01 68.34 L 127.01 68.99 C 127.01 69.07 127.08 69.14 127.16 69.14 Z M 127.16 70.15 C 127.66 70.15 128.07 69.75 128.07 69.25 C 128.07 69 127.98 68.72 127.71 68.52 C 127.66 68.48 127.55 68.5 127.51 68.56 C 127.46 68.63 127.46 68.72 127.53 68.78 C 127.67 68.89 127.76 69.06 127.76 69.24 C 127.76 69.58 127.47 69.83 127.17 69.83 C 126.88 69.83 126.59 69.62 126.57 69.25 C 126.57 69.09 126.65 68.88 126.81 68.77 C 126.86 68.73 126.88 68.63 126.82 68.56 C 126.75 68.48 126.66 68.49 126.61 68.53 C 126.38 68.72 126.27 68.93 126.26 69.23 C 126.26 69.78 126.68 70.15 127.16 70.15 Z M 127.16 70.75 C 126.27 70.75 125.59 70.02 125.59 69.17 C 125.59 68.31 126.3 67.6 127.18 67.6 C 127.99 67.6 128.73 68.26 128.73 69.17 C 128.73 70.11 127.98 70.75 127.16 70.75 Z" fill="none" stroke="#222222" stroke-width="0.1" stroke-miterlimit="10" pointer-events="all"/></g><g><path d="M 125.59 79.65 L 125.59 77.55 C 125.59 77.26 126.3 77.03 127.16 77.03 C 128.03 77.03 128.73 77.26 128.73 77.55 L 128.73 79.65 C 128.73 79.94 128.03 80.17 127.16 80.17 C 126.3 80.17 125.59 79.94 125.59 79.65 Z" fill="none" stroke="#222222" stroke-width="0.1" stroke-miterlimit="10" pointer-events="all"/><path d="M 125.59 77.55 C 125.59 77.84 126.3 78.08 127.16 78.08 C 128.03 78.08 128.73 77.84 128.73 77.55" fill="none" stroke="#222222" stroke-width="0.1" stroke-miterlimit="10" pointer-events="all"/></g><g><rect x="22.97" y="63.42" width="80.63" height="19.9" fill="#333333" stroke="none" pointer-events="all"/></g><g><rect x="88.94" y="66.03" width="4.19" height="14.66" fill="#2d2d2d" stroke="none" pointer-events="all"/></g><g><rect x="29.25" y="66.03" width="4.19" height="14.66" fill="#2d2d2d" stroke="none" pointer-events="all"/></g><g><rect x="33.44" y="66.03" width="55.5" height="2.09" fill="#222222" stroke="none" pointer-events="all"/></g><g><rect x="33.44" y="70.22" width="55.5" height="2.09" fill="#222222" stroke="none" pointer-events="all"/></g><g><rect x="33.44" y="74.41" width="55.5" height="2.09" fill="#222222" stroke="none" pointer-events="all"/></g><g><rect x="33.44" y="78.6" width="55.5" height="2.09" fill="#222222" stroke="none" pointer-events="all"/></g><g><rect x="50.2" y="66.03" width="2.09" height="14.66" fill="#2d2d2d" stroke="none" pointer-events="all"/></g><g><rect x="70.09" y="66.03" width="2.09" height="14.66" fill="#2d2d2d" stroke="none" pointer-events="all"/></g><g><rect x="33.44" y="76.5" width="55.5" height="2.09" fill="#333333" stroke="none" pointer-events="all"/></g><g><rect x="33.44" y="72.32" width="55.5" height="2.09" fill="#333333" stroke="none" pointer-events="all"/></g><g><rect x="33.44" y="68.13" width="55.5" height="2.09" fill="#333333" stroke="none" pointer-events="all"/></g><g><rect x="130.83" y="60.27" width="109.95" height="26.18" fill="#333333" stroke="none" pointer-events="all"/></g><g><rect x="133.97" y="63.42" width="101.57" height="19.9" fill="#222222" stroke="#222222" stroke-width="0.5" pointer-events="all"/></g><g><rect x="236.07" y="81.74" width="4.19" height="3.14" rx="0.47" ry="0.47" fill="#60a917" stroke="#222222" stroke-width="0.1" transform="rotate(90,238.16,83.31)" pointer-events="all"/></g><g><rect x="236.07" y="72.32" width="4.19" height="3.14" rx="0.47" ry="0.47" fill="#0050ef" stroke="#222222" stroke-width="0.1" transform="rotate(90,238.16,73.89)" pointer-events="all"/></g><g><rect x="209.37" y="66.56" width="8.38" height="13.61" rx="1.26" ry="1.26" fill="#0050ef" stroke="none" pointer-events="all"/></g><g><path d="M 216.7 66.56 Q 219.84 66.56 219.84 73.36 Q 219.84 80.17 216.7 80.17 Z" fill="#0050ef" stroke="none" pointer-events="all"/></g><g><path d="M 238.16 69.14 C 238.25 69.14 238.32 69.07 238.32 68.99 L 238.32 68.36 C 238.32 68.28 238.26 68.2 238.17 68.2 C 238.07 68.2 238.01 68.27 238.01 68.34 L 238.01 68.99 C 238.01 69.07 238.08 69.14 238.16 69.14 Z M 238.16 70.15 C 238.66 70.15 239.07 69.75 239.07 69.25 C 239.07 69 238.98 68.72 238.71 68.52 C 238.66 68.48 238.55 68.5 238.51 68.56 C 238.46 68.63 238.46 68.72 238.53 68.78 C 238.67 68.89 238.76 69.06 238.76 69.24 C 238.76 69.58 238.46 69.83 238.17 69.83 C 237.88 69.83 237.59 69.62 237.57 69.25 C 237.57 69.09 237.65 68.88 237.81 68.77 C 237.86 68.73 237.88 68.63 237.81 68.56 C 237.75 68.48 237.65 68.49 237.61 68.53 C 237.38 68.72 237.27 68.93 237.26 69.23 C 237.26 69.78 237.68 70.15 238.16 70.15 Z M 238.16 70.75 C 237.27 70.75 236.59 70.02 236.59 69.17 C 236.59 68.31 237.3 67.6 238.18 67.6 C 238.99 67.6 239.73 68.26 239.73 69.17 C 239.73 70.11 238.98 70.75 238.16 70.75 Z" fill="none" stroke="#222222" stroke-width="0.1" stroke-miterlimit="10" pointer-events="all"/></g><g><path d="M 236.59 79.65 L 236.59 77.55 C 236.59 77.26 237.3 77.03 238.16 77.03 C 239.03 77.03 239.73 77.26 239.73 77.55 L 239.73 79.65 C 239.73 79.94 239.03 80.17 238.16 80.17 C 237.3 80.17 236.59 79.94 236.59 79.65 Z" fill="none" stroke="#222222" stroke-width="0.1" stroke-miterlimit="10" pointer-events="all"/><path d="M 236.59 77.55 C 236.59 77.84 237.3 78.08 238.16 78.08 C 239.03 78.08 239.73 77.84 239.73 77.55" fill="none" stroke="#222222" stroke-width="0.1" stroke-miterlimit="10" pointer-events="all"/></g><g><rect x="133.97" y="63.42" width="80.63" height="19.9" fill="#333333" stroke="none" pointer-events="all"/></g><g><rect x="199.94" y="66.03" width="4.19" height="14.66" fill="#2d2d2d" stroke="none" pointer-events="all"/></g><g><rect x="140.25" y="66.03" width="4.19" height="14.66" fill="#2d2d2d" stroke="none" pointer-events="all"/></g><g><rect x="144.44" y="66.03" width="55.5" height="2.09" fill="#222222" stroke="none" pointer-events="all"/></g><g><rect x="144.44" y="70.22" width="55.5" height="2.09" fill="#222222" stroke="none" pointer-events="all"/></g><g><rect x="144.44" y="74.41" width="55.5" height="2.09" fill="#222222" stroke="none" pointer-events="all"/></g><g><rect x="144.44" y="78.6" width="55.5" height="2.09" fill="#222222" stroke="none" pointer-events="all"/></g><g><rect x="161.2" y="66.03" width="2.09" height="14.66" fill="#2d2d2d" stroke="none" pointer-events="all"/></g><g><rect x="181.09" y="66.03" width="2.09" height="14.66" fill="#2d2d2d" stroke="none" pointer-events="all"/></g><g><rect x="144.44" y="76.5" width="55.5" height="2.09" fill="#333333" stroke="none" pointer-events="all"/></g><g><rect x="144.44" y="72.32" width="55.5" height="2.09" fill="#333333" stroke="none" pointer-events="all"/></g><g><rect x="144.44" y="68.13" width="55.5" height="2.09" fill="#333333" stroke="none" pointer-events="all"/></g><g><rect x="241.83" y="60.27" width="109.95" height="26.18" fill="#333333" stroke="none" pointer-events="all"/></g><g><rect x="244.97" y="63.42" width="101.57" height="19.9" fill="#222222" stroke="#222222" stroke-width="0.5" pointer-events="all"/></g><g><rect x="347.07" y="81.74" width="4.19" height="3.14" rx="0.47" ry="0.47" fill="#60a917" stroke="#222222" stroke-width="0.1" transform="rotate(90,349.16,83.31)" pointer-events="all"/></g><g><rect x="347.07" y="72.32" width="4.19" height="3.14" rx="0.47" ry="0.47" fill="#0050ef" stroke="#222222" stroke-width="0.1" transform="rotate(90,349.16,73.89)" pointer-events="all"/></g><g><rect x="320.37" y="66.56" width="8.38" height="13.61" rx="1.26" ry="1.26" fill="#0050ef" stroke="none" pointer-events="all"/></g><g><path d="M 327.7 66.56 Q 330.84 66.56 330.84 73.36 Q 330.84 80.17 327.7 80.17 Z" fill="#0050ef" stroke="none" pointer-events="all"/></g><g><path d="M 349.16 69.14 C 349.25 69.14 349.32 69.07 349.32 68.99 L 349.32 68.36 C 349.32 68.28 349.26 68.2 349.17 68.2 C 349.07 68.2 349.01 68.27 349.01 68.34 L 349.01 68.99 C 349.01 69.07 349.08 69.14 349.16 69.14 Z M 349.16 70.15 C 349.66 70.15 350.07 69.75 350.07 69.25 C 350.07 69 349.98 68.72 349.71 68.52 C 349.66 68.48 349.55 68.5 349.51 68.56 C 349.46 68.63 349.46 68.72 349.53 68.78 C 349.67 68.89 349.76 69.06 349.76 69.24 C 349.76 69.58 349.46 69.83 349.17 69.83 C 348.88 69.83 348.59 69.62 348.57 69.25 C 348.57 69.09 348.65 68.88 348.8 68.77 C 348.86 68.73 348.88 68.63 348.81 68.56 C 348.75 68.48 348.65 68.49 348.61 68.53 C 348.38 68.72 348.27 68.93 348.26 69.23 C 348.26 69.78 348.68 70.15 349.16 70.15 Z M 349.16 70.75 C 348.27 70.75 347.59 70.02 347.59 69.17 C 347.59 68.31 348.29 67.6 349.18 67.6 C 349.99 67.6 350.73 68.26 350.73 69.17 C 350.73 70.11 349.98 70.75 349.16 70.75 Z" fill="none" stroke="#222222" stroke-width="0.1" stroke-miterlimit="10" pointer-events="all"/></g><g><path d="M 347.59 79.65 L 347.59 77.55 C 347.59 77.26 348.3 77.03 349.16 77.03 C 350.03 77.03 350.73 77.26 350.73 77.55 L 350.73 79.65 C 350.73 79.94 350.03 80.17 349.16 80.17 C 348.3 80.17 347.59 79.94 347.59 79.65 Z" fill="none" stroke="#222222" stroke-width="0.1" stroke-miterlimit="10" pointer-events="all"/><path d="M 347.59 77.55 C 347.59 77.84 348.3 78.08 349.16 78.08 C 350.03 78.08 350.73 77.84 350.73 77.55" fill="none" stroke="#222222" stroke-width="0.1" stroke-miterlimit="10" pointer-events="all"/></g><g><rect x="244.97" y="63.42" width="80.63" height="19.9" fill="#333333" stroke="none" pointer-events="all"/></g><g><rect x="310.94" y="66.03" width="4.19" height="14.66" fill="#2d2d2d" stroke="none" pointer-events="all"/></g><g><rect x="251.25" y="66.03" width="4.19" height="14.66" fill="#2d2d2d" stroke="none" pointer-events="all"/></g><g><rect x="255.44" y="66.03" width="55.5" height="2.09" fill="#222222" stroke="none" pointer-events="all"/></g><g><rect x="255.44" y="70.22" width="55.5" height="2.09" fill="#222222" stroke="none" pointer-events="all"/></g><g><rect x="255.44" y="74.41" width="55.5" height="2.09" fill="#222222" stroke="none" pointer-events="all"/></g><g><rect x="255.44" y="78.6" width="55.5" height="2.09" fill="#222222" stroke="none" pointer-events="all"/></g><g><rect x="272.2" y="66.03" width="2.09" height="14.66" fill="#2d2d2d" stroke="none" pointer-events="all"/></g><g><rect x="292.09" y="66.03" width="2.09" height="14.66" fill="#2d2d2d" stroke="none" pointer-events="all"/></g><g><rect x="255.44" y="76.5" width="55.5" height="2.09" fill="#333333" stroke="none" pointer-events="all"/></g><g><rect x="255.44" y="72.32" width="55.5" height="2.09" fill="#333333" stroke="none" pointer-events="all"/></g><g><rect x="255.44" y="68.13" width="55.5" height="2.09" fill="#333333" stroke="none" pointer-events="all"/></g><g><rect x="352.83" y="60.27" width="109.95" height="26.18" fill="#333333" stroke="none" pointer-events="all"/></g><g><rect x="355.97" y="63.42" width="101.57" height="19.9" fill="#222222" stroke="#222222" stroke-width="0.5" pointer-events="all"/></g><g><rect x="458.07" y="81.74" width="4.19" height="3.14" rx="0.47" ry="0.47" fill="#60a917" stroke="#222222" stroke-width="0.1" transform="rotate(90,460.16,83.31)" pointer-events="all"/></g><g><rect x="458.07" y="72.32" width="4.19" height="3.14" rx="0.47" ry="0.47" fill="#0050ef" stroke="#222222" stroke-width="0.1" transform="rotate(90,460.16,73.89)" pointer-events="all"/></g><g><rect x="431.37" y="66.56" width="8.38" height="13.61" rx="1.26" ry="1.26" fill="#0050ef" stroke="none" pointer-events="all"/></g><g><path d="M 438.7 66.56 Q 441.84 66.56 441.84 73.36 Q 441.84 80.17 438.7 80.17 Z" fill="#0050ef" stroke="none" pointer-events="all"/></g><g><path d="M 460.16 69.14 C 460.25 69.14 460.32 69.07 460.32 68.99 L 460.32 68.36 C 460.32 68.28 460.26 68.2 460.17 68.2 C 460.07 68.2 460.01 68.27 460.01 68.34 L 460.01 68.99 C 460.01 69.07 460.08 69.14 460.16 69.14 Z M 460.16 70.15 C 460.66 70.15 461.07 69.75 461.07 69.25 C 461.07 69 460.98 68.72 460.7 68.52 C 460.65 68.48 460.55 68.5 460.51 68.56 C 460.46 68.63 460.46 68.72 460.53 68.78 C 460.67 68.89 460.76 69.06 460.76 69.24 C 460.76 69.58 460.46 69.83 460.17 69.83 C 459.88 69.83 459.59 69.62 459.57 69.25 C 459.57 69.09 459.65 68.88 459.8 68.77 C 459.86 68.73 459.88 68.63 459.81 68.56 C 459.75 68.48 459.65 68.49 459.61 68.53 C 459.38 68.72 459.27 68.93 459.26 69.23 C 459.26 69.78 459.68 70.15 460.16 70.15 Z M 460.16 70.75 C 459.27 70.75 458.59 70.02 458.59 69.17 C 458.59 68.31 459.29 67.6 460.18 67.6 C 460.99 67.6 461.73 68.26 461.73 69.17 C 461.73 70.11 460.98 70.75 460.16 70.75 Z" fill="none" stroke="#222222" stroke-width="0.1" stroke-miterlimit="10" pointer-events="all"/></g><g><path d="M 458.59 79.65 L 458.59 77.55 C 458.59 77.26 459.29 77.03 460.16 77.03 C 461.03 77.03 461.73 77.26 461.73 77.55 L 461.73 79.65 C 461.73 79.94 461.03 80.17 460.16 80.17 C 459.29 80.17 458.59 79.94 458.59 79.65 Z" fill="none" stroke="#222222" stroke-width="0.1" stroke-miterlimit="10" pointer-events="all"/><path d="M 458.59 77.55 C 458.59 77.84 459.29 78.08 460.16 78.08 C 461.03 78.08 461.73 77.84 461.73 77.55" fill="none" stroke="#222222" stroke-width="0.1" stroke-miterlimit="10" pointer-events="all"/></g><g><rect x="355.97" y="63.42" width="80.63" height="19.9" fill="#333333" stroke="none" pointer-events="all"/></g><g><rect x="421.94" y="66.03" width="4.19" height="14.66" fill="#2d2d2d" stroke="none" pointer-events="all"/></g><g><rect x="362.25" y="66.03" width="4.19" height="14.66" fill="#2d2d2d" stroke="none" pointer-events="all"/></g><g><rect x="366.44" y="66.03" width="55.5" height="2.09" fill="#222222" stroke="none" pointer-events="all"/></g><g><rect x="366.44" y="70.22" width="55.5" height="2.09" fill="#222222" stroke="none" pointer-events="all"/></g><g><rect x="366.44" y="74.41" width="55.5" height="2.09" fill="#222222" stroke="none" pointer-events="all"/></g><g><rect x="366.44" y="78.6" width="55.5" height="2.09" fill="#222222" stroke="none" pointer-events="all"/></g><g><rect x="383.2" y="66.03" width="2.09" height="14.66" fill="#2d2d2d" stroke="none" pointer-events="all"/></g><g><rect x="403.09" y="66.03" width="2.09" height="14.66" fill="#2d2d2d" stroke="none" pointer-events="all"/></g><g><rect x="366.44" y="76.5" width="55.5" height="2.09" fill="#333333" stroke="none" pointer-events="all"/></g><g><rect x="366.44" y="72.32" width="55.5" height="2.09" fill="#333333" stroke="none" pointer-events="all"/></g><g><rect x="366.44" y="68.13" width="55.5" height="2.09" fill="#333333" stroke="none" pointer-events="all"/></g><g><rect x="19.83" y="32" width="109.95" height="26.18" fill="#333333" stroke="none" pointer-events="all"/></g><g><rect x="22.97" y="35.14" width="101.57" height="19.9" fill="#222222" stroke="#222222" stroke-width="0.5" pointer-events="all"/></g><g><rect x="125.07" y="53.47" width="4.19" height="3.14" rx="0.47" ry="0.47" fill="#60a917" stroke="#222222" stroke-width="0.1" transform="rotate(90,127.16,55.04)" pointer-events="all"/></g><g><rect x="125.07" y="44.04" width="4.19" height="3.14" rx="0.47" ry="0.47" fill="#0050ef" stroke="#222222" stroke-width="0.1" transform="rotate(90,127.16,45.61)" pointer-events="all"/></g><g><rect x="98.37" y="38.28" width="8.38" height="13.61" rx="1.26" ry="1.26" fill="#0050ef" stroke="none" pointer-events="all"/></g><g><path d="M 105.7 38.28 Q 108.84 38.28 108.84 45.09 Q 108.84 51.9 105.7 51.9 Z" fill="#0050ef" stroke="none" pointer-events="all"/></g><g><path d="M 127.16 40.87 C 127.25 40.87 127.32 40.8 127.32 40.71 L 127.32 40.08 C 127.32 40 127.26 39.93 127.17 39.93 C 127.08 39.93 127.01 40 127.01 40.07 L 127.01 40.71 C 127.01 40.8 127.08 40.87 127.16 40.87 Z M 127.16 41.88 C 127.66 41.88 128.07 41.48 128.07 40.98 C 128.07 40.73 127.98 40.45 127.71 40.25 C 127.66 40.21 127.55 40.23 127.51 40.29 C 127.46 40.35 127.46 40.44 127.53 40.51 C 127.67 40.62 127.76 40.79 127.76 40.96 C 127.76 41.31 127.47 41.56 127.17 41.56 C 126.88 41.56 126.59 41.35 126.57 40.97 C 126.57 40.82 126.65 40.61 126.81 40.5 C 126.86 40.46 126.88 40.36 126.82 40.28 C 126.75 40.21 126.66 40.22 126.61 40.25 C 126.38 40.44 126.27 40.66 126.26 40.95 C 126.26 41.5 126.68 41.88 127.16 41.88 Z M 127.16 42.47 C 126.27 42.47 125.59 41.75 125.59 40.89 C 125.59 40.04 126.3 39.33 127.18 39.33 C 127.99 39.33 128.73 39.99 128.73 40.89 C 128.73 41.84 127.98 42.47 127.16 42.47 Z" fill="none" stroke="#222222" stroke-width="0.1" stroke-miterlimit="10" pointer-events="all"/></g><g><path d="M 125.59 51.37 L 125.59 49.28 C 125.59 48.99 126.3 48.75 127.16 48.75 C 128.03 48.75 128.73 48.99 128.73 49.28 L 128.73 51.37 C 128.73 51.66 128.03 51.9 127.16 51.9 C 126.3 51.9 125.59 51.66 125.59 51.37 Z" fill="none" stroke="#222222" stroke-width="0.1" stroke-miterlimit="10" pointer-events="all"/><path d="M 125.59 49.28 C 125.59 49.57 126.3 49.8 127.16 49.8 C 128.03 49.8 128.73 49.57 128.73 49.28" fill="none" stroke="#222222" stroke-width="0.1" stroke-miterlimit="10" pointer-events="all"/></g><g><rect x="22.97" y="35.14" width="80.63" height="19.9" fill="#333333" stroke="none" pointer-events="all"/></g><g><rect x="88.94" y="37.76" width="4.19" height="14.66" fill="#2d2d2d" stroke="none" pointer-events="all"/></g><g><rect x="29.25" y="37.76" width="4.19" height="14.66" fill="#2d2d2d" stroke="none" pointer-events="all"/></g><g><rect x="33.44" y="37.76" width="55.5" height="2.09" fill="#222222" stroke="none" pointer-events="all"/></g><g><rect x="33.44" y="41.95" width="55.5" height="2.09" fill="#222222" stroke="none" pointer-events="all"/></g><g><rect x="33.44" y="46.14" width="55.5" height="2.09" fill="#222222" stroke="none" pointer-events="all"/></g><g><rect x="33.44" y="50.33" width="55.5" height="2.09" fill="#222222" stroke="none" pointer-events="all"/></g><g><rect x="50.2" y="37.76" width="2.09" height="14.66" fill="#2d2d2d" stroke="none" pointer-events="all"/></g><g><rect x="70.09" y="37.76" width="2.09" height="14.66" fill="#2d2d2d" stroke="none" pointer-events="all"/></g><g><rect x="33.44" y="48.23" width="55.5" height="2.09" fill="#333333" stroke="none" pointer-events="all"/></g><g><rect x="33.44" y="44.04" width="55.5" height="2.09" fill="#333333" stroke="none" pointer-events="all"/></g><g><rect x="33.44" y="39.85" width="55.5" height="2.09" fill="#333333" stroke="none" pointer-events="all"/></g><g><rect x="130.83" y="32" width="109.95" height="26.18" fill="#333333" stroke="none" pointer-events="all"/></g><g><rect x="133.97" y="35.14" width="101.57" height="19.9" fill="#222222" stroke="#222222" stroke-width="0.5" pointer-events="all"/></g><g><rect x="236.07" y="53.47" width="4.19" height="3.14" rx="0.47" ry="0.47" fill="#60a917" stroke="#222222" stroke-width="0.1" transform="rotate(90,238.16,55.04)" pointer-events="all"/></g><g><rect x="236.07" y="44.04" width="4.19" height="3.14" rx="0.47" ry="0.47" fill="#0050ef" stroke="#222222" stroke-width="0.1" transform="rotate(90,238.16,45.61)" pointer-events="all"/></g><g><rect x="209.37" y="38.28" width="8.38" height="13.61" rx="1.26" ry="1.26" fill="#0050ef" stroke="none" pointer-events="all"/></g><g><path d="M 216.7 38.28 Q 219.84 38.28 219.84 45.09 Q 219.84 51.9 216.7 51.9 Z" fill="#0050ef" stroke="none" pointer-events="all"/></g><g><path d="M 238.16 40.87 C 238.25 40.87 238.32 40.8 238.32 40.71 L 238.32 40.08 C 238.32 40 238.26 39.93 238.17 39.93 C 238.07 39.93 238.01 40 238.01 40.07 L 238.01 40.71 C 238.01 40.8 238.08 40.87 238.16 40.87 Z M 238.16 41.88 C 238.66 41.88 239.07 41.48 239.07 40.98 C 239.07 40.73 238.98 40.45 238.71 40.25 C 238.66 40.21 238.55 40.23 238.51 40.29 C 238.46 40.35 238.46 40.44 238.53 40.51 C 238.67 40.62 238.76 40.79 238.76 40.96 C 238.76 41.31 238.46 41.56 238.17 41.56 C 237.88 41.56 237.59 41.35 237.57 40.97 C 237.57 40.82 237.65 40.61 237.81 40.5 C 237.86 40.46 237.88 40.36 237.81 40.28 C 237.75 40.21 237.65 40.22 237.61 40.25 C 237.38 40.44 237.27 40.66 237.26 40.95 C 237.26 41.5 237.68 41.88 238.16 41.88 Z M 238.16 42.47 C 237.27 42.47 236.59 41.75 236.59 40.89 C 236.59 40.04 237.3 39.33 238.18 39.33 C 238.99 39.33 239.73 39.99 239.73 40.89 C 239.73 41.84 238.98 42.47 238.16 42.47 Z" fill="none" stroke="#222222" stroke-width="0.1" stroke-miterlimit="10" pointer-events="all"/></g><g><path d="M 236.59 51.37 L 236.59 49.28 C 236.59 48.99 237.3 48.75 238.16 48.75 C 239.03 48.75 239.73 48.99 239.73 49.28 L 239.73 51.37 C 239.73 51.66 239.03 51.9 238.16 51.9 C 237.3 51.9 236.59 51.66 236.59 51.37 Z" fill="none" stroke="#222222" stroke-width="0.1" stroke-miterlimit="10" pointer-events="all"/><path d="M 236.59 49.28 C 236.59 49.57 237.3 49.8 238.16 49.8 C 239.03 49.8 239.73 49.57 239.73 49.28" fill="none" stroke="#222222" stroke-width="0.1" stroke-miterlimit="10" pointer-events="all"/></g><g><rect x="133.97" y="35.14" width="80.63" height="19.9" fill="#333333" stroke="none" pointer-events="all"/></g><g><rect x="199.94" y="37.76" width="4.19" height="14.66" fill="#2d2d2d" stroke="none" pointer-events="all"/></g><g><rect x="140.25" y="37.76" width="4.19" height="14.66" fill="#2d2d2d" stroke="none" pointer-events="all"/></g><g><rect x="144.44" y="37.76" width="55.5" height="2.09" fill="#222222" stroke="none" pointer-events="all"/></g><g><rect x="144.44" y="41.95" width="55.5" height="2.09" fill="#222222" stroke="none" pointer-events="all"/></g><g><rect x="144.44" y="46.14" width="55.5" height="2.09" fill="#222222" stroke="none" pointer-events="all"/></g><g><rect x="144.44" y="50.33" width="55.5" height="2.09" fill="#222222" stroke="none" pointer-events="all"/></g><g><rect x="161.2" y="37.76" width="2.09" height="14.66" fill="#2d2d2d" stroke="none" pointer-events="all"/></g><g><rect x="181.09" y="37.76" width="2.09" height="14.66" fill="#2d2d2d" stroke="none" pointer-events="all"/></g><g><rect x="144.44" y="48.23" width="55.5" height="2.09" fill="#333333" stroke="none" pointer-events="all"/></g><g><rect x="144.44" y="44.04" width="55.5" height="2.09" fill="#333333" stroke="none" pointer-events="all"/></g><g><rect x="144.44" y="39.85" width="55.5" height="2.09" fill="#333333" stroke="none" pointer-events="all"/></g><g><rect x="241.83" y="32" width="109.95" height="26.18" fill="#333333" stroke="none" pointer-events="all"/></g><g><rect x="244.97" y="35.14" width="101.57" height="19.9" fill="#222222" stroke="#222222" stroke-width="0.5" pointer-events="all"/></g><g><rect x="347.07" y="53.47" width="4.19" height="3.14" rx="0.47" ry="0.47" fill="#60a917" stroke="#222222" stroke-width="0.1" transform="rotate(90,349.16,55.04)" pointer-events="all"/></g><g><rect x="347.07" y="44.04" width="4.19" height="3.14" rx="0.47" ry="0.47" fill="#0050ef" stroke="#222222" stroke-width="0.1" transform="rotate(90,349.16,45.61)" pointer-events="all"/></g><g><rect x="320.37" y="38.28" width="8.38" height="13.61" rx="1.26" ry="1.26" fill="#0050ef" stroke="none" pointer-events="all"/></g><g><path d="M 327.7 38.28 Q 330.84 38.28 330.84 45.09 Q 330.84 51.9 327.7 51.9 Z" fill="#0050ef" stroke="none" pointer-events="all"/></g><g><path d="M 349.16 40.87 C 349.25 40.87 349.32 40.8 349.32 40.71 L 349.32 40.08 C 349.32 40 349.26 39.93 349.17 39.93 C 349.07 39.93 349.01 40 349.01 40.07 L 349.01 40.71 C 349.01 40.8 349.08 40.87 349.16 40.87 Z M 349.16 41.88 C 349.66 41.88 350.07 41.48 350.07 40.98 C 350.07 40.73 349.98 40.45 349.71 40.25 C 349.66 40.21 349.55 40.23 349.51 40.29 C 349.46 40.35 349.46 40.44 349.53 40.51 C 349.67 40.62 349.76 40.79 349.76 40.96 C 349.76 41.31 349.46 41.56 349.17 41.56 C 348.88 41.56 348.59 41.35 348.57 40.97 C 348.57 40.82 348.65 40.61 348.8 40.5 C 348.86 40.46 348.88 40.36 348.81 40.28 C 348.75 40.21 348.65 40.22 348.61 40.25 C 348.38 40.44 348.27 40.66 348.26 40.95 C 348.26 41.5 348.68 41.88 349.16 41.88 Z M 349.16 42.47 C 348.27 42.47 347.59 41.75 347.59 40.89 C 347.59 40.04 348.29 39.33 349.18 39.33 C 349.99 39.33 350.73 39.99 350.73 40.89 C 350.73 41.84 349.98 42.47 349.16 42.47 Z" fill="none" stroke="#222222" stroke-width="0.1" stroke-miterlimit="10" pointer-events="all"/></g><g><path d="M 347.59 51.37 L 347.59 49.28 C 347.59 48.99 348.3 48.75 349.16 48.75 C 350.03 48.75 350.73 48.99 350.73 49.28 L 350.73 51.37 C 350.73 51.66 350.03 51.9 349.16 51.9 C 348.3 51.9 347.59 51.66 347.59 51.37 Z" fill="none" stroke="#222222" stroke-width="0.1" stroke-miterlimit="10" pointer-events="all"/><path d="M 347.59 49.28 C 347.59 49.57 348.3 49.8 349.16 49.8 C 350.03 49.8 350.73 49.57 350.73 49.28" fill="none" stroke="#222222" stroke-width="0.1" stroke-miterlimit="10" pointer-events="all"/></g><g><rect x="244.97" y="35.14" width="80.63" height="19.9" fill="#333333" stroke="none" pointer-events="all"/></g><g><rect x="310.94" y="37.76" width="4.19" height="14.66" fill="#2d2d2d" stroke="none" pointer-events="all"/></g><g><rect x="251.25" y="37.76" width="4.19" height="14.66" fill="#2d2d2d" stroke="none" pointer-events="all"/></g><g><rect x="255.44" y="37.76" width="55.5" height="2.09" fill="#222222" stroke="none" pointer-events="all"/></g><g><rect x="255.44" y="41.95" width="55.5" height="2.09" fill="#222222" stroke="none" pointer-events="all"/></g><g><rect x="255.44" y="46.14" width="55.5" height="2.09" fill="#222222" stroke="none" pointer-events="all"/></g><g><rect x="255.44" y="50.33" width="55.5" height="2.09" fill="#222222" stroke="none" pointer-events="all"/></g><g><rect x="272.2" y="37.76" width="2.09" height="14.66" fill="#2d2d2d" stroke="none" pointer-events="all"/></g><g><rect x="292.09" y="37.76" width="2.09" height="14.66" fill="#2d2d2d" stroke="none" pointer-events="all"/></g><g><rect x="255.44" y="48.23" width="55.5" height="2.09" fill="#333333" stroke="none" pointer-events="all"/></g><g><rect x="255.44" y="44.04" width="55.5" height="2.09" fill="#333333" stroke="none" pointer-events="all"/></g><g><rect x="255.44" y="39.85" width="55.5" height="2.09" fill="#333333" stroke="none" pointer-events="all"/></g><g><rect x="352.83" y="32" width="109.95" height="26.18" fill="#333333" stroke="none" pointer-events="all"/></g><g><rect x="355.97" y="35.14" width="101.57" height="19.9" fill="#222222" stroke="#222222" stroke-width="0.5" pointer-events="all"/></g><g><rect x="458.07" y="53.47" width="4.19" height="3.14" rx="0.47" ry="0.47" fill="#60a917" stroke="#222222" stroke-width="0.1" transform="rotate(90,460.16,55.04)" pointer-events="all"/></g><g><rect x="458.07" y="44.04" width="4.19" height="3.14" rx="0.47" ry="0.47" fill="#0050ef" stroke="#222222" stroke-width="0.1" transform="rotate(90,460.16,45.61)" pointer-events="all"/></g><g><rect x="431.37" y="38.28" width="8.38" height="13.61" rx="1.26" ry="1.26" fill="#0050ef" stroke="none" pointer-events="all"/></g><g><path d="M 438.7 38.28 Q 441.84 38.28 441.84 45.09 Q 441.84 51.9 438.7 51.9 Z" fill="#0050ef" stroke="none" pointer-events="all"/></g><g><path d="M 460.16 40.87 C 460.25 40.87 460.32 40.8 460.32 40.71 L 460.32 40.08 C 460.32 40 460.26 39.93 460.17 39.93 C 460.07 39.93 460.01 40 460.01 40.07 L 460.01 40.71 C 460.01 40.8 460.08 40.87 460.16 40.87 Z M 460.16 41.88 C 460.66 41.88 461.07 41.48 461.07 40.98 C 461.07 40.73 460.98 40.45 460.7 40.25 C 460.65 40.21 460.55 40.23 460.51 40.29 C 460.46 40.35 460.46 40.44 460.53 40.51 C 460.67 40.62 460.76 40.79 460.76 40.96 C 460.76 41.31 460.46 41.56 460.17 41.56 C 459.88 41.56 459.59 41.35 459.57 40.97 C 459.57 40.82 459.65 40.61 459.8 40.5 C 459.86 40.46 459.88 40.36 459.81 40.28 C 459.75 40.21 459.65 40.22 459.61 40.25 C 459.38 40.44 459.27 40.66 459.26 40.95 C 459.26 41.5 459.68 41.88 460.16 41.88 Z M 460.16 42.47 C 459.27 42.47 458.59 41.75 458.59 40.89 C 458.59 40.04 459.29 39.33 460.18 39.33 C 460.99 39.33 461.73 39.99 461.73 40.89 C 461.73 41.84 460.98 42.47 460.16 42.47 Z" fill="none" stroke="#222222" stroke-width="0.1" stroke-miterlimit="10" pointer-events="all"/></g><g><path d="M 458.59 51.37 L 458.59 49.28 C 458.59 48.99 459.29 48.75 460.16 48.75 C 461.03 48.75 461.73 48.99 461.73 49.28 L 461.73 51.37 C 461.73 51.66 461.03 51.9 460.16 51.9 C 459.29 51.9 458.59 51.66 458.59 51.37 Z" fill="none" stroke="#222222" stroke-width="0.1" stroke-miterlimit="10" pointer-events="all"/><path d="M 458.59 49.28 C 458.59 49.57 459.29 49.8 460.16 49.8 C 461.03 49.8 461.73 49.57 461.73 49.28" fill="none" stroke="#222222" stroke-width="0.1" stroke-miterlimit="10" pointer-events="all"/></g><g><rect x="355.97" y="35.14" width="80.63" height="19.9" fill="#333333" stroke="none" pointer-events="all"/></g><g><rect x="421.94" y="37.76" width="4.19" height="14.66" fill="#2d2d2d" stroke="none" pointer-events="all"/></g><g><rect x="362.25" y="37.76" width="4.19" height="14.66" fill="#2d2d2d" stroke="none" pointer-events="all"/></g><g><rect x="366.44" y="37.76" width="55.5" height="2.09" fill="#222222" stroke="none" pointer-events="all"/></g><g><rect x="366.44" y="41.95" width="55.5" height="2.09" fill="#222222" stroke="none" pointer-events="all"/></g><g><rect x="366.44" y="46.14" width="55.5" height="2.09" fill="#222222" stroke="none" pointer-events="all"/></g><g><rect x="366.44" y="50.33" width="55.5" height="2.09" fill="#222222" stroke="none" pointer-events="all"/></g><g><rect x="383.2" y="37.76" width="2.09" height="14.66" fill="#2d2d2d" stroke="none" pointer-events="all"/></g><g><rect x="403.09" y="37.76" width="2.09" height="14.66" fill="#2d2d2d" stroke="none" pointer-events="all"/></g><g><rect x="366.44" y="48.23" width="55.5" height="2.09" fill="#333333" stroke="none" pointer-events="all"/></g><g><rect x="366.44" y="44.04" width="55.5" height="2.09" fill="#333333" stroke="none" pointer-events="all"/></g><g><rect x="366.44" y="39.85" width="55.5" height="2.09" fill="#333333" stroke="none" pointer-events="all"/></g><g><rect x="156.78" y="1.39" width="84" height="30" fill="#333333" stroke="none" pointer-events="all"/></g><g><rect x="352.83" y="1.35" width="109.95" height="30.04" fill="#333333" stroke="none" pointer-events="all"/></g><g><rect x="356.1" y="4.4" width="7.28" height="7.41" fill="#222222" stroke="#333333" stroke-width="0.5" pointer-events="all"/></g><g><rect x="356.1" y="12.55" width="7.28" height="7.41" fill="#222222" stroke="#333333" stroke-width="0.5" pointer-events="all"/></g><g><rect x="364.11" y="4.4" width="7.28" height="7.41" fill="#222222" stroke="#333333" stroke-width="0.5" pointer-events="all"/></g><g><rect x="364.11" y="12.55" width="7.28" height="7.41" fill="#222222" stroke="#333333" stroke-width="0.5" pointer-events="all"/></g><g><rect x="372.12" y="4.4" width="7.28" height="7.41" fill="#222222" stroke="#333333" stroke-width="0.5" pointer-events="all"/></g><g><rect x="372.12" y="12.55" width="7.28" height="7.41" fill="#222222" stroke="#333333" stroke-width="0.5" pointer-events="all"/></g><g><rect x="380.13" y="4.4" width="7.28" height="7.41" fill="#222222" stroke="#333333" stroke-width="0.5" pointer-events="all"/></g><g><rect x="380.13" y="12.55" width="7.28" height="7.41" fill="#222222" stroke="#333333" stroke-width="0.5" pointer-events="all"/></g><g><rect x="388.14" y="4.4" width="7.28" height="7.41" fill="#222222" stroke="#333333" stroke-width="0.5" pointer-events="all"/></g><g><rect x="388.14" y="12.55" width="7.28" height="7.41" fill="#222222" stroke="#333333" stroke-width="0.5" pointer-events="all"/></g><g><rect x="396.15" y="4.4" width="7.28" height="7.41" fill="#222222" stroke="#333333" stroke-width="0.5" pointer-events="all"/></g><g><rect x="396.15" y="12.55" width="7.28" height="7.41" fill="#222222" stroke="#333333" stroke-width="0.5" pointer-events="all"/></g><g><rect x="404.16" y="4.4" width="7.28" height="7.41" fill="#222222" stroke="#333333" stroke-width="0.5" pointer-events="all"/></g><g><rect x="404.16" y="12.55" width="7.28" height="7.41" fill="#222222" stroke="#333333" stroke-width="0.5" pointer-events="all"/></g><g><rect x="412.17" y="4.4" width="7.28" height="7.41" fill="#222222" stroke="#333333" stroke-width="0.5" pointer-events="all"/></g><g><rect x="412.17" y="12.55" width="7.28" height="7.41" fill="#222222" stroke="#333333" stroke-width="0.5" pointer-events="all"/></g><g><rect x="420.18" y="4.4" width="7.28" height="7.41" fill="#222222" stroke="#333333" stroke-width="0.5" pointer-events="all"/></g><g><rect x="420.18" y="12.55" width="7.28" height="7.41" fill="#222222" stroke="#333333" stroke-width="0.5" pointer-events="all"/></g><g><rect x="428.19" y="4.4" width="7.28" height="7.41" fill="#222222" stroke="#333333" stroke-width="0.5" pointer-events="all"/></g><g><rect x="428.19" y="12.55" width="7.28" height="7.41" fill="#222222" stroke="#333333" stroke-width="0.5" pointer-events="all"/></g><g><rect x="436.2" y="4.4" width="7.28" height="7.41" fill="#222222" stroke="#333333" stroke-width="0.5" pointer-events="all"/></g><g><rect x="436.2" y="12.55" width="7.28" height="7.41" fill="#222222" stroke="#333333" stroke-width="0.5" pointer-events="all"/></g><g><rect x="444.21" y="4.4" width="7.28" height="7.41" fill="#222222" stroke="#333333" stroke-width="0.5" pointer-events="all"/></g><g><rect x="444.21" y="12.55" width="7.28" height="7.41" fill="#222222" stroke="#333333" stroke-width="0.5" pointer-events="all"/></g><g><rect x="452.22" y="4.4" width="7.28" height="7.41" fill="#222222" stroke="#333333" stroke-width="0.5" pointer-events="all"/></g><g><rect x="452.22" y="12.55" width="7.28" height="7.41" fill="#222222" stroke="#333333" stroke-width="0.5" pointer-events="all"/></g><g><rect x="19.83" y="0" width="136" height="15" fill="none" stroke="#333333" pointer-events="none"/></g><g><rect x="19.83" y="0.02" width="136" height="15" fill="#333333" stroke="none" pointer-events="all"/></g><g/><g><rect x="24.69" y="0" width="6.27" height="6.6" fill="#222222" stroke="none" pointer-events="all"/></g><g><rect x="24.69" y="8.4" width="6.27" height="6.6" fill="#222222" stroke="none" pointer-events="all"/></g><g><rect x="32.69" y="0" width="6.27" height="6.6" fill="#222222" stroke="none" pointer-events="all"/></g><g><rect x="32.69" y="8.4" width="6.27" height="6.6" fill="#222222" stroke="none" pointer-events="all"/></g><g><rect x="40.69" y="0" width="6.27" height="6.6" fill="#222222" stroke="none" pointer-events="all"/></g><g><rect x="40.69" y="8.4" width="6.27" height="6.6" fill="#222222" stroke="none" pointer-events="all"/></g><g><rect x="48.69" y="0" width="6.27" height="6.6" fill="#222222" stroke="none" pointer-events="all"/></g><g><rect x="48.69" y="8.4" width="6.27" height="6.6" fill="#222222" stroke="none" pointer-events="all"/></g><g><rect x="56.69" y="0" width="6.27" height="6.6" fill="#222222" stroke="none" pointer-events="all"/></g><g><rect x="56.69" y="8.4" width="6.27" height="6.6" fill="#222222" stroke="none" pointer-events="all"/></g><g><rect x="64.69" y="0" width="6.27" height="6.6" fill="#222222" stroke="none" pointer-events="all"/></g><g><rect x="64.69" y="8.4" width="6.27" height="6.6" fill="#222222" stroke="none" pointer-events="all"/></g><g><rect x="72.69" y="0" width="6.27" height="6.6" fill="#222222" stroke="none" pointer-events="all"/></g><g><rect x="72.69" y="8.4" width="6.27" height="6.6" fill="#222222" stroke="none" pointer-events="all"/></g><g><rect x="80.69" y="0" width="6.27" height="6.6" fill="#222222" stroke="none" pointer-events="all"/></g><g><rect x="80.69" y="8.4" width="6.27" height="6.6" fill="#222222" stroke="none" pointer-events="all"/></g><g><rect x="88.69" y="0" width="6.27" height="6.6" fill="#222222" stroke="none" pointer-events="all"/></g><g><rect x="88.69" y="8.4" width="6.27" height="6.6" fill="#222222" stroke="none" pointer-events="all"/></g><g><rect x="96.69" y="0" width="6.27" height="6.6" fill="#222222" stroke="none" pointer-events="all"/></g><g><rect x="96.69" y="8.4" width="6.27" height="6.6" fill="#222222" stroke="none" pointer-events="all"/></g><g><rect x="104.69" y="0" width="6.27" height="6.6" fill="#222222" stroke="none" pointer-events="all"/></g><g><rect x="104.69" y="8.4" width="6.27" height="6.6" fill="#222222" stroke="none" pointer-events="all"/></g><g><rect x="112.69" y="0" width="6.27" height="6.6" fill="#222222" stroke="none" pointer-events="all"/></g><g><rect x="112.69" y="8.4" width="6.27" height="6.6" fill="#222222" stroke="none" pointer-events="all"/></g><g><rect x="120.69" y="0" width="6.27" height="6.6" fill="#222222" stroke="none" pointer-events="all"/></g><g><rect x="120.69" y="8.4" width="6.27" height="6.6" fill="#222222" stroke="none" pointer-events="all"/></g><g><rect x="128.69" y="0" width="6.27" height="6.6" fill="#222222" stroke="none" pointer-events="all"/></g><g><rect x="128.55" y="8.4" width="6.27" height="6.6" fill="#222222" stroke="none" pointer-events="all"/></g><g><rect x="136.69" y="0" width="6.27" height="6.6" fill="#222222" stroke="none" pointer-events="all"/></g><g><rect x="136.69" y="8.4" width="6.27" height="6.6" fill="#222222" stroke="none" pointer-events="all"/></g><g><rect x="144.69" y="0" width="6.27" height="6.6" fill="#222222" stroke="none" pointer-events="all"/></g><g><rect x="144.69" y="8.4" width="6.27" height="6.6" fill="#222222" stroke="none" pointer-events="all"/></g><g><rect x="19.83" y="16" width="136" height="15" fill="none" stroke="#333333" pointer-events="none"/></g><g><rect x="19.83" y="16.02" width="136" height="15" fill="#333333" stroke="none" pointer-events="all"/></g><g/><g><rect x="24.69" y="16" width="6.27" height="6.6" fill="#222222" stroke="none" pointer-events="all"/></g><g><rect x="24.69" y="24.4" width="6.27" height="6.6" fill="#222222" stroke="none" pointer-events="all"/></g><g><rect x="32.69" y="16" width="6.27" height="6.6" fill="#222222" stroke="none" pointer-events="all"/></g><g><rect x="32.69" y="24.4" width="6.27" height="6.6" fill="#222222" stroke="none" pointer-events="all"/></g><g><rect x="40.69" y="16" width="6.27" height="6.6" fill="#222222" stroke="none" pointer-events="all"/></g><g><rect x="40.69" y="24.4" width="6.27" height="6.6" fill="#222222" stroke="none" pointer-events="all"/></g><g><rect x="48.69" y="16" width="6.27" height="6.6" fill="#222222" stroke="none" pointer-events="all"/></g><g><rect x="48.69" y="24.4" width="6.27" height="6.6" fill="#222222" stroke="none" pointer-events="all"/></g><g><rect x="56.69" y="16" width="6.27" height="6.6" fill="#222222" stroke="none" pointer-events="all"/></g><g><rect x="56.69" y="24.4" width="6.27" height="6.6" fill="#222222" stroke="none" pointer-events="all"/></g><g><rect x="64.69" y="16" width="6.27" height="6.6" fill="#222222" stroke="none" pointer-events="all"/></g><g><rect x="64.69" y="24.4" width="6.27" height="6.6" fill="#222222" stroke="none" pointer-events="all"/></g><g><rect x="72.69" y="16" width="6.27" height="6.6" fill="#222222" stroke="none" pointer-events="all"/></g><g><rect x="72.69" y="24.4" width="6.27" height="6.6" fill="#222222" stroke="none" pointer-events="all"/></g><g><rect x="80.69" y="16" width="6.27" height="6.6" fill="#222222" stroke="none" pointer-events="all"/></g><g><rect x="80.69" y="24.4" width="6.27" height="6.6" fill="#222222" stroke="none" pointer-events="all"/></g><g><rect x="88.69" y="16" width="6.27" height="6.6" fill="#222222" stroke="none" pointer-events="all"/></g><g><rect x="88.69" y="24.4" width="6.27" height="6.6" fill="#222222" stroke="none" pointer-events="all"/></g><g><rect x="96.69" y="16" width="6.27" height="6.6" fill="#222222" stroke="none" pointer-events="all"/></g><g><rect x="96.69" y="24.4" width="6.27" height="6.6" fill="#222222" stroke="none" pointer-events="all"/></g><g><rect x="104.69" y="16" width="6.27" height="6.6" fill="#222222" stroke="none" pointer-events="all"/></g><g><rect x="104.69" y="24.4" width="6.27" height="6.6" fill="#222222" stroke="none" pointer-events="all"/></g><g><rect x="112.69" y="16" width="6.27" height="6.6" fill="#222222" stroke="none" pointer-events="all"/></g><g><rect x="112.69" y="24.4" width="6.27" height="6.6" fill="#222222" stroke="none" pointer-events="all"/></g><g><rect x="120.69" y="16" width="6.27" height="6.6" fill="#222222" stroke="none" pointer-events="all"/></g><g><rect x="120.69" y="24.4" width="6.27" height="6.6" fill="#222222" stroke="none" pointer-events="all"/></g><g><rect x="128.69" y="16" width="6.27" height="6.6" fill="#222222" stroke="none" pointer-events="all"/></g><g><rect x="128.55" y="24.4" width="6.27" height="6.6" fill="#222222" stroke="none" pointer-events="all"/></g><g><rect x="136.69" y="16" width="6.27" height="6.6" fill="#222222" stroke="none" pointer-events="all"/></g><g><rect x="136.69" y="24.4" width="6.27" height="6.6" fill="#222222" stroke="none" pointer-events="all"/></g><g><rect x="144.69" y="16" width="6.27" height="6.6" fill="#222222" stroke="none" pointer-events="all"/></g><g><rect x="144.69" y="24.4" width="6.27" height="6.6" fill="#222222" stroke="none" pointer-events="all"/></g><g/><g><rect x="158.28" y="9.74" width="81" height="13.3" fill="#333333" stroke="#001dbc" stroke-width="0.2" pointer-events="all"/></g><g><ellipse cx="177.03" cy="19.35" rx="2.25" ry="2.217391304347826" fill="#60a917" stroke="none" pointer-events="all"/></g><g><ellipse cx="182.28" cy="19.35" rx="2.25" ry="2.217391304347826" fill="#0050ef" stroke="none" pointer-events="all"/></g><g><ellipse cx="187.53" cy="19.35" rx="2.25" ry="2.217391304347826" fill="#0050ef" stroke="none" pointer-events="all"/></g><g><ellipse cx="192.78" cy="19.35" rx="2.25" ry="2.217391304347826" fill="#0050ef" stroke="none" pointer-events="all"/></g><g><ellipse cx="203.28" cy="19.35" rx="2.25" ry="2.217391304347826" fill="#a20025" stroke="none" pointer-events="all"/></g><g><ellipse cx="198.03" cy="19.35" rx="2.25" ry="2.217391304347826" fill="#0050ef" stroke="none" pointer-events="all"/></g><g><ellipse cx="170.28" cy="18.61" rx="3" ry="2.9565217391304346" fill="#0050ef" stroke="none" pointer-events="all"/></g><g><ellipse cx="162.78" cy="18.61" rx="3" ry="2.9565217391304346" fill="#0050ef" stroke="none" pointer-events="all"/></g><g><rect x="211.08" y="11.22" width="6.51" height="2.96" fill="none" stroke="none" pointer-events="all"/><path d="M 212.21 12.84 C 212.13 13.11 211.86 13.28 211.58 13.24 C 211.29 13.2 211.08 12.96 211.08 12.68 C 211.08 12.4 211.29 12.16 211.58 12.13 C 211.86 12.09 212.13 12.26 212.21 12.53 L 212.89 12.53 C 212.97 12.5 213.04 12.44 213.07 12.36 L 213.28 11.98 C 213.4 11.8 213.59 11.68 213.81 11.65 C 213.99 11.62 214.17 11.61 214.35 11.61 C 214.43 11.37 214.68 11.22 214.93 11.25 C 215.19 11.29 215.38 11.51 215.38 11.76 C 215.38 12.01 215.19 12.23 214.93 12.26 C 214.68 12.3 214.43 12.15 214.35 11.91 C 214.16 11.9 213.96 11.92 213.77 11.97 C 213.69 12 213.61 12.05 213.55 12.12 L 213.42 12.38 L 213.34 12.54 L 216.44 12.54 L 216.44 12.02 L 217.59 12.73 L 216.44 13.35 L 216.44 12.83 L 214.06 12.83 C 214.11 12.9 214.15 12.98 214.18 13.07 L 214.31 13.4 C 214.35 13.46 214.39 13.5 214.45 13.53 C 214.53 13.55 214.61 13.56 214.69 13.56 L 214.97 13.56 L 214.97 13.25 L 215.9 13.25 L 215.9 14.17 L 214.97 14.17 L 214.97 13.87 C 214.78 13.89 214.59 13.88 214.41 13.83 C 214.27 13.79 214.16 13.71 214.07 13.6 L 213.97 13.37 L 213.83 13.04 C 213.79 12.92 213.67 12.84 213.54 12.83 Z" fill="#ffffff" stroke="none" pointer-events="all"/></g><g><rect x="227.04" y="11.22" width="6.51" height="2.96" fill="none" stroke="none" pointer-events="all"/><path d="M 228.17 12.84 C 228.09 13.11 227.82 13.28 227.54 13.24 C 227.25 13.2 227.04 12.96 227.04 12.68 C 227.04 12.4 227.25 12.16 227.54 12.13 C 227.82 12.09 228.09 12.26 228.17 12.53 L 228.85 12.53 C 228.93 12.5 229 12.44 229.03 12.36 L 229.24 11.98 C 229.36 11.8 229.55 11.68 229.77 11.65 C 229.95 11.62 230.13 11.61 230.31 11.61 C 230.39 11.37 230.64 11.22 230.89 11.25 C 231.15 11.29 231.34 11.51 231.34 11.76 C 231.34 12.01 231.15 12.23 230.89 12.26 C 230.64 12.3 230.39 12.15 230.31 11.91 C 230.12 11.9 229.92 11.92 229.73 11.97 C 229.65 12 229.57 12.05 229.51 12.12 L 229.38 12.38 L 229.3 12.54 L 232.4 12.54 L 232.4 12.02 L 233.55 12.73 L 232.4 13.35 L 232.4 12.83 L 230.02 12.83 C 230.07 12.9 230.11 12.98 230.14 13.07 L 230.27 13.4 C 230.31 13.46 230.35 13.5 230.41 13.53 C 230.49 13.55 230.57 13.56 230.65 13.56 L 230.93 13.56 L 230.93 13.25 L 231.86 13.25 L 231.86 14.17 L 230.93 14.17 L 230.93 13.87 C 230.74 13.89 230.55 13.88 230.37 13.83 C 230.23 13.79 230.12 13.71 230.03 13.6 L 229.93 13.37 L 229.79 13.04 C 229.75 12.92 229.63 12.84 229.5 12.83 Z" fill="#ffffff" stroke="none" pointer-events="all"/></g><g><path d="M 162.77 12.66 C 162.86 12.66 162.93 12.6 162.93 12.52 L 162.93 11.93 C 162.93 11.85 162.87 11.78 162.78 11.78 C 162.69 11.78 162.63 11.85 162.63 11.91 L 162.63 12.52 C 162.63 12.6 162.7 12.66 162.77 12.66 Z M 162.78 13.61 C 163.25 13.61 163.65 13.23 163.65 12.77 C 163.65 12.53 163.56 12.27 163.3 12.08 C 163.25 12.04 163.15 12.06 163.11 12.12 C 163.07 12.18 163.06 12.26 163.13 12.32 C 163.26 12.43 163.35 12.59 163.35 12.75 C 163.35 13.08 163.07 13.31 162.79 13.31 C 162.51 13.31 162.23 13.12 162.22 12.76 C 162.21 12.62 162.29 12.42 162.44 12.32 C 162.49 12.28 162.51 12.18 162.45 12.11 C 162.39 12.04 162.29 12.05 162.25 12.08 C 162.03 12.26 161.92 12.47 161.92 12.74 C 161.92 13.26 162.32 13.61 162.78 13.61 Z M 162.78 14.17 C 161.92 14.17 161.28 13.49 161.28 12.69 C 161.28 11.88 161.95 11.22 162.79 11.22 C 163.57 11.22 164.28 11.83 164.28 12.69 C 164.28 13.58 163.56 14.17 162.78 14.17 Z" fill="#ffffff" stroke="none" pointer-events="all"/></g><g><path d="M 169.81 14.17 L 169.81 13.68 C 169.17 13.48 168.78 12.88 168.9 12.27 C 169.01 11.66 169.6 11.22 170.28 11.22 C 170.96 11.22 171.55 11.66 171.66 12.27 C 171.78 12.88 171.39 13.48 170.75 13.68 L 170.75 14.17" fill="none" stroke="rgb(240, 240, 240)" stroke-width="0.1" stroke-miterlimit="10" transform="rotate(-180,170.28,12.69)" pointer-events="all"/></g><g><path d="M 180.78 13.68 L 180.78 11.71 C 180.78 11.44 181.45 11.22 182.28 11.22 C 183.11 11.22 183.78 11.44 183.78 11.71 L 183.78 13.68 C 183.78 13.95 183.11 14.17 182.28 14.17 C 181.45 14.17 180.78 13.95 180.78 13.68 Z" fill="none" stroke="rgb(240, 240, 240)" stroke-width="0.1" stroke-miterlimit="10" pointer-events="all"/><path d="M 180.78 11.71 C 180.78 11.98 181.45 12.2 182.28 12.2 C 183.11 12.2 183.78 11.98 183.78 11.71" fill="none" stroke="rgb(240, 240, 240)" stroke-width="0.1" stroke-miterlimit="10" pointer-events="all"/></g><g><rect x="186.03" y="11.22" width="3" height="2.96" fill="none" stroke="none" pointer-events="all"/><path d="M 187.22 11.22 L 187.22 11.84 L 187.47 11.84 L 187.47 12.42 L 186.32 12.42 C 186.31 12.42 186.3 12.43 186.28 12.44 C 186.27 12.45 186.27 12.46 186.27 12.48 L 186.27 13.55 L 186.03 13.55 L 186.03 14.17 L 186.65 14.17 L 186.65 13.55 L 186.38 13.55 L 186.38 12.53 L 187.47 12.53 L 187.47 13.3 L 187.22 13.3 L 187.22 13.92 L 187.83 13.92 L 187.83 13.3 L 187.58 13.3 L 187.58 12.54 L 188.67 12.54 L 188.67 13.55 L 188.41 13.55 L 188.41 14.17 L 189.03 14.17 L 189.03 13.55 L 188.78 13.55 L 188.78 12.48 C 188.78 12.47 188.78 12.45 188.77 12.44 C 188.76 12.43 188.74 12.42 188.73 12.42 L 187.58 12.42 L 187.58 11.84 L 187.83 11.84 L 187.83 11.22 Z" fill="#ffffff" stroke="none" pointer-events="all"/></g><g><rect x="191.28" y="11.22" width="3" height="2.96" fill="none" stroke="none" pointer-events="all"/><path d="M 192.47 11.22 L 192.47 11.84 L 192.72 11.84 L 192.72 12.42 L 191.57 12.42 C 191.56 12.42 191.55 12.43 191.53 12.44 C 191.52 12.45 191.52 12.46 191.52 12.48 L 191.52 13.55 L 191.28 13.55 L 191.28 14.17 L 191.9 14.17 L 191.9 13.55 L 191.63 13.55 L 191.63 12.53 L 192.72 12.53 L 192.72 13.3 L 192.47 13.3 L 192.47 13.92 L 193.08 13.92 L 193.08 13.3 L 192.83 13.3 L 192.83 12.54 L 193.92 12.54 L 193.92 13.55 L 193.66 13.55 L 193.66 14.17 L 194.28 14.17 L 194.28 13.55 L 194.03 13.55 L 194.03 12.48 C 194.03 12.47 194.03 12.45 194.02 12.44 C 194.01 12.43 193.99 12.42 193.98 12.42 L 192.83 12.42 L 192.83 11.84 L 193.08 11.84 L 193.08 11.22 Z" fill="#ffffff" stroke="none" pointer-events="all"/></g><g><rect x="196.53" y="11.22" width="3" height="2.96" fill="none" stroke="none" pointer-events="all"/><path d="M 197.72 11.22 L 197.72 11.84 L 197.97 11.84 L 197.97 12.42 L 196.82 12.42 C 196.81 12.42 196.8 12.43 196.78 12.44 C 196.77 12.45 196.77 12.46 196.77 12.48 L 196.77 13.55 L 196.53 13.55 L 196.53 14.17 L 197.15 14.17 L 197.15 13.55 L 196.88 13.55 L 196.88 12.53 L 197.97 12.53 L 197.97 13.3 L 197.72 13.3 L 197.72 13.92 L 198.33 13.92 L 198.33 13.3 L 198.08 13.3 L 198.08 12.54 L 199.17 12.54 L 199.17 13.55 L 198.91 13.55 L 198.91 14.17 L 199.53 14.17 L 199.53 13.55 L 199.28 13.55 L 199.28 12.48 C 199.28 12.47 199.28 12.45 199.27 12.44 C 199.26 12.43 199.24 12.42 199.23 12.42 L 198.08 12.42 L 198.08 11.84 L 198.33 11.84 L 198.33 11.22 Z" fill="#ffffff" stroke="none" pointer-events="all"/></g><g><path d="M 201.78 11.22 L 204.78 12.69 L 201.78 14.17 Z" fill="none" stroke="rgb(240, 240, 240)" stroke-width="0.1" stroke-miterlimit="10" transform="rotate(-90,203.28,12.69)" pointer-events="all"/></g><g><path d="M 177.02 12.66 C 177.11 12.66 177.18 12.6 177.18 12.52 L 177.18 11.93 C 177.18 11.85 177.12 11.78 177.03 11.78 C 176.94 11.78 176.88 11.85 176.88 11.91 L 176.88 12.52 C 176.88 12.6 176.95 12.66 177.02 12.66 Z M 177.03 13.61 C 177.5 13.61 177.9 13.23 177.9 12.77 C 177.9 12.53 177.81 12.27 177.55 12.08 C 177.5 12.04 177.4 12.06 177.36 12.12 C 177.32 12.18 177.31 12.26 177.38 12.32 C 177.51 12.43 177.6 12.59 177.6 12.75 C 177.6 13.08 177.32 13.31 177.04 13.31 C 176.76 13.31 176.48 13.12 176.47 12.76 C 176.46 12.62 176.54 12.42 176.69 12.32 C 176.74 12.28 176.76 12.18 176.7 12.11 C 176.64 12.04 176.54 12.05 176.5 12.08 C 176.28 12.26 176.17 12.47 176.17 12.74 C 176.17 13.26 176.57 13.61 177.03 13.61 Z M 177.03 14.17 C 176.17 14.17 175.53 13.49 175.53 12.69 C 175.53 11.88 176.2 11.22 177.04 11.22 C 177.82 11.22 178.53 11.83 178.53 12.69 C 178.53 13.58 177.81 14.17 177.03 14.17 Z" fill="none" stroke="rgb(240, 240, 240)" stroke-width="0.1" stroke-miterlimit="10" pointer-events="all"/></g><g><rect x="222.78" y="15.65" width="15" height="5.91" fill="#222222" stroke="#aaaaaa" stroke-width="0.1" pointer-events="all"/></g><g><rect x="224.28" y="17.13" width="12" height="1.48" fill="#0050ef" stroke="none" pointer-events="all"/></g><g><rect x="206.82" y="15.65" width="15" height="5.91" fill="#222222" stroke="#aaaaaa" stroke-width="0.1" pointer-events="all"/></g><g><rect x="208.32" y="17.13" width="12" height="1.48" fill="#0050ef" stroke="none" pointer-events="all"/></g><g><rect x="241.83" y="1.35" width="109.95" height="30.04" fill="#333333" stroke="none" pointer-events="all"/></g><g><rect x="245.1" y="4.38" width="7.28" height="7.41" fill="#222222" stroke="#333333" stroke-width="0.5" pointer-events="all"/></g><g><rect x="245.1" y="12.53" width="7.28" height="7.41" fill="#222222" stroke="#333333" stroke-width="0.5" pointer-events="all"/></g><g><rect x="253.11" y="4.38" width="7.28" height="7.41" fill="#222222" stroke="#333333" stroke-width="0.5" pointer-events="all"/></g><g><rect x="253.11" y="12.53" width="7.28" height="7.41" fill="#222222" stroke="#333333" stroke-width="0.5" pointer-events="all"/></g><g><rect x="261.12" y="4.38" width="7.28" height="7.41" fill="#222222" stroke="#333333" stroke-width="0.5" pointer-events="all"/></g><g><rect x="261.12" y="12.53" width="7.28" height="7.41" fill="#222222" stroke="#333333" stroke-width="0.5" pointer-events="all"/></g><g><rect x="269.13" y="4.38" width="7.28" height="7.41" fill="#222222" stroke="#333333" stroke-width="0.5" pointer-events="all"/></g><g><rect x="269.13" y="12.53" width="7.28" height="7.41" fill="#222222" stroke="#333333" stroke-width="0.5" pointer-events="all"/></g><g><rect x="277.14" y="4.38" width="7.28" height="7.41" fill="#222222" stroke="#333333" stroke-width="0.5" pointer-events="all"/></g><g><rect x="277.14" y="12.53" width="7.28" height="7.41" fill="#222222" stroke="#333333" stroke-width="0.5" pointer-events="all"/></g><g><rect x="285.15" y="4.38" width="7.28" height="7.41" fill="#222222" stroke="#333333" stroke-width="0.5" pointer-events="all"/></g><g><rect x="285.15" y="12.53" width="7.28" height="7.41" fill="#222222" stroke="#333333" stroke-width="0.5" pointer-events="all"/></g><g><rect x="293.16" y="4.38" width="7.28" height="7.41" fill="#222222" stroke="#333333" stroke-width="0.5" pointer-events="all"/></g><g><rect x="293.16" y="12.53" width="7.28" height="7.41" fill="#222222" stroke="#333333" stroke-width="0.5" pointer-events="all"/></g><g><rect x="301.17" y="4.38" width="7.28" height="7.41" fill="#222222" stroke="#333333" stroke-width="0.5" pointer-events="all"/></g><g><rect x="301.17" y="12.53" width="7.28" height="7.41" fill="#222222" stroke="#333333" stroke-width="0.5" pointer-events="all"/></g><g><rect x="309.18" y="4.38" width="7.28" height="7.41" fill="#222222" stroke="#333333" stroke-width="0.5" pointer-events="all"/></g><g><rect x="309.18" y="12.53" width="7.28" height="7.41" fill="#222222" stroke="#333333" stroke-width="0.5" pointer-events="all"/></g><g><rect x="317.19" y="4.38" width="7.28" height="7.41" fill="#222222" stroke="#333333" stroke-width="0.5" pointer-events="all"/></g><g><rect x="317.19" y="12.53" width="7.28" height="7.41" fill="#222222" stroke="#333333" stroke-width="0.5" pointer-events="all"/></g><g><rect x="325.2" y="4.38" width="7.28" height="7.41" fill="#222222" stroke="#333333" stroke-width="0.5" pointer-events="all"/></g><g><rect x="325.2" y="12.53" width="7.28" height="7.41" fill="#222222" stroke="#333333" stroke-width="0.5" pointer-events="all"/></g><g><rect x="333.21" y="4.38" width="7.28" height="7.41" fill="#222222" stroke="#333333" stroke-width="0.5" pointer-events="all"/></g><g><rect x="333.21" y="12.53" width="7.28" height="7.41" fill="#222222" stroke="#333333" stroke-width="0.5" pointer-events="all"/></g><g><rect x="341.22" y="4.38" width="7.28" height="7.41" fill="#222222" stroke="#333333" stroke-width="0.5" pointer-events="all"/></g><g><rect x="341.22" y="12.53" width="7.28" height="7.41" fill="#222222" stroke="#333333" stroke-width="0.5" pointer-events="all"/></g><g><rect x="245.1" y="20.94" width="7.28" height="7.41" fill="#222222" stroke="#333333" stroke-width="0.5" pointer-events="all"/></g><g><rect x="253.11" y="20.94" width="7.28" height="7.41" fill="#222222" stroke="#333333" stroke-width="0.5" pointer-events="all"/></g><g><rect x="261.12" y="20.94" width="7.28" height="7.41" fill="#222222" stroke="#333333" stroke-width="0.5" pointer-events="all"/></g><g><rect x="269.13" y="20.94" width="7.28" height="7.41" fill="#222222" stroke="#333333" stroke-width="0.5" pointer-events="all"/></g><g><rect x="277.14" y="20.94" width="7.28" height="7.41" fill="#222222" stroke="#333333" stroke-width="0.5" pointer-events="all"/></g><g><rect x="285.15" y="20.94" width="7.28" height="7.41" fill="#222222" stroke="#333333" stroke-width="0.5" pointer-events="all"/></g><g><rect x="293.16" y="20.94" width="7.28" height="7.41" fill="#222222" stroke="#333333" stroke-width="0.5" pointer-events="all"/></g><g><rect x="301.17" y="20.94" width="7.28" height="7.41" fill="#222222" stroke="#333333" stroke-width="0.5" pointer-events="all"/></g><g><rect x="309.18" y="20.94" width="7.28" height="7.41" fill="#222222" stroke="#333333" stroke-width="0.5" pointer-events="all"/></g><g><rect x="317.19" y="20.94" width="7.28" height="7.41" fill="#222222" stroke="#333333" stroke-width="0.5" pointer-events="all"/></g><g><rect x="325.2" y="20.94" width="7.28" height="7.41" fill="#222222" stroke="#333333" stroke-width="0.5" pointer-events="all"/></g><g><rect x="333.21" y="20.94" width="7.28" height="7.41" fill="#222222" stroke="#333333" stroke-width="0.5" pointer-events="all"/></g><g><rect x="341.22" y="20.94" width="7.28" height="7.41" fill="#222222" stroke="#333333" stroke-width="0.5" pointer-events="all"/></g><g><rect x="356.11" y="20.96" width="7.28" height="7.41" fill="#222222" stroke="#333333" stroke-width="0.5" pointer-events="all"/></g><g><rect x="364.12" y="20.96" width="7.28" height="7.41" fill="#222222" stroke="#333333" stroke-width="0.5" pointer-events="all"/></g><g><rect x="372.13" y="20.96" width="7.28" height="7.41" fill="#222222" stroke="#333333" stroke-width="0.5" pointer-events="all"/></g><g><rect x="380.14" y="20.96" width="7.28" height="7.41" fill="#222222" stroke="#333333" stroke-width="0.5" pointer-events="all"/></g><g><rect x="388.15" y="20.96" width="7.28" height="7.41" fill="#222222" stroke="#333333" stroke-width="0.5" pointer-events="all"/></g><g><rect x="396.16" y="20.96" width="7.28" height="7.41" fill="#222222" stroke="#333333" stroke-width="0.5" pointer-events="all"/></g><g><rect x="404.17" y="20.96" width="7.28" height="7.41" fill="#222222" stroke="#333333" stroke-width="0.5" pointer-events="all"/></g><g><rect x="412.18" y="20.96" width="7.28" height="7.41" fill="#222222" stroke="#333333" stroke-width="0.5" pointer-events="all"/></g><g><rect x="420.19" y="20.96" width="7.28" height="7.41" fill="#222222" stroke="#333333" stroke-width="0.5" pointer-events="all"/></g><g><rect x="428.2" y="20.96" width="7.28" height="7.41" fill="#222222" stroke="#333333" stroke-width="0.5" pointer-events="all"/></g><g><rect x="436.21" y="20.96" width="7.28" height="7.41" fill="#222222" stroke="#333333" stroke-width="0.5" pointer-events="all"/></g><g><rect x="444.22" y="20.96" width="7.28" height="7.41" fill="#222222" stroke="#333333" stroke-width="0.5" pointer-events="all"/></g><g><rect x="452.23" y="20.96" width="7.28" height="7.41" fill="#222222" stroke="#333333" stroke-width="0.5" pointer-events="all"/></g></g></svg>