<?xml version="1.0" encoding="UTF-8"?>
<!DOCTYPE svg PUBLIC "-//W3C//DTD SVG 1.1//EN" "http://www.w3.org/Graphics/SVG/1.1/DTD/svg11.dtd">
<svg xmlns="http://www.w3.org/2000/svg" xmlns:xlink="http://www.w3.org/1999/xlink" version="1.1" width="4837px" height="899px" viewBox="-0.5 -0.5 4837 899" style="background-color: rgb(24, 20, 29);"><defs/><rect fill="#18141D" width="100%" height="100%" x="0" y="0"/><g><g data-cell-id="0"><g data-cell-id="1"><g data-cell-id="yyGTJ8SKnHVZ-51QReyp-6704"><g/><g data-cell-id="9eh16xiQdjSHdPkHuFP6-378"><g><rect x="0" y="0" width="4826" height="889" fill="#bfbfbf" stroke="#aaaaaa" stroke-width="10" pointer-events="all"/></g></g><g data-cell-id="9eh16xiQdjSHdPkHuFP6-379"><g><rect x="180" y="0" width="4466" height="889" fill="#000000" stroke="#aaaaaa" stroke-width="10" pointer-events="all"/></g></g><g data-cell-id="yyGTJ8SKnHVZ-51QReyp-1"><g/><g data-cell-id="jP2WbbBxQBNUkDRbYnSl-226"><g/><g data-cell-id="jP2WbbBxQBNUkDRbYnSl-227"><g><rect x="70.04" y="669" width="40" height="60" fill="#000000" stroke="none" pointer-events="all"/></g></g><g data-cell-id="jP2WbbBxQBNUkDRbYnSl-228"><g><ellipse cx="110.04" cy="699" rx="30" ry="30" fill="#000000" stroke="none" pointer-events="all"/></g></g><g data-cell-id="jP2WbbBxQBNUkDRbYnSl-229"><g><ellipse cx="70.04" cy="699" rx="30" ry="30" fill="#000000" stroke="none" pointer-events="all"/></g></g></g><g data-cell-id="jP2WbbBxQBNUkDRbYnSl-230"><g/><g data-cell-id="jP2WbbBxQBNUkDRbYnSl-231"><g><rect x="70" y="160" width="40" height="60" fill="#000000" stroke="none" pointer-events="all"/></g></g><g data-cell-id="jP2WbbBxQBNUkDRbYnSl-232"><g><ellipse cx="110" cy="190" rx="30" ry="30" fill="#000000" stroke="none" pointer-events="all"/></g></g><g data-cell-id="jP2WbbBxQBNUkDRbYnSl-233"><g><ellipse cx="70" cy="190" rx="30" ry="30" fill="#000000" stroke="none" pointer-events="all"/></g></g></g><g data-cell-id="jP2WbbBxQBNUkDRbYnSl-206"><g><rect x="80" y="59.5" width="100" height="770" fill="#bfbfbf" stroke="#aaaaaa" stroke-width="10" pointer-events="all"/></g></g></g><g data-cell-id="yyGTJ8SKnHVZ-51QReyp-3"><g/><g data-cell-id="yyGTJ8SKnHVZ-51QReyp-4"><g><rect x="4715.96" y="160" width="40" height="60" fill="#000000" stroke="none" pointer-events="all"/></g></g><g data-cell-id="yyGTJ8SKnHVZ-51QReyp-5"><g><ellipse cx="4755.96" cy="190" rx="30" ry="30" fill="#000000" stroke="none" pointer-events="all"/></g></g><g data-cell-id="yyGTJ8SKnHVZ-51QReyp-6"><g><ellipse cx="4715.96" cy="190" rx="30" ry="30" fill="#000000" stroke="none" pointer-events="all"/></g></g></g><g data-cell-id="yyGTJ8SKnHVZ-51QReyp-7"><g/><g data-cell-id="yyGTJ8SKnHVZ-51QReyp-8"><g><rect x="4716" y="669" width="40" height="60" fill="#000000" stroke="none" pointer-events="all"/></g></g><g data-cell-id="yyGTJ8SKnHVZ-51QReyp-9"><g><ellipse cx="4756" cy="699" rx="30" ry="30" fill="#000000" stroke="none" pointer-events="all"/></g></g><g data-cell-id="yyGTJ8SKnHVZ-51QReyp-10"><g><ellipse cx="4716" cy="699" rx="30" ry="30" fill="#000000" stroke="none" pointer-events="all"/></g></g></g><g data-cell-id="yyGTJ8SKnHVZ-51QReyp-11"><g><rect x="4646" y="59.5" width="100" height="770" fill="#bfbfbf" stroke="#aaaaaa" stroke-width="10" pointer-events="all"/></g></g><g data-cell-id="yyGTJ8SKnHVZ-51QReyp-14"><g><rect x="180" y="300" width="4466" height="588.2" fill="#111111" stroke="#aaaaaa" stroke-width="10" pointer-events="all"/></g></g><g data-cell-id="yyGTJ8SKnHVZ-51QReyp-6701"><g style="filter: drop-shadow(rgba(0, 0, 0, 0.25) 20px 30px 20px);"><rect x="380" y="434.1" width="4066" height="270" rx="40.5" ry="40.5" fill="#111111" stroke="#1c1c1c" stroke-width="10" pointer-events="all"/></g></g><g data-cell-id="yyGTJ8SKnHVZ-51QReyp-6703"><g/><g data-cell-id="jP2WbbBxQBNUkDRbYnSl-595"><g><rect x="1993" y="717.7" width="840" height="160" fill="#222222" stroke="#000000" stroke-width="2" pointer-events="all"/></g></g><g data-cell-id="jP2WbbBxQBNUkDRbYnSl-596"><g><rect x="2008" y="731.17" width="810" height="133.04" fill="#222222" stroke="#001dbc" stroke-width="2" pointer-events="all"/></g></g><g data-cell-id="jP2WbbBxQBNUkDRbYnSl-597"><g><ellipse cx="2195.5" cy="827.26" rx="22.5" ry="22.17391304347826" fill="#60a917" stroke="none" pointer-events="all"/></g></g><g data-cell-id="jP2WbbBxQBNUkDRbYnSl-598"><g><ellipse cx="2248" cy="827.26" rx="22.5" ry="22.17391304347826" fill="#0050ef" stroke="none" pointer-events="all"/></g></g><g data-cell-id="jP2WbbBxQBNUkDRbYnSl-599"><g><ellipse cx="2300.5" cy="827.26" rx="22.5" ry="22.17391304347826" fill="#0050ef" stroke="none" pointer-events="all"/></g></g><g data-cell-id="jP2WbbBxQBNUkDRbYnSl-600"><g><ellipse cx="2353" cy="827.26" rx="22.5" ry="22.17391304347826" fill="#0050ef" stroke="none" pointer-events="all"/></g></g><g data-cell-id="jP2WbbBxQBNUkDRbYnSl-601"><g><ellipse cx="2458" cy="827.26" rx="22.5" ry="22.17391304347826" fill="#a20025" stroke="none" pointer-events="all"/></g></g><g data-cell-id="jP2WbbBxQBNUkDRbYnSl-602"><g><ellipse cx="2405.5" cy="827.26" rx="22.5" ry="22.17391304347826" fill="#0050ef" stroke="none" pointer-events="all"/></g></g><g data-cell-id="jP2WbbBxQBNUkDRbYnSl-603"><g><ellipse cx="2128" cy="819.87" rx="30" ry="29.565217391304344" fill="#0050ef" stroke="none" pointer-events="all"/></g></g><g data-cell-id="jP2WbbBxQBNUkDRbYnSl-604"><g><ellipse cx="2053" cy="819.87" rx="30" ry="29.565217391304344" fill="#0050ef" stroke="none" pointer-events="all"/></g></g><g data-cell-id="jP2WbbBxQBNUkDRbYnSl-605"><g><rect x="2536" y="745.96" width="65.1" height="29.57" fill="none" stroke="none" pointer-events="all"/><path d="M 2547.29 762.16 C 2546.51 764.86 2543.81 766.59 2540.96 766.2 C 2538.12 765.81 2536 763.43 2536 760.63 C 2536 757.82 2538.12 755.44 2540.96 755.06 C 2543.81 754.67 2546.51 756.39 2547.29 759.09 L 2554.09 759.09 C 2554.91 758.78 2555.57 758.16 2555.92 757.37 L 2558.01 753.6 C 2559.23 751.81 2561.15 750.61 2563.31 750.27 C 2565.1 750 2566.92 749.87 2568.74 749.89 C 2569.5 747.47 2571.95 745.96 2574.51 746.33 C 2577.07 746.71 2578.97 748.86 2578.97 751.39 C 2578.97 753.92 2577.07 756.07 2574.51 756.45 C 2571.95 756.82 2569.5 755.31 2568.74 752.89 C 2566.78 752.8 2564.82 752.99 2562.92 753.47 C 2562.05 753.78 2561.28 754.31 2560.69 755 L 2559.39 757.56 L 2558.6 759.16 L 2589.59 759.16 L 2589.59 754.04 L 2601.1 761.07 L 2589.59 767.34 L 2589.59 762.1 L 2565.79 762.1 C 2566.29 762.84 2566.71 763.63 2567.04 764.46 L 2568.34 767.79 C 2568.65 768.36 2569.13 768.83 2569.72 769.13 C 2570.49 769.31 2571.28 769.41 2572.07 769.45 L 2574.88 769.45 L 2574.88 766.25 L 2584.23 766.25 L 2584.23 775.52 L 2574.88 775.52 L 2574.88 772.52 C 2573 772.71 2571.1 772.58 2569.26 772.13 C 2567.93 771.73 2566.76 770.93 2565.92 769.83 L 2564.88 767.47 L 2563.51 764.21 C 2563.05 762.98 2561.89 762.15 2560.56 762.1 Z" fill="#ffffff" stroke="none" pointer-events="all"/></g></g><g data-cell-id="jP2WbbBxQBNUkDRbYnSl-606"><g><rect x="2695.6" y="745.96" width="65.1" height="29.57" fill="none" stroke="none" pointer-events="all"/><path d="M 2706.89 762.16 C 2706.11 764.86 2703.41 766.59 2700.56 766.2 C 2697.72 765.81 2695.6 763.43 2695.6 760.63 C 2695.6 757.82 2697.72 755.44 2700.56 755.06 C 2703.41 754.67 2706.11 756.39 2706.89 759.09 L 2713.69 759.09 C 2714.51 758.78 2715.17 758.16 2715.52 757.37 L 2717.61 753.6 C 2718.83 751.81 2720.75 750.61 2722.91 750.27 C 2724.7 750 2726.52 749.87 2728.34 749.89 C 2729.1 747.47 2731.55 745.96 2734.11 746.33 C 2736.67 746.71 2738.57 748.86 2738.57 751.39 C 2738.57 753.92 2736.67 756.07 2734.11 756.45 C 2731.55 756.82 2729.1 755.31 2728.34 752.89 C 2726.38 752.8 2724.42 752.99 2722.52 753.47 C 2721.65 753.78 2720.88 754.31 2720.29 755 L 2718.99 757.56 L 2718.2 759.16 L 2749.19 759.16 L 2749.19 754.04 L 2760.7 761.07 L 2749.19 767.34 L 2749.19 762.1 L 2725.39 762.1 C 2725.89 762.84 2726.31 763.63 2726.64 764.46 L 2727.94 767.79 C 2728.25 768.36 2728.73 768.83 2729.32 769.13 C 2730.09 769.31 2730.88 769.41 2731.67 769.45 L 2734.48 769.45 L 2734.48 766.25 L 2743.83 766.25 L 2743.83 775.52 L 2734.48 775.52 L 2734.48 772.52 C 2732.6 772.71 2730.7 772.58 2728.86 772.13 C 2727.53 771.73 2726.36 770.93 2725.52 769.83 L 2724.48 767.47 L 2723.11 764.21 C 2722.65 762.98 2721.49 762.15 2720.16 762.1 Z" fill="#ffffff" stroke="none" pointer-events="all"/></g></g><g data-cell-id="jP2WbbBxQBNUkDRbYnSl-607"><g><path d="M 2052.94 760.41 C 2053.83 760.41 2054.46 759.79 2054.46 758.97 L 2054.46 753.06 C 2054.46 752.28 2053.93 751.56 2053.04 751.56 C 2052.15 751.56 2051.53 752.27 2051.53 752.92 L 2051.53 758.98 C 2051.53 759.79 2052.22 760.41 2052.94 760.41 Z M 2052.95 769.92 C 2057.72 769.92 2061.67 766.14 2061.67 761.48 C 2061.67 759.13 2060.81 756.49 2058.18 754.58 C 2057.7 754.21 2056.72 754.4 2056.28 754.98 C 2055.87 755.57 2055.84 756.42 2056.5 757.03 C 2057.81 758.06 2058.67 759.67 2058.67 761.33 C 2058.67 764.55 2055.87 766.95 2053.07 766.95 C 2050.31 766.95 2047.55 764.97 2047.35 761.42 C 2047.31 759.99 2048.13 757.96 2049.58 756.96 C 2050.08 756.56 2050.28 755.65 2049.67 754.94 C 2049.09 754.21 2048.14 754.34 2047.74 754.65 C 2045.51 756.44 2044.43 758.45 2044.38 761.23 C 2044.38 766.39 2048.37 769.92 2052.95 769.92 Z M 2052.99 775.52 C 2044.45 775.52 2038 768.7 2038 760.68 C 2038 752.63 2044.71 745.96 2053.14 745.96 C 2060.88 745.96 2068 752.13 2068 760.65 C 2068 769.55 2060.78 775.52 2052.99 775.52 Z" fill="#ffffff" stroke="none" pointer-events="all"/></g></g><g data-cell-id="jP2WbbBxQBNUkDRbYnSl-608"><g><path d="M 2123.32 775.52 L 2123.32 770.65 C 2116.87 768.59 2113 762.62 2114.16 756.52 C 2115.31 750.41 2121.16 745.95 2128 745.95 C 2134.84 745.95 2140.69 750.41 2141.84 756.52 C 2143 762.62 2139.13 768.59 2132.68 770.65 L 2132.68 775.52" fill="none" stroke="rgb(240, 240, 240)" stroke-miterlimit="10" transform="rotate(-180,2128,760.74)" pointer-events="all"/></g></g><g data-cell-id="jP2WbbBxQBNUkDRbYnSl-609"><g><path d="M 2233 770.59 L 2233 750.88 C 2233 748.16 2239.72 745.96 2248 745.96 C 2256.28 745.96 2263 748.16 2263 750.88 L 2263 770.59 C 2263 773.32 2256.28 775.52 2248 775.52 C 2239.72 775.52 2233 773.32 2233 770.59 Z" fill="none" stroke="rgb(240, 240, 240)" stroke-miterlimit="10" pointer-events="all"/><path d="M 2233 750.88 C 2233 753.61 2239.72 755.81 2248 755.81 C 2256.28 755.81 2263 753.61 2263 750.88" fill="none" stroke="rgb(240, 240, 240)" stroke-miterlimit="10" pointer-events="all"/></g></g><g data-cell-id="jP2WbbBxQBNUkDRbYnSl-610"><g><rect x="2285.5" y="745.96" width="30" height="29.57" fill="none" stroke="none" pointer-events="all"/><path d="M 2297.36 745.96 L 2297.36 752.19 L 2299.93 752.19 L 2299.92 758.02 L 2288.44 758.01 C 2288.29 758.01 2288.15 758.07 2288.05 758.18 C 2287.94 758.28 2287.88 758.43 2287.88 758.58 L 2287.89 769.28 L 2285.5 769.28 L 2285.5 775.51 L 2291.66 775.51 L 2291.66 769.28 L 2289 769.28 L 2288.99 759.14 L 2299.92 759.15 L 2299.91 766.76 L 2297.35 766.76 L 2297.35 772.99 L 2303.51 772.99 L 2303.51 766.76 L 2301.02 766.76 L 2301.03 759.15 L 2311.93 759.16 L 2311.88 769.29 L 2309.34 769.29 L 2309.34 775.52 L 2315.5 775.52 L 2315.5 769.29 L 2312.99 769.29 L 2313.04 758.6 C 2313.04 758.45 2312.99 758.31 2312.88 758.2 C 2312.78 758.1 2312.64 758.04 2312.49 758.04 L 2301.03 758.02 L 2301.04 752.19 L 2303.52 752.19 L 2303.52 745.96 Z" fill="#ffffff" stroke="none" pointer-events="all"/></g></g><g data-cell-id="jP2WbbBxQBNUkDRbYnSl-611"><g><rect x="2338" y="745.96" width="30" height="29.57" fill="none" stroke="none" pointer-events="all"/><path d="M 2349.86 745.96 L 2349.86 752.19 L 2352.43 752.19 L 2352.42 758.02 L 2340.94 758.01 C 2340.79 758.01 2340.65 758.07 2340.55 758.18 C 2340.44 758.28 2340.38 758.43 2340.38 758.58 L 2340.39 769.28 L 2338 769.28 L 2338 775.51 L 2344.16 775.51 L 2344.16 769.28 L 2341.5 769.28 L 2341.49 759.14 L 2352.42 759.15 L 2352.41 766.76 L 2349.85 766.76 L 2349.85 772.99 L 2356.01 772.99 L 2356.01 766.76 L 2353.52 766.76 L 2353.53 759.15 L 2364.43 759.16 L 2364.38 769.29 L 2361.84 769.29 L 2361.84 775.52 L 2368 775.52 L 2368 769.29 L 2365.49 769.29 L 2365.54 758.6 C 2365.54 758.45 2365.49 758.31 2365.38 758.2 C 2365.28 758.1 2365.14 758.04 2364.99 758.04 L 2353.53 758.02 L 2353.54 752.19 L 2356.02 752.19 L 2356.02 745.96 Z" fill="#ffffff" stroke="none" pointer-events="all"/></g></g><g data-cell-id="jP2WbbBxQBNUkDRbYnSl-612"><g><rect x="2390.5" y="745.96" width="30" height="29.57" fill="none" stroke="none" pointer-events="all"/><path d="M 2402.36 745.96 L 2402.36 752.19 L 2404.93 752.19 L 2404.92 758.02 L 2393.44 758.01 C 2393.29 758.01 2393.15 758.07 2393.05 758.18 C 2392.94 758.28 2392.88 758.43 2392.88 758.58 L 2392.89 769.28 L 2390.5 769.28 L 2390.5 775.51 L 2396.66 775.51 L 2396.66 769.28 L 2394 769.28 L 2393.99 759.14 L 2404.92 759.15 L 2404.91 766.76 L 2402.35 766.76 L 2402.35 772.99 L 2408.51 772.99 L 2408.51 766.76 L 2406.02 766.76 L 2406.03 759.15 L 2416.93 759.16 L 2416.88 769.29 L 2414.34 769.29 L 2414.34 775.52 L 2420.5 775.52 L 2420.5 769.29 L 2417.99 769.29 L 2418.04 758.6 C 2418.04 758.45 2417.99 758.31 2417.88 758.2 C 2417.78 758.1 2417.64 758.04 2417.49 758.04 L 2406.03 758.02 L 2406.04 752.19 L 2408.52 752.19 L 2408.52 745.96 Z" fill="#ffffff" stroke="none" pointer-events="all"/></g></g><g data-cell-id="jP2WbbBxQBNUkDRbYnSl-613"><g><path d="M 2443 745.96 L 2473 760.74 L 2443 775.52 Z" fill="none" stroke="rgb(240, 240, 240)" stroke-miterlimit="10" transform="rotate(-90,2458,760.74)" pointer-events="all"/></g></g><g data-cell-id="jP2WbbBxQBNUkDRbYnSl-614"><g><path d="M 2195.44 760.41 C 2196.33 760.41 2196.96 759.79 2196.96 758.97 L 2196.96 753.06 C 2196.96 752.28 2196.43 751.56 2195.54 751.56 C 2194.65 751.56 2194.03 752.27 2194.03 752.92 L 2194.03 758.98 C 2194.03 759.79 2194.72 760.41 2195.44 760.41 Z M 2195.45 769.92 C 2200.22 769.92 2204.17 766.14 2204.17 761.48 C 2204.17 759.13 2203.31 756.49 2200.68 754.58 C 2200.2 754.21 2199.22 754.4 2198.78 754.98 C 2198.37 755.57 2198.34 756.42 2199 757.03 C 2200.31 758.06 2201.17 759.67 2201.17 761.33 C 2201.17 764.55 2198.37 766.95 2195.57 766.95 C 2192.81 766.95 2190.05 764.97 2189.85 761.42 C 2189.81 759.99 2190.63 757.96 2192.08 756.96 C 2192.58 756.56 2192.78 755.65 2192.17 754.94 C 2191.59 754.21 2190.64 754.34 2190.24 754.65 C 2188.01 756.44 2186.93 758.45 2186.88 761.23 C 2186.88 766.39 2190.87 769.92 2195.45 769.92 Z M 2195.49 775.52 C 2186.95 775.52 2180.5 768.7 2180.5 760.68 C 2180.5 752.63 2187.21 745.96 2195.64 745.96 C 2203.38 745.96 2210.5 752.13 2210.5 760.65 C 2210.5 769.55 2203.28 775.52 2195.49 775.52 Z" fill="none" stroke="rgb(240, 240, 240)" stroke-miterlimit="10" pointer-events="all"/></g></g><g data-cell-id="jP2WbbBxQBNUkDRbYnSl-615"><g><rect x="2653" y="790.3" width="150" height="59.13" fill="#000000" stroke="#aaaaaa" pointer-events="all"/></g></g><g data-cell-id="jP2WbbBxQBNUkDRbYnSl-616"><g><rect x="2668" y="805.09" width="120" height="14.78" fill="#0050ef" stroke="none" pointer-events="all"/></g></g><g data-cell-id="jP2WbbBxQBNUkDRbYnSl-617"><g><rect x="2493.4" y="790.3" width="150" height="59.13" fill="#000000" stroke="#aaaaaa" pointer-events="all"/></g></g><g data-cell-id="jP2WbbBxQBNUkDRbYnSl-618"><g><rect x="2508.4" y="805.09" width="120" height="14.78" fill="#0050ef" stroke="none" pointer-events="all"/></g></g></g><g data-cell-id="kRLh6aXTUAaBPHpavEN1-85"><g/><g data-cell-id="kRLh6aXTUAaBPHpavEN1-22"><g/><g data-cell-id="kRLh6aXTUAaBPHpavEN1-23"><g><rect x="3528.28" y="20" width="1099.52" height="261.79" fill="#222222" stroke="none" pointer-events="all"/></g></g><g data-cell-id="kRLh6aXTUAaBPHpavEN1-24"><g><rect x="3559.69" y="51.42" width="1015.75" height="198.96" fill="#000000" stroke="#111111" stroke-width="5" pointer-events="all"/></g></g><g data-cell-id="kRLh6aXTUAaBPHpavEN1-25"><g><rect x="4580.68" y="234.67" width="41.89" height="31.41" rx="4.71" ry="4.71" fill="#60a917" stroke="#222222" transform="rotate(90,4601.62,250.38)" pointer-events="all"/></g></g><g data-cell-id="kRLh6aXTUAaBPHpavEN1-26"><g><rect x="4580.68" y="140.42" width="41.89" height="31.41" rx="4.71" ry="4.71" fill="#0050ef" stroke="#222222" transform="rotate(90,4601.62,156.13)" pointer-events="all"/></g></g><g data-cell-id="kRLh6aXTUAaBPHpavEN1-27"><g><rect x="4313.65" y="82.83" width="83.77" height="136.13" rx="12.57" ry="12.57" fill="#0050ef" stroke="none" pointer-events="all"/></g></g><g data-cell-id="kRLh6aXTUAaBPHpavEN1-28"><g><path d="M 4386.95 82.83 Q 4418.37 82.83 4418.37 150.9 Q 4418.37 218.96 4386.95 218.96 Z" fill="#0050ef" stroke="none" pointer-events="all"/></g></g><g data-cell-id="kRLh6aXTUAaBPHpavEN1-29"><g><path d="M 4601.56 108.66 C 4602.49 108.66 4603.15 108 4603.15 107.13 L 4603.15 100.84 C 4603.15 100.02 4602.59 99.26 4601.66 99.26 C 4600.73 99.26 4600.08 100.01 4600.08 100.7 L 4600.08 107.14 C 4600.08 108 4600.81 108.66 4601.56 108.66 Z M 4601.57 118.77 C 4606.57 118.77 4610.7 114.75 4610.7 109.8 C 4610.7 107.3 4609.8 104.5 4607.05 102.46 C 4606.54 102.07 4605.52 102.28 4605.05 102.89 C 4604.63 103.52 4604.6 104.42 4605.29 105.07 C 4606.66 106.16 4607.55 107.88 4607.55 109.64 C 4607.55 113.06 4604.63 115.61 4601.69 115.61 C 4598.8 115.61 4595.91 113.5 4595.71 109.73 C 4595.66 108.21 4596.52 106.06 4598.04 105 C 4598.56 104.57 4598.77 103.6 4598.13 102.85 C 4597.52 102.07 4596.53 102.21 4596.11 102.54 C 4593.77 104.45 4592.65 106.58 4592.59 109.53 C 4592.59 115.01 4596.77 118.77 4601.57 118.77 Z M 4601.61 124.72 C 4592.67 124.72 4585.91 117.46 4585.91 108.95 C 4585.91 100.39 4592.94 93.3 4601.77 93.3 C 4609.87 93.3 4617.33 99.86 4617.33 108.92 C 4617.33 118.37 4609.77 124.72 4601.61 124.72 Z" fill="none" stroke="#111111" stroke-width="2" stroke-miterlimit="10" pointer-events="all"/></g></g><g data-cell-id="kRLh6aXTUAaBPHpavEN1-30"><g><path d="M 4585.91 213.73 L 4585.91 192.78 C 4585.91 189.89 4592.95 187.55 4601.62 187.55 C 4610.3 187.55 4617.33 189.89 4617.33 192.78 L 4617.33 213.73 C 4617.33 216.62 4610.3 218.96 4601.62 218.96 C 4592.95 218.96 4585.91 216.62 4585.91 213.73 Z" fill="none" stroke="#111111" stroke-width="2" stroke-miterlimit="10" pointer-events="all"/><path d="M 4585.91 192.78 C 4585.91 195.67 4592.95 198.02 4601.62 198.02 C 4610.3 198.02 4617.33 195.67 4617.33 192.78" fill="none" stroke="#111111" stroke-width="2" stroke-miterlimit="10" pointer-events="all"/></g></g><g data-cell-id="kRLh6aXTUAaBPHpavEN1-31"><g><rect x="3559.69" y="51.42" width="806.32" height="198.96" fill="#222222" stroke="none" pointer-events="all"/></g></g><g data-cell-id="kRLh6aXTUAaBPHpavEN1-32"><g><rect x="3664.41" y="77.59" width="555" height="20.94" fill="#000000" stroke="none" pointer-events="all"/></g></g><g data-cell-id="kRLh6aXTUAaBPHpavEN1-33"><g><rect x="3664.41" y="119.48" width="555" height="20.94" fill="#000000" stroke="none" pointer-events="all"/></g></g><g data-cell-id="kRLh6aXTUAaBPHpavEN1-34"><g><rect x="3664.41" y="161.37" width="555" height="20.94" fill="#000000" stroke="none" pointer-events="all"/></g></g><g data-cell-id="kRLh6aXTUAaBPHpavEN1-35"><g><rect x="3664.41" y="203.25" width="555" height="20.94" fill="#000000" stroke="none" pointer-events="all"/></g></g><g data-cell-id="kRLh6aXTUAaBPHpavEN1-36"><g><rect x="3831.96" y="77.59" width="20.94" height="146.6" fill="#111111" stroke="none" pointer-events="all"/></g></g><g data-cell-id="kRLh6aXTUAaBPHpavEN1-37"><g><rect x="4030.92" y="77.59" width="20.94" height="146.6" fill="#111111" stroke="none" pointer-events="all"/></g></g><g data-cell-id="kRLh6aXTUAaBPHpavEN1-38"><g><rect x="3664.41" y="182.31" width="555" height="20.94" fill="#222222" stroke="none" pointer-events="all"/></g></g><g data-cell-id="kRLh6aXTUAaBPHpavEN1-39"><g><rect x="3664.41" y="140.42" width="555" height="20.94" fill="#222222" stroke="none" pointer-events="all"/></g></g><g data-cell-id="kRLh6aXTUAaBPHpavEN1-40"><g><rect x="3664.41" y="98.54" width="555" height="20.94" fill="#222222" stroke="none" pointer-events="all"/></g></g><g data-cell-id="kRLh6aXTUAaBPHpavEN1-41"><g><rect x="3622.52" y="77.59" width="41.89" height="146.6" fill="#111111" stroke="none" pointer-events="all"/></g></g><g data-cell-id="kRLh6aXTUAaBPHpavEN1-42"><g><rect x="4219.41" y="77.59" width="41.89" height="146.6" fill="#111111" stroke="none" pointer-events="all"/></g></g></g><g data-cell-id="kRLh6aXTUAaBPHpavEN1-1"><g/><g data-cell-id="kRLh6aXTUAaBPHpavEN1-2"><g><rect x="2418.28" y="20" width="1099.52" height="261.79" fill="#222222" stroke="none" pointer-events="all"/></g></g><g data-cell-id="kRLh6aXTUAaBPHpavEN1-3"><g><rect x="2449.69" y="51.42" width="1015.75" height="198.96" fill="#000000" stroke="#111111" stroke-width="5" pointer-events="all"/></g></g><g data-cell-id="kRLh6aXTUAaBPHpavEN1-4"><g><rect x="3470.68" y="234.67" width="41.89" height="31.41" rx="4.71" ry="4.71" fill="#60a917" stroke="#222222" transform="rotate(90,3491.62,250.38)" pointer-events="all"/></g></g><g data-cell-id="kRLh6aXTUAaBPHpavEN1-5"><g><rect x="3470.68" y="140.42" width="41.89" height="31.41" rx="4.71" ry="4.71" fill="#0050ef" stroke="#222222" transform="rotate(90,3491.62,156.13)" pointer-events="all"/></g></g><g data-cell-id="kRLh6aXTUAaBPHpavEN1-6"><g><rect x="3203.65" y="82.83" width="83.77" height="136.13" rx="12.57" ry="12.57" fill="#0050ef" stroke="none" pointer-events="all"/></g></g><g data-cell-id="kRLh6aXTUAaBPHpavEN1-7"><g><path d="M 3276.95 82.83 Q 3308.37 82.83 3308.37 150.9 Q 3308.37 218.96 3276.95 218.96 Z" fill="#0050ef" stroke="none" pointer-events="all"/></g></g><g data-cell-id="kRLh6aXTUAaBPHpavEN1-8"><g><path d="M 3491.56 108.66 C 3492.49 108.66 3493.15 108 3493.15 107.13 L 3493.15 100.84 C 3493.15 100.02 3492.59 99.26 3491.66 99.26 C 3490.73 99.26 3490.08 100.01 3490.08 100.7 L 3490.08 107.14 C 3490.08 108 3490.81 108.66 3491.56 108.66 Z M 3491.57 118.77 C 3496.57 118.77 3500.7 114.75 3500.7 109.8 C 3500.7 107.3 3499.8 104.5 3497.05 102.46 C 3496.54 102.07 3495.52 102.28 3495.05 102.89 C 3494.63 103.52 3494.6 104.42 3495.29 105.07 C 3496.66 106.16 3497.55 107.88 3497.55 109.64 C 3497.55 113.06 3494.63 115.61 3491.69 115.61 C 3488.8 115.61 3485.91 113.5 3485.71 109.73 C 3485.66 108.21 3486.52 106.06 3488.04 105 C 3488.56 104.57 3488.77 103.6 3488.13 102.85 C 3487.52 102.07 3486.53 102.21 3486.11 102.54 C 3483.77 104.45 3482.65 106.58 3482.59 109.53 C 3482.59 115.01 3486.77 118.77 3491.57 118.77 Z M 3491.61 124.72 C 3482.67 124.72 3475.91 117.46 3475.91 108.95 C 3475.91 100.39 3482.94 93.3 3491.77 93.3 C 3499.87 93.3 3507.33 99.86 3507.33 108.92 C 3507.33 118.37 3499.77 124.72 3491.61 124.72 Z" fill="none" stroke="#111111" stroke-width="2" stroke-miterlimit="10" pointer-events="all"/></g></g><g data-cell-id="kRLh6aXTUAaBPHpavEN1-9"><g><path d="M 3475.91 213.73 L 3475.91 192.78 C 3475.91 189.89 3482.95 187.55 3491.62 187.55 C 3500.3 187.55 3507.33 189.89 3507.33 192.78 L 3507.33 213.73 C 3507.33 216.62 3500.3 218.96 3491.62 218.96 C 3482.95 218.96 3475.91 216.62 3475.91 213.73 Z" fill="none" stroke="#111111" stroke-width="2" stroke-miterlimit="10" pointer-events="all"/><path d="M 3475.91 192.78 C 3475.91 195.67 3482.95 198.02 3491.62 198.02 C 3500.3 198.02 3507.33 195.67 3507.33 192.78" fill="none" stroke="#111111" stroke-width="2" stroke-miterlimit="10" pointer-events="all"/></g></g><g data-cell-id="kRLh6aXTUAaBPHpavEN1-10"><g><rect x="2449.69" y="51.42" width="806.32" height="198.96" fill="#222222" stroke="none" pointer-events="all"/></g></g><g data-cell-id="kRLh6aXTUAaBPHpavEN1-11"><g><rect x="2554.41" y="77.59" width="555" height="20.94" fill="#000000" stroke="none" pointer-events="all"/></g></g><g data-cell-id="kRLh6aXTUAaBPHpavEN1-12"><g><rect x="2554.41" y="119.48" width="555" height="20.94" fill="#000000" stroke="none" pointer-events="all"/></g></g><g data-cell-id="kRLh6aXTUAaBPHpavEN1-13"><g><rect x="2554.41" y="161.37" width="555" height="20.94" fill="#000000" stroke="none" pointer-events="all"/></g></g><g data-cell-id="kRLh6aXTUAaBPHpavEN1-14"><g><rect x="2554.41" y="203.25" width="555" height="20.94" fill="#000000" stroke="none" pointer-events="all"/></g></g><g data-cell-id="kRLh6aXTUAaBPHpavEN1-15"><g><rect x="2721.96" y="77.59" width="20.94" height="146.6" fill="#111111" stroke="none" pointer-events="all"/></g></g><g data-cell-id="kRLh6aXTUAaBPHpavEN1-16"><g><rect x="2920.92" y="77.59" width="20.94" height="146.6" fill="#111111" stroke="none" pointer-events="all"/></g></g><g data-cell-id="kRLh6aXTUAaBPHpavEN1-17"><g><rect x="2554.41" y="182.31" width="555" height="20.94" fill="#222222" stroke="none" pointer-events="all"/></g></g><g data-cell-id="kRLh6aXTUAaBPHpavEN1-18"><g><rect x="2554.41" y="140.42" width="555" height="20.94" fill="#222222" stroke="none" pointer-events="all"/></g></g><g data-cell-id="kRLh6aXTUAaBPHpavEN1-19"><g><rect x="2554.41" y="98.54" width="555" height="20.94" fill="#222222" stroke="none" pointer-events="all"/></g></g><g data-cell-id="kRLh6aXTUAaBPHpavEN1-20"><g><rect x="2512.52" y="77.59" width="41.89" height="146.6" fill="#111111" stroke="none" pointer-events="all"/></g></g><g data-cell-id="kRLh6aXTUAaBPHpavEN1-21"><g><rect x="3109.41" y="77.59" width="41.89" height="146.6" fill="#111111" stroke="none" pointer-events="all"/></g></g></g><g data-cell-id="kRLh6aXTUAaBPHpavEN1-43"><g/><g data-cell-id="kRLh6aXTUAaBPHpavEN1-44"><g><rect x="1308.28" y="20" width="1099.52" height="261.79" fill="#222222" stroke="none" pointer-events="all"/></g></g><g data-cell-id="kRLh6aXTUAaBPHpavEN1-45"><g><rect x="1339.69" y="51.42" width="1015.75" height="198.96" fill="#000000" stroke="#111111" stroke-width="5" pointer-events="all"/></g></g><g data-cell-id="kRLh6aXTUAaBPHpavEN1-46"><g><rect x="2360.68" y="234.67" width="41.89" height="31.41" rx="4.71" ry="4.71" fill="#60a917" stroke="#222222" transform="rotate(90,2381.62,250.38)" pointer-events="all"/></g></g><g data-cell-id="kRLh6aXTUAaBPHpavEN1-47"><g><rect x="2360.68" y="140.42" width="41.89" height="31.41" rx="4.71" ry="4.71" fill="#0050ef" stroke="#222222" transform="rotate(90,2381.62,156.13)" pointer-events="all"/></g></g><g data-cell-id="kRLh6aXTUAaBPHpavEN1-48"><g><rect x="2093.65" y="82.83" width="83.77" height="136.13" rx="12.57" ry="12.57" fill="#0050ef" stroke="none" pointer-events="all"/></g></g><g data-cell-id="kRLh6aXTUAaBPHpavEN1-49"><g><path d="M 2166.95 82.83 Q 2198.37 82.83 2198.37 150.9 Q 2198.37 218.96 2166.95 218.96 Z" fill="#0050ef" stroke="none" pointer-events="all"/></g></g><g data-cell-id="kRLh6aXTUAaBPHpavEN1-50"><g><path d="M 2381.56 108.66 C 2382.49 108.66 2383.15 108 2383.15 107.13 L 2383.15 100.84 C 2383.15 100.02 2382.59 99.26 2381.66 99.26 C 2380.73 99.26 2380.08 100.01 2380.08 100.7 L 2380.08 107.14 C 2380.08 108 2380.81 108.66 2381.56 108.66 Z M 2381.57 118.77 C 2386.57 118.77 2390.7 114.75 2390.7 109.8 C 2390.7 107.3 2389.8 104.5 2387.05 102.46 C 2386.54 102.07 2385.52 102.28 2385.05 102.89 C 2384.63 103.52 2384.6 104.42 2385.29 105.07 C 2386.66 106.16 2387.55 107.88 2387.55 109.64 C 2387.55 113.06 2384.63 115.61 2381.69 115.61 C 2378.8 115.61 2375.91 113.5 2375.71 109.73 C 2375.66 108.21 2376.52 106.06 2378.04 105 C 2378.56 104.57 2378.77 103.6 2378.13 102.85 C 2377.52 102.07 2376.53 102.21 2376.11 102.54 C 2373.77 104.45 2372.65 106.58 2372.59 109.53 C 2372.59 115.01 2376.77 118.77 2381.57 118.77 Z M 2381.61 124.72 C 2372.67 124.72 2365.91 117.46 2365.91 108.95 C 2365.91 100.39 2372.94 93.3 2381.77 93.3 C 2389.87 93.3 2397.33 99.86 2397.33 108.92 C 2397.33 118.37 2389.77 124.72 2381.61 124.72 Z" fill="none" stroke="#111111" stroke-width="2" stroke-miterlimit="10" pointer-events="all"/></g></g><g data-cell-id="kRLh6aXTUAaBPHpavEN1-51"><g><path d="M 2365.91 213.73 L 2365.91 192.78 C 2365.91 189.89 2372.95 187.55 2381.62 187.55 C 2390.3 187.55 2397.33 189.89 2397.33 192.78 L 2397.33 213.73 C 2397.33 216.62 2390.3 218.96 2381.62 218.96 C 2372.95 218.96 2365.91 216.62 2365.91 213.73 Z" fill="none" stroke="#111111" stroke-width="2" stroke-miterlimit="10" pointer-events="all"/><path d="M 2365.91 192.78 C 2365.91 195.67 2372.95 198.02 2381.62 198.02 C 2390.3 198.02 2397.33 195.67 2397.33 192.78" fill="none" stroke="#111111" stroke-width="2" stroke-miterlimit="10" pointer-events="all"/></g></g><g data-cell-id="kRLh6aXTUAaBPHpavEN1-52"><g><rect x="1339.69" y="51.42" width="806.32" height="198.96" fill="#222222" stroke="none" pointer-events="all"/></g></g><g data-cell-id="kRLh6aXTUAaBPHpavEN1-53"><g><rect x="1444.41" y="77.59" width="555" height="20.94" fill="#000000" stroke="none" pointer-events="all"/></g></g><g data-cell-id="kRLh6aXTUAaBPHpavEN1-54"><g><rect x="1444.41" y="119.48" width="555" height="20.94" fill="#000000" stroke="none" pointer-events="all"/></g></g><g data-cell-id="kRLh6aXTUAaBPHpavEN1-55"><g><rect x="1444.41" y="161.37" width="555" height="20.94" fill="#000000" stroke="none" pointer-events="all"/></g></g><g data-cell-id="kRLh6aXTUAaBPHpavEN1-56"><g><rect x="1444.41" y="203.25" width="555" height="20.94" fill="#000000" stroke="none" pointer-events="all"/></g></g><g data-cell-id="kRLh6aXTUAaBPHpavEN1-57"><g><rect x="1611.96" y="77.59" width="20.94" height="146.6" fill="#111111" stroke="none" pointer-events="all"/></g></g><g data-cell-id="kRLh6aXTUAaBPHpavEN1-58"><g><rect x="1810.92" y="77.59" width="20.94" height="146.6" fill="#111111" stroke="none" pointer-events="all"/></g></g><g data-cell-id="kRLh6aXTUAaBPHpavEN1-59"><g><rect x="1444.41" y="182.31" width="555" height="20.94" fill="#222222" stroke="none" pointer-events="all"/></g></g><g data-cell-id="kRLh6aXTUAaBPHpavEN1-60"><g><rect x="1444.41" y="140.42" width="555" height="20.94" fill="#222222" stroke="none" pointer-events="all"/></g></g><g data-cell-id="kRLh6aXTUAaBPHpavEN1-61"><g><rect x="1444.41" y="98.54" width="555" height="20.94" fill="#222222" stroke="none" pointer-events="all"/></g></g><g data-cell-id="kRLh6aXTUAaBPHpavEN1-62"><g><rect x="1402.52" y="77.59" width="41.89" height="146.6" fill="#111111" stroke="none" pointer-events="all"/></g></g><g data-cell-id="kRLh6aXTUAaBPHpavEN1-63"><g><rect x="1999.41" y="77.59" width="41.89" height="146.6" fill="#111111" stroke="none" pointer-events="all"/></g></g></g><g data-cell-id="kRLh6aXTUAaBPHpavEN1-64"><g/><g data-cell-id="kRLh6aXTUAaBPHpavEN1-65"><g><rect x="198.28" y="20" width="1099.52" height="261.79" fill="#222222" stroke="none" pointer-events="all"/></g></g><g data-cell-id="kRLh6aXTUAaBPHpavEN1-66"><g><rect x="229.69" y="51.42" width="1015.75" height="198.96" fill="#000000" stroke="#111111" stroke-width="5" pointer-events="all"/></g></g><g data-cell-id="kRLh6aXTUAaBPHpavEN1-67"><g><rect x="1250.68" y="234.67" width="41.89" height="31.41" rx="4.71" ry="4.71" fill="#60a917" stroke="#222222" transform="rotate(90,1271.62,250.38)" pointer-events="all"/></g></g><g data-cell-id="kRLh6aXTUAaBPHpavEN1-68"><g><rect x="1250.68" y="140.42" width="41.89" height="31.41" rx="4.71" ry="4.71" fill="#0050ef" stroke="#222222" transform="rotate(90,1271.62,156.13)" pointer-events="all"/></g></g><g data-cell-id="kRLh6aXTUAaBPHpavEN1-69"><g><rect x="983.65" y="82.83" width="83.77" height="136.13" rx="12.57" ry="12.57" fill="#0050ef" stroke="none" pointer-events="all"/></g></g><g data-cell-id="kRLh6aXTUAaBPHpavEN1-70"><g><path d="M 1056.95 82.83 Q 1088.37 82.83 1088.37 150.9 Q 1088.37 218.96 1056.95 218.96 Z" fill="#0050ef" stroke="none" pointer-events="all"/></g></g><g data-cell-id="kRLh6aXTUAaBPHpavEN1-71"><g><path d="M 1271.56 108.66 C 1272.49 108.66 1273.15 108 1273.15 107.13 L 1273.15 100.84 C 1273.15 100.02 1272.59 99.26 1271.66 99.26 C 1270.73 99.26 1270.08 100.01 1270.08 100.7 L 1270.08 107.14 C 1270.08 108 1270.81 108.66 1271.56 108.66 Z M 1271.57 118.77 C 1276.57 118.77 1280.7 114.75 1280.7 109.8 C 1280.7 107.3 1279.8 104.5 1277.05 102.46 C 1276.54 102.07 1275.52 102.28 1275.05 102.89 C 1274.63 103.52 1274.6 104.42 1275.29 105.07 C 1276.66 106.16 1277.55 107.88 1277.55 109.64 C 1277.55 113.06 1274.63 115.61 1271.69 115.61 C 1268.8 115.61 1265.91 113.5 1265.71 109.73 C 1265.66 108.21 1266.52 106.06 1268.04 105 C 1268.56 104.57 1268.77 103.6 1268.13 102.85 C 1267.52 102.07 1266.53 102.21 1266.11 102.54 C 1263.77 104.45 1262.65 106.58 1262.59 109.53 C 1262.59 115.01 1266.77 118.77 1271.57 118.77 Z M 1271.61 124.72 C 1262.67 124.72 1255.91 117.46 1255.91 108.95 C 1255.91 100.39 1262.94 93.3 1271.77 93.3 C 1279.87 93.3 1287.33 99.86 1287.33 108.92 C 1287.33 118.37 1279.77 124.72 1271.61 124.72 Z" fill="none" stroke="#111111" stroke-width="2" stroke-miterlimit="10" pointer-events="all"/></g></g><g data-cell-id="kRLh6aXTUAaBPHpavEN1-72"><g><path d="M 1255.91 213.73 L 1255.91 192.78 C 1255.91 189.89 1262.95 187.55 1271.62 187.55 C 1280.3 187.55 1287.33 189.89 1287.33 192.78 L 1287.33 213.73 C 1287.33 216.62 1280.3 218.96 1271.62 218.96 C 1262.95 218.96 1255.91 216.62 1255.91 213.73 Z" fill="none" stroke="#111111" stroke-width="2" stroke-miterlimit="10" pointer-events="all"/><path d="M 1255.91 192.78 C 1255.91 195.67 1262.95 198.02 1271.62 198.02 C 1280.3 198.02 1287.33 195.67 1287.33 192.78" fill="none" stroke="#111111" stroke-width="2" stroke-miterlimit="10" pointer-events="all"/></g></g><g data-cell-id="kRLh6aXTUAaBPHpavEN1-73"><g><rect x="229.69" y="51.42" width="806.32" height="198.96" fill="#222222" stroke="none" pointer-events="all"/></g></g><g data-cell-id="kRLh6aXTUAaBPHpavEN1-74"><g><rect x="334.41" y="77.59" width="555" height="20.94" fill="#000000" stroke="none" pointer-events="all"/></g></g><g data-cell-id="kRLh6aXTUAaBPHpavEN1-75"><g><rect x="334.41" y="119.48" width="555" height="20.94" fill="#000000" stroke="none" pointer-events="all"/></g></g><g data-cell-id="kRLh6aXTUAaBPHpavEN1-76"><g><rect x="334.41" y="161.37" width="555" height="20.94" fill="#000000" stroke="none" pointer-events="all"/></g></g><g data-cell-id="kRLh6aXTUAaBPHpavEN1-77"><g><rect x="334.41" y="203.25" width="555" height="20.94" fill="#000000" stroke="none" pointer-events="all"/></g></g><g data-cell-id="kRLh6aXTUAaBPHpavEN1-78"><g><rect x="501.96" y="77.59" width="20.94" height="146.6" fill="#111111" stroke="none" pointer-events="all"/></g></g><g data-cell-id="kRLh6aXTUAaBPHpavEN1-79"><g><rect x="700.92" y="77.59" width="20.94" height="146.6" fill="#111111" stroke="none" pointer-events="all"/></g></g><g data-cell-id="kRLh6aXTUAaBPHpavEN1-80"><g><rect x="334.41" y="182.31" width="555" height="20.94" fill="#222222" stroke="none" pointer-events="all"/></g></g><g data-cell-id="kRLh6aXTUAaBPHpavEN1-81"><g><rect x="334.41" y="140.42" width="555" height="20.94" fill="#222222" stroke="none" pointer-events="all"/></g></g><g data-cell-id="kRLh6aXTUAaBPHpavEN1-82"><g><rect x="334.41" y="98.54" width="555" height="20.94" fill="#222222" stroke="none" pointer-events="all"/></g></g><g data-cell-id="kRLh6aXTUAaBPHpavEN1-83"><g><rect x="292.52" y="77.59" width="41.89" height="146.6" fill="#111111" stroke="none" pointer-events="all"/></g></g><g data-cell-id="kRLh6aXTUAaBPHpavEN1-84"><g><rect x="889.41" y="77.59" width="41.89" height="146.6" fill="#111111" stroke="none" pointer-events="all"/></g></g></g></g></g></g></g></g></svg>