<?xml version="1.0" encoding="UTF-8"?>
<!DOCTYPE svg PUBLIC "-//W3C//DTD SVG 1.1//EN" "http://www.w3.org/Graphics/SVG/1.1/DTD/svg11.dtd">
<svg xmlns="http://www.w3.org/2000/svg" xmlns:xlink="http://www.w3.org/1999/xlink" version="1.1" width="4836px" height="1344px" viewBox="-0.5 -0.5 4836 1344"><defs/><g><g/><g><rect x="0" y="0" width="4826" height="1333.5" fill="#bfbfbf" stroke="#aaaaaa" stroke-width="10" pointer-events="all"/></g><g><rect x="180" y="0" width="4466" height="1333.5" fill="#222222" stroke="#aaaaaa" stroke-width="10" pointer-events="all"/></g><g><rect x="79.96" y="281.7" width="100" height="770" fill="#bfbfbf" stroke="#aaaaaa" stroke-width="10" pointer-events="all"/></g><g><rect x="4645.96" y="281.7" width="100" height="770" fill="#bfbfbf" stroke="#aaaaaa" stroke-width="10" pointer-events="all"/></g><g/><g><rect x="4716" y="1111.7" width="40" height="60" fill="#000000" stroke="none" pointer-events="all"/></g><g><ellipse cx="4756" cy="1141.7" rx="30" ry="30" fill="#000000" stroke="none" pointer-events="all"/></g><g><ellipse cx="4716" cy="1141.7" rx="30" ry="30" fill="#000000" stroke="none" pointer-events="all"/></g><g/><g><rect x="4716" y="161.7" width="40" height="60" fill="#000000" stroke="none" pointer-events="all"/></g><g><ellipse cx="4756" cy="191.7" rx="30" ry="30" fill="#000000" stroke="none" pointer-events="all"/></g><g><ellipse cx="4716" cy="191.7" rx="30" ry="30" fill="#000000" stroke="none" pointer-events="all"/></g><g/><g><rect x="69.96" y="1111.7" width="40" height="60" fill="#000000" stroke="none" pointer-events="all"/></g><g><ellipse cx="109.96" cy="1141.7" rx="30" ry="30" fill="#000000" stroke="none" pointer-events="all"/></g><g><ellipse cx="69.96" cy="1141.7" rx="30" ry="30" fill="#000000" stroke="none" pointer-events="all"/></g><g/><g><rect x="69.96" y="161.7" width="40" height="60" fill="#000000" stroke="none" pointer-events="all"/></g><g><ellipse cx="109.96" cy="191.7" rx="30" ry="30" fill="#000000" stroke="none" pointer-events="all"/></g><g><ellipse cx="69.96" cy="191.7" rx="30" ry="30" fill="#000000" stroke="none" pointer-events="all"/></g><g><rect x="198.3" y="1048.21" width="1099.52" height="261.79" fill="#333333" stroke="none" pointer-events="all"/></g><g><rect x="229.71" y="1079.62" width="1015.75" height="198.96" fill="#222222" stroke="#222222" stroke-width="5" pointer-events="all"/></g><g><rect x="1250.7" y="1262.88" width="41.89" height="31.41" rx="4.71" ry="4.71" fill="#60a917" stroke="#222222" transform="rotate(90,1271.64,1278.58)" pointer-events="all"/></g><g><rect x="1250.7" y="1168.63" width="41.89" height="31.41" rx="4.71" ry="4.71" fill="#0050ef" stroke="#222222" transform="rotate(90,1271.64,1184.34)" pointer-events="all"/></g><g><rect x="983.67" y="1111.04" width="83.77" height="136.13" rx="12.57" ry="12.57" fill="#0050ef" stroke="none" pointer-events="all"/></g><g><path d="M 1056.97 1111.04 Q 1088.39 1111.04 1088.39 1179.1 Q 1088.39 1247.17 1056.97 1247.17 Z" fill="#0050ef" stroke="none" pointer-events="all"/></g><g><path d="M 1271.58 1136.87 C 1272.51 1136.87 1273.18 1136.21 1273.18 1135.34 L 1273.18 1129.05 C 1273.18 1128.23 1272.62 1127.47 1271.69 1127.47 C 1270.75 1127.47 1270.1 1128.22 1270.1 1128.9 L 1270.1 1135.35 C 1270.1 1136.2 1270.83 1136.87 1271.58 1136.87 Z M 1271.59 1146.97 C 1276.59 1146.97 1280.72 1142.96 1280.72 1138.01 C 1280.72 1135.51 1279.82 1132.71 1277.07 1130.67 C 1276.56 1130.28 1275.54 1130.48 1275.07 1131.1 C 1274.65 1131.72 1274.62 1132.62 1275.31 1133.28 C 1276.68 1134.37 1277.58 1136.08 1277.58 1137.84 C 1277.58 1141.27 1274.65 1143.82 1271.71 1143.82 C 1268.82 1143.82 1265.93 1141.71 1265.73 1137.94 C 1265.69 1136.42 1266.54 1134.26 1268.06 1133.2 C 1268.58 1132.77 1268.79 1131.81 1268.15 1131.06 C 1267.54 1130.28 1266.56 1130.41 1266.13 1130.75 C 1263.8 1132.65 1262.67 1134.79 1262.61 1137.73 C 1262.61 1143.22 1266.79 1146.97 1271.59 1146.97 Z M 1271.64 1152.92 C 1262.69 1152.92 1255.93 1145.67 1255.93 1137.15 C 1255.93 1128.6 1262.96 1121.51 1271.79 1121.51 C 1279.89 1121.51 1287.35 1128.07 1287.35 1137.12 C 1287.35 1146.58 1279.79 1152.92 1271.64 1152.92 Z" fill="none" stroke="#222222" stroke-miterlimit="10" pointer-events="all"/></g><g><path d="M 1255.93 1241.93 L 1255.93 1220.99 C 1255.93 1218.1 1262.97 1215.75 1271.64 1215.75 C 1280.32 1215.75 1287.35 1218.1 1287.35 1220.99 L 1287.35 1241.93 C 1287.35 1244.83 1280.32 1247.17 1271.64 1247.17 C 1262.97 1247.17 1255.93 1244.83 1255.93 1241.93 Z" fill="none" stroke="#222222" stroke-miterlimit="10" pointer-events="all"/><path d="M 1255.93 1220.99 C 1255.93 1223.88 1262.97 1226.23 1271.64 1226.23 C 1280.32 1226.23 1287.35 1223.88 1287.35 1220.99" fill="none" stroke="#222222" stroke-miterlimit="10" pointer-events="all"/></g><g><rect x="229.71" y="1079.62" width="806.32" height="198.96" fill="#333333" stroke="none" pointer-events="all"/></g><g><rect x="889.43" y="1105.8" width="41.89" height="146.6" fill="#2d2d2d" stroke="none" pointer-events="all"/></g><g><rect x="292.54" y="1105.8" width="41.89" height="146.6" fill="#2d2d2d" stroke="none" pointer-events="all"/></g><g><rect x="334.43" y="1105.8" width="555" height="20.94" fill="#222222" stroke="none" pointer-events="all"/></g><g><rect x="334.43" y="1147.69" width="555" height="20.94" fill="#222222" stroke="none" pointer-events="all"/></g><g><rect x="334.43" y="1189.58" width="555" height="20.94" fill="#222222" stroke="none" pointer-events="all"/></g><g><rect x="334.43" y="1231.46" width="555" height="20.94" fill="#222222" stroke="none" pointer-events="all"/></g><g><rect x="501.98" y="1105.8" width="20.94" height="146.6" fill="#2d2d2d" stroke="none" pointer-events="all"/></g><g><rect x="700.94" y="1105.8" width="20.94" height="146.6" fill="#2d2d2d" stroke="none" pointer-events="all"/></g><g><rect x="334.43" y="1210.52" width="555" height="20.94" fill="#333333" stroke="none" pointer-events="all"/></g><g><rect x="334.43" y="1168.63" width="555" height="20.94" fill="#333333" stroke="none" pointer-events="all"/></g><g><rect x="334.43" y="1126.75" width="555" height="20.94" fill="#333333" stroke="none" pointer-events="all"/></g><g><rect x="1308.29" y="1048.21" width="1099.52" height="261.79" fill="#333333" stroke="none" pointer-events="all"/></g><g><rect x="1339.71" y="1079.62" width="1015.75" height="198.96" fill="#222222" stroke="#222222" stroke-width="5" pointer-events="all"/></g><g><rect x="2360.69" y="1262.88" width="41.89" height="31.41" rx="4.71" ry="4.71" fill="#60a917" stroke="#222222" transform="rotate(90,2381.64,1278.58)" pointer-events="all"/></g><g><rect x="2360.69" y="1168.63" width="41.89" height="31.41" rx="4.71" ry="4.71" fill="#0050ef" stroke="#222222" transform="rotate(90,2381.64,1184.34)" pointer-events="all"/></g><g><rect x="2093.67" y="1111.04" width="83.77" height="136.13" rx="12.57" ry="12.57" fill="#0050ef" stroke="none" pointer-events="all"/></g><g><path d="M 2166.97 1111.04 Q 2198.38 1111.04 2198.38 1179.1 Q 2198.38 1247.17 2166.97 1247.17 Z" fill="#0050ef" stroke="none" pointer-events="all"/></g><g><path d="M 2381.57 1136.87 C 2382.51 1136.87 2383.17 1136.21 2383.17 1135.34 L 2383.17 1129.05 C 2383.17 1128.23 2382.61 1127.47 2381.68 1127.47 C 2380.74 1127.47 2380.09 1128.22 2380.09 1128.9 L 2380.09 1135.35 C 2380.09 1136.2 2380.82 1136.87 2381.57 1136.87 Z M 2381.58 1146.97 C 2386.58 1146.97 2390.71 1142.96 2390.71 1138.01 C 2390.71 1135.51 2389.81 1132.71 2387.06 1130.67 C 2386.56 1130.28 2385.53 1130.48 2385.07 1131.1 C 2384.64 1131.72 2384.61 1132.62 2385.3 1133.28 C 2386.67 1134.37 2387.57 1136.08 2387.57 1137.84 C 2387.57 1141.27 2384.64 1143.82 2381.71 1143.82 C 2378.81 1143.82 2375.93 1141.71 2375.72 1137.94 C 2375.68 1136.42 2376.54 1134.26 2378.05 1133.2 C 2378.57 1132.77 2378.79 1131.81 2378.14 1131.06 C 2377.54 1130.28 2376.55 1130.41 2376.12 1130.75 C 2373.79 1132.65 2372.67 1134.79 2372.6 1137.73 C 2372.6 1143.22 2376.78 1146.97 2381.58 1146.97 Z M 2381.63 1152.92 C 2372.68 1152.92 2365.93 1145.67 2365.93 1137.15 C 2365.93 1128.6 2372.95 1121.51 2381.78 1121.51 C 2389.89 1121.51 2397.34 1128.07 2397.34 1137.12 C 2397.34 1146.58 2389.78 1152.92 2381.63 1152.92 Z" fill="none" stroke="#222222" stroke-miterlimit="10" pointer-events="all"/></g><g><path d="M 2365.93 1241.93 L 2365.93 1220.99 C 2365.93 1218.1 2372.96 1215.75 2381.64 1215.75 C 2390.31 1215.75 2397.34 1218.1 2397.34 1220.99 L 2397.34 1241.93 C 2397.34 1244.83 2390.31 1247.17 2381.64 1247.17 C 2372.96 1247.17 2365.93 1244.83 2365.93 1241.93 Z" fill="none" stroke="#222222" stroke-miterlimit="10" pointer-events="all"/><path d="M 2365.93 1220.99 C 2365.93 1223.88 2372.96 1226.23 2381.64 1226.23 C 2390.31 1226.23 2397.34 1223.88 2397.34 1220.99" fill="none" stroke="#222222" stroke-miterlimit="10" pointer-events="all"/></g><g><rect x="1339.71" y="1079.62" width="806.32" height="198.96" fill="#333333" stroke="none" pointer-events="all"/></g><g><rect x="1999.42" y="1105.8" width="41.89" height="146.6" fill="#2d2d2d" stroke="none" pointer-events="all"/></g><g><rect x="1402.54" y="1105.8" width="41.89" height="146.6" fill="#2d2d2d" stroke="none" pointer-events="all"/></g><g><rect x="1444.42" y="1105.8" width="555" height="20.94" fill="#222222" stroke="none" pointer-events="all"/></g><g><rect x="1444.42" y="1147.69" width="555" height="20.94" fill="#222222" stroke="none" pointer-events="all"/></g><g><rect x="1444.42" y="1189.58" width="555" height="20.94" fill="#222222" stroke="none" pointer-events="all"/></g><g><rect x="1444.42" y="1231.46" width="555" height="20.94" fill="#222222" stroke="none" pointer-events="all"/></g><g><rect x="1611.97" y="1105.8" width="20.94" height="146.6" fill="#2d2d2d" stroke="none" pointer-events="all"/></g><g><rect x="1810.93" y="1105.8" width="20.94" height="146.6" fill="#2d2d2d" stroke="none" pointer-events="all"/></g><g><rect x="1444.42" y="1210.52" width="555" height="20.94" fill="#333333" stroke="none" pointer-events="all"/></g><g><rect x="1444.42" y="1168.63" width="555" height="20.94" fill="#333333" stroke="none" pointer-events="all"/></g><g><rect x="1444.42" y="1126.75" width="555" height="20.94" fill="#333333" stroke="none" pointer-events="all"/></g><g><rect x="2418.29" y="1048.21" width="1099.52" height="261.79" fill="#333333" stroke="none" pointer-events="all"/></g><g><rect x="2449.7" y="1079.62" width="1015.75" height="198.96" fill="#222222" stroke="#222222" stroke-width="5" pointer-events="all"/></g><g><rect x="3470.68" y="1262.88" width="41.89" height="31.41" rx="4.71" ry="4.71" fill="#60a917" stroke="#222222" transform="rotate(90,3491.63,1278.58)" pointer-events="all"/></g><g><rect x="3470.68" y="1168.63" width="41.89" height="31.41" rx="4.71" ry="4.71" fill="#0050ef" stroke="#222222" transform="rotate(90,3491.63,1184.34)" pointer-events="all"/></g><g><rect x="3203.66" y="1111.04" width="83.77" height="136.13" rx="12.57" ry="12.57" fill="#0050ef" stroke="none" pointer-events="all"/></g><g><path d="M 3276.96 1111.04 Q 3308.37 1111.04 3308.37 1179.1 Q 3308.37 1247.17 3276.96 1247.17 Z" fill="#0050ef" stroke="none" pointer-events="all"/></g><g><path d="M 3491.56 1136.87 C 3492.5 1136.87 3493.16 1136.21 3493.16 1135.34 L 3493.16 1129.05 C 3493.16 1128.23 3492.6 1127.47 3491.67 1127.47 C 3490.74 1127.47 3490.09 1128.22 3490.09 1128.9 L 3490.09 1135.35 C 3490.09 1136.2 3490.81 1136.87 3491.56 1136.87 Z M 3491.58 1146.97 C 3496.57 1146.97 3500.71 1142.96 3500.71 1138.01 C 3500.71 1135.51 3499.81 1132.71 3497.06 1130.67 C 3496.55 1130.28 3495.52 1130.48 3495.06 1131.1 C 3494.63 1131.72 3494.6 1132.62 3495.3 1133.28 C 3496.66 1134.37 3497.56 1136.08 3497.56 1137.84 C 3497.56 1141.27 3494.64 1143.82 3491.7 1143.82 C 3488.81 1143.82 3485.92 1141.71 3485.71 1137.94 C 3485.67 1136.42 3486.53 1134.26 3488.05 1133.2 C 3488.57 1132.77 3488.78 1131.81 3488.14 1131.06 C 3487.53 1130.28 3486.54 1130.41 3486.12 1130.75 C 3483.78 1132.65 3482.66 1134.79 3482.6 1137.73 C 3482.6 1143.22 3486.78 1146.97 3491.58 1146.97 Z M 3491.62 1152.92 C 3482.67 1152.92 3475.92 1145.67 3475.92 1137.15 C 3475.92 1128.6 3482.94 1121.51 3491.77 1121.51 C 3499.88 1121.51 3507.34 1128.07 3507.34 1137.12 C 3507.34 1146.58 3499.78 1152.92 3491.62 1152.92 Z" fill="none" stroke="#222222" stroke-miterlimit="10" pointer-events="all"/></g><g><path d="M 3475.92 1241.93 L 3475.92 1220.99 C 3475.92 1218.1 3482.95 1215.75 3491.63 1215.75 C 3500.3 1215.75 3507.34 1218.1 3507.34 1220.99 L 3507.34 1241.93 C 3507.34 1244.83 3500.3 1247.17 3491.63 1247.17 C 3482.95 1247.17 3475.92 1244.83 3475.92 1241.93 Z" fill="none" stroke="#222222" stroke-miterlimit="10" pointer-events="all"/><path d="M 3475.92 1220.99 C 3475.92 1223.88 3482.95 1226.23 3491.63 1226.23 C 3500.3 1226.23 3507.34 1223.88 3507.34 1220.99" fill="none" stroke="#222222" stroke-miterlimit="10" pointer-events="all"/></g><g><rect x="2449.7" y="1079.62" width="806.32" height="198.96" fill="#333333" stroke="none" pointer-events="all"/></g><g><rect x="3109.41" y="1105.8" width="41.89" height="146.6" fill="#2d2d2d" stroke="none" pointer-events="all"/></g><g><rect x="2512.53" y="1105.8" width="41.89" height="146.6" fill="#2d2d2d" stroke="none" pointer-events="all"/></g><g><rect x="2554.42" y="1105.8" width="555" height="20.94" fill="#222222" stroke="none" pointer-events="all"/></g><g><rect x="2554.42" y="1147.69" width="555" height="20.94" fill="#222222" stroke="none" pointer-events="all"/></g><g><rect x="2554.42" y="1189.58" width="555" height="20.94" fill="#222222" stroke="none" pointer-events="all"/></g><g><rect x="2554.42" y="1231.46" width="555" height="20.94" fill="#222222" stroke="none" pointer-events="all"/></g><g><rect x="2721.96" y="1105.8" width="20.94" height="146.6" fill="#2d2d2d" stroke="none" pointer-events="all"/></g><g><rect x="2920.92" y="1105.8" width="20.94" height="146.6" fill="#2d2d2d" stroke="none" pointer-events="all"/></g><g><rect x="2554.42" y="1210.52" width="555" height="20.94" fill="#333333" stroke="none" pointer-events="all"/></g><g><rect x="2554.42" y="1168.63" width="555" height="20.94" fill="#333333" stroke="none" pointer-events="all"/></g><g><rect x="2554.42" y="1126.75" width="555" height="20.94" fill="#333333" stroke="none" pointer-events="all"/></g><g><rect x="3528.28" y="1048.21" width="1099.52" height="261.79" fill="#333333" stroke="none" pointer-events="all"/></g><g><rect x="3559.69" y="1079.62" width="1015.75" height="198.96" fill="#222222" stroke="#222222" stroke-width="5" pointer-events="all"/></g><g><rect x="4580.68" y="1262.88" width="41.89" height="31.41" rx="4.71" ry="4.71" fill="#60a917" stroke="#222222" transform="rotate(90,4601.62,1278.58)" pointer-events="all"/></g><g><rect x="4580.68" y="1168.63" width="41.89" height="31.41" rx="4.71" ry="4.71" fill="#0050ef" stroke="#222222" transform="rotate(90,4601.62,1184.34)" pointer-events="all"/></g><g><rect x="4313.65" y="1111.04" width="83.77" height="136.13" rx="12.57" ry="12.57" fill="#0050ef" stroke="none" pointer-events="all"/></g><g><path d="M 4386.95 1111.04 Q 4418.37 1111.04 4418.37 1179.1 Q 4418.37 1247.17 4386.95 1247.17 Z" fill="#0050ef" stroke="none" pointer-events="all"/></g><g><path d="M 4601.56 1136.87 C 4602.49 1136.87 4603.15 1136.21 4603.15 1135.34 L 4603.15 1129.05 C 4603.15 1128.23 4602.59 1127.47 4601.66 1127.47 C 4600.73 1127.47 4600.08 1128.22 4600.08 1128.9 L 4600.08 1135.35 C 4600.08 1136.2 4600.81 1136.87 4601.56 1136.87 Z M 4601.57 1146.97 C 4606.57 1146.97 4610.7 1142.96 4610.7 1138.01 C 4610.7 1135.51 4609.8 1132.71 4607.05 1130.67 C 4606.54 1130.28 4605.52 1130.48 4605.05 1131.1 C 4604.63 1131.72 4604.6 1132.62 4605.29 1133.28 C 4606.66 1134.37 4607.55 1136.08 4607.55 1137.84 C 4607.55 1141.27 4604.63 1143.82 4601.69 1143.82 C 4598.8 1143.82 4595.91 1141.71 4595.71 1137.94 C 4595.66 1136.42 4596.52 1134.26 4598.04 1133.2 C 4598.56 1132.77 4598.77 1131.81 4598.13 1131.06 C 4597.52 1130.28 4596.53 1130.41 4596.11 1130.75 C 4593.77 1132.65 4592.65 1134.79 4592.59 1137.73 C 4592.59 1143.22 4596.77 1146.97 4601.57 1146.97 Z M 4601.61 1152.92 C 4592.67 1152.92 4585.91 1145.67 4585.91 1137.15 C 4585.91 1128.6 4592.94 1121.51 4601.77 1121.51 C 4609.87 1121.51 4617.33 1128.07 4617.33 1137.12 C 4617.33 1146.58 4609.77 1152.92 4601.61 1152.92 Z" fill="none" stroke="#222222" stroke-miterlimit="10" pointer-events="all"/></g><g><path d="M 4585.91 1241.93 L 4585.91 1220.99 C 4585.91 1218.1 4592.95 1215.75 4601.62 1215.75 C 4610.3 1215.75 4617.33 1218.1 4617.33 1220.99 L 4617.33 1241.93 C 4617.33 1244.83 4610.3 1247.17 4601.62 1247.17 C 4592.95 1247.17 4585.91 1244.83 4585.91 1241.93 Z" fill="none" stroke="#222222" stroke-miterlimit="10" pointer-events="all"/><path d="M 4585.91 1220.99 C 4585.91 1223.88 4592.95 1226.23 4601.62 1226.23 C 4610.3 1226.23 4617.33 1223.88 4617.33 1220.99" fill="none" stroke="#222222" stroke-miterlimit="10" pointer-events="all"/></g><g><rect x="3559.69" y="1079.62" width="806.32" height="198.96" fill="#333333" stroke="none" pointer-events="all"/></g><g><rect x="4219.41" y="1105.8" width="41.89" height="146.6" fill="#2d2d2d" stroke="none" pointer-events="all"/></g><g><rect x="3622.52" y="1105.8" width="41.89" height="146.6" fill="#2d2d2d" stroke="none" pointer-events="all"/></g><g><rect x="3664.41" y="1105.8" width="555" height="20.94" fill="#222222" stroke="none" pointer-events="all"/></g><g><rect x="3664.41" y="1147.69" width="555" height="20.94" fill="#222222" stroke="none" pointer-events="all"/></g><g><rect x="3664.41" y="1189.58" width="555" height="20.94" fill="#222222" stroke="none" pointer-events="all"/></g><g><rect x="3664.41" y="1231.46" width="555" height="20.94" fill="#222222" stroke="none" pointer-events="all"/></g><g><rect x="3831.96" y="1105.8" width="20.94" height="146.6" fill="#2d2d2d" stroke="none" pointer-events="all"/></g><g><rect x="4030.92" y="1105.8" width="20.94" height="146.6" fill="#2d2d2d" stroke="none" pointer-events="all"/></g><g><rect x="3664.41" y="1210.52" width="555" height="20.94" fill="#333333" stroke="none" pointer-events="all"/></g><g><rect x="3664.41" y="1168.63" width="555" height="20.94" fill="#333333" stroke="none" pointer-events="all"/></g><g><rect x="3664.41" y="1126.75" width="555" height="20.94" fill="#333333" stroke="none" pointer-events="all"/></g><g><rect x="198.3" y="765.47" width="1099.52" height="261.79" fill="#333333" stroke="none" pointer-events="all"/></g><g><rect x="229.71" y="796.89" width="1015.75" height="198.96" fill="#222222" stroke="#222222" stroke-width="5" pointer-events="all"/></g><g><rect x="1250.7" y="980.14" width="41.89" height="31.41" rx="4.71" ry="4.71" fill="#60a917" stroke="#222222" transform="rotate(90,1271.64,995.85)" pointer-events="all"/></g><g><rect x="1250.7" y="885.9" width="41.89" height="31.41" rx="4.71" ry="4.71" fill="#0050ef" stroke="#222222" transform="rotate(90,1271.64,901.6)" pointer-events="all"/></g><g><rect x="983.67" y="828.3" width="83.77" height="136.13" rx="12.57" ry="12.57" fill="#0050ef" stroke="none" pointer-events="all"/></g><g><path d="M 1056.97 828.3 Q 1088.39 828.3 1088.39 896.37 Q 1088.39 964.43 1056.97 964.43 Z" fill="#0050ef" stroke="none" pointer-events="all"/></g><g><path d="M 1271.58 854.13 C 1272.51 854.13 1273.18 853.47 1273.18 852.6 L 1273.18 846.32 C 1273.18 845.49 1272.62 844.73 1271.69 844.73 C 1270.75 844.73 1270.1 845.48 1270.1 846.17 L 1270.1 852.62 C 1270.1 853.47 1270.83 854.13 1271.58 854.13 Z M 1271.59 864.24 C 1276.59 864.24 1280.72 860.23 1280.72 855.27 C 1280.72 852.77 1279.82 849.97 1277.07 847.94 C 1276.56 847.54 1275.54 847.75 1275.07 848.36 C 1274.65 848.99 1274.62 849.89 1275.31 850.54 C 1276.68 851.63 1277.58 853.35 1277.58 855.11 C 1277.58 858.53 1274.65 861.08 1271.71 861.08 C 1268.82 861.08 1265.93 858.97 1265.73 855.2 C 1265.69 853.68 1266.54 851.53 1268.06 850.47 C 1268.58 850.04 1268.79 849.07 1268.15 848.32 C 1267.54 847.55 1266.56 847.68 1266.13 848.01 C 1263.8 849.92 1262.67 852.05 1262.61 855 C 1262.61 860.49 1266.79 864.24 1271.59 864.24 Z M 1271.64 870.19 C 1262.69 870.19 1255.93 862.94 1255.93 854.42 C 1255.93 845.86 1262.96 838.77 1271.79 838.77 C 1279.89 838.77 1287.35 845.33 1287.35 854.39 C 1287.35 863.85 1279.79 870.19 1271.64 870.19 Z" fill="none" stroke="#222222" stroke-miterlimit="10" pointer-events="all"/></g><g><path d="M 1255.93 959.2 L 1255.93 938.25 C 1255.93 935.36 1262.97 933.02 1271.64 933.02 C 1280.32 933.02 1287.35 935.36 1287.35 938.25 L 1287.35 959.2 C 1287.35 962.09 1280.32 964.43 1271.64 964.43 C 1262.97 964.43 1255.93 962.09 1255.93 959.2 Z" fill="none" stroke="#222222" stroke-miterlimit="10" pointer-events="all"/><path d="M 1255.93 938.25 C 1255.93 941.15 1262.97 943.49 1271.64 943.49 C 1280.32 943.49 1287.35 941.15 1287.35 938.25" fill="none" stroke="#222222" stroke-miterlimit="10" pointer-events="all"/></g><g><rect x="229.71" y="796.89" width="806.32" height="198.96" fill="#333333" stroke="none" pointer-events="all"/></g><g><rect x="889.43" y="823.07" width="41.89" height="146.6" fill="#2d2d2d" stroke="none" pointer-events="all"/></g><g><rect x="292.54" y="823.07" width="41.89" height="146.6" fill="#2d2d2d" stroke="none" pointer-events="all"/></g><g><rect x="334.43" y="823.07" width="555" height="20.94" fill="#222222" stroke="none" pointer-events="all"/></g><g><rect x="334.43" y="864.95" width="555" height="20.94" fill="#222222" stroke="none" pointer-events="all"/></g><g><rect x="334.43" y="906.84" width="555" height="20.94" fill="#222222" stroke="none" pointer-events="all"/></g><g><rect x="334.43" y="948.73" width="555" height="20.94" fill="#222222" stroke="none" pointer-events="all"/></g><g><rect x="501.98" y="823.07" width="20.94" height="146.6" fill="#2d2d2d" stroke="none" pointer-events="all"/></g><g><rect x="700.94" y="823.07" width="20.94" height="146.6" fill="#2d2d2d" stroke="none" pointer-events="all"/></g><g><rect x="334.43" y="927.78" width="555" height="20.94" fill="#333333" stroke="none" pointer-events="all"/></g><g><rect x="334.43" y="885.9" width="555" height="20.94" fill="#333333" stroke="none" pointer-events="all"/></g><g><rect x="334.43" y="844.01" width="555" height="20.94" fill="#333333" stroke="none" pointer-events="all"/></g><g><rect x="1308.29" y="765.47" width="1099.52" height="261.79" fill="#333333" stroke="none" pointer-events="all"/></g><g><rect x="1339.71" y="796.89" width="1015.75" height="198.96" fill="#222222" stroke="#222222" stroke-width="5" pointer-events="all"/></g><g><rect x="2360.69" y="980.14" width="41.89" height="31.41" rx="4.71" ry="4.71" fill="#60a917" stroke="#222222" transform="rotate(90,2381.64,995.85)" pointer-events="all"/></g><g><rect x="2360.69" y="885.9" width="41.89" height="31.41" rx="4.71" ry="4.71" fill="#0050ef" stroke="#222222" transform="rotate(90,2381.64,901.6)" pointer-events="all"/></g><g><rect x="2093.67" y="828.3" width="83.77" height="136.13" rx="12.57" ry="12.57" fill="#0050ef" stroke="none" pointer-events="all"/></g><g><path d="M 2166.97 828.3 Q 2198.38 828.3 2198.38 896.37 Q 2198.38 964.43 2166.97 964.43 Z" fill="#0050ef" stroke="none" pointer-events="all"/></g><g><path d="M 2381.57 854.13 C 2382.51 854.13 2383.17 853.47 2383.17 852.6 L 2383.17 846.32 C 2383.17 845.49 2382.61 844.73 2381.68 844.73 C 2380.74 844.73 2380.09 845.48 2380.09 846.17 L 2380.09 852.62 C 2380.09 853.47 2380.82 854.13 2381.57 854.13 Z M 2381.58 864.24 C 2386.58 864.24 2390.71 860.23 2390.71 855.27 C 2390.71 852.77 2389.81 849.97 2387.06 847.94 C 2386.56 847.54 2385.53 847.75 2385.07 848.36 C 2384.64 848.99 2384.61 849.89 2385.3 850.54 C 2386.67 851.63 2387.57 853.35 2387.57 855.11 C 2387.57 858.53 2384.64 861.08 2381.71 861.08 C 2378.81 861.08 2375.93 858.97 2375.72 855.2 C 2375.68 853.68 2376.54 851.53 2378.05 850.47 C 2378.57 850.04 2378.79 849.07 2378.14 848.32 C 2377.54 847.55 2376.55 847.68 2376.12 848.01 C 2373.79 849.92 2372.67 852.05 2372.6 855 C 2372.6 860.49 2376.78 864.24 2381.58 864.24 Z M 2381.63 870.19 C 2372.68 870.19 2365.93 862.94 2365.93 854.42 C 2365.93 845.86 2372.95 838.77 2381.78 838.77 C 2389.89 838.77 2397.34 845.33 2397.34 854.39 C 2397.34 863.85 2389.78 870.19 2381.63 870.19 Z" fill="none" stroke="#222222" stroke-miterlimit="10" pointer-events="all"/></g><g><path d="M 2365.93 959.2 L 2365.93 938.25 C 2365.93 935.36 2372.96 933.02 2381.64 933.02 C 2390.31 933.02 2397.34 935.36 2397.34 938.25 L 2397.34 959.2 C 2397.34 962.09 2390.31 964.43 2381.64 964.43 C 2372.96 964.43 2365.93 962.09 2365.93 959.2 Z" fill="none" stroke="#222222" stroke-miterlimit="10" pointer-events="all"/><path d="M 2365.93 938.25 C 2365.93 941.15 2372.96 943.49 2381.64 943.49 C 2390.31 943.49 2397.34 941.15 2397.34 938.25" fill="none" stroke="#222222" stroke-miterlimit="10" pointer-events="all"/></g><g><rect x="1339.71" y="796.89" width="806.32" height="198.96" fill="#333333" stroke="none" pointer-events="all"/></g><g><rect x="1999.42" y="823.07" width="41.89" height="146.6" fill="#2d2d2d" stroke="none" pointer-events="all"/></g><g><rect x="1402.54" y="823.07" width="41.89" height="146.6" fill="#2d2d2d" stroke="none" pointer-events="all"/></g><g><rect x="1444.42" y="823.07" width="555" height="20.94" fill="#222222" stroke="none" pointer-events="all"/></g><g><rect x="1444.42" y="864.95" width="555" height="20.94" fill="#222222" stroke="none" pointer-events="all"/></g><g><rect x="1444.42" y="906.84" width="555" height="20.94" fill="#222222" stroke="none" pointer-events="all"/></g><g><rect x="1444.42" y="948.73" width="555" height="20.94" fill="#222222" stroke="none" pointer-events="all"/></g><g><rect x="1611.97" y="823.07" width="20.94" height="146.6" fill="#2d2d2d" stroke="none" pointer-events="all"/></g><g><rect x="1810.93" y="823.07" width="20.94" height="146.6" fill="#2d2d2d" stroke="none" pointer-events="all"/></g><g><rect x="1444.42" y="927.78" width="555" height="20.94" fill="#333333" stroke="none" pointer-events="all"/></g><g><rect x="1444.42" y="885.9" width="555" height="20.94" fill="#333333" stroke="none" pointer-events="all"/></g><g><rect x="1444.42" y="844.01" width="555" height="20.94" fill="#333333" stroke="none" pointer-events="all"/></g><g><rect x="2418.29" y="765.47" width="1099.52" height="261.79" fill="#333333" stroke="none" pointer-events="all"/></g><g><rect x="2449.7" y="796.89" width="1015.75" height="198.96" fill="#222222" stroke="#222222" stroke-width="5" pointer-events="all"/></g><g><rect x="3470.68" y="980.14" width="41.89" height="31.41" rx="4.71" ry="4.71" fill="#60a917" stroke="#222222" transform="rotate(90,3491.63,995.85)" pointer-events="all"/></g><g><rect x="3470.68" y="885.9" width="41.89" height="31.41" rx="4.71" ry="4.71" fill="#0050ef" stroke="#222222" transform="rotate(90,3491.63,901.6)" pointer-events="all"/></g><g><rect x="3203.66" y="828.3" width="83.77" height="136.13" rx="12.57" ry="12.57" fill="#0050ef" stroke="none" pointer-events="all"/></g><g><path d="M 3276.96 828.3 Q 3308.37 828.3 3308.37 896.37 Q 3308.37 964.43 3276.96 964.43 Z" fill="#0050ef" stroke="none" pointer-events="all"/></g><g><path d="M 3491.56 854.13 C 3492.5 854.13 3493.16 853.47 3493.16 852.6 L 3493.16 846.32 C 3493.16 845.49 3492.6 844.73 3491.67 844.73 C 3490.74 844.73 3490.09 845.48 3490.09 846.17 L 3490.09 852.62 C 3490.09 853.47 3490.81 854.13 3491.56 854.13 Z M 3491.58 864.24 C 3496.57 864.24 3500.71 860.23 3500.71 855.27 C 3500.71 852.77 3499.81 849.97 3497.06 847.94 C 3496.55 847.54 3495.52 847.75 3495.06 848.36 C 3494.63 848.99 3494.6 849.89 3495.3 850.54 C 3496.66 851.63 3497.56 853.35 3497.56 855.11 C 3497.56 858.53 3494.64 861.08 3491.7 861.08 C 3488.81 861.08 3485.92 858.97 3485.71 855.2 C 3485.67 853.68 3486.53 851.53 3488.05 850.47 C 3488.57 850.04 3488.78 849.07 3488.14 848.32 C 3487.53 847.55 3486.54 847.68 3486.12 848.01 C 3483.78 849.92 3482.66 852.05 3482.6 855 C 3482.6 860.49 3486.78 864.24 3491.58 864.24 Z M 3491.62 870.19 C 3482.67 870.19 3475.92 862.94 3475.92 854.42 C 3475.92 845.86 3482.94 838.77 3491.77 838.77 C 3499.88 838.77 3507.34 845.33 3507.34 854.39 C 3507.34 863.85 3499.78 870.19 3491.62 870.19 Z" fill="none" stroke="#222222" stroke-miterlimit="10" pointer-events="all"/></g><g><path d="M 3475.92 959.2 L 3475.92 938.25 C 3475.92 935.36 3482.95 933.02 3491.63 933.02 C 3500.3 933.02 3507.34 935.36 3507.34 938.25 L 3507.34 959.2 C 3507.34 962.09 3500.3 964.43 3491.63 964.43 C 3482.95 964.43 3475.92 962.09 3475.92 959.2 Z" fill="none" stroke="#222222" stroke-miterlimit="10" pointer-events="all"/><path d="M 3475.92 938.25 C 3475.92 941.15 3482.95 943.49 3491.63 943.49 C 3500.3 943.49 3507.34 941.15 3507.34 938.25" fill="none" stroke="#222222" stroke-miterlimit="10" pointer-events="all"/></g><g><rect x="2449.7" y="796.89" width="806.32" height="198.96" fill="#333333" stroke="none" pointer-events="all"/></g><g><rect x="3109.41" y="823.07" width="41.89" height="146.6" fill="#2d2d2d" stroke="none" pointer-events="all"/></g><g><rect x="2512.53" y="823.07" width="41.89" height="146.6" fill="#2d2d2d" stroke="none" pointer-events="all"/></g><g><rect x="2554.42" y="823.07" width="555" height="20.94" fill="#222222" stroke="none" pointer-events="all"/></g><g><rect x="2554.42" y="864.95" width="555" height="20.94" fill="#222222" stroke="none" pointer-events="all"/></g><g><rect x="2554.42" y="906.84" width="555" height="20.94" fill="#222222" stroke="none" pointer-events="all"/></g><g><rect x="2554.42" y="948.73" width="555" height="20.94" fill="#222222" stroke="none" pointer-events="all"/></g><g><rect x="2721.96" y="823.07" width="20.94" height="146.6" fill="#2d2d2d" stroke="none" pointer-events="all"/></g><g><rect x="2920.92" y="823.07" width="20.94" height="146.6" fill="#2d2d2d" stroke="none" pointer-events="all"/></g><g><rect x="2554.42" y="927.78" width="555" height="20.94" fill="#333333" stroke="none" pointer-events="all"/></g><g><rect x="2554.42" y="885.9" width="555" height="20.94" fill="#333333" stroke="none" pointer-events="all"/></g><g><rect x="2554.42" y="844.01" width="555" height="20.94" fill="#333333" stroke="none" pointer-events="all"/></g><g><rect x="3528.28" y="765.47" width="1099.52" height="261.79" fill="#333333" stroke="none" pointer-events="all"/></g><g><rect x="3559.69" y="796.89" width="1015.75" height="198.96" fill="#222222" stroke="#222222" stroke-width="5" pointer-events="all"/></g><g><rect x="4580.68" y="980.14" width="41.89" height="31.41" rx="4.71" ry="4.71" fill="#60a917" stroke="#222222" transform="rotate(90,4601.62,995.85)" pointer-events="all"/></g><g><rect x="4580.68" y="885.9" width="41.89" height="31.41" rx="4.71" ry="4.71" fill="#0050ef" stroke="#222222" transform="rotate(90,4601.62,901.6)" pointer-events="all"/></g><g><rect x="4313.65" y="828.3" width="83.77" height="136.13" rx="12.57" ry="12.57" fill="#0050ef" stroke="none" pointer-events="all"/></g><g><path d="M 4386.95 828.3 Q 4418.37 828.3 4418.37 896.37 Q 4418.37 964.43 4386.95 964.43 Z" fill="#0050ef" stroke="none" pointer-events="all"/></g><g><path d="M 4601.56 854.13 C 4602.49 854.13 4603.15 853.47 4603.15 852.6 L 4603.15 846.32 C 4603.15 845.49 4602.59 844.73 4601.66 844.73 C 4600.73 844.73 4600.08 845.48 4600.08 846.17 L 4600.08 852.62 C 4600.08 853.47 4600.81 854.13 4601.56 854.13 Z M 4601.57 864.24 C 4606.57 864.24 4610.7 860.23 4610.7 855.27 C 4610.7 852.77 4609.8 849.97 4607.05 847.94 C 4606.54 847.54 4605.52 847.75 4605.05 848.36 C 4604.63 848.99 4604.6 849.89 4605.29 850.54 C 4606.66 851.63 4607.55 853.35 4607.55 855.11 C 4607.55 858.53 4604.63 861.08 4601.69 861.08 C 4598.8 861.08 4595.91 858.97 4595.71 855.2 C 4595.66 853.68 4596.52 851.53 4598.04 850.47 C 4598.56 850.04 4598.77 849.07 4598.13 848.32 C 4597.52 847.55 4596.53 847.68 4596.11 848.01 C 4593.77 849.92 4592.65 852.05 4592.59 855 C 4592.59 860.49 4596.77 864.24 4601.57 864.24 Z M 4601.61 870.19 C 4592.67 870.19 4585.91 862.94 4585.91 854.42 C 4585.91 845.86 4592.94 838.77 4601.77 838.77 C 4609.87 838.77 4617.33 845.33 4617.33 854.39 C 4617.33 863.85 4609.77 870.19 4601.61 870.19 Z" fill="none" stroke="#222222" stroke-miterlimit="10" pointer-events="all"/></g><g><path d="M 4585.91 959.2 L 4585.91 938.25 C 4585.91 935.36 4592.95 933.02 4601.62 933.02 C 4610.3 933.02 4617.33 935.36 4617.33 938.25 L 4617.33 959.2 C 4617.33 962.09 4610.3 964.43 4601.62 964.43 C 4592.95 964.43 4585.91 962.09 4585.91 959.2 Z" fill="none" stroke="#222222" stroke-miterlimit="10" pointer-events="all"/><path d="M 4585.91 938.25 C 4585.91 941.15 4592.95 943.49 4601.62 943.49 C 4610.3 943.49 4617.33 941.15 4617.33 938.25" fill="none" stroke="#222222" stroke-miterlimit="10" pointer-events="all"/></g><g><rect x="3559.69" y="796.89" width="806.32" height="198.96" fill="#333333" stroke="none" pointer-events="all"/></g><g><rect x="4219.41" y="823.07" width="41.89" height="146.6" fill="#2d2d2d" stroke="none" pointer-events="all"/></g><g><rect x="3622.52" y="823.07" width="41.89" height="146.6" fill="#2d2d2d" stroke="none" pointer-events="all"/></g><g><rect x="3664.41" y="823.07" width="555" height="20.94" fill="#222222" stroke="none" pointer-events="all"/></g><g><rect x="3664.41" y="864.95" width="555" height="20.94" fill="#222222" stroke="none" pointer-events="all"/></g><g><rect x="3664.41" y="906.84" width="555" height="20.94" fill="#222222" stroke="none" pointer-events="all"/></g><g><rect x="3664.41" y="948.73" width="555" height="20.94" fill="#222222" stroke="none" pointer-events="all"/></g><g><rect x="3831.96" y="823.07" width="20.94" height="146.6" fill="#2d2d2d" stroke="none" pointer-events="all"/></g><g><rect x="4030.92" y="823.07" width="20.94" height="146.6" fill="#2d2d2d" stroke="none" pointer-events="all"/></g><g><rect x="3664.41" y="927.78" width="555" height="20.94" fill="#333333" stroke="none" pointer-events="all"/></g><g><rect x="3664.41" y="885.9" width="555" height="20.94" fill="#333333" stroke="none" pointer-events="all"/></g><g><rect x="3664.41" y="844.01" width="555" height="20.94" fill="#333333" stroke="none" pointer-events="all"/></g><g><rect x="198.3" y="482.74" width="1099.52" height="261.79" fill="#333333" stroke="none" pointer-events="all"/></g><g><rect x="229.71" y="514.15" width="1015.75" height="198.96" fill="#222222" stroke="#222222" stroke-width="5" pointer-events="all"/></g><g><rect x="1250.7" y="697.41" width="41.89" height="31.41" rx="4.71" ry="4.71" fill="#60a917" stroke="#222222" transform="rotate(90,1271.64,713.11)" pointer-events="all"/></g><g><rect x="1250.7" y="603.16" width="41.89" height="31.41" rx="4.71" ry="4.71" fill="#0050ef" stroke="#222222" transform="rotate(90,1271.64,618.87)" pointer-events="all"/></g><g><rect x="983.67" y="545.57" width="83.77" height="136.13" rx="12.57" ry="12.57" fill="#0050ef" stroke="none" pointer-events="all"/></g><g><path d="M 1056.97 545.57 Q 1088.39 545.57 1088.39 613.63 Q 1088.39 681.7 1056.97 681.7 Z" fill="#0050ef" stroke="none" pointer-events="all"/></g><g><path d="M 1271.58 571.4 C 1272.51 571.4 1273.18 570.74 1273.18 569.87 L 1273.18 563.58 C 1273.18 562.76 1272.62 562 1271.69 562 C 1270.75 562 1270.1 562.75 1270.1 563.43 L 1270.1 569.88 C 1270.1 570.73 1270.83 571.4 1271.58 571.4 Z M 1271.59 581.5 C 1276.59 581.5 1280.72 577.49 1280.72 572.53 C 1280.72 570.03 1279.82 567.23 1277.07 565.2 C 1276.56 564.81 1275.54 565.01 1275.07 565.63 C 1274.65 566.25 1274.62 567.15 1275.31 567.81 C 1276.68 568.9 1277.58 570.61 1277.58 572.37 C 1277.58 575.8 1274.65 578.34 1271.71 578.34 C 1268.82 578.34 1265.93 576.24 1265.73 572.47 C 1265.69 570.95 1266.54 568.79 1268.06 567.73 C 1268.58 567.3 1268.79 566.33 1268.15 565.59 C 1267.54 564.81 1266.56 564.94 1266.13 565.27 C 1263.8 567.18 1262.67 569.31 1262.61 572.26 C 1262.61 577.75 1266.79 581.5 1271.59 581.5 Z M 1271.64 587.45 C 1262.69 587.45 1255.93 580.2 1255.93 571.68 C 1255.93 563.13 1262.96 556.04 1271.79 556.04 C 1279.89 556.04 1287.35 562.6 1287.35 571.65 C 1287.35 581.11 1279.79 587.45 1271.64 587.45 Z" fill="none" stroke="#222222" stroke-miterlimit="10" pointer-events="all"/></g><g><path d="M 1255.93 676.46 L 1255.93 655.52 C 1255.93 652.63 1262.97 650.28 1271.64 650.28 C 1280.32 650.28 1287.35 652.63 1287.35 655.52 L 1287.35 676.46 C 1287.35 679.35 1280.32 681.7 1271.64 681.7 C 1262.97 681.7 1255.93 679.35 1255.93 676.46 Z" fill="none" stroke="#222222" stroke-miterlimit="10" pointer-events="all"/><path d="M 1255.93 655.52 C 1255.93 658.41 1262.97 660.75 1271.64 660.75 C 1280.32 660.75 1287.35 658.41 1287.35 655.52" fill="none" stroke="#222222" stroke-miterlimit="10" pointer-events="all"/></g><g><rect x="229.71" y="514.15" width="806.32" height="198.96" fill="#333333" stroke="none" pointer-events="all"/></g><g><rect x="889.43" y="540.33" width="41.89" height="146.6" fill="#2d2d2d" stroke="none" pointer-events="all"/></g><g><rect x="292.54" y="540.33" width="41.89" height="146.6" fill="#2d2d2d" stroke="none" pointer-events="all"/></g><g><rect x="334.43" y="540.33" width="555" height="20.94" fill="#222222" stroke="none" pointer-events="all"/></g><g><rect x="334.43" y="582.22" width="555" height="20.94" fill="#222222" stroke="none" pointer-events="all"/></g><g><rect x="334.43" y="624.1" width="555" height="20.94" fill="#222222" stroke="none" pointer-events="all"/></g><g><rect x="334.43" y="665.99" width="555" height="20.94" fill="#222222" stroke="none" pointer-events="all"/></g><g><rect x="501.98" y="540.33" width="20.94" height="146.6" fill="#2d2d2d" stroke="none" pointer-events="all"/></g><g><rect x="700.94" y="540.33" width="20.94" height="146.6" fill="#2d2d2d" stroke="none" pointer-events="all"/></g><g><rect x="334.43" y="645.05" width="555" height="20.94" fill="#333333" stroke="none" pointer-events="all"/></g><g><rect x="334.43" y="603.16" width="555" height="20.94" fill="#333333" stroke="none" pointer-events="all"/></g><g><rect x="334.43" y="561.27" width="555" height="20.94" fill="#333333" stroke="none" pointer-events="all"/></g><g><rect x="1308.29" y="482.74" width="1099.52" height="261.79" fill="#333333" stroke="none" pointer-events="all"/></g><g><rect x="1339.71" y="514.15" width="1015.75" height="198.96" fill="#222222" stroke="#222222" stroke-width="5" pointer-events="all"/></g><g><rect x="2360.69" y="697.41" width="41.89" height="31.41" rx="4.71" ry="4.71" fill="#60a917" stroke="#222222" transform="rotate(90,2381.64,713.11)" pointer-events="all"/></g><g><rect x="2360.69" y="603.16" width="41.89" height="31.41" rx="4.71" ry="4.71" fill="#0050ef" stroke="#222222" transform="rotate(90,2381.64,618.87)" pointer-events="all"/></g><g><rect x="2093.67" y="545.57" width="83.77" height="136.13" rx="12.57" ry="12.57" fill="#0050ef" stroke="none" pointer-events="all"/></g><g><path d="M 2166.97 545.57 Q 2198.38 545.57 2198.38 613.63 Q 2198.38 681.7 2166.97 681.7 Z" fill="#0050ef" stroke="none" pointer-events="all"/></g><g><path d="M 2381.57 571.4 C 2382.51 571.4 2383.17 570.74 2383.17 569.87 L 2383.17 563.58 C 2383.17 562.76 2382.61 562 2381.68 562 C 2380.74 562 2380.09 562.75 2380.09 563.43 L 2380.09 569.88 C 2380.09 570.73 2380.82 571.4 2381.57 571.4 Z M 2381.58 581.5 C 2386.58 581.5 2390.71 577.49 2390.71 572.53 C 2390.71 570.03 2389.81 567.23 2387.06 565.2 C 2386.56 564.81 2385.53 565.01 2385.07 565.63 C 2384.64 566.25 2384.61 567.15 2385.3 567.81 C 2386.67 568.9 2387.57 570.61 2387.57 572.37 C 2387.57 575.8 2384.64 578.34 2381.71 578.34 C 2378.81 578.34 2375.93 576.24 2375.72 572.47 C 2375.68 570.95 2376.54 568.79 2378.05 567.73 C 2378.57 567.3 2378.79 566.33 2378.14 565.59 C 2377.54 564.81 2376.55 564.94 2376.12 565.27 C 2373.79 567.18 2372.67 569.31 2372.6 572.26 C 2372.6 577.75 2376.78 581.5 2381.58 581.5 Z M 2381.63 587.45 C 2372.68 587.45 2365.93 580.2 2365.93 571.68 C 2365.93 563.13 2372.95 556.04 2381.78 556.04 C 2389.89 556.04 2397.34 562.6 2397.34 571.65 C 2397.34 581.11 2389.78 587.45 2381.63 587.45 Z" fill="none" stroke="#222222" stroke-miterlimit="10" pointer-events="all"/></g><g><path d="M 2365.93 676.46 L 2365.93 655.52 C 2365.93 652.63 2372.96 650.28 2381.64 650.28 C 2390.31 650.28 2397.34 652.63 2397.34 655.52 L 2397.34 676.46 C 2397.34 679.35 2390.31 681.7 2381.64 681.7 C 2372.96 681.7 2365.93 679.35 2365.93 676.46 Z" fill="none" stroke="#222222" stroke-miterlimit="10" pointer-events="all"/><path d="M 2365.93 655.52 C 2365.93 658.41 2372.96 660.75 2381.64 660.75 C 2390.31 660.75 2397.34 658.41 2397.34 655.52" fill="none" stroke="#222222" stroke-miterlimit="10" pointer-events="all"/></g><g><rect x="1339.71" y="514.15" width="806.32" height="198.96" fill="#333333" stroke="none" pointer-events="all"/></g><g><rect x="1999.42" y="540.33" width="41.89" height="146.6" fill="#2d2d2d" stroke="none" pointer-events="all"/></g><g><rect x="1402.54" y="540.33" width="41.89" height="146.6" fill="#2d2d2d" stroke="none" pointer-events="all"/></g><g><rect x="1444.42" y="540.33" width="555" height="20.94" fill="#222222" stroke="none" pointer-events="all"/></g><g><rect x="1444.42" y="582.22" width="555" height="20.94" fill="#222222" stroke="none" pointer-events="all"/></g><g><rect x="1444.42" y="624.1" width="555" height="20.94" fill="#222222" stroke="none" pointer-events="all"/></g><g><rect x="1444.42" y="665.99" width="555" height="20.94" fill="#222222" stroke="none" pointer-events="all"/></g><g><rect x="1611.97" y="540.33" width="20.94" height="146.6" fill="#2d2d2d" stroke="none" pointer-events="all"/></g><g><rect x="1810.93" y="540.33" width="20.94" height="146.6" fill="#2d2d2d" stroke="none" pointer-events="all"/></g><g><rect x="1444.42" y="645.05" width="555" height="20.94" fill="#333333" stroke="none" pointer-events="all"/></g><g><rect x="1444.42" y="603.16" width="555" height="20.94" fill="#333333" stroke="none" pointer-events="all"/></g><g><rect x="1444.42" y="561.27" width="555" height="20.94" fill="#333333" stroke="none" pointer-events="all"/></g><g><rect x="2418.29" y="482.74" width="1099.52" height="261.79" fill="#333333" stroke="none" pointer-events="all"/></g><g><rect x="2449.7" y="514.15" width="1015.75" height="198.96" fill="#222222" stroke="#222222" stroke-width="5" pointer-events="all"/></g><g><rect x="3470.68" y="697.41" width="41.89" height="31.41" rx="4.71" ry="4.71" fill="#60a917" stroke="#222222" transform="rotate(90,3491.63,713.11)" pointer-events="all"/></g><g><rect x="3470.68" y="603.16" width="41.89" height="31.41" rx="4.71" ry="4.71" fill="#0050ef" stroke="#222222" transform="rotate(90,3491.63,618.87)" pointer-events="all"/></g><g><rect x="3203.66" y="545.57" width="83.77" height="136.13" rx="12.57" ry="12.57" fill="#0050ef" stroke="none" pointer-events="all"/></g><g><path d="M 3276.96 545.57 Q 3308.37 545.57 3308.37 613.63 Q 3308.37 681.7 3276.96 681.7 Z" fill="#0050ef" stroke="none" pointer-events="all"/></g><g><path d="M 3491.56 571.4 C 3492.5 571.4 3493.16 570.74 3493.16 569.87 L 3493.16 563.58 C 3493.16 562.76 3492.6 562 3491.67 562 C 3490.74 562 3490.09 562.75 3490.09 563.43 L 3490.09 569.88 C 3490.09 570.73 3490.81 571.4 3491.56 571.4 Z M 3491.58 581.5 C 3496.57 581.5 3500.71 577.49 3500.71 572.53 C 3500.71 570.03 3499.81 567.23 3497.06 565.2 C 3496.55 564.81 3495.52 565.01 3495.06 565.63 C 3494.63 566.25 3494.6 567.15 3495.3 567.81 C 3496.66 568.9 3497.56 570.61 3497.56 572.37 C 3497.56 575.8 3494.64 578.34 3491.7 578.34 C 3488.81 578.34 3485.92 576.24 3485.71 572.47 C 3485.67 570.95 3486.53 568.79 3488.05 567.73 C 3488.57 567.3 3488.78 566.33 3488.14 565.59 C 3487.53 564.81 3486.54 564.94 3486.12 565.27 C 3483.78 567.18 3482.66 569.31 3482.6 572.26 C 3482.6 577.75 3486.78 581.5 3491.58 581.5 Z M 3491.62 587.45 C 3482.67 587.45 3475.92 580.2 3475.92 571.68 C 3475.92 563.13 3482.94 556.04 3491.77 556.04 C 3499.88 556.04 3507.34 562.6 3507.34 571.65 C 3507.34 581.11 3499.78 587.45 3491.62 587.45 Z" fill="none" stroke="#222222" stroke-miterlimit="10" pointer-events="all"/></g><g><path d="M 3475.92 676.46 L 3475.92 655.52 C 3475.92 652.63 3482.95 650.28 3491.63 650.28 C 3500.3 650.28 3507.34 652.63 3507.34 655.52 L 3507.34 676.46 C 3507.34 679.35 3500.3 681.7 3491.63 681.7 C 3482.95 681.7 3475.92 679.35 3475.92 676.46 Z" fill="none" stroke="#222222" stroke-miterlimit="10" pointer-events="all"/><path d="M 3475.92 655.52 C 3475.92 658.41 3482.95 660.75 3491.63 660.75 C 3500.3 660.75 3507.34 658.41 3507.34 655.52" fill="none" stroke="#222222" stroke-miterlimit="10" pointer-events="all"/></g><g><rect x="2449.7" y="514.15" width="806.32" height="198.96" fill="#333333" stroke="none" pointer-events="all"/></g><g><rect x="3109.41" y="540.33" width="41.89" height="146.6" fill="#2d2d2d" stroke="none" pointer-events="all"/></g><g><rect x="2512.53" y="540.33" width="41.89" height="146.6" fill="#2d2d2d" stroke="none" pointer-events="all"/></g><g><rect x="2554.42" y="540.33" width="555" height="20.94" fill="#222222" stroke="none" pointer-events="all"/></g><g><rect x="2554.42" y="582.22" width="555" height="20.94" fill="#222222" stroke="none" pointer-events="all"/></g><g><rect x="2554.42" y="624.1" width="555" height="20.94" fill="#222222" stroke="none" pointer-events="all"/></g><g><rect x="2554.42" y="665.99" width="555" height="20.94" fill="#222222" stroke="none" pointer-events="all"/></g><g><rect x="2721.96" y="540.33" width="20.94" height="146.6" fill="#2d2d2d" stroke="none" pointer-events="all"/></g><g><rect x="2920.92" y="540.33" width="20.94" height="146.6" fill="#2d2d2d" stroke="none" pointer-events="all"/></g><g><rect x="2554.42" y="645.05" width="555" height="20.94" fill="#333333" stroke="none" pointer-events="all"/></g><g><rect x="2554.42" y="603.16" width="555" height="20.94" fill="#333333" stroke="none" pointer-events="all"/></g><g><rect x="2554.42" y="561.27" width="555" height="20.94" fill="#333333" stroke="none" pointer-events="all"/></g><g><rect x="3528.28" y="482.74" width="1099.52" height="261.79" fill="#333333" stroke="none" pointer-events="all"/></g><g><rect x="3559.69" y="514.15" width="1015.75" height="198.96" fill="#222222" stroke="#222222" stroke-width="5" pointer-events="all"/></g><g><rect x="4580.68" y="697.41" width="41.89" height="31.41" rx="4.71" ry="4.71" fill="#60a917" stroke="#222222" transform="rotate(90,4601.62,713.11)" pointer-events="all"/></g><g><rect x="4580.68" y="603.16" width="41.89" height="31.41" rx="4.71" ry="4.71" fill="#0050ef" stroke="#222222" transform="rotate(90,4601.62,618.87)" pointer-events="all"/></g><g><rect x="4313.65" y="545.57" width="83.77" height="136.13" rx="12.57" ry="12.57" fill="#0050ef" stroke="none" pointer-events="all"/></g><g><path d="M 4386.95 545.57 Q 4418.37 545.57 4418.37 613.63 Q 4418.37 681.7 4386.95 681.7 Z" fill="#0050ef" stroke="none" pointer-events="all"/></g><g><path d="M 4601.56 571.4 C 4602.49 571.4 4603.15 570.74 4603.15 569.87 L 4603.15 563.58 C 4603.15 562.76 4602.59 562 4601.66 562 C 4600.73 562 4600.08 562.75 4600.08 563.43 L 4600.08 569.88 C 4600.08 570.73 4600.81 571.4 4601.56 571.4 Z M 4601.57 581.5 C 4606.57 581.5 4610.7 577.49 4610.7 572.53 C 4610.7 570.03 4609.8 567.23 4607.05 565.2 C 4606.54 564.81 4605.52 565.01 4605.05 565.63 C 4604.63 566.25 4604.6 567.15 4605.29 567.81 C 4606.66 568.9 4607.55 570.61 4607.55 572.37 C 4607.55 575.8 4604.63 578.34 4601.69 578.34 C 4598.8 578.34 4595.91 576.24 4595.71 572.47 C 4595.66 570.95 4596.52 568.79 4598.04 567.73 C 4598.56 567.3 4598.77 566.33 4598.13 565.59 C 4597.52 564.81 4596.53 564.94 4596.11 565.27 C 4593.77 567.18 4592.65 569.31 4592.59 572.26 C 4592.59 577.75 4596.77 581.5 4601.57 581.5 Z M 4601.61 587.45 C 4592.67 587.45 4585.91 580.2 4585.91 571.68 C 4585.91 563.13 4592.94 556.04 4601.77 556.04 C 4609.87 556.04 4617.33 562.6 4617.33 571.65 C 4617.33 581.11 4609.77 587.45 4601.61 587.45 Z" fill="none" stroke="#222222" stroke-miterlimit="10" pointer-events="all"/></g><g><path d="M 4585.91 676.46 L 4585.91 655.52 C 4585.91 652.63 4592.95 650.28 4601.62 650.28 C 4610.3 650.28 4617.33 652.63 4617.33 655.52 L 4617.33 676.46 C 4617.33 679.35 4610.3 681.7 4601.62 681.7 C 4592.95 681.7 4585.91 679.35 4585.91 676.46 Z" fill="none" stroke="#222222" stroke-miterlimit="10" pointer-events="all"/><path d="M 4585.91 655.52 C 4585.91 658.41 4592.95 660.75 4601.62 660.75 C 4610.3 660.75 4617.33 658.41 4617.33 655.52" fill="none" stroke="#222222" stroke-miterlimit="10" pointer-events="all"/></g><g><rect x="3559.69" y="514.15" width="806.32" height="198.96" fill="#333333" stroke="none" pointer-events="all"/></g><g><rect x="4219.41" y="540.33" width="41.89" height="146.6" fill="#2d2d2d" stroke="none" pointer-events="all"/></g><g><rect x="3622.52" y="540.33" width="41.89" height="146.6" fill="#2d2d2d" stroke="none" pointer-events="all"/></g><g><rect x="3664.41" y="540.33" width="555" height="20.94" fill="#222222" stroke="none" pointer-events="all"/></g><g><rect x="3664.41" y="582.22" width="555" height="20.94" fill="#222222" stroke="none" pointer-events="all"/></g><g><rect x="3664.41" y="624.1" width="555" height="20.94" fill="#222222" stroke="none" pointer-events="all"/></g><g><rect x="3664.41" y="665.99" width="555" height="20.94" fill="#222222" stroke="none" pointer-events="all"/></g><g><rect x="3831.96" y="540.33" width="20.94" height="146.6" fill="#2d2d2d" stroke="none" pointer-events="all"/></g><g><rect x="4030.92" y="540.33" width="20.94" height="146.6" fill="#2d2d2d" stroke="none" pointer-events="all"/></g><g><rect x="3664.41" y="645.05" width="555" height="20.94" fill="#333333" stroke="none" pointer-events="all"/></g><g><rect x="3664.41" y="603.16" width="555" height="20.94" fill="#333333" stroke="none" pointer-events="all"/></g><g><rect x="3664.41" y="561.27" width="555" height="20.94" fill="#333333" stroke="none" pointer-events="all"/></g><g><rect x="198.3" y="200" width="1099.52" height="261.79" fill="#333333" stroke="none" pointer-events="all"/></g><g><rect x="229.71" y="231.42" width="1015.75" height="198.96" fill="#222222" stroke="#222222" stroke-width="5" pointer-events="all"/></g><g><rect x="1250.7" y="414.67" width="41.89" height="31.41" rx="4.71" ry="4.71" fill="#60a917" stroke="#222222" transform="rotate(90,1271.64,430.38)" pointer-events="all"/></g><g><rect x="1250.7" y="320.42" width="41.89" height="31.41" rx="4.71" ry="4.71" fill="#0050ef" stroke="#222222" transform="rotate(90,1271.64,336.13)" pointer-events="all"/></g><g><rect x="983.67" y="262.83" width="83.77" height="136.13" rx="12.57" ry="12.57" fill="#0050ef" stroke="none" pointer-events="all"/></g><g><path d="M 1056.97 262.83 Q 1088.39 262.83 1088.39 330.9 Q 1088.39 398.96 1056.97 398.96 Z" fill="#0050ef" stroke="none" pointer-events="all"/></g><g><path d="M 1271.58 288.66 C 1272.51 288.66 1273.18 288 1273.18 287.13 L 1273.18 280.84 C 1273.18 280.02 1272.62 279.26 1271.69 279.26 C 1270.75 279.26 1270.1 280.01 1270.1 280.7 L 1270.1 287.14 C 1270.1 288 1270.83 288.66 1271.58 288.66 Z M 1271.59 298.77 C 1276.59 298.77 1280.72 294.75 1280.72 289.8 C 1280.72 287.3 1279.82 284.5 1277.07 282.46 C 1276.56 282.07 1275.54 282.28 1275.07 282.89 C 1274.65 283.52 1274.62 284.42 1275.31 285.07 C 1276.68 286.16 1277.58 287.88 1277.58 289.64 C 1277.58 293.06 1274.65 295.61 1271.71 295.61 C 1268.82 295.61 1265.93 293.5 1265.73 289.73 C 1265.69 288.21 1266.54 286.06 1268.06 285 C 1268.58 284.57 1268.79 283.6 1268.15 282.85 C 1267.54 282.07 1266.56 282.21 1266.13 282.54 C 1263.8 284.45 1262.67 286.58 1262.61 289.53 C 1262.61 295.01 1266.79 298.77 1271.59 298.77 Z M 1271.64 304.72 C 1262.69 304.72 1255.93 297.46 1255.93 288.95 C 1255.93 280.39 1262.96 273.3 1271.79 273.3 C 1279.89 273.3 1287.35 279.86 1287.35 288.92 C 1287.35 298.37 1279.79 304.72 1271.64 304.72 Z" fill="none" stroke="#222222" stroke-miterlimit="10" pointer-events="all"/></g><g><path d="M 1255.93 393.73 L 1255.93 372.78 C 1255.93 369.89 1262.97 367.55 1271.64 367.55 C 1280.32 367.55 1287.35 369.89 1287.35 372.78 L 1287.35 393.73 C 1287.35 396.62 1280.32 398.96 1271.64 398.96 C 1262.97 398.96 1255.93 396.62 1255.93 393.73 Z" fill="none" stroke="#222222" stroke-miterlimit="10" pointer-events="all"/><path d="M 1255.93 372.78 C 1255.93 375.67 1262.97 378.02 1271.64 378.02 C 1280.32 378.02 1287.35 375.67 1287.35 372.78" fill="none" stroke="#222222" stroke-miterlimit="10" pointer-events="all"/></g><g><rect x="229.71" y="231.42" width="806.32" height="198.96" fill="#333333" stroke="none" pointer-events="all"/></g><g><rect x="889.43" y="257.59" width="41.89" height="146.6" fill="#2d2d2d" stroke="none" pointer-events="all"/></g><g><rect x="292.54" y="257.59" width="41.89" height="146.6" fill="#2d2d2d" stroke="none" pointer-events="all"/></g><g><rect x="334.43" y="257.59" width="555" height="20.94" fill="#222222" stroke="none" pointer-events="all"/></g><g><rect x="334.43" y="299.48" width="555" height="20.94" fill="#222222" stroke="none" pointer-events="all"/></g><g><rect x="334.43" y="341.37" width="555" height="20.94" fill="#222222" stroke="none" pointer-events="all"/></g><g><rect x="334.43" y="383.25" width="555" height="20.94" fill="#222222" stroke="none" pointer-events="all"/></g><g><rect x="501.98" y="257.59" width="20.94" height="146.6" fill="#2d2d2d" stroke="none" pointer-events="all"/></g><g><rect x="700.94" y="257.59" width="20.94" height="146.6" fill="#2d2d2d" stroke="none" pointer-events="all"/></g><g><rect x="334.43" y="362.31" width="555" height="20.94" fill="#333333" stroke="none" pointer-events="all"/></g><g><rect x="334.43" y="320.42" width="555" height="20.94" fill="#333333" stroke="none" pointer-events="all"/></g><g><rect x="334.43" y="278.54" width="555" height="20.94" fill="#333333" stroke="none" pointer-events="all"/></g><g><rect x="1308.29" y="200" width="1099.52" height="261.79" fill="#333333" stroke="none" pointer-events="all"/></g><g><rect x="1339.71" y="231.42" width="1015.75" height="198.96" fill="#222222" stroke="#222222" stroke-width="5" pointer-events="all"/></g><g><rect x="2360.69" y="414.67" width="41.89" height="31.41" rx="4.71" ry="4.71" fill="#60a917" stroke="#222222" transform="rotate(90,2381.64,430.38)" pointer-events="all"/></g><g><rect x="2360.69" y="320.42" width="41.89" height="31.41" rx="4.71" ry="4.71" fill="#0050ef" stroke="#222222" transform="rotate(90,2381.64,336.13)" pointer-events="all"/></g><g><rect x="2093.67" y="262.83" width="83.77" height="136.13" rx="12.57" ry="12.57" fill="#0050ef" stroke="none" pointer-events="all"/></g><g><path d="M 2166.97 262.83 Q 2198.38 262.83 2198.38 330.9 Q 2198.38 398.96 2166.97 398.96 Z" fill="#0050ef" stroke="none" pointer-events="all"/></g><g><path d="M 2381.57 288.66 C 2382.51 288.66 2383.17 288 2383.17 287.13 L 2383.17 280.84 C 2383.17 280.02 2382.61 279.26 2381.68 279.26 C 2380.74 279.26 2380.09 280.01 2380.09 280.7 L 2380.09 287.14 C 2380.09 288 2380.82 288.66 2381.57 288.66 Z M 2381.58 298.77 C 2386.58 298.77 2390.71 294.75 2390.71 289.8 C 2390.71 287.3 2389.81 284.5 2387.06 282.46 C 2386.56 282.07 2385.53 282.28 2385.07 282.89 C 2384.64 283.52 2384.61 284.42 2385.3 285.07 C 2386.67 286.16 2387.57 287.88 2387.57 289.64 C 2387.57 293.06 2384.64 295.61 2381.71 295.61 C 2378.81 295.61 2375.93 293.5 2375.72 289.73 C 2375.68 288.21 2376.54 286.06 2378.05 285 C 2378.57 284.57 2378.79 283.6 2378.14 282.85 C 2377.54 282.07 2376.55 282.21 2376.12 282.54 C 2373.79 284.45 2372.67 286.58 2372.6 289.53 C 2372.6 295.01 2376.78 298.77 2381.58 298.77 Z M 2381.63 304.72 C 2372.68 304.72 2365.93 297.46 2365.93 288.95 C 2365.93 280.39 2372.95 273.3 2381.78 273.3 C 2389.89 273.3 2397.34 279.86 2397.34 288.92 C 2397.34 298.37 2389.78 304.72 2381.63 304.72 Z" fill="none" stroke="#222222" stroke-miterlimit="10" pointer-events="all"/></g><g><path d="M 2365.93 393.73 L 2365.93 372.78 C 2365.93 369.89 2372.96 367.55 2381.64 367.55 C 2390.31 367.55 2397.34 369.89 2397.34 372.78 L 2397.34 393.73 C 2397.34 396.62 2390.31 398.96 2381.64 398.96 C 2372.96 398.96 2365.93 396.62 2365.93 393.73 Z" fill="none" stroke="#222222" stroke-miterlimit="10" pointer-events="all"/><path d="M 2365.93 372.78 C 2365.93 375.67 2372.96 378.02 2381.64 378.02 C 2390.31 378.02 2397.34 375.67 2397.34 372.78" fill="none" stroke="#222222" stroke-miterlimit="10" pointer-events="all"/></g><g><rect x="1339.71" y="231.42" width="806.32" height="198.96" fill="#333333" stroke="none" pointer-events="all"/></g><g><rect x="1999.42" y="257.59" width="41.89" height="146.6" fill="#2d2d2d" stroke="none" pointer-events="all"/></g><g><rect x="1402.54" y="257.59" width="41.89" height="146.6" fill="#2d2d2d" stroke="none" pointer-events="all"/></g><g><rect x="1444.42" y="257.59" width="555" height="20.94" fill="#222222" stroke="none" pointer-events="all"/></g><g><rect x="1444.42" y="299.48" width="555" height="20.94" fill="#222222" stroke="none" pointer-events="all"/></g><g><rect x="1444.42" y="341.37" width="555" height="20.94" fill="#222222" stroke="none" pointer-events="all"/></g><g><rect x="1444.42" y="383.25" width="555" height="20.94" fill="#222222" stroke="none" pointer-events="all"/></g><g><rect x="1611.97" y="257.59" width="20.94" height="146.6" fill="#2d2d2d" stroke="none" pointer-events="all"/></g><g><rect x="1810.93" y="257.59" width="20.94" height="146.6" fill="#2d2d2d" stroke="none" pointer-events="all"/></g><g><rect x="1444.42" y="362.31" width="555" height="20.94" fill="#333333" stroke="none" pointer-events="all"/></g><g><rect x="1444.42" y="320.42" width="555" height="20.94" fill="#333333" stroke="none" pointer-events="all"/></g><g><rect x="1444.42" y="278.54" width="555" height="20.94" fill="#333333" stroke="none" pointer-events="all"/></g><g><rect x="2418.29" y="200" width="1099.52" height="261.79" fill="#333333" stroke="none" pointer-events="all"/></g><g><rect x="2449.7" y="231.42" width="1015.75" height="198.96" fill="#222222" stroke="#222222" stroke-width="5" pointer-events="all"/></g><g><rect x="3470.68" y="414.67" width="41.89" height="31.41" rx="4.71" ry="4.71" fill="#60a917" stroke="#222222" transform="rotate(90,3491.63,430.38)" pointer-events="all"/></g><g><rect x="3470.68" y="320.42" width="41.89" height="31.41" rx="4.71" ry="4.71" fill="#0050ef" stroke="#222222" transform="rotate(90,3491.63,336.13)" pointer-events="all"/></g><g><rect x="3203.66" y="262.83" width="83.77" height="136.13" rx="12.57" ry="12.57" fill="#0050ef" stroke="none" pointer-events="all"/></g><g><path d="M 3276.96 262.83 Q 3308.37 262.83 3308.37 330.9 Q 3308.37 398.96 3276.96 398.96 Z" fill="#0050ef" stroke="none" pointer-events="all"/></g><g><path d="M 3491.56 288.66 C 3492.5 288.66 3493.16 288 3493.16 287.13 L 3493.16 280.84 C 3493.16 280.02 3492.6 279.26 3491.67 279.26 C 3490.74 279.26 3490.09 280.01 3490.09 280.7 L 3490.09 287.14 C 3490.09 288 3490.81 288.66 3491.56 288.66 Z M 3491.58 298.77 C 3496.57 298.77 3500.71 294.75 3500.71 289.8 C 3500.71 287.3 3499.81 284.5 3497.06 282.46 C 3496.55 282.07 3495.52 282.28 3495.06 282.89 C 3494.63 283.52 3494.6 284.42 3495.3 285.07 C 3496.66 286.16 3497.56 287.88 3497.56 289.64 C 3497.56 293.06 3494.64 295.61 3491.7 295.61 C 3488.81 295.61 3485.92 293.5 3485.71 289.73 C 3485.67 288.21 3486.53 286.06 3488.05 285 C 3488.57 284.57 3488.78 283.6 3488.14 282.85 C 3487.53 282.07 3486.54 282.21 3486.12 282.54 C 3483.78 284.45 3482.66 286.58 3482.6 289.53 C 3482.6 295.01 3486.78 298.77 3491.58 298.77 Z M 3491.62 304.72 C 3482.67 304.72 3475.92 297.46 3475.92 288.95 C 3475.92 280.39 3482.94 273.3 3491.77 273.3 C 3499.88 273.3 3507.34 279.86 3507.34 288.92 C 3507.34 298.37 3499.78 304.72 3491.62 304.72 Z" fill="none" stroke="#222222" stroke-miterlimit="10" pointer-events="all"/></g><g><path d="M 3475.92 393.73 L 3475.92 372.78 C 3475.92 369.89 3482.95 367.55 3491.63 367.55 C 3500.3 367.55 3507.34 369.89 3507.34 372.78 L 3507.34 393.73 C 3507.34 396.62 3500.3 398.96 3491.63 398.96 C 3482.95 398.96 3475.92 396.62 3475.92 393.73 Z" fill="none" stroke="#222222" stroke-miterlimit="10" pointer-events="all"/><path d="M 3475.92 372.78 C 3475.92 375.67 3482.95 378.02 3491.63 378.02 C 3500.3 378.02 3507.34 375.67 3507.34 372.78" fill="none" stroke="#222222" stroke-miterlimit="10" pointer-events="all"/></g><g><rect x="2449.7" y="231.42" width="806.32" height="198.96" fill="#333333" stroke="none" pointer-events="all"/></g><g><rect x="3109.41" y="257.59" width="41.89" height="146.6" fill="#2d2d2d" stroke="none" pointer-events="all"/></g><g><rect x="2512.53" y="257.59" width="41.89" height="146.6" fill="#2d2d2d" stroke="none" pointer-events="all"/></g><g><rect x="2554.42" y="257.59" width="555" height="20.94" fill="#222222" stroke="none" pointer-events="all"/></g><g><rect x="2554.42" y="299.48" width="555" height="20.94" fill="#222222" stroke="none" pointer-events="all"/></g><g><rect x="2554.42" y="341.37" width="555" height="20.94" fill="#222222" stroke="none" pointer-events="all"/></g><g><rect x="2554.42" y="383.25" width="555" height="20.94" fill="#222222" stroke="none" pointer-events="all"/></g><g><rect x="2721.96" y="257.59" width="20.94" height="146.6" fill="#2d2d2d" stroke="none" pointer-events="all"/></g><g><rect x="2920.92" y="257.59" width="20.94" height="146.6" fill="#2d2d2d" stroke="none" pointer-events="all"/></g><g><rect x="2554.42" y="362.31" width="555" height="20.94" fill="#333333" stroke="none" pointer-events="all"/></g><g><rect x="2554.42" y="320.42" width="555" height="20.94" fill="#333333" stroke="none" pointer-events="all"/></g><g><rect x="2554.42" y="278.54" width="555" height="20.94" fill="#333333" stroke="none" pointer-events="all"/></g><g><rect x="3528.28" y="200" width="1099.52" height="261.79" fill="#333333" stroke="none" pointer-events="all"/></g><g><rect x="3559.69" y="231.42" width="1015.75" height="198.96" fill="#222222" stroke="#222222" stroke-width="5" pointer-events="all"/></g><g><rect x="4580.68" y="414.67" width="41.89" height="31.41" rx="4.71" ry="4.71" fill="#60a917" stroke="#222222" transform="rotate(90,4601.62,430.38)" pointer-events="all"/></g><g><rect x="4580.68" y="320.42" width="41.89" height="31.41" rx="4.71" ry="4.71" fill="#0050ef" stroke="#222222" transform="rotate(90,4601.62,336.13)" pointer-events="all"/></g><g><rect x="4313.65" y="262.83" width="83.77" height="136.13" rx="12.57" ry="12.57" fill="#0050ef" stroke="none" pointer-events="all"/></g><g><path d="M 4386.95 262.83 Q 4418.37 262.83 4418.37 330.9 Q 4418.37 398.96 4386.95 398.96 Z" fill="#0050ef" stroke="none" pointer-events="all"/></g><g><path d="M 4601.56 288.66 C 4602.49 288.66 4603.15 288 4603.15 287.13 L 4603.15 280.84 C 4603.15 280.02 4602.59 279.26 4601.66 279.26 C 4600.73 279.26 4600.08 280.01 4600.08 280.7 L 4600.08 287.14 C 4600.08 288 4600.81 288.66 4601.56 288.66 Z M 4601.57 298.77 C 4606.57 298.77 4610.7 294.75 4610.7 289.8 C 4610.7 287.3 4609.8 284.5 4607.05 282.46 C 4606.54 282.07 4605.52 282.28 4605.05 282.89 C 4604.63 283.52 4604.6 284.42 4605.29 285.07 C 4606.66 286.16 4607.55 287.88 4607.55 289.64 C 4607.55 293.06 4604.63 295.61 4601.69 295.61 C 4598.8 295.61 4595.91 293.5 4595.71 289.73 C 4595.66 288.21 4596.52 286.06 4598.04 285 C 4598.56 284.57 4598.77 283.6 4598.13 282.85 C 4597.52 282.07 4596.53 282.21 4596.11 282.54 C 4593.77 284.45 4592.65 286.58 4592.59 289.53 C 4592.59 295.01 4596.77 298.77 4601.57 298.77 Z M 4601.61 304.72 C 4592.67 304.72 4585.91 297.46 4585.91 288.95 C 4585.91 280.39 4592.94 273.3 4601.77 273.3 C 4609.87 273.3 4617.33 279.86 4617.33 288.92 C 4617.33 298.37 4609.77 304.72 4601.61 304.72 Z" fill="none" stroke="#222222" stroke-miterlimit="10" pointer-events="all"/></g><g><path d="M 4585.91 393.73 L 4585.91 372.78 C 4585.91 369.89 4592.95 367.55 4601.62 367.55 C 4610.3 367.55 4617.33 369.89 4617.33 372.78 L 4617.33 393.73 C 4617.33 396.62 4610.3 398.96 4601.62 398.96 C 4592.95 398.96 4585.91 396.62 4585.91 393.73 Z" fill="none" stroke="#222222" stroke-miterlimit="10" pointer-events="all"/><path d="M 4585.91 372.78 C 4585.91 375.67 4592.95 378.02 4601.62 378.02 C 4610.3 378.02 4617.33 375.67 4617.33 372.78" fill="none" stroke="#222222" stroke-miterlimit="10" pointer-events="all"/></g><g><rect x="3559.69" y="231.42" width="806.32" height="198.96" fill="#333333" stroke="none" pointer-events="all"/></g><g><rect x="4219.41" y="257.59" width="41.89" height="146.6" fill="#2d2d2d" stroke="none" pointer-events="all"/></g><g><rect x="3622.52" y="257.59" width="41.89" height="146.6" fill="#2d2d2d" stroke="none" pointer-events="all"/></g><g><rect x="3664.41" y="257.59" width="555" height="20.94" fill="#222222" stroke="none" pointer-events="all"/></g><g><rect x="3664.41" y="299.48" width="555" height="20.94" fill="#222222" stroke="none" pointer-events="all"/></g><g><rect x="3664.41" y="341.37" width="555" height="20.94" fill="#222222" stroke="none" pointer-events="all"/></g><g><rect x="3664.41" y="383.25" width="555" height="20.94" fill="#222222" stroke="none" pointer-events="all"/></g><g><rect x="3831.96" y="257.59" width="20.94" height="146.6" fill="#2d2d2d" stroke="none" pointer-events="all"/></g><g><rect x="4030.92" y="257.59" width="20.94" height="146.6" fill="#2d2d2d" stroke="none" pointer-events="all"/></g><g><rect x="3664.41" y="362.31" width="555" height="20.94" fill="#333333" stroke="none" pointer-events="all"/></g><g><rect x="3664.41" y="320.42" width="555" height="20.94" fill="#333333" stroke="none" pointer-events="all"/></g><g><rect x="3664.41" y="278.54" width="555" height="20.94" fill="#333333" stroke="none" pointer-events="all"/></g><g/><g><rect x="2418.28" y="13.51" width="1099.52" height="170.39" fill="#333333" stroke="none" pointer-events="all"/></g><g><rect x="2450.9" y="20.92" width="72.82" height="74.08" fill="#222222" stroke="#333333" stroke-width="5" pointer-events="all"/></g><g><rect x="2450.9" y="102.41" width="72.82" height="74.08" fill="#222222" stroke="#333333" stroke-width="5" pointer-events="all"/></g><g><rect x="2530.99" y="20.92" width="72.82" height="74.08" fill="#222222" stroke="#333333" stroke-width="5" pointer-events="all"/></g><g><rect x="2530.99" y="102.41" width="72.82" height="74.08" fill="#222222" stroke="#333333" stroke-width="5" pointer-events="all"/></g><g><rect x="2611.09" y="20.92" width="72.82" height="74.08" fill="#222222" stroke="#333333" stroke-width="5" pointer-events="all"/></g><g><rect x="2611.09" y="102.41" width="72.82" height="74.08" fill="#222222" stroke="#333333" stroke-width="5" pointer-events="all"/></g><g><rect x="2691.19" y="20.92" width="72.82" height="74.08" fill="#222222" stroke="#333333" stroke-width="5" pointer-events="all"/></g><g><rect x="2691.19" y="102.41" width="72.82" height="74.08" fill="#222222" stroke="#333333" stroke-width="5" pointer-events="all"/></g><g><rect x="2771.29" y="20.92" width="72.82" height="74.08" fill="#222222" stroke="#333333" stroke-width="5" pointer-events="all"/></g><g><rect x="2771.29" y="102.41" width="72.82" height="74.08" fill="#222222" stroke="#333333" stroke-width="5" pointer-events="all"/></g><g><rect x="2851.38" y="20.92" width="72.82" height="74.08" fill="#222222" stroke="#333333" stroke-width="5" pointer-events="all"/></g><g><rect x="2851.38" y="102.41" width="72.82" height="74.08" fill="#222222" stroke="#333333" stroke-width="5" pointer-events="all"/></g><g><rect x="2931.48" y="20.92" width="72.82" height="74.08" fill="#222222" stroke="#333333" stroke-width="5" pointer-events="all"/></g><g><rect x="2931.48" y="102.41" width="72.82" height="74.08" fill="#222222" stroke="#333333" stroke-width="5" pointer-events="all"/></g><g><rect x="3011.58" y="20.92" width="72.82" height="74.08" fill="#222222" stroke="#333333" stroke-width="5" pointer-events="all"/></g><g><rect x="3011.58" y="102.41" width="72.82" height="74.08" fill="#222222" stroke="#333333" stroke-width="5" pointer-events="all"/></g><g><rect x="3091.68" y="20.92" width="72.82" height="74.08" fill="#222222" stroke="#333333" stroke-width="5" pointer-events="all"/></g><g><rect x="3091.68" y="102.41" width="72.82" height="74.08" fill="#222222" stroke="#333333" stroke-width="5" pointer-events="all"/></g><g><rect x="3171.77" y="20.92" width="72.82" height="74.08" fill="#222222" stroke="#333333" stroke-width="5" pointer-events="all"/></g><g><rect x="3171.77" y="102.41" width="72.82" height="74.08" fill="#222222" stroke="#333333" stroke-width="5" pointer-events="all"/></g><g><rect x="3251.87" y="20.92" width="72.82" height="74.08" fill="#222222" stroke="#333333" stroke-width="5" pointer-events="all"/></g><g><rect x="3251.87" y="102.41" width="72.82" height="74.08" fill="#222222" stroke="#333333" stroke-width="5" pointer-events="all"/></g><g><rect x="3331.97" y="20.92" width="72.82" height="74.08" fill="#222222" stroke="#333333" stroke-width="5" pointer-events="all"/></g><g><rect x="3331.97" y="102.41" width="72.82" height="74.08" fill="#222222" stroke="#333333" stroke-width="5" pointer-events="all"/></g><g><rect x="3412.07" y="20.92" width="72.82" height="74.08" fill="#222222" stroke="#333333" stroke-width="5" pointer-events="all"/></g><g><rect x="3412.07" y="102.41" width="72.82" height="74.08" fill="#222222" stroke="#333333" stroke-width="5" pointer-events="all"/></g><g><rect x="198.3" y="13.9" width="1360" height="170.4" fill="#333333" stroke="none" pointer-events="all"/></g><g><rect x="241.94" y="21.31" width="72.73" height="74.09" fill="#222222" stroke="#333333" stroke-width="5" pointer-events="all"/></g><g><rect x="241.94" y="102.8" width="72.73" height="74.09" fill="#222222" stroke="#333333" stroke-width="5" pointer-events="all"/></g><g><rect x="321.94" y="21.31" width="72.73" height="74.09" fill="#222222" stroke="#333333" stroke-width="5" pointer-events="all"/></g><g><rect x="321.94" y="102.8" width="72.73" height="74.09" fill="#222222" stroke="#333333" stroke-width="5" pointer-events="all"/></g><g><rect x="401.94" y="21.31" width="72.73" height="74.09" fill="#222222" stroke="#333333" stroke-width="5" pointer-events="all"/></g><g><rect x="401.94" y="102.8" width="72.73" height="74.09" fill="#222222" stroke="#333333" stroke-width="5" pointer-events="all"/></g><g><rect x="481.94" y="21.31" width="72.73" height="74.09" fill="#222222" stroke="#333333" stroke-width="5" pointer-events="all"/></g><g><rect x="481.94" y="102.8" width="72.73" height="74.09" fill="#222222" stroke="#333333" stroke-width="5" pointer-events="all"/></g><g><rect x="561.94" y="21.31" width="72.73" height="74.09" fill="#222222" stroke="#333333" stroke-width="5" pointer-events="all"/></g><g><rect x="561.94" y="102.8" width="72.73" height="74.09" fill="#222222" stroke="#333333" stroke-width="5" pointer-events="all"/></g><g><rect x="641.94" y="21.31" width="72.73" height="74.09" fill="#222222" stroke="#333333" stroke-width="5" pointer-events="all"/></g><g><rect x="641.94" y="102.8" width="72.73" height="74.09" fill="#222222" stroke="#333333" stroke-width="5" pointer-events="all"/></g><g><rect x="721.94" y="21.31" width="72.73" height="74.09" fill="#222222" stroke="#333333" stroke-width="5" pointer-events="all"/></g><g><rect x="721.94" y="102.8" width="72.73" height="74.09" fill="#222222" stroke="#333333" stroke-width="5" pointer-events="all"/></g><g><rect x="801.94" y="21.31" width="72.73" height="74.09" fill="#222222" stroke="#333333" stroke-width="5" pointer-events="all"/></g><g><rect x="801.94" y="102.8" width="72.73" height="74.09" fill="#222222" stroke="#333333" stroke-width="5" pointer-events="all"/></g><g><rect x="881.94" y="21.31" width="72.73" height="74.09" fill="#222222" stroke="#333333" stroke-width="5" pointer-events="all"/></g><g><rect x="881.94" y="102.8" width="72.73" height="74.09" fill="#222222" stroke="#333333" stroke-width="5" pointer-events="all"/></g><g><rect x="961.94" y="21.31" width="72.73" height="74.09" fill="#222222" stroke="#333333" stroke-width="5" pointer-events="all"/></g><g><rect x="961.94" y="102.8" width="72.73" height="74.09" fill="#222222" stroke="#333333" stroke-width="5" pointer-events="all"/></g><g><rect x="1041.94" y="21.31" width="72.73" height="74.09" fill="#222222" stroke="#333333" stroke-width="5" pointer-events="all"/></g><g><rect x="1041.94" y="102.8" width="72.73" height="74.09" fill="#222222" stroke="#333333" stroke-width="5" pointer-events="all"/></g><g><rect x="1121.94" y="21.31" width="72.73" height="74.09" fill="#222222" stroke="#333333" stroke-width="5" pointer-events="all"/></g><g><rect x="1121.94" y="102.8" width="72.73" height="74.09" fill="#222222" stroke="#333333" stroke-width="5" pointer-events="all"/></g><g><rect x="1201.94" y="21.31" width="72.73" height="74.09" fill="#222222" stroke="#333333" stroke-width="5" pointer-events="all"/></g><g><rect x="1201.94" y="102.8" width="72.73" height="74.09" fill="#222222" stroke="#333333" stroke-width="5" pointer-events="all"/></g><g><rect x="1281.94" y="21.31" width="72.73" height="74.09" fill="#222222" stroke="#333333" stroke-width="5" pointer-events="all"/></g><g><rect x="1280.48" y="102.8" width="72.73" height="74.09" fill="#222222" stroke="#333333" stroke-width="5" pointer-events="all"/></g><g><rect x="1361.94" y="21.31" width="72.73" height="74.09" fill="#222222" stroke="#333333" stroke-width="5" pointer-events="all"/></g><g><rect x="1361.94" y="102.8" width="72.73" height="74.09" fill="#222222" stroke="#333333" stroke-width="5" pointer-events="all"/></g><g><rect x="1441.94" y="21.31" width="72.73" height="74.09" fill="#222222" stroke="#333333" stroke-width="5" pointer-events="all"/></g><g><rect x="1441.94" y="102.8" width="72.73" height="74.09" fill="#222222" stroke="#333333" stroke-width="5" pointer-events="all"/></g><g><rect x="1567.8" y="13.9" width="840" height="170" fill="#333333" stroke="none" pointer-events="all"/></g><g><rect x="1582.8" y="36.07" width="810" height="133.04" fill="#333333" stroke="#001dbc" stroke-width="2" pointer-events="all"/></g><g><ellipse cx="1770.3" cy="132.16" rx="22.5" ry="22.17391304347826" fill="#60a917" stroke="none" pointer-events="all"/></g><g><ellipse cx="1822.8" cy="132.16" rx="22.5" ry="22.17391304347826" fill="#0050ef" stroke="none" pointer-events="all"/></g><g><ellipse cx="1875.3" cy="132.16" rx="22.5" ry="22.17391304347826" fill="#0050ef" stroke="none" pointer-events="all"/></g><g><ellipse cx="1927.8" cy="132.16" rx="22.5" ry="22.17391304347826" fill="#0050ef" stroke="none" pointer-events="all"/></g><g><ellipse cx="2032.8" cy="132.16" rx="22.5" ry="22.17391304347826" fill="#a20025" stroke="none" pointer-events="all"/></g><g><ellipse cx="1980.3" cy="132.16" rx="22.5" ry="22.17391304347826" fill="#0050ef" stroke="none" pointer-events="all"/></g><g><ellipse cx="1702.8" cy="124.77" rx="30" ry="29.565217391304344" fill="#0050ef" stroke="none" pointer-events="all"/></g><g><ellipse cx="1627.8" cy="124.77" rx="30" ry="29.565217391304344" fill="#0050ef" stroke="none" pointer-events="all"/></g><g><rect x="2110.8" y="50.86" width="65.1" height="29.57" fill="none" stroke="none" pointer-events="all"/><path d="M 2122.09 67.06 C 2121.31 69.76 2118.61 71.49 2115.76 71.1 C 2112.92 70.71 2110.8 68.33 2110.8 65.53 C 2110.8 62.72 2112.92 60.34 2115.76 59.96 C 2118.61 59.57 2121.31 61.29 2122.09 63.99 L 2128.89 63.99 C 2129.71 63.68 2130.37 63.06 2130.72 62.27 L 2132.81 58.5 C 2134.03 56.71 2135.95 55.51 2138.11 55.17 C 2139.9 54.9 2141.72 54.77 2143.54 54.79 C 2144.3 52.37 2146.75 50.86 2149.31 51.23 C 2151.87 51.61 2153.77 53.76 2153.77 56.29 C 2153.77 58.82 2151.87 60.97 2149.31 61.35 C 2146.75 61.72 2144.3 60.21 2143.54 57.79 C 2141.58 57.7 2139.62 57.89 2137.72 58.37 C 2136.85 58.68 2136.08 59.21 2135.49 59.9 L 2134.19 62.46 L 2133.4 64.06 L 2164.39 64.06 L 2164.39 58.94 L 2175.9 65.97 L 2164.39 72.24 L 2164.39 67 L 2140.59 67 C 2141.09 67.74 2141.51 68.53 2141.84 69.36 L 2143.14 72.69 C 2143.45 73.26 2143.93 73.73 2144.52 74.03 C 2145.29 74.21 2146.08 74.31 2146.87 74.35 L 2149.68 74.35 L 2149.68 71.15 L 2159.03 71.15 L 2159.03 80.42 L 2149.68 80.42 L 2149.68 77.42 C 2147.8 77.61 2145.9 77.48 2144.06 77.03 C 2142.73 76.63 2141.56 75.83 2140.72 74.73 L 2139.68 72.37 L 2138.31 69.11 C 2137.85 67.88 2136.69 67.05 2135.36 67 Z" fill="#ffffff" stroke="none" pointer-events="all"/></g><g><rect x="2270.4" y="50.86" width="65.1" height="29.57" fill="none" stroke="none" pointer-events="all"/><path d="M 2281.69 67.06 C 2280.91 69.76 2278.21 71.49 2275.36 71.1 C 2272.52 70.71 2270.4 68.33 2270.4 65.53 C 2270.4 62.72 2272.52 60.34 2275.36 59.96 C 2278.21 59.57 2280.91 61.29 2281.69 63.99 L 2288.49 63.99 C 2289.31 63.68 2289.97 63.06 2290.32 62.27 L 2292.41 58.5 C 2293.63 56.71 2295.55 55.51 2297.71 55.17 C 2299.5 54.9 2301.32 54.77 2303.14 54.79 C 2303.9 52.37 2306.35 50.86 2308.91 51.23 C 2311.47 51.61 2313.37 53.76 2313.37 56.29 C 2313.37 58.82 2311.47 60.97 2308.91 61.35 C 2306.35 61.72 2303.9 60.21 2303.14 57.79 C 2301.18 57.7 2299.22 57.89 2297.32 58.37 C 2296.45 58.68 2295.68 59.21 2295.09 59.9 L 2293.79 62.46 L 2293 64.06 L 2323.99 64.06 L 2323.99 58.94 L 2335.5 65.97 L 2323.99 72.24 L 2323.99 67 L 2300.19 67 C 2300.69 67.74 2301.11 68.53 2301.44 69.36 L 2302.74 72.69 C 2303.05 73.26 2303.53 73.73 2304.12 74.03 C 2304.89 74.21 2305.68 74.31 2306.47 74.35 L 2309.28 74.35 L 2309.28 71.15 L 2318.63 71.15 L 2318.63 80.42 L 2309.28 80.42 L 2309.28 77.42 C 2307.4 77.61 2305.5 77.48 2303.66 77.03 C 2302.33 76.63 2301.16 75.83 2300.32 74.73 L 2299.28 72.37 L 2297.91 69.11 C 2297.45 67.88 2296.29 67.05 2294.96 67 Z" fill="#ffffff" stroke="none" pointer-events="all"/></g><g><path d="M 1627.74 65.31 C 1628.63 65.31 1629.26 64.69 1629.26 63.87 L 1629.26 57.96 C 1629.26 57.18 1628.73 56.46 1627.84 56.46 C 1626.95 56.46 1626.33 57.17 1626.33 57.82 L 1626.33 63.88 C 1626.33 64.69 1627.02 65.31 1627.74 65.31 Z M 1627.75 74.82 C 1632.52 74.82 1636.47 71.04 1636.47 66.38 C 1636.47 64.03 1635.61 61.39 1632.98 59.48 C 1632.5 59.11 1631.52 59.3 1631.08 59.88 C 1630.67 60.47 1630.64 61.32 1631.3 61.93 C 1632.61 62.96 1633.47 64.57 1633.47 66.23 C 1633.47 69.45 1630.67 71.85 1627.87 71.85 C 1625.11 71.85 1622.35 69.87 1622.15 66.32 C 1622.11 64.89 1622.93 62.86 1624.38 61.86 C 1624.88 61.46 1625.08 60.55 1624.47 59.84 C 1623.89 59.11 1622.94 59.24 1622.54 59.55 C 1620.31 61.34 1619.23 63.35 1619.18 66.13 C 1619.18 71.29 1623.17 74.82 1627.75 74.82 Z M 1627.79 80.42 C 1619.25 80.42 1612.8 73.6 1612.8 65.58 C 1612.8 57.53 1619.51 50.86 1627.94 50.86 C 1635.68 50.86 1642.8 57.03 1642.8 65.55 C 1642.8 74.45 1635.58 80.42 1627.79 80.42 Z" fill="#ffffff" stroke="none" pointer-events="all"/></g><g><path d="M 1698.12 80.42 L 1698.12 75.55 C 1691.67 73.49 1687.8 67.52 1688.96 61.42 C 1690.11 55.31 1695.96 50.85 1702.8 50.85 C 1709.64 50.85 1715.49 55.31 1716.64 61.42 C 1717.8 67.52 1713.93 73.49 1707.48 75.55 L 1707.48 80.42" fill="none" stroke="rgb(240, 240, 240)" stroke-miterlimit="10" transform="rotate(-180,1702.8,65.64)" pointer-events="all"/></g><g><path d="M 1807.8 75.49 L 1807.8 55.78 C 1807.8 53.06 1814.52 50.86 1822.8 50.86 C 1831.08 50.86 1837.8 53.06 1837.8 55.78 L 1837.8 75.49 C 1837.8 78.22 1831.08 80.42 1822.8 80.42 C 1814.52 80.42 1807.8 78.22 1807.8 75.49 Z" fill="none" stroke="rgb(240, 240, 240)" stroke-miterlimit="10" pointer-events="all"/><path d="M 1807.8 55.78 C 1807.8 58.51 1814.52 60.71 1822.8 60.71 C 1831.08 60.71 1837.8 58.51 1837.8 55.78" fill="none" stroke="rgb(240, 240, 240)" stroke-miterlimit="10" pointer-events="all"/></g><g><rect x="1860.3" y="50.86" width="30" height="29.57" fill="none" stroke="none" pointer-events="all"/><path d="M 1872.16 50.86 L 1872.16 57.09 L 1874.73 57.09 L 1874.72 62.92 L 1863.24 62.91 C 1863.09 62.91 1862.95 62.97 1862.85 63.08 C 1862.74 63.18 1862.68 63.33 1862.68 63.48 L 1862.69 74.18 L 1860.3 74.18 L 1860.3 80.41 L 1866.46 80.41 L 1866.46 74.18 L 1863.8 74.18 L 1863.79 64.04 L 1874.72 64.05 L 1874.71 71.66 L 1872.15 71.66 L 1872.15 77.89 L 1878.31 77.89 L 1878.31 71.66 L 1875.82 71.66 L 1875.83 64.05 L 1886.73 64.06 L 1886.68 74.19 L 1884.14 74.19 L 1884.14 80.42 L 1890.3 80.42 L 1890.3 74.19 L 1887.79 74.19 L 1887.84 63.5 C 1887.84 63.35 1887.79 63.21 1887.68 63.1 C 1887.58 63 1887.44 62.94 1887.29 62.94 L 1875.83 62.92 L 1875.84 57.09 L 1878.32 57.09 L 1878.32 50.86 Z" fill="#ffffff" stroke="none" pointer-events="all"/></g><g><rect x="1912.8" y="50.86" width="30" height="29.57" fill="none" stroke="none" pointer-events="all"/><path d="M 1924.66 50.86 L 1924.66 57.09 L 1927.23 57.09 L 1927.22 62.92 L 1915.74 62.91 C 1915.59 62.91 1915.45 62.97 1915.35 63.08 C 1915.24 63.18 1915.18 63.33 1915.18 63.48 L 1915.19 74.18 L 1912.8 74.18 L 1912.8 80.41 L 1918.96 80.41 L 1918.96 74.18 L 1916.3 74.18 L 1916.29 64.04 L 1927.22 64.05 L 1927.21 71.66 L 1924.65 71.66 L 1924.65 77.89 L 1930.81 77.89 L 1930.81 71.66 L 1928.32 71.66 L 1928.33 64.05 L 1939.23 64.06 L 1939.18 74.19 L 1936.64 74.19 L 1936.64 80.42 L 1942.8 80.42 L 1942.8 74.19 L 1940.29 74.19 L 1940.34 63.5 C 1940.34 63.35 1940.29 63.21 1940.18 63.1 C 1940.08 63 1939.94 62.94 1939.79 62.94 L 1928.33 62.92 L 1928.34 57.09 L 1930.82 57.09 L 1930.82 50.86 Z" fill="#ffffff" stroke="none" pointer-events="all"/></g><g><rect x="1965.3" y="50.86" width="30" height="29.57" fill="none" stroke="none" pointer-events="all"/><path d="M 1977.16 50.86 L 1977.16 57.09 L 1979.73 57.09 L 1979.72 62.92 L 1968.24 62.91 C 1968.09 62.91 1967.95 62.97 1967.85 63.08 C 1967.74 63.18 1967.68 63.33 1967.68 63.48 L 1967.69 74.18 L 1965.3 74.18 L 1965.3 80.41 L 1971.46 80.41 L 1971.46 74.18 L 1968.8 74.18 L 1968.79 64.04 L 1979.72 64.05 L 1979.71 71.66 L 1977.15 71.66 L 1977.15 77.89 L 1983.31 77.89 L 1983.31 71.66 L 1980.82 71.66 L 1980.83 64.05 L 1991.73 64.06 L 1991.68 74.19 L 1989.14 74.19 L 1989.14 80.42 L 1995.3 80.42 L 1995.3 74.19 L 1992.79 74.19 L 1992.84 63.5 C 1992.84 63.35 1992.79 63.21 1992.68 63.1 C 1992.58 63 1992.44 62.94 1992.29 62.94 L 1980.83 62.92 L 1980.84 57.09 L 1983.32 57.09 L 1983.32 50.86 Z" fill="#ffffff" stroke="none" pointer-events="all"/></g><g><path d="M 2017.8 50.86 L 2047.8 65.64 L 2017.8 80.42 Z" fill="none" stroke="rgb(240, 240, 240)" stroke-miterlimit="10" transform="rotate(-90,2032.8,65.64)" pointer-events="all"/></g><g><path d="M 1770.24 65.31 C 1771.13 65.31 1771.76 64.69 1771.76 63.87 L 1771.76 57.96 C 1771.76 57.18 1771.23 56.46 1770.34 56.46 C 1769.45 56.46 1768.83 57.17 1768.83 57.82 L 1768.83 63.88 C 1768.83 64.69 1769.52 65.31 1770.24 65.31 Z M 1770.25 74.82 C 1775.02 74.82 1778.97 71.04 1778.97 66.38 C 1778.97 64.03 1778.11 61.39 1775.48 59.48 C 1775 59.11 1774.02 59.3 1773.58 59.88 C 1773.17 60.47 1773.14 61.32 1773.8 61.93 C 1775.11 62.96 1775.97 64.57 1775.97 66.23 C 1775.97 69.45 1773.17 71.85 1770.37 71.85 C 1767.61 71.85 1764.85 69.87 1764.65 66.32 C 1764.61 64.89 1765.43 62.86 1766.88 61.86 C 1767.38 61.46 1767.58 60.55 1766.97 59.84 C 1766.39 59.11 1765.44 59.24 1765.04 59.55 C 1762.81 61.34 1761.73 63.35 1761.68 66.13 C 1761.68 71.29 1765.67 74.82 1770.25 74.82 Z M 1770.29 80.42 C 1761.75 80.42 1755.3 73.6 1755.3 65.58 C 1755.3 57.53 1762.01 50.86 1770.44 50.86 C 1778.18 50.86 1785.3 57.03 1785.3 65.55 C 1785.3 74.45 1778.08 80.42 1770.29 80.42 Z" fill="none" stroke="rgb(240, 240, 240)" stroke-miterlimit="10" pointer-events="all"/></g><g><rect x="2227.8" y="95.2" width="150" height="59.13" fill="#222222" stroke="#aaaaaa" pointer-events="all"/></g><g><rect x="2242.8" y="109.99" width="120" height="14.78" fill="#0050ef" stroke="none" pointer-events="all"/></g><g><rect x="2068.2" y="95.2" width="150" height="59.13" fill="#222222" stroke="#aaaaaa" pointer-events="all"/></g><g><rect x="2083.2" y="109.99" width="120" height="14.78" fill="#0050ef" stroke="none" pointer-events="all"/></g><g><rect x="3528.28" y="13.51" width="1099.52" height="170.39" fill="#333333" stroke="none" pointer-events="all"/></g><g><rect x="3560.9" y="20.92" width="72.82" height="74.08" fill="#222222" stroke="#333333" stroke-width="5" pointer-events="all"/></g><g><rect x="3560.9" y="102.41" width="72.82" height="74.08" fill="#222222" stroke="#333333" stroke-width="5" pointer-events="all"/></g><g><rect x="3640.99" y="20.92" width="72.82" height="74.08" fill="#222222" stroke="#333333" stroke-width="5" pointer-events="all"/></g><g><rect x="3640.99" y="102.41" width="72.82" height="74.08" fill="#222222" stroke="#333333" stroke-width="5" pointer-events="all"/></g><g><rect x="3721.09" y="20.92" width="72.82" height="74.08" fill="#222222" stroke="#333333" stroke-width="5" pointer-events="all"/></g><g><rect x="3721.09" y="102.41" width="72.82" height="74.08" fill="#222222" stroke="#333333" stroke-width="5" pointer-events="all"/></g><g><rect x="3801.19" y="20.92" width="72.82" height="74.08" fill="#222222" stroke="#333333" stroke-width="5" pointer-events="all"/></g><g><rect x="3801.19" y="102.41" width="72.82" height="74.08" fill="#222222" stroke="#333333" stroke-width="5" pointer-events="all"/></g><g><rect x="3881.29" y="20.92" width="72.82" height="74.08" fill="#222222" stroke="#333333" stroke-width="5" pointer-events="all"/></g><g><rect x="3881.29" y="102.41" width="72.82" height="74.08" fill="#222222" stroke="#333333" stroke-width="5" pointer-events="all"/></g><g><rect x="3961.38" y="20.92" width="72.82" height="74.08" fill="#222222" stroke="#333333" stroke-width="5" pointer-events="all"/></g><g><rect x="3961.38" y="102.41" width="72.82" height="74.08" fill="#222222" stroke="#333333" stroke-width="5" pointer-events="all"/></g><g><rect x="4041.48" y="20.92" width="72.82" height="74.08" fill="#222222" stroke="#333333" stroke-width="5" pointer-events="all"/></g><g><rect x="4041.48" y="102.41" width="72.82" height="74.08" fill="#222222" stroke="#333333" stroke-width="5" pointer-events="all"/></g><g><rect x="4121.58" y="20.92" width="72.82" height="74.08" fill="#222222" stroke="#333333" stroke-width="5" pointer-events="all"/></g><g><rect x="4121.58" y="102.41" width="72.82" height="74.08" fill="#222222" stroke="#333333" stroke-width="5" pointer-events="all"/></g><g><rect x="4201.68" y="20.92" width="72.82" height="74.08" fill="#222222" stroke="#333333" stroke-width="5" pointer-events="all"/></g><g><rect x="4201.68" y="102.41" width="72.82" height="74.08" fill="#222222" stroke="#333333" stroke-width="5" pointer-events="all"/></g><g><rect x="4281.77" y="20.92" width="72.82" height="74.08" fill="#222222" stroke="#333333" stroke-width="5" pointer-events="all"/></g><g><rect x="4281.77" y="102.41" width="72.82" height="74.08" fill="#222222" stroke="#333333" stroke-width="5" pointer-events="all"/></g><g><rect x="4361.87" y="20.92" width="72.82" height="74.08" fill="#222222" stroke="#333333" stroke-width="5" pointer-events="all"/></g><g><rect x="4361.87" y="102.41" width="72.82" height="74.08" fill="#222222" stroke="#333333" stroke-width="5" pointer-events="all"/></g><g><rect x="4441.97" y="20.92" width="72.82" height="74.08" fill="#222222" stroke="#333333" stroke-width="5" pointer-events="all"/></g><g><rect x="4441.97" y="102.41" width="72.82" height="74.08" fill="#222222" stroke="#333333" stroke-width="5" pointer-events="all"/></g><g><rect x="4522.07" y="20.92" width="72.82" height="74.08" fill="#222222" stroke="#333333" stroke-width="5" pointer-events="all"/></g><g><rect x="4522.07" y="102.41" width="72.82" height="74.08" fill="#222222" stroke="#333333" stroke-width="5" pointer-events="all"/></g></g></svg>