<?xml version="1.0" encoding="UTF-8"?>
<!DOCTYPE svg PUBLIC "-//W3C//DTD SVG 1.1//EN" "http://www.w3.org/Graphics/SVG/1.1/DTD/svg11.dtd">
<svg xmlns="http://www.w3.org/2000/svg" xmlns:xlink="http://www.w3.org/1999/xlink" version="1.1" width="484px" height="135px" viewBox="-0.5 -0.5 484 135"><defs><style type="text/css">@import url("https://fonts.googleapis.com/css?family=Titillium+Web");</style><style type="text/css"/></defs><g><g/><g><rect x="0" y="0" width="482.6" height="133.35" fill="#bfbfbf" stroke="#aaaaaa" pointer-events="all"/></g><g><rect x="18" y="0" width="446.6" height="133.35" fill="#222222" stroke="#aaaaaa" pointer-events="all"/></g><g><rect x="8" y="28.17" width="10" height="77" fill="#bfbfbf" stroke="#aaaaaa" pointer-events="all"/></g><g><rect x="464.6" y="28.17" width="10" height="77" fill="#bfbfbf" stroke="#aaaaaa" pointer-events="all"/></g><g/><g><rect x="471.6" y="111.17" width="4" height="6" fill="#000000" stroke="none" pointer-events="all"/></g><g><ellipse cx="475.6" cy="114.17" rx="3" ry="3" fill="#000000" stroke="none" pointer-events="all"/></g><g><ellipse cx="471.6" cy="114.17" rx="3" ry="3" fill="#000000" stroke="none" pointer-events="all"/></g><g/><g><rect x="471.6" y="16.17" width="4" height="6" fill="#000000" stroke="none" pointer-events="all"/></g><g><ellipse cx="475.6" cy="19.17" rx="3" ry="3" fill="#000000" stroke="none" pointer-events="all"/></g><g><ellipse cx="471.6" cy="19.17" rx="3" ry="3" fill="#000000" stroke="none" pointer-events="all"/></g><g/><g><rect x="7" y="111.17" width="4" height="6" fill="#000000" stroke="none" pointer-events="all"/></g><g><ellipse cx="11" cy="114.17" rx="3" ry="3" fill="#000000" stroke="none" pointer-events="all"/></g><g><ellipse cx="7" cy="114.17" rx="3" ry="3" fill="#000000" stroke="none" pointer-events="all"/></g><g/><g><rect x="7" y="16.17" width="4" height="6" fill="#000000" stroke="none" pointer-events="all"/></g><g><ellipse cx="11" cy="19.17" rx="3" ry="3" fill="#000000" stroke="none" pointer-events="all"/></g><g><ellipse cx="7" cy="19.17" rx="3" ry="3" fill="#000000" stroke="none" pointer-events="all"/></g><g><rect x="19.83" y="104.82" width="109.95" height="26.18" fill="#333333" stroke="none" pointer-events="all"/></g><g><rect x="22.97" y="107.96" width="101.57" height="19.9" fill="#222222" stroke="#222222" stroke-width="0.5" pointer-events="all"/></g><g><rect x="125.07" y="126.29" width="4.19" height="3.14" rx="0.47" ry="0.47" fill="#60a917" stroke="#222222" stroke-width="0.1" transform="rotate(90,127.16,127.86)" pointer-events="all"/></g><g><rect x="125.07" y="116.86" width="4.19" height="3.14" rx="0.47" ry="0.47" fill="#0050ef" stroke="#222222" stroke-width="0.1" transform="rotate(90,127.16,118.43)" pointer-events="all"/></g><g><rect x="98.37" y="111.1" width="8.38" height="13.61" rx="1.26" ry="1.26" fill="#0050ef" stroke="none" pointer-events="all"/></g><g><path d="M 105.7 111.1 Q 108.84 111.1 108.84 117.91 Q 108.84 124.72 105.7 124.72 Z" fill="#0050ef" stroke="none" pointer-events="all"/></g><g><path d="M 127.16 113.69 C 127.25 113.69 127.32 113.62 127.32 113.53 L 127.32 112.91 C 127.32 112.82 127.26 112.75 127.17 112.75 C 127.08 112.75 127.01 112.82 127.01 112.89 L 127.01 113.54 C 127.01 113.62 127.08 113.69 127.16 113.69 Z M 127.16 114.7 C 127.66 114.7 128.07 114.3 128.07 113.8 C 128.07 113.55 127.98 113.27 127.71 113.07 C 127.66 113.03 127.55 113.05 127.51 113.11 C 127.46 113.17 127.46 113.26 127.53 113.33 C 127.67 113.44 127.76 113.61 127.76 113.78 C 127.76 114.13 127.47 114.38 127.17 114.38 C 126.88 114.38 126.59 114.17 126.57 113.79 C 126.57 113.64 126.65 113.43 126.81 113.32 C 126.86 113.28 126.88 113.18 126.82 113.11 C 126.75 113.03 126.66 113.04 126.61 113.07 C 126.38 113.27 126.27 113.48 126.26 113.77 C 126.26 114.32 126.68 114.7 127.16 114.7 Z M 127.16 115.29 C 126.27 115.29 125.59 114.57 125.59 113.72 C 125.59 112.86 126.3 112.15 127.18 112.15 C 127.99 112.15 128.73 112.81 128.73 113.71 C 128.73 114.66 127.98 115.29 127.16 115.29 Z" fill="none" stroke="#222222" stroke-width="0.1" stroke-miterlimit="10" pointer-events="all"/></g><g><path d="M 125.59 124.19 L 125.59 122.1 C 125.59 121.81 126.3 121.58 127.16 121.58 C 128.03 121.58 128.73 121.81 128.73 122.1 L 128.73 124.19 C 128.73 124.48 128.03 124.72 127.16 124.72 C 126.3 124.72 125.59 124.48 125.59 124.19 Z" fill="none" stroke="#222222" stroke-width="0.1" stroke-miterlimit="10" pointer-events="all"/><path d="M 125.59 122.1 C 125.59 122.39 126.3 122.62 127.16 122.62 C 128.03 122.62 128.73 122.39 128.73 122.1" fill="none" stroke="#222222" stroke-width="0.1" stroke-miterlimit="10" pointer-events="all"/></g><g><rect x="22.97" y="107.96" width="80.63" height="19.9" fill="#333333" stroke="none" pointer-events="all"/></g><g><rect x="88.94" y="110.58" width="4.19" height="14.66" fill="#2d2d2d" stroke="none" pointer-events="all"/></g><g><rect x="29.25" y="110.58" width="4.19" height="14.66" fill="#2d2d2d" stroke="none" pointer-events="all"/></g><g><rect x="33.44" y="110.58" width="55.5" height="2.09" fill="#222222" stroke="none" pointer-events="all"/></g><g><rect x="33.44" y="114.77" width="55.5" height="2.09" fill="#222222" stroke="none" pointer-events="all"/></g><g><rect x="33.44" y="118.96" width="55.5" height="2.09" fill="#222222" stroke="none" pointer-events="all"/></g><g><rect x="33.44" y="123.15" width="55.5" height="2.09" fill="#222222" stroke="none" pointer-events="all"/></g><g><rect x="50.2" y="110.58" width="2.09" height="14.66" fill="#2d2d2d" stroke="none" pointer-events="all"/></g><g><rect x="70.09" y="110.58" width="2.09" height="14.66" fill="#2d2d2d" stroke="none" pointer-events="all"/></g><g><rect x="33.44" y="121.05" width="55.5" height="2.09" fill="#333333" stroke="none" pointer-events="all"/></g><g><rect x="33.44" y="116.86" width="55.5" height="2.09" fill="#333333" stroke="none" pointer-events="all"/></g><g><rect x="33.44" y="112.67" width="55.5" height="2.09" fill="#333333" stroke="none" pointer-events="all"/></g><g><rect x="130.83" y="104.82" width="109.95" height="26.18" fill="#333333" stroke="none" pointer-events="all"/></g><g><rect x="133.97" y="107.96" width="101.57" height="19.9" fill="#222222" stroke="#222222" stroke-width="0.5" pointer-events="all"/></g><g><rect x="236.07" y="126.29" width="4.19" height="3.14" rx="0.47" ry="0.47" fill="#60a917" stroke="#222222" stroke-width="0.1" transform="rotate(90,238.16,127.86)" pointer-events="all"/></g><g><rect x="236.07" y="116.86" width="4.19" height="3.14" rx="0.47" ry="0.47" fill="#0050ef" stroke="#222222" stroke-width="0.1" transform="rotate(90,238.16,118.43)" pointer-events="all"/></g><g><rect x="209.37" y="111.1" width="8.38" height="13.61" rx="1.26" ry="1.26" fill="#0050ef" stroke="none" pointer-events="all"/></g><g><path d="M 216.7 111.1 Q 219.84 111.1 219.84 117.91 Q 219.84 124.72 216.7 124.72 Z" fill="#0050ef" stroke="none" pointer-events="all"/></g><g><path d="M 238.16 113.69 C 238.25 113.69 238.32 113.62 238.32 113.53 L 238.32 112.91 C 238.32 112.82 238.26 112.75 238.17 112.75 C 238.07 112.75 238.01 112.82 238.01 112.89 L 238.01 113.54 C 238.01 113.62 238.08 113.69 238.16 113.69 Z M 238.16 114.7 C 238.66 114.7 239.07 114.3 239.07 113.8 C 239.07 113.55 238.98 113.27 238.71 113.07 C 238.66 113.03 238.55 113.05 238.51 113.11 C 238.46 113.17 238.46 113.26 238.53 113.33 C 238.67 113.44 238.76 113.61 238.76 113.78 C 238.76 114.13 238.46 114.38 238.17 114.38 C 237.88 114.38 237.59 114.17 237.57 113.79 C 237.57 113.64 237.65 113.43 237.81 113.32 C 237.86 113.28 237.88 113.18 237.81 113.11 C 237.75 113.03 237.65 113.04 237.61 113.07 C 237.38 113.27 237.27 113.48 237.26 113.77 C 237.26 114.32 237.68 114.7 238.16 114.7 Z M 238.16 115.29 C 237.27 115.29 236.59 114.57 236.59 113.72 C 236.59 112.86 237.3 112.15 238.18 112.15 C 238.99 112.15 239.73 112.81 239.73 113.71 C 239.73 114.66 238.98 115.29 238.16 115.29 Z" fill="none" stroke="#222222" stroke-width="0.1" stroke-miterlimit="10" pointer-events="all"/></g><g><path d="M 236.59 124.19 L 236.59 122.1 C 236.59 121.81 237.3 121.58 238.16 121.58 C 239.03 121.58 239.73 121.81 239.73 122.1 L 239.73 124.19 C 239.73 124.48 239.03 124.72 238.16 124.72 C 237.3 124.72 236.59 124.48 236.59 124.19 Z" fill="none" stroke="#222222" stroke-width="0.1" stroke-miterlimit="10" pointer-events="all"/><path d="M 236.59 122.1 C 236.59 122.39 237.3 122.62 238.16 122.62 C 239.03 122.62 239.73 122.39 239.73 122.1" fill="none" stroke="#222222" stroke-width="0.1" stroke-miterlimit="10" pointer-events="all"/></g><g><rect x="133.97" y="107.96" width="80.63" height="19.9" fill="#333333" stroke="none" pointer-events="all"/></g><g><rect x="199.94" y="110.58" width="4.19" height="14.66" fill="#2d2d2d" stroke="none" pointer-events="all"/></g><g><rect x="140.25" y="110.58" width="4.19" height="14.66" fill="#2d2d2d" stroke="none" pointer-events="all"/></g><g><rect x="144.44" y="110.58" width="55.5" height="2.09" fill="#222222" stroke="none" pointer-events="all"/></g><g><rect x="144.44" y="114.77" width="55.5" height="2.09" fill="#222222" stroke="none" pointer-events="all"/></g><g><rect x="144.44" y="118.96" width="55.5" height="2.09" fill="#222222" stroke="none" pointer-events="all"/></g><g><rect x="144.44" y="123.15" width="55.5" height="2.09" fill="#222222" stroke="none" pointer-events="all"/></g><g><rect x="161.2" y="110.58" width="2.09" height="14.66" fill="#2d2d2d" stroke="none" pointer-events="all"/></g><g><rect x="181.09" y="110.58" width="2.09" height="14.66" fill="#2d2d2d" stroke="none" pointer-events="all"/></g><g><rect x="144.44" y="121.05" width="55.5" height="2.09" fill="#333333" stroke="none" pointer-events="all"/></g><g><rect x="144.44" y="116.86" width="55.5" height="2.09" fill="#333333" stroke="none" pointer-events="all"/></g><g><rect x="144.44" y="112.67" width="55.5" height="2.09" fill="#333333" stroke="none" pointer-events="all"/></g><g><rect x="241.83" y="104.82" width="109.95" height="26.18" fill="#333333" stroke="none" pointer-events="all"/></g><g><rect x="244.97" y="107.96" width="101.57" height="19.9" fill="#222222" stroke="#222222" stroke-width="0.5" pointer-events="all"/></g><g><rect x="347.07" y="126.29" width="4.19" height="3.14" rx="0.47" ry="0.47" fill="#60a917" stroke="#222222" stroke-width="0.1" transform="rotate(90,349.16,127.86)" pointer-events="all"/></g><g><rect x="347.07" y="116.86" width="4.19" height="3.14" rx="0.47" ry="0.47" fill="#0050ef" stroke="#222222" stroke-width="0.1" transform="rotate(90,349.16,118.43)" pointer-events="all"/></g><g><rect x="320.37" y="111.1" width="8.38" height="13.61" rx="1.26" ry="1.26" fill="#0050ef" stroke="none" pointer-events="all"/></g><g><path d="M 327.7 111.1 Q 330.84 111.1 330.84 117.91 Q 330.84 124.72 327.7 124.72 Z" fill="#0050ef" stroke="none" pointer-events="all"/></g><g><path d="M 349.16 113.69 C 349.25 113.69 349.32 113.62 349.32 113.53 L 349.32 112.91 C 349.32 112.82 349.26 112.75 349.17 112.75 C 349.07 112.75 349.01 112.82 349.01 112.89 L 349.01 113.54 C 349.01 113.62 349.08 113.69 349.16 113.69 Z M 349.16 114.7 C 349.66 114.7 350.07 114.3 350.07 113.8 C 350.07 113.55 349.98 113.27 349.71 113.07 C 349.66 113.03 349.55 113.05 349.51 113.11 C 349.46 113.17 349.46 113.26 349.53 113.33 C 349.67 113.44 349.76 113.61 349.76 113.78 C 349.76 114.13 349.46 114.38 349.17 114.38 C 348.88 114.38 348.59 114.17 348.57 113.79 C 348.57 113.64 348.65 113.43 348.8 113.32 C 348.86 113.28 348.88 113.18 348.81 113.11 C 348.75 113.03 348.65 113.04 348.61 113.07 C 348.38 113.27 348.27 113.48 348.26 113.77 C 348.26 114.32 348.68 114.7 349.16 114.7 Z M 349.16 115.29 C 348.27 115.29 347.59 114.57 347.59 113.72 C 347.59 112.86 348.29 112.15 349.18 112.15 C 349.99 112.15 350.73 112.81 350.73 113.71 C 350.73 114.66 349.98 115.29 349.16 115.29 Z" fill="none" stroke="#222222" stroke-width="0.1" stroke-miterlimit="10" pointer-events="all"/></g><g><path d="M 347.59 124.19 L 347.59 122.1 C 347.59 121.81 348.3 121.58 349.16 121.58 C 350.03 121.58 350.73 121.81 350.73 122.1 L 350.73 124.19 C 350.73 124.48 350.03 124.72 349.16 124.72 C 348.3 124.72 347.59 124.48 347.59 124.19 Z" fill="none" stroke="#222222" stroke-width="0.1" stroke-miterlimit="10" pointer-events="all"/><path d="M 347.59 122.1 C 347.59 122.39 348.3 122.62 349.16 122.62 C 350.03 122.62 350.73 122.39 350.73 122.1" fill="none" stroke="#222222" stroke-width="0.1" stroke-miterlimit="10" pointer-events="all"/></g><g><rect x="244.97" y="107.96" width="80.63" height="19.9" fill="#333333" stroke="none" pointer-events="all"/></g><g><rect x="310.94" y="110.58" width="4.19" height="14.66" fill="#2d2d2d" stroke="none" pointer-events="all"/></g><g><rect x="251.25" y="110.58" width="4.19" height="14.66" fill="#2d2d2d" stroke="none" pointer-events="all"/></g><g><rect x="255.44" y="110.58" width="55.5" height="2.09" fill="#222222" stroke="none" pointer-events="all"/></g><g><rect x="255.44" y="114.77" width="55.5" height="2.09" fill="#222222" stroke="none" pointer-events="all"/></g><g><rect x="255.44" y="118.96" width="55.5" height="2.09" fill="#222222" stroke="none" pointer-events="all"/></g><g><rect x="255.44" y="123.15" width="55.5" height="2.09" fill="#222222" stroke="none" pointer-events="all"/></g><g><rect x="272.2" y="110.58" width="2.09" height="14.66" fill="#2d2d2d" stroke="none" pointer-events="all"/></g><g><rect x="292.09" y="110.58" width="2.09" height="14.66" fill="#2d2d2d" stroke="none" pointer-events="all"/></g><g><rect x="255.44" y="121.05" width="55.5" height="2.09" fill="#333333" stroke="none" pointer-events="all"/></g><g><rect x="255.44" y="116.86" width="55.5" height="2.09" fill="#333333" stroke="none" pointer-events="all"/></g><g><rect x="255.44" y="112.67" width="55.5" height="2.09" fill="#333333" stroke="none" pointer-events="all"/></g><g><rect x="352.83" y="104.82" width="109.95" height="26.18" fill="#333333" stroke="none" pointer-events="all"/></g><g><rect x="355.97" y="107.96" width="101.57" height="19.9" fill="#222222" stroke="#222222" stroke-width="0.5" pointer-events="all"/></g><g><rect x="458.07" y="126.29" width="4.19" height="3.14" rx="0.47" ry="0.47" fill="#60a917" stroke="#222222" stroke-width="0.1" transform="rotate(90,460.16,127.86)" pointer-events="all"/></g><g><rect x="458.07" y="116.86" width="4.19" height="3.14" rx="0.47" ry="0.47" fill="#0050ef" stroke="#222222" stroke-width="0.1" transform="rotate(90,460.16,118.43)" pointer-events="all"/></g><g><rect x="431.37" y="111.1" width="8.38" height="13.61" rx="1.26" ry="1.26" fill="#0050ef" stroke="none" pointer-events="all"/></g><g><path d="M 438.7 111.1 Q 441.84 111.1 441.84 117.91 Q 441.84 124.72 438.7 124.72 Z" fill="#0050ef" stroke="none" pointer-events="all"/></g><g><path d="M 460.16 113.69 C 460.25 113.69 460.32 113.62 460.32 113.53 L 460.32 112.91 C 460.32 112.82 460.26 112.75 460.17 112.75 C 460.07 112.75 460.01 112.82 460.01 112.89 L 460.01 113.54 C 460.01 113.62 460.08 113.69 460.16 113.69 Z M 460.16 114.7 C 460.66 114.7 461.07 114.3 461.07 113.8 C 461.07 113.55 460.98 113.27 460.7 113.07 C 460.65 113.03 460.55 113.05 460.51 113.11 C 460.46 113.17 460.46 113.26 460.53 113.33 C 460.67 113.44 460.76 113.61 460.76 113.78 C 460.76 114.13 460.46 114.38 460.17 114.38 C 459.88 114.38 459.59 114.17 459.57 113.79 C 459.57 113.64 459.65 113.43 459.8 113.32 C 459.86 113.28 459.88 113.18 459.81 113.11 C 459.75 113.03 459.65 113.04 459.61 113.07 C 459.38 113.27 459.27 113.48 459.26 113.77 C 459.26 114.32 459.68 114.7 460.16 114.7 Z M 460.16 115.29 C 459.27 115.29 458.59 114.57 458.59 113.72 C 458.59 112.86 459.29 112.15 460.18 112.15 C 460.99 112.15 461.73 112.81 461.73 113.71 C 461.73 114.66 460.98 115.29 460.16 115.29 Z" fill="none" stroke="#222222" stroke-width="0.1" stroke-miterlimit="10" pointer-events="all"/></g><g><path d="M 458.59 124.19 L 458.59 122.1 C 458.59 121.81 459.29 121.58 460.16 121.58 C 461.03 121.58 461.73 121.81 461.73 122.1 L 461.73 124.19 C 461.73 124.48 461.03 124.72 460.16 124.72 C 459.29 124.72 458.59 124.48 458.59 124.19 Z" fill="none" stroke="#222222" stroke-width="0.1" stroke-miterlimit="10" pointer-events="all"/><path d="M 458.59 122.1 C 458.59 122.39 459.29 122.62 460.16 122.62 C 461.03 122.62 461.73 122.39 461.73 122.1" fill="none" stroke="#222222" stroke-width="0.1" stroke-miterlimit="10" pointer-events="all"/></g><g><rect x="355.97" y="107.96" width="80.63" height="19.9" fill="#333333" stroke="none" pointer-events="all"/></g><g><rect x="421.94" y="110.58" width="4.19" height="14.66" fill="#2d2d2d" stroke="none" pointer-events="all"/></g><g><rect x="362.25" y="110.58" width="4.19" height="14.66" fill="#2d2d2d" stroke="none" pointer-events="all"/></g><g><rect x="366.44" y="110.58" width="55.5" height="2.09" fill="#222222" stroke="none" pointer-events="all"/></g><g><rect x="366.44" y="114.77" width="55.5" height="2.09" fill="#222222" stroke="none" pointer-events="all"/></g><g><rect x="366.44" y="118.96" width="55.5" height="2.09" fill="#222222" stroke="none" pointer-events="all"/></g><g><rect x="366.44" y="123.15" width="55.5" height="2.09" fill="#222222" stroke="none" pointer-events="all"/></g><g><rect x="383.2" y="110.58" width="2.09" height="14.66" fill="#2d2d2d" stroke="none" pointer-events="all"/></g><g><rect x="403.09" y="110.58" width="2.09" height="14.66" fill="#2d2d2d" stroke="none" pointer-events="all"/></g><g><rect x="366.44" y="121.05" width="55.5" height="2.09" fill="#333333" stroke="none" pointer-events="all"/></g><g><rect x="366.44" y="116.86" width="55.5" height="2.09" fill="#333333" stroke="none" pointer-events="all"/></g><g><rect x="366.44" y="112.67" width="55.5" height="2.09" fill="#333333" stroke="none" pointer-events="all"/></g><g><rect x="19.83" y="76.55" width="109.95" height="26.18" fill="#333333" stroke="none" pointer-events="all"/></g><g><rect x="22.97" y="79.69" width="101.57" height="19.9" fill="#222222" stroke="#222222" stroke-width="0.5" pointer-events="all"/></g><g><rect x="125.07" y="98.01" width="4.19" height="3.14" rx="0.47" ry="0.47" fill="#60a917" stroke="#222222" stroke-width="0.1" transform="rotate(90,127.16,99.58)" pointer-events="all"/></g><g><rect x="125.07" y="88.59" width="4.19" height="3.14" rx="0.47" ry="0.47" fill="#0050ef" stroke="#222222" stroke-width="0.1" transform="rotate(90,127.16,90.16)" pointer-events="all"/></g><g><rect x="98.37" y="82.83" width="8.38" height="13.61" rx="1.26" ry="1.26" fill="#0050ef" stroke="none" pointer-events="all"/></g><g><path d="M 105.7 82.83 Q 108.84 82.83 108.84 89.64 Q 108.84 96.44 105.7 96.44 Z" fill="#0050ef" stroke="none" pointer-events="all"/></g><g><path d="M 127.16 85.41 C 127.25 85.41 127.32 85.35 127.32 85.26 L 127.32 84.63 C 127.32 84.55 127.26 84.47 127.17 84.47 C 127.08 84.47 127.01 84.55 127.01 84.62 L 127.01 85.26 C 127.01 85.35 127.08 85.41 127.16 85.41 Z M 127.16 86.42 C 127.66 86.42 128.07 86.02 128.07 85.53 C 128.07 85.28 127.98 85 127.71 84.79 C 127.66 84.75 127.55 84.77 127.51 84.84 C 127.46 84.9 127.46 84.99 127.53 85.05 C 127.67 85.16 127.76 85.33 127.76 85.51 C 127.76 85.85 127.47 86.11 127.17 86.11 C 126.88 86.11 126.59 85.9 126.57 85.52 C 126.57 85.37 126.65 85.15 126.81 85.05 C 126.86 85 126.88 84.91 126.82 84.83 C 126.75 84.75 126.66 84.77 126.61 84.8 C 126.38 84.99 126.27 85.2 126.26 85.5 C 126.26 86.05 126.68 86.42 127.16 86.42 Z M 127.16 87.02 C 126.27 87.02 125.59 86.29 125.59 85.44 C 125.59 84.59 126.3 83.88 127.18 83.88 C 127.99 83.88 128.73 84.53 128.73 85.44 C 128.73 86.38 127.98 87.02 127.16 87.02 Z" fill="none" stroke="#222222" stroke-width="0.1" stroke-miterlimit="10" pointer-events="all"/></g><g><path d="M 125.59 95.92 L 125.59 93.83 C 125.59 93.54 126.3 93.3 127.16 93.3 C 128.03 93.3 128.73 93.54 128.73 93.83 L 128.73 95.92 C 128.73 96.21 128.03 96.44 127.16 96.44 C 126.3 96.44 125.59 96.21 125.59 95.92 Z" fill="none" stroke="#222222" stroke-width="0.1" stroke-miterlimit="10" pointer-events="all"/><path d="M 125.59 93.83 C 125.59 94.11 126.3 94.35 127.16 94.35 C 128.03 94.35 128.73 94.11 128.73 93.83" fill="none" stroke="#222222" stroke-width="0.1" stroke-miterlimit="10" pointer-events="all"/></g><g><rect x="22.97" y="79.69" width="80.63" height="19.9" fill="#333333" stroke="none" pointer-events="all"/></g><g><rect x="88.94" y="82.31" width="4.19" height="14.66" fill="#2d2d2d" stroke="none" pointer-events="all"/></g><g><rect x="29.25" y="82.31" width="4.19" height="14.66" fill="#2d2d2d" stroke="none" pointer-events="all"/></g><g><rect x="33.44" y="82.31" width="55.5" height="2.09" fill="#222222" stroke="none" pointer-events="all"/></g><g><rect x="33.44" y="86.5" width="55.5" height="2.09" fill="#222222" stroke="none" pointer-events="all"/></g><g><rect x="33.44" y="90.68" width="55.5" height="2.09" fill="#222222" stroke="none" pointer-events="all"/></g><g><rect x="33.44" y="94.87" width="55.5" height="2.09" fill="#222222" stroke="none" pointer-events="all"/></g><g><rect x="50.2" y="82.31" width="2.09" height="14.66" fill="#2d2d2d" stroke="none" pointer-events="all"/></g><g><rect x="70.09" y="82.31" width="2.09" height="14.66" fill="#2d2d2d" stroke="none" pointer-events="all"/></g><g><rect x="33.44" y="92.78" width="55.5" height="2.09" fill="#333333" stroke="none" pointer-events="all"/></g><g><rect x="33.44" y="88.59" width="55.5" height="2.09" fill="#333333" stroke="none" pointer-events="all"/></g><g><rect x="33.44" y="84.4" width="55.5" height="2.09" fill="#333333" stroke="none" pointer-events="all"/></g><g><rect x="130.83" y="76.55" width="109.95" height="26.18" fill="#333333" stroke="none" pointer-events="all"/></g><g><rect x="133.97" y="79.69" width="101.57" height="19.9" fill="#222222" stroke="#222222" stroke-width="0.5" pointer-events="all"/></g><g><rect x="236.07" y="98.01" width="4.19" height="3.14" rx="0.47" ry="0.47" fill="#60a917" stroke="#222222" stroke-width="0.1" transform="rotate(90,238.16,99.58)" pointer-events="all"/></g><g><rect x="236.07" y="88.59" width="4.19" height="3.14" rx="0.47" ry="0.47" fill="#0050ef" stroke="#222222" stroke-width="0.1" transform="rotate(90,238.16,90.16)" pointer-events="all"/></g><g><rect x="209.37" y="82.83" width="8.38" height="13.61" rx="1.26" ry="1.26" fill="#0050ef" stroke="none" pointer-events="all"/></g><g><path d="M 216.7 82.83 Q 219.84 82.83 219.84 89.64 Q 219.84 96.44 216.7 96.44 Z" fill="#0050ef" stroke="none" pointer-events="all"/></g><g><path d="M 238.16 85.41 C 238.25 85.41 238.32 85.35 238.32 85.26 L 238.32 84.63 C 238.32 84.55 238.26 84.47 238.17 84.47 C 238.07 84.47 238.01 84.55 238.01 84.62 L 238.01 85.26 C 238.01 85.35 238.08 85.41 238.16 85.41 Z M 238.16 86.42 C 238.66 86.42 239.07 86.02 239.07 85.53 C 239.07 85.28 238.98 85 238.71 84.79 C 238.66 84.75 238.55 84.77 238.51 84.84 C 238.46 84.9 238.46 84.99 238.53 85.05 C 238.67 85.16 238.76 85.33 238.76 85.51 C 238.76 85.85 238.46 86.11 238.17 86.11 C 237.88 86.11 237.59 85.9 237.57 85.52 C 237.57 85.37 237.65 85.15 237.81 85.05 C 237.86 85 237.88 84.91 237.81 84.83 C 237.75 84.75 237.65 84.77 237.61 84.8 C 237.38 84.99 237.27 85.2 237.26 85.5 C 237.26 86.05 237.68 86.42 238.16 86.42 Z M 238.16 87.02 C 237.27 87.02 236.59 86.29 236.59 85.44 C 236.59 84.59 237.3 83.88 238.18 83.88 C 238.99 83.88 239.73 84.53 239.73 85.44 C 239.73 86.38 238.98 87.02 238.16 87.02 Z" fill="none" stroke="#222222" stroke-width="0.1" stroke-miterlimit="10" pointer-events="all"/></g><g><path d="M 236.59 95.92 L 236.59 93.83 C 236.59 93.54 237.3 93.3 238.16 93.3 C 239.03 93.3 239.73 93.54 239.73 93.83 L 239.73 95.92 C 239.73 96.21 239.03 96.44 238.16 96.44 C 237.3 96.44 236.59 96.21 236.59 95.92 Z" fill="none" stroke="#222222" stroke-width="0.1" stroke-miterlimit="10" pointer-events="all"/><path d="M 236.59 93.83 C 236.59 94.11 237.3 94.35 238.16 94.35 C 239.03 94.35 239.73 94.11 239.73 93.83" fill="none" stroke="#222222" stroke-width="0.1" stroke-miterlimit="10" pointer-events="all"/></g><g><rect x="133.97" y="79.69" width="80.63" height="19.9" fill="#333333" stroke="none" pointer-events="all"/></g><g><rect x="199.94" y="82.31" width="4.19" height="14.66" fill="#2d2d2d" stroke="none" pointer-events="all"/></g><g><rect x="140.25" y="82.31" width="4.19" height="14.66" fill="#2d2d2d" stroke="none" pointer-events="all"/></g><g><rect x="144.44" y="82.31" width="55.5" height="2.09" fill="#222222" stroke="none" pointer-events="all"/></g><g><rect x="144.44" y="86.5" width="55.5" height="2.09" fill="#222222" stroke="none" pointer-events="all"/></g><g><rect x="144.44" y="90.68" width="55.5" height="2.09" fill="#222222" stroke="none" pointer-events="all"/></g><g><rect x="144.44" y="94.87" width="55.5" height="2.09" fill="#222222" stroke="none" pointer-events="all"/></g><g><rect x="161.2" y="82.31" width="2.09" height="14.66" fill="#2d2d2d" stroke="none" pointer-events="all"/></g><g><rect x="181.09" y="82.31" width="2.09" height="14.66" fill="#2d2d2d" stroke="none" pointer-events="all"/></g><g><rect x="144.44" y="92.78" width="55.5" height="2.09" fill="#333333" stroke="none" pointer-events="all"/></g><g><rect x="144.44" y="88.59" width="55.5" height="2.09" fill="#333333" stroke="none" pointer-events="all"/></g><g><rect x="144.44" y="84.4" width="55.5" height="2.09" fill="#333333" stroke="none" pointer-events="all"/></g><g><rect x="241.83" y="76.55" width="109.95" height="26.18" fill="#333333" stroke="none" pointer-events="all"/></g><g><rect x="244.97" y="79.69" width="101.57" height="19.9" fill="#222222" stroke="#222222" stroke-width="0.5" pointer-events="all"/></g><g><rect x="347.07" y="98.01" width="4.19" height="3.14" rx="0.47" ry="0.47" fill="#60a917" stroke="#222222" stroke-width="0.1" transform="rotate(90,349.16,99.58)" pointer-events="all"/></g><g><rect x="347.07" y="88.59" width="4.19" height="3.14" rx="0.47" ry="0.47" fill="#0050ef" stroke="#222222" stroke-width="0.1" transform="rotate(90,349.16,90.16)" pointer-events="all"/></g><g><rect x="320.37" y="82.83" width="8.38" height="13.61" rx="1.26" ry="1.26" fill="#0050ef" stroke="none" pointer-events="all"/></g><g><path d="M 327.7 82.83 Q 330.84 82.83 330.84 89.64 Q 330.84 96.44 327.7 96.44 Z" fill="#0050ef" stroke="none" pointer-events="all"/></g><g><path d="M 349.16 85.41 C 349.25 85.41 349.32 85.35 349.32 85.26 L 349.32 84.63 C 349.32 84.55 349.26 84.47 349.17 84.47 C 349.07 84.47 349.01 84.55 349.01 84.62 L 349.01 85.26 C 349.01 85.35 349.08 85.41 349.16 85.41 Z M 349.16 86.42 C 349.66 86.42 350.07 86.02 350.07 85.53 C 350.07 85.28 349.98 85 349.71 84.79 C 349.66 84.75 349.55 84.77 349.51 84.84 C 349.46 84.9 349.46 84.99 349.53 85.05 C 349.67 85.16 349.76 85.33 349.76 85.51 C 349.76 85.85 349.46 86.11 349.17 86.11 C 348.88 86.11 348.59 85.9 348.57 85.52 C 348.57 85.37 348.65 85.15 348.8 85.05 C 348.86 85 348.88 84.91 348.81 84.83 C 348.75 84.75 348.65 84.77 348.61 84.8 C 348.38 84.99 348.27 85.2 348.26 85.5 C 348.26 86.05 348.68 86.42 349.16 86.42 Z M 349.16 87.02 C 348.27 87.02 347.59 86.29 347.59 85.44 C 347.59 84.59 348.29 83.88 349.18 83.88 C 349.99 83.88 350.73 84.53 350.73 85.44 C 350.73 86.38 349.98 87.02 349.16 87.02 Z" fill="none" stroke="#222222" stroke-width="0.1" stroke-miterlimit="10" pointer-events="all"/></g><g><path d="M 347.59 95.92 L 347.59 93.83 C 347.59 93.54 348.3 93.3 349.16 93.3 C 350.03 93.3 350.73 93.54 350.73 93.83 L 350.73 95.92 C 350.73 96.21 350.03 96.44 349.16 96.44 C 348.3 96.44 347.59 96.21 347.59 95.92 Z" fill="none" stroke="#222222" stroke-width="0.1" stroke-miterlimit="10" pointer-events="all"/><path d="M 347.59 93.83 C 347.59 94.11 348.3 94.35 349.16 94.35 C 350.03 94.35 350.73 94.11 350.73 93.83" fill="none" stroke="#222222" stroke-width="0.1" stroke-miterlimit="10" pointer-events="all"/></g><g><rect x="244.97" y="79.69" width="80.63" height="19.9" fill="#333333" stroke="none" pointer-events="all"/></g><g><rect x="310.94" y="82.31" width="4.19" height="14.66" fill="#2d2d2d" stroke="none" pointer-events="all"/></g><g><rect x="251.25" y="82.31" width="4.19" height="14.66" fill="#2d2d2d" stroke="none" pointer-events="all"/></g><g><rect x="255.44" y="82.31" width="55.5" height="2.09" fill="#222222" stroke="none" pointer-events="all"/></g><g><rect x="255.44" y="86.5" width="55.5" height="2.09" fill="#222222" stroke="none" pointer-events="all"/></g><g><rect x="255.44" y="90.68" width="55.5" height="2.09" fill="#222222" stroke="none" pointer-events="all"/></g><g><rect x="255.44" y="94.87" width="55.5" height="2.09" fill="#222222" stroke="none" pointer-events="all"/></g><g><rect x="272.2" y="82.31" width="2.09" height="14.66" fill="#2d2d2d" stroke="none" pointer-events="all"/></g><g><rect x="292.09" y="82.31" width="2.09" height="14.66" fill="#2d2d2d" stroke="none" pointer-events="all"/></g><g><rect x="255.44" y="92.78" width="55.5" height="2.09" fill="#333333" stroke="none" pointer-events="all"/></g><g><rect x="255.44" y="88.59" width="55.5" height="2.09" fill="#333333" stroke="none" pointer-events="all"/></g><g><rect x="255.44" y="84.4" width="55.5" height="2.09" fill="#333333" stroke="none" pointer-events="all"/></g><g><rect x="352.83" y="76.55" width="109.95" height="26.18" fill="#333333" stroke="none" pointer-events="all"/></g><g><rect x="355.97" y="79.69" width="101.57" height="19.9" fill="#222222" stroke="#222222" stroke-width="0.5" pointer-events="all"/></g><g><rect x="458.07" y="98.01" width="4.19" height="3.14" rx="0.47" ry="0.47" fill="#60a917" stroke="#222222" stroke-width="0.1" transform="rotate(90,460.16,99.58)" pointer-events="all"/></g><g><rect x="458.07" y="88.59" width="4.19" height="3.14" rx="0.47" ry="0.47" fill="#0050ef" stroke="#222222" stroke-width="0.1" transform="rotate(90,460.16,90.16)" pointer-events="all"/></g><g><rect x="431.37" y="82.83" width="8.38" height="13.61" rx="1.26" ry="1.26" fill="#0050ef" stroke="none" pointer-events="all"/></g><g><path d="M 438.7 82.83 Q 441.84 82.83 441.84 89.64 Q 441.84 96.44 438.7 96.44 Z" fill="#0050ef" stroke="none" pointer-events="all"/></g><g><path d="M 460.16 85.41 C 460.25 85.41 460.32 85.35 460.32 85.26 L 460.32 84.63 C 460.32 84.55 460.26 84.47 460.17 84.47 C 460.07 84.47 460.01 84.55 460.01 84.62 L 460.01 85.26 C 460.01 85.35 460.08 85.41 460.16 85.41 Z M 460.16 86.42 C 460.66 86.42 461.07 86.02 461.07 85.53 C 461.07 85.28 460.98 85 460.7 84.79 C 460.65 84.75 460.55 84.77 460.51 84.84 C 460.46 84.9 460.46 84.99 460.53 85.05 C 460.67 85.16 460.76 85.33 460.76 85.51 C 460.76 85.85 460.46 86.11 460.17 86.11 C 459.88 86.11 459.59 85.9 459.57 85.52 C 459.57 85.37 459.65 85.15 459.8 85.05 C 459.86 85 459.88 84.91 459.81 84.83 C 459.75 84.75 459.65 84.77 459.61 84.8 C 459.38 84.99 459.27 85.2 459.26 85.5 C 459.26 86.05 459.68 86.42 460.16 86.42 Z M 460.16 87.02 C 459.27 87.02 458.59 86.29 458.59 85.44 C 458.59 84.59 459.29 83.88 460.18 83.88 C 460.99 83.88 461.73 84.53 461.73 85.44 C 461.73 86.38 460.98 87.02 460.16 87.02 Z" fill="none" stroke="#222222" stroke-width="0.1" stroke-miterlimit="10" pointer-events="all"/></g><g><path d="M 458.59 95.92 L 458.59 93.83 C 458.59 93.54 459.29 93.3 460.16 93.3 C 461.03 93.3 461.73 93.54 461.73 93.83 L 461.73 95.92 C 461.73 96.21 461.03 96.44 460.16 96.44 C 459.29 96.44 458.59 96.21 458.59 95.92 Z" fill="none" stroke="#222222" stroke-width="0.1" stroke-miterlimit="10" pointer-events="all"/><path d="M 458.59 93.83 C 458.59 94.11 459.29 94.35 460.16 94.35 C 461.03 94.35 461.73 94.11 461.73 93.83" fill="none" stroke="#222222" stroke-width="0.1" stroke-miterlimit="10" pointer-events="all"/></g><g><rect x="355.97" y="79.69" width="80.63" height="19.9" fill="#333333" stroke="none" pointer-events="all"/></g><g><rect x="421.94" y="82.31" width="4.19" height="14.66" fill="#2d2d2d" stroke="none" pointer-events="all"/></g><g><rect x="362.25" y="82.31" width="4.19" height="14.66" fill="#2d2d2d" stroke="none" pointer-events="all"/></g><g><rect x="366.44" y="82.31" width="55.5" height="2.09" fill="#222222" stroke="none" pointer-events="all"/></g><g><rect x="366.44" y="86.5" width="55.5" height="2.09" fill="#222222" stroke="none" pointer-events="all"/></g><g><rect x="366.44" y="90.68" width="55.5" height="2.09" fill="#222222" stroke="none" pointer-events="all"/></g><g><rect x="366.44" y="94.87" width="55.5" height="2.09" fill="#222222" stroke="none" pointer-events="all"/></g><g><rect x="383.2" y="82.31" width="2.09" height="14.66" fill="#2d2d2d" stroke="none" pointer-events="all"/></g><g><rect x="403.09" y="82.31" width="2.09" height="14.66" fill="#2d2d2d" stroke="none" pointer-events="all"/></g><g><rect x="366.44" y="92.78" width="55.5" height="2.09" fill="#333333" stroke="none" pointer-events="all"/></g><g><rect x="366.44" y="88.59" width="55.5" height="2.09" fill="#333333" stroke="none" pointer-events="all"/></g><g><rect x="366.44" y="84.4" width="55.5" height="2.09" fill="#333333" stroke="none" pointer-events="all"/></g><g><rect x="19.83" y="48.27" width="109.95" height="26.18" fill="#333333" stroke="none" pointer-events="all"/></g><g><rect x="22.97" y="51.42" width="101.57" height="19.9" fill="#222222" stroke="#222222" stroke-width="0.5" pointer-events="all"/></g><g><rect x="125.07" y="69.74" width="4.19" height="3.14" rx="0.47" ry="0.47" fill="#60a917" stroke="#222222" stroke-width="0.1" transform="rotate(90,127.16,71.31)" pointer-events="all"/></g><g><rect x="125.07" y="60.32" width="4.19" height="3.14" rx="0.47" ry="0.47" fill="#0050ef" stroke="#222222" stroke-width="0.1" transform="rotate(90,127.16,61.89)" pointer-events="all"/></g><g><rect x="98.37" y="54.56" width="8.38" height="13.61" rx="1.26" ry="1.26" fill="#0050ef" stroke="none" pointer-events="all"/></g><g><path d="M 105.7 54.56 Q 108.84 54.56 108.84 61.36 Q 108.84 68.17 105.7 68.17 Z" fill="#0050ef" stroke="none" pointer-events="all"/></g><g><path d="M 127.16 57.14 C 127.25 57.14 127.32 57.07 127.32 56.99 L 127.32 56.36 C 127.32 56.28 127.26 56.2 127.17 56.2 C 127.08 56.2 127.01 56.27 127.01 56.34 L 127.01 56.99 C 127.01 57.07 127.08 57.14 127.16 57.14 Z M 127.16 58.15 C 127.66 58.15 128.07 57.75 128.07 57.25 C 128.07 57 127.98 56.72 127.71 56.52 C 127.66 56.48 127.55 56.5 127.51 56.56 C 127.46 56.63 127.46 56.72 127.53 56.78 C 127.67 56.89 127.76 57.06 127.76 57.24 C 127.76 57.58 127.47 57.83 127.17 57.83 C 126.88 57.83 126.59 57.62 126.57 57.25 C 126.57 57.09 126.65 56.88 126.81 56.77 C 126.86 56.73 126.88 56.63 126.82 56.56 C 126.75 56.48 126.66 56.49 126.61 56.53 C 126.38 56.72 126.27 56.93 126.26 57.23 C 126.26 57.78 126.68 58.15 127.16 58.15 Z M 127.16 58.75 C 126.27 58.75 125.59 58.02 125.59 57.17 C 125.59 56.31 126.3 55.6 127.18 55.6 C 127.99 55.6 128.73 56.26 128.73 57.17 C 128.73 58.11 127.98 58.75 127.16 58.75 Z" fill="none" stroke="#222222" stroke-width="0.1" stroke-miterlimit="10" pointer-events="all"/></g><g><path d="M 125.59 67.65 L 125.59 65.55 C 125.59 65.26 126.3 65.03 127.16 65.03 C 128.03 65.03 128.73 65.26 128.73 65.55 L 128.73 67.65 C 128.73 67.94 128.03 68.17 127.16 68.17 C 126.3 68.17 125.59 67.94 125.59 67.65 Z" fill="none" stroke="#222222" stroke-width="0.1" stroke-miterlimit="10" pointer-events="all"/><path d="M 125.59 65.55 C 125.59 65.84 126.3 66.08 127.16 66.08 C 128.03 66.08 128.73 65.84 128.73 65.55" fill="none" stroke="#222222" stroke-width="0.1" stroke-miterlimit="10" pointer-events="all"/></g><g><rect x="22.97" y="51.42" width="80.63" height="19.9" fill="#333333" stroke="none" pointer-events="all"/></g><g><rect x="88.94" y="54.03" width="4.19" height="14.66" fill="#2d2d2d" stroke="none" pointer-events="all"/></g><g><rect x="29.25" y="54.03" width="4.19" height="14.66" fill="#2d2d2d" stroke="none" pointer-events="all"/></g><g><rect x="33.44" y="54.03" width="55.5" height="2.09" fill="#222222" stroke="none" pointer-events="all"/></g><g><rect x="33.44" y="58.22" width="55.5" height="2.09" fill="#222222" stroke="none" pointer-events="all"/></g><g><rect x="33.44" y="62.41" width="55.5" height="2.09" fill="#222222" stroke="none" pointer-events="all"/></g><g><rect x="33.44" y="66.6" width="55.5" height="2.09" fill="#222222" stroke="none" pointer-events="all"/></g><g><rect x="50.2" y="54.03" width="2.09" height="14.66" fill="#2d2d2d" stroke="none" pointer-events="all"/></g><g><rect x="70.09" y="54.03" width="2.09" height="14.66" fill="#2d2d2d" stroke="none" pointer-events="all"/></g><g><rect x="33.44" y="64.5" width="55.5" height="2.09" fill="#333333" stroke="none" pointer-events="all"/></g><g><rect x="33.44" y="60.32" width="55.5" height="2.09" fill="#333333" stroke="none" pointer-events="all"/></g><g><rect x="33.44" y="56.13" width="55.5" height="2.09" fill="#333333" stroke="none" pointer-events="all"/></g><g><rect x="130.83" y="48.27" width="109.95" height="26.18" fill="#333333" stroke="none" pointer-events="all"/></g><g><rect x="133.97" y="51.42" width="101.57" height="19.9" fill="#222222" stroke="#222222" stroke-width="0.5" pointer-events="all"/></g><g><rect x="236.07" y="69.74" width="4.19" height="3.14" rx="0.47" ry="0.47" fill="#60a917" stroke="#222222" stroke-width="0.1" transform="rotate(90,238.16,71.31)" pointer-events="all"/></g><g><rect x="236.07" y="60.32" width="4.19" height="3.14" rx="0.47" ry="0.47" fill="#0050ef" stroke="#222222" stroke-width="0.1" transform="rotate(90,238.16,61.89)" pointer-events="all"/></g><g><rect x="209.37" y="54.56" width="8.38" height="13.61" rx="1.26" ry="1.26" fill="#0050ef" stroke="none" pointer-events="all"/></g><g><path d="M 216.7 54.56 Q 219.84 54.56 219.84 61.36 Q 219.84 68.17 216.7 68.17 Z" fill="#0050ef" stroke="none" pointer-events="all"/></g><g><path d="M 238.16 57.14 C 238.25 57.14 238.32 57.07 238.32 56.99 L 238.32 56.36 C 238.32 56.28 238.26 56.2 238.17 56.2 C 238.07 56.2 238.01 56.27 238.01 56.34 L 238.01 56.99 C 238.01 57.07 238.08 57.14 238.16 57.14 Z M 238.16 58.15 C 238.66 58.15 239.07 57.75 239.07 57.25 C 239.07 57 238.98 56.72 238.71 56.52 C 238.66 56.48 238.55 56.5 238.51 56.56 C 238.46 56.63 238.46 56.72 238.53 56.78 C 238.67 56.89 238.76 57.06 238.76 57.24 C 238.76 57.58 238.46 57.83 238.17 57.83 C 237.88 57.83 237.59 57.62 237.57 57.25 C 237.57 57.09 237.65 56.88 237.81 56.77 C 237.86 56.73 237.88 56.63 237.81 56.56 C 237.75 56.48 237.65 56.49 237.61 56.53 C 237.38 56.72 237.27 56.93 237.26 57.23 C 237.26 57.78 237.68 58.15 238.16 58.15 Z M 238.16 58.75 C 237.27 58.75 236.59 58.02 236.59 57.17 C 236.59 56.31 237.3 55.6 238.18 55.6 C 238.99 55.6 239.73 56.26 239.73 57.17 C 239.73 58.11 238.98 58.75 238.16 58.75 Z" fill="none" stroke="#222222" stroke-width="0.1" stroke-miterlimit="10" pointer-events="all"/></g><g><path d="M 236.59 67.65 L 236.59 65.55 C 236.59 65.26 237.3 65.03 238.16 65.03 C 239.03 65.03 239.73 65.26 239.73 65.55 L 239.73 67.65 C 239.73 67.94 239.03 68.17 238.16 68.17 C 237.3 68.17 236.59 67.94 236.59 67.65 Z" fill="none" stroke="#222222" stroke-width="0.1" stroke-miterlimit="10" pointer-events="all"/><path d="M 236.59 65.55 C 236.59 65.84 237.3 66.08 238.16 66.08 C 239.03 66.08 239.73 65.84 239.73 65.55" fill="none" stroke="#222222" stroke-width="0.1" stroke-miterlimit="10" pointer-events="all"/></g><g><rect x="133.97" y="51.42" width="80.63" height="19.9" fill="#333333" stroke="none" pointer-events="all"/></g><g><rect x="199.94" y="54.03" width="4.19" height="14.66" fill="#2d2d2d" stroke="none" pointer-events="all"/></g><g><rect x="140.25" y="54.03" width="4.19" height="14.66" fill="#2d2d2d" stroke="none" pointer-events="all"/></g><g><rect x="144.44" y="54.03" width="55.5" height="2.09" fill="#222222" stroke="none" pointer-events="all"/></g><g><rect x="144.44" y="58.22" width="55.5" height="2.09" fill="#222222" stroke="none" pointer-events="all"/></g><g><rect x="144.44" y="62.41" width="55.5" height="2.09" fill="#222222" stroke="none" pointer-events="all"/></g><g><rect x="144.44" y="66.6" width="55.5" height="2.09" fill="#222222" stroke="none" pointer-events="all"/></g><g><rect x="161.2" y="54.03" width="2.09" height="14.66" fill="#2d2d2d" stroke="none" pointer-events="all"/></g><g><rect x="181.09" y="54.03" width="2.09" height="14.66" fill="#2d2d2d" stroke="none" pointer-events="all"/></g><g><rect x="144.44" y="64.5" width="55.5" height="2.09" fill="#333333" stroke="none" pointer-events="all"/></g><g><rect x="144.44" y="60.32" width="55.5" height="2.09" fill="#333333" stroke="none" pointer-events="all"/></g><g><rect x="144.44" y="56.13" width="55.5" height="2.09" fill="#333333" stroke="none" pointer-events="all"/></g><g><rect x="241.83" y="48.27" width="109.95" height="26.18" fill="#333333" stroke="none" pointer-events="all"/></g><g><rect x="244.97" y="51.42" width="101.57" height="19.9" fill="#222222" stroke="#222222" stroke-width="0.5" pointer-events="all"/></g><g><rect x="347.07" y="69.74" width="4.19" height="3.14" rx="0.47" ry="0.47" fill="#60a917" stroke="#222222" stroke-width="0.1" transform="rotate(90,349.16,71.31)" pointer-events="all"/></g><g><rect x="347.07" y="60.32" width="4.19" height="3.14" rx="0.47" ry="0.47" fill="#0050ef" stroke="#222222" stroke-width="0.1" transform="rotate(90,349.16,61.89)" pointer-events="all"/></g><g><rect x="320.37" y="54.56" width="8.38" height="13.61" rx="1.26" ry="1.26" fill="#0050ef" stroke="none" pointer-events="all"/></g><g><path d="M 327.7 54.56 Q 330.84 54.56 330.84 61.36 Q 330.84 68.17 327.7 68.17 Z" fill="#0050ef" stroke="none" pointer-events="all"/></g><g><path d="M 349.16 57.14 C 349.25 57.14 349.32 57.07 349.32 56.99 L 349.32 56.36 C 349.32 56.28 349.26 56.2 349.17 56.2 C 349.07 56.2 349.01 56.27 349.01 56.34 L 349.01 56.99 C 349.01 57.07 349.08 57.14 349.16 57.14 Z M 349.16 58.15 C 349.66 58.15 350.07 57.75 350.07 57.25 C 350.07 57 349.98 56.72 349.71 56.52 C 349.66 56.48 349.55 56.5 349.51 56.56 C 349.46 56.63 349.46 56.72 349.53 56.78 C 349.67 56.89 349.76 57.06 349.76 57.24 C 349.76 57.58 349.46 57.83 349.17 57.83 C 348.88 57.83 348.59 57.62 348.57 57.25 C 348.57 57.09 348.65 56.88 348.8 56.77 C 348.86 56.73 348.88 56.63 348.81 56.56 C 348.75 56.48 348.65 56.49 348.61 56.53 C 348.38 56.72 348.27 56.93 348.26 57.23 C 348.26 57.78 348.68 58.15 349.16 58.15 Z M 349.16 58.75 C 348.27 58.75 347.59 58.02 347.59 57.17 C 347.59 56.31 348.29 55.6 349.18 55.6 C 349.99 55.6 350.73 56.26 350.73 57.17 C 350.73 58.11 349.98 58.75 349.16 58.75 Z" fill="none" stroke="#222222" stroke-width="0.1" stroke-miterlimit="10" pointer-events="all"/></g><g><path d="M 347.59 67.65 L 347.59 65.55 C 347.59 65.26 348.3 65.03 349.16 65.03 C 350.03 65.03 350.73 65.26 350.73 65.55 L 350.73 67.65 C 350.73 67.94 350.03 68.17 349.16 68.17 C 348.3 68.17 347.59 67.94 347.59 67.65 Z" fill="none" stroke="#222222" stroke-width="0.1" stroke-miterlimit="10" pointer-events="all"/><path d="M 347.59 65.55 C 347.59 65.84 348.3 66.08 349.16 66.08 C 350.03 66.08 350.73 65.84 350.73 65.55" fill="none" stroke="#222222" stroke-width="0.1" stroke-miterlimit="10" pointer-events="all"/></g><g><rect x="244.97" y="51.42" width="80.63" height="19.9" fill="#333333" stroke="none" pointer-events="all"/></g><g><rect x="310.94" y="54.03" width="4.19" height="14.66" fill="#2d2d2d" stroke="none" pointer-events="all"/></g><g><rect x="251.25" y="54.03" width="4.19" height="14.66" fill="#2d2d2d" stroke="none" pointer-events="all"/></g><g><rect x="255.44" y="54.03" width="55.5" height="2.09" fill="#222222" stroke="none" pointer-events="all"/></g><g><rect x="255.44" y="58.22" width="55.5" height="2.09" fill="#222222" stroke="none" pointer-events="all"/></g><g><rect x="255.44" y="62.41" width="55.5" height="2.09" fill="#222222" stroke="none" pointer-events="all"/></g><g><rect x="255.44" y="66.6" width="55.5" height="2.09" fill="#222222" stroke="none" pointer-events="all"/></g><g><rect x="272.2" y="54.03" width="2.09" height="14.66" fill="#2d2d2d" stroke="none" pointer-events="all"/></g><g><rect x="292.09" y="54.03" width="2.09" height="14.66" fill="#2d2d2d" stroke="none" pointer-events="all"/></g><g><rect x="255.44" y="64.5" width="55.5" height="2.09" fill="#333333" stroke="none" pointer-events="all"/></g><g><rect x="255.44" y="60.32" width="55.5" height="2.09" fill="#333333" stroke="none" pointer-events="all"/></g><g><rect x="255.44" y="56.13" width="55.5" height="2.09" fill="#333333" stroke="none" pointer-events="all"/></g><g><rect x="352.83" y="48.27" width="109.95" height="26.18" fill="#333333" stroke="none" pointer-events="all"/></g><g><rect x="355.97" y="51.42" width="101.57" height="19.9" fill="#222222" stroke="#222222" stroke-width="0.5" pointer-events="all"/></g><g><rect x="458.07" y="69.74" width="4.19" height="3.14" rx="0.47" ry="0.47" fill="#60a917" stroke="#222222" stroke-width="0.1" transform="rotate(90,460.16,71.31)" pointer-events="all"/></g><g><rect x="458.07" y="60.32" width="4.19" height="3.14" rx="0.47" ry="0.47" fill="#0050ef" stroke="#222222" stroke-width="0.1" transform="rotate(90,460.16,61.89)" pointer-events="all"/></g><g><rect x="431.37" y="54.56" width="8.38" height="13.61" rx="1.26" ry="1.26" fill="#0050ef" stroke="none" pointer-events="all"/></g><g><path d="M 438.7 54.56 Q 441.84 54.56 441.84 61.36 Q 441.84 68.17 438.7 68.17 Z" fill="#0050ef" stroke="none" pointer-events="all"/></g><g><path d="M 460.16 57.14 C 460.25 57.14 460.32 57.07 460.32 56.99 L 460.32 56.36 C 460.32 56.28 460.26 56.2 460.17 56.2 C 460.07 56.2 460.01 56.27 460.01 56.34 L 460.01 56.99 C 460.01 57.07 460.08 57.14 460.16 57.14 Z M 460.16 58.15 C 460.66 58.15 461.07 57.75 461.07 57.25 C 461.07 57 460.98 56.72 460.7 56.52 C 460.65 56.48 460.55 56.5 460.51 56.56 C 460.46 56.63 460.46 56.72 460.53 56.78 C 460.67 56.89 460.76 57.06 460.76 57.24 C 460.76 57.58 460.46 57.83 460.17 57.83 C 459.88 57.83 459.59 57.62 459.57 57.25 C 459.57 57.09 459.65 56.88 459.8 56.77 C 459.86 56.73 459.88 56.63 459.81 56.56 C 459.75 56.48 459.65 56.49 459.61 56.53 C 459.38 56.72 459.27 56.93 459.26 57.23 C 459.26 57.78 459.68 58.15 460.16 58.15 Z M 460.16 58.75 C 459.27 58.75 458.59 58.02 458.59 57.17 C 458.59 56.31 459.29 55.6 460.18 55.6 C 460.99 55.6 461.73 56.26 461.73 57.17 C 461.73 58.11 460.98 58.75 460.16 58.75 Z" fill="none" stroke="#222222" stroke-width="0.1" stroke-miterlimit="10" pointer-events="all"/></g><g><path d="M 458.59 67.65 L 458.59 65.55 C 458.59 65.26 459.29 65.03 460.16 65.03 C 461.03 65.03 461.73 65.26 461.73 65.55 L 461.73 67.65 C 461.73 67.94 461.03 68.17 460.16 68.17 C 459.29 68.17 458.59 67.94 458.59 67.65 Z" fill="none" stroke="#222222" stroke-width="0.1" stroke-miterlimit="10" pointer-events="all"/><path d="M 458.59 65.55 C 458.59 65.84 459.29 66.08 460.16 66.08 C 461.03 66.08 461.73 65.84 461.73 65.55" fill="none" stroke="#222222" stroke-width="0.1" stroke-miterlimit="10" pointer-events="all"/></g><g><rect x="355.97" y="51.42" width="80.63" height="19.9" fill="#333333" stroke="none" pointer-events="all"/></g><g><rect x="421.94" y="54.03" width="4.19" height="14.66" fill="#2d2d2d" stroke="none" pointer-events="all"/></g><g><rect x="362.25" y="54.03" width="4.19" height="14.66" fill="#2d2d2d" stroke="none" pointer-events="all"/></g><g><rect x="366.44" y="54.03" width="55.5" height="2.09" fill="#222222" stroke="none" pointer-events="all"/></g><g><rect x="366.44" y="58.22" width="55.5" height="2.09" fill="#222222" stroke="none" pointer-events="all"/></g><g><rect x="366.44" y="62.41" width="55.5" height="2.09" fill="#222222" stroke="none" pointer-events="all"/></g><g><rect x="366.44" y="66.6" width="55.5" height="2.09" fill="#222222" stroke="none" pointer-events="all"/></g><g><rect x="383.2" y="54.03" width="2.09" height="14.66" fill="#2d2d2d" stroke="none" pointer-events="all"/></g><g><rect x="403.09" y="54.03" width="2.09" height="14.66" fill="#2d2d2d" stroke="none" pointer-events="all"/></g><g><rect x="366.44" y="64.5" width="55.5" height="2.09" fill="#333333" stroke="none" pointer-events="all"/></g><g><rect x="366.44" y="60.32" width="55.5" height="2.09" fill="#333333" stroke="none" pointer-events="all"/></g><g><rect x="366.44" y="56.13" width="55.5" height="2.09" fill="#333333" stroke="none" pointer-events="all"/></g><g><rect x="19.83" y="20" width="109.95" height="26.18" fill="#333333" stroke="none" pointer-events="all"/></g><g><rect x="22.97" y="23.14" width="101.57" height="19.9" fill="#222222" stroke="#222222" stroke-width="0.5" pointer-events="all"/></g><g><rect x="125.07" y="41.47" width="4.19" height="3.14" rx="0.47" ry="0.47" fill="#60a917" stroke="#222222" stroke-width="0.1" transform="rotate(90,127.16,43.04)" pointer-events="all"/></g><g><rect x="125.07" y="32.04" width="4.19" height="3.14" rx="0.47" ry="0.47" fill="#0050ef" stroke="#222222" stroke-width="0.1" transform="rotate(90,127.16,33.61)" pointer-events="all"/></g><g><rect x="98.37" y="26.28" width="8.38" height="13.61" rx="1.26" ry="1.26" fill="#0050ef" stroke="none" pointer-events="all"/></g><g><path d="M 105.7 26.28 Q 108.84 26.28 108.84 33.09 Q 108.84 39.9 105.7 39.9 Z" fill="#0050ef" stroke="none" pointer-events="all"/></g><g><path d="M 127.16 28.87 C 127.25 28.87 127.32 28.8 127.32 28.71 L 127.32 28.08 C 127.32 28 127.26 27.93 127.17 27.93 C 127.08 27.93 127.01 28 127.01 28.07 L 127.01 28.71 C 127.01 28.8 127.08 28.87 127.16 28.87 Z M 127.16 29.88 C 127.66 29.88 128.07 29.48 128.07 28.98 C 128.07 28.73 127.98 28.45 127.71 28.25 C 127.66 28.21 127.55 28.23 127.51 28.29 C 127.46 28.35 127.46 28.44 127.53 28.51 C 127.67 28.62 127.76 28.79 127.76 28.96 C 127.76 29.31 127.47 29.56 127.17 29.56 C 126.88 29.56 126.59 29.35 126.57 28.97 C 126.57 28.82 126.65 28.61 126.81 28.5 C 126.86 28.46 126.88 28.36 126.82 28.28 C 126.75 28.21 126.66 28.22 126.61 28.25 C 126.38 28.44 126.27 28.66 126.26 28.95 C 126.26 29.5 126.68 29.88 127.16 29.88 Z M 127.16 30.47 C 126.27 30.47 125.59 29.75 125.59 28.89 C 125.59 28.04 126.3 27.33 127.18 27.33 C 127.99 27.33 128.73 27.99 128.73 28.89 C 128.73 29.84 127.98 30.47 127.16 30.47 Z" fill="none" stroke="#222222" stroke-width="0.1" stroke-miterlimit="10" pointer-events="all"/></g><g><path d="M 125.59 39.37 L 125.59 37.28 C 125.59 36.99 126.3 36.75 127.16 36.75 C 128.03 36.75 128.73 36.99 128.73 37.28 L 128.73 39.37 C 128.73 39.66 128.03 39.9 127.16 39.9 C 126.3 39.9 125.59 39.66 125.59 39.37 Z" fill="none" stroke="#222222" stroke-width="0.1" stroke-miterlimit="10" pointer-events="all"/><path d="M 125.59 37.28 C 125.59 37.57 126.3 37.8 127.16 37.8 C 128.03 37.8 128.73 37.57 128.73 37.28" fill="none" stroke="#222222" stroke-width="0.1" stroke-miterlimit="10" pointer-events="all"/></g><g><rect x="22.97" y="23.14" width="80.63" height="19.9" fill="#333333" stroke="none" pointer-events="all"/></g><g><rect x="88.94" y="25.76" width="4.19" height="14.66" fill="#2d2d2d" stroke="none" pointer-events="all"/></g><g><rect x="29.25" y="25.76" width="4.19" height="14.66" fill="#2d2d2d" stroke="none" pointer-events="all"/></g><g><rect x="33.44" y="25.76" width="55.5" height="2.09" fill="#222222" stroke="none" pointer-events="all"/></g><g><rect x="33.44" y="29.95" width="55.5" height="2.09" fill="#222222" stroke="none" pointer-events="all"/></g><g><rect x="33.44" y="34.14" width="55.5" height="2.09" fill="#222222" stroke="none" pointer-events="all"/></g><g><rect x="33.44" y="38.33" width="55.5" height="2.09" fill="#222222" stroke="none" pointer-events="all"/></g><g><rect x="50.2" y="25.76" width="2.09" height="14.66" fill="#2d2d2d" stroke="none" pointer-events="all"/></g><g><rect x="70.09" y="25.76" width="2.09" height="14.66" fill="#2d2d2d" stroke="none" pointer-events="all"/></g><g><rect x="33.44" y="36.23" width="55.5" height="2.09" fill="#333333" stroke="none" pointer-events="all"/></g><g><rect x="33.44" y="32.04" width="55.5" height="2.09" fill="#333333" stroke="none" pointer-events="all"/></g><g><rect x="33.44" y="27.85" width="55.5" height="2.09" fill="#333333" stroke="none" pointer-events="all"/></g><g><rect x="130.83" y="20" width="109.95" height="26.18" fill="#333333" stroke="none" pointer-events="all"/></g><g><rect x="133.97" y="23.14" width="101.57" height="19.9" fill="#222222" stroke="#222222" stroke-width="0.5" pointer-events="all"/></g><g><rect x="236.07" y="41.47" width="4.19" height="3.14" rx="0.47" ry="0.47" fill="#60a917" stroke="#222222" stroke-width="0.1" transform="rotate(90,238.16,43.04)" pointer-events="all"/></g><g><rect x="236.07" y="32.04" width="4.19" height="3.14" rx="0.47" ry="0.47" fill="#0050ef" stroke="#222222" stroke-width="0.1" transform="rotate(90,238.16,33.61)" pointer-events="all"/></g><g><rect x="209.37" y="26.28" width="8.38" height="13.61" rx="1.26" ry="1.26" fill="#0050ef" stroke="none" pointer-events="all"/></g><g><path d="M 216.7 26.28 Q 219.84 26.28 219.84 33.09 Q 219.84 39.9 216.7 39.9 Z" fill="#0050ef" stroke="none" pointer-events="all"/></g><g><path d="M 238.16 28.87 C 238.25 28.87 238.32 28.8 238.32 28.71 L 238.32 28.08 C 238.32 28 238.26 27.93 238.17 27.93 C 238.07 27.93 238.01 28 238.01 28.07 L 238.01 28.71 C 238.01 28.8 238.08 28.87 238.16 28.87 Z M 238.16 29.88 C 238.66 29.88 239.07 29.48 239.07 28.98 C 239.07 28.73 238.98 28.45 238.71 28.25 C 238.66 28.21 238.55 28.23 238.51 28.29 C 238.46 28.35 238.46 28.44 238.53 28.51 C 238.67 28.62 238.76 28.79 238.76 28.96 C 238.76 29.31 238.46 29.56 238.17 29.56 C 237.88 29.56 237.59 29.35 237.57 28.97 C 237.57 28.82 237.65 28.61 237.81 28.5 C 237.86 28.46 237.88 28.36 237.81 28.28 C 237.75 28.21 237.65 28.22 237.61 28.25 C 237.38 28.44 237.27 28.66 237.26 28.95 C 237.26 29.5 237.68 29.88 238.16 29.88 Z M 238.16 30.47 C 237.27 30.47 236.59 29.75 236.59 28.89 C 236.59 28.04 237.3 27.33 238.18 27.33 C 238.99 27.33 239.73 27.99 239.73 28.89 C 239.73 29.84 238.98 30.47 238.16 30.47 Z" fill="none" stroke="#222222" stroke-width="0.1" stroke-miterlimit="10" pointer-events="all"/></g><g><path d="M 236.59 39.37 L 236.59 37.28 C 236.59 36.99 237.3 36.75 238.16 36.75 C 239.03 36.75 239.73 36.99 239.73 37.28 L 239.73 39.37 C 239.73 39.66 239.03 39.9 238.16 39.9 C 237.3 39.9 236.59 39.66 236.59 39.37 Z" fill="none" stroke="#222222" stroke-width="0.1" stroke-miterlimit="10" pointer-events="all"/><path d="M 236.59 37.28 C 236.59 37.57 237.3 37.8 238.16 37.8 C 239.03 37.8 239.73 37.57 239.73 37.28" fill="none" stroke="#222222" stroke-width="0.1" stroke-miterlimit="10" pointer-events="all"/></g><g><rect x="133.97" y="23.14" width="80.63" height="19.9" fill="#333333" stroke="none" pointer-events="all"/></g><g><rect x="199.94" y="25.76" width="4.19" height="14.66" fill="#2d2d2d" stroke="none" pointer-events="all"/></g><g><rect x="140.25" y="25.76" width="4.19" height="14.66" fill="#2d2d2d" stroke="none" pointer-events="all"/></g><g><rect x="144.44" y="25.76" width="55.5" height="2.09" fill="#222222" stroke="none" pointer-events="all"/></g><g><rect x="144.44" y="29.95" width="55.5" height="2.09" fill="#222222" stroke="none" pointer-events="all"/></g><g><rect x="144.44" y="34.14" width="55.5" height="2.09" fill="#222222" stroke="none" pointer-events="all"/></g><g><rect x="144.44" y="38.33" width="55.5" height="2.09" fill="#222222" stroke="none" pointer-events="all"/></g><g><rect x="161.2" y="25.76" width="2.09" height="14.66" fill="#2d2d2d" stroke="none" pointer-events="all"/></g><g><rect x="181.09" y="25.76" width="2.09" height="14.66" fill="#2d2d2d" stroke="none" pointer-events="all"/></g><g><rect x="144.44" y="36.23" width="55.5" height="2.09" fill="#333333" stroke="none" pointer-events="all"/></g><g><rect x="144.44" y="32.04" width="55.5" height="2.09" fill="#333333" stroke="none" pointer-events="all"/></g><g><rect x="144.44" y="27.85" width="55.5" height="2.09" fill="#333333" stroke="none" pointer-events="all"/></g><g><rect x="241.83" y="20" width="109.95" height="26.18" fill="#333333" stroke="none" pointer-events="all"/></g><g><rect x="244.97" y="23.14" width="101.57" height="19.9" fill="#222222" stroke="#222222" stroke-width="0.5" pointer-events="all"/></g><g><rect x="347.07" y="41.47" width="4.19" height="3.14" rx="0.47" ry="0.47" fill="#60a917" stroke="#222222" stroke-width="0.1" transform="rotate(90,349.16,43.04)" pointer-events="all"/></g><g><rect x="347.07" y="32.04" width="4.19" height="3.14" rx="0.47" ry="0.47" fill="#0050ef" stroke="#222222" stroke-width="0.1" transform="rotate(90,349.16,33.61)" pointer-events="all"/></g><g><rect x="320.37" y="26.28" width="8.38" height="13.61" rx="1.26" ry="1.26" fill="#0050ef" stroke="none" pointer-events="all"/></g><g><path d="M 327.7 26.28 Q 330.84 26.28 330.84 33.09 Q 330.84 39.9 327.7 39.9 Z" fill="#0050ef" stroke="none" pointer-events="all"/></g><g><path d="M 349.16 28.87 C 349.25 28.87 349.32 28.8 349.32 28.71 L 349.32 28.08 C 349.32 28 349.26 27.93 349.17 27.93 C 349.07 27.93 349.01 28 349.01 28.07 L 349.01 28.71 C 349.01 28.8 349.08 28.87 349.16 28.87 Z M 349.16 29.88 C 349.66 29.88 350.07 29.48 350.07 28.98 C 350.07 28.73 349.98 28.45 349.71 28.25 C 349.66 28.21 349.55 28.23 349.51 28.29 C 349.46 28.35 349.46 28.44 349.53 28.51 C 349.67 28.62 349.76 28.79 349.76 28.96 C 349.76 29.31 349.46 29.56 349.17 29.56 C 348.88 29.56 348.59 29.35 348.57 28.97 C 348.57 28.82 348.65 28.61 348.8 28.5 C 348.86 28.46 348.88 28.36 348.81 28.28 C 348.75 28.21 348.65 28.22 348.61 28.25 C 348.38 28.44 348.27 28.66 348.26 28.95 C 348.26 29.5 348.68 29.88 349.16 29.88 Z M 349.16 30.47 C 348.27 30.47 347.59 29.75 347.59 28.89 C 347.59 28.04 348.29 27.33 349.18 27.33 C 349.99 27.33 350.73 27.99 350.73 28.89 C 350.73 29.84 349.98 30.47 349.16 30.47 Z" fill="none" stroke="#222222" stroke-width="0.1" stroke-miterlimit="10" pointer-events="all"/></g><g><path d="M 347.59 39.37 L 347.59 37.28 C 347.59 36.99 348.3 36.75 349.16 36.75 C 350.03 36.75 350.73 36.99 350.73 37.28 L 350.73 39.37 C 350.73 39.66 350.03 39.9 349.16 39.9 C 348.3 39.9 347.59 39.66 347.59 39.37 Z" fill="none" stroke="#222222" stroke-width="0.1" stroke-miterlimit="10" pointer-events="all"/><path d="M 347.59 37.28 C 347.59 37.57 348.3 37.8 349.16 37.8 C 350.03 37.8 350.73 37.57 350.73 37.28" fill="none" stroke="#222222" stroke-width="0.1" stroke-miterlimit="10" pointer-events="all"/></g><g><rect x="244.97" y="23.14" width="80.63" height="19.9" fill="#333333" stroke="none" pointer-events="all"/></g><g><rect x="310.94" y="25.76" width="4.19" height="14.66" fill="#2d2d2d" stroke="none" pointer-events="all"/></g><g><rect x="251.25" y="25.76" width="4.19" height="14.66" fill="#2d2d2d" stroke="none" pointer-events="all"/></g><g><rect x="255.44" y="25.76" width="55.5" height="2.09" fill="#222222" stroke="none" pointer-events="all"/></g><g><rect x="255.44" y="29.95" width="55.5" height="2.09" fill="#222222" stroke="none" pointer-events="all"/></g><g><rect x="255.44" y="34.14" width="55.5" height="2.09" fill="#222222" stroke="none" pointer-events="all"/></g><g><rect x="255.44" y="38.33" width="55.5" height="2.09" fill="#222222" stroke="none" pointer-events="all"/></g><g><rect x="272.2" y="25.76" width="2.09" height="14.66" fill="#2d2d2d" stroke="none" pointer-events="all"/></g><g><rect x="292.09" y="25.76" width="2.09" height="14.66" fill="#2d2d2d" stroke="none" pointer-events="all"/></g><g><rect x="255.44" y="36.23" width="55.5" height="2.09" fill="#333333" stroke="none" pointer-events="all"/></g><g><rect x="255.44" y="32.04" width="55.5" height="2.09" fill="#333333" stroke="none" pointer-events="all"/></g><g><rect x="255.44" y="27.85" width="55.5" height="2.09" fill="#333333" stroke="none" pointer-events="all"/></g><g><rect x="352.83" y="20" width="109.95" height="26.18" fill="#333333" stroke="none" pointer-events="all"/></g><g><rect x="355.97" y="23.14" width="101.57" height="19.9" fill="#222222" stroke="#222222" stroke-width="0.5" pointer-events="all"/></g><g><rect x="458.07" y="41.47" width="4.19" height="3.14" rx="0.47" ry="0.47" fill="#60a917" stroke="#222222" stroke-width="0.1" transform="rotate(90,460.16,43.04)" pointer-events="all"/></g><g><rect x="458.07" y="32.04" width="4.19" height="3.14" rx="0.47" ry="0.47" fill="#0050ef" stroke="#222222" stroke-width="0.1" transform="rotate(90,460.16,33.61)" pointer-events="all"/></g><g><rect x="431.37" y="26.28" width="8.38" height="13.61" rx="1.26" ry="1.26" fill="#0050ef" stroke="none" pointer-events="all"/></g><g><path d="M 438.7 26.28 Q 441.84 26.28 441.84 33.09 Q 441.84 39.9 438.7 39.9 Z" fill="#0050ef" stroke="none" pointer-events="all"/></g><g><path d="M 460.16 28.87 C 460.25 28.87 460.32 28.8 460.32 28.71 L 460.32 28.08 C 460.32 28 460.26 27.93 460.17 27.93 C 460.07 27.93 460.01 28 460.01 28.07 L 460.01 28.71 C 460.01 28.8 460.08 28.87 460.16 28.87 Z M 460.16 29.88 C 460.66 29.88 461.07 29.48 461.07 28.98 C 461.07 28.73 460.98 28.45 460.7 28.25 C 460.65 28.21 460.55 28.23 460.51 28.29 C 460.46 28.35 460.46 28.44 460.53 28.51 C 460.67 28.62 460.76 28.79 460.76 28.96 C 460.76 29.31 460.46 29.56 460.17 29.56 C 459.88 29.56 459.59 29.35 459.57 28.97 C 459.57 28.82 459.65 28.61 459.8 28.5 C 459.86 28.46 459.88 28.36 459.81 28.28 C 459.75 28.21 459.65 28.22 459.61 28.25 C 459.38 28.44 459.27 28.66 459.26 28.95 C 459.26 29.5 459.68 29.88 460.16 29.88 Z M 460.16 30.47 C 459.27 30.47 458.59 29.75 458.59 28.89 C 458.59 28.04 459.29 27.33 460.18 27.33 C 460.99 27.33 461.73 27.99 461.73 28.89 C 461.73 29.84 460.98 30.47 460.16 30.47 Z" fill="none" stroke="#222222" stroke-width="0.1" stroke-miterlimit="10" pointer-events="all"/></g><g><path d="M 458.59 39.37 L 458.59 37.28 C 458.59 36.99 459.29 36.75 460.16 36.75 C 461.03 36.75 461.73 36.99 461.73 37.28 L 461.73 39.37 C 461.73 39.66 461.03 39.9 460.16 39.9 C 459.29 39.9 458.59 39.66 458.59 39.37 Z" fill="none" stroke="#222222" stroke-width="0.1" stroke-miterlimit="10" pointer-events="all"/><path d="M 458.59 37.28 C 458.59 37.57 459.29 37.8 460.16 37.8 C 461.03 37.8 461.73 37.57 461.73 37.28" fill="none" stroke="#222222" stroke-width="0.1" stroke-miterlimit="10" pointer-events="all"/></g><g><rect x="355.97" y="23.14" width="80.63" height="19.9" fill="#333333" stroke="none" pointer-events="all"/></g><g><rect x="421.94" y="25.76" width="4.19" height="14.66" fill="#2d2d2d" stroke="none" pointer-events="all"/></g><g><rect x="362.25" y="25.76" width="4.19" height="14.66" fill="#2d2d2d" stroke="none" pointer-events="all"/></g><g><rect x="366.44" y="25.76" width="55.5" height="2.09" fill="#222222" stroke="none" pointer-events="all"/></g><g><rect x="366.44" y="29.95" width="55.5" height="2.09" fill="#222222" stroke="none" pointer-events="all"/></g><g><rect x="366.44" y="34.14" width="55.5" height="2.09" fill="#222222" stroke="none" pointer-events="all"/></g><g><rect x="366.44" y="38.33" width="55.5" height="2.09" fill="#222222" stroke="none" pointer-events="all"/></g><g><rect x="383.2" y="25.76" width="2.09" height="14.66" fill="#2d2d2d" stroke="none" pointer-events="all"/></g><g><rect x="403.09" y="25.76" width="2.09" height="14.66" fill="#2d2d2d" stroke="none" pointer-events="all"/></g><g><rect x="366.44" y="36.23" width="55.5" height="2.09" fill="#333333" stroke="none" pointer-events="all"/></g><g><rect x="366.44" y="32.04" width="55.5" height="2.09" fill="#333333" stroke="none" pointer-events="all"/></g><g><rect x="366.44" y="27.85" width="55.5" height="2.09" fill="#333333" stroke="none" pointer-events="all"/></g><g/><g><rect x="241.83" y="1.35" width="109.95" height="17.04" fill="#333333" stroke="none" pointer-events="all"/></g><g><rect x="245.09" y="2.09" width="7.28" height="7.41" fill="#222222" stroke="#333333" stroke-width="0.5" pointer-events="all"/></g><g><rect x="245.09" y="10.24" width="7.28" height="7.41" fill="#222222" stroke="#333333" stroke-width="0.5" pointer-events="all"/></g><g><rect x="253.1" y="2.09" width="7.28" height="7.41" fill="#222222" stroke="#333333" stroke-width="0.5" pointer-events="all"/></g><g><rect x="253.1" y="10.24" width="7.28" height="7.41" fill="#222222" stroke="#333333" stroke-width="0.5" pointer-events="all"/></g><g><rect x="261.11" y="2.09" width="7.28" height="7.41" fill="#222222" stroke="#333333" stroke-width="0.5" pointer-events="all"/></g><g><rect x="261.11" y="10.24" width="7.28" height="7.41" fill="#222222" stroke="#333333" stroke-width="0.5" pointer-events="all"/></g><g><rect x="269.12" y="2.09" width="7.28" height="7.41" fill="#222222" stroke="#333333" stroke-width="0.5" pointer-events="all"/></g><g><rect x="269.12" y="10.24" width="7.28" height="7.41" fill="#222222" stroke="#333333" stroke-width="0.5" pointer-events="all"/></g><g><rect x="277.13" y="2.09" width="7.28" height="7.41" fill="#222222" stroke="#333333" stroke-width="0.5" pointer-events="all"/></g><g><rect x="277.13" y="10.24" width="7.28" height="7.41" fill="#222222" stroke="#333333" stroke-width="0.5" pointer-events="all"/></g><g><rect x="285.14" y="2.09" width="7.28" height="7.41" fill="#222222" stroke="#333333" stroke-width="0.5" pointer-events="all"/></g><g><rect x="285.14" y="10.24" width="7.28" height="7.41" fill="#222222" stroke="#333333" stroke-width="0.5" pointer-events="all"/></g><g><rect x="293.15" y="2.09" width="7.28" height="7.41" fill="#222222" stroke="#333333" stroke-width="0.5" pointer-events="all"/></g><g><rect x="293.15" y="10.24" width="7.28" height="7.41" fill="#222222" stroke="#333333" stroke-width="0.5" pointer-events="all"/></g><g><rect x="301.16" y="2.09" width="7.28" height="7.41" fill="#222222" stroke="#333333" stroke-width="0.5" pointer-events="all"/></g><g><rect x="301.16" y="10.24" width="7.28" height="7.41" fill="#222222" stroke="#333333" stroke-width="0.5" pointer-events="all"/></g><g><rect x="309.17" y="2.09" width="7.28" height="7.41" fill="#222222" stroke="#333333" stroke-width="0.5" pointer-events="all"/></g><g><rect x="309.17" y="10.24" width="7.28" height="7.41" fill="#222222" stroke="#333333" stroke-width="0.5" pointer-events="all"/></g><g><rect x="317.18" y="2.09" width="7.28" height="7.41" fill="#222222" stroke="#333333" stroke-width="0.5" pointer-events="all"/></g><g><rect x="317.18" y="10.24" width="7.28" height="7.41" fill="#222222" stroke="#333333" stroke-width="0.5" pointer-events="all"/></g><g><rect x="325.19" y="2.09" width="7.28" height="7.41" fill="#222222" stroke="#333333" stroke-width="0.5" pointer-events="all"/></g><g><rect x="325.19" y="10.24" width="7.28" height="7.41" fill="#222222" stroke="#333333" stroke-width="0.5" pointer-events="all"/></g><g><rect x="333.2" y="2.09" width="7.28" height="7.41" fill="#222222" stroke="#333333" stroke-width="0.5" pointer-events="all"/></g><g><rect x="333.2" y="10.24" width="7.28" height="7.41" fill="#222222" stroke="#333333" stroke-width="0.5" pointer-events="all"/></g><g><rect x="341.21" y="2.09" width="7.28" height="7.41" fill="#222222" stroke="#333333" stroke-width="0.5" pointer-events="all"/></g><g><rect x="341.21" y="10.24" width="7.28" height="7.41" fill="#222222" stroke="#333333" stroke-width="0.5" pointer-events="all"/></g><g><rect x="19.83" y="1.39" width="136" height="17.04" fill="#333333" stroke="none" pointer-events="all"/></g><g><rect x="24.19" y="2.13" width="7.27" height="7.41" fill="#222222" stroke="#333333" stroke-width="0.5" pointer-events="all"/></g><g><rect x="24.19" y="10.28" width="7.27" height="7.41" fill="#222222" stroke="#333333" stroke-width="0.5" pointer-events="all"/></g><g><rect x="32.19" y="2.13" width="7.27" height="7.41" fill="#222222" stroke="#333333" stroke-width="0.5" pointer-events="all"/></g><g><rect x="32.19" y="10.28" width="7.27" height="7.41" fill="#222222" stroke="#333333" stroke-width="0.5" pointer-events="all"/></g><g><rect x="40.19" y="2.13" width="7.27" height="7.41" fill="#222222" stroke="#333333" stroke-width="0.5" pointer-events="all"/></g><g><rect x="40.19" y="10.28" width="7.27" height="7.41" fill="#222222" stroke="#333333" stroke-width="0.5" pointer-events="all"/></g><g><rect x="48.19" y="2.13" width="7.27" height="7.41" fill="#222222" stroke="#333333" stroke-width="0.5" pointer-events="all"/></g><g><rect x="48.19" y="10.28" width="7.27" height="7.41" fill="#222222" stroke="#333333" stroke-width="0.5" pointer-events="all"/></g><g><rect x="56.19" y="2.13" width="7.27" height="7.41" fill="#222222" stroke="#333333" stroke-width="0.5" pointer-events="all"/></g><g><rect x="56.19" y="10.28" width="7.27" height="7.41" fill="#222222" stroke="#333333" stroke-width="0.5" pointer-events="all"/></g><g><rect x="64.19" y="2.13" width="7.27" height="7.41" fill="#222222" stroke="#333333" stroke-width="0.5" pointer-events="all"/></g><g><rect x="64.19" y="10.28" width="7.27" height="7.41" fill="#222222" stroke="#333333" stroke-width="0.5" pointer-events="all"/></g><g><rect x="72.19" y="2.13" width="7.27" height="7.41" fill="#222222" stroke="#333333" stroke-width="0.5" pointer-events="all"/></g><g><rect x="72.19" y="10.28" width="7.27" height="7.41" fill="#222222" stroke="#333333" stroke-width="0.5" pointer-events="all"/></g><g><rect x="80.19" y="2.13" width="7.27" height="7.41" fill="#222222" stroke="#333333" stroke-width="0.5" pointer-events="all"/></g><g><rect x="80.19" y="10.28" width="7.27" height="7.41" fill="#222222" stroke="#333333" stroke-width="0.5" pointer-events="all"/></g><g><rect x="88.19" y="2.13" width="7.27" height="7.41" fill="#222222" stroke="#333333" stroke-width="0.5" pointer-events="all"/></g><g><rect x="88.19" y="10.28" width="7.27" height="7.41" fill="#222222" stroke="#333333" stroke-width="0.5" pointer-events="all"/></g><g><rect x="96.19" y="2.13" width="7.27" height="7.41" fill="#222222" stroke="#333333" stroke-width="0.5" pointer-events="all"/></g><g><rect x="96.19" y="10.28" width="7.27" height="7.41" fill="#222222" stroke="#333333" stroke-width="0.5" pointer-events="all"/></g><g><rect x="104.19" y="2.13" width="7.27" height="7.41" fill="#222222" stroke="#333333" stroke-width="0.5" pointer-events="all"/></g><g><rect x="104.19" y="10.28" width="7.27" height="7.41" fill="#222222" stroke="#333333" stroke-width="0.5" pointer-events="all"/></g><g><rect x="112.19" y="2.13" width="7.27" height="7.41" fill="#222222" stroke="#333333" stroke-width="0.5" pointer-events="all"/></g><g><rect x="112.19" y="10.28" width="7.27" height="7.41" fill="#222222" stroke="#333333" stroke-width="0.5" pointer-events="all"/></g><g><rect x="120.19" y="2.13" width="7.27" height="7.41" fill="#222222" stroke="#333333" stroke-width="0.5" pointer-events="all"/></g><g><rect x="120.19" y="10.28" width="7.27" height="7.41" fill="#222222" stroke="#333333" stroke-width="0.5" pointer-events="all"/></g><g><rect x="128.19" y="2.13" width="7.27" height="7.41" fill="#222222" stroke="#333333" stroke-width="0.5" pointer-events="all"/></g><g><rect x="128.05" y="10.28" width="7.27" height="7.41" fill="#222222" stroke="#333333" stroke-width="0.5" pointer-events="all"/></g><g><rect x="136.19" y="2.13" width="7.27" height="7.41" fill="#222222" stroke="#333333" stroke-width="0.5" pointer-events="all"/></g><g><rect x="136.19" y="10.28" width="7.27" height="7.41" fill="#222222" stroke="#333333" stroke-width="0.5" pointer-events="all"/></g><g><rect x="144.19" y="2.13" width="7.27" height="7.41" fill="#222222" stroke="#333333" stroke-width="0.5" pointer-events="all"/></g><g><rect x="144.19" y="10.28" width="7.27" height="7.41" fill="#222222" stroke="#333333" stroke-width="0.5" pointer-events="all"/></g><g><rect x="156.78" y="1.39" width="84" height="17" fill="#333333" stroke="none" pointer-events="all"/></g><g><rect x="158.28" y="3.61" width="81" height="13.3" fill="#333333" stroke="#001dbc" stroke-width="0.2" pointer-events="all"/></g><g><ellipse cx="177.03" cy="13.22" rx="2.25" ry="2.217391304347826" fill="#60a917" stroke="none" pointer-events="all"/></g><g><ellipse cx="182.28" cy="13.22" rx="2.25" ry="2.217391304347826" fill="#0050ef" stroke="none" pointer-events="all"/></g><g><ellipse cx="187.53" cy="13.22" rx="2.25" ry="2.217391304347826" fill="#0050ef" stroke="none" pointer-events="all"/></g><g><ellipse cx="192.78" cy="13.22" rx="2.25" ry="2.217391304347826" fill="#0050ef" stroke="none" pointer-events="all"/></g><g><ellipse cx="203.28" cy="13.22" rx="2.25" ry="2.217391304347826" fill="#a20025" stroke="none" pointer-events="all"/></g><g><ellipse cx="198.03" cy="13.22" rx="2.25" ry="2.217391304347826" fill="#0050ef" stroke="none" pointer-events="all"/></g><g><ellipse cx="170.28" cy="12.48" rx="3" ry="2.9565217391304346" fill="#0050ef" stroke="none" pointer-events="all"/></g><g><ellipse cx="162.78" cy="12.48" rx="3" ry="2.9565217391304346" fill="#0050ef" stroke="none" pointer-events="all"/></g><g><rect x="211.08" y="5.09" width="6.51" height="2.96" fill="none" stroke="none" pointer-events="all"/><path d="M 212.21 6.71 C 212.13 6.98 211.86 7.15 211.58 7.11 C 211.29 7.07 211.08 6.83 211.08 6.55 C 211.08 6.27 211.29 6.03 211.58 6 C 211.86 5.96 212.13 6.13 212.21 6.4 L 212.89 6.4 C 212.97 6.37 213.04 6.31 213.07 6.23 L 213.28 5.85 C 213.4 5.67 213.59 5.55 213.81 5.52 C 213.99 5.49 214.17 5.48 214.35 5.48 C 214.43 5.24 214.68 5.09 214.93 5.12 C 215.19 5.16 215.38 5.38 215.38 5.63 C 215.38 5.88 215.19 6.1 214.93 6.13 C 214.68 6.17 214.43 6.02 214.35 5.78 C 214.16 5.77 213.96 5.79 213.77 5.84 C 213.69 5.87 213.61 5.92 213.55 5.99 L 213.42 6.25 L 213.34 6.41 L 216.44 6.41 L 216.44 5.89 L 217.59 6.6 L 216.44 7.22 L 216.44 6.7 L 214.06 6.7 C 214.11 6.77 214.15 6.85 214.18 6.94 L 214.31 7.27 C 214.35 7.33 214.39 7.37 214.45 7.4 C 214.53 7.42 214.61 7.43 214.69 7.43 L 214.97 7.43 L 214.97 7.12 L 215.9 7.12 L 215.9 8.04 L 214.97 8.04 L 214.97 7.74 C 214.78 7.76 214.59 7.75 214.41 7.7 C 214.27 7.66 214.16 7.58 214.07 7.47 L 213.97 7.24 L 213.83 6.91 C 213.79 6.79 213.67 6.71 213.54 6.7 Z" fill="#ffffff" stroke="none" pointer-events="all"/></g><g><rect x="227.04" y="5.09" width="6.51" height="2.96" fill="none" stroke="none" pointer-events="all"/><path d="M 228.17 6.71 C 228.09 6.98 227.82 7.15 227.54 7.11 C 227.25 7.07 227.04 6.83 227.04 6.55 C 227.04 6.27 227.25 6.03 227.54 6 C 227.82 5.96 228.09 6.13 228.17 6.4 L 228.85 6.4 C 228.93 6.37 229 6.31 229.03 6.23 L 229.24 5.85 C 229.36 5.67 229.55 5.55 229.77 5.52 C 229.95 5.49 230.13 5.48 230.31 5.48 C 230.39 5.24 230.64 5.09 230.89 5.12 C 231.15 5.16 231.34 5.38 231.34 5.63 C 231.34 5.88 231.15 6.1 230.89 6.13 C 230.64 6.17 230.39 6.02 230.31 5.78 C 230.12 5.77 229.92 5.79 229.73 5.84 C 229.65 5.87 229.57 5.92 229.51 5.99 L 229.38 6.25 L 229.3 6.41 L 232.4 6.41 L 232.4 5.89 L 233.55 6.6 L 232.4 7.22 L 232.4 6.7 L 230.02 6.7 C 230.07 6.77 230.11 6.85 230.14 6.94 L 230.27 7.27 C 230.31 7.33 230.35 7.37 230.41 7.4 C 230.49 7.42 230.57 7.43 230.65 7.43 L 230.93 7.43 L 230.93 7.12 L 231.86 7.12 L 231.86 8.04 L 230.93 8.04 L 230.93 7.74 C 230.74 7.76 230.55 7.75 230.37 7.7 C 230.23 7.66 230.12 7.58 230.03 7.47 L 229.93 7.24 L 229.79 6.91 C 229.75 6.79 229.63 6.71 229.5 6.7 Z" fill="#ffffff" stroke="none" pointer-events="all"/></g><g><path d="M 162.77 6.53 C 162.86 6.53 162.93 6.47 162.93 6.39 L 162.93 5.8 C 162.93 5.72 162.87 5.65 162.78 5.65 C 162.69 5.65 162.63 5.72 162.63 5.78 L 162.63 6.39 C 162.63 6.47 162.7 6.53 162.77 6.53 Z M 162.78 7.48 C 163.25 7.48 163.65 7.1 163.65 6.64 C 163.65 6.4 163.56 6.14 163.3 5.95 C 163.25 5.91 163.15 5.93 163.11 5.99 C 163.07 6.05 163.06 6.13 163.13 6.19 C 163.26 6.3 163.35 6.46 163.35 6.62 C 163.35 6.95 163.07 7.18 162.79 7.18 C 162.51 7.18 162.23 6.99 162.22 6.63 C 162.21 6.49 162.29 6.29 162.44 6.19 C 162.49 6.15 162.51 6.05 162.45 5.98 C 162.39 5.91 162.29 5.92 162.25 5.95 C 162.03 6.13 161.92 6.34 161.92 6.61 C 161.92 7.13 162.32 7.48 162.78 7.48 Z M 162.78 8.04 C 161.92 8.04 161.28 7.36 161.28 6.56 C 161.28 5.75 161.95 5.09 162.79 5.09 C 163.57 5.09 164.28 5.7 164.28 6.56 C 164.28 7.45 163.56 8.04 162.78 8.04 Z" fill="#ffffff" stroke="none" pointer-events="all"/></g><g><path d="M 169.81 8.04 L 169.81 7.55 C 169.17 7.35 168.78 6.75 168.9 6.14 C 169.01 5.53 169.6 5.09 170.28 5.09 C 170.96 5.09 171.55 5.53 171.66 6.14 C 171.78 6.75 171.39 7.35 170.75 7.55 L 170.75 8.04" fill="none" stroke="rgb(240, 240, 240)" stroke-width="0.1" stroke-miterlimit="10" transform="rotate(-180,170.28,6.56)" pointer-events="all"/></g><g><path d="M 180.78 7.55 L 180.78 5.58 C 180.78 5.31 181.45 5.09 182.28 5.09 C 183.11 5.09 183.78 5.31 183.78 5.58 L 183.78 7.55 C 183.78 7.82 183.11 8.04 182.28 8.04 C 181.45 8.04 180.78 7.82 180.78 7.55 Z" fill="none" stroke="rgb(240, 240, 240)" stroke-width="0.1" stroke-miterlimit="10" pointer-events="all"/><path d="M 180.78 5.58 C 180.78 5.85 181.45 6.07 182.28 6.07 C 183.11 6.07 183.78 5.85 183.78 5.58" fill="none" stroke="rgb(240, 240, 240)" stroke-width="0.1" stroke-miterlimit="10" pointer-events="all"/></g><g><rect x="186.03" y="5.09" width="3" height="2.96" fill="none" stroke="none" pointer-events="all"/><path d="M 187.22 5.09 L 187.22 5.71 L 187.47 5.71 L 187.47 6.29 L 186.32 6.29 C 186.31 6.29 186.3 6.3 186.28 6.31 C 186.27 6.32 186.27 6.33 186.27 6.35 L 186.27 7.42 L 186.03 7.42 L 186.03 8.04 L 186.65 8.04 L 186.65 7.42 L 186.38 7.42 L 186.38 6.4 L 187.47 6.4 L 187.47 7.17 L 187.22 7.17 L 187.22 7.79 L 187.83 7.79 L 187.83 7.17 L 187.58 7.17 L 187.58 6.41 L 188.67 6.41 L 188.67 7.42 L 188.41 7.42 L 188.41 8.04 L 189.03 8.04 L 189.03 7.42 L 188.78 7.42 L 188.78 6.35 C 188.78 6.34 188.78 6.32 188.77 6.31 C 188.76 6.3 188.74 6.29 188.73 6.29 L 187.58 6.29 L 187.58 5.71 L 187.83 5.71 L 187.83 5.09 Z" fill="#ffffff" stroke="none" pointer-events="all"/></g><g><rect x="191.28" y="5.09" width="3" height="2.96" fill="none" stroke="none" pointer-events="all"/><path d="M 192.47 5.09 L 192.47 5.71 L 192.72 5.71 L 192.72 6.29 L 191.57 6.29 C 191.56 6.29 191.55 6.3 191.53 6.31 C 191.52 6.32 191.52 6.33 191.52 6.35 L 191.52 7.42 L 191.28 7.42 L 191.28 8.04 L 191.9 8.04 L 191.9 7.42 L 191.63 7.42 L 191.63 6.4 L 192.72 6.4 L 192.72 7.17 L 192.47 7.17 L 192.47 7.79 L 193.08 7.79 L 193.08 7.17 L 192.83 7.17 L 192.83 6.41 L 193.92 6.41 L 193.92 7.42 L 193.66 7.42 L 193.66 8.04 L 194.28 8.04 L 194.28 7.42 L 194.03 7.42 L 194.03 6.35 C 194.03 6.34 194.03 6.32 194.02 6.31 C 194.01 6.3 193.99 6.29 193.98 6.29 L 192.83 6.29 L 192.83 5.71 L 193.08 5.71 L 193.08 5.09 Z" fill="#ffffff" stroke="none" pointer-events="all"/></g><g><rect x="196.53" y="5.09" width="3" height="2.96" fill="none" stroke="none" pointer-events="all"/><path d="M 197.72 5.09 L 197.72 5.71 L 197.97 5.71 L 197.97 6.29 L 196.82 6.29 C 196.81 6.29 196.8 6.3 196.78 6.31 C 196.77 6.32 196.77 6.33 196.77 6.35 L 196.77 7.42 L 196.53 7.42 L 196.53 8.04 L 197.15 8.04 L 197.15 7.42 L 196.88 7.42 L 196.88 6.4 L 197.97 6.4 L 197.97 7.17 L 197.72 7.17 L 197.72 7.79 L 198.33 7.79 L 198.33 7.17 L 198.08 7.17 L 198.08 6.41 L 199.17 6.41 L 199.17 7.42 L 198.91 7.42 L 198.91 8.04 L 199.53 8.04 L 199.53 7.42 L 199.28 7.42 L 199.28 6.35 C 199.28 6.34 199.28 6.32 199.27 6.31 C 199.26 6.3 199.24 6.29 199.23 6.29 L 198.08 6.29 L 198.08 5.71 L 198.33 5.71 L 198.33 5.09 Z" fill="#ffffff" stroke="none" pointer-events="all"/></g><g><path d="M 201.78 5.09 L 204.78 6.56 L 201.78 8.04 Z" fill="none" stroke="rgb(240, 240, 240)" stroke-width="0.1" stroke-miterlimit="10" transform="rotate(-90,203.28,6.56)" pointer-events="all"/></g><g><path d="M 177.02 6.53 C 177.11 6.53 177.18 6.47 177.18 6.39 L 177.18 5.8 C 177.18 5.72 177.12 5.65 177.03 5.65 C 176.94 5.65 176.88 5.72 176.88 5.78 L 176.88 6.39 C 176.88 6.47 176.95 6.53 177.02 6.53 Z M 177.03 7.48 C 177.5 7.48 177.9 7.1 177.9 6.64 C 177.9 6.4 177.81 6.14 177.55 5.95 C 177.5 5.91 177.4 5.93 177.36 5.99 C 177.32 6.05 177.31 6.13 177.38 6.19 C 177.51 6.3 177.6 6.46 177.6 6.62 C 177.6 6.95 177.32 7.18 177.04 7.18 C 176.76 7.18 176.48 6.99 176.47 6.63 C 176.46 6.49 176.54 6.29 176.69 6.19 C 176.74 6.15 176.76 6.05 176.7 5.98 C 176.64 5.91 176.54 5.92 176.5 5.95 C 176.28 6.13 176.17 6.34 176.17 6.61 C 176.17 7.13 176.57 7.48 177.03 7.48 Z M 177.03 8.04 C 176.17 8.04 175.53 7.36 175.53 6.56 C 175.53 5.75 176.2 5.09 177.04 5.09 C 177.82 5.09 178.53 5.7 178.53 6.56 C 178.53 7.45 177.81 8.04 177.03 8.04 Z" fill="none" stroke="rgb(240, 240, 240)" stroke-width="0.1" stroke-miterlimit="10" pointer-events="all"/></g><g><rect x="222.78" y="9.52" width="15" height="5.91" fill="#222222" stroke="#aaaaaa" stroke-width="0.1" pointer-events="all"/></g><g><rect x="224.28" y="11" width="12" height="1.48" fill="#0050ef" stroke="none" pointer-events="all"/></g><g><rect x="206.82" y="9.52" width="15" height="5.91" fill="#222222" stroke="#aaaaaa" stroke-width="0.1" pointer-events="all"/></g><g><rect x="208.32" y="11" width="12" height="1.48" fill="#0050ef" stroke="none" pointer-events="all"/></g><g><rect x="352.83" y="1.35" width="109.95" height="17.04" fill="#333333" stroke="none" pointer-events="all"/></g><g><rect x="356.09" y="2.09" width="7.28" height="7.41" fill="#222222" stroke="#333333" stroke-width="0.5" pointer-events="all"/></g><g><rect x="356.09" y="10.24" width="7.28" height="7.41" fill="#222222" stroke="#333333" stroke-width="0.5" pointer-events="all"/></g><g><rect x="364.1" y="2.09" width="7.28" height="7.41" fill="#222222" stroke="#333333" stroke-width="0.5" pointer-events="all"/></g><g><rect x="364.1" y="10.24" width="7.28" height="7.41" fill="#222222" stroke="#333333" stroke-width="0.5" pointer-events="all"/></g><g><rect x="372.11" y="2.09" width="7.28" height="7.41" fill="#222222" stroke="#333333" stroke-width="0.5" pointer-events="all"/></g><g><rect x="372.11" y="10.24" width="7.28" height="7.41" fill="#222222" stroke="#333333" stroke-width="0.5" pointer-events="all"/></g><g><rect x="380.12" y="2.09" width="7.28" height="7.41" fill="#222222" stroke="#333333" stroke-width="0.5" pointer-events="all"/></g><g><rect x="380.12" y="10.24" width="7.28" height="7.41" fill="#222222" stroke="#333333" stroke-width="0.5" pointer-events="all"/></g><g><rect x="388.13" y="2.09" width="7.28" height="7.41" fill="#222222" stroke="#333333" stroke-width="0.5" pointer-events="all"/></g><g><rect x="388.13" y="10.24" width="7.28" height="7.41" fill="#222222" stroke="#333333" stroke-width="0.5" pointer-events="all"/></g><g><rect x="396.14" y="2.09" width="7.28" height="7.41" fill="#222222" stroke="#333333" stroke-width="0.5" pointer-events="all"/></g><g><rect x="396.14" y="10.24" width="7.28" height="7.41" fill="#222222" stroke="#333333" stroke-width="0.5" pointer-events="all"/></g><g><rect x="404.15" y="2.09" width="7.28" height="7.41" fill="#222222" stroke="#333333" stroke-width="0.5" pointer-events="all"/></g><g><rect x="404.15" y="10.24" width="7.28" height="7.41" fill="#222222" stroke="#333333" stroke-width="0.5" pointer-events="all"/></g><g><rect x="412.16" y="2.09" width="7.28" height="7.41" fill="#222222" stroke="#333333" stroke-width="0.5" pointer-events="all"/></g><g><rect x="412.16" y="10.24" width="7.28" height="7.41" fill="#222222" stroke="#333333" stroke-width="0.5" pointer-events="all"/></g><g><rect x="420.17" y="2.09" width="7.28" height="7.41" fill="#222222" stroke="#333333" stroke-width="0.5" pointer-events="all"/></g><g><rect x="420.17" y="10.24" width="7.28" height="7.41" fill="#222222" stroke="#333333" stroke-width="0.5" pointer-events="all"/></g><g><rect x="428.18" y="2.09" width="7.28" height="7.41" fill="#222222" stroke="#333333" stroke-width="0.5" pointer-events="all"/></g><g><rect x="428.18" y="10.24" width="7.28" height="7.41" fill="#222222" stroke="#333333" stroke-width="0.5" pointer-events="all"/></g><g><rect x="436.19" y="2.09" width="7.28" height="7.41" fill="#222222" stroke="#333333" stroke-width="0.5" pointer-events="all"/></g><g><rect x="436.19" y="10.24" width="7.28" height="7.41" fill="#222222" stroke="#333333" stroke-width="0.5" pointer-events="all"/></g><g><rect x="444.2" y="2.09" width="7.28" height="7.41" fill="#222222" stroke="#333333" stroke-width="0.5" pointer-events="all"/></g><g><rect x="444.2" y="10.24" width="7.28" height="7.41" fill="#222222" stroke="#333333" stroke-width="0.5" pointer-events="all"/></g><g><rect x="452.21" y="2.09" width="7.28" height="7.41" fill="#222222" stroke="#333333" stroke-width="0.5" pointer-events="all"/></g><g><rect x="452.21" y="10.24" width="7.28" height="7.41" fill="#222222" stroke="#333333" stroke-width="0.5" pointer-events="all"/></g></g></svg>