<?xml version="1.0" encoding="UTF-8"?>
<!DOCTYPE svg PUBLIC "-//W3C//DTD SVG 1.1//EN" "http://www.w3.org/Graphics/SVG/1.1/DTD/svg11.dtd">
<svg xmlns="http://www.w3.org/2000/svg" xmlns:xlink="http://www.w3.org/1999/xlink" version="1.1" width="484px" height="90px" viewBox="-0.5 -0.5 484 90"><defs><style type="text/css">@import url("https://fonts.googleapis.com/css?family=Titillium+Web");</style><style type="text/css"/></defs><g><g/><g><rect x="0" y="0" width="482.6" height="88.9" fill="#000000" stroke="#111111" pointer-events="all"/></g><g><rect x="18" y="0" width="446.6" height="88.9" fill="#000000" stroke="#111111" pointer-events="all"/></g><g/><g><rect x="468.85" y="3" width="10" height="6" rx="3" ry="3" fill="none" stroke="#111111" pointer-events="none"/></g><g><rect x="471.85" y="3" width="4" height="6" fill="#000000" stroke="none" pointer-events="all"/></g><g><ellipse cx="475.85" cy="6" rx="3" ry="3" fill="#000000" stroke="none" pointer-events="all"/></g><g><ellipse cx="471.85" cy="6" rx="3" ry="3" fill="#000000" stroke="none" pointer-events="all"/></g><g><rect x="468.85" y="19.22" width="10" height="6" rx="3" ry="3" fill="none" stroke="#111111" pointer-events="none"/></g><g><rect x="471.85" y="19.22" width="4" height="6" fill="#000000" stroke="none" pointer-events="all"/></g><g><ellipse cx="475.85" cy="22.22" rx="3" ry="3" fill="#000000" stroke="none" pointer-events="all"/></g><g><ellipse cx="471.85" cy="22.22" rx="3" ry="3" fill="#000000" stroke="none" pointer-events="all"/></g><g><rect x="468.85" y="35.45" width="10" height="6" rx="3" ry="3" fill="none" stroke="#111111" pointer-events="none"/></g><g><rect x="471.85" y="35.45" width="4" height="6" fill="#000000" stroke="none" pointer-events="all"/></g><g><ellipse cx="475.85" cy="38.45" rx="3" ry="3" fill="#000000" stroke="none" pointer-events="all"/></g><g><ellipse cx="471.85" cy="38.45" rx="3" ry="3" fill="#000000" stroke="none" pointer-events="all"/></g><g/><g><rect x="4" y="47.45" width="10" height="6" rx="3" ry="3" fill="none" stroke="#111111" pointer-events="none"/></g><g><rect x="7" y="47.45" width="4" height="6" fill="#000000" stroke="none" pointer-events="all"/></g><g><ellipse cx="11" cy="50.45" rx="3" ry="3" fill="#000000" stroke="none" pointer-events="all"/></g><g><ellipse cx="7" cy="50.45" rx="3" ry="3" fill="#000000" stroke="none" pointer-events="all"/></g><g><rect x="4" y="63.67" width="10" height="6" rx="3" ry="3" fill="none" stroke="#111111" pointer-events="none"/></g><g><rect x="7" y="63.67" width="4" height="6" fill="#000000" stroke="none" pointer-events="all"/></g><g><ellipse cx="11" cy="66.67" rx="3" ry="3" fill="#000000" stroke="none" pointer-events="all"/></g><g><ellipse cx="7" cy="66.67" rx="3" ry="3" fill="#000000" stroke="none" pointer-events="all"/></g><g><rect x="4" y="79.9" width="10" height="6" rx="3" ry="3" fill="none" stroke="#111111" pointer-events="none"/></g><g><rect x="7" y="79.9" width="4" height="6" fill="#000000" stroke="none" pointer-events="all"/></g><g><ellipse cx="11" cy="82.9" rx="3" ry="3" fill="#000000" stroke="none" pointer-events="all"/></g><g><ellipse cx="7" cy="82.9" rx="3" ry="3" fill="#000000" stroke="none" pointer-events="all"/></g><g><svg version="1.1" id="svg-image-xf3c0YQb-8Eat0kcl2TV" x="33.5" y="16.23" viewBox="0 0 74.4 74.9" style="font-family: initial;" xml:space="preserve" xmlns="http://www.w3.org/2000/svg" xmlns:xlink="http://www.w3.org/1999/xlink" width="10.85" height="11">&#xa;<style type="text/css">#svg-image-xf3c0YQb-8Eat0kcl2TV .st0 { fill: none; }&#xa;#svg-image-xf3c0YQb-8Eat0kcl2TV .st1 { fill: rgb(188, 190, 192); }&#xa;</style>&#xa;<path class="st0" d="M74.4,74.9H0V0h74.4V74.9z M62.9,14.5c-9.2-10.8-27.8-16.2-43.8-6C3.3,18.5-2,39.7,8.6,56.1&#10;&#9;c10.3,16,31.5,20.9,47.8,10.2c16.3-10.8,17.9-30.1,13.3-40.5c-0.7,0.1-1.4,0.3-2.1,0.3c-12.4,0-24.7,0-37.1,0c-2,0-3.6-1-4.7-2.6&#10;&#9;c-1.2-1.9-1.3-3.8-0.3-5.8c1.1-2.1,2.9-3.1,5.3-3.1c10.2,0,20.5,0,30.7,0C61.9,14.5,62.4,14.5,62.9,14.5L62.9,14.5z M63.9,14.6&#10;&#9;c2.1,3.5,4.2,7,6.3,10.6c2-0.9,3.2-3.3,2.9-5.7c-0.4-2.6-2.3-4.6-4.9-4.9C66.7,14.5,65.2,14.6,63.9,14.6L63.9,14.6z"/>&#xa;<g>&#xa;	<path class="st1" d="M62.9,14.5c-0.5,0-1,0-1.4,0c-10.2,0-20.5,0-30.7,0c-2.4,0-4.1,1.1-5.3,3.1c-1,2-0.9,3.9,0.3,5.8&#10;&#9;&#9;c1.1,1.7,2.7,2.6,4.7,2.6c12.4,0,24.7,0,37.1,0c0.7,0,1.4-0.2,2.1-0.3c4.7,10.5,3.1,29.7-13.3,40.5C40.1,77.1,18.9,72.1,8.6,56.1&#10;&#9;&#9;C-2,39.7,3.3,18.5,19.1,8.5C35.2-1.7,53.8,3.7,62.9,14.5z M40.1,43.3c3.3,0,6.5,0,9.8,0c0.7,0,1.4,0,2-0.1c2.6-0.5,4.5-2.9,4.3-5.5&#10;&#9;&#9;c-0.2-2.8-2.4-4.8-5.3-4.8c-7.2,0-14.4,0-21.5,0c-3.1,0-5.4,2.3-5.4,5.2c0,3,2.4,5.2,5.5,5.2C33,43.3,36.5,43.3,40.1,43.3&#10;&#9;&#9;L40.1,43.3z M32.3,59.4c1.5,0,3.1,0,4.7,0c2.6,0,4.5-2,4.6-4.5c0-2.5-1.9-4.6-4.5-4.7c-3.2-0.1-6.4-0.1-9.5,0&#10;&#9;&#9;c-2.5,0-4.5,2.1-4.5,4.7s2,4.5,4.6,4.6C29.2,59.4,30.7,59.4,32.3,59.4z"/>&#xa;	<path class="st1" d="M63.8,14.7c1.3,0,2.8-0.1,4.3,0c2.5,0.2,4.5,2.3,4.9,4.8c0.4,2.4-0.9,4.7-2.9,5.7C68,21.7,65.9,18.2,63.8,14.7&#10;&#9;&#9;L63.8,14.7z"/>&#xa;</g>&#xa;</svg></g><g/><g><rect x="468.85" y="47.45" width="10" height="6" rx="3" ry="3" fill="none" stroke="#111111" pointer-events="none"/></g><g><rect x="471.85" y="47.45" width="4" height="6" fill="#000000" stroke="none" pointer-events="all"/></g><g><ellipse cx="475.85" cy="50.45" rx="3" ry="3" fill="#000000" stroke="none" pointer-events="all"/></g><g><ellipse cx="471.85" cy="50.45" rx="3" ry="3" fill="#000000" stroke="none" pointer-events="all"/></g><g><rect x="468.85" y="63.67" width="10" height="6" rx="3" ry="3" fill="none" stroke="#111111" pointer-events="none"/></g><g><rect x="471.85" y="63.67" width="4" height="6" fill="#000000" stroke="none" pointer-events="all"/></g><g><ellipse cx="475.85" cy="66.67" rx="3" ry="3" fill="#000000" stroke="none" pointer-events="all"/></g><g><ellipse cx="471.85" cy="66.67" rx="3" ry="3" fill="#000000" stroke="none" pointer-events="all"/></g><g><rect x="468.85" y="79.9" width="10" height="6" rx="3" ry="3" fill="none" stroke="#111111" pointer-events="none"/></g><g><rect x="471.85" y="79.9" width="4" height="6" fill="#000000" stroke="none" pointer-events="all"/></g><g><ellipse cx="475.85" cy="82.9" rx="3" ry="3" fill="#000000" stroke="none" pointer-events="all"/></g><g><ellipse cx="471.85" cy="82.9" rx="3" ry="3" fill="#000000" stroke="none" pointer-events="all"/></g><g/><g><rect x="4" y="3" width="10" height="6" rx="3" ry="3" fill="none" stroke="#111111" pointer-events="none"/></g><g><rect x="7" y="3" width="4" height="6" fill="#000000" stroke="none" pointer-events="all"/></g><g><ellipse cx="11" cy="6" rx="3" ry="3" fill="#000000" stroke="none" pointer-events="all"/></g><g><ellipse cx="7" cy="6" rx="3" ry="3" fill="#000000" stroke="none" pointer-events="all"/></g><g><rect x="4" y="19.22" width="10" height="6" rx="3" ry="3" fill="none" stroke="#111111" pointer-events="none"/></g><g><rect x="7" y="19.22" width="4" height="6" fill="#000000" stroke="none" pointer-events="all"/></g><g><ellipse cx="11" cy="22.22" rx="3" ry="3" fill="#000000" stroke="none" pointer-events="all"/></g><g><ellipse cx="7" cy="22.22" rx="3" ry="3" fill="#000000" stroke="none" pointer-events="all"/></g><g><rect x="4" y="35.45" width="10" height="6" rx="3" ry="3" fill="none" stroke="#111111" pointer-events="none"/></g><g><rect x="7" y="35.45" width="4" height="6" fill="#000000" stroke="none" pointer-events="all"/></g><g><ellipse cx="11" cy="38.45" rx="3" ry="3" fill="#000000" stroke="none" pointer-events="all"/></g><g><ellipse cx="7" cy="38.45" rx="3" ry="3" fill="#000000" stroke="none" pointer-events="all"/></g></g></svg>