<?xml version="1.0" encoding="UTF-8"?>
<!DOCTYPE svg PUBLIC "-//W3C//DTD SVG 1.1//EN" "http://www.w3.org/Graphics/SVG/1.1/DTD/svg11.dtd">
<svg xmlns="http://www.w3.org/2000/svg" xmlns:xlink="http://www.w3.org/1999/xlink" version="1.1" width="484px" height="46px" viewBox="-0.5 -0.5 484 46"><defs><linearGradient x1="0%" y1="0%" x2="100%" y2="0%" id="mx-gradient-222222-1-333333-1-e-0"><stop offset="0%" style="stop-color: rgb(34, 34, 34); stop-opacity: 1;"/><stop offset="100%" style="stop-color: rgb(51, 51, 51); stop-opacity: 1;"/></linearGradient></defs><g><g/><g><rect x="0" y="0" width="482.6" height="44.45" fill="#bfbfbf" stroke="#aaaaaa" pointer-events="all"/></g><g><rect x="18" y="0" width="446.6" height="44.45" fill="#222222" stroke="#aaaaaa" pointer-events="all"/></g><g><rect x="7" y="19.23" width="4" height="6" fill="#000000" stroke="none" pointer-events="all"/></g><g><ellipse cx="11" cy="22.23" rx="3" ry="3" fill="#000000" stroke="none" pointer-events="all"/></g><g><ellipse cx="7" cy="22.23" rx="3" ry="3" fill="#000000" stroke="none" pointer-events="all"/></g><g><rect x="471.6" y="19.23" width="4" height="6" fill="#000000" stroke="none" pointer-events="all"/></g><g><ellipse cx="475.6" cy="22.23" rx="3" ry="3" fill="#000000" stroke="none" pointer-events="all"/></g><g><ellipse cx="471.6" cy="22.23" rx="3" ry="3" fill="#000000" stroke="none" pointer-events="all"/></g><g><rect x="8" y="0" width="10" height="44.45" fill="#bfbfbf" stroke="#aaaaaa" pointer-events="all"/></g><g><rect x="464.6" y="0" width="10" height="44.45" fill="#bfbfbf" stroke="#aaaaaa" pointer-events="all"/></g><g><rect x="349" y="0.5" width="10" height="5" fill="#000000" stroke="none" pointer-events="all"/></g><g><rect x="360.5" y="0.5" width="10" height="5" fill="#000000" stroke="none" pointer-events="all"/></g><g><rect x="372" y="0.5" width="10" height="5" fill="#000000" stroke="none" pointer-events="all"/></g><g><rect x="383.5" y="0.5" width="10" height="5" fill="#000000" stroke="none" pointer-events="all"/></g><g><rect x="395" y="0.5" width="10" height="5" fill="#000000" stroke="none" pointer-events="all"/></g><g><rect x="406.5" y="0.5" width="10" height="5" fill="#000000" stroke="none" pointer-events="all"/></g><g><rect x="418" y="0.5" width="10" height="5" fill="#000000" stroke="none" pointer-events="all"/></g><g><rect x="267" y="0.5" width="10" height="5" fill="#000000" stroke="none" pointer-events="all"/></g><g><rect x="278.5" y="0.5" width="10" height="5" fill="#000000" stroke="none" pointer-events="all"/></g><g><rect x="290" y="0.5" width="10" height="5" fill="#000000" stroke="none" pointer-events="all"/></g><g><rect x="301.5" y="0.5" width="10" height="5" fill="#000000" stroke="none" pointer-events="all"/></g><g><rect x="313" y="0.5" width="10" height="5" fill="#000000" stroke="none" pointer-events="all"/></g><g><rect x="324.5" y="0.5" width="10" height="5" fill="#000000" stroke="none" pointer-events="all"/></g><g><rect x="336" y="0.5" width="10" height="5" fill="#000000" stroke="none" pointer-events="all"/></g><g><rect x="185" y="0.5" width="10" height="5" fill="#000000" stroke="none" pointer-events="all"/></g><g><rect x="196.5" y="0.5" width="10" height="5" fill="#000000" stroke="none" pointer-events="all"/></g><g><rect x="208" y="0.5" width="10" height="5" fill="#000000" stroke="none" pointer-events="all"/></g><g><rect x="219.5" y="0.5" width="10" height="5" fill="#000000" stroke="none" pointer-events="all"/></g><g><rect x="231" y="0.5" width="10" height="5" fill="#000000" stroke="none" pointer-events="all"/></g><g><rect x="242.5" y="0.5" width="10" height="5" fill="#000000" stroke="none" pointer-events="all"/></g><g><rect x="254" y="0.5" width="10" height="5" fill="#000000" stroke="none" pointer-events="all"/></g><g><rect x="103" y="0.5" width="10" height="5" fill="#000000" stroke="none" pointer-events="all"/></g><g><rect x="114.5" y="0.5" width="10" height="5" fill="#000000" stroke="none" pointer-events="all"/></g><g><rect x="126" y="0.5" width="10" height="5" fill="#000000" stroke="none" pointer-events="all"/></g><g><rect x="137.5" y="0.5" width="10" height="5" fill="#000000" stroke="none" pointer-events="all"/></g><g><rect x="149" y="0.5" width="10" height="5" fill="#000000" stroke="none" pointer-events="all"/></g><g><rect x="160.5" y="0.5" width="10" height="5" fill="#000000" stroke="none" pointer-events="all"/></g><g><rect x="172" y="0.5" width="10" height="5" fill="#000000" stroke="none" pointer-events="all"/></g><g><rect x="21" y="0.5" width="10" height="5" fill="#000000" stroke="none" pointer-events="all"/></g><g><rect x="78.5" y="0.5" width="10" height="5" fill="#000000" stroke="none" pointer-events="all"/></g><g><rect x="90" y="0.5" width="10" height="5" fill="#000000" stroke="none" pointer-events="all"/></g><g><rect x="44.75" y="0.5" width="20" height="5" fill="#000000" stroke="none" pointer-events="all"/></g><g><rect x="31.75" y="1.5" width="46" height="4" fill="#222222" stroke="#000000" stroke-width="0.1" pointer-events="all"/></g><g><rect x="39.75" y="1.5" width="30" height="4" fill="#333333" stroke="#000000" stroke-width="0.1" pointer-events="all"/></g><g><rect x="431.75" y="5.5" width="31" height="20" rx="3" ry="3" fill="#121212" stroke="none" pointer-events="all"/></g><g><ellipse cx="439.25" cy="8" rx="1.5" ry="1.5" fill="#60a917" stroke="#000000" stroke-width="0.1" pointer-events="all"/></g><g><ellipse cx="454.75" cy="19.5" rx="3.5" ry="3.5" fill="#6f0000" stroke="#000000" stroke-width="0.1" pointer-events="all"/></g><g><ellipse cx="439.75" cy="19.5" rx="3.5" ry="3.5" fill="#cccccc" stroke="#000000" stroke-width="0.1" pointer-events="all"/></g><g><path d="M 449.75 13 L 449.75 11 C 449.75 10.72 450.42 10.5 451.25 10.5 C 452.08 10.5 452.75 10.72 452.75 11 L 452.75 13 C 452.75 13.28 452.08 13.5 451.25 13.5 C 450.42 13.5 449.75 13.28 449.75 13 Z" fill="none" stroke="rgb(240, 240, 240)" stroke-width="0.1" stroke-miterlimit="10" pointer-events="all"/><path d="M 449.75 11 C 449.75 11.28 450.42 11.5 451.25 11.5 C 452.08 11.5 452.75 11.28 452.75 11" fill="none" stroke="rgb(240, 240, 240)" stroke-width="0.1" stroke-miterlimit="10" pointer-events="all"/></g><g><rect x="441.75" y="10.5" width="3" height="3" fill="none" stroke="none" pointer-events="all"/><path d="M 442.94 10.5 L 442.94 11.13 L 443.19 11.13 L 443.19 11.72 L 442.04 11.72 C 442.03 11.72 442.02 11.73 442 11.74 C 441.99 11.75 441.99 11.77 441.99 11.78 L 441.99 12.87 L 441.75 12.87 L 441.75 13.5 L 442.37 13.5 L 442.37 12.87 L 442.1 12.87 L 442.1 11.84 L 443.19 11.84 L 443.19 12.61 L 442.94 12.61 L 442.94 13.24 L 443.55 13.24 L 443.55 12.61 L 443.3 12.61 L 443.3 11.84 L 444.39 11.84 L 444.39 12.87 L 444.13 12.87 L 444.13 13.5 L 444.75 13.5 L 444.75 12.87 L 444.5 12.87 L 444.5 11.78 C 444.5 11.77 444.5 11.75 444.49 11.74 C 444.48 11.73 444.46 11.73 444.45 11.73 L 443.3 11.72 L 443.3 11.13 L 443.55 11.13 L 443.55 10.5 Z" fill="#ffffff" stroke="none" pointer-events="all"/></g><g><path d="M 437.75 10.5 L 440.75 12 L 437.75 13.5 Z" fill="none" stroke="rgb(240, 240, 240)" stroke-width="0.1" stroke-miterlimit="10" transform="rotate(-90,439.25,12)" pointer-events="all"/></g><g><path d="M 455.24 11.97 C 455.33 11.97 455.4 11.9 455.4 11.82 L 455.4 11.22 C 455.4 11.14 455.34 11.07 455.25 11.07 C 455.16 11.07 455.1 11.14 455.1 11.21 L 455.1 11.82 C 455.1 11.9 455.17 11.97 455.24 11.97 Z M 455.25 12.93 C 455.72 12.93 456.12 12.55 456.12 12.08 C 456.12 11.84 456.03 11.57 455.77 11.38 C 455.72 11.34 455.62 11.36 455.58 11.42 C 455.54 11.48 455.53 11.56 455.6 11.62 C 455.73 11.73 455.82 11.89 455.82 12.06 C 455.82 12.39 455.54 12.63 455.26 12.63 C 454.98 12.63 454.7 12.43 454.69 12.07 C 454.68 11.92 454.76 11.72 454.91 11.62 C 454.96 11.58 454.98 11.48 454.92 11.41 C 454.86 11.34 454.76 11.35 454.72 11.38 C 454.5 11.56 454.39 11.77 454.39 12.05 C 454.39 12.57 454.79 12.93 455.25 12.93 Z M 455.25 13.5 C 454.39 13.5 453.75 12.81 453.75 11.99 C 453.75 11.18 454.42 10.5 455.26 10.5 C 456.04 10.5 456.75 11.13 456.75 11.99 C 456.75 12.89 456.03 13.5 455.25 13.5 Z" fill="none" stroke="rgb(240, 240, 240)" stroke-width="0.1" stroke-miterlimit="10" pointer-events="all"/></g><g><ellipse cx="443.25" cy="8" rx="1.5" ry="1.5" fill="#60a917" stroke="#000000" stroke-width="0.1" pointer-events="all"/></g><g><ellipse cx="447.25" cy="8" rx="1.5" ry="1.5" fill="#60a917" stroke="#000000" stroke-width="0.1" pointer-events="all"/></g><g><ellipse cx="451.25" cy="8" rx="1.5" ry="1.5" fill="#60a917" stroke="#000000" stroke-width="0.1" pointer-events="all"/></g><g><ellipse cx="455.25" cy="8" rx="1.5" ry="1.5" fill="#60a917" stroke="#000000" stroke-width="0.1" pointer-events="all"/></g><g><rect x="445.75" y="10.5" width="3" height="3" fill="none" stroke="none" pointer-events="all"/><path d="M 446.94 10.5 L 446.94 11.13 L 447.19 11.13 L 447.19 11.72 L 446.04 11.72 C 446.03 11.72 446.02 11.73 446 11.74 C 445.99 11.75 445.99 11.77 445.99 11.78 L 445.99 12.87 L 445.75 12.87 L 445.75 13.5 L 446.37 13.5 L 446.37 12.87 L 446.1 12.87 L 446.1 11.84 L 447.19 11.84 L 447.19 12.61 L 446.94 12.61 L 446.94 13.24 L 447.55 13.24 L 447.55 12.61 L 447.3 12.61 L 447.3 11.84 L 448.39 11.84 L 448.39 12.87 L 448.13 12.87 L 448.13 13.5 L 448.75 13.5 L 448.75 12.87 L 448.5 12.87 L 448.5 11.78 C 448.5 11.77 448.5 11.75 448.49 11.74 C 448.48 11.73 448.46 11.73 448.45 11.73 L 447.3 11.72 L 447.3 11.13 L 447.55 11.13 L 447.55 10.5 Z" fill="#ffffff" stroke="none" pointer-events="all"/></g><g><rect x="42.75" y="1.5" width="24" height="4" fill="#333333" stroke="#000000" stroke-width="0.1" pointer-events="all"/></g><g><rect x="18.5" y="7.95" width="412" height="36" fill="#000000" stroke="none" pointer-events="all"/></g><g><rect x="20.5" y="9.95" width="80" height="15" fill="#222222" stroke="none" pointer-events="all"/></g><g><rect x="21.5" y="13.95" width="66" height="7" fill="#333333" stroke="none" pointer-events="all"/></g><g><path d="M 44.3 10.95 L 53.7 10.95 L 57.5 13.95 L 53.7 16.95 L 44.3 16.95 L 40.5 13.95 Z" fill="#111111" stroke="none" pointer-events="all"/></g><g><rect x="20.5" y="9.95" width="5" height="15" fill="#111111" stroke="none" pointer-events="all"/></g><g><path d="M 25.5 24.95 L 29.48 9.95 L 36.52 9.95 L 40.5 24.95 Z" fill="#111111" stroke="none" transform="rotate(90,33,17.45)" pointer-events="all"/></g><g><rect x="86.5" y="10.95" width="6" height="13" fill="#111111" stroke="none" pointer-events="all"/></g><g><rect x="92.5" y="10.95" width="4" height="13" fill="#333333" stroke="none" pointer-events="all"/></g><g><rect x="21" y="12.2" width="14" height="5" rx="2.5" ry="2.5" fill="url(#mx-gradient-222222-1-333333-1-e-0)" stroke="none" pointer-events="all"/></g><g><rect x="21" y="17.7" width="14" height="5" rx="2.5" ry="2.5" fill="url(#mx-gradient-222222-1-333333-1-e-0)" stroke="none" pointer-events="all"/></g><g><path d="M 93 15.95 L 96 17.45 L 93 18.95 Z" fill="#333333" stroke="#111111" stroke-width="0.1" stroke-miterlimit="10" transform="rotate(-180,94.5,17.45)" pointer-events="all"/></g><g><path d="M 44.3 17.95 L 53.7 17.95 L 57.5 20.95 L 53.7 23.95 L 44.3 23.95 L 40.5 20.95 Z" fill="#111111" stroke="none" pointer-events="all"/></g><g><path d="M 58.3 14.45 L 67.7 14.45 L 71.5 17.45 L 67.7 20.45 L 58.3 20.45 L 54.5 17.45 Z" fill="#111111" stroke="none" pointer-events="all"/></g><g><path d="M 72.3 17.95 L 81.7 17.95 L 85.5 20.95 L 81.7 23.95 L 72.3 23.95 L 68.5 20.95 Z" fill="#111111" stroke="none" pointer-events="all"/></g><g><path d="M 72.3 10.95 L 81.7 10.95 L 85.5 13.95 L 81.7 16.95 L 72.3 16.95 L 68.5 13.95 Z" fill="#111111" stroke="none" pointer-events="all"/></g><g><path d="M 54.5 17.45 L 58.3 14.45 L 67.7 14.45 L 71.5 17.45 Z" fill="#111111" stroke="none" pointer-events="all"/></g><g><path d="M 54.5 24.45 L 58.3 21.45 L 67.7 21.45 L 71.5 24.45 Z" fill="#111111" stroke="none" pointer-events="all"/></g><g><path d="M 54.5 13.45 L 58.3 10.45 L 67.7 10.45 L 71.5 13.45 Z" fill="#111111" stroke="none" transform="translate(0,11.95)scale(1,-1)translate(0,-11.95)" pointer-events="all"/></g><g><rect x="44" y="23.95" width="38" height="1" fill="#222222" stroke="none" pointer-events="all"/></g><g><rect x="44" y="9.95" width="38" height="1" fill="#222222" stroke="none" pointer-events="all"/></g><g><rect x="97" y="19.95" width="2" height="3" rx="0.3" ry="0.3" fill="#008a00" stroke="none" pointer-events="all"/></g><g><rect x="97" y="11.95" width="2" height="3" rx="0.3" ry="0.3" fill="#0050ef" stroke="none" pointer-events="all"/></g><g><rect x="102.5" y="9.95" width="80" height="15" fill="#222222" stroke="none" pointer-events="all"/></g><g><rect x="103.5" y="13.95" width="66" height="7" fill="#333333" stroke="none" pointer-events="all"/></g><g><path d="M 126.3 10.95 L 135.7 10.95 L 139.5 13.95 L 135.7 16.95 L 126.3 16.95 L 122.5 13.95 Z" fill="#111111" stroke="none" pointer-events="all"/></g><g><rect x="102.5" y="9.95" width="5" height="15" fill="#111111" stroke="none" pointer-events="all"/></g><g><path d="M 107.5 24.95 L 111.48 9.95 L 118.52 9.95 L 122.5 24.95 Z" fill="#111111" stroke="none" transform="rotate(90,115,17.45)" pointer-events="all"/></g><g><rect x="168.5" y="10.95" width="6" height="13" fill="#111111" stroke="none" pointer-events="all"/></g><g><rect x="174.5" y="10.95" width="4" height="13" fill="#333333" stroke="none" pointer-events="all"/></g><g><rect x="103" y="12.2" width="14" height="5" rx="2.5" ry="2.5" fill="url(#mx-gradient-222222-1-333333-1-e-0)" stroke="none" pointer-events="all"/></g><g><rect x="103" y="17.7" width="14" height="5" rx="2.5" ry="2.5" fill="url(#mx-gradient-222222-1-333333-1-e-0)" stroke="none" pointer-events="all"/></g><g><path d="M 175 15.95 L 178 17.45 L 175 18.95 Z" fill="#333333" stroke="#111111" stroke-width="0.1" stroke-miterlimit="10" transform="rotate(-180,176.5,17.45)" pointer-events="all"/></g><g><path d="M 126.3 17.95 L 135.7 17.95 L 139.5 20.95 L 135.7 23.95 L 126.3 23.95 L 122.5 20.95 Z" fill="#111111" stroke="none" pointer-events="all"/></g><g><path d="M 140.3 14.45 L 149.7 14.45 L 153.5 17.45 L 149.7 20.45 L 140.3 20.45 L 136.5 17.45 Z" fill="#111111" stroke="none" pointer-events="all"/></g><g><path d="M 154.3 17.95 L 163.7 17.95 L 167.5 20.95 L 163.7 23.95 L 154.3 23.95 L 150.5 20.95 Z" fill="#111111" stroke="none" pointer-events="all"/></g><g><path d="M 154.3 10.95 L 163.7 10.95 L 167.5 13.95 L 163.7 16.95 L 154.3 16.95 L 150.5 13.95 Z" fill="#111111" stroke="none" pointer-events="all"/></g><g><path d="M 136.5 17.45 L 140.3 14.45 L 149.7 14.45 L 153.5 17.45 Z" fill="#111111" stroke="none" pointer-events="all"/></g><g><path d="M 136.5 24.45 L 140.3 21.45 L 149.7 21.45 L 153.5 24.45 Z" fill="#111111" stroke="none" pointer-events="all"/></g><g><path d="M 136.5 13.45 L 140.3 10.45 L 149.7 10.45 L 153.5 13.45 Z" fill="#111111" stroke="none" transform="translate(0,11.95)scale(1,-1)translate(0,-11.95)" pointer-events="all"/></g><g><rect x="126" y="23.95" width="38" height="1" fill="#222222" stroke="none" pointer-events="all"/></g><g><rect x="126" y="9.95" width="38" height="1" fill="#222222" stroke="none" pointer-events="all"/></g><g><rect x="179" y="19.95" width="2" height="3" rx="0.3" ry="0.3" fill="#008a00" stroke="none" pointer-events="all"/></g><g><rect x="179" y="11.95" width="2" height="3" rx="0.3" ry="0.3" fill="#0050ef" stroke="none" pointer-events="all"/></g><g><rect x="20.5" y="26.95" width="80" height="15" fill="#222222" stroke="none" pointer-events="all"/></g><g><rect x="21.5" y="30.95" width="66" height="7" fill="#333333" stroke="none" pointer-events="all"/></g><g><path d="M 44.3 27.95 L 53.7 27.95 L 57.5 30.95 L 53.7 33.95 L 44.3 33.95 L 40.5 30.95 Z" fill="#111111" stroke="none" pointer-events="all"/></g><g><rect x="20.5" y="26.95" width="5" height="15" fill="#111111" stroke="none" pointer-events="all"/></g><g><path d="M 25.5 41.95 L 29.48 26.95 L 36.52 26.95 L 40.5 41.95 Z" fill="#111111" stroke="none" transform="rotate(90,33,34.45)" pointer-events="all"/></g><g><rect x="86.5" y="27.95" width="6" height="13" fill="#111111" stroke="none" pointer-events="all"/></g><g><rect x="92.5" y="27.95" width="4" height="13" fill="#333333" stroke="none" pointer-events="all"/></g><g><rect x="21" y="29.2" width="14" height="5" rx="2.5" ry="2.5" fill="url(#mx-gradient-222222-1-333333-1-e-0)" stroke="none" pointer-events="all"/></g><g><rect x="21" y="34.7" width="14" height="5" rx="2.5" ry="2.5" fill="url(#mx-gradient-222222-1-333333-1-e-0)" stroke="none" pointer-events="all"/></g><g><path d="M 93 32.95 L 96 34.45 L 93 35.95 Z" fill="#333333" stroke="#111111" stroke-width="0.1" stroke-miterlimit="10" transform="rotate(-180,94.5,34.45)" pointer-events="all"/></g><g><path d="M 44.3 34.95 L 53.7 34.95 L 57.5 37.95 L 53.7 40.95 L 44.3 40.95 L 40.5 37.95 Z" fill="#111111" stroke="none" pointer-events="all"/></g><g><path d="M 58.3 31.45 L 67.7 31.45 L 71.5 34.45 L 67.7 37.45 L 58.3 37.45 L 54.5 34.45 Z" fill="#111111" stroke="none" pointer-events="all"/></g><g><path d="M 72.3 34.95 L 81.7 34.95 L 85.5 37.95 L 81.7 40.95 L 72.3 40.95 L 68.5 37.95 Z" fill="#111111" stroke="none" pointer-events="all"/></g><g><path d="M 72.3 27.95 L 81.7 27.95 L 85.5 30.95 L 81.7 33.95 L 72.3 33.95 L 68.5 30.95 Z" fill="#111111" stroke="none" pointer-events="all"/></g><g><path d="M 54.5 34.45 L 58.3 31.45 L 67.7 31.45 L 71.5 34.45 Z" fill="#111111" stroke="none" pointer-events="all"/></g><g><path d="M 54.5 41.45 L 58.3 38.45 L 67.7 38.45 L 71.5 41.45 Z" fill="#111111" stroke="none" pointer-events="all"/></g><g><path d="M 54.5 30.45 L 58.3 27.45 L 67.7 27.45 L 71.5 30.45 Z" fill="#111111" stroke="none" transform="translate(0,28.95)scale(1,-1)translate(0,-28.95)" pointer-events="all"/></g><g><rect x="44" y="40.95" width="38" height="1" fill="#222222" stroke="none" pointer-events="all"/></g><g><rect x="44" y="26.95" width="38" height="1" fill="#222222" stroke="none" pointer-events="all"/></g><g><rect x="97" y="36.95" width="2" height="3" rx="0.3" ry="0.3" fill="#008a00" stroke="none" pointer-events="all"/></g><g><rect x="97" y="28.95" width="2" height="3" rx="0.3" ry="0.3" fill="#0050ef" stroke="none" pointer-events="all"/></g><g><rect x="102.5" y="26.95" width="80" height="15" fill="#222222" stroke="none" pointer-events="all"/></g><g><rect x="103.5" y="30.95" width="66" height="7" fill="#333333" stroke="none" pointer-events="all"/></g><g><path d="M 126.3 27.95 L 135.7 27.95 L 139.5 30.95 L 135.7 33.95 L 126.3 33.95 L 122.5 30.95 Z" fill="#111111" stroke="none" pointer-events="all"/></g><g><rect x="102.5" y="26.95" width="5" height="15" fill="#111111" stroke="none" pointer-events="all"/></g><g><path d="M 107.5 41.95 L 111.48 26.95 L 118.52 26.95 L 122.5 41.95 Z" fill="#111111" stroke="none" transform="rotate(90,115,34.45)" pointer-events="all"/></g><g><rect x="168.5" y="27.95" width="6" height="13" fill="#111111" stroke="none" pointer-events="all"/></g><g><rect x="174.5" y="27.95" width="4" height="13" fill="#333333" stroke="none" pointer-events="all"/></g><g><rect x="103" y="29.2" width="14" height="5" rx="2.5" ry="2.5" fill="url(#mx-gradient-222222-1-333333-1-e-0)" stroke="none" pointer-events="all"/></g><g><rect x="103" y="34.7" width="14" height="5" rx="2.5" ry="2.5" fill="url(#mx-gradient-222222-1-333333-1-e-0)" stroke="none" pointer-events="all"/></g><g><path d="M 175 32.95 L 178 34.45 L 175 35.95 Z" fill="#333333" stroke="#111111" stroke-width="0.1" stroke-miterlimit="10" transform="rotate(-180,176.5,34.45)" pointer-events="all"/></g><g><path d="M 126.3 34.95 L 135.7 34.95 L 139.5 37.95 L 135.7 40.95 L 126.3 40.95 L 122.5 37.95 Z" fill="#111111" stroke="none" pointer-events="all"/></g><g><path d="M 140.3 31.45 L 149.7 31.45 L 153.5 34.45 L 149.7 37.45 L 140.3 37.45 L 136.5 34.45 Z" fill="#111111" stroke="none" pointer-events="all"/></g><g><path d="M 154.3 34.95 L 163.7 34.95 L 167.5 37.95 L 163.7 40.95 L 154.3 40.95 L 150.5 37.95 Z" fill="#111111" stroke="none" pointer-events="all"/></g><g><path d="M 154.3 27.95 L 163.7 27.95 L 167.5 30.95 L 163.7 33.95 L 154.3 33.95 L 150.5 30.95 Z" fill="#111111" stroke="none" pointer-events="all"/></g><g><path d="M 136.5 34.45 L 140.3 31.45 L 149.7 31.45 L 153.5 34.45 Z" fill="#111111" stroke="none" pointer-events="all"/></g><g><path d="M 136.5 41.45 L 140.3 38.45 L 149.7 38.45 L 153.5 41.45 Z" fill="#111111" stroke="none" pointer-events="all"/></g><g><path d="M 136.5 30.45 L 140.3 27.45 L 149.7 27.45 L 153.5 30.45 Z" fill="#111111" stroke="none" transform="translate(0,28.95)scale(1,-1)translate(0,-28.95)" pointer-events="all"/></g><g><rect x="126" y="40.95" width="38" height="1" fill="#222222" stroke="none" pointer-events="all"/></g><g><rect x="126" y="26.95" width="38" height="1" fill="#222222" stroke="none" pointer-events="all"/></g><g><rect x="179" y="36.95" width="2" height="3" rx="0.3" ry="0.3" fill="#008a00" stroke="none" pointer-events="all"/></g><g><rect x="179" y="28.95" width="2" height="3" rx="0.3" ry="0.3" fill="#0050ef" stroke="none" pointer-events="all"/></g><g><rect x="184.5" y="9.95" width="80" height="15" fill="#222222" stroke="none" pointer-events="all"/></g><g><rect x="185.5" y="13.95" width="66" height="7" fill="#333333" stroke="none" pointer-events="all"/></g><g><path d="M 208.3 10.95 L 217.7 10.95 L 221.5 13.95 L 217.7 16.95 L 208.3 16.95 L 204.5 13.95 Z" fill="#111111" stroke="none" pointer-events="all"/></g><g><rect x="184.5" y="9.95" width="5" height="15" fill="#111111" stroke="none" pointer-events="all"/></g><g><path d="M 189.5 24.95 L 193.48 9.95 L 200.52 9.95 L 204.5 24.95 Z" fill="#111111" stroke="none" transform="rotate(90,197,17.45)" pointer-events="all"/></g><g><rect x="250.5" y="10.95" width="6" height="13" fill="#111111" stroke="none" pointer-events="all"/></g><g><rect x="256.5" y="10.95" width="4" height="13" fill="#333333" stroke="none" pointer-events="all"/></g><g><rect x="185" y="12.2" width="14" height="5" rx="2.5" ry="2.5" fill="url(#mx-gradient-222222-1-333333-1-e-0)" stroke="none" pointer-events="all"/></g><g><rect x="185" y="17.7" width="14" height="5" rx="2.5" ry="2.5" fill="url(#mx-gradient-222222-1-333333-1-e-0)" stroke="none" pointer-events="all"/></g><g><path d="M 257 15.95 L 260 17.45 L 257 18.95 Z" fill="#333333" stroke="#111111" stroke-width="0.1" stroke-miterlimit="10" transform="rotate(-180,258.5,17.45)" pointer-events="all"/></g><g><path d="M 208.3 17.95 L 217.7 17.95 L 221.5 20.95 L 217.7 23.95 L 208.3 23.95 L 204.5 20.95 Z" fill="#111111" stroke="none" pointer-events="all"/></g><g><path d="M 222.3 14.45 L 231.7 14.45 L 235.5 17.45 L 231.7 20.45 L 222.3 20.45 L 218.5 17.45 Z" fill="#111111" stroke="none" pointer-events="all"/></g><g><path d="M 236.3 17.95 L 245.7 17.95 L 249.5 20.95 L 245.7 23.95 L 236.3 23.95 L 232.5 20.95 Z" fill="#111111" stroke="none" pointer-events="all"/></g><g><path d="M 236.3 10.95 L 245.7 10.95 L 249.5 13.95 L 245.7 16.95 L 236.3 16.95 L 232.5 13.95 Z" fill="#111111" stroke="none" pointer-events="all"/></g><g><path d="M 218.5 17.45 L 222.3 14.45 L 231.7 14.45 L 235.5 17.45 Z" fill="#111111" stroke="none" pointer-events="all"/></g><g><path d="M 218.5 24.45 L 222.3 21.45 L 231.7 21.45 L 235.5 24.45 Z" fill="#111111" stroke="none" pointer-events="all"/></g><g><path d="M 218.5 13.45 L 222.3 10.45 L 231.7 10.45 L 235.5 13.45 Z" fill="#111111" stroke="none" transform="translate(0,11.95)scale(1,-1)translate(0,-11.95)" pointer-events="all"/></g><g><rect x="208" y="23.95" width="38" height="1" fill="#222222" stroke="none" pointer-events="all"/></g><g><rect x="208" y="9.95" width="38" height="1" fill="#222222" stroke="none" pointer-events="all"/></g><g><rect x="261" y="19.95" width="2" height="3" rx="0.3" ry="0.3" fill="#008a00" stroke="none" pointer-events="all"/></g><g><rect x="261" y="11.95" width="2" height="3" rx="0.3" ry="0.3" fill="#0050ef" stroke="none" pointer-events="all"/></g><g><rect x="266.5" y="9.95" width="80" height="15" fill="#222222" stroke="none" pointer-events="all"/></g><g><rect x="267.5" y="13.95" width="66" height="7" fill="#333333" stroke="none" pointer-events="all"/></g><g><path d="M 290.3 10.95 L 299.7 10.95 L 303.5 13.95 L 299.7 16.95 L 290.3 16.95 L 286.5 13.95 Z" fill="#111111" stroke="none" pointer-events="all"/></g><g><rect x="266.5" y="9.95" width="5" height="15" fill="#111111" stroke="none" pointer-events="all"/></g><g><path d="M 271.5 24.95 L 275.48 9.95 L 282.52 9.95 L 286.5 24.95 Z" fill="#111111" stroke="none" transform="rotate(90,279,17.45)" pointer-events="all"/></g><g><rect x="332.5" y="10.95" width="6" height="13" fill="#111111" stroke="none" pointer-events="all"/></g><g><rect x="338.5" y="10.95" width="4" height="13" fill="#333333" stroke="none" pointer-events="all"/></g><g><rect x="267" y="12.2" width="14" height="5" rx="2.5" ry="2.5" fill="url(#mx-gradient-222222-1-333333-1-e-0)" stroke="none" pointer-events="all"/></g><g><rect x="267" y="17.7" width="14" height="5" rx="2.5" ry="2.5" fill="url(#mx-gradient-222222-1-333333-1-e-0)" stroke="none" pointer-events="all"/></g><g><path d="M 339 15.95 L 342 17.45 L 339 18.95 Z" fill="#333333" stroke="#111111" stroke-width="0.1" stroke-miterlimit="10" transform="rotate(-180,340.5,17.45)" pointer-events="all"/></g><g><path d="M 290.3 17.95 L 299.7 17.95 L 303.5 20.95 L 299.7 23.95 L 290.3 23.95 L 286.5 20.95 Z" fill="#111111" stroke="none" pointer-events="all"/></g><g><path d="M 304.3 14.45 L 313.7 14.45 L 317.5 17.45 L 313.7 20.45 L 304.3 20.45 L 300.5 17.45 Z" fill="#111111" stroke="none" pointer-events="all"/></g><g><path d="M 318.3 17.95 L 327.7 17.95 L 331.5 20.95 L 327.7 23.95 L 318.3 23.95 L 314.5 20.95 Z" fill="#111111" stroke="none" pointer-events="all"/></g><g><path d="M 318.3 10.95 L 327.7 10.95 L 331.5 13.95 L 327.7 16.95 L 318.3 16.95 L 314.5 13.95 Z" fill="#111111" stroke="none" pointer-events="all"/></g><g><path d="M 300.5 17.45 L 304.3 14.45 L 313.7 14.45 L 317.5 17.45 Z" fill="#111111" stroke="none" pointer-events="all"/></g><g><path d="M 300.5 24.45 L 304.3 21.45 L 313.7 21.45 L 317.5 24.45 Z" fill="#111111" stroke="none" pointer-events="all"/></g><g><path d="M 300.5 13.45 L 304.3 10.45 L 313.7 10.45 L 317.5 13.45 Z" fill="#111111" stroke="none" transform="translate(0,11.95)scale(1,-1)translate(0,-11.95)" pointer-events="all"/></g><g><rect x="290" y="23.95" width="38" height="1" fill="#222222" stroke="none" pointer-events="all"/></g><g><rect x="290" y="9.95" width="38" height="1" fill="#222222" stroke="none" pointer-events="all"/></g><g><rect x="343" y="19.95" width="2" height="3" rx="0.3" ry="0.3" fill="#008a00" stroke="none" pointer-events="all"/></g><g><rect x="343" y="11.95" width="2" height="3" rx="0.3" ry="0.3" fill="#0050ef" stroke="none" pointer-events="all"/></g><g><rect x="184.5" y="26.95" width="80" height="15" fill="#222222" stroke="none" pointer-events="all"/></g><g><rect x="185.5" y="30.95" width="66" height="7" fill="#333333" stroke="none" pointer-events="all"/></g><g><path d="M 208.3 27.95 L 217.7 27.95 L 221.5 30.95 L 217.7 33.95 L 208.3 33.95 L 204.5 30.95 Z" fill="#111111" stroke="none" pointer-events="all"/></g><g><rect x="184.5" y="26.95" width="5" height="15" fill="#111111" stroke="none" pointer-events="all"/></g><g><path d="M 189.5 41.95 L 193.48 26.95 L 200.52 26.95 L 204.5 41.95 Z" fill="#111111" stroke="none" transform="rotate(90,197,34.45)" pointer-events="all"/></g><g><rect x="250.5" y="27.95" width="6" height="13" fill="#111111" stroke="none" pointer-events="all"/></g><g><rect x="256.5" y="27.95" width="4" height="13" fill="#333333" stroke="none" pointer-events="all"/></g><g><rect x="185" y="29.2" width="14" height="5" rx="2.5" ry="2.5" fill="url(#mx-gradient-222222-1-333333-1-e-0)" stroke="none" pointer-events="all"/></g><g><rect x="185" y="34.7" width="14" height="5" rx="2.5" ry="2.5" fill="url(#mx-gradient-222222-1-333333-1-e-0)" stroke="none" pointer-events="all"/></g><g><path d="M 257 32.95 L 260 34.45 L 257 35.95 Z" fill="#333333" stroke="#111111" stroke-width="0.1" stroke-miterlimit="10" transform="rotate(-180,258.5,34.45)" pointer-events="all"/></g><g><path d="M 208.3 34.95 L 217.7 34.95 L 221.5 37.95 L 217.7 40.95 L 208.3 40.95 L 204.5 37.95 Z" fill="#111111" stroke="none" pointer-events="all"/></g><g><path d="M 222.3 31.45 L 231.7 31.45 L 235.5 34.45 L 231.7 37.45 L 222.3 37.45 L 218.5 34.45 Z" fill="#111111" stroke="none" pointer-events="all"/></g><g><path d="M 236.3 34.95 L 245.7 34.95 L 249.5 37.95 L 245.7 40.95 L 236.3 40.95 L 232.5 37.95 Z" fill="#111111" stroke="none" pointer-events="all"/></g><g><path d="M 236.3 27.95 L 245.7 27.95 L 249.5 30.95 L 245.7 33.95 L 236.3 33.95 L 232.5 30.95 Z" fill="#111111" stroke="none" pointer-events="all"/></g><g><path d="M 218.5 34.45 L 222.3 31.45 L 231.7 31.45 L 235.5 34.45 Z" fill="#111111" stroke="none" pointer-events="all"/></g><g><path d="M 218.5 41.45 L 222.3 38.45 L 231.7 38.45 L 235.5 41.45 Z" fill="#111111" stroke="none" pointer-events="all"/></g><g><path d="M 218.5 30.45 L 222.3 27.45 L 231.7 27.45 L 235.5 30.45 Z" fill="#111111" stroke="none" transform="translate(0,28.95)scale(1,-1)translate(0,-28.95)" pointer-events="all"/></g><g><rect x="208" y="40.95" width="38" height="1" fill="#222222" stroke="none" pointer-events="all"/></g><g><rect x="208" y="26.95" width="38" height="1" fill="#222222" stroke="none" pointer-events="all"/></g><g><rect x="261" y="36.95" width="2" height="3" rx="0.3" ry="0.3" fill="#008a00" stroke="none" pointer-events="all"/></g><g><rect x="261" y="28.95" width="2" height="3" rx="0.3" ry="0.3" fill="#0050ef" stroke="none" pointer-events="all"/></g><g><rect x="266.5" y="26.95" width="80" height="15" fill="#222222" stroke="none" pointer-events="all"/></g><g><rect x="267.5" y="30.95" width="66" height="7" fill="#333333" stroke="none" pointer-events="all"/></g><g><path d="M 290.3 27.95 L 299.7 27.95 L 303.5 30.95 L 299.7 33.95 L 290.3 33.95 L 286.5 30.95 Z" fill="#111111" stroke="none" pointer-events="all"/></g><g><rect x="266.5" y="26.95" width="5" height="15" fill="#111111" stroke="none" pointer-events="all"/></g><g><path d="M 271.5 41.95 L 275.48 26.95 L 282.52 26.95 L 286.5 41.95 Z" fill="#111111" stroke="none" transform="rotate(90,279,34.45)" pointer-events="all"/></g><g><rect x="332.5" y="27.95" width="6" height="13" fill="#111111" stroke="none" pointer-events="all"/></g><g><rect x="338.5" y="27.95" width="4" height="13" fill="#333333" stroke="none" pointer-events="all"/></g><g><rect x="267" y="29.2" width="14" height="5" rx="2.5" ry="2.5" fill="url(#mx-gradient-222222-1-333333-1-e-0)" stroke="none" pointer-events="all"/></g><g><rect x="267" y="34.7" width="14" height="5" rx="2.5" ry="2.5" fill="url(#mx-gradient-222222-1-333333-1-e-0)" stroke="none" pointer-events="all"/></g><g><path d="M 339 32.95 L 342 34.45 L 339 35.95 Z" fill="#333333" stroke="#111111" stroke-width="0.1" stroke-miterlimit="10" transform="rotate(-180,340.5,34.45)" pointer-events="all"/></g><g><path d="M 290.3 34.95 L 299.7 34.95 L 303.5 37.95 L 299.7 40.95 L 290.3 40.95 L 286.5 37.95 Z" fill="#111111" stroke="none" pointer-events="all"/></g><g><path d="M 304.3 31.45 L 313.7 31.45 L 317.5 34.45 L 313.7 37.45 L 304.3 37.45 L 300.5 34.45 Z" fill="#111111" stroke="none" pointer-events="all"/></g><g><path d="M 318.3 34.95 L 327.7 34.95 L 331.5 37.95 L 327.7 40.95 L 318.3 40.95 L 314.5 37.95 Z" fill="#111111" stroke="none" pointer-events="all"/></g><g><path d="M 318.3 27.95 L 327.7 27.95 L 331.5 30.95 L 327.7 33.95 L 318.3 33.95 L 314.5 30.95 Z" fill="#111111" stroke="none" pointer-events="all"/></g><g><path d="M 300.5 34.45 L 304.3 31.45 L 313.7 31.45 L 317.5 34.45 Z" fill="#111111" stroke="none" pointer-events="all"/></g><g><path d="M 300.5 41.45 L 304.3 38.45 L 313.7 38.45 L 317.5 41.45 Z" fill="#111111" stroke="none" pointer-events="all"/></g><g><path d="M 300.5 30.45 L 304.3 27.45 L 313.7 27.45 L 317.5 30.45 Z" fill="#111111" stroke="none" transform="translate(0,28.95)scale(1,-1)translate(0,-28.95)" pointer-events="all"/></g><g><rect x="290" y="40.95" width="38" height="1" fill="#222222" stroke="none" pointer-events="all"/></g><g><rect x="290" y="26.95" width="38" height="1" fill="#222222" stroke="none" pointer-events="all"/></g><g><rect x="343" y="36.95" width="2" height="3" rx="0.3" ry="0.3" fill="#008a00" stroke="none" pointer-events="all"/></g><g><rect x="343" y="28.95" width="2" height="3" rx="0.3" ry="0.3" fill="#0050ef" stroke="none" pointer-events="all"/></g><g><rect x="348.5" y="9.95" width="80" height="15" fill="#222222" stroke="none" pointer-events="all"/></g><g><rect x="349.5" y="13.95" width="66" height="7" fill="#333333" stroke="none" pointer-events="all"/></g><g><path d="M 372.3 10.95 L 381.7 10.95 L 385.5 13.95 L 381.7 16.95 L 372.3 16.95 L 368.5 13.95 Z" fill="#111111" stroke="none" pointer-events="all"/></g><g><rect x="348.5" y="9.95" width="5" height="15" fill="#111111" stroke="none" pointer-events="all"/></g><g><path d="M 353.5 24.95 L 357.48 9.95 L 364.52 9.95 L 368.5 24.95 Z" fill="#111111" stroke="none" transform="rotate(90,361,17.45)" pointer-events="all"/></g><g><rect x="414.5" y="10.95" width="6" height="13" fill="#111111" stroke="none" pointer-events="all"/></g><g><rect x="420.5" y="10.95" width="4" height="13" fill="#333333" stroke="none" pointer-events="all"/></g><g><rect x="349" y="12.2" width="14" height="5" rx="2.5" ry="2.5" fill="url(#mx-gradient-222222-1-333333-1-e-0)" stroke="none" pointer-events="all"/></g><g><rect x="349" y="17.7" width="14" height="5" rx="2.5" ry="2.5" fill="url(#mx-gradient-222222-1-333333-1-e-0)" stroke="none" pointer-events="all"/></g><g><path d="M 421 15.95 L 424 17.45 L 421 18.95 Z" fill="#333333" stroke="#111111" stroke-width="0.1" stroke-miterlimit="10" transform="rotate(-180,422.5,17.45)" pointer-events="all"/></g><g><path d="M 372.3 17.95 L 381.7 17.95 L 385.5 20.95 L 381.7 23.95 L 372.3 23.95 L 368.5 20.95 Z" fill="#111111" stroke="none" pointer-events="all"/></g><g><path d="M 386.3 14.45 L 395.7 14.45 L 399.5 17.45 L 395.7 20.45 L 386.3 20.45 L 382.5 17.45 Z" fill="#111111" stroke="none" pointer-events="all"/></g><g><path d="M 400.3 17.95 L 409.7 17.95 L 413.5 20.95 L 409.7 23.95 L 400.3 23.95 L 396.5 20.95 Z" fill="#111111" stroke="none" pointer-events="all"/></g><g><path d="M 400.3 10.95 L 409.7 10.95 L 413.5 13.95 L 409.7 16.95 L 400.3 16.95 L 396.5 13.95 Z" fill="#111111" stroke="none" pointer-events="all"/></g><g><path d="M 382.5 17.45 L 386.3 14.45 L 395.7 14.45 L 399.5 17.45 Z" fill="#111111" stroke="none" pointer-events="all"/></g><g><path d="M 382.5 24.45 L 386.3 21.45 L 395.7 21.45 L 399.5 24.45 Z" fill="#111111" stroke="none" pointer-events="all"/></g><g><path d="M 382.5 13.45 L 386.3 10.45 L 395.7 10.45 L 399.5 13.45 Z" fill="#111111" stroke="none" transform="translate(0,11.95)scale(1,-1)translate(0,-11.95)" pointer-events="all"/></g><g><rect x="372" y="23.95" width="38" height="1" fill="#222222" stroke="none" pointer-events="all"/></g><g><rect x="372" y="9.95" width="38" height="1" fill="#222222" stroke="none" pointer-events="all"/></g><g><rect x="425" y="19.95" width="2" height="3" rx="0.3" ry="0.3" fill="#008a00" stroke="none" pointer-events="all"/></g><g><rect x="425" y="11.95" width="2" height="3" rx="0.3" ry="0.3" fill="#0050ef" stroke="none" pointer-events="all"/></g><g><rect x="348.5" y="26.95" width="80" height="15" fill="#222222" stroke="none" pointer-events="all"/></g><g><rect x="349.5" y="30.95" width="66" height="7" fill="#333333" stroke="none" pointer-events="all"/></g><g><path d="M 372.3 27.95 L 381.7 27.95 L 385.5 30.95 L 381.7 33.95 L 372.3 33.95 L 368.5 30.95 Z" fill="#111111" stroke="none" pointer-events="all"/></g><g><rect x="348.5" y="26.95" width="5" height="15" fill="#111111" stroke="none" pointer-events="all"/></g><g><path d="M 353.5 41.95 L 357.48 26.95 L 364.52 26.95 L 368.5 41.95 Z" fill="#111111" stroke="none" transform="rotate(90,361,34.45)" pointer-events="all"/></g><g><rect x="414.5" y="27.95" width="6" height="13" fill="#111111" stroke="none" pointer-events="all"/></g><g><rect x="420.5" y="27.95" width="4" height="13" fill="#333333" stroke="none" pointer-events="all"/></g><g><rect x="349" y="29.2" width="14" height="5" rx="2.5" ry="2.5" fill="url(#mx-gradient-222222-1-333333-1-e-0)" stroke="none" pointer-events="all"/></g><g><rect x="349" y="34.7" width="14" height="5" rx="2.5" ry="2.5" fill="url(#mx-gradient-222222-1-333333-1-e-0)" stroke="none" pointer-events="all"/></g><g><path d="M 421 32.95 L 424 34.45 L 421 35.95 Z" fill="#333333" stroke="#111111" stroke-width="0.1" stroke-miterlimit="10" transform="rotate(-180,422.5,34.45)" pointer-events="all"/></g><g><path d="M 372.3 34.95 L 381.7 34.95 L 385.5 37.95 L 381.7 40.95 L 372.3 40.95 L 368.5 37.95 Z" fill="#111111" stroke="none" pointer-events="all"/></g><g><path d="M 386.3 31.45 L 395.7 31.45 L 399.5 34.45 L 395.7 37.45 L 386.3 37.45 L 382.5 34.45 Z" fill="#111111" stroke="none" pointer-events="all"/></g><g><path d="M 400.3 34.95 L 409.7 34.95 L 413.5 37.95 L 409.7 40.95 L 400.3 40.95 L 396.5 37.95 Z" fill="#111111" stroke="none" pointer-events="all"/></g><g><path d="M 400.3 27.95 L 409.7 27.95 L 413.5 30.95 L 409.7 33.95 L 400.3 33.95 L 396.5 30.95 Z" fill="#111111" stroke="none" pointer-events="all"/></g><g><path d="M 382.5 34.45 L 386.3 31.45 L 395.7 31.45 L 399.5 34.45 Z" fill="#111111" stroke="none" pointer-events="all"/></g><g><path d="M 382.5 41.45 L 386.3 38.45 L 395.7 38.45 L 399.5 41.45 Z" fill="#111111" stroke="none" pointer-events="all"/></g><g><path d="M 382.5 30.45 L 386.3 27.45 L 395.7 27.45 L 399.5 30.45 Z" fill="#111111" stroke="none" transform="translate(0,28.95)scale(1,-1)translate(0,-28.95)" pointer-events="all"/></g><g><rect x="372" y="40.95" width="38" height="1" fill="#222222" stroke="none" pointer-events="all"/></g><g><rect x="372" y="26.95" width="38" height="1" fill="#222222" stroke="none" pointer-events="all"/></g><g><rect x="425" y="36.95" width="2" height="3" rx="0.3" ry="0.3" fill="#008a00" stroke="none" pointer-events="all"/></g><g><rect x="425" y="28.95" width="2" height="3" rx="0.3" ry="0.3" fill="#0050ef" stroke="none" pointer-events="all"/></g><g><rect x="439.25" y="28" width="16" height="6" fill="#111111" stroke="#aaaaaa" stroke-width="0.1" pointer-events="all"/></g><g><rect x="440.75" y="31.25" width="13" height="1.5" fill="#0050ef" stroke="none" pointer-events="all"/></g><g><rect x="439.25" y="36" width="16" height="6" fill="#111111" stroke="#aaaaaa" stroke-width="0.1" pointer-events="all"/></g><g><rect x="440.75" y="39.25" width="13" height="1.5" fill="#0050ef" stroke="none" pointer-events="all"/></g></g></svg>