<?xml version="1.0" encoding="UTF-8"?>
<!DOCTYPE svg PUBLIC "-//W3C//DTD SVG 1.1//EN" "http://www.w3.org/Graphics/SVG/1.1/DTD/svg11.dtd">
<svg xmlns="http://www.w3.org/2000/svg" xmlns:xlink="http://www.w3.org/1999/xlink" version="1.1" width="4836px" height="455px" viewBox="-0.5 -0.5 4836 455"><defs><linearGradient x1="0%" y1="0%" x2="100%" y2="0%" id="mx-gradient-222222-1-333333-1-e-0"><stop offset="0%" style="stop-color: rgb(34, 34, 34); stop-opacity: 1;"/><stop offset="100%" style="stop-color: rgb(51, 51, 51); stop-opacity: 1;"/></linearGradient></defs><g><g/><g><rect x="0" y="0" width="4826" height="444.5" fill="#bfbfbf" stroke="#aaaaaa" stroke-width="10" pointer-events="all"/></g><g><rect x="180" y="0" width="4466" height="444.5" fill="#222222" stroke="#aaaaaa" stroke-width="10" pointer-events="all"/></g><g><rect x="70" y="192.25" width="40" height="60" fill="#000000" stroke="none" pointer-events="all"/></g><g><ellipse cx="110" cy="222.25" rx="30" ry="30" fill="#000000" stroke="none" pointer-events="all"/></g><g><ellipse cx="70" cy="222.25" rx="30" ry="30" fill="#000000" stroke="none" pointer-events="all"/></g><g><rect x="4715.96" y="192.25" width="40" height="60" fill="#000000" stroke="none" pointer-events="all"/></g><g><ellipse cx="4755.96" cy="222.25" rx="30" ry="30" fill="#000000" stroke="none" pointer-events="all"/></g><g><ellipse cx="4715.96" cy="222.25" rx="30" ry="30" fill="#000000" stroke="none" pointer-events="all"/></g><g><rect x="79.96" y="0" width="100" height="444.5" fill="#bfbfbf" stroke="#aaaaaa" stroke-width="10" pointer-events="all"/></g><g><rect x="4646" y="0" width="100" height="444.5" fill="#bfbfbf" stroke="#aaaaaa" stroke-width="10" pointer-events="all"/></g><g><rect x="3490" y="5" width="100" height="50" fill="#000000" stroke="none" pointer-events="all"/></g><g><rect x="3605" y="5" width="100" height="50" fill="#000000" stroke="none" pointer-events="all"/></g><g><rect x="3720" y="5" width="100" height="50" fill="#000000" stroke="none" pointer-events="all"/></g><g><rect x="3835" y="5" width="100" height="50" fill="#000000" stroke="none" pointer-events="all"/></g><g><rect x="3950" y="5" width="100" height="50" fill="#000000" stroke="none" pointer-events="all"/></g><g><rect x="4065" y="5" width="100" height="50" fill="#000000" stroke="none" pointer-events="all"/></g><g><rect x="4180" y="5" width="100" height="50" fill="#000000" stroke="none" pointer-events="all"/></g><g><rect x="2670" y="5" width="100" height="50" fill="#000000" stroke="none" pointer-events="all"/></g><g><rect x="2785" y="5" width="100" height="50" fill="#000000" stroke="none" pointer-events="all"/></g><g><rect x="2900" y="5" width="100" height="50" fill="#000000" stroke="none" pointer-events="all"/></g><g><rect x="3015" y="5" width="100" height="50" fill="#000000" stroke="none" pointer-events="all"/></g><g><rect x="3130" y="5" width="100" height="50" fill="#000000" stroke="none" pointer-events="all"/></g><g><rect x="3245" y="5" width="100" height="50" fill="#000000" stroke="none" pointer-events="all"/></g><g><rect x="3360" y="5" width="100" height="50" fill="#000000" stroke="none" pointer-events="all"/></g><g><rect x="1850" y="5" width="100" height="50" fill="#000000" stroke="none" pointer-events="all"/></g><g><rect x="1965" y="5" width="100" height="50" fill="#000000" stroke="none" pointer-events="all"/></g><g><rect x="2080" y="5" width="100" height="50" fill="#000000" stroke="none" pointer-events="all"/></g><g><rect x="2195" y="5" width="100" height="50" fill="#000000" stroke="none" pointer-events="all"/></g><g><rect x="2310" y="5" width="100" height="50" fill="#000000" stroke="none" pointer-events="all"/></g><g><rect x="2425" y="5" width="100" height="50" fill="#000000" stroke="none" pointer-events="all"/></g><g><rect x="2540" y="5" width="100" height="50" fill="#000000" stroke="none" pointer-events="all"/></g><g><rect x="1030" y="5" width="100" height="50" fill="#000000" stroke="none" pointer-events="all"/></g><g><rect x="1145" y="5" width="100" height="50" fill="#000000" stroke="none" pointer-events="all"/></g><g><rect x="1260" y="5" width="100" height="50" fill="#000000" stroke="none" pointer-events="all"/></g><g><rect x="1375" y="5" width="100" height="50" fill="#000000" stroke="none" pointer-events="all"/></g><g><rect x="1490" y="5" width="100" height="50" fill="#000000" stroke="none" pointer-events="all"/></g><g><rect x="1605" y="5" width="100" height="50" fill="#000000" stroke="none" pointer-events="all"/></g><g><rect x="1720" y="5" width="100" height="50" fill="#000000" stroke="none" pointer-events="all"/></g><g><rect x="210" y="5" width="100" height="50" fill="#000000" stroke="none" pointer-events="all"/></g><g><rect x="785" y="5" width="100" height="50" fill="#000000" stroke="none" pointer-events="all"/></g><g><rect x="900" y="5" width="100" height="50" fill="#000000" stroke="none" pointer-events="all"/></g><g><rect x="447.5" y="5" width="200" height="50" fill="#000000" stroke="none" pointer-events="all"/></g><g><rect x="317.5" y="15" width="460" height="40" fill="#222222" stroke="#000000" pointer-events="all"/></g><g><rect x="397.5" y="15" width="300" height="40" fill="#333333" stroke="#000000" pointer-events="all"/></g><g><rect x="4317.5" y="55" width="310" height="200" rx="30" ry="30" fill="#121212" stroke="none" pointer-events="all"/></g><g><ellipse cx="4392.5" cy="80" rx="15" ry="15" fill="#60a917" stroke="#000000" pointer-events="all"/></g><g><ellipse cx="4547.5" cy="195" rx="35" ry="35" fill="#6f0000" stroke="#000000" pointer-events="all"/></g><g><ellipse cx="4397.5" cy="195" rx="35" ry="35" fill="#cccccc" stroke="#000000" pointer-events="all"/></g><g><path d="M 4497.5 130 L 4497.5 110 C 4497.5 107.24 4504.22 105 4512.5 105 C 4520.78 105 4527.5 107.24 4527.5 110 L 4527.5 130 C 4527.5 132.76 4520.78 135 4512.5 135 C 4504.22 135 4497.5 132.76 4497.5 130 Z" fill="none" stroke="rgb(240, 240, 240)" stroke-miterlimit="10" pointer-events="all"/><path d="M 4497.5 110 C 4497.5 112.76 4504.22 115 4512.5 115 C 4520.78 115 4527.5 112.76 4527.5 110" fill="none" stroke="rgb(240, 240, 240)" stroke-miterlimit="10" pointer-events="all"/></g><g><rect x="4417.5" y="105" width="30" height="30" fill="none" stroke="none" pointer-events="all"/><path d="M 4429.36 105 L 4429.36 111.32 L 4431.93 111.32 L 4431.92 117.24 L 4420.44 117.23 C 4420.29 117.23 4420.15 117.29 4420.05 117.4 C 4419.94 117.51 4419.88 117.65 4419.88 117.8 L 4419.89 128.66 L 4417.5 128.66 L 4417.5 134.98 L 4423.66 134.98 L 4423.66 128.66 L 4421 128.66 L 4420.99 118.38 L 4431.92 118.39 L 4431.91 126.1 L 4429.35 126.1 L 4429.35 132.43 L 4435.51 132.43 L 4435.51 126.1 L 4433.02 126.1 L 4433.03 118.39 L 4443.93 118.4 L 4443.88 128.68 L 4441.34 128.68 L 4441.34 135 L 4447.5 135 L 4447.5 128.68 L 4444.99 128.68 L 4445.04 117.83 C 4445.04 117.68 4444.99 117.53 4444.88 117.43 C 4444.78 117.32 4444.64 117.26 4444.49 117.26 L 4433.03 117.25 L 4433.04 111.32 L 4435.52 111.32 L 4435.52 105 Z" fill="#ffffff" stroke="none" pointer-events="all"/></g><g><path d="M 4377.5 105 L 4407.5 120 L 4377.5 135 Z" fill="none" stroke="rgb(240, 240, 240)" stroke-miterlimit="10" transform="rotate(-90,4392.5,120)" pointer-events="all"/></g><g><path d="M 4552.44 119.67 C 4553.33 119.67 4553.96 119.04 4553.96 118.21 L 4553.96 112.2 C 4553.96 111.42 4553.43 110.69 4552.54 110.69 C 4551.65 110.69 4551.03 111.41 4551.03 112.06 L 4551.03 118.22 C 4551.03 119.03 4551.72 119.67 4552.44 119.67 Z M 4552.45 129.32 C 4557.22 129.32 4561.17 125.49 4561.17 120.75 C 4561.17 118.37 4560.31 115.69 4557.68 113.75 C 4557.2 113.37 4556.22 113.57 4555.78 114.16 C 4555.37 114.75 4555.34 115.61 4556 116.24 C 4557.31 117.28 4558.17 118.92 4558.17 120.6 C 4558.17 123.87 4555.37 126.3 4552.57 126.3 C 4549.81 126.3 4547.05 124.29 4546.85 120.69 C 4546.81 119.24 4547.63 117.18 4549.08 116.17 C 4549.58 115.76 4549.78 114.83 4549.17 114.12 C 4548.59 113.38 4547.64 113.5 4547.24 113.82 C 4545.01 115.64 4543.93 117.68 4543.88 120.49 C 4543.88 125.73 4547.87 129.32 4552.45 129.32 Z M 4552.49 135 C 4543.95 135 4537.5 128.07 4537.5 119.94 C 4537.5 111.77 4544.21 105 4552.64 105 C 4560.38 105 4567.5 111.26 4567.5 119.91 C 4567.5 128.94 4560.28 135 4552.49 135 Z" fill="none" stroke="rgb(240, 240, 240)" stroke-miterlimit="10" pointer-events="all"/></g><g><ellipse cx="4432.5" cy="80" rx="15" ry="15" fill="#60a917" stroke="#000000" pointer-events="all"/></g><g><ellipse cx="4472.5" cy="80" rx="15" ry="15" fill="#60a917" stroke="#000000" pointer-events="all"/></g><g><ellipse cx="4512.5" cy="80" rx="15" ry="15" fill="#60a917" stroke="#000000" pointer-events="all"/></g><g><ellipse cx="4552.5" cy="80" rx="15" ry="15" fill="#60a917" stroke="#000000" pointer-events="all"/></g><g><rect x="4457.5" y="105" width="30" height="30" fill="none" stroke="none" pointer-events="all"/><path d="M 4469.36 105 L 4469.36 111.32 L 4471.93 111.32 L 4471.92 117.24 L 4460.44 117.23 C 4460.29 117.23 4460.15 117.29 4460.05 117.4 C 4459.94 117.51 4459.88 117.65 4459.88 117.8 L 4459.89 128.66 L 4457.5 128.66 L 4457.5 134.98 L 4463.66 134.98 L 4463.66 128.66 L 4461 128.66 L 4460.99 118.38 L 4471.92 118.39 L 4471.91 126.1 L 4469.35 126.1 L 4469.35 132.43 L 4475.51 132.43 L 4475.51 126.1 L 4473.02 126.1 L 4473.03 118.39 L 4483.93 118.4 L 4483.88 128.68 L 4481.34 128.68 L 4481.34 135 L 4487.5 135 L 4487.5 128.68 L 4484.99 128.68 L 4485.04 117.83 C 4485.04 117.68 4484.99 117.53 4484.88 117.43 C 4484.78 117.32 4484.64 117.26 4484.49 117.26 L 4473.03 117.25 L 4473.04 111.32 L 4475.52 111.32 L 4475.52 105 Z" fill="#ffffff" stroke="none" pointer-events="all"/></g><g><rect x="427.5" y="15" width="240" height="40" fill="#333333" stroke="#000000" pointer-events="all"/></g><g><rect x="185" y="79.5" width="4120" height="360" fill="#000000" stroke="none" pointer-events="all"/></g><g><rect x="205" y="99.5" width="800" height="150" fill="#222222" stroke="none" pointer-events="all"/></g><g><rect x="215" y="139.5" width="660" height="70" fill="#333333" stroke="none" pointer-events="all"/></g><g><path d="M 443.02 109.5 L 536.98 109.5 L 575 139.5 L 536.98 169.5 L 443.02 169.5 L 405 139.5 Z" fill="#111111" stroke="none" pointer-events="all"/></g><g><rect x="205" y="99.5" width="50" height="150" fill="#111111" stroke="none" pointer-events="all"/></g><g><path d="M 255 249.5 L 294.77 99.5 L 365.23 99.5 L 405 249.5 Z" fill="#111111" stroke="none" transform="rotate(90,330,174.5)" pointer-events="all"/></g><g><rect x="865" y="109.5" width="60" height="130" fill="#111111" stroke="none" pointer-events="all"/></g><g><rect x="925" y="109.5" width="40" height="130" fill="#333333" stroke="none" pointer-events="all"/></g><g><rect x="210" y="122" width="140" height="50" rx="25" ry="25" fill="url(#mx-gradient-222222-1-333333-1-e-0)" stroke="none" pointer-events="all"/></g><g><rect x="210" y="177" width="140" height="50" rx="25" ry="25" fill="url(#mx-gradient-222222-1-333333-1-e-0)" stroke="none" pointer-events="all"/></g><g><path d="M 930 159.5 L 960 174.5 L 930 189.5 Z" fill="#333333" stroke="#111111" stroke-miterlimit="10" transform="rotate(-180,945,174.5)" pointer-events="all"/></g><g><path d="M 443.02 179.5 L 536.98 179.5 L 575 209.5 L 536.98 239.5 L 443.02 239.5 L 405 209.5 Z" fill="#111111" stroke="none" pointer-events="all"/></g><g><path d="M 583.02 144.5 L 676.98 144.5 L 715 174.5 L 676.98 204.5 L 583.02 204.5 L 545 174.5 Z" fill="#111111" stroke="none" pointer-events="all"/></g><g><path d="M 723.02 179.5 L 816.98 179.5 L 855 209.5 L 816.98 239.5 L 723.02 239.5 L 685 209.5 Z" fill="#111111" stroke="none" pointer-events="all"/></g><g><path d="M 723.02 109.5 L 816.98 109.5 L 855 139.5 L 816.98 169.5 L 723.02 169.5 L 685 139.5 Z" fill="#111111" stroke="none" pointer-events="all"/></g><g><path d="M 545 174.5 L 583 144.5 L 677 144.5 L 715 174.5 Z" fill="#111111" stroke="none" pointer-events="all"/></g><g><path d="M 545 244.5 L 583 214.5 L 677 214.5 L 715 244.5 Z" fill="#111111" stroke="none" pointer-events="all"/></g><g><path d="M 545 134.5 L 583 104.5 L 677 104.5 L 715 134.5 Z" fill="#111111" stroke="none" transform="translate(0,119.5)scale(1,-1)translate(0,-119.5)" pointer-events="all"/></g><g><rect x="440" y="239.5" width="380" height="10" fill="#222222" stroke="none" pointer-events="all"/></g><g><rect x="440" y="99.5" width="380" height="10" fill="#222222" stroke="none" pointer-events="all"/></g><g><rect x="970" y="199.5" width="20" height="30" rx="3" ry="3" fill="#008a00" stroke="none" pointer-events="all"/></g><g><rect x="970" y="119.5" width="20" height="30" rx="3" ry="3" fill="#0050ef" stroke="none" pointer-events="all"/></g><g><rect x="1025" y="99.5" width="800" height="150" fill="#222222" stroke="none" pointer-events="all"/></g><g><rect x="1035" y="139.5" width="660" height="70" fill="#333333" stroke="none" pointer-events="all"/></g><g><path d="M 1263.02 109.5 L 1356.98 109.5 L 1395 139.5 L 1356.98 169.5 L 1263.02 169.5 L 1225 139.5 Z" fill="#111111" stroke="none" pointer-events="all"/></g><g><rect x="1025" y="99.5" width="50" height="150" fill="#111111" stroke="none" pointer-events="all"/></g><g><path d="M 1075 249.5 L 1114.77 99.5 L 1185.23 99.5 L 1225 249.5 Z" fill="#111111" stroke="none" transform="rotate(90,1150,174.5)" pointer-events="all"/></g><g><rect x="1685" y="109.5" width="60" height="130" fill="#111111" stroke="none" pointer-events="all"/></g><g><rect x="1745" y="109.5" width="40" height="130" fill="#333333" stroke="none" pointer-events="all"/></g><g><rect x="1030" y="122" width="140" height="50" rx="25" ry="25" fill="url(#mx-gradient-222222-1-333333-1-e-0)" stroke="none" pointer-events="all"/></g><g><rect x="1030" y="177" width="140" height="50" rx="25" ry="25" fill="url(#mx-gradient-222222-1-333333-1-e-0)" stroke="none" pointer-events="all"/></g><g><path d="M 1750 159.5 L 1780 174.5 L 1750 189.5 Z" fill="#333333" stroke="#111111" stroke-miterlimit="10" transform="rotate(-180,1765,174.5)" pointer-events="all"/></g><g><path d="M 1263.02 179.5 L 1356.98 179.5 L 1395 209.5 L 1356.98 239.5 L 1263.02 239.5 L 1225 209.5 Z" fill="#111111" stroke="none" pointer-events="all"/></g><g><path d="M 1403.02 144.5 L 1496.98 144.5 L 1535 174.5 L 1496.98 204.5 L 1403.02 204.5 L 1365 174.5 Z" fill="#111111" stroke="none" pointer-events="all"/></g><g><path d="M 1543.02 179.5 L 1636.98 179.5 L 1675 209.5 L 1636.98 239.5 L 1543.02 239.5 L 1505 209.5 Z" fill="#111111" stroke="none" pointer-events="all"/></g><g><path d="M 1543.02 109.5 L 1636.98 109.5 L 1675 139.5 L 1636.98 169.5 L 1543.02 169.5 L 1505 139.5 Z" fill="#111111" stroke="none" pointer-events="all"/></g><g><path d="M 1365 174.5 L 1403 144.5 L 1497 144.5 L 1535 174.5 Z" fill="#111111" stroke="none" pointer-events="all"/></g><g><path d="M 1365 244.5 L 1403 214.5 L 1497 214.5 L 1535 244.5 Z" fill="#111111" stroke="none" pointer-events="all"/></g><g><path d="M 1365 134.5 L 1403 104.5 L 1497 104.5 L 1535 134.5 Z" fill="#111111" stroke="none" transform="translate(0,119.5)scale(1,-1)translate(0,-119.5)" pointer-events="all"/></g><g><rect x="1260" y="239.5" width="380" height="10" fill="#222222" stroke="none" pointer-events="all"/></g><g><rect x="1260" y="99.5" width="380" height="10" fill="#222222" stroke="none" pointer-events="all"/></g><g><rect x="1790" y="199.5" width="20" height="30" rx="3" ry="3" fill="#008a00" stroke="none" pointer-events="all"/></g><g><rect x="1790" y="119.5" width="20" height="30" rx="3" ry="3" fill="#0050ef" stroke="none" pointer-events="all"/></g><g><rect x="205" y="269.5" width="800" height="150" fill="#222222" stroke="none" pointer-events="all"/></g><g><rect x="215" y="309.5" width="660" height="70" fill="#333333" stroke="none" pointer-events="all"/></g><g><path d="M 443.02 279.5 L 536.98 279.5 L 575 309.5 L 536.98 339.5 L 443.02 339.5 L 405 309.5 Z" fill="#111111" stroke="none" pointer-events="all"/></g><g><rect x="205" y="269.5" width="50" height="150" fill="#111111" stroke="none" pointer-events="all"/></g><g><path d="M 255 419.5 L 294.77 269.5 L 365.23 269.5 L 405 419.5 Z" fill="#111111" stroke="none" transform="rotate(90,330,344.5)" pointer-events="all"/></g><g><rect x="865" y="279.5" width="60" height="130" fill="#111111" stroke="none" pointer-events="all"/></g><g><rect x="925" y="279.5" width="40" height="130" fill="#333333" stroke="none" pointer-events="all"/></g><g><rect x="210" y="292" width="140" height="50" rx="25" ry="25" fill="url(#mx-gradient-222222-1-333333-1-e-0)" stroke="none" pointer-events="all"/></g><g><rect x="210" y="347" width="140" height="50" rx="25" ry="25" fill="url(#mx-gradient-222222-1-333333-1-e-0)" stroke="none" pointer-events="all"/></g><g><path d="M 930 329.5 L 960 344.5 L 930 359.5 Z" fill="#333333" stroke="#111111" stroke-miterlimit="10" transform="rotate(-180,945,344.5)" pointer-events="all"/></g><g><path d="M 443.02 349.5 L 536.98 349.5 L 575 379.5 L 536.98 409.5 L 443.02 409.5 L 405 379.5 Z" fill="#111111" stroke="none" pointer-events="all"/></g><g><path d="M 583.02 314.5 L 676.98 314.5 L 715 344.5 L 676.98 374.5 L 583.02 374.5 L 545 344.5 Z" fill="#111111" stroke="none" pointer-events="all"/></g><g><path d="M 723.02 349.5 L 816.98 349.5 L 855 379.5 L 816.98 409.5 L 723.02 409.5 L 685 379.5 Z" fill="#111111" stroke="none" pointer-events="all"/></g><g><path d="M 723.02 279.5 L 816.98 279.5 L 855 309.5 L 816.98 339.5 L 723.02 339.5 L 685 309.5 Z" fill="#111111" stroke="none" pointer-events="all"/></g><g><path d="M 545 344.5 L 583 314.5 L 677 314.5 L 715 344.5 Z" fill="#111111" stroke="none" pointer-events="all"/></g><g><path d="M 545 414.5 L 583 384.5 L 677 384.5 L 715 414.5 Z" fill="#111111" stroke="none" pointer-events="all"/></g><g><path d="M 545 304.5 L 583 274.5 L 677 274.5 L 715 304.5 Z" fill="#111111" stroke="none" transform="translate(0,289.5)scale(1,-1)translate(0,-289.5)" pointer-events="all"/></g><g><rect x="440" y="409.5" width="380" height="10" fill="#222222" stroke="none" pointer-events="all"/></g><g><rect x="440" y="269.5" width="380" height="10" fill="#222222" stroke="none" pointer-events="all"/></g><g><rect x="970" y="369.5" width="20" height="30" rx="3" ry="3" fill="#008a00" stroke="none" pointer-events="all"/></g><g><rect x="970" y="289.5" width="20" height="30" rx="3" ry="3" fill="#0050ef" stroke="none" pointer-events="all"/></g><g><rect x="1025" y="269.5" width="800" height="150" fill="#222222" stroke="none" pointer-events="all"/></g><g><rect x="1035" y="309.5" width="660" height="70" fill="#333333" stroke="none" pointer-events="all"/></g><g><path d="M 1263.02 279.5 L 1356.98 279.5 L 1395 309.5 L 1356.98 339.5 L 1263.02 339.5 L 1225 309.5 Z" fill="#111111" stroke="none" pointer-events="all"/></g><g><rect x="1025" y="269.5" width="50" height="150" fill="#111111" stroke="none" pointer-events="all"/></g><g><path d="M 1075 419.5 L 1114.77 269.5 L 1185.23 269.5 L 1225 419.5 Z" fill="#111111" stroke="none" transform="rotate(90,1150,344.5)" pointer-events="all"/></g><g><rect x="1685" y="279.5" width="60" height="130" fill="#111111" stroke="none" pointer-events="all"/></g><g><rect x="1745" y="279.5" width="40" height="130" fill="#333333" stroke="none" pointer-events="all"/></g><g><rect x="1030" y="292" width="140" height="50" rx="25" ry="25" fill="url(#mx-gradient-222222-1-333333-1-e-0)" stroke="none" pointer-events="all"/></g><g><rect x="1030" y="347" width="140" height="50" rx="25" ry="25" fill="url(#mx-gradient-222222-1-333333-1-e-0)" stroke="none" pointer-events="all"/></g><g><path d="M 1750 329.5 L 1780 344.5 L 1750 359.5 Z" fill="#333333" stroke="#111111" stroke-miterlimit="10" transform="rotate(-180,1765,344.5)" pointer-events="all"/></g><g><path d="M 1263.02 349.5 L 1356.98 349.5 L 1395 379.5 L 1356.98 409.5 L 1263.02 409.5 L 1225 379.5 Z" fill="#111111" stroke="none" pointer-events="all"/></g><g><path d="M 1403.02 314.5 L 1496.98 314.5 L 1535 344.5 L 1496.98 374.5 L 1403.02 374.5 L 1365 344.5 Z" fill="#111111" stroke="none" pointer-events="all"/></g><g><path d="M 1543.02 349.5 L 1636.98 349.5 L 1675 379.5 L 1636.98 409.5 L 1543.02 409.5 L 1505 379.5 Z" fill="#111111" stroke="none" pointer-events="all"/></g><g><path d="M 1543.02 279.5 L 1636.98 279.5 L 1675 309.5 L 1636.98 339.5 L 1543.02 339.5 L 1505 309.5 Z" fill="#111111" stroke="none" pointer-events="all"/></g><g><path d="M 1365 344.5 L 1403 314.5 L 1497 314.5 L 1535 344.5 Z" fill="#111111" stroke="none" pointer-events="all"/></g><g><path d="M 1365 414.5 L 1403 384.5 L 1497 384.5 L 1535 414.5 Z" fill="#111111" stroke="none" pointer-events="all"/></g><g><path d="M 1365 304.5 L 1403 274.5 L 1497 274.5 L 1535 304.5 Z" fill="#111111" stroke="none" transform="translate(0,289.5)scale(1,-1)translate(0,-289.5)" pointer-events="all"/></g><g><rect x="1260" y="409.5" width="380" height="10" fill="#222222" stroke="none" pointer-events="all"/></g><g><rect x="1260" y="269.5" width="380" height="10" fill="#222222" stroke="none" pointer-events="all"/></g><g><rect x="1790" y="369.5" width="20" height="30" rx="3" ry="3" fill="#008a00" stroke="none" pointer-events="all"/></g><g><rect x="1790" y="289.5" width="20" height="30" rx="3" ry="3" fill="#0050ef" stroke="none" pointer-events="all"/></g><g><rect x="1845" y="99.5" width="800" height="150" fill="#222222" stroke="none" pointer-events="all"/></g><g><rect x="1855" y="139.5" width="660" height="70" fill="#333333" stroke="none" pointer-events="all"/></g><g><path d="M 2083.02 109.5 L 2176.98 109.5 L 2215 139.5 L 2176.98 169.5 L 2083.02 169.5 L 2045 139.5 Z" fill="#111111" stroke="none" pointer-events="all"/></g><g><rect x="1845" y="99.5" width="50" height="150" fill="#111111" stroke="none" pointer-events="all"/></g><g><path d="M 1895 249.5 L 1934.77 99.5 L 2005.23 99.5 L 2045 249.5 Z" fill="#111111" stroke="none" transform="rotate(90,1970,174.5)" pointer-events="all"/></g><g><rect x="2505" y="109.5" width="60" height="130" fill="#111111" stroke="none" pointer-events="all"/></g><g><rect x="2565" y="109.5" width="40" height="130" fill="#333333" stroke="none" pointer-events="all"/></g><g><rect x="1850" y="122" width="140" height="50" rx="25" ry="25" fill="url(#mx-gradient-222222-1-333333-1-e-0)" stroke="none" pointer-events="all"/></g><g><rect x="1850" y="177" width="140" height="50" rx="25" ry="25" fill="url(#mx-gradient-222222-1-333333-1-e-0)" stroke="none" pointer-events="all"/></g><g><path d="M 2570 159.5 L 2600 174.5 L 2570 189.5 Z" fill="#333333" stroke="#111111" stroke-miterlimit="10" transform="rotate(-180,2585,174.5)" pointer-events="all"/></g><g><path d="M 2083.02 179.5 L 2176.98 179.5 L 2215 209.5 L 2176.98 239.5 L 2083.02 239.5 L 2045 209.5 Z" fill="#111111" stroke="none" pointer-events="all"/></g><g><path d="M 2223.02 144.5 L 2316.98 144.5 L 2355 174.5 L 2316.98 204.5 L 2223.02 204.5 L 2185 174.5 Z" fill="#111111" stroke="none" pointer-events="all"/></g><g><path d="M 2363.02 179.5 L 2456.98 179.5 L 2495 209.5 L 2456.98 239.5 L 2363.02 239.5 L 2325 209.5 Z" fill="#111111" stroke="none" pointer-events="all"/></g><g><path d="M 2363.02 109.5 L 2456.98 109.5 L 2495 139.5 L 2456.98 169.5 L 2363.02 169.5 L 2325 139.5 Z" fill="#111111" stroke="none" pointer-events="all"/></g><g><path d="M 2185 174.5 L 2223 144.5 L 2317 144.5 L 2355 174.5 Z" fill="#111111" stroke="none" pointer-events="all"/></g><g><path d="M 2185 244.5 L 2223 214.5 L 2317 214.5 L 2355 244.5 Z" fill="#111111" stroke="none" pointer-events="all"/></g><g><path d="M 2185 134.5 L 2223 104.5 L 2317 104.5 L 2355 134.5 Z" fill="#111111" stroke="none" transform="translate(0,119.5)scale(1,-1)translate(0,-119.5)" pointer-events="all"/></g><g><rect x="2080" y="239.5" width="380" height="10" fill="#222222" stroke="none" pointer-events="all"/></g><g><rect x="2080" y="99.5" width="380" height="10" fill="#222222" stroke="none" pointer-events="all"/></g><g><rect x="2610" y="199.5" width="20" height="30" rx="3" ry="3" fill="#008a00" stroke="none" pointer-events="all"/></g><g><rect x="2610" y="119.5" width="20" height="30" rx="3" ry="3" fill="#0050ef" stroke="none" pointer-events="all"/></g><g><rect x="2665" y="99.5" width="800" height="150" fill="#222222" stroke="none" pointer-events="all"/></g><g><rect x="2675" y="139.5" width="660" height="70" fill="#333333" stroke="none" pointer-events="all"/></g><g><path d="M 2903.02 109.5 L 2996.98 109.5 L 3035 139.5 L 2996.98 169.5 L 2903.02 169.5 L 2865 139.5 Z" fill="#111111" stroke="none" pointer-events="all"/></g><g><rect x="2665" y="99.5" width="50" height="150" fill="#111111" stroke="none" pointer-events="all"/></g><g><path d="M 2715 249.5 L 2754.77 99.5 L 2825.23 99.5 L 2865 249.5 Z" fill="#111111" stroke="none" transform="rotate(90,2790,174.5)" pointer-events="all"/></g><g><rect x="3325" y="109.5" width="60" height="130" fill="#111111" stroke="none" pointer-events="all"/></g><g><rect x="3385" y="109.5" width="40" height="130" fill="#333333" stroke="none" pointer-events="all"/></g><g><rect x="2670" y="122" width="140" height="50" rx="25" ry="25" fill="url(#mx-gradient-222222-1-333333-1-e-0)" stroke="none" pointer-events="all"/></g><g><rect x="2670" y="177" width="140" height="50" rx="25" ry="25" fill="url(#mx-gradient-222222-1-333333-1-e-0)" stroke="none" pointer-events="all"/></g><g><path d="M 3390 159.5 L 3420 174.5 L 3390 189.5 Z" fill="#333333" stroke="#111111" stroke-miterlimit="10" transform="rotate(-180,3405,174.5)" pointer-events="all"/></g><g><path d="M 2903.02 179.5 L 2996.98 179.5 L 3035 209.5 L 2996.98 239.5 L 2903.02 239.5 L 2865 209.5 Z" fill="#111111" stroke="none" pointer-events="all"/></g><g><path d="M 3043.02 144.5 L 3136.98 144.5 L 3175 174.5 L 3136.98 204.5 L 3043.02 204.5 L 3005 174.5 Z" fill="#111111" stroke="none" pointer-events="all"/></g><g><path d="M 3183.02 179.5 L 3276.98 179.5 L 3315 209.5 L 3276.98 239.5 L 3183.02 239.5 L 3145 209.5 Z" fill="#111111" stroke="none" pointer-events="all"/></g><g><path d="M 3183.02 109.5 L 3276.98 109.5 L 3315 139.5 L 3276.98 169.5 L 3183.02 169.5 L 3145 139.5 Z" fill="#111111" stroke="none" pointer-events="all"/></g><g><path d="M 3005 174.5 L 3043 144.5 L 3137 144.5 L 3175 174.5 Z" fill="#111111" stroke="none" pointer-events="all"/></g><g><path d="M 3005 244.5 L 3043 214.5 L 3137 214.5 L 3175 244.5 Z" fill="#111111" stroke="none" pointer-events="all"/></g><g><path d="M 3005 134.5 L 3043 104.5 L 3137 104.5 L 3175 134.5 Z" fill="#111111" stroke="none" transform="translate(0,119.5)scale(1,-1)translate(0,-119.5)" pointer-events="all"/></g><g><rect x="2900" y="239.5" width="380" height="10" fill="#222222" stroke="none" pointer-events="all"/></g><g><rect x="2900" y="99.5" width="380" height="10" fill="#222222" stroke="none" pointer-events="all"/></g><g><rect x="3430" y="199.5" width="20" height="30" rx="3" ry="3" fill="#008a00" stroke="none" pointer-events="all"/></g><g><rect x="3430" y="119.5" width="20" height="30" rx="3" ry="3" fill="#0050ef" stroke="none" pointer-events="all"/></g><g><rect x="1845" y="269.5" width="800" height="150" fill="#222222" stroke="none" pointer-events="all"/></g><g><rect x="1855" y="309.5" width="660" height="70" fill="#333333" stroke="none" pointer-events="all"/></g><g><path d="M 2083.02 279.5 L 2176.98 279.5 L 2215 309.5 L 2176.98 339.5 L 2083.02 339.5 L 2045 309.5 Z" fill="#111111" stroke="none" pointer-events="all"/></g><g><rect x="1845" y="269.5" width="50" height="150" fill="#111111" stroke="none" pointer-events="all"/></g><g><path d="M 1895 419.5 L 1934.77 269.5 L 2005.23 269.5 L 2045 419.5 Z" fill="#111111" stroke="none" transform="rotate(90,1970,344.5)" pointer-events="all"/></g><g><rect x="2505" y="279.5" width="60" height="130" fill="#111111" stroke="none" pointer-events="all"/></g><g><rect x="2565" y="279.5" width="40" height="130" fill="#333333" stroke="none" pointer-events="all"/></g><g><rect x="1850" y="292" width="140" height="50" rx="25" ry="25" fill="url(#mx-gradient-222222-1-333333-1-e-0)" stroke="none" pointer-events="all"/></g><g><rect x="1850" y="347" width="140" height="50" rx="25" ry="25" fill="url(#mx-gradient-222222-1-333333-1-e-0)" stroke="none" pointer-events="all"/></g><g><path d="M 2570 329.5 L 2600 344.5 L 2570 359.5 Z" fill="#333333" stroke="#111111" stroke-miterlimit="10" transform="rotate(-180,2585,344.5)" pointer-events="all"/></g><g><path d="M 2083.02 349.5 L 2176.98 349.5 L 2215 379.5 L 2176.98 409.5 L 2083.02 409.5 L 2045 379.5 Z" fill="#111111" stroke="none" pointer-events="all"/></g><g><path d="M 2223.02 314.5 L 2316.98 314.5 L 2355 344.5 L 2316.98 374.5 L 2223.02 374.5 L 2185 344.5 Z" fill="#111111" stroke="none" pointer-events="all"/></g><g><path d="M 2363.02 349.5 L 2456.98 349.5 L 2495 379.5 L 2456.98 409.5 L 2363.02 409.5 L 2325 379.5 Z" fill="#111111" stroke="none" pointer-events="all"/></g><g><path d="M 2363.02 279.5 L 2456.98 279.5 L 2495 309.5 L 2456.98 339.5 L 2363.02 339.5 L 2325 309.5 Z" fill="#111111" stroke="none" pointer-events="all"/></g><g><path d="M 2185 344.5 L 2223 314.5 L 2317 314.5 L 2355 344.5 Z" fill="#111111" stroke="none" pointer-events="all"/></g><g><path d="M 2185 414.5 L 2223 384.5 L 2317 384.5 L 2355 414.5 Z" fill="#111111" stroke="none" pointer-events="all"/></g><g><path d="M 2185 304.5 L 2223 274.5 L 2317 274.5 L 2355 304.5 Z" fill="#111111" stroke="none" transform="translate(0,289.5)scale(1,-1)translate(0,-289.5)" pointer-events="all"/></g><g><rect x="2080" y="409.5" width="380" height="10" fill="#222222" stroke="none" pointer-events="all"/></g><g><rect x="2080" y="269.5" width="380" height="10" fill="#222222" stroke="none" pointer-events="all"/></g><g><rect x="2610" y="369.5" width="20" height="30" rx="3" ry="3" fill="#008a00" stroke="none" pointer-events="all"/></g><g><rect x="2610" y="289.5" width="20" height="30" rx="3" ry="3" fill="#0050ef" stroke="none" pointer-events="all"/></g><g><rect x="2665" y="269.5" width="800" height="150" fill="#222222" stroke="none" pointer-events="all"/></g><g><rect x="2675" y="309.5" width="660" height="70" fill="#333333" stroke="none" pointer-events="all"/></g><g><path d="M 2903.02 279.5 L 2996.98 279.5 L 3035 309.5 L 2996.98 339.5 L 2903.02 339.5 L 2865 309.5 Z" fill="#111111" stroke="none" pointer-events="all"/></g><g><rect x="2665" y="269.5" width="50" height="150" fill="#111111" stroke="none" pointer-events="all"/></g><g><path d="M 2715 419.5 L 2754.77 269.5 L 2825.23 269.5 L 2865 419.5 Z" fill="#111111" stroke="none" transform="rotate(90,2790,344.5)" pointer-events="all"/></g><g><rect x="3325" y="279.5" width="60" height="130" fill="#111111" stroke="none" pointer-events="all"/></g><g><rect x="3385" y="279.5" width="40" height="130" fill="#333333" stroke="none" pointer-events="all"/></g><g><rect x="2670" y="292" width="140" height="50" rx="25" ry="25" fill="url(#mx-gradient-222222-1-333333-1-e-0)" stroke="none" pointer-events="all"/></g><g><rect x="2670" y="347" width="140" height="50" rx="25" ry="25" fill="url(#mx-gradient-222222-1-333333-1-e-0)" stroke="none" pointer-events="all"/></g><g><path d="M 3390 329.5 L 3420 344.5 L 3390 359.5 Z" fill="#333333" stroke="#111111" stroke-miterlimit="10" transform="rotate(-180,3405,344.5)" pointer-events="all"/></g><g><path d="M 2903.02 349.5 L 2996.98 349.5 L 3035 379.5 L 2996.98 409.5 L 2903.02 409.5 L 2865 379.5 Z" fill="#111111" stroke="none" pointer-events="all"/></g><g><path d="M 3043.02 314.5 L 3136.98 314.5 L 3175 344.5 L 3136.98 374.5 L 3043.02 374.5 L 3005 344.5 Z" fill="#111111" stroke="none" pointer-events="all"/></g><g><path d="M 3183.02 349.5 L 3276.98 349.5 L 3315 379.5 L 3276.98 409.5 L 3183.02 409.5 L 3145 379.5 Z" fill="#111111" stroke="none" pointer-events="all"/></g><g><path d="M 3183.02 279.5 L 3276.98 279.5 L 3315 309.5 L 3276.98 339.5 L 3183.02 339.5 L 3145 309.5 Z" fill="#111111" stroke="none" pointer-events="all"/></g><g><path d="M 3005 344.5 L 3043 314.5 L 3137 314.5 L 3175 344.5 Z" fill="#111111" stroke="none" pointer-events="all"/></g><g><path d="M 3005 414.5 L 3043 384.5 L 3137 384.5 L 3175 414.5 Z" fill="#111111" stroke="none" pointer-events="all"/></g><g><path d="M 3005 304.5 L 3043 274.5 L 3137 274.5 L 3175 304.5 Z" fill="#111111" stroke="none" transform="translate(0,289.5)scale(1,-1)translate(0,-289.5)" pointer-events="all"/></g><g><rect x="2900" y="409.5" width="380" height="10" fill="#222222" stroke="none" pointer-events="all"/></g><g><rect x="2900" y="269.5" width="380" height="10" fill="#222222" stroke="none" pointer-events="all"/></g><g><rect x="3430" y="369.5" width="20" height="30" rx="3" ry="3" fill="#008a00" stroke="none" pointer-events="all"/></g><g><rect x="3430" y="289.5" width="20" height="30" rx="3" ry="3" fill="#0050ef" stroke="none" pointer-events="all"/></g><g><rect x="3485" y="99.5" width="800" height="150" fill="#222222" stroke="none" pointer-events="all"/></g><g><rect x="3495" y="139.5" width="660" height="70" fill="#333333" stroke="none" pointer-events="all"/></g><g><path d="M 3723.02 109.5 L 3816.98 109.5 L 3855 139.5 L 3816.98 169.5 L 3723.02 169.5 L 3685 139.5 Z" fill="#111111" stroke="none" pointer-events="all"/></g><g><rect x="3485" y="99.5" width="50" height="150" fill="#111111" stroke="none" pointer-events="all"/></g><g><path d="M 3535 249.5 L 3574.77 99.5 L 3645.23 99.5 L 3685 249.5 Z" fill="#111111" stroke="none" transform="rotate(90,3610,174.5)" pointer-events="all"/></g><g><rect x="4145" y="109.5" width="60" height="130" fill="#111111" stroke="none" pointer-events="all"/></g><g><rect x="4205" y="109.5" width="40" height="130" fill="#333333" stroke="none" pointer-events="all"/></g><g><rect x="3490" y="122" width="140" height="50" rx="25" ry="25" fill="url(#mx-gradient-222222-1-333333-1-e-0)" stroke="none" pointer-events="all"/></g><g><rect x="3490" y="177" width="140" height="50" rx="25" ry="25" fill="url(#mx-gradient-222222-1-333333-1-e-0)" stroke="none" pointer-events="all"/></g><g><path d="M 4210 159.5 L 4240 174.5 L 4210 189.5 Z" fill="#333333" stroke="#111111" stroke-miterlimit="10" transform="rotate(-180,4225,174.5)" pointer-events="all"/></g><g><path d="M 3723.02 179.5 L 3816.98 179.5 L 3855 209.5 L 3816.98 239.5 L 3723.02 239.5 L 3685 209.5 Z" fill="#111111" stroke="none" pointer-events="all"/></g><g><path d="M 3863.02 144.5 L 3956.98 144.5 L 3995 174.5 L 3956.98 204.5 L 3863.02 204.5 L 3825 174.5 Z" fill="#111111" stroke="none" pointer-events="all"/></g><g><path d="M 4003.02 179.5 L 4096.98 179.5 L 4135 209.5 L 4096.98 239.5 L 4003.02 239.5 L 3965 209.5 Z" fill="#111111" stroke="none" pointer-events="all"/></g><g><path d="M 4003.02 109.5 L 4096.98 109.5 L 4135 139.5 L 4096.98 169.5 L 4003.02 169.5 L 3965 139.5 Z" fill="#111111" stroke="none" pointer-events="all"/></g><g><path d="M 3825 174.5 L 3863 144.5 L 3957 144.5 L 3995 174.5 Z" fill="#111111" stroke="none" pointer-events="all"/></g><g><path d="M 3825 244.5 L 3863 214.5 L 3957 214.5 L 3995 244.5 Z" fill="#111111" stroke="none" pointer-events="all"/></g><g><path d="M 3825 134.5 L 3863 104.5 L 3957 104.5 L 3995 134.5 Z" fill="#111111" stroke="none" transform="translate(0,119.5)scale(1,-1)translate(0,-119.5)" pointer-events="all"/></g><g><rect x="3720" y="239.5" width="380" height="10" fill="#222222" stroke="none" pointer-events="all"/></g><g><rect x="3720" y="99.5" width="380" height="10" fill="#222222" stroke="none" pointer-events="all"/></g><g><rect x="4250" y="199.5" width="20" height="30" rx="3" ry="3" fill="#008a00" stroke="none" pointer-events="all"/></g><g><rect x="4250" y="119.5" width="20" height="30" rx="3" ry="3" fill="#0050ef" stroke="none" pointer-events="all"/></g><g><rect x="3485" y="269.5" width="800" height="150" fill="#222222" stroke="none" pointer-events="all"/></g><g><rect x="3495" y="309.5" width="660" height="70" fill="#333333" stroke="none" pointer-events="all"/></g><g><path d="M 3723.02 279.5 L 3816.98 279.5 L 3855 309.5 L 3816.98 339.5 L 3723.02 339.5 L 3685 309.5 Z" fill="#111111" stroke="none" pointer-events="all"/></g><g><rect x="3485" y="269.5" width="50" height="150" fill="#111111" stroke="none" pointer-events="all"/></g><g><path d="M 3535 419.5 L 3574.77 269.5 L 3645.23 269.5 L 3685 419.5 Z" fill="#111111" stroke="none" transform="rotate(90,3610,344.5)" pointer-events="all"/></g><g><rect x="4145" y="279.5" width="60" height="130" fill="#111111" stroke="none" pointer-events="all"/></g><g><rect x="4205" y="279.5" width="40" height="130" fill="#333333" stroke="none" pointer-events="all"/></g><g><rect x="3490" y="292" width="140" height="50" rx="25" ry="25" fill="url(#mx-gradient-222222-1-333333-1-e-0)" stroke="none" pointer-events="all"/></g><g><rect x="3490" y="347" width="140" height="50" rx="25" ry="25" fill="url(#mx-gradient-222222-1-333333-1-e-0)" stroke="none" pointer-events="all"/></g><g><path d="M 4210 329.5 L 4240 344.5 L 4210 359.5 Z" fill="#333333" stroke="#111111" stroke-miterlimit="10" transform="rotate(-180,4225,344.5)" pointer-events="all"/></g><g><path d="M 3723.02 349.5 L 3816.98 349.5 L 3855 379.5 L 3816.98 409.5 L 3723.02 409.5 L 3685 379.5 Z" fill="#111111" stroke="none" pointer-events="all"/></g><g><path d="M 3863.02 314.5 L 3956.98 314.5 L 3995 344.5 L 3956.98 374.5 L 3863.02 374.5 L 3825 344.5 Z" fill="#111111" stroke="none" pointer-events="all"/></g><g><path d="M 4003.02 349.5 L 4096.98 349.5 L 4135 379.5 L 4096.98 409.5 L 4003.02 409.5 L 3965 379.5 Z" fill="#111111" stroke="none" pointer-events="all"/></g><g><path d="M 4003.02 279.5 L 4096.98 279.5 L 4135 309.5 L 4096.98 339.5 L 4003.02 339.5 L 3965 309.5 Z" fill="#111111" stroke="none" pointer-events="all"/></g><g><path d="M 3825 344.5 L 3863 314.5 L 3957 314.5 L 3995 344.5 Z" fill="#111111" stroke="none" pointer-events="all"/></g><g><path d="M 3825 414.5 L 3863 384.5 L 3957 384.5 L 3995 414.5 Z" fill="#111111" stroke="none" pointer-events="all"/></g><g><path d="M 3825 304.5 L 3863 274.5 L 3957 274.5 L 3995 304.5 Z" fill="#111111" stroke="none" transform="translate(0,289.5)scale(1,-1)translate(0,-289.5)" pointer-events="all"/></g><g><rect x="3720" y="409.5" width="380" height="10" fill="#222222" stroke="none" pointer-events="all"/></g><g><rect x="3720" y="269.5" width="380" height="10" fill="#222222" stroke="none" pointer-events="all"/></g><g><rect x="4250" y="369.5" width="20" height="30" rx="3" ry="3" fill="#008a00" stroke="none" pointer-events="all"/></g><g><rect x="4250" y="289.5" width="20" height="30" rx="3" ry="3" fill="#0050ef" stroke="none" pointer-events="all"/></g><g><rect x="4392.5" y="280" width="160" height="60" fill="#111111" stroke="#aaaaaa" pointer-events="all"/></g><g><rect x="4407.5" y="312.5" width="130" height="15" fill="#0050ef" stroke="none" pointer-events="all"/></g><g><rect x="4392.5" y="360" width="160" height="60" fill="#111111" stroke="#aaaaaa" pointer-events="all"/></g><g><rect x="4407.5" y="392.5" width="130" height="15" fill="#0050ef" stroke="none" pointer-events="all"/></g></g></svg>